M48
;Layer_Color=9474304
;FILE_FORMAT=4:4
METRIC,LZ
;TYPE=PLATED
T1F00S00C0.2000
T2F00S00C0.3000
T3F00S00C0.3200
T4F00S00C0.4000
T5F00S00C0.5000
T6F00S00C0.6000
T7F00S00C1.0000
T8F00S00C1.0200
T9F00S00C1.1000
T10F00S00C1.3000
T11F00S00C1.6000
T12F00S00C2.0900
%
T01
X039405Y02687
X03942Y0271
X03945Y02716
X03943096Y02726904
X0392625Y02727
X03916585Y0273012
X039175Y02742
X0391825Y027505
X0393075Y0274625
X0393775Y02741
X039255Y027075
X039145Y0271325
X0390625Y02706
X0389575Y0271
X038865Y0270725
X0388725Y02719
X03883572Y02740072
X038555Y027345
X0384725Y0274925
X0383775Y02763
X03825944Y02760086
X03809473Y0275538
X0380325Y0277775
X0382136Y02734577
X0382775Y02725
X038745Y0268075
X0388325Y0268275
X03888Y0267475
X0389575Y026695
X03894Y0269225
X03982Y02698
X03994Y02705
X04003Y02692
X04018709Y0267812
X040285Y0266925
X04027Y0266075
X0398625Y026735
X03974838Y02669705
X03975361Y02663748
X04002Y02751
X04061161Y02710388
X04075Y02713
X04073063Y02685563
X04104437Y02671437
X041025Y0265425
X04134874Y02659538
X04135874Y02673538
X04136624Y02684538
X04130374Y02688788
X04143374Y02704288
X0414325Y027115
X04151374Y02713288
X0415225Y027025
X04162124Y02701538
X0416225Y027125
X0417425
X04175548Y02704032
X04184874Y02702288
X04185124Y02713038
X0421425Y02711
X0422575
X04228Y0269925
X0421575Y027
X04209624Y02689538
X04217624Y02681788
X04199374Y02682538
X04167624Y02687038
X0416425Y0265575
X0419175Y0265125
X042055Y0265
X042195Y026505
X04236Y0265125
X0425525Y0265075
X0425475Y026605
X042645Y0265875
X0426325Y02669
X0427225Y0266925
X0428075
X04279Y0265875
X04276Y0264975
X04296Y0265075
X0429175Y0266175
X04298Y026675
X0431075Y026515
X043245Y026525
X04326Y027155
X0433525
X0434425Y02716
X04357Y0272175
X0436325Y02728
X043165Y027135
X043115Y027085
X0430575Y02703
X043Y02697
X042825Y0270075
X0427275
X0426375Y026985
X04263Y0268975
Y0268
X04253Y0268425
Y026965
X04241Y0270025
X0423975Y0271125
X0425875
X042625Y0271575
X042765Y0271225
X0428625Y02715
X04282Y02755
X04318676Y02755663
X04318Y02763
X04336Y02765
X04206Y02767
X04196
X0417825Y027615
X0416175Y0276275
X0415925Y0275475
X0414725Y02755
X0414425Y02763
X04128Y0276425
X041115
X041195Y0275275
X0425325Y0267075
X0436575Y0265775
X04378Y0265975
X043915Y02662
X0440225Y0267
X0440925Y02685
X04415Y026975
X044245Y0271725
X0443675Y0273175
X04445Y02748
X044635Y0274925
X04472Y0275375
X044825Y0276025
X044965Y0276525
X0450475Y027765
X04378Y0276425
X0437225Y0275825
X0437275Y02749
X043715Y02738
X04402Y0278375
X04416Y02805
X04391Y02812
X0437725Y02811
X0437025Y028165
X0438275Y0282025
X0437575Y0282925
X043845Y02836
X0439275Y02827
X0440475Y028455
X04399Y028515
Y02864
X043935Y02859
X043755Y0285575
X04376Y02845
X043665Y028385
X04394Y02885
X04393Y02911
X04421Y02914
X04429Y02913
X04445Y0291225
X044525Y029165
X04452Y02926
X0444125Y0292875
X0443Y029295
X04419352Y02951083
X04412634Y02944366
X04412Y02965
X04414404Y02989404
X044045Y03011
X0439875Y0301225
X044035Y0301725
X0439975Y030385
X04392Y0305375
X04385Y03053
X0438175Y030645
X04374Y03059
X0439275Y0307025
X044015Y030705
X044135Y0307025
X044225Y03071
X0442625Y03065
X044205Y0306
X044135Y030525
X04417Y03092
X04433Y0309025
X0444375Y0308875
X0445975Y03118
Y0312975
Y0314
Y0315425
X044635Y0316775
X0449625Y0316325
Y031385
Y0311725
X0447825Y0310175
X044795Y03074
X044785Y030555
X04466Y03038
X04446713Y03037787
X04436Y03012875
X04479Y02999
X04465Y02968
X04525Y02992
X0455075Y0300075
X045505Y0302125
Y0304
Y03061
X0454925Y0308175
X0454825Y0310775
X0454875Y03132
X04416Y03119
X04397Y03126
X0439725Y030975
X04397Y030875
X04376812Y03109238
X04379Y03151302
X04381Y03167302
X04416Y03172
X04417Y03154
X04383974Y03028026
X04369Y02991
X0437425Y0294575
X043885Y0294425
X0439475Y02948
X04384Y02955
X0436825Y0293425
X0437Y02928
X04439113Y02901389
X044425Y0289025
X04532723Y02889387
X0453725Y0290675
X04541185Y02919388
X045515Y0295125
X0455075Y0297325
X04518Y028595
X0451775Y0285025
X0452Y02832
X045155Y028195
X0451225Y028075
X045085Y027935
X04445Y02795306
X04358824Y02796041
X0436025Y0282625
X0436125Y02841
X0436525Y0284825
Y0285575
X043565Y0286175
X04359Y0286875
X0436425Y0287525
X043565Y0288275
X0436225Y0288925
Y029015
X04356Y0289625
X0434675Y02903
X04345Y0290975
X043515Y02914
X0435825Y0291425
X04356Y0292575
X043485Y029245
X0434275Y02922
X0433675Y029185
X04332Y0292925
X04328Y0293725
X04327Y02948
X0432175Y02943
X0431675Y02948
X043025Y029425
X0430725Y02937
X04295Y0293625
X0428625
X04286Y0294525
X042945
X042765
X0427625Y0293625
X04269Y0294
X04257672Y02943329
X0424775Y029375
X042315Y029515
X04216Y02946
X04186708Y02940112
X04182Y0290175
X0418325Y0289
X0417825Y02879
X041825Y02863
X04187Y0285675
X042005Y0285725
X0419575Y0284175
X0417375
X0415325
X0413525
X0414325Y0285575
X0412525
X04132Y02873
X0412675Y0288175
X0411775Y0288125
X041025Y0288
X041065Y0286675
X0409425Y0285625
X0409575Y0284075
X0410925
X0412075Y0283075
X0412725Y0282225
X0409875Y02821
X0409Y02822
X0408975Y0279675
X0407175Y02797
X04066Y02826
X040615Y0284175
X040505Y02843
X0404175Y028505
X0402825Y0284525
X0401825Y0284475
X04010654Y02842376
X04023151Y02838442
X04033Y028375
X04028Y0285825
X0402825Y0286525
X0403475Y028795
X0403025Y0288575
X04032Y02896
X04028Y0290125
X0402625Y0291
X0400575
X04004141Y02921141
X03998035Y02920983
X03987Y02924
X0398Y02917
X03982Y02897
X0397375Y0286675
X03984Y02858
X0399Y02821
X0400125
X03976Y028215
X03975Y02789
X0400925Y02797
X04016292Y0279864
X0409975Y02788
X04106Y027825
X0413425Y0278
X041355Y0279
X0413475Y0279975
X0414675
X041475Y0279
X0414625Y0278
X0415875Y0278025
X04158374Y02790538
X041575Y0279925
X0416375Y0285575
X0415775Y02868
X0415275Y02882
X0415125Y0290625
X0414225Y029065
X04128403Y02910141
X0410675Y029045
X0408125Y02889
X04082698Y02877894
X04052Y02887
X04055Y02933
Y02939
Y02946
X0405175Y02952
X04059Y0296
X04065Y02957
X04064Y02979
X0405Y02975
X0404625Y02997
X04026Y02998
X0402175Y03003
X0402575Y03007437
X0402175Y02992828
X04019407Y0298325
X04007Y0299
X03994253Y02985
X03983Y02988812
X03982964Y02995857
X03973Y02999883
X03985141Y03014141
X03987Y0303
X03995Y0305
X03990399Y03063
X0402Y03083
Y03042
X04035Y03043
Y03028
X0406Y030795
X040625Y0308975
X0406975Y0310225
X04067Y03112
X04071425Y03116575
X04081Y03116
X0408775Y0312575
X0410425Y031425
X0411175
X0411925
X04148311Y0316825
X0419825Y03170054
X04211Y0313775
X04225Y03141
X0423Y0313325
X0423675Y03128
X04242Y031205
X0425Y0311375
X04256Y031075
X042635
X0427025
X04265Y03119
X0426275Y031315
X0429
X04298Y031195
X04312Y03119
X0431175Y03132
X0430625Y03144
X042955Y031485
X0428625Y0315925
X0429225Y0317025
X043115Y03167
X04312Y031595
X04333Y0317
X04357Y03172
X04355Y03166
X043638Y03168
X04364393Y03142921
X04358Y03146
X04359059Y03136853
X04338Y03135
X04331Y03137
X0433011Y03126
X04337Y03107
X04353931Y03107314
X04353Y03055201
X0434925Y03043
X0435375Y0303825
X04362Y03035
X04361Y03027
X04345Y03028
X0433975Y030335
X043325Y03033
X043305Y03042
X04304757Y03038757
X04306111Y03053617
X04306Y03066
X04303704Y03019104
X04269Y03015
X042625Y0301875
X04263Y0303025
X0426Y030065
X04255Y02997
X04249Y029885
X0424075Y029795
X04277Y0296075
X0428375Y0295975
X042845Y029665
X04291Y029605
X04293828Y02972797
X042985Y0296875
X04303Y02964
X04316Y02977
X04326Y02981
X04326123Y0299
X04327Y02996
X0432Y02989
X04279Y0300225
X042795Y0291825
X042855
X0429175
X0429475Y02911
X0428875Y0290625
X042845Y0290175
X04279Y02907
X0427275Y029125
X0425875Y02889
X042655Y02879
X0426075Y0286625
X0426025Y0285375
X04254Y0285875
X0425375Y0284775
X0424825Y0284125
X0423875Y028405
X0423425Y028485
X0422875Y0285825
X04222Y0285225
X04223Y0284125
X04245707Y02830293
X0424325Y02857
X0428975Y0285375
X04289Y0284675
X0429425Y02859
X0430325Y0286175
X04313Y02862
X04308Y028685
X0431525Y028725
X0431825Y028835
X0432325Y0287925
X043235Y028885
X0429175Y0288525
X0428975Y0289175
X04295Y028965
X0429425Y02874
X04288Y028735
X043175Y0285125
X043165Y02844
X04310276Y0284179
X0430525Y0283425
X043005Y0282825
X0429425Y028235
X04304Y0281575
X043145Y02826
X0432025Y0283225
X0434775Y028585
X043625Y0292875
X043555Y02944
X0434875
X043405Y029475
X04353Y03015
X04341Y03152
X0427975Y03143
X0427075Y0315275
X042605Y03161
X04239Y03163813
X0425825Y03086
Y0307725
X0425875Y0281325
X042665Y02813
X0427425Y0281325
X0433204Y0278104
X04112533Y02946691
X04091Y0296
X0408Y029705
X0402475Y02960539
Y02952003
Y02946
Y02939
Y02933171
X04009Y0294775
X04004Y02943
X040095Y02961339
X04009789Y02970461
X03982699Y02961255
X03976219Y02961556
X03970708Y02952117
X03969Y02944
X03972509Y03103969
X03973486Y03110486
X03981Y03106
X0398111Y03134
X03988544Y03132988
X04000102Y03121
X04004Y03116
X0404375Y031455
X0406Y03165
X03981Y03168
X0395Y03165
X03942936Y031667
X03956339Y03155689
X03952373Y0314663
X0394035Y0314465
X03924Y03149
X03916Y0314
X03919Y03171
X03880254Y03169
X03871Y0317
X03861Y03169
X03862016Y03161734
X03867Y03153
X03877
X03877761Y03147004
X0387075Y03145
X03870713Y0312675
X03861313
X03854738
X0383475Y0312625
X038315Y031335
X03827Y0311
X03844Y03092
X03852696Y0309075
X03863665Y03091335
X03875023Y03089259
X03873289Y0309525
X0387Y03101
X03887869Y03098474
X0389775Y030985
X0390175Y0311875
X03887287Y03126004
X03877848Y0315913
X03837012Y03163
X03776785Y03160421
X0377525Y0315175
X0377275Y0314375
X0376725Y0312575
X03761306Y03099746
X037615Y030825
X0376075Y030605
X0377725Y030585
X03777Y0305025
X037615Y03038
X03762Y030145
X0376125Y0299275
X037745Y0299125
X037765Y0297625
X03762Y029745
X03767Y0295625
X0377Y02943
X03773Y0293
X03777Y0291075
X0377975Y0289575
X03783221Y02880323
X03784832Y0286373
X03792Y02869
X03789785Y0284367
X0379275Y0283175
X03795Y02816
X03807Y0281325
X038065Y028015
X03825Y0280825
X0383164Y02802558
X03844Y028115
X03857Y02807
X038575Y02798
X0386775Y0278775
X03873Y02781
X0388075Y0284625
X03882Y0285775
X0387175Y0285675
X03864Y0285525
X03858387Y0286249
X0387625Y0287
X0387725Y0287775
X03895Y02871
X03896401Y02861747
X038955Y0284725
X03915Y02849
X03907422Y02856918
X03923115Y02858115
X0393554Y02860189
X03935Y028495
X03945Y02846955
X03937945Y02837
X03932Y028155
X0393725Y0287975
X03945Y028815
X0395375Y0287325
X0394975Y0286775
X039565Y0286175
X0396225Y0286675
X039675Y028595
X03937565Y02922152
X03924062Y02927
X03914561Y02927562
X03929113Y02932912
X0392754Y02941076
X03910757Y02947243
X03903Y02944
X03897Y0294
X03895Y02928
X03891721Y02904029
X03899Y02902
X03893115Y02888115
X03889Y02956
X039005Y029575
X03898341Y02968
X03895Y02973
X03887797Y02972366
X03875Y02972
Y02955
X03864Y02961
X03856Y02968
X03863Y02992
X03871Y02986
X03880295Y03003705
X03881Y0301275
X03877Y03024231
X03879Y03041
X0388Y03057
X038815Y03062696
X03877309Y03067691
X03880632Y03073759
X03886604Y03076
X0386702Y03078362
X03849413Y0307658
X03843932Y03053932
X0384925Y03033731
X0381825Y03048
X03809Y03047
X03808Y0304
X0381Y03056
X0379575Y03075
X03917Y03071
X0393325Y03078505
X03942Y0306
X03945Y03033
X03932609Y03034609
X0391175Y0303225
X03917Y0301775
X03907893Y02999957
X03906Y02981
X0390691Y02972792
X03927Y02964
X0395137Y02964132
X03952Y02958
X0395129Y0294571
X03957435Y02949
X03967Y02998808
X03948487Y03005679
X03941231Y03008989
X0393016Y02995989
X03895Y02992
X03837Y0299
X03834Y02958
X0382475Y0288275
X0382225Y02846
X038285Y0284075
X03831Y0282375
X03809Y02825
X03964Y0304
X039615Y03071
X03963323Y0310372
X03968Y03113
X03958463Y03117
X03963607Y03122985
X03953643Y03109043
X0394875Y0310375
X03936545Y03113
X03941134Y03118959
X03927045Y03115175
X03905096Y03182172
X03905Y0319616
X03905096Y03202
Y03209
X03905Y0322
X03881
X03876Y03215
X03875Y03202
X03867859Y03209141
X03874017Y03248592
X03881037Y03248
X039073Y03245625
X0390741Y0326428
X039215Y032645
X03902674Y03280504
X03898Y0330025
X0391175Y0330175
X03916576Y03310762
X0392475Y0330975
X039245Y033005
X03922631Y0332582
X03932Y03329
X0390725Y0332375
X03902827Y03314527
X0389225Y033225
X03873366Y03324511
X0387625Y0333825
X038735Y03356
X0385725Y03365
X03840959Y03347588
X03827Y0333925
X03832285Y03323856
X0381925Y03318
X03827538Y03304707
X038435Y032945
X038515Y0328125
X03854Y0326125
X03839814Y03268699
X03842432Y03250859
X03836Y0324425
X03828Y032495
X03827538Y03258551
X0381425Y0326775
X038055Y0325775
X03809535Y03218943
X03785577Y03191377
X0387325Y0327025
X03864365Y03293086
X03861Y03311
X03882041Y03310762
X0389125Y0336675
X039165Y03364
X03914448Y03352335
X0392975Y033655
X0396Y033605
X03946753Y0327766
X03953Y03231
X03980641Y03220359
X03994Y03227
X0401Y03226
X04004Y03238
X03999Y03243
X04015Y0324
X0401375Y0319825
X0405075Y0319725
X040545Y031895
X04082Y03182
X0417175Y0318975
X041985Y031875
X042105Y031905
X0423475Y03188
X04256219Y03190758
X0425575Y031835
X0428425Y031855
X0430075Y0317875
X0431175Y0317625
X0433011Y03181
X04296Y03212
X0430625Y03232
X04286Y0323975
X0429575Y032645
X04309Y03262
X04351Y032665
X0436025Y0327475
X043635Y0329075
X0434051Y0330751
X04342Y03319
X04341191Y03325059
X0433825Y0333175
X04342406Y03337
X04341Y03345
X0433525Y0335525
X04327Y033555
X04313081Y03356013
X0429775Y03355
X042865Y0335625
X042735Y0327575
X04176Y0328625
X04154201Y03281296
X04156265Y03274069
X0415Y032635
X0414325Y0325375
X041755Y0325775
X0418125Y032485
X04145942Y03287834
X04121682Y03285941
X0412325Y0327275
X0413725Y033135
X041525Y03314
X04158Y0336025
X0412325Y033605
X04107Y0336075
X040825Y03361
X0405875Y033605
X040365Y0335975
X0401125
X03986Y0336075
X03983Y03321
X04007Y033225
X0400625Y0331325
X0400596Y03304955
X0401Y032965
X04007Y03288
X0400925Y0327925
X0399325Y0328525
X03983Y03285
X03984Y0326
X04038674Y03272504
X040275Y0332325
X0406375Y03324
X04367Y03351
X04426Y0334475
X04427Y03332
X04426Y03312
X04428Y0327875
X04421925Y03270763
X043995Y0327625
X0439577Y03266954
X04397Y03249
X0437875
X04373423Y03264668
X04381042Y0327508
X043845Y0329075
X04394Y03301
X04453666Y03280158
X044635Y03271
X0448575Y032735
X04479Y03283
X0447068Y03290569
X044845Y0331275
X04497Y033055
X044975Y0332275
X0449325Y0333875
X04482011Y03361857
X0445Y033675
X0443775Y0336575
X044475Y03353
X04452Y03335
X0450325Y032835
X0450825Y032705
X04524Y0322675
X0448975Y0322025
X04467125Y03217436
X044455Y032185
X0441251Y0322851
X04389Y03211
X04367Y03208
X04404Y03195
X0447775Y03205
X0448975Y03191
T02
X03944Y02671
X0390025Y027225
X0392575Y0276925
X03974Y02773
X04028
X04026Y02765771
X04027Y02711
X04044Y02701
X04016466Y02685074
X03998Y02725
X041095Y02702
X0421525Y0274
X042315Y027495
X0422275Y0276325
X04212394Y02770606
X0429Y02736
X04348Y02744
X04381Y02804
X0443575Y0282525
X0444975Y028755
X04386Y02897
X04423Y02938
X0441385Y0297315
X04373875Y02975875
X04481Y03011
X0446Y03056
X044077Y03132
X0433975Y0301425
X04326Y02915
X04327Y0286
X04346Y02879
X04327Y02817
X04324Y02785
X04302Y02805
X04237767Y02795978
X04231998Y02788647
X04227557Y02781814
X04216Y02822
X04202
X04078Y02841
X04052Y02868
X04029Y02874
X03985Y0289
X03977Y02799
X040043Y027877
X0405925Y02795
X03992335Y03001335
X03976Y03029
X04001Y03139
X04068Y03154
X04134Y03164
X04239Y02952
X0394625Y029205
X03909066Y02922066
X03817Y02931
X038015Y0292275
X03799Y03005
X03855Y03017
X03935366Y03002489
X039635Y03033
X03962Y02799
X03943667Y031965
X03935
X03926333
X03917667
X03916667Y03213
X03925333
X03934
X03942667
Y0323
X03934
X03925333
X03916667
X03954207Y03223396
X03955Y03244
X03943Y032545
X0393575Y03259
X03927Y0334
X03876Y03301
X03993819Y03207181
X0399675Y031855
X04004Y03192
X03982Y031785
X04063Y03195
X04134Y03183
X04134Y03247
X04121Y0326
X04194Y03274
Y03351
X04243Y03341
X04252Y03316
X042785Y0330025
X0429975Y033005
X04287Y0327
X04316Y03236
X04349676Y0320125
X04458Y03177
X04437Y03271
X04427Y033
X04474Y03311
T03
X04043Y03172
T04
X04219Y02728
X04097Y02697
X04061Y031015
X03991594Y03073
X04295997Y03101003
X0394975Y0307475
X04218Y03252
T05
X04272Y03162
X04297Y03251
T06
X03864588Y02740072
X03845Y02738
X03837Y02751856
X03856588Y02753928
X03848588Y02767785
X04462313Y03088687
X04502Y03088
X04339Y0329
X04236Y03306
X0416575Y0331225
X04166858Y03229142
X04077Y03321
X04397Y03229
T07
X043284Y02683
X04303
X042776
X041824Y02731
X04157
X041316
X04393431Y02745193
X04408Y02766
X04422569Y02786807
X04492566Y02820063
X0449871Y02844709
X04504855Y02869355
X04511Y02894
Y029608
Y029862
Y030116
Y03037
T08
X0386489Y02874064
X0384Y02869
X03834936Y0289389
X03859826Y02898954
X03854762Y02923844
X03829872Y0291878
X03824808Y0294367
X03819744Y0296856
X03844634Y02973624
X03849698Y02948734
T09
X042466Y02869
Y028944
X042212
Y02869
X041958
Y028944
X041704
Y02869
X04145
Y028944
X041196
Y02869
X040942
Y028944
X040688
Y02869
T10
X042245Y02666
X041991
X041737
X041483
X041229
X040789
X040464
X04534Y03079
X04528936Y0310389
X04523872Y0312878
X04518808Y0315367
X03795452Y03149617
X03790302Y03124745
X03785151Y03099872
X0378Y03075
X03800603Y03174489
X03806236Y03203955
X03812616Y03235313
X04142894Y03348723
X04173Y03349
X04501383Y03239316
X04507763Y03207958
X04513744Y0317856
T11
X04009Y02667
X038245Y03287
X04452894Y03307722
T12
X03867044Y02717818
X03830544Y02781038
M30
