G04*
G04 #@! TF.GenerationSoftware,Altium Limited,Altium Designer,23.1.1 (15)*
G04*
G04 Layer_Color=16711935*
%FSLAX44Y44*%
%MOMM*%
G71*
G04*
G04 #@! TF.SameCoordinates,6EFD8887-9970-4281-88DB-E4BF4750D848*
G04*
G04*
G04 #@! TF.FilePolarity,Positive*
G04*
G01*
G75*
%ADD10C,0.1000*%
%ADD11C,0.2000*%
D10*
X4255000Y2786500D02*
X4261500Y2793000D01*
X4255000Y2743000D02*
Y2793000D01*
Y2743000D02*
X4299000D01*
Y2793000D01*
X4255000D02*
X4299000D01*
X3931500Y3153000D02*
X3942500D01*
X3931500Y3159000D02*
X3942500D01*
X3931500Y3153000D02*
Y3159000D01*
X3942500Y3153000D02*
Y3159000D01*
X3900167Y3282500D02*
X3961167D01*
Y3142500D02*
Y3282500D01*
X3900167Y3142500D02*
X3961167D01*
X3900167D02*
Y3282500D01*
Y3277500D02*
X3905167Y3282500D01*
X4018000Y2835350D02*
X4298700D01*
Y2929350D01*
X4018000D02*
X4298700D01*
X4018000Y2835350D02*
Y2929350D01*
X4018174Y3178754D02*
X4039174D01*
X4018174Y3192254D02*
X4039174D01*
X4018174Y3178754D02*
Y3192254D01*
X4039174Y3178754D02*
Y3192254D01*
X3812657Y2773020D02*
X3851157Y2706336D01*
X3812657Y2773020D02*
X3846432Y2792520D01*
X3884932Y2725836D01*
X3851157Y2706336D02*
X3884932Y2725836D01*
X4385800Y2774000D02*
X4389000Y2777200D01*
X4381000Y2774000D02*
X4389000D01*
X4381000D02*
Y2786000D01*
X4389000D01*
Y2774000D02*
Y2786000D01*
X4027500Y2679200D02*
X4030700Y2676000D01*
X4027500D02*
Y2684000D01*
X4039500D01*
Y2676000D02*
Y2684000D01*
X4027500Y2676000D02*
X4039500D01*
X3982000Y2671200D02*
X3985200Y2668000D01*
X3982000D02*
X3990000D01*
Y2680000D01*
X3982000D02*
X3990000D01*
X3982000Y2668000D02*
Y2680000D01*
X3985000Y2733200D02*
X3988200Y2730000D01*
X3985000D02*
X3993000D01*
Y2742000D01*
X3985000D02*
X3993000D01*
X3985000Y2730000D02*
Y2742000D01*
X3990000Y2703200D02*
X3993200Y2700000D01*
X3990000D02*
Y2708000D01*
X4002000D01*
Y2700000D02*
Y2708000D01*
X3990000Y2700000D02*
X4002000D01*
X4012000Y2691200D02*
X4015200Y2688000D01*
X4012000D02*
Y2696000D01*
X4024000D01*
Y2688000D02*
Y2696000D01*
X4012000Y2688000D02*
X4024000D01*
X3936424Y3290754D02*
X3970924D01*
X3936424Y3318254D02*
X3970924D01*
Y3290754D02*
Y3318254D01*
X3936424Y3290754D02*
Y3318254D01*
X3833750Y3195500D02*
Y3216500D01*
X3820250Y3195500D02*
X3833750D01*
X3820250D02*
Y3216500D01*
X3833750D01*
X4395162Y3130500D02*
Y3174500D01*
X4345162D02*
X4395162D01*
X4345162Y3130500D02*
X4395162D01*
X4345162D02*
Y3174500D01*
Y3137000D02*
X4351662Y3130500D01*
X4372000Y3198125D02*
X4382500D01*
X4372000Y3192625D02*
Y3198125D01*
X4382500Y3192625D02*
Y3198125D01*
X4372000Y3192625D02*
X4382500D01*
X4371750Y3193188D02*
X4382250D01*
X4371750D02*
Y3198688D01*
X4382250Y3193188D02*
Y3198688D01*
X4371750D02*
X4382250D01*
X4463500Y2986000D02*
X4470000Y2992500D01*
X4440000Y2986000D02*
X4470000D01*
X4440000D02*
Y3016000D01*
X4470000D01*
Y2986000D02*
Y3016000D01*
X4117000Y3194000D02*
Y3202000D01*
X4101000Y3194000D02*
X4117000D01*
X4101000D02*
Y3202000D01*
X4117000D01*
X4080924Y3262254D02*
X4108424D01*
X4080924Y3296754D02*
X4108424D01*
Y3262254D02*
Y3296754D01*
X4080924Y3262254D02*
Y3296754D01*
X3845500Y3071000D02*
X3872500D01*
X3845500Y3037000D02*
Y3071000D01*
Y3037000D02*
X3872500D01*
Y3071000D01*
X3901000Y3080000D02*
X3906000Y3085000D01*
X3901000Y2985000D02*
Y3085000D01*
Y2985000D02*
X4001000D01*
Y3085000D01*
X3901000D02*
X4001000D01*
X4028750Y3055250D02*
Y3060750D01*
X4039250Y3055250D02*
Y3060750D01*
X4028750D02*
X4039250D01*
X4028750Y3055250D02*
X4039250D01*
X4345875Y2992875D02*
X4352375Y2999375D01*
X4345875Y2949375D02*
Y2999375D01*
Y2949375D02*
X4389875D01*
Y2999375D01*
X4345875D02*
X4389875D01*
X4123000Y2802000D02*
Y2805000D01*
X4131000Y2819000D01*
X4167000D01*
X4175000Y2805000D01*
Y2781000D02*
Y2805000D01*
X4167000Y2767000D02*
X4175000Y2781000D01*
X4131000Y2767000D02*
X4167000D01*
X4123000Y2781000D02*
X4131000Y2767000D01*
X4123000Y2781000D02*
Y2803000D01*
X4364750Y3039750D02*
Y3050250D01*
X4359250Y3039750D02*
Y3050250D01*
X4364750D01*
X4359250Y3039750D02*
X4364750D01*
X4382250Y3045250D02*
X4387750D01*
X4382250Y3034750D02*
X4387750D01*
Y3045250D01*
X4382250Y3034750D02*
Y3045250D01*
X4378750Y3032000D02*
Y3049500D01*
X4369250Y3032000D02*
Y3049500D01*
X4378750D01*
X4369250Y3032000D02*
X4378750D01*
X4018174Y3192254D02*
X4039174D01*
X4018174Y3178754D02*
X4039174D01*
X4018174D02*
Y3192254D01*
X4039174Y3178754D02*
Y3192254D01*
X4319000Y3256670D02*
X4321670Y3254000D01*
X4319000D02*
X4327000D01*
Y3270000D01*
X4319000D02*
X4327000D01*
X4319000Y3254000D02*
Y3270000D01*
X4441250Y2936750D02*
X4446750D01*
X4441250Y2947250D02*
X4446750D01*
X4441250Y2936750D02*
Y2947250D01*
X4446750Y2936750D02*
Y2947250D01*
X4435750Y2936750D02*
Y2947250D01*
X4430250Y2936750D02*
Y2947250D01*
X4435750D01*
X4430250Y2936750D02*
X4435750D01*
X4452250D02*
Y2947250D01*
X4457750Y2936750D02*
Y2947250D01*
X4452250Y2936750D02*
X4457750D01*
X4452250Y2947250D02*
X4457750D01*
X4309750Y2912750D02*
Y2923250D01*
X4304250Y2912750D02*
Y2923250D01*
X4309750D01*
X4304250Y2912750D02*
X4309750D01*
X4310750Y2891750D02*
Y2902250D01*
X4305250Y2891750D02*
Y2902250D01*
X4310750D01*
X4305250Y2891750D02*
X4310750D01*
X4011000Y2731670D02*
X4013670Y2729000D01*
X4011000D02*
X4019000D01*
Y2745000D01*
X4011000D02*
X4019000D01*
X4011000Y2729000D02*
Y2745000D01*
X4039000Y2713000D02*
Y2729000D01*
X4047000D01*
Y2713000D02*
Y2729000D01*
X4039000Y2713000D02*
X4047000D01*
X4039000Y2715670D02*
X4041670Y2713000D01*
X3915500Y2843000D02*
X3926500D01*
X3915500Y2837000D02*
X3926500D01*
X3915500D02*
Y2843000D01*
X3926500Y2837000D02*
Y2843000D01*
X4029250Y3081250D02*
X4039750D01*
X4029250Y3075750D02*
X4039750D01*
X4029250D02*
Y3081250D01*
X4039750Y3075750D02*
Y3081250D01*
X4223480Y3337620D02*
X4246380Y3360520D01*
X4223480Y3295480D02*
Y3360520D01*
Y3295480D02*
X4258520D01*
Y3360520D01*
X4223480D02*
X4258520D01*
X3963297Y3142250D02*
Y3147750D01*
X3973797Y3142250D02*
Y3147750D01*
X3963297Y3142250D02*
X3973797D01*
X3963297Y3147750D02*
X3973797D01*
X3886674Y3149754D02*
Y3155254D01*
X3897174Y3149754D02*
Y3155254D01*
X3886674Y3149754D02*
X3897174D01*
X3886674Y3155254D02*
X3897174D01*
X3886674Y3159754D02*
Y3165254D01*
X3897174Y3159754D02*
Y3165254D01*
X3886674Y3159754D02*
X3897174D01*
X3886674Y3165254D02*
X3897174D01*
X3898174Y3171504D02*
Y3177504D01*
X3887174Y3171504D02*
Y3177504D01*
X3898174D01*
X3887174Y3171504D02*
X3898174D01*
X3889524Y3207854D02*
X3895524D01*
X3889524Y3196854D02*
X3895524D01*
X3889524D02*
Y3207854D01*
X3895524Y3196854D02*
Y3207854D01*
X3915174Y3294254D02*
X3936174D01*
X3915174Y3280754D02*
X3936174D01*
Y3294254D01*
X3915174Y3280754D02*
Y3294254D01*
X3915750Y2837250D02*
Y2842750D01*
X3926250Y2837250D02*
Y2842750D01*
X3915750Y2837250D02*
X3926250D01*
X3915750Y2842750D02*
X3926250D01*
X3903000Y2732000D02*
Y2740000D01*
X3897000D02*
X3903000D01*
X3897000Y2732000D02*
Y2740000D01*
Y2732000D02*
X3903000D01*
X3900500D02*
X3903000Y2734500D01*
X4531000Y2990500D02*
X4537000D01*
X4531000Y3001500D02*
X4537000D01*
Y2990500D02*
Y3001500D01*
X4531000Y2990500D02*
Y3001500D01*
X4382250Y3045250D02*
X4387750D01*
X4382250Y3034750D02*
X4387750D01*
X4382250D02*
Y3045250D01*
X4387750Y3034750D02*
Y3045250D01*
X4359250Y3039750D02*
X4364750D01*
X4359250Y3050250D02*
X4364750D01*
Y3039750D02*
Y3050250D01*
X4359250Y3039750D02*
Y3050250D01*
X4165000Y3170330D02*
X4167670Y3173000D01*
X4165000Y3165000D02*
Y3173000D01*
Y3165000D02*
X4181000D01*
Y3173000D01*
X4165000D02*
X4181000D01*
X4352500Y3156000D02*
Y3162000D01*
X4363500Y3156000D02*
Y3162000D01*
X4352500Y3156000D02*
X4363500D01*
X4352500Y3162000D02*
X4363500D01*
X4268750Y3036250D02*
Y3041750D01*
X4279250Y3036250D02*
Y3041750D01*
X4268750Y3036250D02*
X4279250D01*
X4268750Y3041750D02*
X4279250D01*
X4335250Y3128500D02*
X4340750D01*
X4335250Y3118000D02*
X4340750D01*
X4335250D02*
Y3128500D01*
X4340750Y3118000D02*
Y3128500D01*
X4352625Y2978625D02*
X4363125D01*
X4352625Y2984125D02*
X4363125D01*
X4352625Y2978625D02*
Y2984125D01*
X4363125Y2978625D02*
Y2984125D01*
X3883000Y2774000D02*
Y2796000D01*
Y2774000D02*
X3891000Y2760000D01*
X3927000D01*
X3935000Y2774000D01*
Y2798000D01*
X3927000Y2812000D02*
X3935000Y2798000D01*
X3891000Y2812000D02*
X3927000D01*
X3883000Y2798000D02*
X3891000Y2812000D01*
X3883000Y2795000D02*
Y2798000D01*
X4394350Y2974150D02*
X4405350D01*
X4394350Y2980150D02*
X4405350D01*
X4394350Y2974150D02*
Y2980150D01*
X4405350Y2974150D02*
Y2980150D01*
X4443000Y3043800D02*
Y3054800D01*
X4449000Y3043800D02*
Y3054800D01*
X4443000D02*
X4449000D01*
X4443000Y3043800D02*
X4449000D01*
X4056750Y2718250D02*
X4091250D01*
X4056750Y2745750D02*
X4091250D01*
X4056750Y2718250D02*
Y2745750D01*
X4091250Y2718250D02*
Y2745750D01*
X4527647Y2870553D02*
Y2881553D01*
X4521647Y2870553D02*
Y2881553D01*
Y2870553D02*
X4527647D01*
X4521647Y2881553D02*
X4527647D01*
X4402500Y2730000D02*
X4413500D01*
X4402500Y2724000D02*
X4413500D01*
Y2730000D01*
X4402500Y2724000D02*
Y2730000D01*
X4348250Y2811750D02*
Y2822250D01*
X4353750Y2811750D02*
Y2822250D01*
X4348250D02*
X4353750D01*
X4348250Y2811750D02*
X4353750D01*
X4347000Y2809670D02*
X4349670Y2807000D01*
X4347000D02*
X4355000D01*
Y2823000D01*
X4347000D02*
X4355000D01*
X4347000Y2807000D02*
Y2823000D01*
X4370750Y2798750D02*
Y2809250D01*
X4365250Y2798750D02*
Y2809250D01*
X4370750D01*
X4365250Y2798750D02*
X4370750D01*
X4288500Y2764000D02*
X4291000Y2766500D01*
X4285000Y2764000D02*
X4291000D01*
X4285000D02*
Y2772000D01*
X4291000D01*
Y2764000D02*
Y2772000D01*
X4325750Y3256750D02*
Y3267250D01*
X4320250Y3256750D02*
Y3267250D01*
Y3256750D02*
X4325750D01*
X4320250Y3267250D02*
X4325750D01*
X3953750Y2667750D02*
X3964250D01*
X3953750Y2662250D02*
X3964250D01*
X3953750D02*
Y2667750D01*
X3964250Y2662250D02*
Y2667750D01*
X3982750Y2737750D02*
X3993250D01*
X3982750Y2732250D02*
X3993250D01*
Y2737750D01*
X3982750Y2732250D02*
Y2737750D01*
X3967250Y2701650D02*
Y2707150D01*
X3956750Y2701650D02*
Y2707150D01*
X3967250D01*
X3956750Y2701650D02*
X3967250D01*
X4041250Y2715750D02*
Y2726250D01*
X4046750Y2715750D02*
Y2726250D01*
X4041250D02*
X4046750D01*
X4041250Y2715750D02*
X4046750D01*
X4012250Y2731750D02*
Y2742250D01*
X4017750Y2731750D02*
Y2742250D01*
X4012250D02*
X4017750D01*
X4012250Y2731750D02*
X4017750D01*
X4077750Y2695500D02*
Y2706000D01*
X4072250Y2695500D02*
Y2706000D01*
Y2695500D02*
X4077750D01*
X4072250Y2706000D02*
X4077750D01*
X4345250Y2758750D02*
Y2769250D01*
X4350750Y2758750D02*
Y2769250D01*
X4345250D02*
X4350750D01*
X4345250Y2758750D02*
X4350750D01*
X3905500Y2874000D02*
X3916500D01*
X3905500Y2868000D02*
X3916500D01*
Y2874000D01*
X3905500Y2868000D02*
Y2874000D01*
X3931250Y3058750D02*
Y3069250D01*
X3936750Y3058750D02*
Y3069250D01*
X3931250D02*
X3936750D01*
X3931250Y3058750D02*
X3936750D01*
X4167750Y3166250D02*
X4178250D01*
X4167750Y3171750D02*
X4178250D01*
X4167750Y3166250D02*
Y3171750D01*
X4178250Y3166250D02*
Y3171750D01*
X4210500Y3167250D02*
X4221000D01*
X4210500Y3172750D02*
X4221000D01*
X4210500Y3167250D02*
Y3172750D01*
X4221000Y3167250D02*
Y3172750D01*
X4379250Y3102500D02*
X4384750D01*
X4379250Y3092000D02*
X4384750D01*
Y3102500D01*
X4379250Y3092000D02*
Y3102500D01*
X4432250Y2798750D02*
Y2809250D01*
X4437750Y2798750D02*
Y2809250D01*
X4432250D02*
X4437750D01*
X4432250Y2798750D02*
X4437750D01*
X4405250Y2794750D02*
Y2805250D01*
X4410750Y2794750D02*
Y2805250D01*
X4405250D02*
X4410750D01*
X4405250Y2794750D02*
X4410750D01*
X4451250Y2753050D02*
Y2763550D01*
X4456750Y2753050D02*
Y2763550D01*
X4451250D02*
X4456750D01*
X4451250Y2753050D02*
X4456750D01*
X3875250Y2926750D02*
X3880750D01*
X3875250Y2937250D02*
X3880750D01*
Y2926750D02*
Y2937250D01*
X3875250Y2926750D02*
Y2937250D01*
X4425250Y2739750D02*
Y2750250D01*
X4430750Y2739750D02*
Y2750250D01*
X4425250D02*
X4430750D01*
X4425250Y2739750D02*
X4430750D01*
X3853500Y3041000D02*
Y3047000D01*
X3864500Y3041000D02*
Y3047000D01*
X3853500Y3041000D02*
X3864500D01*
X3853500Y3047000D02*
X3864500D01*
X3853500Y3066000D02*
X3864500D01*
X3853500Y3060000D02*
X3864500D01*
Y3066000D01*
X3853500Y3060000D02*
Y3066000D01*
X3804250Y2932750D02*
Y2943250D01*
X3809750Y2932750D02*
Y2943250D01*
X3804250D02*
X3809750D01*
X3804250Y2932750D02*
X3809750D01*
X4222980Y3283520D02*
X4258020D01*
Y3218480D02*
Y3283520D01*
X4222980Y3218480D02*
X4258020D01*
X4222980D02*
Y3283520D01*
Y3260620D02*
X4245880Y3283520D01*
X3907000Y3173500D02*
X3913000D01*
X3907000Y3162500D02*
X3913000D01*
X3907000D02*
Y3173500D01*
X3913000Y3162500D02*
Y3173500D01*
X4020474Y3269504D02*
X4031474D01*
X4020474Y3275504D02*
X4031474D01*
X4020474Y3269504D02*
Y3275504D01*
X4031474Y3269504D02*
Y3275504D01*
X4043674Y3252004D02*
X4049674D01*
X4043674Y3263004D02*
X4049674D01*
Y3252004D02*
Y3263004D01*
X4043674Y3252004D02*
Y3263004D01*
X4077174Y3244004D02*
Y3307004D01*
X4014174Y3244004D02*
Y3307004D01*
X4077174D01*
X4014174Y3244004D02*
X4077174D01*
X4122674Y3319004D02*
X4134174Y3307504D01*
X4092674Y3319004D02*
X4122674D01*
X4081174Y3307504D02*
X4092674Y3319004D01*
X4081174Y3266004D02*
Y3307504D01*
Y3266004D02*
X4134174D01*
Y3307504D01*
X4122674Y3319004D02*
X4134174Y3307504D01*
X4091500Y3244050D02*
X4097700Y3250250D01*
X4091500Y3233750D02*
Y3250250D01*
Y3233750D02*
X4118500D01*
Y3250250D01*
X4091500D02*
X4118500D01*
X4033250Y2764250D02*
Y2797750D01*
X4050750Y2764250D02*
Y2797750D01*
X4033250D02*
X4050750D01*
X4033250Y2764250D02*
X4050750D01*
X4007500Y2770000D02*
X4018500D01*
X4007500Y2776000D02*
X4018500D01*
X4007500Y2770000D02*
Y2776000D01*
X4018500Y2770000D02*
Y2776000D01*
X3998500Y2791800D02*
X4011200Y2804500D01*
X3998500Y2755500D02*
Y2804500D01*
Y2755500D02*
X4037500D01*
Y2804500D01*
X3998500D02*
X4037500D01*
X3968750Y2676250D02*
Y2681750D01*
X3979250Y2676250D02*
Y2681750D01*
X3968750Y2676250D02*
X3979250D01*
X3968750Y2681750D02*
X3979250D01*
X3956750Y2688650D02*
X3967250D01*
X3956750Y2694150D02*
X3967250D01*
X3956750Y2688650D02*
Y2694150D01*
X3967250Y2688650D02*
Y2694150D01*
X3956750Y2713650D02*
X3967250D01*
X3956750Y2719150D02*
X3967250D01*
X3956750Y2713650D02*
Y2719150D01*
X3967250Y2713650D02*
Y2719150D01*
X3976750Y2714250D02*
Y2719750D01*
X3987250Y2714250D02*
Y2719750D01*
X3976750Y2714250D02*
X3987250D01*
X3976750Y2719750D02*
X3987250D01*
X3956750Y2726650D02*
X3967250D01*
X3956750Y2732150D02*
X3967250D01*
X3956750Y2726650D02*
Y2732150D01*
X3967250Y2726650D02*
Y2732150D01*
X3967250Y2992250D02*
X3972750D01*
X3967250Y2981750D02*
X3972750D01*
X3967250D02*
Y2992250D01*
X3972750Y2981750D02*
Y2992250D01*
X3943000Y2988105D02*
X3945500Y2990605D01*
X3943000D02*
X3949000D01*
Y2982605D02*
Y2990605D01*
X3943000Y2982605D02*
X3949000D01*
X3943000D02*
Y2990605D01*
X3961000Y2981500D02*
Y2992500D01*
X3955000Y2981500D02*
Y2992500D01*
Y2981500D02*
X3961000D01*
X3955000Y2992500D02*
X3961000D01*
X3908750Y3250250D02*
Y3255750D01*
X3919250Y3250250D02*
Y3255750D01*
X3908750Y3250250D02*
X3919250D01*
X3908750Y3255750D02*
X3919250D01*
X3916924Y3270754D02*
Y3276254D01*
X3906424Y3270754D02*
Y3276254D01*
X3916924D01*
X3906424Y3270754D02*
X3916924D01*
X3933500Y3266000D02*
Y3272000D01*
X3944500Y3266000D02*
Y3272000D01*
X3933500Y3266000D02*
X3944500D01*
X3933500Y3272000D02*
X3944500D01*
X3952250Y3264750D02*
X3957750D01*
X3952250Y3275250D02*
X3957750D01*
Y3264750D02*
Y3275250D01*
X3952250Y3264750D02*
Y3275250D01*
X3952500Y3251000D02*
Y3257000D01*
X3963500Y3251000D02*
Y3257000D01*
X3952500Y3251000D02*
X3963500D01*
X3952500Y3257000D02*
X3963500D01*
X3982000Y3226500D02*
X3988000D01*
X3982000Y3237500D02*
X3988000D01*
X3982000Y3226500D02*
Y3237500D01*
X3988000Y3226500D02*
Y3237500D01*
X3798250Y3088500D02*
Y3109500D01*
X3811750Y3088500D02*
Y3109500D01*
X3798250D02*
X3811750D01*
X3798250Y3088500D02*
X3811750D01*
X4443500Y3248250D02*
X4464500D01*
X4443500Y3261750D02*
X4464500D01*
X4443500Y3248250D02*
Y3261750D01*
X4464500Y3248250D02*
Y3261750D01*
X4443500Y3227250D02*
X4464500D01*
X4443500Y3240750D02*
X4464500D01*
X4443500Y3227250D02*
Y3240750D01*
X4464500Y3227250D02*
Y3240750D01*
X4444250Y3023250D02*
X4449750D01*
X4444250Y3012750D02*
X4449750D01*
Y3023250D01*
X4444250Y3012750D02*
Y3023250D01*
X4456000Y3036500D02*
X4462000D01*
X4456000Y3025500D02*
X4462000D01*
Y3036500D01*
X4456000Y3025500D02*
Y3036500D01*
X4444250Y3002250D02*
X4449750D01*
X4444250Y2991750D02*
X4449750Y2991750D01*
Y3002250D01*
X4444250Y2991750D02*
Y3002250D01*
X3984750Y2693750D02*
X3995250D01*
X3984750Y2688250D02*
X3995250D01*
Y2693750D01*
X3984750Y2688250D02*
Y2693750D01*
X4360250Y3105500D02*
Y3111000D01*
X4370750Y3105500D02*
Y3111000D01*
X4360250D02*
X4370750D01*
X4360250Y3105500D02*
X4370750D01*
X3922750Y2671750D02*
X3933250D01*
X3922750Y2666250D02*
X3933250D01*
Y2671750D01*
X3922750Y2666250D02*
Y2671750D01*
X4025750Y3159000D02*
X4031750D01*
X4025750Y3170000D02*
X4031750D01*
X4025750Y3159000D02*
Y3170000D01*
X4031750Y3159000D02*
Y3170000D01*
X4339413Y3176750D02*
Y3187250D01*
X4344914Y3176750D02*
Y3187250D01*
X4339413D02*
X4344914D01*
X4339413Y3176750D02*
X4344914D01*
X4348000Y3136200D02*
Y3147200D01*
X4354000Y3136200D02*
Y3147200D01*
X4348000D02*
X4354000D01*
X4348000Y3136200D02*
X4354000D01*
X4339413Y3177000D02*
Y3187500D01*
X4344914Y3177000D02*
Y3187500D01*
X4339413Y3177000D02*
X4344914D01*
X4339413Y3187500D02*
X4344914D01*
X4377500Y3162000D02*
X4388500D01*
X4377500Y3156000D02*
X4388500D01*
Y3162000D01*
X4377500Y3156000D02*
Y3162000D01*
X4377000Y3133500D02*
Y3144500D01*
X4371000Y3133500D02*
Y3144500D01*
Y3133500D02*
X4377000D01*
X4371000Y3144500D02*
X4377000D01*
X4388000Y3133500D02*
Y3144500D01*
X4382000Y3133500D02*
Y3144500D01*
Y3133500D02*
X4388000D01*
X4382000Y3144500D02*
X4388000D01*
X4399000Y3133500D02*
Y3144500D01*
X4393000Y3133500D02*
Y3144500D01*
Y3133500D02*
X4399000D01*
X4393000Y3144500D02*
X4399000D01*
X4384750Y3092000D02*
Y3102500D01*
X4379250Y3092000D02*
Y3102500D01*
Y3092000D02*
X4384750D01*
X4379250Y3102500D02*
X4384750D01*
X3887474Y3217504D02*
X3898474D01*
X3887474Y3223504D02*
X3898474D01*
X3887474Y3217504D02*
Y3223504D01*
X3898474Y3217504D02*
Y3223504D01*
X3951674Y3204004D02*
Y3215004D01*
X3957674Y3204004D02*
Y3215004D01*
X3951674D02*
X3957674D01*
X3951674Y3204004D02*
X3957674D01*
X3985500Y3316000D02*
X3996500D01*
X3985500Y3310000D02*
X3996500D01*
Y3316000D01*
X3985500Y3310000D02*
Y3316000D01*
X3888174Y3250254D02*
X3898674D01*
X3888174Y3244754D02*
X3898674D01*
Y3250254D01*
X3888174Y3244754D02*
Y3250254D01*
X3951674Y3179004D02*
Y3190004D01*
X3957674Y3179004D02*
Y3190004D01*
X3951674D02*
X3957674D01*
X3951674Y3179004D02*
X3957674D01*
X3906174Y3145504D02*
X3917174D01*
X3906174Y3151504D02*
X3917174D01*
X3906174Y3145504D02*
Y3151504D01*
X3917174Y3145504D02*
Y3151504D01*
X3937000Y3325250D02*
Y3352750D01*
X3971500Y3325250D02*
Y3352750D01*
X3937000D02*
X3971500D01*
X3937000Y3325250D02*
X3971500D01*
X3995674Y3157004D02*
Y3168004D01*
X3989674Y3157004D02*
Y3168004D01*
X3995674D01*
X3989674Y3157004D02*
X3995674D01*
X4344000Y2756000D02*
Y2772000D01*
X4352000D01*
Y2756000D02*
Y2772000D01*
X4344000Y2756000D02*
X4352000D01*
X4344000Y2758670D02*
X4346670Y2756000D01*
X4252500Y3348000D02*
Y3354000D01*
X4241500Y3348000D02*
Y3354000D01*
X4252500D01*
X4241500Y3348000D02*
X4252500D01*
X4237000Y3332500D02*
X4243000D01*
X4237000Y3321500D02*
X4243000D01*
X4237000D02*
Y3332500D01*
X4243000Y3321500D02*
Y3332500D01*
X4362000Y3340500D02*
X4368500Y3347000D01*
X4362000Y3297000D02*
Y3347000D01*
Y3297000D02*
X4406000D01*
Y3347000D01*
X4362000D02*
X4406000D01*
X4072000Y2695000D02*
Y2706000D01*
X4078000Y2695000D02*
Y2706000D01*
X4072000Y2695000D02*
X4078000D01*
X4072000Y2706000D02*
X4078000D01*
X4274200Y2753000D02*
Y2759000D01*
X4263200Y2753000D02*
Y2759000D01*
X4274200D01*
X4263200Y2753000D02*
X4274200D01*
X4274500Y2767000D02*
Y2773000D01*
X4263500Y2767000D02*
Y2773000D01*
X4274500D01*
X4263500Y2767000D02*
X4274500D01*
X4262000Y2791200D02*
X4268000D01*
X4262000Y2780200D02*
X4268000D01*
X4262000D02*
Y2791200D01*
X4268000Y2780200D02*
Y2791200D01*
X4303000Y2771800D02*
X4309000D01*
X4303000Y2782800D02*
X4309000D01*
Y2771800D02*
Y2782800D01*
X4303000Y2771800D02*
Y2782800D01*
X4428750Y2862500D02*
X4435250Y2869000D01*
X4405250Y2862500D02*
X4435250D01*
X4405250D02*
Y2892500D01*
X4435250D01*
Y2862500D02*
Y2892500D01*
X4362125Y2990625D02*
Y2996125D01*
X4351625Y2990625D02*
Y2996125D01*
X4362125D01*
X4351625Y2990625D02*
X4362125D01*
X4372875Y2950625D02*
Y2960125D01*
X4355375Y2950625D02*
Y2960125D01*
X4372875D01*
X4355375Y2950625D02*
X4372875D01*
X4335125Y2974625D02*
X4340625D01*
X4335125Y2964125D02*
X4340625D01*
X4335125D02*
Y2974625D01*
X4340625Y2964125D02*
Y2974625D01*
X4226750Y3256250D02*
X4261250D01*
X4226750Y3283750D02*
X4261250D01*
X4226750Y3256250D02*
Y3283750D01*
X4261250Y3256250D02*
Y3283750D01*
X4227500Y3223250D02*
X4262000D01*
X4227500Y3250750D02*
X4262000D01*
X4227500Y3223250D02*
Y3250750D01*
X4262000Y3223250D02*
Y3250750D01*
X4402750Y2911750D02*
Y2917250D01*
X4413250Y2911750D02*
Y2917250D01*
X4402750D02*
X4413250D01*
X4402750Y2911750D02*
X4413250D01*
X4411500Y2892500D02*
Y2898500D01*
X4422500Y2892500D02*
Y2898500D01*
X4411500D02*
X4422500D01*
X4411500Y2892500D02*
X4422500D01*
X4402500Y2917500D02*
X4413500D01*
X4402500Y2911500D02*
X4413500D01*
Y2917500D01*
X4402500Y2911500D02*
Y2917500D01*
X4446750Y2850250D02*
Y2860750D01*
X4441250Y2850250D02*
Y2860750D01*
Y2850250D02*
X4446750D01*
X4441250Y2860750D02*
X4446750D01*
X4351625Y2967625D02*
X4362125D01*
X4351625Y2973125D02*
X4362125D01*
X4351625Y2967625D02*
Y2973125D01*
X4362125Y2967625D02*
Y2973125D01*
X3931250Y2981750D02*
Y2992250D01*
X3936750Y2981750D02*
Y2992250D01*
X3931250D02*
X3936750D01*
X3931250Y2981750D02*
X3936750D01*
X4389500Y3341000D02*
X4400500D01*
X4389500Y3347000D02*
X4400500D01*
X4389500Y3341000D02*
Y3347000D01*
X4400500Y3341000D02*
Y3347000D01*
X4368500D02*
X4379500D01*
X4368500Y3341000D02*
X4379500D01*
Y3347000D01*
X4368500Y3341000D02*
Y3347000D01*
X4360000Y3331200D02*
Y3342200D01*
X4354000Y3331200D02*
Y3342200D01*
Y3331200D02*
X4360000D01*
X4354000Y3342200D02*
X4360000D01*
Y3312200D02*
Y3323200D01*
X4354000Y3312200D02*
Y3323200D01*
Y3312200D02*
X4360000D01*
X4354000Y3323200D02*
X4360000D01*
X4101000Y3187500D02*
X4117000D01*
Y3158500D02*
Y3187500D01*
X4101000Y3158500D02*
X4117000D01*
X4101000D02*
Y3187500D01*
Y3178000D02*
X4110500Y3187500D01*
X3909500Y3075000D02*
X3920500D01*
X3909500Y3081000D02*
X3920500D01*
X3909500Y3075000D02*
Y3081000D01*
X3920500Y3075000D02*
Y3081000D01*
X4279500Y2741000D02*
X4290500D01*
X4279500Y2747000D02*
X4290500D01*
X4279500Y2741000D02*
Y2747000D01*
X4290500Y2741000D02*
Y2747000D01*
X3915000Y2972500D02*
X3921000D01*
X3915000Y2961500D02*
X3921000D01*
X3915000D02*
Y2972500D01*
X3921000Y2961500D02*
Y2972500D01*
X3968500Y3065000D02*
Y3071000D01*
X3979500Y3065000D02*
Y3071000D01*
X3968500Y3065000D02*
X3979500D01*
X3968500Y3071000D02*
X3979500D01*
X3941500Y3011000D02*
Y3017000D01*
X3952500Y3011000D02*
Y3017000D01*
X3941500Y3011000D02*
X3952500D01*
X3941500Y3017000D02*
X3952500D01*
X3925500Y3007000D02*
Y3013000D01*
X3914500Y3007000D02*
Y3013000D01*
X3925500D01*
X3914500Y3007000D02*
X3925500D01*
X3908000Y3056500D02*
X3914000D01*
X3908000Y3045500D02*
X3914000D01*
X3908000D02*
Y3056500D01*
X3914000Y3045500D02*
Y3056500D01*
X3945500Y3041000D02*
Y3047000D01*
X3956500Y3041000D02*
Y3047000D01*
X3945500Y3041000D02*
X3956500D01*
X3945500Y3047000D02*
X3956500D01*
X4395250Y3177500D02*
X4400750D01*
X4395250Y3188000D02*
X4400750D01*
X4395250Y3177500D02*
Y3188000D01*
X4400750Y3177500D02*
Y3188000D01*
X4335250Y3128500D02*
X4340750D01*
X4335250Y3118000D02*
X4340750D01*
Y3128500D01*
X4335250Y3118000D02*
Y3128500D01*
X4360250Y3105500D02*
Y3111000D01*
X4370750Y3105500D02*
Y3111000D01*
X4360250Y3105500D02*
X4370750D01*
X4360250Y3111000D02*
X4370750D01*
X4395250Y3177500D02*
X4400750D01*
X4395250Y3188000D02*
X4400750D01*
Y3177500D02*
Y3188000D01*
X4395250Y3177500D02*
Y3188000D01*
X4404164Y3145500D02*
X4410164D01*
X4404164Y3156500D02*
X4410164D01*
X4404164Y3145500D02*
Y3156500D01*
X4410164Y3145500D02*
Y3156500D01*
X4208000Y3174000D02*
X4224000D01*
Y3166000D02*
Y3174000D01*
X4208000Y3166000D02*
X4224000D01*
X4208000D02*
Y3174000D01*
Y3171330D02*
X4210670Y3174000D01*
D11*
X3776642Y3011632D02*
X3817154Y2812511D01*
X3776642Y3011632D02*
X3867481Y3030113D01*
X3907992Y2830992D01*
X3817154Y2812511D02*
X3907992Y2830992D01*
X3914400Y2799500D02*
X3943600D01*
X3914400Y2786500D02*
Y2799500D01*
Y2786500D02*
X3943600D01*
Y2799500D01*
M02*
