G04*
G04 #@! TF.GenerationSoftware,Altium Limited,Altium Designer,23.1.1 (15)*
G04*
G04 Layer_Color=32768*
%FSLAX44Y44*%
%MOMM*%
G71*
G04*
G04 #@! TF.SameCoordinates,28EF7496-F0B6-4D50-8161-789283B5FA1D*
G04*
G04*
G04 #@! TF.FilePolarity,Positive*
G04*
G01*
G75*
%ADD10C,0.1000*%
%ADD13C,0.0500*%
%ADD14C,0.1500*%
D10*
X191750Y485500D02*
Y491500D01*
X188750Y488500D02*
X194750D01*
X283424Y513004D02*
Y523004D01*
X278424Y518004D02*
X288424D01*
X47246Y120439D02*
X108747Y13918D01*
X47246Y120439D02*
X98342Y149939D01*
X159842Y43418D01*
X108747Y13918D02*
X159842Y43418D01*
X208424Y632004D02*
Y642004D01*
X203424Y637004D02*
X213424D01*
X76750Y538500D02*
X86750D01*
X81750Y533500D02*
Y543500D01*
X629250Y527875D02*
X634750D01*
X632000Y525125D02*
Y530625D01*
X629000Y528438D02*
X634500D01*
X631750Y525688D02*
Y531188D01*
X349424Y607004D02*
Y617004D01*
X344424Y612004D02*
X354424D01*
X97750Y406500D02*
X129750D01*
X97750Y366500D02*
Y406500D01*
Y366500D02*
X129750D01*
Y406500D01*
X286000Y390500D02*
X291500D01*
X288750Y387750D02*
Y393250D01*
X362000Y97750D02*
Y153250D01*
Y97750D02*
X445750D01*
Y153250D01*
X362000D02*
X445750D01*
X614000Y377500D02*
X619500D01*
X616750Y374750D02*
Y380250D01*
X639750Y375250D02*
X639750Y369750D01*
X637000Y372500D02*
X642500Y372500D01*
X624000Y373250D02*
X633500D01*
X628750Y368500D02*
Y378000D01*
X283424Y513004D02*
Y523004D01*
X278424Y518004D02*
X288424D01*
X698750Y271750D02*
Y277250D01*
X696000Y274500D02*
X701500D01*
X685000D02*
X690500D01*
X687750Y271750D02*
Y277250D01*
X707000Y274500D02*
X712500D01*
X709750Y271750D02*
Y277250D01*
X559000Y250500D02*
X564500D01*
X561750Y247750D02*
Y253250D01*
X560000Y229500D02*
X565500D01*
X562750Y226750D02*
Y232250D01*
X175750Y169500D02*
Y175500D01*
X172750Y172500D02*
X178750D01*
X289250Y408250D02*
Y413750D01*
X286500Y411000D02*
X292000D01*
X220547Y477500D02*
X226047D01*
X223297Y474750D02*
Y480250D01*
X143924Y485004D02*
X149424D01*
X146674Y482254D02*
Y487754D01*
X143924Y495004D02*
X149424D01*
X146674Y492254D02*
Y497754D01*
X144424Y507004D02*
X150424D01*
X147424Y504004D02*
Y510004D01*
X147274Y531854D02*
Y537854D01*
X144274Y534854D02*
X150274D01*
X180424Y615004D02*
Y625004D01*
X175424Y620004D02*
X185424D01*
X173000Y172500D02*
X178500D01*
X175750Y169750D02*
Y175250D01*
X159150Y153500D02*
X208350D01*
X159150Y91500D02*
Y153500D01*
Y91500D02*
X208350D01*
Y153500D01*
X788750Y325500D02*
Y331500D01*
X785750Y328500D02*
X791750D01*
X639750Y369750D02*
Y375250D01*
X637000Y372500D02*
X642500D01*
X616750Y374750D02*
Y380250D01*
X614000Y377500D02*
X619500D01*
X609750Y491500D02*
X615750D01*
X612750Y488500D02*
Y494500D01*
X526000Y371500D02*
X531500D01*
X528750Y368750D02*
Y374250D01*
X592750Y453000D02*
Y458500D01*
X590000Y455750D02*
X595500D01*
X612625Y311125D02*
Y316625D01*
X609875Y313875D02*
X615375D01*
X122000Y146250D02*
X205750D01*
Y90750D02*
Y146250D01*
X122000Y90750D02*
X205750D01*
X122000D02*
Y146250D01*
X654600Y306650D02*
Y312650D01*
X651600Y309650D02*
X657600D01*
X697750Y381800D02*
X703750D01*
X700750Y378800D02*
Y384800D01*
X328750Y59500D02*
Y69500D01*
X323750Y64500D02*
X333750D01*
X776397Y208553D02*
X782397D01*
X779397Y205553D02*
Y211553D01*
X662750Y56500D02*
Y62500D01*
X659750Y59500D02*
X665750D01*
X603000Y149500D02*
X608500D01*
X605750Y146750D02*
Y152250D01*
X620000Y136500D02*
X625500D01*
X622750Y133750D02*
Y139250D01*
X575000Y594500D02*
X580500D01*
X577750Y591750D02*
Y597250D01*
X213750Y-5250D02*
Y250D01*
X211000Y-2500D02*
X216500D01*
X242750Y64750D02*
Y70250D01*
X240000Y67500D02*
X245500D01*
X214000Y36900D02*
X219500D01*
X216750Y34150D02*
Y39650D01*
X296000Y53500D02*
X301500D01*
X298750Y50750D02*
Y56250D01*
X267000Y69500D02*
X272500D01*
X269750Y66750D02*
Y72250D01*
X327000Y33250D02*
X332500D01*
X329750Y30500D02*
Y36000D01*
X600000Y96500D02*
X605500D01*
X602750Y93750D02*
Y99250D01*
X165750Y200500D02*
Y206500D01*
X162750Y203500D02*
X168750D01*
X186000Y396500D02*
X191500D01*
X188750Y393750D02*
Y399250D01*
X427750Y498750D02*
Y504250D01*
X425000Y501500D02*
X430500D01*
X470500Y499750D02*
Y505250D01*
X467750Y502500D02*
X473250D01*
X636750Y427000D02*
Y432500D01*
X634000Y429750D02*
X639500D01*
X687000Y136500D02*
X692500D01*
X689750Y133750D02*
Y139250D01*
X660000Y132500D02*
X665500D01*
X662750Y129750D02*
Y135250D01*
X706000Y90800D02*
X711500D01*
X708750Y88050D02*
Y93550D01*
X132750Y261750D02*
Y267250D01*
X130000Y264500D02*
X135500D01*
X680000Y77500D02*
X685500D01*
X682750Y74750D02*
Y80250D01*
X110750Y376500D02*
X116750D01*
X113750Y373500D02*
Y379500D01*
Y392500D02*
Y398500D01*
X110750Y395500D02*
X116750D01*
X59000Y270500D02*
X64500D01*
X61750Y267750D02*
Y273250D01*
X164750Y497500D02*
Y503500D01*
X161750Y500500D02*
X167750D01*
X280724Y602004D02*
Y608004D01*
X277724Y605004D02*
X283724D01*
X301424Y587004D02*
Y593004D01*
X298424Y590004D02*
X304424D01*
X295424Y608004D02*
X305424D01*
X300424Y603004D02*
Y613004D01*
X291750Y113500D02*
X301750D01*
X296750Y108500D02*
Y118500D01*
X267750Y102500D02*
Y108500D01*
X264750Y105500D02*
X270750D01*
X226000Y11500D02*
X231500D01*
X228750Y8750D02*
Y14250D01*
X216750Y21150D02*
Y26650D01*
X214000Y23900D02*
X219500D01*
X216750Y46150D02*
Y51650D01*
X214000Y48900D02*
X219500D01*
X234000Y49500D02*
X239500D01*
X236750Y46750D02*
Y52250D01*
X216750Y59150D02*
Y64650D01*
X214000Y61900D02*
X219500D01*
X224750Y316750D02*
Y322250D01*
X222000Y319500D02*
X227500D01*
X209750Y319500D02*
X215750D01*
X212750Y316500D02*
Y322500D01*
X166000Y585500D02*
X171500D01*
X168750Y582750D02*
Y588250D01*
X163674Y606004D02*
X169174D01*
X166424Y603254D02*
Y608754D01*
X190750Y601500D02*
X196750D01*
X193750Y598500D02*
Y604500D01*
X209750Y599750D02*
Y605250D01*
X207000Y602500D02*
X212500D01*
X209750Y586500D02*
X215750D01*
X212750Y583500D02*
Y589500D01*
X239750Y561500D02*
Y567500D01*
X236750Y564500D02*
X242750D01*
X54750Y431500D02*
X64750D01*
X59750Y426500D02*
Y436500D01*
X708750Y582500D02*
Y592500D01*
X703750Y587500D02*
X713750D01*
X708750Y561500D02*
Y571500D01*
X703750Y566500D02*
X713750D01*
X701750Y347750D02*
Y353250D01*
X699000Y350500D02*
X704500D01*
X713750Y360500D02*
Y366500D01*
X710750Y363500D02*
X716750D01*
X701750Y326750D02*
Y332250D01*
X699000Y329500D02*
X704500Y329500D01*
X244750Y20750D02*
Y26250D01*
X242000Y23500D02*
X247500D01*
X617500Y440750D02*
X623000D01*
X620250Y438000D02*
Y443500D01*
X182750Y-1250D02*
Y4250D01*
X180000Y1500D02*
X185500D01*
X283500Y494000D02*
Y500000D01*
X280500Y497000D02*
X286500D01*
X594164Y514500D02*
X599664D01*
X596914Y511750D02*
Y517250D01*
X602750Y474200D02*
X608750D01*
X605750Y471200D02*
Y477200D01*
X594164Y514750D02*
X599664D01*
X596914Y512000D02*
Y517500D01*
X637750Y488500D02*
Y494500D01*
X634750Y491500D02*
X640750D01*
X625750Y471500D02*
X631750D01*
X628750Y468500D02*
Y474500D01*
X636750Y471500D02*
X642750D01*
X639750Y468500D02*
Y474500D01*
X647750Y471500D02*
X653750D01*
X650750Y468500D02*
Y474500D01*
X634000Y429750D02*
X639500D01*
X636750Y427000D02*
Y432500D01*
X147724Y550004D02*
Y556004D01*
X144724Y553004D02*
X150724D01*
X206424Y542004D02*
X212424D01*
X209424Y539004D02*
Y545004D01*
X245750Y642500D02*
Y648500D01*
X242750Y645500D02*
X248750D01*
X148174Y577254D02*
Y582754D01*
X145424Y580004D02*
X150924D01*
X206424Y517004D02*
X212424D01*
X209424Y514004D02*
Y520004D01*
X166424Y478004D02*
Y484004D01*
X163424Y481004D02*
X169424D01*
X204000Y671500D02*
X214000D01*
X209000Y666500D02*
Y676500D01*
X244424Y495004D02*
X250424D01*
X247424Y492004D02*
Y498004D01*
X498750Y683500D02*
X504750D01*
X501750Y680500D02*
Y686500D01*
X494750Y656500D02*
Y662500D01*
X491750Y659500D02*
X497750D01*
X326750Y33000D02*
X332750D01*
X329750Y30000D02*
Y36000D01*
X520450Y88500D02*
X526450D01*
X523450Y85500D02*
Y91500D01*
X520750Y102500D02*
X526750D01*
X523750Y99500D02*
Y105500D01*
X519750Y115200D02*
Y121200D01*
X516750Y118200D02*
X522750D01*
X560750Y106800D02*
Y112800D01*
X557750Y109800D02*
X563750D01*
X608875Y325875D02*
X614375D01*
X611625Y323125D02*
Y328625D01*
X614125Y287875D02*
X623625D01*
X618875Y283125D02*
Y292625D01*
X592625Y299125D02*
Y304625D01*
X589875Y301875D02*
X595375D01*
X498750Y597500D02*
Y607500D01*
X493750Y602500D02*
X503750D01*
X499500Y564500D02*
Y574500D01*
X494500Y569500D02*
X504500D01*
X660000Y247000D02*
X665500D01*
X662750Y244250D02*
Y249750D01*
X668750Y228000D02*
X674750D01*
X671750Y225000D02*
Y231000D01*
X662750Y244000D02*
Y250000D01*
X659750Y247000D02*
X665750D01*
X696000Y188000D02*
X701500D01*
X698750Y185250D02*
Y190750D01*
X611625Y300125D02*
Y305625D01*
X608875Y302875D02*
X614375D01*
X186000Y319500D02*
X191500D01*
X188750Y316750D02*
Y322250D01*
X649750Y673500D02*
Y679500D01*
X646750Y676500D02*
X652750D01*
X628750Y673500D02*
Y679500D01*
X625750Y676500D02*
X631750D01*
X608750Y669200D02*
X614750D01*
X611750Y666200D02*
Y672200D01*
X608750Y650200D02*
X614750D01*
X611750Y647200D02*
Y653200D01*
X169750Y407500D02*
Y413500D01*
X166750Y410500D02*
X172750D01*
X539750Y73500D02*
Y79500D01*
X536750Y76500D02*
X542750D01*
X172750Y296500D02*
Y302500D01*
X169750Y299500D02*
X175750D01*
X225750Y400500D02*
X231750D01*
X228750Y397500D02*
Y403500D01*
X198750Y346500D02*
X204750D01*
X201750Y343500D02*
Y349500D01*
X171750Y342500D02*
X177750D01*
X174750Y339500D02*
Y345500D01*
X165750Y380500D02*
Y386500D01*
X162750Y383500D02*
X168750D01*
X202750Y376500D02*
X208750D01*
X205750Y373500D02*
Y379500D01*
X652750Y512500D02*
Y518000D01*
X650000Y515250D02*
X655500D01*
X592750Y453000D02*
Y458500D01*
X590000Y455750D02*
X595500D01*
X617500Y440750D02*
X623000D01*
X620250Y438000D02*
Y443500D01*
X652750Y512500D02*
Y518000D01*
X650000Y515250D02*
X655500D01*
X661914Y480500D02*
Y486500D01*
X658914Y483500D02*
X664914D01*
D13*
X492500Y72500D02*
Y128500D01*
Y72500D02*
X571000D01*
Y128500D01*
X492500D02*
X571000D01*
X182250Y483500D02*
X201250D01*
X182250Y493500D02*
X201250D01*
X182250Y483500D02*
Y493500D01*
X201250Y483500D02*
Y493500D01*
X137667Y618000D02*
X233167D01*
Y472000D02*
Y618000D01*
X137667Y472000D02*
X233167D01*
X137667D02*
Y618000D01*
X270250Y165350D02*
X555950D01*
Y264350D01*
X270250D02*
X555950D01*
X270250Y165350D02*
Y264350D01*
X266924Y508504D02*
X299924D01*
X266924Y527504D02*
X299924D01*
X266924Y508504D02*
Y527504D01*
X299924Y508504D02*
Y527504D01*
X633750Y100300D02*
X645750D01*
X633750D02*
Y124700D01*
X645750D01*
Y100300D02*
Y124700D01*
X276050Y6500D02*
Y18500D01*
X300450D01*
Y6500D02*
Y18500D01*
X276050Y6500D02*
X300450D01*
X234750Y-5700D02*
X246750D01*
Y18700D01*
X234750D02*
X246750D01*
X234750Y-5700D02*
Y18700D01*
X237750Y56300D02*
X249750D01*
Y80700D01*
X237750D02*
X249750D01*
X237750Y56300D02*
Y80700D01*
X238550Y30500D02*
Y42500D01*
X262950D01*
Y30500D02*
Y42500D01*
X238550Y30500D02*
X262950D01*
X260550Y18500D02*
Y30500D01*
X284950D01*
Y18500D02*
Y30500D01*
X260550Y18500D02*
X284950D01*
X184924Y620504D02*
X231924D01*
X184924Y653504D02*
X231924D01*
Y620504D02*
Y653504D01*
X184924Y620504D02*
Y653504D01*
X91250Y522000D02*
Y555000D01*
X72250D02*
X91250D01*
X72250Y522000D02*
X91250D01*
X72250D02*
Y555000D01*
X652912Y445750D02*
Y524250D01*
X596912D02*
X652912D01*
X596912Y445750D02*
X652912D01*
X596912D02*
Y524250D01*
X641000Y523375D02*
Y532375D01*
X623000D02*
X641000D01*
X623000Y523375D02*
X641000D01*
X623000D02*
Y532375D01*
X640750Y523938D02*
Y532938D01*
X622750D02*
X640750D01*
X622750Y523938D02*
X640750D01*
X622750D02*
Y532938D01*
X691750Y302000D02*
X727750D01*
X691750D02*
Y365000D01*
X727750D01*
Y302000D02*
Y365000D01*
X378500Y523000D02*
Y538000D01*
X349000Y523000D02*
X378500D01*
X349000D02*
Y538000D01*
X378500D01*
X332924Y588504D02*
X365924D01*
X332924Y635504D02*
X365924D01*
Y588504D02*
Y635504D01*
X332924Y588504D02*
Y635504D01*
X138500Y300250D02*
Y434750D01*
Y300250D02*
X273000D01*
Y434750D01*
X138500D02*
X273000D01*
X279750Y386000D02*
Y395000D01*
X297750Y386000D02*
Y395000D01*
X279750D02*
X297750D01*
X279750Y386000D02*
X297750D01*
X583375Y278875D02*
Y334875D01*
Y278875D02*
X661875D01*
Y334875D01*
X583375D02*
X661875D01*
X621250Y368500D02*
Y386500D01*
X612250Y368500D02*
Y386500D01*
X621250D01*
X612250Y368500D02*
X621250D01*
X635250Y381500D02*
X644250D01*
X635250Y363500D02*
X644250D01*
Y381500D01*
X635250Y363500D02*
Y381500D01*
X636250Y358250D02*
Y388250D01*
X621250Y358250D02*
Y388250D01*
X636250D01*
X621250Y358250D02*
X636250D01*
X26023Y345693D02*
X67491Y141868D01*
X26023Y345693D02*
X124015Y365630D01*
X165484Y161805D01*
X67491Y141868D02*
X165484Y161805D01*
X266924Y527504D02*
X299924D01*
X266924Y508504D02*
X299924D01*
X266924D02*
Y527504D01*
X299924Y508504D02*
Y527504D01*
X568500Y577750D02*
X587000D01*
Y611250D01*
X568500D02*
X587000D01*
X568500Y577750D02*
Y611250D01*
X694250Y265500D02*
X703250D01*
X694250Y283500D02*
X703250D01*
X694250Y265500D02*
Y283500D01*
X703250Y265500D02*
Y283500D01*
X692750Y265000D02*
Y284000D01*
X682750Y265000D02*
Y284000D01*
X692750D01*
X682750Y265000D02*
X692750D01*
X705250Y265500D02*
Y283500D01*
X714250Y265500D02*
Y283500D01*
X705250Y265500D02*
X714250D01*
X705250Y283500D02*
X714250D01*
X566250Y241500D02*
Y259500D01*
X557250Y241500D02*
Y259500D01*
X566250D01*
X557250Y241500D02*
X566250D01*
X567250Y220500D02*
Y238500D01*
X558250Y220500D02*
Y238500D01*
X567250D01*
X558250Y220500D02*
X567250D01*
X260500Y52750D02*
X279000D01*
Y86250D01*
X260500D02*
X279000D01*
X260500Y52750D02*
Y86250D01*
X288500Y36750D02*
Y70250D01*
X307000D01*
Y36750D02*
Y70250D01*
X288500Y36750D02*
X307000D01*
X166250Y177500D02*
X185250D01*
X166250Y167500D02*
X185250D01*
X166250D02*
Y177500D01*
X185250Y167500D02*
Y177500D01*
X280250Y415500D02*
X298250D01*
X280250Y406500D02*
X298250D01*
X280250D02*
Y415500D01*
X298250Y406500D02*
Y415500D01*
X453250Y624450D02*
Y696550D01*
Y624450D02*
X538250D01*
Y696550D01*
X453250D02*
X538250D01*
X213797Y472500D02*
Y482500D01*
X232797Y472500D02*
Y482500D01*
X213797Y472500D02*
X232797D01*
X213797Y482500D02*
X232797D01*
X137674Y480504D02*
Y489504D01*
X155674Y480504D02*
Y489504D01*
X137674Y480504D02*
X155674D01*
X137674Y489504D02*
X155674D01*
X137674Y490504D02*
Y499504D01*
X155674Y490504D02*
Y499504D01*
X137674Y490504D02*
X155674D01*
X137674Y499504D02*
X155674D01*
X156924Y502004D02*
Y512004D01*
X137924Y502004D02*
Y512004D01*
X156924D01*
X137924Y502004D02*
X156924D01*
X142274Y544354D02*
X152274D01*
X142274Y525354D02*
X152274D01*
X142274D02*
Y544354D01*
X152274Y525354D02*
Y544354D01*
X163924Y629504D02*
X196924D01*
X163924Y610504D02*
X196924D01*
Y629504D01*
X163924Y610504D02*
Y629504D01*
X166750Y168000D02*
Y177000D01*
X184750Y168000D02*
Y177000D01*
X166750Y168000D02*
X184750D01*
X166750Y177000D02*
X184750D01*
X159500Y59250D02*
Y77750D01*
X150000D02*
X159500D01*
X150000Y59250D02*
Y77750D01*
Y59250D02*
X159500D01*
X783750Y319000D02*
X793750D01*
X783750Y338000D02*
X793750D01*
Y319000D02*
Y338000D01*
X783750Y319000D02*
Y338000D01*
X635250Y381500D02*
X644250D01*
X635250Y363500D02*
X644250D01*
X635250D02*
Y381500D01*
X644250Y363500D02*
Y381500D01*
X612250Y368500D02*
X621250D01*
X612250Y386500D02*
X621250D01*
Y368500D02*
Y386500D01*
X612250Y368500D02*
Y386500D01*
X411000Y492250D02*
Y510750D01*
Y492250D02*
X444500D01*
Y510750D01*
X411000D02*
X444500D01*
X603250Y486500D02*
Y496500D01*
X622250Y486500D02*
Y496500D01*
X603250Y486500D02*
X622250D01*
X603250Y496500D02*
X622250D01*
X519250Y366500D02*
Y376500D01*
X538250Y366500D02*
Y376500D01*
X519250Y366500D02*
X538250D01*
X519250Y376500D02*
X538250D01*
X588250Y464750D02*
X597250D01*
X588250Y446750D02*
X597250D01*
X588250D02*
Y464750D01*
X597250Y446750D02*
Y464750D01*
X603625Y309375D02*
X621625D01*
X603625Y318375D02*
X621625D01*
X603625Y309375D02*
Y318375D01*
X621625Y309375D02*
Y318375D01*
X645100Y304650D02*
X664100D01*
X645100Y314650D02*
X664100D01*
X645100Y304650D02*
Y314650D01*
X664100Y304650D02*
Y314650D01*
X695750Y372300D02*
Y391300D01*
X705750Y372300D02*
Y391300D01*
X695750D02*
X705750D01*
X695750Y372300D02*
X705750D01*
X305250Y48000D02*
X352250D01*
X305250Y81000D02*
X352250D01*
X305250Y48000D02*
Y81000D01*
X352250Y48000D02*
Y81000D01*
X784397Y199053D02*
Y218053D01*
X774397Y199053D02*
Y218053D01*
Y199053D02*
X784397D01*
X774397Y218053D02*
X784397D01*
X653250Y64500D02*
X672250D01*
X653250Y54500D02*
X672250D01*
Y64500D01*
X653250Y54500D02*
Y64500D01*
X601250Y140500D02*
Y158500D01*
X610250Y140500D02*
Y158500D01*
X601250D02*
X610250D01*
X601250Y140500D02*
X610250D01*
X596500Y130750D02*
X615000D01*
Y164250D01*
X596500D02*
X615000D01*
X596500Y130750D02*
Y164250D01*
X627250Y127500D02*
Y145500D01*
X618250Y127500D02*
Y145500D01*
X627250D01*
X618250Y127500D02*
X627250D01*
X538000Y91250D02*
X547500D01*
X538000D02*
Y109750D01*
X547500D01*
Y91250D02*
Y109750D01*
X582250Y585500D02*
Y603500D01*
X573250Y585500D02*
Y603500D01*
Y585500D02*
X582250D01*
X573250Y603500D02*
X582250D01*
X204750Y2000D02*
X222750D01*
X204750Y-7000D02*
X222750D01*
X204750D02*
Y2000D01*
X222750Y-7000D02*
Y2000D01*
X233750Y72000D02*
X251750D01*
X233750Y63000D02*
X251750D01*
Y72000D01*
X233750Y63000D02*
Y72000D01*
X225750Y32400D02*
Y41400D01*
X207750Y32400D02*
Y41400D01*
X225750D01*
X207750Y32400D02*
X225750D01*
X294250Y44500D02*
Y62500D01*
X303250Y44500D02*
Y62500D01*
X294250D02*
X303250D01*
X294250Y44500D02*
X303250D01*
X265250Y60500D02*
Y78500D01*
X274250Y60500D02*
Y78500D01*
X265250D02*
X274250D01*
X265250Y60500D02*
X274250D01*
X334250Y24250D02*
Y42250D01*
X325250Y24250D02*
Y42250D01*
Y24250D02*
X334250D01*
X325250Y42250D02*
X334250D01*
X598250Y87500D02*
Y105500D01*
X607250Y87500D02*
Y105500D01*
X598250D02*
X607250D01*
X598250Y87500D02*
X607250D01*
X156250Y208500D02*
X175250D01*
X156250Y198500D02*
X175250D01*
Y208500D01*
X156250Y198500D02*
Y208500D01*
X184250Y387500D02*
Y405500D01*
X193250Y387500D02*
Y405500D01*
X184250D02*
X193250D01*
X184250Y387500D02*
X193250D01*
X418750Y497000D02*
X436750D01*
X418750Y506000D02*
X436750D01*
X418750Y497000D02*
Y506000D01*
X436750Y497000D02*
Y506000D01*
X461500Y498000D02*
X479500D01*
X461500Y507000D02*
X479500D01*
X461500Y498000D02*
Y507000D01*
X479500Y498000D02*
Y507000D01*
X632250Y438750D02*
X641250D01*
X632250Y420750D02*
X641250D01*
Y438750D01*
X632250Y420750D02*
Y438750D01*
X685250Y127500D02*
Y145500D01*
X694250Y127500D02*
Y145500D01*
X685250D02*
X694250D01*
X685250Y127500D02*
X694250D01*
X658250Y123500D02*
Y141500D01*
X667250Y123500D02*
Y141500D01*
X658250D02*
X667250D01*
X658250Y123500D02*
X667250D01*
X703750Y81300D02*
Y100300D01*
X713750Y81300D02*
Y100300D01*
X703750D02*
X713750D01*
X703750Y81300D02*
X713750D01*
X128250Y255500D02*
X137250D01*
X128250Y273500D02*
X137250D01*
Y255500D02*
Y273500D01*
X128250Y255500D02*
Y273500D01*
X678250Y68500D02*
Y86500D01*
X687250Y68500D02*
Y86500D01*
X678250D02*
X687250D01*
X678250Y68500D02*
X687250D01*
X104250Y371500D02*
Y381500D01*
X123250Y371500D02*
Y381500D01*
X104250Y371500D02*
X123250D01*
X104250Y381500D02*
X123250D01*
X104250Y400500D02*
X123250D01*
X104250Y390500D02*
X123250D01*
Y400500D01*
X104250Y390500D02*
Y400500D01*
X57250Y261500D02*
Y279500D01*
X66250Y261500D02*
Y279500D01*
X57250D02*
X66250D01*
X57250Y261500D02*
X66250D01*
X452750Y619550D02*
X537750D01*
Y547450D02*
Y619550D01*
X452750Y547450D02*
X537750D01*
X452750D02*
Y619550D01*
X159750Y510000D02*
X169750D01*
X159750Y491000D02*
X169750D01*
X159750D02*
Y510000D01*
X169750Y491000D02*
Y510000D01*
X271224Y600004D02*
X290224D01*
X271224Y610004D02*
X290224D01*
X271224Y600004D02*
Y610004D01*
X290224Y600004D02*
Y610004D01*
X296424Y580504D02*
X306424D01*
X296424Y599504D02*
X306424D01*
Y580504D02*
Y599504D01*
X296424Y580504D02*
Y599504D01*
X334424Y568254D02*
Y647754D01*
X266424Y568254D02*
Y647754D01*
X334424D01*
X266424Y568254D02*
X334424D01*
X325924Y674004D02*
X398924D01*
X325924Y581504D02*
Y674004D01*
Y581504D02*
X398924D01*
Y674004D01*
X337050Y564000D02*
Y585000D01*
Y564000D02*
X382450D01*
Y585000D01*
X337050D02*
X382450D01*
X285250Y90500D02*
Y136500D01*
X308250Y90500D02*
Y136500D01*
X285250D02*
X308250D01*
X285250Y90500D02*
X308250D01*
X258250Y100500D02*
X277250D01*
X258250Y110500D02*
X277250D01*
X258250Y100500D02*
Y110500D01*
X277250Y100500D02*
Y110500D01*
X235500Y85000D02*
Y140000D01*
Y85000D02*
X310000D01*
Y140000D01*
X235500D02*
X310000D01*
X219750Y16000D02*
X219750Y7000D01*
X237750D02*
Y16000D01*
X219750Y7000D02*
X237750D01*
X219750Y16000D02*
X237750D01*
X207750Y19400D02*
X225750D01*
X207750Y28400D02*
X225750D01*
X207750Y19400D02*
Y28400D01*
X225750Y19400D02*
Y28400D01*
X207750Y44400D02*
X225750D01*
X207750Y53400D02*
X225750D01*
X207750Y44400D02*
Y53400D01*
X225750Y44400D02*
Y53400D01*
X227750Y45000D02*
Y54000D01*
X245750Y45000D02*
Y54000D01*
X227750Y45000D02*
X245750D01*
X227750Y54000D02*
X245750D01*
X207750Y57400D02*
X225750D01*
X207750Y66400D02*
X225750D01*
X207750Y57400D02*
Y66400D01*
X225750Y57400D02*
Y66400D01*
X220250Y328500D02*
X229250D01*
X220250Y310500D02*
X229250D01*
X220250D02*
Y328500D01*
X229250Y310500D02*
Y328500D01*
X196000Y328355D02*
X205500D01*
Y309855D02*
Y328355D01*
X196000Y309855D02*
X205500D01*
X196000D02*
Y328355D01*
X217750Y310000D02*
Y329000D01*
X207750Y310000D02*
Y329000D01*
Y310000D02*
X217750D01*
X207750Y329000D02*
X217750D01*
X159750Y581000D02*
Y590000D01*
X177750Y581000D02*
Y590000D01*
X159750Y581000D02*
X177750D01*
X159750Y590000D02*
X177750D01*
X175424Y601504D02*
Y610504D01*
X157424Y601504D02*
Y610504D01*
X175424D01*
X157424Y601504D02*
X175424D01*
X184250Y596500D02*
Y606500D01*
X203250Y596500D02*
Y606500D01*
X184250Y596500D02*
X203250D01*
X184250Y606500D02*
X203250D01*
X205250Y593500D02*
X214250D01*
X205250Y611500D02*
X214250D01*
Y593500D02*
Y611500D01*
X205250Y593500D02*
Y611500D01*
X203250Y581500D02*
Y591500D01*
X222250Y581500D02*
Y591500D01*
X203250Y581500D02*
X222250D01*
X203250Y591500D02*
X222250D01*
X234750Y555000D02*
X244750D01*
X234750Y574000D02*
X244750D01*
X234750Y555000D02*
Y574000D01*
X244750Y555000D02*
Y574000D01*
X50250Y415000D02*
Y448000D01*
X69250Y415000D02*
Y448000D01*
X50250D02*
X69250D01*
X50250Y415000D02*
X69250D01*
X692250Y578000D02*
X725250D01*
X692250Y597000D02*
X725250D01*
X692250Y578000D02*
Y597000D01*
X725250Y578000D02*
Y597000D01*
X692250Y557000D02*
X725250D01*
X692250Y576000D02*
X725250D01*
X692250Y557000D02*
Y576000D01*
X725250Y557000D02*
Y576000D01*
X697250Y359500D02*
X706250D01*
X697250Y341500D02*
X706250D01*
Y359500D01*
X697250Y341500D02*
Y359500D01*
X708750Y373000D02*
X718750D01*
X708750Y354000D02*
X718750D01*
Y373000D01*
X708750Y354000D02*
Y373000D01*
X697250Y338500D02*
X706250D01*
X697250Y320500D02*
X706250D01*
Y338500D01*
X697250Y320500D02*
Y338500D01*
X235750Y28000D02*
X253750D01*
X235750Y19000D02*
X253750D01*
Y28000D01*
X235750Y19000D02*
Y28000D01*
X611250Y436250D02*
Y445250D01*
X629250Y436250D02*
Y445250D01*
X611250D02*
X629250D01*
X611250Y436250D02*
X629250D01*
X173750Y6000D02*
X191750D01*
X173750Y-3000D02*
X191750D01*
Y6000D01*
X173750Y-3000D02*
Y6000D01*
X278500Y487500D02*
X288500D01*
X278500Y506500D02*
X288500D01*
X278500Y487500D02*
Y506500D01*
X288500Y487500D02*
Y506500D01*
X592414Y505500D02*
Y523500D01*
X601414Y505500D02*
Y523500D01*
X592414D02*
X601414D01*
X592414Y505500D02*
X601414D01*
X600750Y464700D02*
Y483700D01*
X610750Y464700D02*
Y483700D01*
X600750D02*
X610750D01*
X600750Y464700D02*
X610750D01*
X592414Y505750D02*
Y523750D01*
X601414Y505750D02*
Y523750D01*
X592414Y505750D02*
X601414D01*
X592414Y523750D02*
X601414D01*
X628250Y496500D02*
X647250D01*
X628250Y486500D02*
X647250D01*
Y496500D01*
X628250Y486500D02*
Y496500D01*
X633750Y462000D02*
Y481000D01*
X623750Y462000D02*
Y481000D01*
Y462000D02*
X633750D01*
X623750Y481000D02*
X633750D01*
X644750Y462000D02*
Y481000D01*
X634750Y462000D02*
Y481000D01*
Y462000D02*
X644750D01*
X634750Y481000D02*
X644750D01*
X655750Y462000D02*
Y481000D01*
X645750Y462000D02*
Y481000D01*
Y462000D02*
X655750D01*
X645750Y481000D02*
X655750D01*
X641250Y420750D02*
Y438750D01*
X632250Y420750D02*
Y438750D01*
Y420750D02*
X641250D01*
X632250Y438750D02*
X641250D01*
X138224Y548004D02*
X157224D01*
X138224Y558004D02*
X157224D01*
X138224Y548004D02*
Y558004D01*
X157224Y548004D02*
Y558004D01*
X204424Y532504D02*
Y551504D01*
X214424Y532504D02*
Y551504D01*
X204424D02*
X214424D01*
X204424Y532504D02*
X214424D01*
X236250Y650500D02*
X255250D01*
X236250Y640500D02*
X255250D01*
Y650500D01*
X236250Y640500D02*
Y650500D01*
X139174Y584504D02*
X157174D01*
X139174Y575504D02*
X157174D01*
Y584504D01*
X139174Y575504D02*
Y584504D01*
X204424Y507504D02*
Y526504D01*
X214424Y507504D02*
Y526504D01*
X204424D02*
X214424D01*
X204424Y507504D02*
X214424D01*
X156924Y476004D02*
X175924D01*
X156924Y486004D02*
X175924D01*
X156924Y476004D02*
Y486004D01*
X175924Y476004D02*
Y486004D01*
X185500Y655000D02*
Y688000D01*
X232500Y655000D02*
Y688000D01*
X185500D02*
X232500D01*
X185500Y655000D02*
X232500D01*
X252424Y485504D02*
Y504504D01*
X242424Y485504D02*
Y504504D01*
X252424D01*
X242424Y485504D02*
X252424D01*
X593500Y79750D02*
Y113250D01*
X612000D01*
Y79750D02*
Y113250D01*
X593500Y79750D02*
X612000D01*
X511250Y678500D02*
Y688500D01*
X492250Y678500D02*
Y688500D01*
X511250D01*
X492250Y678500D02*
X511250D01*
X489750Y669000D02*
X499750D01*
X489750Y650000D02*
X499750D01*
X489750D02*
Y669000D01*
X499750Y650000D02*
Y669000D01*
X599500Y626500D02*
Y682500D01*
Y626500D02*
X678000D01*
Y682500D01*
X599500D02*
X678000D01*
X324750Y23500D02*
Y42500D01*
X334750Y23500D02*
Y42500D01*
X324750Y23500D02*
X334750D01*
X324750Y42500D02*
X334750D01*
X532950Y83500D02*
Y93500D01*
X513950Y83500D02*
Y93500D01*
X532950D01*
X513950Y83500D02*
X532950D01*
X533250Y97500D02*
Y107500D01*
X514250Y97500D02*
Y107500D01*
X533250D01*
X514250Y97500D02*
X533250D01*
X514750Y127700D02*
X524750D01*
X514750Y108700D02*
X524750D01*
X514750D02*
Y127700D01*
X524750Y108700D02*
Y127700D01*
X555750Y100300D02*
X565750D01*
X555750Y119300D02*
X565750D01*
Y100300D02*
Y119300D01*
X555750Y100300D02*
Y119300D01*
X657000Y178500D02*
X693000D01*
X657000D02*
Y241500D01*
X693000D01*
Y178500D02*
Y241500D01*
X620625Y321375D02*
Y330375D01*
X602625Y321375D02*
Y330375D01*
X620625D01*
X602625Y321375D02*
X620625D01*
X633875Y280375D02*
Y295375D01*
X603875Y280375D02*
Y295375D01*
X633875D01*
X603875Y280375D02*
X633875D01*
X588125Y310875D02*
X597125D01*
X588125Y292875D02*
X597125D01*
X588125D02*
Y310875D01*
X597125Y292875D02*
Y310875D01*
X475250Y586000D02*
X522250D01*
X475250Y619000D02*
X522250D01*
X475250Y586000D02*
Y619000D01*
X522250Y586000D02*
Y619000D01*
X476000Y553000D02*
X523000D01*
X476000Y586000D02*
X523000D01*
X476000Y553000D02*
Y586000D01*
X523000Y553000D02*
Y586000D01*
X653750Y242500D02*
Y251500D01*
X671750Y242500D02*
Y251500D01*
X653750D02*
X671750D01*
X653750Y242500D02*
X671750D01*
X662250Y223000D02*
Y233000D01*
X681250Y223000D02*
Y233000D01*
X662250D02*
X681250D01*
X662250Y223000D02*
X681250D01*
X653250Y252000D02*
X672250D01*
X653250Y242000D02*
X672250D01*
Y252000D01*
X653250Y242000D02*
Y252000D01*
X703250Y179000D02*
Y197000D01*
X694250Y179000D02*
Y197000D01*
Y179000D02*
X703250D01*
X694250Y197000D02*
X703250D01*
X602625Y298375D02*
X620625D01*
X602625Y307375D02*
X620625D01*
X602625Y298375D02*
Y307375D01*
X620625Y298375D02*
Y307375D01*
X184250Y310500D02*
Y328500D01*
X193250Y310500D02*
Y328500D01*
X184250D02*
X193250D01*
X184250Y310500D02*
X193250D01*
X640250Y671500D02*
X659250D01*
X640250Y681500D02*
X659250D01*
X640250Y671500D02*
Y681500D01*
X659250Y671500D02*
Y681500D01*
X619250Y681500D02*
X638250D01*
X619250Y671500D02*
X638250D01*
Y681500D01*
X619250Y671500D02*
Y681500D01*
X616750Y659700D02*
Y678700D01*
X606750Y659700D02*
Y678700D01*
Y659700D02*
X616750D01*
X606750Y678700D02*
X616750D01*
Y640700D02*
Y659700D01*
X606750Y640700D02*
Y659700D01*
Y640700D02*
X616750D01*
X606750Y659700D02*
X616750D01*
X342750Y523250D02*
X384750D01*
Y487750D02*
Y523250D01*
X342750Y487750D02*
X384750D01*
X342750D02*
Y523250D01*
X160250Y405500D02*
X179250D01*
X160250Y415500D02*
X179250D01*
X160250Y405500D02*
Y415500D01*
X179250Y405500D02*
Y415500D01*
X530250Y71500D02*
X549250D01*
X530250Y81500D02*
X549250D01*
X530250Y71500D02*
Y81500D01*
X549250Y71500D02*
Y81500D01*
X167750Y309000D02*
X177750D01*
X167750Y290000D02*
X177750D01*
X167750D02*
Y309000D01*
X177750Y290000D02*
Y309000D01*
X219250Y395500D02*
Y405500D01*
X238250Y395500D02*
Y405500D01*
X219250Y395500D02*
X238250D01*
X219250Y405500D02*
X238250D01*
X192250Y341500D02*
Y351500D01*
X211250Y341500D02*
Y351500D01*
X192250Y341500D02*
X211250D01*
X192250Y351500D02*
X211250D01*
X184250Y337500D02*
Y347500D01*
X165250Y337500D02*
Y347500D01*
X184250D01*
X165250Y337500D02*
X184250D01*
X160750Y393000D02*
X170750D01*
X160750Y374000D02*
X170750D01*
X160750D02*
Y393000D01*
X170750Y374000D02*
Y393000D01*
X196250Y371500D02*
Y381500D01*
X215250Y371500D02*
Y381500D01*
X196250Y371500D02*
X215250D01*
X196250Y381500D02*
X215250D01*
X648250Y506250D02*
X657250D01*
X648250Y524250D02*
X657250D01*
X648250Y506250D02*
Y524250D01*
X657250Y506250D02*
Y524250D01*
X588250Y464750D02*
X597250D01*
X588250Y446750D02*
X597250D01*
Y464750D01*
X588250Y446750D02*
Y464750D01*
X611250Y436250D02*
Y445250D01*
X629250Y436250D02*
Y445250D01*
X611250Y436250D02*
X629250D01*
X611250Y445250D02*
X629250D01*
X648250Y506250D02*
X657250D01*
X648250Y524250D02*
X657250D01*
Y506250D02*
Y524250D01*
X648250Y506250D02*
Y524250D01*
X656914Y474000D02*
X666914D01*
X656914Y493000D02*
X666914D01*
X656914Y474000D02*
Y493000D01*
X666914Y474000D02*
Y493000D01*
X454000Y511750D02*
X487500D01*
Y493250D02*
Y511750D01*
X454000Y493250D02*
X487500D01*
X454000D02*
Y511750D01*
D14*
X706359Y135288D02*
X766741Y120234D01*
X738005Y262213D02*
X798387Y247158D01*
X706359Y135288D02*
X738005Y262213D01*
X766741Y120234D02*
X798387Y247158D01*
X739080Y396170D02*
X801310D01*
X739080Y265360D02*
X801310D01*
Y396170D01*
X739080Y265360D02*
Y396170D01*
X463820Y26670D02*
Y90170D01*
X359680Y26670D02*
Y90170D01*
Y26670D02*
X463820D01*
X359680Y90170D02*
X463820D01*
X505680Y-11170D02*
X609820Y-11170D01*
X505680Y52330D02*
X609820Y52330D01*
Y-11170D02*
Y52330D01*
X505680Y-11170D02*
Y52330D01*
X670769Y156451D02*
X722786Y120028D01*
X611037Y71144D02*
X663053Y34722D01*
X722786Y120028D01*
X611037Y71144D02*
X670769Y156451D01*
M02*
