G04*
G04 #@! TF.GenerationSoftware,Altium Limited,Altium Designer,23.1.1 (15)*
G04*
G04 Layer_Color=8421504*
%FSLAX44Y44*%
%MOMM*%
G71*
G04*
G04 #@! TF.SameCoordinates,8DBAF139-ECA8-4D34-9DCF-413724B6F768*
G04*
G04*
G04 #@! TF.FilePolarity,Positive*
G04*
G01*
G75*
%ADD15R,1.4750X0.4500*%
%ADD16R,1.4750X0.3000*%
%ADD17R,3.6100X7.1100*%
%ADD18R,1.3500X2.7500*%
%ADD19R,0.4200X0.6400*%
%ADD20R,0.4500X1.4750*%
%ADD21R,0.4000X0.5500*%
%ADD22R,1.1500X1.4000*%
%ADD23R,0.3000X1.4750*%
%ADD24R,1.7000X1.0000*%
%ADD25R,0.5500X0.4000*%
%ADD26R,1.0000X1.1000*%
%ADD27R,0.9500X1.3500*%
%ADD28R,0.9500X0.9500*%
%ADD29R,0.5500X0.4500*%
%ADD30R,0.6200X0.6600*%
%ADD31R,1.0000X1.0000*%
%ADD32R,0.6800X0.6400*%
%ADD33R,0.4500X0.5500*%
%ADD34R,1.3000X3.2500*%
%ADD35R,1.3000X0.9500*%
%ADD36R,0.9500X0.9500*%
%ADD37R,5.1000X2.9500*%
%ADD38R,1.6000X2.8000*%
%ADD39R,1.2400X1.1200*%
%ADD40R,1.5250X0.6500*%
%ADD41R,0.6400X0.6800*%
%ADD42R,3.0000X3.0000*%
%ADD43R,1.2000X0.6000*%
D15*
X561130Y123250D02*
D03*
Y116750D02*
D03*
Y110250D02*
D03*
Y103750D02*
D03*
Y97250D02*
D03*
Y90750D02*
D03*
Y84250D02*
D03*
Y77750D02*
D03*
X502370D02*
D03*
Y84250D02*
D03*
Y90750D02*
D03*
Y97250D02*
D03*
Y103750D02*
D03*
Y110250D02*
D03*
Y116750D02*
D03*
Y123250D02*
D03*
X652005Y326375D02*
D03*
Y319875D02*
D03*
Y313375D02*
D03*
Y306875D02*
D03*
Y300375D02*
D03*
Y293875D02*
D03*
Y287375D02*
D03*
X593245D02*
D03*
Y293875D02*
D03*
Y300375D02*
D03*
Y306875D02*
D03*
Y313375D02*
D03*
Y319875D02*
D03*
Y326375D02*
D03*
X668130Y677250D02*
D03*
Y670750D02*
D03*
Y664250D02*
D03*
Y657750D02*
D03*
Y651250D02*
D03*
Y644750D02*
D03*
Y638250D02*
D03*
Y631750D02*
D03*
X609370D02*
D03*
Y638250D02*
D03*
Y644750D02*
D03*
Y651250D02*
D03*
Y657750D02*
D03*
Y664250D02*
D03*
Y670750D02*
D03*
Y677250D02*
D03*
D16*
X147537Y612500D02*
D03*
Y607500D02*
D03*
Y602500D02*
D03*
Y597500D02*
D03*
Y592500D02*
D03*
Y587500D02*
D03*
Y582500D02*
D03*
Y577500D02*
D03*
Y572500D02*
D03*
Y567500D02*
D03*
Y562500D02*
D03*
Y557500D02*
D03*
Y552500D02*
D03*
Y547500D02*
D03*
Y542500D02*
D03*
Y537500D02*
D03*
Y532500D02*
D03*
Y527500D02*
D03*
Y522500D02*
D03*
Y517500D02*
D03*
Y512500D02*
D03*
Y507500D02*
D03*
Y502500D02*
D03*
Y497500D02*
D03*
Y492500D02*
D03*
Y487500D02*
D03*
Y482500D02*
D03*
Y477500D02*
D03*
X223297Y482500D02*
D03*
Y487500D02*
D03*
Y492500D02*
D03*
Y497500D02*
D03*
Y502500D02*
D03*
Y507500D02*
D03*
Y512500D02*
D03*
Y517500D02*
D03*
Y522500D02*
D03*
Y527500D02*
D03*
Y532500D02*
D03*
Y537500D02*
D03*
Y542500D02*
D03*
Y547500D02*
D03*
Y552500D02*
D03*
Y557500D02*
D03*
Y562500D02*
D03*
Y567500D02*
D03*
Y572500D02*
D03*
Y577500D02*
D03*
Y582500D02*
D03*
Y587500D02*
D03*
Y592500D02*
D03*
Y607500D02*
D03*
Y612500D02*
D03*
Y477500D02*
D03*
Y597500D02*
D03*
Y602500D02*
D03*
X263130Y405000D02*
D03*
Y400000D02*
D03*
Y395000D02*
D03*
Y390000D02*
D03*
Y385000D02*
D03*
Y380000D02*
D03*
Y375000D02*
D03*
Y370000D02*
D03*
Y365000D02*
D03*
Y360000D02*
D03*
Y355000D02*
D03*
Y350000D02*
D03*
Y345000D02*
D03*
Y340000D02*
D03*
Y335000D02*
D03*
Y330000D02*
D03*
X148370D02*
D03*
Y335000D02*
D03*
Y340000D02*
D03*
Y345000D02*
D03*
Y350000D02*
D03*
Y355000D02*
D03*
Y360000D02*
D03*
Y365000D02*
D03*
Y370000D02*
D03*
Y375000D02*
D03*
Y380000D02*
D03*
Y385000D02*
D03*
Y390000D02*
D03*
Y395000D02*
D03*
Y400000D02*
D03*
Y405000D02*
D03*
D17*
X185417Y545000D02*
D03*
D18*
X222674Y637004D02*
D03*
X194174D02*
D03*
X194750Y671500D02*
D03*
X223250D02*
D03*
D19*
X240750Y14000D02*
D03*
Y-1000D02*
D03*
X243750Y76000D02*
D03*
Y61000D02*
D03*
D20*
X644412Y514380D02*
D03*
X637912D02*
D03*
X644412Y455620D02*
D03*
X637912D02*
D03*
X618412Y514380D02*
D03*
X631412D02*
D03*
X624912D02*
D03*
X611912D02*
D03*
X605412D02*
D03*
X618412Y455620D02*
D03*
X611912D02*
D03*
X631412D02*
D03*
X624912D02*
D03*
X605412D02*
D03*
D21*
X637000Y528438D02*
D03*
X626500D02*
D03*
X283500Y390500D02*
D03*
X294000D02*
D03*
X208500Y-2500D02*
D03*
X219000D02*
D03*
X615000Y440750D02*
D03*
X625500D02*
D03*
X657500Y247000D02*
D03*
X668000D02*
D03*
D22*
X121750Y397500D02*
D03*
Y375500D02*
D03*
X105750D02*
D03*
Y397500D02*
D03*
D23*
X168250Y424880D02*
D03*
X173250D02*
D03*
X178250D02*
D03*
X183250D02*
D03*
X188250D02*
D03*
X193250D02*
D03*
X198250D02*
D03*
X203250D02*
D03*
X208250D02*
D03*
X213250D02*
D03*
X218250D02*
D03*
X223250D02*
D03*
X228250D02*
D03*
X233250D02*
D03*
X238250D02*
D03*
X243250D02*
D03*
Y310120D02*
D03*
X238250D02*
D03*
X233250D02*
D03*
X228250D02*
D03*
X223250D02*
D03*
X218250D02*
D03*
X213250D02*
D03*
X208250D02*
D03*
X203250D02*
D03*
X198250D02*
D03*
X193250D02*
D03*
X188250D02*
D03*
X183250D02*
D03*
X178250D02*
D03*
X173250D02*
D03*
X168250D02*
D03*
D24*
X435250Y106500D02*
D03*
X372250D02*
D03*
X435250Y144500D02*
D03*
X372250D02*
D03*
X132250Y137500D02*
D03*
X195250D02*
D03*
X132250Y99500D02*
D03*
X195250D02*
D03*
D25*
X616750Y382750D02*
D03*
Y372250D02*
D03*
X639750Y377750D02*
D03*
Y367250D02*
D03*
X561750Y255750D02*
D03*
Y245250D02*
D03*
X562750Y234750D02*
D03*
Y224250D02*
D03*
X622750Y141750D02*
D03*
Y131250D02*
D03*
X636750Y435000D02*
D03*
Y424500D02*
D03*
X701750Y355750D02*
D03*
Y345250D02*
D03*
Y334750D02*
D03*
Y324250D02*
D03*
X596914Y509500D02*
D03*
Y520000D02*
D03*
X652750Y510000D02*
D03*
Y520500D02*
D03*
X592750Y461000D02*
D03*
Y450500D02*
D03*
D26*
X628750Y380500D02*
D03*
Y366000D02*
D03*
D27*
X274174Y518004D02*
D03*
X292674D02*
D03*
D28*
X577750Y602000D02*
D03*
Y587000D02*
D03*
X269750Y77000D02*
D03*
Y62000D02*
D03*
X297750Y46000D02*
D03*
Y61000D02*
D03*
X605750Y155000D02*
D03*
Y140000D02*
D03*
X602750Y89000D02*
D03*
Y104000D02*
D03*
D29*
X698750Y269500D02*
D03*
Y279500D02*
D03*
X709750Y269500D02*
D03*
Y279500D02*
D03*
D30*
X687750Y278800D02*
D03*
Y270200D02*
D03*
D31*
X316750Y34500D02*
D03*
Y16500D02*
D03*
X331750Y486500D02*
D03*
Y504500D02*
D03*
D32*
X171450Y172500D02*
D03*
X180050D02*
D03*
X667450Y228000D02*
D03*
X676050D02*
D03*
D33*
X284250Y411000D02*
D03*
X294250D02*
D03*
D34*
X529250Y660500D02*
D03*
X528750Y583500D02*
D03*
D35*
X462250Y637600D02*
D03*
Y660500D02*
D03*
Y683400D02*
D03*
X461750Y606400D02*
D03*
Y583500D02*
D03*
Y560600D02*
D03*
D36*
X435250Y501500D02*
D03*
X420250D02*
D03*
X463250Y502500D02*
D03*
X478250D02*
D03*
D37*
X300424Y630754D02*
D03*
Y585254D02*
D03*
D38*
X362424Y603504D02*
D03*
Y646504D02*
D03*
D39*
X374750Y574500D02*
D03*
X344750D02*
D03*
D40*
X299870Y131550D02*
D03*
Y118850D02*
D03*
Y106150D02*
D03*
Y93450D02*
D03*
X245630D02*
D03*
Y106150D02*
D03*
Y118850D02*
D03*
Y131550D02*
D03*
D41*
X239750Y560200D02*
D03*
Y568800D02*
D03*
X247424Y490704D02*
D03*
Y499304D02*
D03*
X713750Y367800D02*
D03*
Y359200D02*
D03*
X283500Y492700D02*
D03*
Y501300D02*
D03*
X329750Y28700D02*
D03*
Y37300D02*
D03*
X661914Y479200D02*
D03*
Y487800D02*
D03*
D42*
X638750Y654500D02*
D03*
D43*
X351250Y515000D02*
D03*
Y505500D02*
D03*
Y496000D02*
D03*
X376250D02*
D03*
Y515000D02*
D03*
M02*
