G04*
G04 #@! TF.GenerationSoftware,Altium Limited,Altium Designer,23.1.1 (15)*
G04*
G04 Layer_Color=16711935*
%FSLAX44Y44*%
%MOMM*%
G71*
G04*
G04 #@! TF.SameCoordinates,8DBAF139-ECA8-4D34-9DCF-413724B6F768*
G04*
G04*
G04 #@! TF.FilePolarity,Negative*
G04*
G01*
G75*
%ADD47R,1.4300X2.8300*%
%ADD48R,0.4600X0.6800*%
%ADD50R,0.4800X0.6300*%
%ADD54R,0.6300X0.4800*%
%ADD56R,1.0300X1.4300*%
%ADD59R,0.6300X0.5300*%
%ADD60R,0.7000X0.7400*%
%ADD61R,0.7600X0.7200*%
%ADD71R,0.7200X0.7600*%
%ADD75C,1.7300*%
%ADD76R,1.7300X1.7300*%
G04:AMPARAMS|DCode=77|XSize=1.04mm|YSize=1.04mm|CornerRadius=0.27mm|HoleSize=0mm|Usage=FLASHONLY|Rotation=120.000|XOffset=0mm|YOffset=0mm|HoleType=Round|Shape=RoundedRectangle|*
%AMROUNDEDRECTD77*
21,1,1.0400,0.5000,0,0,120.0*
21,1,0.5000,1.0400,0,0,120.0*
1,1,0.5400,0.0915,0.3415*
1,1,0.5400,0.3415,-0.0915*
1,1,0.5400,-0.0915,-0.3415*
1,1,0.5400,-0.3415,0.0915*
%
%ADD77ROUNDEDRECTD77*%
%ADD78C,1.1800*%
%ADD79C,3.0800*%
%ADD80C,1.8800*%
%ADD81C,2.0800*%
%ADD82C,1.6300*%
%ADD119R,0.7400X0.7000*%
%ADD120R,0.6800X0.4600*%
%ADD121R,1.4300X1.0300*%
%ADD122R,0.5300X1.4800*%
%ADD123R,0.7300X0.7800*%
%ADD124R,2.8300X1.4300*%
%ADD125R,1.1800X1.4800*%
%ADD126R,0.9800X1.4800*%
%ADD127R,0.5000X0.5800*%
%ADD128R,1.8300X1.1800*%
%ADD129R,1.1800X1.0800*%
D47*
X314500Y64500D02*
D03*
X343000D02*
D03*
X484500Y602500D02*
D03*
X513000D02*
D03*
X485250Y569500D02*
D03*
X513750D02*
D03*
D48*
X639750Y120000D02*
D03*
Y105000D02*
D03*
D50*
X637250Y527875D02*
D03*
X626750D02*
D03*
X141424Y485004D02*
D03*
X151924D02*
D03*
X141424Y495004D02*
D03*
X151924D02*
D03*
X170500Y172500D02*
D03*
X181000D02*
D03*
X607375Y313875D02*
D03*
X617875D02*
D03*
X248000Y67500D02*
D03*
X237500D02*
D03*
X222000Y36900D02*
D03*
X211500D02*
D03*
X422500Y501500D02*
D03*
X433000D02*
D03*
X465250Y502500D02*
D03*
X475750D02*
D03*
X223500Y11500D02*
D03*
X234000D02*
D03*
X211500Y23900D02*
D03*
X222000D02*
D03*
X211500Y48900D02*
D03*
X222000D02*
D03*
X231500Y49500D02*
D03*
X242000D02*
D03*
X211500Y61900D02*
D03*
X222000D02*
D03*
X163500Y585500D02*
D03*
X174000D02*
D03*
X171674Y606004D02*
D03*
X161174D02*
D03*
X250000Y23500D02*
D03*
X239500D02*
D03*
X188000Y1500D02*
D03*
X177500D02*
D03*
X153424Y580004D02*
D03*
X142924D02*
D03*
X616875Y325875D02*
D03*
X606375D02*
D03*
Y302875D02*
D03*
X616875D02*
D03*
X615000Y440750D02*
D03*
X625500D02*
D03*
D54*
X639750Y377750D02*
D03*
Y367250D02*
D03*
X616750Y372250D02*
D03*
Y382750D02*
D03*
X592750Y461000D02*
D03*
Y450500D02*
D03*
X577750Y589250D02*
D03*
Y599750D02*
D03*
X298750Y58750D02*
D03*
Y48250D02*
D03*
X269750Y74750D02*
D03*
Y64250D02*
D03*
X329750Y28000D02*
D03*
Y38500D02*
D03*
X188750Y401750D02*
D03*
Y391250D02*
D03*
X132750Y259250D02*
D03*
Y269750D02*
D03*
X61750Y275750D02*
D03*
Y265250D02*
D03*
X224750Y324750D02*
D03*
Y314250D02*
D03*
X209750Y597250D02*
D03*
Y607750D02*
D03*
X596914Y519750D02*
D03*
Y509250D02*
D03*
X636750Y424500D02*
D03*
Y435000D02*
D03*
X592625Y307125D02*
D03*
Y296625D02*
D03*
X698750Y182750D02*
D03*
Y193250D02*
D03*
X188750Y324750D02*
D03*
Y314250D02*
D03*
X652750Y510000D02*
D03*
Y520500D02*
D03*
D56*
X274174Y518004D02*
D03*
X292674D02*
D03*
X189674Y620004D02*
D03*
X171174D02*
D03*
X699500Y587500D02*
D03*
X718000D02*
D03*
X699500Y566500D02*
D03*
X718000D02*
D03*
D59*
X605750Y154500D02*
D03*
Y144500D02*
D03*
X602750Y101500D02*
D03*
Y91500D02*
D03*
X689750Y141500D02*
D03*
Y131500D02*
D03*
X662750Y137500D02*
D03*
Y127500D02*
D03*
X682750Y82500D02*
D03*
Y72500D02*
D03*
D60*
X708750Y95100D02*
D03*
Y86500D02*
D03*
D61*
X187450Y488500D02*
D03*
X196050D02*
D03*
X241450Y645500D02*
D03*
X151724Y507004D02*
D03*
X143124D02*
D03*
X608450Y491500D02*
D03*
X617050D02*
D03*
X650300Y309650D02*
D03*
X658900D02*
D03*
X667050Y59500D02*
D03*
X658450D02*
D03*
X170050Y203500D02*
D03*
X161450D02*
D03*
X109450Y376500D02*
D03*
X118050D02*
D03*
Y395500D02*
D03*
X109450D02*
D03*
X276424Y605004D02*
D03*
X285024D02*
D03*
X263450Y105500D02*
D03*
X272050D02*
D03*
X189450Y601500D02*
D03*
X198050D02*
D03*
X208450Y586500D02*
D03*
X217050D02*
D03*
X642050Y491500D02*
D03*
X633450D02*
D03*
X143424Y553004D02*
D03*
X152024D02*
D03*
X250050Y645500D02*
D03*
X162124Y481004D02*
D03*
X170724D02*
D03*
X506050Y683500D02*
D03*
X497450D02*
D03*
X527750Y88500D02*
D03*
X519150D02*
D03*
X528050Y102500D02*
D03*
X519450D02*
D03*
X667050Y247000D02*
D03*
X658450D02*
D03*
X645450Y676500D02*
D03*
X654050D02*
D03*
X633050D02*
D03*
X624450D02*
D03*
X165450Y410500D02*
D03*
X174050D02*
D03*
X535450Y76500D02*
D03*
X544050D02*
D03*
X224450Y400500D02*
D03*
X233050D02*
D03*
X197450Y346500D02*
D03*
X206050D02*
D03*
X179050Y342500D02*
D03*
X170450D02*
D03*
X201450Y376500D02*
D03*
X210050D02*
D03*
D71*
X147274Y539154D02*
D03*
Y530554D02*
D03*
X788750Y324200D02*
D03*
Y332800D02*
D03*
X700750Y386100D02*
D03*
Y377500D02*
D03*
X779397Y204253D02*
D03*
Y212853D02*
D03*
X164750Y504800D02*
D03*
Y496200D02*
D03*
X301424Y585704D02*
D03*
Y594304D02*
D03*
X212750Y315200D02*
D03*
Y323800D02*
D03*
X605750Y478500D02*
D03*
Y469900D02*
D03*
X628750Y467200D02*
D03*
Y475800D02*
D03*
X639750Y467200D02*
D03*
Y475800D02*
D03*
X650750Y467200D02*
D03*
Y475800D02*
D03*
X209424Y546304D02*
D03*
Y537704D02*
D03*
Y521304D02*
D03*
Y512704D02*
D03*
X494750Y663800D02*
D03*
Y655200D02*
D03*
X519750Y122500D02*
D03*
Y113900D02*
D03*
X560750Y105500D02*
D03*
Y114100D02*
D03*
X611750Y664900D02*
D03*
Y673500D02*
D03*
Y645900D02*
D03*
Y654500D02*
D03*
X172750Y303800D02*
D03*
Y295200D02*
D03*
X165750Y387800D02*
D03*
Y379200D02*
D03*
D75*
X501350Y226900D02*
D03*
Y201500D02*
D03*
X475950Y226900D02*
D03*
Y201500D02*
D03*
X450550Y226900D02*
D03*
Y201500D02*
D03*
X425150Y226900D02*
D03*
Y201500D02*
D03*
X399750Y226900D02*
D03*
Y201500D02*
D03*
X374350Y226900D02*
D03*
Y201500D02*
D03*
X348950Y226900D02*
D03*
Y201500D02*
D03*
X323550Y226900D02*
D03*
D76*
Y201500D02*
D03*
D77*
X119338Y72572D02*
D03*
D78*
X99750Y70500D02*
D03*
X111339Y86428D02*
D03*
X91750Y84356D02*
D03*
X103338Y100285D02*
D03*
D79*
X121794Y50318D02*
D03*
X85294Y113538D02*
D03*
D80*
X397644Y681223D02*
D03*
X427750Y681500D02*
D03*
X788750Y411500D02*
D03*
X783686Y436390D02*
D03*
X778622Y461280D02*
D03*
X773558Y486170D02*
D03*
X768494Y511060D02*
D03*
X762513Y540458D02*
D03*
X756133Y571816D02*
D03*
X34750Y407500D02*
D03*
X39901Y432372D02*
D03*
X45052Y457244D02*
D03*
X50202Y482117D02*
D03*
X55353Y506989D02*
D03*
X60986Y536455D02*
D03*
X67366Y567813D02*
D03*
X479250Y-1500D02*
D03*
X453850D02*
D03*
X428450D02*
D03*
X403050D02*
D03*
X377650D02*
D03*
X333650D02*
D03*
X301150D02*
D03*
X747316Y152563D02*
D03*
X753460Y177209D02*
D03*
X759605Y201854D02*
D03*
X765750Y226500D02*
D03*
Y369500D02*
D03*
Y344100D02*
D03*
Y318700D02*
D03*
Y293300D02*
D03*
X437150Y63500D02*
D03*
X411750D02*
D03*
X386350D02*
D03*
X583150Y15500D02*
D03*
X557750D02*
D03*
X532350D02*
D03*
X677319Y119306D02*
D03*
X662750Y98500D02*
D03*
X648181Y77694D02*
D03*
D81*
X79250Y619500D02*
D03*
X263750Y-500D02*
D03*
X707644Y640222D02*
D03*
D82*
X119640Y206564D02*
D03*
X94750Y201500D02*
D03*
X114576Y231454D02*
D03*
X89686Y226390D02*
D03*
X109512Y256344D02*
D03*
X84622Y251280D02*
D03*
X104448Y281234D02*
D03*
X79558Y276170D02*
D03*
X99384Y306124D02*
D03*
X74494Y301060D02*
D03*
D119*
X227597Y477500D02*
D03*
X218997D02*
D03*
X524450Y371500D02*
D03*
X533050D02*
D03*
D120*
X295750Y12500D02*
D03*
X280750D02*
D03*
X258250Y36500D02*
D03*
X243250D02*
D03*
X280250Y24500D02*
D03*
X265250D02*
D03*
D121*
X81750Y547750D02*
D03*
Y529250D02*
D03*
X59750Y440750D02*
D03*
Y422250D02*
D03*
D122*
X719500Y355500D02*
D03*
X713000D02*
D03*
X706500D02*
D03*
X700000D02*
D03*
Y311500D02*
D03*
X706500D02*
D03*
X713000D02*
D03*
X719500D02*
D03*
X684750Y232000D02*
D03*
X678250D02*
D03*
X671750D02*
D03*
X665250D02*
D03*
Y188000D02*
D03*
X671750D02*
D03*
X678250D02*
D03*
X684750D02*
D03*
D123*
X357000Y530500D02*
D03*
X370500D02*
D03*
D124*
X349424Y597754D02*
D03*
Y626254D02*
D03*
D125*
X191250Y114500D02*
D03*
D126*
X174250D02*
D03*
Y136500D02*
D03*
X193250D02*
D03*
D127*
X154750Y63250D02*
D03*
Y73750D02*
D03*
X542750Y105750D02*
D03*
Y95250D02*
D03*
X200750Y313855D02*
D03*
Y324355D02*
D03*
D128*
X296750Y128250D02*
D03*
Y98750D02*
D03*
D129*
X626125Y287875D02*
D03*
X611625D02*
D03*
M02*
