G04*
G04 #@! TF.GenerationSoftware,Altium Limited,Altium Designer,23.1.1 (15)*
G04*
G04 Layer_Physical_Order=3*
G04 Layer_Color=16440176*
%FSLAX44Y44*%
%MOMM*%
G71*
G04*
G04 #@! TF.SameCoordinates,8DBAF139-ECA8-4D34-9DCF-413724B6F768*
G04*
G04*
G04 #@! TF.FilePolarity,Positive*
G04*
G01*
G75*
%ADD94C,1.6500*%
%ADD95R,1.6500X1.6500*%
G04:AMPARAMS|DCode=96|XSize=1mm|YSize=1mm|CornerRadius=0.25mm|HoleSize=0mm|Usage=FLASHONLY|Rotation=120.000|XOffset=0mm|YOffset=0mm|HoleType=Round|Shape=RoundedRectangle|*
%AMROUNDEDRECTD96*
21,1,1.0000,0.5000,0,0,120.0*
21,1,0.5000,1.0000,0,0,120.0*
1,1,0.5000,0.0915,0.3415*
1,1,0.5000,0.3415,-0.0915*
1,1,0.5000,-0.0915,-0.3415*
1,1,0.5000,-0.3415,0.0915*
%
%ADD96ROUNDEDRECTD96*%
%ADD97C,1.1000*%
%ADD98C,3.0000*%
%ADD99C,1.8000*%
%ADD100C,2.0000*%
%ADD101C,1.5500*%
%ADD102C,0.4000*%
%ADD103C,0.6000*%
%ADD104C,0.8000*%
%ADD105C,1.2000*%
%ADD106C,1.0000*%
G36*
X730297Y704183D02*
X731770Y704183D01*
X734676Y703704D01*
X737465Y702757D01*
X740063Y701368D01*
X742400Y699575D01*
X744413Y697426D01*
X746049Y694977D01*
X747265Y692293D01*
X747646Y690871D01*
X747646Y690871D01*
X807993Y465655D01*
X808145Y465087D01*
X808374Y463933D01*
X808528Y462767D01*
X808605Y461594D01*
X808605Y461006D01*
X808605Y286678D01*
X808605Y286129D01*
X808538Y285034D01*
X808404Y283944D01*
X808204Y282865D01*
X808071Y282333D01*
X764133Y106106D01*
X763745Y104552D01*
X762547Y101582D01*
X760948Y98807D01*
X758979Y96282D01*
X756678Y94053D01*
X754091Y92166D01*
X751266Y90656D01*
X748260Y89553D01*
X746694Y89216D01*
X746673Y89206D01*
X746649Y89205D01*
X741916Y88070D01*
X741851Y88040D01*
X741780Y88032D01*
X732497Y85114D01*
X732414Y85068D01*
X732321Y85049D01*
X723346Y81288D01*
X723267Y81235D01*
X723176Y81207D01*
X714586Y76636D01*
X714512Y76576D01*
X714424Y76540D01*
X706291Y71197D01*
X706224Y71130D01*
X706139Y71087D01*
X698533Y65017D01*
X698472Y64945D01*
X698391Y64893D01*
X691376Y58150D01*
X691322Y58072D01*
X691247Y58013D01*
X684883Y50652D01*
X684836Y50569D01*
X684766Y50504D01*
X679107Y42588D01*
X679068Y42502D01*
X679005Y42431D01*
X674098Y34027D01*
X674067Y33937D01*
X674011Y33861D01*
X669899Y25041D01*
X669876Y24949D01*
X669828Y24867D01*
X666545Y15706D01*
X666535Y15636D01*
X666502Y15572D01*
X665181Y10888D01*
X665179Y10864D01*
X665169Y10843D01*
X664643Y8799D01*
X662989Y4915D01*
X660771Y1323D01*
X658039Y-1895D01*
X654855Y-4667D01*
X651291Y-6929D01*
X647428Y-8630D01*
X643353Y-9732D01*
X641255Y-9971D01*
X556288Y-19652D01*
X555781Y-19695D01*
X555272Y-19724D01*
X554763Y-19739D01*
X554508D01*
X272955Y-19739D01*
X272955Y-19739D01*
X272955Y-19739D01*
X272661Y-19739D01*
X272073Y-19719D01*
X271486Y-19681D01*
X270902Y-19623D01*
X180499Y-7721D01*
X174816Y-6973D01*
X163598Y-4602D01*
X152598Y-1369D01*
X141881Y2704D01*
X131511Y7595D01*
X121551Y13273D01*
X112060Y19705D01*
X103095Y26852D01*
X94710Y34671D01*
X86955Y43116D01*
X79877Y52135D01*
X73517Y61675D01*
X67916Y71678D01*
X63104Y82085D01*
X59112Y92833D01*
X55964Y103857D01*
X54821Y109475D01*
X13445Y312845D01*
Y312845D01*
X13255Y313779D01*
X12969Y315663D01*
X12779Y317558D01*
X12683Y319461D01*
Y320414D01*
Y429956D01*
Y431199D01*
X12845Y433679D01*
X13170Y436143D01*
X13655Y438581D01*
X13976Y439781D01*
X75298Y668636D01*
X75298Y668636D01*
X75975Y671165D01*
X77874Y676046D01*
X80292Y680691D01*
X83201Y685045D01*
X86567Y689057D01*
X90350Y692678D01*
X94505Y695866D01*
X98982Y698583D01*
X103728Y700797D01*
X108687Y702480D01*
X113800Y703613D01*
X119006Y704183D01*
X121624Y704183D01*
X730297Y704183D01*
D02*
G37*
%LPC*%
G36*
X681446Y680750D02*
X680054D01*
X678767Y680217D01*
X677783Y679233D01*
X677250Y677946D01*
Y676554D01*
X677783Y675267D01*
X678767Y674283D01*
X680054Y673750D01*
X681446D01*
X682733Y674283D01*
X683717Y675267D01*
X684250Y676554D01*
Y677946D01*
X683717Y679233D01*
X682733Y680217D01*
X681446Y680750D01*
D02*
G37*
G36*
X429132Y692000D02*
X426368D01*
X423697Y691284D01*
X421303Y689902D01*
X419348Y687947D01*
X417966Y685553D01*
X417250Y682882D01*
Y680118D01*
X417966Y677447D01*
X419348Y675053D01*
X421303Y673098D01*
X423697Y671716D01*
X426368Y671000D01*
X429132D01*
X431803Y671716D01*
X434197Y673098D01*
X436152Y675053D01*
X437534Y677447D01*
X438250Y680118D01*
Y682882D01*
X437534Y685553D01*
X436152Y687947D01*
X434197Y689902D01*
X431803Y691284D01*
X429132Y692000D01*
D02*
G37*
G36*
X151875Y692762D02*
X149413D01*
X149216Y692722D01*
X149015D01*
X146600Y692242D01*
X146414Y692165D01*
X146217Y692126D01*
X143942Y691184D01*
X143776Y691072D01*
X143590Y690995D01*
X141543Y689627D01*
X141401Y689485D01*
X141234Y689374D01*
X139493Y687633D01*
X139381Y687466D01*
X139239Y687324D01*
X137871Y685276D01*
X137794Y685091D01*
X137683Y684924D01*
X136740Y682649D01*
X136701Y682452D01*
X136624Y682266D01*
X136144Y679851D01*
Y679651D01*
X136105Y679454D01*
Y676991D01*
X136144Y676794D01*
Y676593D01*
X136624Y674178D01*
X136701Y673993D01*
X136740Y673796D01*
X137683Y671521D01*
X137794Y671354D01*
X137871Y671169D01*
X139239Y669121D01*
X139381Y668979D01*
X139493Y668812D01*
X141234Y667071D01*
X141401Y666960D01*
X141543Y666817D01*
X143590Y665450D01*
X143776Y665373D01*
X143942Y665261D01*
X146217Y664319D01*
X146414Y664280D01*
X146600Y664203D01*
X149015Y663723D01*
X149216D01*
X149413Y663683D01*
X151875D01*
X152072Y663723D01*
X152273D01*
X154688Y664203D01*
X154873Y664280D01*
X155070Y664319D01*
X157345Y665261D01*
X157512Y665373D01*
X157698Y665450D01*
X159745Y666817D01*
X159887Y666960D01*
X160054Y667071D01*
X161795Y668812D01*
X161907Y668979D01*
X162049Y669121D01*
X163417Y671169D01*
X163494Y671354D01*
X163605Y671521D01*
X164547Y673796D01*
X164587Y673993D01*
X164664Y674178D01*
X165144Y676593D01*
Y676794D01*
X165183Y676991D01*
Y679454D01*
X165144Y679651D01*
Y679851D01*
X164664Y682266D01*
X164587Y682452D01*
X164547Y682649D01*
X163605Y684924D01*
X163494Y685091D01*
X163417Y685276D01*
X162049Y687324D01*
X161907Y687466D01*
X161795Y687633D01*
X160054Y689374D01*
X159887Y689485D01*
X159745Y689627D01*
X157698Y690995D01*
X157512Y691072D01*
X157345Y691184D01*
X155070Y692126D01*
X154873Y692165D01*
X154688Y692242D01*
X152273Y692722D01*
X152072D01*
X151875Y692762D01*
D02*
G37*
G36*
X682446Y668000D02*
X681054D01*
X679767Y667467D01*
X678783Y666483D01*
X678250Y665196D01*
Y663804D01*
X678783Y662517D01*
X679767Y661533D01*
X681054Y661000D01*
X682446D01*
X683733Y661533D01*
X684717Y662517D01*
X685250Y663804D01*
Y665196D01*
X684717Y666483D01*
X683733Y667467D01*
X682446Y668000D01*
D02*
G37*
G36*
X109030Y681762D02*
X107257D01*
X107060Y681722D01*
X106860D01*
X105121Y681377D01*
X104935Y681300D01*
X104738Y681261D01*
X103100Y680582D01*
X102933Y680471D01*
X102748Y680394D01*
X101274Y679409D01*
X101132Y679267D01*
X100965Y679155D01*
X99711Y677902D01*
X99600Y677735D01*
X99458Y677592D01*
X98473Y676118D01*
X98396Y675933D01*
X98284Y675766D01*
X97606Y674128D01*
X97566Y673931D01*
X97490Y673745D01*
X97144Y672007D01*
Y671806D01*
X97105Y671609D01*
Y669836D01*
X97144Y669639D01*
Y669438D01*
X97490Y667699D01*
X97566Y667514D01*
X97606Y667317D01*
X98284Y665679D01*
X98396Y665512D01*
X98473Y665326D01*
X99458Y663852D01*
X99600Y663710D01*
X99711Y663543D01*
X100965Y662290D01*
X101132Y662178D01*
X101274Y662036D01*
X102748Y661051D01*
X102933Y660974D01*
X103100Y660863D01*
X104738Y660184D01*
X104935Y660145D01*
X105121Y660068D01*
X106860Y659722D01*
X107060D01*
X107257Y659683D01*
X109030D01*
X109227Y659722D01*
X109428D01*
X111167Y660068D01*
X111352Y660145D01*
X111549Y660184D01*
X113187Y660863D01*
X113354Y660974D01*
X113540Y661051D01*
X115014Y662036D01*
X115156Y662178D01*
X115323Y662290D01*
X116576Y663543D01*
X116688Y663710D01*
X116830Y663852D01*
X117815Y665326D01*
X117892Y665512D01*
X118004Y665679D01*
X118682Y667317D01*
X118721Y667514D01*
X118798Y667699D01*
X119144Y669438D01*
Y669639D01*
X119183Y669836D01*
Y671609D01*
X119144Y671806D01*
Y672007D01*
X118798Y673745D01*
X118721Y673931D01*
X118682Y674128D01*
X118004Y675766D01*
X117892Y675933D01*
X117815Y676118D01*
X116830Y677592D01*
X116688Y677735D01*
X116576Y677902D01*
X115323Y679155D01*
X115156Y679267D01*
X115014Y679409D01*
X113540Y680394D01*
X113354Y680471D01*
X113187Y680582D01*
X111549Y681261D01*
X111352Y681300D01*
X111167Y681377D01*
X109428Y681722D01*
X109227D01*
X109030Y681762D01*
D02*
G37*
G36*
X728375Y685762D02*
X725913D01*
X725716Y685723D01*
X725515D01*
X723100Y685242D01*
X722914Y685165D01*
X722717Y685126D01*
X720443Y684184D01*
X720275Y684072D01*
X720090Y683995D01*
X718043Y682627D01*
X717901Y682485D01*
X717734Y682374D01*
X715993Y680633D01*
X715881Y680466D01*
X715739Y680324D01*
X714371Y678276D01*
X714294Y678091D01*
X714183Y677924D01*
X713240Y675649D01*
X713201Y675452D01*
X713124Y675266D01*
X712644Y672851D01*
Y672651D01*
X712605Y672454D01*
Y669991D01*
X712644Y669794D01*
Y669594D01*
X713124Y667178D01*
X713201Y666993D01*
X713240Y666796D01*
X714183Y664521D01*
X714294Y664354D01*
X714371Y664168D01*
X715739Y662121D01*
X715881Y661979D01*
X715993Y661812D01*
X717734Y660071D01*
X717901Y659959D01*
X718043Y659818D01*
X720090Y658450D01*
X720275Y658373D01*
X720443Y658261D01*
X722717Y657319D01*
X722914Y657280D01*
X723100Y657203D01*
X725515Y656722D01*
X725716D01*
X725913Y656683D01*
X728375D01*
X728572Y656722D01*
X728773D01*
X731188Y657203D01*
X731373Y657280D01*
X731570Y657319D01*
X733845Y658261D01*
X734012Y658373D01*
X734198Y658450D01*
X736245Y659818D01*
X736387Y659959D01*
X736554Y660071D01*
X738295Y661812D01*
X738407Y661979D01*
X738549Y662121D01*
X739917Y664168D01*
X739994Y664354D01*
X740105Y664521D01*
X741047Y666796D01*
X741087Y666993D01*
X741163Y667178D01*
X741644Y669594D01*
Y669794D01*
X741683Y669991D01*
Y672454D01*
X741644Y672651D01*
Y672851D01*
X741163Y675266D01*
X741087Y675452D01*
X741047Y675649D01*
X740105Y677924D01*
X739994Y678091D01*
X739917Y678276D01*
X738549Y680324D01*
X738407Y680466D01*
X738295Y680633D01*
X736554Y682374D01*
X736387Y682485D01*
X736245Y682627D01*
X734198Y683995D01*
X734012Y684072D01*
X733845Y684184D01*
X731570Y685126D01*
X731373Y685165D01*
X731188Y685242D01*
X728773Y685723D01*
X728572D01*
X728375Y685762D01*
D02*
G37*
G36*
X238446Y657000D02*
X237054D01*
X235767Y656467D01*
X234783Y655483D01*
X234250Y654196D01*
Y652804D01*
X234783Y651517D01*
X235767Y650533D01*
X237054Y650000D01*
X238446D01*
X239733Y650533D01*
X240717Y651517D01*
X241250Y652804D01*
Y654196D01*
X240717Y655483D01*
X239733Y656467D01*
X238446Y657000D01*
D02*
G37*
G36*
X596446Y681000D02*
X595054D01*
X593767Y680467D01*
X592783Y679483D01*
X592250Y678196D01*
Y676804D01*
X592783Y675517D01*
X593767Y674533D01*
X595054Y674000D01*
X595555D01*
X595808Y672730D01*
X595173Y672467D01*
X594189Y671483D01*
X593656Y670196D01*
Y668804D01*
X592718Y667750D01*
X592304D01*
X591017Y667217D01*
X590033Y666233D01*
X589500Y664946D01*
Y663554D01*
X590033Y662267D01*
X591017Y661283D01*
X592304Y660750D01*
X592387D01*
X592974Y659541D01*
X592441Y658255D01*
Y656862D01*
X592974Y655576D01*
X593959Y654592D01*
X593715Y653318D01*
X593250Y652196D01*
Y650804D01*
X593783Y649517D01*
X594767Y648533D01*
X596054Y648000D01*
X597446D01*
X598733Y648533D01*
X599717Y649517D01*
X600250Y650804D01*
Y652196D01*
X599717Y653483D01*
X598733Y654467D01*
X598977Y655741D01*
X599441Y656862D01*
Y658255D01*
X598909Y659541D01*
X597924Y660526D01*
X596638Y661059D01*
X596554D01*
X595967Y662267D01*
X596500Y663554D01*
Y664946D01*
X597438Y666000D01*
X597852D01*
X599138Y666533D01*
X600123Y667517D01*
X600656Y668804D01*
Y670196D01*
X600123Y671483D01*
X599138Y672467D01*
X597852Y673000D01*
X597351D01*
X597098Y674270D01*
X597733Y674533D01*
X598717Y675517D01*
X599250Y676804D01*
Y678196D01*
X598717Y679483D01*
X597733Y680467D01*
X596446Y681000D01*
D02*
G37*
G36*
X332737Y661000D02*
X330763D01*
X328855Y660489D01*
X327145Y659501D01*
X325748Y658105D01*
X324761Y656395D01*
X324250Y654487D01*
Y652513D01*
X324761Y650605D01*
X325748Y648895D01*
X327145Y647498D01*
X328855Y646511D01*
X330763Y646000D01*
X332737D01*
X334645Y646511D01*
X336355Y647498D01*
X337752Y648895D01*
X338739Y650605D01*
X339250Y652513D01*
Y654487D01*
X338739Y656395D01*
X337752Y658105D01*
X336355Y659501D01*
X334645Y660489D01*
X332737Y661000D01*
D02*
G37*
G36*
X681446Y648000D02*
X680054D01*
X678767Y647467D01*
X677783Y646483D01*
X677250Y645196D01*
Y643804D01*
X677783Y642517D01*
X678767Y641533D01*
X680054Y641000D01*
X681446D01*
X682733Y641533D01*
X683717Y642517D01*
X684250Y643804D01*
Y645196D01*
X683717Y646483D01*
X682733Y647467D01*
X681446Y648000D01*
D02*
G37*
G36*
X729645D02*
X727855D01*
X726201Y647315D01*
X724935Y646049D01*
X724250Y644395D01*
Y642605D01*
X724935Y640951D01*
X726201Y639685D01*
X727855Y639000D01*
X729645D01*
X731299Y639685D01*
X732565Y640951D01*
X733250Y642605D01*
Y644395D01*
X732565Y646049D01*
X731299Y647315D01*
X729645Y648000D01*
D02*
G37*
G36*
X421487Y652250D02*
X419513D01*
X417605Y651739D01*
X415895Y650751D01*
X414498Y649355D01*
X413511Y647645D01*
X413000Y645737D01*
Y643763D01*
X413511Y641855D01*
X414498Y640145D01*
X415895Y638749D01*
X417605Y637761D01*
X419513Y637250D01*
X421487D01*
X423395Y637761D01*
X425105Y638749D01*
X426502Y640145D01*
X427489Y641855D01*
X428000Y643763D01*
Y645737D01*
X427489Y647645D01*
X426502Y649355D01*
X425105Y650751D01*
X423395Y651739D01*
X421487Y652250D01*
D02*
G37*
G36*
X595957Y643510D02*
X594564D01*
X593278Y642978D01*
X592293Y641993D01*
X591760Y640707D01*
Y639314D01*
X592293Y638028D01*
X593278Y637043D01*
X594564Y636510D01*
X595957D01*
X597243Y637043D01*
X598228Y638028D01*
X598760Y639314D01*
Y640707D01*
X598228Y641993D01*
X597243Y642978D01*
X595957Y643510D01*
D02*
G37*
G36*
X491737Y646000D02*
X489763D01*
X487855Y645489D01*
X486145Y644501D01*
X484748Y643105D01*
X483761Y641395D01*
X483250Y639487D01*
Y637513D01*
X483761Y635605D01*
X484748Y633895D01*
X486145Y632499D01*
X487855Y631511D01*
X489763Y631000D01*
X491737D01*
X493645Y631511D01*
X495355Y632499D01*
X496752Y633895D01*
X497739Y635605D01*
X498250Y637513D01*
Y639487D01*
X497739Y641395D01*
X496752Y643105D01*
X495355Y644501D01*
X493645Y645489D01*
X491737Y646000D01*
D02*
G37*
G36*
X649446Y637000D02*
X648054D01*
X646767Y636467D01*
X645783Y635483D01*
X645250Y634196D01*
Y632804D01*
X645783Y631517D01*
X646767Y630533D01*
X648054Y630000D01*
X649446D01*
X650733Y630533D01*
X651717Y631517D01*
X652250Y632804D01*
Y634196D01*
X651717Y635483D01*
X650733Y636467D01*
X649446Y637000D01*
D02*
G37*
G36*
X709158Y651722D02*
X706130D01*
X703205Y650939D01*
X700583Y649425D01*
X698441Y647284D01*
X696927Y644661D01*
X696144Y641737D01*
Y638708D01*
X696927Y635784D01*
X698441Y633161D01*
X700583Y631020D01*
X703205Y629506D01*
X706130Y628722D01*
X709158D01*
X712083Y629506D01*
X714705Y631020D01*
X716846Y633161D01*
X718360Y635784D01*
X719144Y638708D01*
Y641737D01*
X718360Y644661D01*
X716846Y647284D01*
X714705Y649425D01*
X712083Y650939D01*
X709158Y651722D01*
D02*
G37*
G36*
X265446Y632500D02*
X264054D01*
X262767Y631967D01*
X261783Y630983D01*
X261250Y629696D01*
Y628304D01*
X261783Y627017D01*
X262767Y626033D01*
X264054Y625500D01*
X265446D01*
X266733Y626033D01*
X267717Y627017D01*
X268250Y628304D01*
Y629696D01*
X267717Y630983D01*
X266733Y631967D01*
X265446Y632500D01*
D02*
G37*
G36*
X594737Y630000D02*
X592763D01*
X590855Y629489D01*
X589145Y628502D01*
X587748Y627105D01*
X586761Y625395D01*
X586250Y623487D01*
Y621513D01*
X586761Y619605D01*
X587748Y617895D01*
X589145Y616498D01*
X590855Y615511D01*
X592763Y615000D01*
X594737D01*
X596645Y615511D01*
X598355Y616498D01*
X599752Y617895D01*
X600739Y619605D01*
X601250Y621513D01*
Y623487D01*
X600739Y625395D01*
X599752Y627105D01*
X598355Y628502D01*
X596645Y629489D01*
X594737Y630000D01*
D02*
G37*
G36*
X248696Y621250D02*
X247304D01*
X246017Y620717D01*
X245033Y619733D01*
X244500Y618446D01*
Y617054D01*
X245033Y615767D01*
X246017Y614783D01*
X247304Y614250D01*
X248696D01*
X249983Y614783D01*
X250967Y615767D01*
X251500Y617054D01*
Y618446D01*
X250967Y619733D01*
X249983Y620717D01*
X248696Y621250D01*
D02*
G37*
G36*
X238446Y621000D02*
X237054D01*
X235767Y620467D01*
X234783Y619483D01*
X234250Y618196D01*
Y616804D01*
X234783Y615517D01*
X235767Y614533D01*
X237054Y614000D01*
X238446D01*
X239733Y614533D01*
X240717Y615517D01*
X241250Y616804D01*
Y618196D01*
X240717Y619483D01*
X239733Y620467D01*
X238446Y621000D01*
D02*
G37*
G36*
X158120Y616504D02*
X156728D01*
X155442Y615971D01*
X154457Y614987D01*
X153924Y613700D01*
Y612308D01*
X154457Y611022D01*
X155442Y610037D01*
X156728Y609504D01*
X158120D01*
X159407Y610037D01*
X160391Y611022D01*
X160924Y612308D01*
Y613700D01*
X160391Y614987D01*
X159407Y615971D01*
X158120Y616504D01*
D02*
G37*
G36*
X80764Y631000D02*
X77736D01*
X74811Y630216D01*
X72189Y628702D01*
X70048Y626561D01*
X68534Y623939D01*
X67750Y621014D01*
Y617986D01*
X68534Y615061D01*
X70048Y612439D01*
X72189Y610298D01*
X74811Y608784D01*
X77736Y608000D01*
X80764D01*
X83689Y608784D01*
X86311Y610298D01*
X88452Y612439D01*
X89966Y615061D01*
X90750Y617986D01*
Y621014D01*
X89966Y623939D01*
X88452Y626561D01*
X86311Y628702D01*
X83689Y630216D01*
X80764Y631000D01*
D02*
G37*
G36*
X202199Y613660D02*
X200807D01*
X199520Y613127D01*
X198536Y612142D01*
X198003Y610856D01*
Y609464D01*
X198536Y608177D01*
X199520Y607193D01*
X200807Y606660D01*
X202199D01*
X203486Y607193D01*
X204470Y608177D01*
X205003Y609464D01*
Y610856D01*
X204470Y612142D01*
X203486Y613127D01*
X202199Y613660D01*
D02*
G37*
G36*
X128696Y606250D02*
X127304D01*
X126017Y605717D01*
X125033Y604733D01*
X124500Y603446D01*
Y602054D01*
X125033Y600767D01*
X126017Y599783D01*
X127304Y599250D01*
X128696D01*
X129983Y599783D01*
X130967Y600767D01*
X131500Y602054D01*
Y603446D01*
X130967Y604733D01*
X129983Y605717D01*
X128696Y606250D01*
D02*
G37*
G36*
X692645Y608000D02*
X690855D01*
X689201Y607315D01*
X687935Y606049D01*
X687250Y604395D01*
Y602605D01*
X687935Y600951D01*
X689201Y599685D01*
X690855Y599000D01*
X692645D01*
X694299Y599685D01*
X695565Y600951D01*
X696250Y602605D01*
Y604395D01*
X695565Y606049D01*
X694299Y607315D01*
X692645Y608000D01*
D02*
G37*
G36*
X564446Y598000D02*
X563054D01*
X561767Y597467D01*
X560783Y596483D01*
X560250Y595196D01*
Y593804D01*
X560783Y592517D01*
X561767Y591533D01*
X563054Y591000D01*
X564446D01*
X565733Y591533D01*
X566717Y592517D01*
X567250Y593804D01*
Y595196D01*
X566717Y596483D01*
X565733Y597467D01*
X564446Y598000D01*
D02*
G37*
G36*
X239446Y596000D02*
X238054D01*
X236767Y595467D01*
X235783Y594483D01*
X235250Y593196D01*
Y591804D01*
X235783Y590517D01*
X236767Y589533D01*
X238054Y589000D01*
X239446D01*
X240733Y589533D01*
X241717Y590517D01*
X242250Y591804D01*
Y593196D01*
X241717Y594483D01*
X240733Y595467D01*
X239446Y596000D01*
D02*
G37*
G36*
X473844Y590000D02*
X471656D01*
X469635Y589163D01*
X468087Y587616D01*
X467250Y585594D01*
Y583406D01*
X468087Y581385D01*
X469635Y579837D01*
X471656Y579000D01*
X473844D01*
X475866Y579837D01*
X477413Y581385D01*
X478250Y583406D01*
Y585594D01*
X477413Y587616D01*
X475866Y589163D01*
X473844Y590000D01*
D02*
G37*
G36*
X552606D02*
X550894D01*
X549241Y589557D01*
X547759Y588701D01*
X546549Y587491D01*
X545693Y586009D01*
X545250Y584356D01*
Y582644D01*
X545693Y580991D01*
X546549Y579509D01*
X547759Y578299D01*
X549241Y577443D01*
X550894Y577000D01*
X552606D01*
X554259Y577443D01*
X555741Y578299D01*
X556951Y579509D01*
X557807Y580991D01*
X558250Y582644D01*
Y584356D01*
X557807Y586009D01*
X556951Y587491D01*
X555741Y588701D01*
X554259Y589557D01*
X552606Y590000D01*
D02*
G37*
G36*
X129464Y584592D02*
X128071D01*
X126785Y584059D01*
X125800Y583075D01*
X125267Y581788D01*
Y580396D01*
X125800Y579110D01*
X126785Y578125D01*
X128071Y577592D01*
X129464D01*
X130750Y578125D01*
X131356Y578731D01*
X132683Y578601D01*
X132815Y578530D01*
X132820Y578517D01*
X133804Y577533D01*
X135091Y577000D01*
X136483D01*
X137770Y577533D01*
X138754Y578517D01*
X139287Y579804D01*
Y581196D01*
X138754Y582483D01*
X137770Y583467D01*
X136483Y584000D01*
X135091D01*
X133804Y583467D01*
X133198Y582861D01*
X131872Y582991D01*
X131740Y583062D01*
X131735Y583075D01*
X130750Y584059D01*
X129464Y584592D01*
D02*
G37*
G36*
X210645Y581000D02*
X208855D01*
X207201Y580315D01*
X205935Y579049D01*
X205250Y577395D01*
Y575605D01*
X205935Y573951D01*
X207201Y572685D01*
X208855Y572000D01*
X210645D01*
X212299Y572685D01*
X213565Y573951D01*
X214250Y575605D01*
Y577395D01*
X213565Y579049D01*
X212299Y580315D01*
X210645Y581000D01*
D02*
G37*
G36*
X270446Y576000D02*
X269054D01*
X267767Y575467D01*
X266783Y574483D01*
X266250Y573196D01*
Y571804D01*
X266783Y570517D01*
X267767Y569533D01*
X269054Y569000D01*
X270446D01*
X271733Y569533D01*
X272717Y570517D01*
X273250Y571804D01*
Y573196D01*
X272717Y574483D01*
X271733Y575467D01*
X270446Y576000D01*
D02*
G37*
G36*
X254446Y579000D02*
X253054D01*
X251767Y578467D01*
X250783Y577483D01*
X250250Y576196D01*
Y574804D01*
X250783Y573517D01*
X251767Y572533D01*
X253054Y572000D01*
X254208D01*
X254796Y571546D01*
X255250Y570958D01*
Y569804D01*
X255783Y568517D01*
X256767Y567533D01*
X258054Y567000D01*
X259446D01*
X260733Y567533D01*
X261717Y568517D01*
X262250Y569804D01*
Y571196D01*
X261717Y572483D01*
X260733Y573467D01*
X259446Y574000D01*
X258292D01*
X257704Y574454D01*
X257250Y575042D01*
Y576196D01*
X256717Y577483D01*
X255733Y578467D01*
X254446Y579000D01*
D02*
G37*
G36*
X757516Y582316D02*
X754751D01*
X752081Y581600D01*
X749686Y580218D01*
X747731Y578263D01*
X746349Y575868D01*
X745633Y573198D01*
Y570433D01*
X746349Y567763D01*
X747731Y565369D01*
X749686Y563414D01*
X752081Y562031D01*
X754751Y561316D01*
X757516D01*
X760186Y562031D01*
X762580Y563414D01*
X764536Y565369D01*
X765918Y567763D01*
X766633Y570433D01*
Y573198D01*
X765918Y575868D01*
X764536Y578263D01*
X762580Y580218D01*
X760186Y581600D01*
X757516Y582316D01*
D02*
G37*
G36*
X667957Y564510D02*
X666564D01*
X665278Y563978D01*
X664293Y562993D01*
X663760Y561707D01*
Y560314D01*
X664293Y559028D01*
X665278Y558043D01*
X666564Y557510D01*
X667957D01*
X669243Y558043D01*
X670228Y559028D01*
X670760Y560314D01*
Y561707D01*
X670228Y562993D01*
X669243Y563978D01*
X667957Y564510D01*
D02*
G37*
G36*
X68748Y578313D02*
X65984D01*
X63313Y577597D01*
X60919Y576215D01*
X58964Y574260D01*
X57582Y571866D01*
X56866Y569195D01*
Y566431D01*
X57582Y563760D01*
X58964Y561366D01*
X60919Y559411D01*
X63313Y558029D01*
X65984Y557313D01*
X68748D01*
X71419Y558029D01*
X73813Y559411D01*
X75768Y561366D01*
X77151Y563760D01*
X77866Y566431D01*
Y569195D01*
X77151Y571866D01*
X75768Y574260D01*
X73813Y576215D01*
X71419Y577597D01*
X68748Y578313D01*
D02*
G37*
G36*
X249446Y563000D02*
X248054D01*
X246767Y562467D01*
X245783Y561483D01*
X245250Y560196D01*
Y558804D01*
X245783Y557517D01*
X246767Y556533D01*
X248054Y556000D01*
X249446D01*
X250733Y556533D01*
X251717Y557517D01*
X252250Y558804D01*
Y560196D01*
X251717Y561483D01*
X250733Y562467D01*
X249446Y563000D01*
D02*
G37*
G36*
X265446Y562000D02*
X264054D01*
X262767Y561467D01*
X261783Y560483D01*
X261250Y559196D01*
Y557804D01*
X261783Y556517D01*
X262767Y555533D01*
X264054Y555000D01*
X265446D01*
X266733Y555533D01*
X267717Y556517D01*
X268250Y557804D01*
Y559196D01*
X267717Y560483D01*
X266733Y561467D01*
X265446Y562000D01*
D02*
G37*
G36*
X422595Y569142D02*
X420620D01*
X418713Y568631D01*
X417003Y567644D01*
X415606Y566247D01*
X414619Y564537D01*
X414108Y562630D01*
Y560655D01*
X414619Y558747D01*
X415606Y557037D01*
X417003Y555641D01*
X418713Y554653D01*
X420620Y554142D01*
X422595D01*
X424503Y554653D01*
X426213Y555641D01*
X427609Y557037D01*
X428597Y558747D01*
X429108Y560655D01*
Y562630D01*
X428597Y564537D01*
X427609Y566247D01*
X426213Y567644D01*
X424503Y568631D01*
X422595Y569142D01*
D02*
G37*
G36*
X652737Y569000D02*
X650763D01*
X648855Y568489D01*
X647145Y567501D01*
X645749Y566105D01*
X644761Y564395D01*
X644250Y562487D01*
Y560513D01*
X644761Y558605D01*
X645749Y556895D01*
X647145Y555499D01*
X648855Y554511D01*
X650763Y554000D01*
X652737D01*
X654645Y554511D01*
X656355Y555499D01*
X657751Y556895D01*
X658739Y558605D01*
X659250Y560513D01*
Y562487D01*
X658739Y564395D01*
X657751Y566105D01*
X656355Y567501D01*
X654645Y568489D01*
X652737Y569000D01*
D02*
G37*
G36*
X208446Y567000D02*
X207054D01*
X205767Y566467D01*
X204783Y565483D01*
X204250Y564196D01*
Y562804D01*
X204783Y561517D01*
X205669Y560631D01*
X205769Y560507D01*
X205829Y559132D01*
X205142Y558445D01*
X204457Y556791D01*
Y555001D01*
X205142Y553347D01*
X206408Y552081D01*
X208062Y551396D01*
X209852D01*
X211506Y552081D01*
X212772Y553347D01*
X213457Y555001D01*
Y556791D01*
X212772Y558445D01*
X211506Y559711D01*
X210941Y559945D01*
X210643Y561443D01*
X210717Y561517D01*
X211250Y562804D01*
Y564196D01*
X210717Y565483D01*
X209733Y566467D01*
X208446Y567000D01*
D02*
G37*
G36*
X236087Y556359D02*
X234695D01*
X233409Y555826D01*
X232424Y554841D01*
X231891Y553555D01*
Y552163D01*
X232424Y550876D01*
X233409Y549892D01*
X234695Y549359D01*
X236087D01*
X237374Y549892D01*
X238358Y550876D01*
X238891Y552163D01*
Y553555D01*
X238358Y554841D01*
X237374Y555826D01*
X236087Y556359D01*
D02*
G37*
G36*
X136446Y556000D02*
X135054D01*
X133767Y555467D01*
X132783Y554483D01*
X132250Y553196D01*
Y552042D01*
X131796Y551454D01*
X131208Y551000D01*
X130054D01*
X128767Y550467D01*
X127783Y549483D01*
X127250Y548196D01*
Y546804D01*
X127783Y545517D01*
X128767Y544533D01*
X130054Y544000D01*
X131446D01*
X132733Y544533D01*
X133717Y545517D01*
X134250Y546804D01*
Y547958D01*
X134704Y548546D01*
X135292Y549000D01*
X136446D01*
X137733Y549533D01*
X138717Y550517D01*
X139250Y551804D01*
Y553196D01*
X138717Y554483D01*
X137733Y555467D01*
X136446Y556000D01*
D02*
G37*
G36*
X551446Y548000D02*
X550054D01*
X548767Y547467D01*
X547783Y546483D01*
X547250Y545196D01*
Y543804D01*
X547783Y542517D01*
X548767Y541533D01*
X550054Y541000D01*
X551446D01*
X552733Y541533D01*
X553717Y542517D01*
X554250Y543804D01*
Y545196D01*
X553717Y546483D01*
X552733Y547467D01*
X551446Y548000D01*
D02*
G37*
G36*
X644446Y547000D02*
X643054D01*
X641767Y546467D01*
X640783Y545483D01*
X640250Y544196D01*
Y542804D01*
X640783Y541517D01*
X641767Y540533D01*
X643054Y540000D01*
X644446D01*
X645733Y540533D01*
X646717Y541517D01*
X647250Y542804D01*
Y544196D01*
X646717Y545483D01*
X645733Y546467D01*
X644446Y547000D01*
D02*
G37*
G36*
X123305Y545141D02*
X121913D01*
X120626Y544608D01*
X119642Y543624D01*
X119109Y542337D01*
Y540945D01*
X119642Y539659D01*
X120626Y538674D01*
X121913Y538141D01*
X123305D01*
X124591Y538674D01*
X125576Y539659D01*
X126109Y540945D01*
Y542337D01*
X125576Y543624D01*
X124591Y544608D01*
X123305Y545141D01*
D02*
G37*
G36*
X622446Y544000D02*
X621054D01*
X619767Y543467D01*
X618783Y542483D01*
X618250Y541196D01*
Y539804D01*
X618783Y538517D01*
X619767Y537533D01*
X621054Y537000D01*
X622446D01*
X623733Y537533D01*
X624717Y538517D01*
X625250Y539804D01*
Y541196D01*
X624717Y542483D01*
X623733Y543467D01*
X622446Y544000D01*
D02*
G37*
G36*
X249464Y544181D02*
X247674D01*
X246020Y543496D01*
X244755Y542230D01*
X244069Y540576D01*
Y538786D01*
X244755Y537132D01*
X246020Y535866D01*
X247674Y535181D01*
X249464D01*
X251118Y535866D01*
X252384Y537132D01*
X253069Y538786D01*
Y540576D01*
X252384Y542230D01*
X251118Y543496D01*
X249464Y544181D01*
D02*
G37*
G36*
X130446Y538000D02*
X129054D01*
X127767Y537467D01*
X126783Y536483D01*
X126250Y535196D01*
Y533804D01*
X126783Y532517D01*
X127767Y531533D01*
X129054Y531000D01*
X130446D01*
X131733Y531533D01*
X132717Y532517D01*
X133250Y533804D01*
Y535196D01*
X132717Y536483D01*
X131733Y537467D01*
X130446Y538000D01*
D02*
G37*
G36*
X763895Y550958D02*
X761131D01*
X758460Y550243D01*
X756066Y548860D01*
X754111Y546905D01*
X752729Y544511D01*
X752013Y541840D01*
Y539076D01*
X752729Y536405D01*
X754111Y534011D01*
X756066Y532056D01*
X758460Y530674D01*
X761131Y529958D01*
X763895D01*
X766566Y530674D01*
X768960Y532056D01*
X770915Y534011D01*
X772298Y536405D01*
X773013Y539076D01*
Y541840D01*
X772298Y544511D01*
X770915Y546905D01*
X768960Y548860D01*
X766566Y550243D01*
X763895Y550958D01*
D02*
G37*
G36*
X605321Y538250D02*
X603530D01*
X601876Y537565D01*
X600611Y536299D01*
X599925Y534645D01*
Y532855D01*
X600611Y531201D01*
X601876Y529935D01*
X603530Y529250D01*
X605321D01*
X606974Y529935D01*
X608240Y531201D01*
X608926Y532855D01*
Y534645D01*
X608240Y536299D01*
X606974Y537565D01*
X605321Y538250D01*
D02*
G37*
G36*
X62369Y546955D02*
X59604D01*
X56933Y546240D01*
X54539Y544857D01*
X52584Y542903D01*
X51202Y540508D01*
X50486Y537838D01*
Y535073D01*
X51202Y532403D01*
X52584Y530008D01*
X54539Y528053D01*
X56933Y526671D01*
X59604Y525956D01*
X62369D01*
X65039Y526671D01*
X67433Y528053D01*
X69388Y530008D01*
X70771Y532403D01*
X71486Y535073D01*
Y537838D01*
X70771Y540508D01*
X69388Y542903D01*
X67433Y544857D01*
X65039Y546240D01*
X62369Y546955D01*
D02*
G37*
G36*
X160543Y545000D02*
X159150D01*
X157864Y544467D01*
X156879Y543483D01*
X156346Y542196D01*
Y540804D01*
X156879Y539517D01*
X157645Y538751D01*
X157773Y538000D01*
X157645Y537249D01*
X156879Y536483D01*
X156346Y535196D01*
Y533804D01*
X156879Y532517D01*
X156870Y530730D01*
X156783Y530643D01*
X156250Y529356D01*
Y527964D01*
X156783Y526677D01*
X157767Y525693D01*
X159054Y525160D01*
X160446D01*
X161732Y525693D01*
X162717Y526677D01*
X163250Y527964D01*
Y529356D01*
X162717Y530643D01*
X162726Y532430D01*
X162813Y532517D01*
X163346Y533804D01*
Y535196D01*
X162813Y536483D01*
X162047Y537249D01*
X161919Y538000D01*
X162047Y538751D01*
X162813Y539517D01*
X163346Y540804D01*
Y542196D01*
X162813Y543483D01*
X161829Y544467D01*
X160543Y545000D01*
D02*
G37*
G36*
X659446Y531000D02*
X658054D01*
X656767Y530467D01*
X655783Y529483D01*
X655250Y528196D01*
Y526804D01*
X655783Y525517D01*
X656767Y524533D01*
X658054Y524000D01*
X659446D01*
X660733Y524533D01*
X661717Y525517D01*
X662250Y526804D01*
Y528196D01*
X661717Y529483D01*
X660733Y530467D01*
X659446Y531000D01*
D02*
G37*
G36*
X318645Y532000D02*
X316855D01*
X315201Y531315D01*
X313935Y530049D01*
X313250Y528395D01*
Y526605D01*
X313935Y524951D01*
X315201Y523685D01*
X316855Y523000D01*
X318645D01*
X320299Y523685D01*
X321565Y524951D01*
X322250Y526605D01*
Y528395D01*
X321565Y530049D01*
X320299Y531315D01*
X318645Y532000D01*
D02*
G37*
G36*
X259645Y529000D02*
X257855D01*
X256201Y528315D01*
X254935Y527049D01*
X254250Y525395D01*
Y523605D01*
X254499Y523003D01*
X253527Y522031D01*
X252395Y522500D01*
X250605D01*
X248951Y521815D01*
X247685Y520549D01*
X247000Y518895D01*
Y517105D01*
X247685Y515451D01*
X248951Y514185D01*
X250605Y513500D01*
X252395D01*
X254049Y514185D01*
X255315Y515451D01*
X256000Y517105D01*
Y518895D01*
X255751Y519497D01*
X256723Y520469D01*
X257855Y520000D01*
X259645D01*
X261299Y520685D01*
X262565Y521951D01*
X263250Y523605D01*
Y525395D01*
X262565Y527049D01*
X261299Y528315D01*
X259645Y529000D01*
D02*
G37*
G36*
X160543Y518172D02*
X159150D01*
X157864Y517639D01*
X156879Y516655D01*
X156346Y515368D01*
Y513976D01*
X156879Y512690D01*
X157864Y511705D01*
X159150Y511172D01*
X160543D01*
X161829Y511705D01*
X162813Y512690D01*
X163346Y513976D01*
Y515368D01*
X162813Y516655D01*
X161829Y517639D01*
X160543Y518172D01*
D02*
G37*
G36*
X389645Y520000D02*
X387855D01*
X386201Y519315D01*
X384935Y518049D01*
X384250Y516395D01*
Y514605D01*
X384935Y512951D01*
X386201Y511685D01*
X387855Y511000D01*
X389645D01*
X391299Y511685D01*
X392565Y512951D01*
X393250Y514605D01*
Y516395D01*
X392565Y518049D01*
X391299Y519315D01*
X389645Y520000D01*
D02*
G37*
G36*
X337446Y518000D02*
X336054D01*
X334767Y517467D01*
X333783Y516483D01*
X333250Y515196D01*
Y513804D01*
X333783Y512517D01*
X334767Y511533D01*
X336054Y511000D01*
X337446D01*
X338733Y511533D01*
X339717Y512517D01*
X340250Y513804D01*
Y515196D01*
X339717Y516483D01*
X338733Y517467D01*
X337446Y518000D01*
D02*
G37*
G36*
X585557Y517000D02*
X584164D01*
X582878Y516467D01*
X581893Y515483D01*
X581360Y514196D01*
Y512804D01*
X581893Y511517D01*
X582878Y510533D01*
X584164Y510000D01*
X585557D01*
X586843Y510533D01*
X587828Y511517D01*
X588360Y512804D01*
Y514196D01*
X587828Y515483D01*
X586843Y516467D01*
X585557Y517000D01*
D02*
G37*
G36*
X237645Y515500D02*
X235855D01*
X234201Y514815D01*
X232935Y513549D01*
X232250Y511895D01*
Y510105D01*
X232935Y508451D01*
X234201Y507185D01*
X235855Y506500D01*
X237645D01*
X239299Y507185D01*
X240565Y508451D01*
X241250Y510105D01*
Y511895D01*
X240565Y513549D01*
X239299Y514815D01*
X237645Y515500D01*
D02*
G37*
G36*
X671446Y508000D02*
X670054D01*
X668767Y507467D01*
X667783Y506483D01*
X667250Y505196D01*
Y503804D01*
X667783Y502517D01*
X668767Y501533D01*
X670054Y501000D01*
X671446D01*
X672733Y501533D01*
X673717Y502517D01*
X674250Y503804D01*
Y505196D01*
X673717Y506483D01*
X672733Y507467D01*
X671446Y508000D01*
D02*
G37*
G36*
X769877Y521560D02*
X767112D01*
X764441Y520845D01*
X762047Y519462D01*
X760092Y517508D01*
X758710Y515113D01*
X757994Y512443D01*
Y509678D01*
X758710Y507007D01*
X760092Y504613D01*
X762047Y502658D01*
X764441Y501276D01*
X767112Y500560D01*
X769877D01*
X772547Y501276D01*
X774941Y502658D01*
X776896Y504613D01*
X778279Y507007D01*
X778994Y509678D01*
Y512443D01*
X778279Y515113D01*
X776896Y517508D01*
X774941Y519462D01*
X772547Y520845D01*
X769877Y521560D01*
D02*
G37*
G36*
X298645Y509000D02*
X296855D01*
X295201Y508315D01*
X293935Y507049D01*
X293250Y505395D01*
Y503605D01*
X293935Y501951D01*
X295201Y500685D01*
X296855Y500000D01*
X298645D01*
X300299Y500685D01*
X301565Y501951D01*
X302250Y503605D01*
Y505395D01*
X301565Y507049D01*
X300299Y508315D01*
X298645Y509000D01*
D02*
G37*
G36*
X453696Y506054D02*
X452304D01*
X451017Y505521D01*
X450033Y504536D01*
X449500Y503250D01*
Y501858D01*
X450033Y500571D01*
X451017Y499587D01*
X452304Y499054D01*
X453696D01*
X454983Y499587D01*
X455967Y500571D01*
X456500Y501858D01*
Y503250D01*
X455967Y504536D01*
X454983Y505521D01*
X453696Y506054D01*
D02*
G37*
G36*
X588446Y506000D02*
X587054D01*
X585767Y505467D01*
X584783Y504483D01*
X584250Y503196D01*
Y501804D01*
X584783Y500517D01*
X585767Y499533D01*
X587054Y499000D01*
X588446D01*
X589733Y499533D01*
X590717Y500517D01*
X591250Y501804D01*
Y503196D01*
X590717Y504483D01*
X589733Y505467D01*
X588446Y506000D01*
D02*
G37*
G36*
X126446D02*
X125054D01*
X123767Y505467D01*
X122783Y504483D01*
X122250Y503196D01*
Y501804D01*
X122783Y500517D01*
X123767Y499533D01*
X125054Y499000D01*
X126446D01*
X127733Y499533D01*
X128717Y500517D01*
X129250Y501804D01*
Y503196D01*
X128717Y504483D01*
X127733Y505467D01*
X126446Y506000D01*
D02*
G37*
G36*
X135700Y505000D02*
X134308D01*
X133022Y504467D01*
X132037Y503483D01*
X131504Y502196D01*
Y500804D01*
X132037Y499517D01*
X133022Y498533D01*
X134308Y498000D01*
X135700D01*
X136987Y498533D01*
X137971Y499517D01*
X138504Y500804D01*
Y502196D01*
X137971Y503483D01*
X136987Y504467D01*
X135700Y505000D01*
D02*
G37*
G36*
X403757Y504250D02*
X402365D01*
X401078Y503717D01*
X400093Y502733D01*
X399561Y501446D01*
Y500054D01*
X400093Y498767D01*
X401078Y497783D01*
X402365Y497250D01*
X403757D01*
X405043Y497783D01*
X406028Y498767D01*
X406561Y500054D01*
Y501446D01*
X406028Y502733D01*
X405043Y503717D01*
X403757Y504250D01*
D02*
G37*
G36*
X236446Y504000D02*
X235054D01*
X233767Y503467D01*
X232783Y502483D01*
X232250Y501196D01*
Y499804D01*
X232783Y498517D01*
X233767Y497533D01*
X235054Y497000D01*
X236446D01*
X237733Y497533D01*
X238717Y498517D01*
X239250Y499804D01*
Y501196D01*
X238717Y502483D01*
X237733Y503467D01*
X236446Y504000D01*
D02*
G37*
G36*
X612446Y508000D02*
X611054D01*
X609767Y507467D01*
X608783Y506483D01*
X608250Y505196D01*
Y503804D01*
X608783Y502517D01*
X607958Y501546D01*
X607767Y501467D01*
X606783Y500483D01*
X606250Y499196D01*
Y497804D01*
X606783Y496517D01*
X607767Y495533D01*
X609054Y495000D01*
X610446D01*
X611733Y495533D01*
X612717Y496517D01*
X613250Y497804D01*
Y499196D01*
X612717Y500483D01*
X613542Y501454D01*
X613733Y501533D01*
X613877Y501677D01*
X614685Y501346D01*
X615050Y501054D01*
Y499804D01*
X615583Y498517D01*
X616567Y497533D01*
X617854Y497000D01*
X619246D01*
X620533Y497533D01*
X621517Y498517D01*
X622050Y499804D01*
Y501196D01*
X621517Y502483D01*
X620533Y503467D01*
X619246Y504000D01*
X617854D01*
X616567Y503467D01*
X616423Y503323D01*
X615615Y503654D01*
X615250Y503946D01*
Y505196D01*
X614717Y506483D01*
X613733Y507467D01*
X612446Y508000D01*
D02*
G37*
G36*
X56736Y517489D02*
X53971D01*
X51300Y516773D01*
X48906Y515391D01*
X46951Y513436D01*
X45569Y511042D01*
X44853Y508371D01*
Y505607D01*
X45569Y502936D01*
X46951Y500542D01*
X48906Y498587D01*
X51300Y497205D01*
X53971Y496489D01*
X56736D01*
X59406Y497205D01*
X61800Y498587D01*
X63755Y500542D01*
X65138Y502936D01*
X65853Y505607D01*
Y508371D01*
X65138Y511042D01*
X63755Y513436D01*
X61800Y515391D01*
X59406Y516773D01*
X56736Y517489D01*
D02*
G37*
G36*
X636446Y503302D02*
X635054D01*
X633767Y502769D01*
X632783Y501785D01*
X632250Y500498D01*
Y499106D01*
X632783Y497820D01*
X633767Y496835D01*
X635054Y496302D01*
X636446D01*
X637733Y496835D01*
X638717Y497820D01*
X639250Y499106D01*
Y500498D01*
X638717Y501785D01*
X637733Y502769D01*
X636446Y503302D01*
D02*
G37*
G36*
X315446Y501000D02*
X314054D01*
X312767Y500467D01*
X311783Y499483D01*
X311250Y498196D01*
Y496804D01*
X311783Y495517D01*
X312767Y494533D01*
X314054Y494000D01*
X315446D01*
X316733Y494533D01*
X317717Y495517D01*
X318250Y496804D01*
Y498196D01*
X317717Y499483D01*
X316733Y500467D01*
X315446Y501000D01*
D02*
G37*
G36*
X198382Y502700D02*
X196990D01*
X195704Y502167D01*
X194719Y501183D01*
X194186Y499896D01*
Y498504D01*
X194719Y497217D01*
X195704Y496233D01*
X196990Y495700D01*
X198382D01*
X199669Y496233D01*
X200056Y496620D01*
X200117Y496629D01*
X201480Y496248D01*
X201783Y495517D01*
X202767Y494533D01*
X204054Y494000D01*
X205446D01*
X206733Y494533D01*
X207717Y495517D01*
X208250Y496804D01*
Y498196D01*
X207717Y499483D01*
X206733Y500467D01*
X205446Y501000D01*
X204054D01*
X202767Y500467D01*
X202380Y500080D01*
X202319Y500070D01*
X200956Y500452D01*
X200653Y501183D01*
X199669Y502167D01*
X198382Y502700D01*
D02*
G37*
G36*
X494446Y499813D02*
X493054D01*
X491767Y499280D01*
X490783Y498295D01*
X490250Y497009D01*
Y495616D01*
X490783Y494330D01*
X491767Y493345D01*
X493054Y492812D01*
X494446D01*
X495733Y493345D01*
X496717Y494330D01*
X497250Y495616D01*
Y497009D01*
X496717Y498295D01*
X495733Y499280D01*
X494446Y499813D01*
D02*
G37*
G36*
X389645Y501000D02*
X387855D01*
X386201Y500315D01*
X384935Y499049D01*
X384250Y497395D01*
Y495605D01*
X384935Y493951D01*
X386201Y492685D01*
X387855Y492000D01*
X389645D01*
X391299Y492685D01*
X392565Y493951D01*
X393250Y495605D01*
Y497395D01*
X392565Y499049D01*
X391299Y500315D01*
X389645Y501000D01*
D02*
G37*
G36*
X92458Y499000D02*
X91066D01*
X89779Y498467D01*
X88795Y497483D01*
X88262Y496196D01*
Y494804D01*
X88795Y493517D01*
X89779Y492533D01*
X91066Y492000D01*
X92458D01*
X93745Y492533D01*
X94729Y493517D01*
X95262Y494804D01*
Y496196D01*
X94729Y497483D01*
X93745Y498467D01*
X92458Y499000D01*
D02*
G37*
G36*
X116446Y505000D02*
X115054D01*
X113767Y504467D01*
X112783Y503483D01*
X112250Y502196D01*
Y500804D01*
X112783Y499517D01*
X113767Y498533D01*
X114255Y498331D01*
X114365Y498095D01*
X114456Y496873D01*
X113799Y496216D01*
X113266Y494930D01*
Y493538D01*
X113799Y492251D01*
X114784Y491267D01*
X116070Y490734D01*
X117463D01*
X118749Y491267D01*
X119733Y492251D01*
X120266Y493538D01*
Y494930D01*
X119733Y496216D01*
X118749Y497201D01*
X118262Y497403D01*
X118151Y497639D01*
X118060Y498861D01*
X118717Y499517D01*
X119250Y500804D01*
Y502196D01*
X118717Y503483D01*
X117733Y504467D01*
X116446Y505000D01*
D02*
G37*
G36*
X527606Y501000D02*
X525894D01*
X524241Y500557D01*
X522759Y499701D01*
X521549Y498491D01*
X520693Y497009D01*
X520250Y495356D01*
Y493644D01*
X520693Y491991D01*
X521549Y490509D01*
X522759Y489299D01*
X524241Y488443D01*
X525894Y488000D01*
X527606D01*
X529259Y488443D01*
X530741Y489299D01*
X531951Y490509D01*
X532807Y491991D01*
X533250Y493644D01*
Y495356D01*
X532807Y497009D01*
X531951Y498491D01*
X530741Y499701D01*
X529259Y500557D01*
X527606Y501000D01*
D02*
G37*
G36*
X672446Y490000D02*
X671054D01*
X669767Y489467D01*
X668783Y488483D01*
X668250Y487196D01*
Y485804D01*
X668783Y484517D01*
X669767Y483533D01*
X671054Y483000D01*
X672446D01*
X673733Y483533D01*
X674717Y484517D01*
X675250Y485804D01*
Y487196D01*
X674717Y488483D01*
X673733Y489467D01*
X672446Y490000D01*
D02*
G37*
G36*
X122446Y489000D02*
X121054D01*
X119767Y488467D01*
X118783Y487483D01*
X118250Y486196D01*
Y484804D01*
X118783Y483517D01*
X119767Y482533D01*
X121054Y482000D01*
X122446D01*
X123733Y482533D01*
X124717Y483517D01*
X125250Y484804D01*
Y486196D01*
X124717Y487483D01*
X123733Y488467D01*
X122446Y489000D01*
D02*
G37*
G36*
X418507Y480312D02*
X408681D01*
X408582Y480292D01*
X408481Y480302D01*
X398703Y479339D01*
X398606Y479309D01*
X398505D01*
X388869Y477393D01*
X388775Y477354D01*
X388675Y477344D01*
X379272Y474492D01*
X379183Y474444D01*
X379084Y474424D01*
X370006Y470664D01*
X369922Y470608D01*
X369826Y470579D01*
X361160Y465947D01*
X361082Y465883D01*
X360989Y465844D01*
X352819Y460386D01*
X352748Y460314D01*
X352658Y460266D01*
X345063Y454033D01*
X344999Y453955D01*
X344915Y453899D01*
X337967Y446951D01*
X337911Y446867D01*
X337833Y446803D01*
X331600Y439208D01*
X331552Y439119D01*
X331481Y439047D01*
X326022Y430878D01*
X325983Y430784D01*
X325919Y430706D01*
X321287Y422041D01*
X321258Y421944D01*
X321202Y421860D01*
X317442Y412782D01*
X317422Y412683D01*
X317374Y412594D01*
X314522Y403192D01*
X314512Y403091D01*
X314474Y402998D01*
X312557Y393361D01*
Y393260D01*
X312528Y393163D01*
X311565Y383385D01*
X311574Y383284D01*
X311555Y383185D01*
Y373360D01*
X311574Y373260D01*
X311565Y373160D01*
X312528Y363382D01*
X312557Y363285D01*
Y363184D01*
X314474Y353547D01*
X314512Y353454D01*
X314522Y353353D01*
X317374Y343951D01*
X317422Y343862D01*
X317442Y343763D01*
X321202Y334685D01*
X321258Y334601D01*
X321287Y334504D01*
X325919Y325839D01*
X325983Y325761D01*
X326022Y325667D01*
X331481Y317498D01*
X331552Y317426D01*
X331600Y317337D01*
X337833Y309742D01*
X337911Y309678D01*
X337967Y309594D01*
X344915Y302646D01*
X344999Y302590D01*
X345063Y302512D01*
X352658Y296278D01*
X352748Y296231D01*
X352819Y296159D01*
X360989Y290701D01*
X361082Y290662D01*
X361160Y290598D01*
X369826Y285966D01*
X369922Y285937D01*
X370006Y285881D01*
X379084Y282120D01*
X379183Y282101D01*
X379272Y282053D01*
X388675Y279201D01*
X388775Y279191D01*
X388869Y279152D01*
X398505Y277236D01*
X398606D01*
X398703Y277206D01*
X408481Y276243D01*
X408582Y276253D01*
X408681Y276233D01*
X418507D01*
X418606Y276253D01*
X418706Y276243D01*
X428484Y277206D01*
X428581Y277236D01*
X428682D01*
X438319Y279152D01*
X438412Y279191D01*
X438513Y279201D01*
X447915Y282053D01*
X448005Y282101D01*
X448104Y282120D01*
X457181Y285881D01*
X457265Y285937D01*
X457362Y285966D01*
X466027Y290598D01*
X466105Y290662D01*
X466199Y290701D01*
X474369Y296159D01*
X474440Y296231D01*
X474529Y296278D01*
X482124Y302512D01*
X482188Y302590D01*
X482273Y302646D01*
X489220Y309594D01*
X489277Y309678D01*
X489355Y309742D01*
X495588Y317337D01*
X495635Y317426D01*
X495707Y317498D01*
X501166Y325667D01*
X501204Y325761D01*
X501269Y325839D01*
X505900Y334504D01*
X505929Y334601D01*
X505986Y334685D01*
X509746Y343763D01*
X509766Y343862D01*
X509813Y343951D01*
X512665Y353353D01*
X512675Y353454D01*
X512714Y353547D01*
X514631Y363184D01*
Y363285D01*
X514660Y363382D01*
X515623Y373160D01*
X515613Y373260D01*
X515633Y373360D01*
Y383185D01*
X515613Y383284D01*
X515623Y383385D01*
X514660Y393163D01*
X514631Y393260D01*
Y393361D01*
X512714Y402998D01*
X512675Y403091D01*
X512665Y403192D01*
X509813Y412594D01*
X509766Y412683D01*
X509746Y412782D01*
X505986Y421860D01*
X505929Y421944D01*
X505900Y422041D01*
X501269Y430706D01*
X501204Y430784D01*
X501166Y430878D01*
X495707Y439047D01*
X495635Y439119D01*
X495588Y439208D01*
X489355Y446803D01*
X489276Y446867D01*
X489220Y446951D01*
X482273Y453899D01*
X482188Y453955D01*
X482124Y454033D01*
X474529Y460266D01*
X474440Y460314D01*
X474369Y460386D01*
X466199Y465844D01*
X466105Y465883D01*
X466027Y465947D01*
X457362Y470579D01*
X457265Y470608D01*
X457181Y470664D01*
X448104Y474424D01*
X448005Y474444D01*
X447915Y474492D01*
X438513Y477344D01*
X438412Y477354D01*
X438319Y477393D01*
X428682Y479309D01*
X428581D01*
X428484Y479339D01*
X418706Y480302D01*
X418606Y480292D01*
X418507Y480312D01*
D02*
G37*
G36*
X133294Y495130D02*
X131901D01*
X130615Y494597D01*
X129630Y493613D01*
X129098Y492326D01*
Y490934D01*
X129582Y489765D01*
X129615Y489550D01*
X129391Y488091D01*
X128783Y487483D01*
X128250Y486196D01*
Y484804D01*
X128783Y483517D01*
X129767Y482533D01*
X129904Y481847D01*
X129544Y481487D01*
X129011Y480201D01*
Y478808D01*
X129544Y477522D01*
X130528Y476537D01*
X131814Y476004D01*
X133207D01*
X134493Y476537D01*
X135478Y477522D01*
X136011Y478808D01*
Y480201D01*
X135478Y481487D01*
X134493Y482471D01*
X134357Y483157D01*
X134717Y483517D01*
X135250Y484804D01*
Y486196D01*
X134766Y487365D01*
X134732Y487580D01*
X134957Y489039D01*
X135565Y489647D01*
X136098Y490934D01*
Y492326D01*
X135565Y493613D01*
X134580Y494597D01*
X133294Y495130D01*
D02*
G37*
G36*
X774940Y496670D02*
X772176D01*
X769505Y495955D01*
X767111Y494572D01*
X765156Y492617D01*
X763774Y490223D01*
X763058Y487553D01*
Y484788D01*
X763774Y482117D01*
X765156Y479723D01*
X767111Y477768D01*
X769505Y476386D01*
X772176Y475670D01*
X774940D01*
X777611Y476386D01*
X780005Y477768D01*
X781960Y479723D01*
X783343Y482117D01*
X784058Y484788D01*
Y487553D01*
X783343Y490223D01*
X781960Y492617D01*
X780005Y494572D01*
X777611Y495955D01*
X774940Y496670D01*
D02*
G37*
G36*
X207819Y482630D02*
X206427D01*
X205140Y482098D01*
X204156Y481113D01*
X203623Y479827D01*
Y478434D01*
X204156Y477148D01*
X205140Y476163D01*
X206427Y475630D01*
X207819D01*
X209106Y476163D01*
X210090Y477148D01*
X210623Y478434D01*
Y479827D01*
X210090Y481113D01*
X209106Y482098D01*
X207819Y482630D01*
D02*
G37*
G36*
X195796Y480650D02*
X194404D01*
X193117Y480117D01*
X192133Y479133D01*
X191600Y477846D01*
Y476454D01*
X192133Y475168D01*
X193117Y474183D01*
X194404Y473650D01*
X195796D01*
X197083Y474183D01*
X198067Y475168D01*
X198600Y476454D01*
Y477846D01*
X198067Y479133D01*
X197083Y480117D01*
X195796Y480650D01*
D02*
G37*
G36*
X619839Y478921D02*
X618447D01*
X617161Y478388D01*
X616176Y477404D01*
X615643Y476118D01*
Y474725D01*
X616128Y473556D01*
X615928Y473183D01*
X615291Y472527D01*
X614506Y472853D01*
X613113D01*
X611827Y472320D01*
X610842Y471335D01*
X610309Y470049D01*
Y468657D01*
X610842Y467370D01*
X611827Y466386D01*
X613113Y465853D01*
X614506D01*
X615792Y466386D01*
X616777Y467370D01*
X617309Y468657D01*
Y470049D01*
X616825Y471218D01*
X617025Y471591D01*
X617661Y472247D01*
X618447Y471921D01*
X619839D01*
X621126Y472454D01*
X622110Y473439D01*
X622643Y474725D01*
Y476118D01*
X622110Y477404D01*
X621126Y478388D01*
X619839Y478921D01*
D02*
G37*
G36*
X51585Y492617D02*
X48820D01*
X46150Y491901D01*
X43755Y490519D01*
X41800Y488564D01*
X40418Y486170D01*
X39702Y483499D01*
Y480734D01*
X40418Y478064D01*
X41800Y475670D01*
X43755Y473715D01*
X46150Y472332D01*
X48820Y471617D01*
X51585D01*
X54255Y472332D01*
X56649Y473715D01*
X58604Y475670D01*
X59987Y478064D01*
X60702Y480734D01*
Y483499D01*
X59987Y486170D01*
X58604Y488564D01*
X56649Y490519D01*
X54255Y491901D01*
X51585Y492617D01*
D02*
G37*
G36*
X256645Y476000D02*
X254855D01*
X253201Y475315D01*
X251935Y474049D01*
X251250Y472395D01*
Y470605D01*
X251935Y468951D01*
X253201Y467685D01*
X254855Y467000D01*
X256645D01*
X258299Y467685D01*
X259565Y468951D01*
X260250Y470605D01*
Y472395D01*
X259565Y474049D01*
X258299Y475315D01*
X256645Y476000D01*
D02*
G37*
G36*
X586446Y473000D02*
X585054D01*
X583767Y472467D01*
X582783Y471483D01*
X582250Y470196D01*
Y468804D01*
X582783Y467517D01*
X583767Y466533D01*
X585054Y466000D01*
X586446D01*
X587733Y466533D01*
X587987Y466787D01*
X588323Y466791D01*
X589411Y466415D01*
X589783Y465517D01*
X590767Y464533D01*
X592054Y464000D01*
X593446D01*
X594733Y464533D01*
X595717Y465517D01*
X596250Y466804D01*
Y468196D01*
X595717Y469483D01*
X594733Y470467D01*
X593446Y471000D01*
X592054D01*
X590767Y470467D01*
X590513Y470213D01*
X590177Y470208D01*
X589089Y470585D01*
X588717Y471483D01*
X587733Y472467D01*
X586446Y473000D01*
D02*
G37*
G36*
X236556Y470000D02*
X235163D01*
X233877Y469467D01*
X232893Y468483D01*
X232360Y467196D01*
Y465804D01*
X232893Y464518D01*
X233877Y463533D01*
X235163Y463000D01*
X236556D01*
X237842Y463533D01*
X238621Y464312D01*
X239594Y464296D01*
X240055Y464163D01*
X240327Y463506D01*
X241312Y462521D01*
X242598Y461988D01*
X243990D01*
X245277Y462521D01*
X246262Y463506D01*
X246794Y464792D01*
Y466184D01*
X246262Y467471D01*
X245277Y468455D01*
X243990Y468988D01*
X242598D01*
X241312Y468455D01*
X240533Y467677D01*
X239560Y467692D01*
X239099Y467825D01*
X238827Y468483D01*
X237842Y469467D01*
X236556Y470000D01*
D02*
G37*
G36*
X116760Y462750D02*
X115367D01*
X114081Y462217D01*
X113606Y461742D01*
X112776Y461375D01*
X111946Y461742D01*
X111471Y462217D01*
X110184Y462750D01*
X108792D01*
X107506Y462217D01*
X106521Y461233D01*
X105988Y459946D01*
Y458554D01*
X106521Y457267D01*
X107506Y456283D01*
X108792Y455750D01*
X110184D01*
X111471Y456283D01*
X111946Y456758D01*
X112776Y457126D01*
X113606Y456758D01*
X114081Y456283D01*
X115367Y455750D01*
X116760D01*
X118046Y456283D01*
X119031Y457267D01*
X119564Y458554D01*
Y459946D01*
X119031Y461233D01*
X118046Y462217D01*
X116760Y462750D01*
D02*
G37*
G36*
X126159D02*
X124767D01*
X123480Y462217D01*
X122496Y461233D01*
X121963Y459946D01*
Y458554D01*
X122496Y457267D01*
X123480Y456283D01*
X124767Y455750D01*
X126159D01*
X127446Y456283D01*
X128430Y457267D01*
X128963Y458554D01*
Y459946D01*
X128430Y461233D01*
X127446Y462217D01*
X126159Y462750D01*
D02*
G37*
G36*
X142733Y462004D02*
X141341D01*
X140054Y461471D01*
X139069Y460487D01*
X138537Y459200D01*
Y457808D01*
X139069Y456522D01*
X140054Y455537D01*
X141341Y455004D01*
X142733D01*
X144019Y455537D01*
X145004Y456522D01*
X145537Y457808D01*
Y459200D01*
X145004Y460487D01*
X144019Y461471D01*
X142733Y462004D01*
D02*
G37*
G36*
X652446Y462000D02*
X651054D01*
X649767Y461467D01*
X648783Y460483D01*
X648250Y459196D01*
Y457804D01*
X648783Y456517D01*
X649767Y455533D01*
X651054Y455000D01*
X652446D01*
X653733Y455533D01*
X654717Y456517D01*
X655250Y457804D01*
Y459196D01*
X654717Y460483D01*
X653733Y461467D01*
X652446Y462000D01*
D02*
G37*
G36*
X585557D02*
X584164D01*
X582878Y461467D01*
X581893Y460483D01*
X581360Y459196D01*
Y457804D01*
X581893Y456517D01*
X582878Y455533D01*
X584164Y455000D01*
X585557D01*
X586843Y455533D01*
X587828Y456517D01*
X588360Y457804D01*
Y459196D01*
X587828Y460483D01*
X586843Y461467D01*
X585557Y462000D01*
D02*
G37*
G36*
X219053Y458984D02*
X217660D01*
X216374Y458452D01*
X215389Y457467D01*
X214857Y456181D01*
Y454788D01*
X215260Y453815D01*
X214552Y452892D01*
X214414Y452791D01*
X213909Y453000D01*
X212517D01*
X211230Y452467D01*
X210246Y451483D01*
X209713Y450196D01*
Y448804D01*
X210246Y447517D01*
X211230Y446533D01*
X212517Y446000D01*
X213909D01*
X215196Y446533D01*
X216180Y447517D01*
X216713Y448804D01*
Y450196D01*
X216310Y451169D01*
X217017Y452093D01*
X217156Y452194D01*
X217660Y451984D01*
X219053D01*
X220339Y452517D01*
X221324Y453502D01*
X221857Y454788D01*
Y456181D01*
X221324Y457467D01*
X220339Y458452D01*
X219053Y458984D01*
D02*
G37*
G36*
X780005Y471780D02*
X777240D01*
X774569Y471065D01*
X772175Y469682D01*
X770220Y467727D01*
X768838Y465333D01*
X768122Y462663D01*
Y459898D01*
X768838Y457227D01*
X770220Y454833D01*
X772175Y452878D01*
X774569Y451496D01*
X777240Y450780D01*
X780005D01*
X782675Y451496D01*
X785069Y452878D01*
X787024Y454833D01*
X788407Y457227D01*
X789122Y459898D01*
Y462663D01*
X788407Y465333D01*
X787024Y467727D01*
X785069Y469682D01*
X782675Y471065D01*
X780005Y471780D01*
D02*
G37*
G36*
X671446Y455000D02*
X670054D01*
X668767Y454467D01*
X667783Y453483D01*
X667250Y452196D01*
Y450804D01*
X667783Y449517D01*
X668767Y448533D01*
X670054Y448000D01*
X671446D01*
X672733Y448533D01*
X673717Y449517D01*
X674250Y450804D01*
Y452196D01*
X673717Y453483D01*
X672733Y454467D01*
X671446Y455000D01*
D02*
G37*
G36*
X567446D02*
X566054D01*
X564767Y454467D01*
X563783Y453483D01*
X563250Y452196D01*
Y450804D01*
X563783Y449517D01*
X564767Y448533D01*
X566054Y448000D01*
X567446D01*
X568733Y448533D01*
X569717Y449517D01*
X570250Y450804D01*
Y452196D01*
X569717Y453483D01*
X568733Y454467D01*
X567446Y455000D01*
D02*
G37*
G36*
X520446D02*
X519054D01*
X517767Y454467D01*
X516783Y453483D01*
X516250Y452196D01*
Y450804D01*
X516783Y449517D01*
X517767Y448533D01*
X519054Y448000D01*
X520446D01*
X521733Y448533D01*
X522717Y449517D01*
X523250Y450804D01*
Y452196D01*
X522717Y453483D01*
X521733Y454467D01*
X520446Y455000D01*
D02*
G37*
G36*
X157197Y454750D02*
X155805D01*
X154518Y454217D01*
X153533Y453233D01*
X153001Y451946D01*
Y450554D01*
X153533Y449267D01*
X154518Y448283D01*
X155805Y447750D01*
X157197D01*
X158483Y448283D01*
X159468Y449267D01*
X160001Y450554D01*
Y451946D01*
X159468Y453233D01*
X158483Y454217D01*
X157197Y454750D01*
D02*
G37*
G36*
X46434Y467744D02*
X43669D01*
X40999Y467029D01*
X38605Y465647D01*
X36649Y463692D01*
X35267Y461297D01*
X34552Y458627D01*
Y455862D01*
X35267Y453192D01*
X36649Y450797D01*
X38605Y448843D01*
X40999Y447460D01*
X43669Y446744D01*
X46434D01*
X49104Y447460D01*
X51499Y448843D01*
X53454Y450797D01*
X54836Y453192D01*
X55552Y455862D01*
Y458627D01*
X54836Y461297D01*
X53454Y463692D01*
X51499Y465647D01*
X49104Y467029D01*
X46434Y467744D01*
D02*
G37*
G36*
X255548Y457000D02*
X254156D01*
X252869Y456467D01*
X251885Y455483D01*
X251352Y454196D01*
Y452804D01*
X251885Y451517D01*
X252869Y450533D01*
X254156Y450000D01*
X254208D01*
X255250Y449196D01*
X255250Y448827D01*
Y447804D01*
X255783Y446517D01*
X256767Y445533D01*
X258054Y445000D01*
X259446D01*
X260733Y445533D01*
X261717Y446517D01*
X262250Y447804D01*
Y449196D01*
X261717Y450483D01*
X260733Y451467D01*
X259446Y452000D01*
X259394D01*
X258352Y452804D01*
X258352Y453173D01*
Y454196D01*
X257819Y455483D01*
X256835Y456467D01*
X255548Y457000D01*
D02*
G37*
G36*
X182491Y451175D02*
X181099D01*
X179812Y450642D01*
X178828Y449658D01*
X178295Y448371D01*
Y446979D01*
X178828Y445693D01*
X179812Y444708D01*
X181099Y444175D01*
X182491D01*
X183778Y444708D01*
X184762Y445693D01*
X185295Y446979D01*
Y448371D01*
X184762Y449658D01*
X183778Y450642D01*
X182491Y451175D01*
D02*
G37*
G36*
X196580Y454959D02*
X195188D01*
X193902Y454426D01*
X192917Y453441D01*
X192384Y452155D01*
Y450762D01*
X192659Y450098D01*
X192382Y449642D01*
X191740Y449000D01*
X190599D01*
X189312Y448467D01*
X188328Y447483D01*
X187795Y446196D01*
Y444804D01*
X188328Y443517D01*
X189312Y442533D01*
X190599Y442000D01*
X191991D01*
X193278Y442533D01*
X194262Y443517D01*
X194795Y444804D01*
Y446196D01*
X194520Y446861D01*
X194797Y447317D01*
X195440Y447959D01*
X196580D01*
X197867Y448491D01*
X198851Y449476D01*
X199384Y450762D01*
Y452155D01*
X198851Y453441D01*
X197867Y454426D01*
X196580Y454959D01*
D02*
G37*
G36*
X326871Y452575D02*
X325478D01*
X324192Y452043D01*
X323207Y451058D01*
X322675Y449772D01*
Y449173D01*
X322510Y448326D01*
X321501Y448000D01*
X321054D01*
X319767Y447467D01*
X318783Y446483D01*
X318250Y445196D01*
Y443804D01*
X318783Y442517D01*
X319767Y441533D01*
X321054Y441000D01*
X322446D01*
X323733Y441533D01*
X324717Y442517D01*
X325250Y443804D01*
Y444402D01*
X325415Y445249D01*
X326423Y445575D01*
X326871D01*
X328157Y446108D01*
X329142Y447093D01*
X329675Y448379D01*
Y449772D01*
X329142Y451058D01*
X328157Y452043D01*
X326871Y452575D01*
D02*
G37*
G36*
X82446Y446000D02*
X81054D01*
X79767Y445467D01*
X78783Y444483D01*
X78250Y443196D01*
Y441804D01*
X78783Y440517D01*
X79767Y439533D01*
X81054Y439000D01*
X82446D01*
X83733Y439533D01*
X84717Y440517D01*
X85250Y441804D01*
Y443196D01*
X84717Y444483D01*
X83733Y445467D01*
X82446Y446000D01*
D02*
G37*
G36*
X632259Y445238D02*
X630866D01*
X629580Y444706D01*
X628595Y443721D01*
X628062Y442435D01*
Y441042D01*
X628595Y439756D01*
X629580Y438771D01*
X630866Y438238D01*
X632259D01*
X633545Y438771D01*
X634529Y439756D01*
X635062Y441042D01*
Y442435D01*
X634529Y443721D01*
X633545Y444706D01*
X632259Y445238D01*
D02*
G37*
G36*
X609377Y443314D02*
X607985D01*
X606698Y442781D01*
X605714Y441797D01*
X605181Y440510D01*
Y439118D01*
X605714Y437831D01*
X606698Y436847D01*
X607985Y436314D01*
X609377D01*
X610663Y436847D01*
X611648Y437831D01*
X612181Y439118D01*
Y440510D01*
X611648Y441797D01*
X610663Y442781D01*
X609377Y443314D01*
D02*
G37*
G36*
X592446Y443000D02*
X591054D01*
X589767Y442467D01*
X588783Y441483D01*
X588250Y440196D01*
Y438804D01*
X588783Y437517D01*
X589767Y436533D01*
X591054Y436000D01*
X592446D01*
X593733Y436533D01*
X594717Y437517D01*
X595250Y438804D01*
Y440196D01*
X594717Y441483D01*
X593733Y442467D01*
X592446Y443000D01*
D02*
G37*
G36*
X236446Y442000D02*
X235054D01*
X233767Y441467D01*
X232783Y440483D01*
X232250Y439196D01*
Y437804D01*
X232783Y436517D01*
X233767Y435533D01*
X235054Y435000D01*
X236446D01*
X237733Y435533D01*
X238717Y436517D01*
X239250Y437804D01*
Y439196D01*
X238717Y440483D01*
X237733Y441467D01*
X236446Y442000D01*
D02*
G37*
G36*
X223446Y449000D02*
X222054D01*
X220767Y448467D01*
X219783Y447483D01*
X219250Y446196D01*
Y444804D01*
X219783Y443517D01*
X220767Y442533D01*
X222054Y442000D01*
X223446D01*
X223566Y442050D01*
X224736Y442290D01*
X225269Y441004D01*
X225408Y440865D01*
X225276Y439436D01*
X224291Y438451D01*
X223759Y437165D01*
Y435772D01*
X224291Y434486D01*
X225276Y433501D01*
X226562Y432969D01*
X227955D01*
X229241Y433501D01*
X230226Y434486D01*
X230759Y435772D01*
Y437165D01*
X230226Y438451D01*
X230087Y438590D01*
X230219Y440019D01*
X231203Y441004D01*
X231736Y442290D01*
Y443682D01*
X231203Y444969D01*
X230219Y445953D01*
X228932Y446486D01*
X227540D01*
X227420Y446437D01*
X226250Y446196D01*
X225717Y447483D01*
X224733Y448467D01*
X223446Y449000D01*
D02*
G37*
G36*
X209090Y445043D02*
X207697D01*
X206411Y444510D01*
X205426Y443525D01*
X204893Y442239D01*
Y440846D01*
X204899Y440834D01*
X204584Y440348D01*
X203973Y439750D01*
X202804D01*
X201517Y439217D01*
X200533Y438233D01*
X200000Y436946D01*
Y435554D01*
X200533Y434267D01*
X201517Y433283D01*
X202804Y432750D01*
X204196D01*
X205483Y433283D01*
X206467Y434267D01*
X207000Y435554D01*
Y436946D01*
X206995Y436959D01*
X207310Y437445D01*
X207920Y438043D01*
X209090D01*
X210376Y438576D01*
X211360Y439560D01*
X211893Y440846D01*
Y442239D01*
X211360Y443525D01*
X210376Y444510D01*
X209090Y445043D01*
D02*
G37*
G36*
X218769Y439720D02*
X217377D01*
X216090Y439187D01*
X215106Y438202D01*
X214573Y436916D01*
Y435524D01*
X215106Y434237D01*
X216090Y433253D01*
X217377Y432720D01*
X218769D01*
X220055Y433253D01*
X221040Y434237D01*
X221573Y435524D01*
Y436916D01*
X221040Y438202D01*
X220055Y439187D01*
X218769Y439720D01*
D02*
G37*
G36*
X316844Y439500D02*
X314656D01*
X312635Y438663D01*
X311087Y437116D01*
X310250Y435094D01*
Y432906D01*
X311087Y430885D01*
X312635Y429337D01*
X314656Y428500D01*
X316844D01*
X318866Y429337D01*
X320413Y430885D01*
X321250Y432906D01*
Y435094D01*
X320413Y437116D01*
X318866Y438663D01*
X316844Y439500D01*
D02*
G37*
G36*
X551841Y439003D02*
X549653D01*
X547631Y438166D01*
X546084Y436619D01*
X545247Y434597D01*
Y432409D01*
X546084Y430388D01*
X547631Y428841D01*
X549653Y428003D01*
X551841D01*
X553862Y428841D01*
X555409Y430388D01*
X556247Y432409D01*
Y434597D01*
X555409Y436619D01*
X553862Y438166D01*
X551841Y439003D01*
D02*
G37*
G36*
X153196Y434500D02*
X151804D01*
X150517Y433967D01*
X149533Y432983D01*
X149000Y431696D01*
Y430304D01*
X149533Y429017D01*
X150517Y428033D01*
X151804Y427500D01*
X153196D01*
X154483Y428033D01*
X155467Y429017D01*
X156000Y430304D01*
Y431696D01*
X155467Y432983D01*
X154483Y433967D01*
X153196Y434500D01*
D02*
G37*
G36*
X652696Y433500D02*
X651304D01*
X650017Y432967D01*
X649033Y431983D01*
X648500Y430696D01*
Y429304D01*
X649033Y428017D01*
X650017Y427033D01*
X651304Y426500D01*
X652696D01*
X653983Y427033D01*
X654967Y428017D01*
X655500Y429304D01*
Y430696D01*
X654967Y431983D01*
X653983Y432967D01*
X652696Y433500D01*
D02*
G37*
G36*
X785068Y446890D02*
X782304D01*
X779633Y446175D01*
X777239Y444792D01*
X775284Y442837D01*
X773902Y440443D01*
X773186Y437772D01*
Y435008D01*
X773902Y432337D01*
X775284Y429943D01*
X777239Y427988D01*
X779633Y426606D01*
X782304Y425890D01*
X785068D01*
X787739Y426606D01*
X790133Y427988D01*
X792088Y429943D01*
X793471Y432337D01*
X794186Y435008D01*
Y437772D01*
X793471Y440443D01*
X792088Y442837D01*
X790133Y444792D01*
X787739Y446175D01*
X785068Y446890D01*
D02*
G37*
G36*
X41283Y442872D02*
X38519D01*
X35848Y442157D01*
X33454Y440774D01*
X31499Y438819D01*
X30116Y436425D01*
X29401Y433755D01*
Y430990D01*
X30116Y428319D01*
X31499Y425925D01*
X33454Y423970D01*
X35848Y422588D01*
X38519Y421872D01*
X41283D01*
X43954Y422588D01*
X46348Y423970D01*
X48303Y425925D01*
X49685Y428319D01*
X50401Y430990D01*
Y433755D01*
X49685Y436425D01*
X48303Y438819D01*
X46348Y440774D01*
X43954Y442157D01*
X41283Y442872D01*
D02*
G37*
G36*
X672446Y428000D02*
X671054D01*
X669767Y427467D01*
X668783Y426483D01*
X668250Y425196D01*
Y423804D01*
X668783Y422517D01*
X669767Y421533D01*
X671054Y421000D01*
X672446D01*
X673733Y421533D01*
X674717Y422517D01*
X675250Y423804D01*
Y425196D01*
X674717Y426483D01*
X673733Y427467D01*
X672446Y428000D01*
D02*
G37*
G36*
X99446Y428000D02*
X98054D01*
X96767Y427467D01*
X95783Y426483D01*
X95250Y425196D01*
Y423804D01*
X95783Y422517D01*
X96767Y421533D01*
X98054Y421000D01*
X99446D01*
X100733Y421533D01*
X101717Y422517D01*
X102250Y423804D01*
Y425196D01*
X101717Y426483D01*
X100733Y427467D01*
X99446Y428000D01*
D02*
G37*
G36*
X119111Y427336D02*
X117718D01*
X116432Y426803D01*
X115447Y425818D01*
X114914Y424532D01*
Y423139D01*
X115447Y421853D01*
X116432Y420868D01*
X117718Y420336D01*
X119111D01*
X120397Y420868D01*
X121382Y421853D01*
X121914Y423139D01*
Y424532D01*
X121382Y425818D01*
X120397Y426803D01*
X119111Y427336D01*
D02*
G37*
G36*
X108142Y426750D02*
X106750D01*
X105464Y426217D01*
X104479Y425233D01*
X103946Y423946D01*
Y422554D01*
X104479Y421267D01*
X105464Y420283D01*
X106750Y419750D01*
X108142D01*
X109429Y420283D01*
X110413Y421267D01*
X110946Y422554D01*
Y423946D01*
X110413Y425233D01*
X109429Y426217D01*
X108142Y426750D01*
D02*
G37*
G36*
X125446Y437000D02*
X124054D01*
X122767Y436467D01*
X121783Y435483D01*
X121250Y434196D01*
Y432804D01*
X121783Y431517D01*
X122767Y430533D01*
X124054Y430000D01*
X124656Y428730D01*
X124539Y428446D01*
Y427054D01*
X125072Y425768D01*
X126056Y424783D01*
X126648Y424538D01*
X126806Y423741D01*
X126274Y422455D01*
Y421063D01*
X126806Y419776D01*
X127791Y418792D01*
X129077Y418259D01*
X130470D01*
X131756Y418792D01*
X132741Y419776D01*
X133274Y421063D01*
Y422455D01*
X132741Y423741D01*
X131756Y424726D01*
X131165Y424971D01*
X131006Y425768D01*
X131539Y427054D01*
Y428446D01*
X131006Y429733D01*
X130021Y430717D01*
X128735Y431250D01*
X128132Y432520D01*
X128250Y432804D01*
Y434196D01*
X127717Y435483D01*
X126733Y436467D01*
X125446Y437000D01*
D02*
G37*
G36*
X652446Y423500D02*
X651054D01*
X649767Y422967D01*
X648783Y421983D01*
X648250Y420696D01*
Y419304D01*
X648783Y418017D01*
X649767Y417033D01*
X651054Y416500D01*
X652446D01*
X653733Y417033D01*
X654717Y418017D01*
X655250Y419304D01*
Y420696D01*
X654717Y421983D01*
X653733Y422967D01*
X652446Y423500D01*
D02*
G37*
G36*
X718050Y428687D02*
X716075D01*
X714168Y428176D01*
X712458Y427189D01*
X711061Y425792D01*
X710074Y424082D01*
X709563Y422175D01*
Y420200D01*
X710074Y418292D01*
X711061Y416582D01*
X712458Y415186D01*
X714168Y414198D01*
X716075Y413687D01*
X718050D01*
X719958Y414198D01*
X721668Y415186D01*
X723064Y416582D01*
X724052Y418292D01*
X724563Y420200D01*
Y422175D01*
X724052Y424082D01*
X723064Y425792D01*
X721668Y427189D01*
X719958Y428176D01*
X718050Y428687D01*
D02*
G37*
G36*
X757737Y428000D02*
X755763D01*
X753855Y427489D01*
X752145Y426502D01*
X750749Y425105D01*
X749761Y423395D01*
X749250Y421487D01*
Y419513D01*
X749761Y417605D01*
X750749Y415895D01*
X752145Y414498D01*
X753855Y413511D01*
X755763Y413000D01*
X757737D01*
X759645Y413511D01*
X761355Y414498D01*
X762751Y415895D01*
X763739Y417605D01*
X764250Y419513D01*
Y421487D01*
X763739Y423395D01*
X762751Y425105D01*
X761355Y426502D01*
X759645Y427489D01*
X757737Y428000D01*
D02*
G37*
G36*
X275446Y419000D02*
X274054D01*
X272767Y418467D01*
X271783Y417483D01*
X271250Y416196D01*
Y414804D01*
X271783Y413517D01*
X272767Y412533D01*
X274054Y412000D01*
X275446D01*
X276733Y412533D01*
X277717Y413517D01*
X278250Y414804D01*
Y416196D01*
X277717Y417483D01*
X276733Y418467D01*
X275446Y419000D01*
D02*
G37*
G36*
X142050Y412000D02*
X140658D01*
X139372Y411467D01*
X138387Y410483D01*
X138242Y410132D01*
X137441Y409305D01*
X136709Y409497D01*
X136078Y409758D01*
X134686D01*
X133399Y409226D01*
X132415Y408241D01*
X131882Y406955D01*
Y405562D01*
X132131Y404961D01*
X131363Y403691D01*
X130076Y403158D01*
X129092Y402174D01*
X128559Y400887D01*
Y399495D01*
X129092Y398209D01*
X130076Y397224D01*
X131363Y396691D01*
X131706D01*
X132750Y395892D01*
Y394500D01*
X133283Y393214D01*
X132500Y392200D01*
X131783Y391483D01*
X131250Y390196D01*
Y388804D01*
X131783Y387517D01*
X132767Y386533D01*
X134054Y386000D01*
X135446D01*
X136733Y386533D01*
X137717Y387517D01*
X138250Y388804D01*
Y390196D01*
X137717Y391483D01*
X138500Y392496D01*
X139217Y393214D01*
X139750Y394500D01*
Y395892D01*
X139217Y397179D01*
X138233Y398163D01*
X136946Y398696D01*
X136603D01*
X135559Y399495D01*
Y400887D01*
X135310Y401488D01*
X136078Y402759D01*
X137364Y403291D01*
X138349Y404276D01*
X138494Y404626D01*
X139295Y405454D01*
X140027Y405261D01*
X140658Y405000D01*
X142050D01*
X143337Y405533D01*
X144321Y406517D01*
X144854Y407804D01*
Y409196D01*
X144321Y410483D01*
X143337Y411467D01*
X142050Y412000D01*
D02*
G37*
G36*
X188696Y414505D02*
X187304D01*
X186017Y413972D01*
X185033Y412988D01*
X184500Y411701D01*
Y410309D01*
X185033Y409022D01*
X186017Y408038D01*
X187304Y407505D01*
X188696D01*
X189983Y408038D01*
X190967Y409022D01*
X191500Y410309D01*
Y411701D01*
X190967Y412988D01*
X189983Y413972D01*
X188696Y414505D01*
D02*
G37*
G36*
X205594Y412750D02*
X203406D01*
X201385Y411913D01*
X199837Y410365D01*
X199000Y408344D01*
Y406156D01*
X199837Y404134D01*
X201385Y402587D01*
X203406Y401750D01*
X205594D01*
X207616Y402587D01*
X209163Y404134D01*
X210000Y406156D01*
Y408344D01*
X209163Y410365D01*
X207616Y411913D01*
X205594Y412750D01*
D02*
G37*
G36*
X790132Y422000D02*
X787368D01*
X784697Y421284D01*
X782303Y419902D01*
X780348Y417947D01*
X778966Y415553D01*
X778250Y412882D01*
Y410118D01*
X778966Y407447D01*
X780348Y405053D01*
X782303Y403098D01*
X784697Y401716D01*
X787368Y401000D01*
X790132D01*
X792803Y401716D01*
X795197Y403098D01*
X797152Y405053D01*
X798534Y407447D01*
X799250Y410118D01*
Y412882D01*
X798534Y415553D01*
X797152Y417947D01*
X795197Y419902D01*
X792803Y421284D01*
X790132Y422000D01*
D02*
G37*
G36*
X36132Y418000D02*
X33368D01*
X30697Y417284D01*
X28303Y415902D01*
X26348Y413947D01*
X24966Y411553D01*
X24250Y408882D01*
Y406118D01*
X24966Y403447D01*
X26348Y401053D01*
X28303Y399098D01*
X30697Y397716D01*
X33368Y397000D01*
X36132D01*
X38803Y397716D01*
X41197Y399098D01*
X43152Y401053D01*
X44534Y403447D01*
X45250Y406118D01*
Y408882D01*
X44534Y411553D01*
X43152Y413947D01*
X41197Y415902D01*
X38803Y417284D01*
X36132Y418000D01*
D02*
G37*
G36*
X561446Y402000D02*
X560054D01*
X558767Y401467D01*
X557783Y400483D01*
X557250Y399196D01*
Y397804D01*
X557783Y396517D01*
X558767Y395533D01*
X560054Y395000D01*
X561446D01*
X562733Y395533D01*
X563717Y396517D01*
X564250Y397804D01*
Y399196D01*
X563717Y400483D01*
X562733Y401467D01*
X561446Y402000D01*
D02*
G37*
G36*
X247438Y411000D02*
X245250D01*
X243229Y410163D01*
X241681Y408615D01*
X240844Y406594D01*
Y404406D01*
X241681Y402384D01*
X243229Y400837D01*
X244598Y400270D01*
X244473Y399184D01*
X244399Y398978D01*
X243166Y398467D01*
X242181Y397483D01*
X241649Y396196D01*
Y394804D01*
X242181Y393517D01*
X243166Y392533D01*
X244452Y392000D01*
X245845D01*
X247131Y392533D01*
X248116Y393517D01*
X248649Y394804D01*
Y396196D01*
X248116Y397483D01*
X247131Y398467D01*
X246497Y398730D01*
X246749Y400000D01*
X247438D01*
X249460Y400837D01*
X251007Y402384D01*
X251844Y404406D01*
Y406594D01*
X251007Y408615D01*
X249460Y410163D01*
X247438Y411000D01*
D02*
G37*
G36*
X629446Y395000D02*
X628054D01*
X626767Y394467D01*
X625783Y393483D01*
X625250Y392196D01*
Y390804D01*
X625783Y389517D01*
X626767Y388533D01*
X628054Y388000D01*
X629446D01*
X630733Y388533D01*
X631717Y389517D01*
X632250Y390804D01*
Y392196D01*
X631717Y393483D01*
X630733Y394467D01*
X629446Y395000D01*
D02*
G37*
G36*
X65446Y392000D02*
X64054D01*
X62767Y391467D01*
X61783Y390483D01*
X61250Y389196D01*
Y387804D01*
X61783Y386517D01*
X62767Y385533D01*
X64054Y385000D01*
X65446D01*
X66733Y385533D01*
X67717Y386517D01*
X68250Y387804D01*
Y389196D01*
X67717Y390483D01*
X66733Y391467D01*
X65446Y392000D01*
D02*
G37*
G36*
X608446Y391200D02*
X607054D01*
X605767Y390667D01*
X604783Y389683D01*
X604250Y388397D01*
Y387004D01*
X604783Y385718D01*
X605767Y384733D01*
X607054Y384200D01*
X608446D01*
X609733Y384733D01*
X610717Y385718D01*
X611250Y387004D01*
Y388397D01*
X610717Y389683D01*
X609733Y390667D01*
X608446Y391200D01*
D02*
G37*
G36*
X715645Y393000D02*
X713855D01*
X712201Y392315D01*
X710935Y391049D01*
X710250Y389395D01*
Y387605D01*
X710935Y385951D01*
X712201Y384685D01*
X713855Y384000D01*
X715645D01*
X717299Y384685D01*
X718565Y385951D01*
X719250Y387605D01*
Y389395D01*
X718565Y391049D01*
X717299Y392315D01*
X715645Y393000D01*
D02*
G37*
G36*
X99378Y389932D02*
X97986D01*
X96700Y389399D01*
X95715Y388415D01*
X95182Y387128D01*
Y385736D01*
X95715Y384450D01*
X96700Y383465D01*
X97986Y382932D01*
X99378D01*
X100665Y383465D01*
X101649Y384450D01*
X102182Y385736D01*
Y387128D01*
X101649Y388415D01*
X100665Y389399D01*
X99378Y389932D01*
D02*
G37*
G36*
X561557Y389617D02*
X560164D01*
X558878Y389084D01*
X557893Y388099D01*
X557360Y386813D01*
Y385420D01*
X557893Y384134D01*
X558878Y383149D01*
X560164Y382617D01*
X561557D01*
X562843Y383149D01*
X563828Y384134D01*
X564361Y385420D01*
Y386813D01*
X563828Y388099D01*
X562843Y389084D01*
X561557Y389617D01*
D02*
G37*
G36*
X640446Y389000D02*
X639054D01*
X637767Y388467D01*
X636783Y387483D01*
X636250Y386196D01*
Y384804D01*
X636783Y383517D01*
X637767Y382533D01*
X639054Y382000D01*
X640446D01*
X641733Y382533D01*
X642717Y383517D01*
X643250Y384804D01*
Y386196D01*
X642717Y387483D01*
X641733Y388467D01*
X640446Y389000D01*
D02*
G37*
G36*
X250446Y386000D02*
X249054D01*
X247767Y385467D01*
X246783Y384483D01*
X246250Y383196D01*
Y381804D01*
X246783Y380517D01*
X247767Y379533D01*
X249054Y379000D01*
X250446D01*
X251733Y379533D01*
X252717Y380517D01*
X253250Y381804D01*
Y383196D01*
X252717Y384483D01*
X251733Y385467D01*
X250446Y386000D01*
D02*
G37*
G36*
X73696Y384000D02*
X72304D01*
X71017Y383467D01*
X70033Y382483D01*
X69500Y381196D01*
Y379804D01*
X70033Y378517D01*
X71017Y377533D01*
X72304Y377000D01*
X73696D01*
X74983Y377533D01*
X75967Y378517D01*
X76500Y379804D01*
Y381196D01*
X75967Y382483D01*
X74983Y383467D01*
X73696Y384000D01*
D02*
G37*
G36*
X290446Y379000D02*
X289054D01*
X287767Y378467D01*
X286783Y377483D01*
X286250Y376196D01*
Y374804D01*
X286783Y373517D01*
X287767Y372533D01*
X289054Y372000D01*
X290446D01*
X291733Y372533D01*
X292717Y373517D01*
X293250Y374804D01*
Y376196D01*
X292717Y377483D01*
X291733Y378467D01*
X290446Y379000D01*
D02*
G37*
G36*
X275446Y378000D02*
X274054D01*
X272767Y377467D01*
X271783Y376483D01*
X271250Y375196D01*
Y373804D01*
X271783Y372517D01*
X272767Y371533D01*
X274054Y371000D01*
X275446D01*
X276733Y371533D01*
X277717Y372517D01*
X278250Y373804D01*
Y375196D01*
X277717Y376483D01*
X276733Y377467D01*
X275446Y378000D01*
D02*
G37*
G36*
X134446Y377000D02*
X133054D01*
X131767Y376467D01*
X130783Y375483D01*
X130250Y374196D01*
Y372804D01*
X130783Y371517D01*
X131767Y370533D01*
X133054Y370000D01*
X134446D01*
X135733Y370533D01*
X136717Y371517D01*
X137250Y372804D01*
Y374196D01*
X136717Y375483D01*
X135733Y376467D01*
X134446Y377000D01*
D02*
G37*
G36*
X64446Y383000D02*
X63054D01*
X61767Y382467D01*
X60783Y381483D01*
X60250Y380196D01*
Y378804D01*
X60783Y377517D01*
X61256Y377044D01*
X61021Y375572D01*
X60767Y375467D01*
X59783Y374483D01*
X59250Y373196D01*
Y371804D01*
X59783Y370517D01*
X60767Y369533D01*
X62054Y369000D01*
X63446D01*
X64733Y369533D01*
X65717Y370517D01*
X66250Y371804D01*
Y373196D01*
X65717Y374483D01*
X65244Y374956D01*
X65479Y376428D01*
X65733Y376533D01*
X66717Y377517D01*
X67250Y378804D01*
Y380196D01*
X66717Y381483D01*
X65733Y382467D01*
X64446Y383000D01*
D02*
G37*
G36*
X560204Y374757D02*
X558811D01*
X557525Y374225D01*
X556540Y373240D01*
X556007Y371954D01*
Y370561D01*
X556540Y369275D01*
X557525Y368290D01*
X558811Y367757D01*
X560204D01*
X561490Y368290D01*
X562475Y369275D01*
X563007Y370561D01*
Y371954D01*
X562475Y373240D01*
X561490Y374225D01*
X560204Y374757D01*
D02*
G37*
G36*
X721446Y374000D02*
X720054D01*
X718767Y373467D01*
X717783Y372483D01*
X717250Y371196D01*
Y369804D01*
X717783Y368517D01*
X718767Y367533D01*
X720054Y367000D01*
X721446D01*
X722733Y367533D01*
X723717Y368517D01*
X724250Y369804D01*
Y371196D01*
X723717Y372483D01*
X722733Y373467D01*
X721446Y374000D01*
D02*
G37*
G36*
X702159Y373787D02*
X700767D01*
X699480Y373254D01*
X698496Y372270D01*
X697963Y370983D01*
Y369591D01*
X698496Y368304D01*
X699480Y367320D01*
X700767Y366787D01*
X702159D01*
X703446Y367320D01*
X704430Y368304D01*
X704963Y369591D01*
Y370983D01*
X704430Y372270D01*
X703446Y373254D01*
X702159Y373787D01*
D02*
G37*
G36*
X188055Y370609D02*
X186663D01*
X185376Y370076D01*
X184392Y369091D01*
X183859Y367805D01*
Y366413D01*
X184392Y365126D01*
X185376Y364142D01*
X186663Y363609D01*
X188055D01*
X189341Y364142D01*
X190326Y365126D01*
X190859Y366413D01*
Y367805D01*
X190326Y369091D01*
X189341Y370076D01*
X188055Y370609D01*
D02*
G37*
G36*
X200446Y369000D02*
X199054D01*
X197767Y368467D01*
X196783Y367483D01*
X196250Y366196D01*
Y364804D01*
X196783Y363517D01*
X197767Y362533D01*
X199054Y362000D01*
X200446D01*
X201733Y362533D01*
X202717Y363517D01*
X203250Y364804D01*
Y366196D01*
X202717Y367483D01*
X201733Y368467D01*
X200446Y369000D01*
D02*
G37*
G36*
X167196Y368250D02*
X165804D01*
X164517Y367717D01*
X163533Y366733D01*
X163000Y365446D01*
Y364054D01*
X163533Y362767D01*
X164517Y361783D01*
X165804Y361250D01*
X167196D01*
X168483Y361783D01*
X169467Y362767D01*
X170000Y364054D01*
Y365446D01*
X169467Y366733D01*
X168483Y367717D01*
X167196Y368250D01*
D02*
G37*
G36*
X219446Y376000D02*
X218054D01*
X216767Y375467D01*
X215783Y374483D01*
X215250Y373196D01*
Y371804D01*
X215783Y370517D01*
X215914Y370386D01*
X215701Y369315D01*
X214435Y368049D01*
X213750Y366395D01*
Y364605D01*
X214435Y362951D01*
X215701Y361685D01*
X217355Y361000D01*
X219145D01*
X220799Y361685D01*
X222065Y362951D01*
X222750Y364605D01*
Y366395D01*
X222065Y368049D01*
X221486Y368627D01*
X220852Y369390D01*
X221486Y370287D01*
X221717Y370517D01*
X222250Y371804D01*
Y373196D01*
X221717Y374483D01*
X220733Y375467D01*
X219446Y376000D01*
D02*
G37*
G36*
X767132Y380000D02*
X764368D01*
X761697Y379284D01*
X759303Y377902D01*
X757348Y375947D01*
X755966Y373553D01*
X755250Y370882D01*
Y368118D01*
X755966Y365447D01*
X757348Y363053D01*
X759303Y361098D01*
X761697Y359716D01*
X764368Y359000D01*
X767132D01*
X769803Y359716D01*
X772197Y361098D01*
X774152Y363053D01*
X775534Y365447D01*
X776250Y368118D01*
Y370882D01*
X775534Y373553D01*
X774152Y375947D01*
X772197Y377902D01*
X769803Y379284D01*
X767132Y380000D01*
D02*
G37*
G36*
X242446Y366000D02*
X241054D01*
X239767Y365467D01*
X238783Y364483D01*
X238250Y363196D01*
Y361804D01*
X238783Y360517D01*
X239767Y359533D01*
X241054Y359000D01*
X242446D01*
X243733Y359533D01*
X244717Y360517D01*
X245250Y361804D01*
Y363196D01*
X244717Y364483D01*
X243733Y365467D01*
X242446Y366000D01*
D02*
G37*
G36*
X639420Y364026D02*
X638028D01*
X636741Y363493D01*
X635757Y362509D01*
X635224Y361222D01*
Y359830D01*
X635757Y358543D01*
X636741Y357559D01*
X638028Y357026D01*
X639420D01*
X640707Y357559D01*
X641691Y358543D01*
X642224Y359830D01*
Y361222D01*
X641691Y362509D01*
X640707Y363493D01*
X639420Y364026D01*
D02*
G37*
G36*
X600446Y364000D02*
X599054D01*
X597767Y363467D01*
X596783Y362483D01*
X596250Y361196D01*
Y359804D01*
X596783Y358517D01*
X597767Y357533D01*
X599054Y357000D01*
X600446D01*
X601733Y357533D01*
X602717Y358517D01*
X603250Y359804D01*
Y361196D01*
X602717Y362483D01*
X601733Y363467D01*
X600446Y364000D01*
D02*
G37*
G36*
X290446D02*
X289054D01*
X287767Y363467D01*
X286783Y362483D01*
X286250Y361196D01*
Y359804D01*
X286783Y358517D01*
X287767Y357533D01*
X289054Y357000D01*
X290446D01*
X291733Y357533D01*
X292717Y358517D01*
X293250Y359804D01*
Y361196D01*
X292717Y362483D01*
X291733Y363467D01*
X290446Y364000D01*
D02*
G37*
G36*
X231645Y366000D02*
X229855D01*
X228201Y365315D01*
X226935Y364049D01*
X226250Y362395D01*
Y360605D01*
X226935Y358951D01*
X228201Y357685D01*
X229855Y357000D01*
X231645D01*
X233299Y357685D01*
X234565Y358951D01*
X235250Y360605D01*
Y362395D01*
X234565Y364049D01*
X233299Y365315D01*
X231645Y366000D01*
D02*
G37*
G36*
X617446Y371000D02*
X616054D01*
X614767Y370467D01*
X613783Y369483D01*
X613250Y368196D01*
Y366804D01*
X613783Y365517D01*
X614767Y364533D01*
X615402Y364270D01*
X615149Y363000D01*
X615054D01*
X613767Y362467D01*
X612783Y361483D01*
X612250Y360196D01*
Y358804D01*
X612783Y357517D01*
X613767Y356533D01*
X615054Y356000D01*
X616446D01*
X617733Y356533D01*
X618717Y357517D01*
X619250Y358804D01*
Y360196D01*
X618717Y361483D01*
X617733Y362467D01*
X617098Y362730D01*
X617351Y364000D01*
X617446D01*
X618733Y364533D01*
X619717Y365517D01*
X620250Y366804D01*
Y368196D01*
X619717Y369483D01*
X618733Y370467D01*
X617446Y371000D01*
D02*
G37*
G36*
X132446Y360231D02*
X131054D01*
X129767Y359698D01*
X128783Y358713D01*
X128250Y357427D01*
Y356035D01*
X128783Y354748D01*
X129767Y353764D01*
X131054Y353231D01*
X132446D01*
X133733Y353764D01*
X134717Y354748D01*
X135250Y356035D01*
Y357427D01*
X134717Y358713D01*
X133733Y359698D01*
X132446Y360231D01*
D02*
G37*
G36*
X559150Y355104D02*
X557757D01*
X556471Y354571D01*
X555486Y353586D01*
X554954Y352300D01*
Y350908D01*
X555486Y349621D01*
X556471Y348637D01*
X557757Y348104D01*
X559150D01*
X560436Y348637D01*
X561421Y349621D01*
X561954Y350908D01*
Y352300D01*
X561421Y353586D01*
X560436Y354571D01*
X559150Y355104D01*
D02*
G37*
G36*
X110645Y354000D02*
X108855D01*
X107201Y353315D01*
X105935Y352049D01*
X105250Y350395D01*
Y348605D01*
X105935Y346951D01*
X107201Y345685D01*
X108855Y345000D01*
X110645D01*
X112299Y345685D01*
X113565Y346951D01*
X114250Y348605D01*
Y350395D01*
X113565Y352049D01*
X112299Y353315D01*
X110645Y354000D01*
D02*
G37*
G36*
X608446Y351000D02*
X607054D01*
X605767Y350467D01*
X604783Y349483D01*
X604250Y348196D01*
Y346804D01*
X604783Y345517D01*
X605767Y344533D01*
X607054Y344000D01*
X608446D01*
X609733Y344533D01*
X610717Y345517D01*
X611250Y346804D01*
Y348196D01*
X610717Y349483D01*
X609733Y350467D01*
X608446Y351000D01*
D02*
G37*
G36*
X524446D02*
X523054D01*
X521767Y350467D01*
X520783Y349483D01*
X520250Y348196D01*
Y346804D01*
X520783Y345517D01*
X521767Y344533D01*
X523054Y344000D01*
X524446D01*
X525733Y344533D01*
X526717Y345517D01*
X527250Y346804D01*
Y348196D01*
X526717Y349483D01*
X525733Y350467D01*
X524446Y351000D01*
D02*
G37*
G36*
X240587Y350141D02*
X239195D01*
X237908Y349608D01*
X236924Y348624D01*
X236391Y347337D01*
Y345945D01*
X236924Y344658D01*
X237908Y343674D01*
X239195Y343141D01*
X240587D01*
X241873Y343674D01*
X242858Y344658D01*
X243391Y345945D01*
Y347337D01*
X242858Y348624D01*
X241873Y349608D01*
X240587Y350141D01*
D02*
G37*
G36*
X595395Y351250D02*
X593605D01*
X591951Y350565D01*
X590685Y349299D01*
X590000Y347645D01*
Y345855D01*
X590685Y344201D01*
X591951Y342935D01*
X593605Y342250D01*
X595395D01*
X597049Y342935D01*
X598315Y344201D01*
X599000Y345855D01*
Y347645D01*
X598315Y349299D01*
X597049Y350565D01*
X595395Y351250D01*
D02*
G37*
G36*
X691446Y348875D02*
X690054D01*
X688767Y348342D01*
X687783Y347358D01*
X687250Y346071D01*
Y344679D01*
X687783Y343392D01*
X688767Y342408D01*
X690054Y341875D01*
X691446D01*
X692733Y342408D01*
X693717Y343392D01*
X694250Y344679D01*
Y346071D01*
X693717Y347358D01*
X692733Y348342D01*
X691446Y348875D01*
D02*
G37*
G36*
X136446Y348750D02*
X135054D01*
X133767Y348217D01*
X132783Y347233D01*
X132250Y345946D01*
Y344554D01*
X132783Y343267D01*
X133767Y342283D01*
X135054Y341750D01*
X136446D01*
X137733Y342283D01*
X138717Y343267D01*
X139250Y344554D01*
Y345946D01*
X138717Y347233D01*
X137733Y348217D01*
X136446Y348750D01*
D02*
G37*
G36*
X736645Y348000D02*
X734855D01*
X733201Y347315D01*
X731935Y346049D01*
X731250Y344395D01*
Y342605D01*
X731935Y340951D01*
X733201Y339685D01*
X734855Y339000D01*
X736645D01*
X738299Y339685D01*
X739565Y340951D01*
X740250Y342605D01*
Y344395D01*
X739565Y346049D01*
X738299Y347315D01*
X736645Y348000D01*
D02*
G37*
G36*
X203933Y341679D02*
X202541D01*
X201254Y341147D01*
X200270Y340162D01*
X199737Y338876D01*
Y337483D01*
X200270Y336197D01*
X201254Y335212D01*
X202541Y334679D01*
X203933D01*
X205220Y335212D01*
X206204Y336197D01*
X206737Y337483D01*
Y338876D01*
X206204Y340162D01*
X205220Y341147D01*
X203933Y341679D01*
D02*
G37*
G36*
X767132Y354600D02*
X764368D01*
X761697Y353884D01*
X759303Y352502D01*
X757348Y350547D01*
X755966Y348153D01*
X755250Y345482D01*
Y342718D01*
X755966Y340047D01*
X757348Y337653D01*
X759303Y335698D01*
X761697Y334316D01*
X764368Y333600D01*
X767132D01*
X769803Y334316D01*
X772197Y335698D01*
X774152Y337653D01*
X775534Y340047D01*
X776250Y342718D01*
Y345482D01*
X775534Y348153D01*
X774152Y350547D01*
X772197Y352502D01*
X769803Y353884D01*
X767132Y354600D01*
D02*
G37*
G36*
X54645Y342000D02*
X52855D01*
X51201Y341315D01*
X49935Y340049D01*
X49250Y338395D01*
Y336605D01*
X49935Y334951D01*
X51201Y333685D01*
X52855Y333000D01*
X54645D01*
X56299Y333685D01*
X57565Y334951D01*
X58250Y336605D01*
Y338395D01*
X57565Y340049D01*
X56299Y341315D01*
X54645Y342000D01*
D02*
G37*
G36*
X135741Y339705D02*
X134349D01*
X133062Y339172D01*
X132078Y338187D01*
X131545Y336901D01*
Y335509D01*
X132078Y334222D01*
X133062Y333238D01*
X134349Y332705D01*
X135741D01*
X137028Y333238D01*
X138012Y334222D01*
X138545Y335509D01*
Y336901D01*
X138012Y338187D01*
X137028Y339172D01*
X135741Y339705D01*
D02*
G37*
G36*
X191011Y339489D02*
X189221D01*
X187567Y338804D01*
X186301Y337538D01*
X185616Y335884D01*
Y334094D01*
X186301Y332440D01*
X187567Y331174D01*
X189221Y330489D01*
X191011D01*
X192665Y331174D01*
X193931Y332440D01*
X194616Y334094D01*
Y335884D01*
X193931Y337538D01*
X192665Y338804D01*
X191011Y339489D01*
D02*
G37*
G36*
X247980Y338335D02*
X246190D01*
X244536Y337650D01*
X243270Y336384D01*
X242585Y334730D01*
Y332940D01*
X243270Y331286D01*
X244536Y330020D01*
X246190Y329335D01*
X247980D01*
X249634Y330020D01*
X250900Y331286D01*
X251585Y332940D01*
Y334730D01*
X250900Y336384D01*
X249634Y337650D01*
X247980Y338335D01*
D02*
G37*
G36*
X163340Y335957D02*
X161947D01*
X160661Y335424D01*
X159676Y334440D01*
X159143Y333153D01*
Y331761D01*
X159676Y330475D01*
X160661Y329490D01*
X161947Y328957D01*
X163340D01*
X164626Y329490D01*
X165611Y330475D01*
X166143Y331761D01*
Y333153D01*
X165611Y334440D01*
X164626Y335424D01*
X163340Y335957D01*
D02*
G37*
G36*
X228446Y335883D02*
X227054D01*
X225767Y335350D01*
X224783Y334366D01*
X224250Y333079D01*
Y331687D01*
X224783Y330401D01*
X225767Y329416D01*
X227054Y328883D01*
X228446D01*
X229733Y329416D01*
X230717Y330401D01*
X231250Y331687D01*
Y333079D01*
X230717Y334366D01*
X229733Y335350D01*
X228446Y335883D01*
D02*
G37*
G36*
X734446Y335000D02*
X733054D01*
X731767Y334467D01*
X730783Y333483D01*
X730250Y332196D01*
Y330804D01*
X730783Y329517D01*
X731767Y328533D01*
X733054Y328000D01*
X734446D01*
X735733Y328533D01*
X736717Y329517D01*
X737250Y330804D01*
Y332196D01*
X736717Y333483D01*
X735733Y334467D01*
X734446Y335000D01*
D02*
G37*
G36*
X301696Y333000D02*
X300304D01*
X299017Y332467D01*
X298033Y331483D01*
X297500Y330196D01*
Y328804D01*
X298033Y327517D01*
X299017Y326533D01*
X300304Y326000D01*
X301696D01*
X302983Y326533D01*
X303967Y327517D01*
X304500Y328804D01*
Y330196D01*
X303967Y331483D01*
X302983Y332467D01*
X301696Y333000D01*
D02*
G37*
G36*
X582446Y332000D02*
X581054D01*
X579767Y331467D01*
X578783Y330483D01*
X578250Y329196D01*
Y327804D01*
X578783Y326517D01*
X578464Y325040D01*
X578210Y324786D01*
X576733Y324467D01*
X575446Y325000D01*
X574054D01*
X572767Y324467D01*
X571783Y323483D01*
X571250Y322196D01*
Y320804D01*
X571783Y319517D01*
X572767Y318533D01*
X574054Y318000D01*
X575446D01*
X576733Y318533D01*
X577414Y319214D01*
X578891Y319533D01*
X580177Y319000D01*
X581570D01*
X582856Y319533D01*
X583841Y320517D01*
X584374Y321804D01*
Y323196D01*
X583841Y324483D01*
X584160Y325960D01*
X584717Y326517D01*
X585250Y327804D01*
Y329196D01*
X584717Y330483D01*
X583733Y331467D01*
X582446Y332000D01*
D02*
G37*
G36*
X281196Y343437D02*
X279804D01*
X278517Y342904D01*
X277533Y341920D01*
X277000Y340633D01*
Y339241D01*
X276839Y339000D01*
X275804D01*
X274517Y338467D01*
X273533Y337483D01*
X273000Y336196D01*
Y334804D01*
X273533Y333517D01*
X274517Y332533D01*
X275804Y332000D01*
X276208D01*
X277232Y331210D01*
X277250Y330827D01*
Y330002D01*
X277241Y329794D01*
X276279Y328828D01*
X275804D01*
X274517Y328296D01*
X273533Y327311D01*
X273000Y326025D01*
Y324632D01*
X273533Y323346D01*
X274517Y322361D01*
X275804Y321828D01*
X277196D01*
X278483Y322361D01*
X279467Y323346D01*
X280000Y324632D01*
Y325827D01*
X280009Y326034D01*
X280971Y327000D01*
X281446D01*
X282733Y327533D01*
X283717Y328517D01*
X284250Y329804D01*
Y331196D01*
X283717Y332483D01*
X282733Y333467D01*
X281446Y334000D01*
X281042D01*
X280018Y334790D01*
X280000Y335173D01*
Y336196D01*
X280161Y336437D01*
X281196D01*
X282483Y336970D01*
X283467Y337954D01*
X284000Y339241D01*
Y340633D01*
X283467Y341920D01*
X282483Y342904D01*
X281196Y343437D01*
D02*
G37*
G36*
X150446Y328000D02*
X149054D01*
X147767Y327467D01*
X146783Y326483D01*
X146250Y325196D01*
Y323804D01*
X146783Y322517D01*
X147767Y321533D01*
X149054Y321000D01*
X150446D01*
X151733Y321533D01*
X152717Y322517D01*
X153250Y323804D01*
Y325196D01*
X152717Y326483D01*
X151733Y327467D01*
X150446Y328000D01*
D02*
G37*
G36*
X118446D02*
X117054D01*
X115767Y327467D01*
X114783Y326483D01*
X114250Y325196D01*
Y323804D01*
X114783Y322517D01*
X115767Y321533D01*
X117054Y321000D01*
X118446D01*
X119733Y321533D01*
X120717Y322517D01*
X121250Y323804D01*
Y325196D01*
X120717Y326483D01*
X119733Y327467D01*
X118446Y328000D01*
D02*
G37*
G36*
X624446Y327000D02*
X623054D01*
X621767Y326467D01*
X620783Y325483D01*
X620250Y324196D01*
Y322804D01*
X620783Y321517D01*
X621767Y320533D01*
X623054Y320000D01*
X624446D01*
X625733Y320533D01*
X626717Y321517D01*
X627250Y322804D01*
Y324196D01*
X626717Y325483D01*
X625733Y326467D01*
X624446Y327000D01*
D02*
G37*
G36*
X92446Y326000D02*
X91054D01*
X89767Y325467D01*
X88783Y324483D01*
X88250Y323196D01*
Y321804D01*
X88783Y320517D01*
X89767Y319533D01*
X91054Y319000D01*
X92446D01*
X93733Y319533D01*
X94717Y320517D01*
X95250Y321804D01*
Y323196D01*
X94717Y324483D01*
X93733Y325467D01*
X92446Y326000D01*
D02*
G37*
G36*
X262446Y326000D02*
X261054D01*
X259767Y325467D01*
X258783Y324483D01*
X258250Y323196D01*
Y321804D01*
X258783Y320517D01*
X259767Y319533D01*
X261054Y319000D01*
X262446D01*
X263733Y319533D01*
X264717Y320517D01*
X265250Y321804D01*
Y323196D01*
X264717Y324483D01*
X263733Y325467D01*
X262446Y326000D01*
D02*
G37*
G36*
X669850Y325404D02*
X668458D01*
X667171Y324871D01*
X666187Y323886D01*
X665654Y322600D01*
Y321208D01*
X666187Y319921D01*
X667171Y318937D01*
X668458Y318404D01*
X669850D01*
X671136Y318937D01*
X672121Y319921D01*
X672654Y321208D01*
Y322600D01*
X672121Y323886D01*
X671136Y324871D01*
X669850Y325404D01*
D02*
G37*
G36*
X238411Y331857D02*
X237018D01*
X235732Y331324D01*
X234747Y330339D01*
X234215Y329053D01*
Y327660D01*
X234747Y326374D01*
X235555Y325566D01*
X235669Y324878D01*
X235570Y324082D01*
X234783Y323294D01*
X234250Y322008D01*
Y320616D01*
X234783Y319329D01*
X235767Y318345D01*
X237054Y317812D01*
X238446D01*
X239733Y318345D01*
X240717Y319329D01*
X241250Y320616D01*
Y322008D01*
X240717Y323294D01*
X239909Y324103D01*
X239796Y324790D01*
X239894Y325587D01*
X240682Y326374D01*
X241215Y327660D01*
Y329053D01*
X240682Y330339D01*
X239697Y331324D01*
X238411Y331857D01*
D02*
G37*
G36*
X126446Y322000D02*
X125054D01*
X123767Y321467D01*
X122783Y320483D01*
X122250Y319196D01*
Y317804D01*
X122783Y316517D01*
X123767Y315533D01*
X125054Y315000D01*
X126446D01*
X127733Y315533D01*
X128717Y316517D01*
X129250Y317804D01*
Y319196D01*
X128717Y320483D01*
X127733Y321467D01*
X126446Y322000D01*
D02*
G37*
G36*
X249699Y321000D02*
X248307D01*
X247020Y320467D01*
X246036Y319483D01*
X245503Y318196D01*
Y316804D01*
X246036Y315517D01*
X247020Y314533D01*
X248307Y314000D01*
X249699D01*
X250986Y314533D01*
X251970Y315517D01*
X252503Y316804D01*
Y318196D01*
X251970Y319483D01*
X250986Y320467D01*
X249699Y321000D01*
D02*
G37*
G36*
X274853Y319250D02*
X273461D01*
X272174Y318717D01*
X271190Y317733D01*
X270657Y316446D01*
Y315054D01*
X271190Y313767D01*
X272174Y312783D01*
X273461Y312250D01*
X274853D01*
X276139Y312783D01*
X277124Y313767D01*
X277657Y315054D01*
Y316446D01*
X277124Y317733D01*
X276139Y318717D01*
X274853Y319250D01*
D02*
G37*
G36*
X581446Y317000D02*
X580054D01*
X578767Y316467D01*
X577783Y315483D01*
X577250Y314196D01*
Y312804D01*
X577783Y311517D01*
X578767Y310533D01*
X580054Y310000D01*
X581446D01*
X582733Y310533D01*
X583717Y311517D01*
X584250Y312804D01*
Y314196D01*
X583717Y315483D01*
X582733Y316467D01*
X581446Y317000D01*
D02*
G37*
G36*
X767132Y329200D02*
X764368D01*
X761697Y328484D01*
X759303Y327102D01*
X757348Y325147D01*
X755966Y322753D01*
X755250Y320082D01*
Y317318D01*
X755966Y314647D01*
X757348Y312253D01*
X759303Y310298D01*
X761697Y308916D01*
X764368Y308200D01*
X767132D01*
X769803Y308916D01*
X772197Y310298D01*
X774152Y312253D01*
X775534Y314647D01*
X776250Y317318D01*
Y320082D01*
X775534Y322753D01*
X774152Y325147D01*
X772197Y327102D01*
X769803Y328484D01*
X767132Y329200D01*
D02*
G37*
G36*
X319446Y315000D02*
X318054D01*
X316767Y314467D01*
X315783Y313483D01*
X315250Y312196D01*
Y310804D01*
X315783Y309517D01*
X316767Y308533D01*
X318054Y308000D01*
X319446D01*
X320733Y308533D01*
X321717Y309517D01*
X322250Y310804D01*
Y312196D01*
X321717Y313483D01*
X320733Y314467D01*
X319446Y315000D01*
D02*
G37*
G36*
X150446Y309000D02*
X149054D01*
X147767Y308467D01*
X146783Y307483D01*
X146705Y307294D01*
X146331Y307154D01*
X145253Y307109D01*
X144530Y307833D01*
X143243Y308366D01*
X141851D01*
X140565Y307833D01*
X139580Y306848D01*
X139047Y305562D01*
Y304170D01*
X139580Y302883D01*
X140565Y301899D01*
X141851Y301366D01*
X143243D01*
X144530Y301899D01*
X145514Y302883D01*
X145593Y303072D01*
X145966Y303212D01*
X147044Y303256D01*
X147767Y302533D01*
X149054Y302000D01*
X149054D01*
X149591Y301196D01*
Y299804D01*
X150124Y298517D01*
X151109Y297533D01*
X152395Y297000D01*
X153787D01*
X155074Y297533D01*
X156058Y298517D01*
X156591Y299804D01*
Y301196D01*
X156058Y302483D01*
X155074Y303467D01*
X153787Y304000D01*
X153787D01*
X153250Y304804D01*
Y306196D01*
X152717Y307483D01*
X151733Y308467D01*
X150446Y309000D01*
D02*
G37*
G36*
X571446Y313000D02*
X570054D01*
X568767Y312467D01*
X567783Y311483D01*
X567250Y310196D01*
Y308804D01*
X567783Y307517D01*
X568767Y306533D01*
X570054Y306000D01*
X571446D01*
X572733Y306533D01*
X573717Y307517D01*
X574250Y308804D01*
Y310196D01*
X573717Y311483D01*
X572733Y312467D01*
X571446Y313000D01*
D02*
G37*
G36*
X305446Y311000D02*
X304054D01*
X302767Y310467D01*
X301783Y309483D01*
X301250Y308196D01*
Y306804D01*
X301783Y305517D01*
X302767Y304533D01*
X304054Y304000D01*
X305446D01*
X306733Y304533D01*
X307717Y305517D01*
X308250Y306804D01*
Y308196D01*
X307717Y309483D01*
X306733Y310467D01*
X305446Y311000D01*
D02*
G37*
G36*
X629520Y312875D02*
X627730D01*
X626076Y312190D01*
X624810Y310924D01*
X624125Y309270D01*
Y307480D01*
X624810Y305826D01*
X626076Y304560D01*
X627730Y303875D01*
X629520D01*
X631174Y304560D01*
X632440Y305826D01*
X633125Y307480D01*
Y309270D01*
X632440Y310924D01*
X631174Y312190D01*
X629520Y312875D01*
D02*
G37*
G36*
X549274Y308797D02*
X547882D01*
X546595Y308264D01*
X545611Y307280D01*
X545078Y305993D01*
Y304601D01*
X545611Y303315D01*
X546595Y302330D01*
X547882Y301797D01*
X549274D01*
X550561Y302330D01*
X551545Y303315D01*
X552078Y304601D01*
Y305993D01*
X551545Y307280D01*
X550561Y308264D01*
X549274Y308797D01*
D02*
G37*
G36*
X162356Y308792D02*
X160964D01*
X159677Y308259D01*
X158693Y307275D01*
X158160Y305988D01*
Y304596D01*
X158693Y303309D01*
X159677Y302325D01*
X160964Y301792D01*
X162356D01*
X163643Y302325D01*
X164627Y303309D01*
X165160Y304596D01*
Y305988D01*
X164627Y307275D01*
X163643Y308259D01*
X162356Y308792D01*
D02*
G37*
G36*
X130446Y308000D02*
X129054D01*
X127767Y307467D01*
X126783Y306483D01*
X126250Y305196D01*
Y303804D01*
X126783Y302517D01*
X127767Y301533D01*
X129054Y301000D01*
X130446D01*
X131733Y301533D01*
X132717Y302517D01*
X133250Y303804D01*
Y305196D01*
X132717Y306483D01*
X131733Y307467D01*
X130446Y308000D01*
D02*
G37*
G36*
X265236Y306461D02*
X263843D01*
X262557Y305928D01*
X261572Y304943D01*
X261039Y303657D01*
Y302264D01*
X261572Y300978D01*
X262557Y299993D01*
X263843Y299461D01*
X265236D01*
X266522Y299993D01*
X267507Y300978D01*
X268039Y302264D01*
Y303657D01*
X267507Y304943D01*
X266522Y305928D01*
X265236Y306461D01*
D02*
G37*
G36*
X720446Y304000D02*
X719054D01*
X717767Y303467D01*
X716783Y302483D01*
X716250Y301196D01*
Y299804D01*
X716783Y298517D01*
X717767Y297533D01*
X719054Y297000D01*
X720446D01*
X721733Y297533D01*
X722717Y298517D01*
X723250Y299804D01*
Y301196D01*
X722717Y302483D01*
X721733Y303467D01*
X720446Y304000D01*
D02*
G37*
G36*
X111446D02*
X110054D01*
X108767Y303467D01*
X107783Y302483D01*
X107250Y301196D01*
Y299804D01*
X107783Y298517D01*
X108767Y297533D01*
X110054Y297000D01*
X111446D01*
X112733Y297533D01*
X113717Y298517D01*
X114250Y299804D01*
Y301196D01*
X113717Y302483D01*
X112733Y303467D01*
X111446Y304000D01*
D02*
G37*
G36*
X669495Y310150D02*
X667705D01*
X666051Y309465D01*
X664785Y308199D01*
X664100Y306545D01*
Y304755D01*
X664785Y303101D01*
X665713Y302173D01*
X665542Y300893D01*
X665469Y300758D01*
X664767Y300467D01*
X663783Y299483D01*
X663250Y298196D01*
Y296804D01*
X663783Y295517D01*
X664767Y294533D01*
X666054Y294000D01*
X667446D01*
X668733Y294533D01*
X669717Y295517D01*
X670250Y296804D01*
Y298196D01*
X669717Y299483D01*
X669320Y299880D01*
X669389Y300385D01*
X669743Y301253D01*
X671149Y301835D01*
X672415Y303101D01*
X673100Y304755D01*
Y306545D01*
X672415Y308199D01*
X671149Y309465D01*
X669495Y310150D01*
D02*
G37*
G36*
X182446Y300000D02*
X181054D01*
X179767Y299467D01*
X178783Y298483D01*
X178250Y297196D01*
Y295804D01*
X178783Y294517D01*
X179767Y293533D01*
X181054Y293000D01*
X182446D01*
X183733Y293533D01*
X184717Y294517D01*
X185250Y295804D01*
Y297196D01*
X184717Y298483D01*
X183733Y299467D01*
X182446Y300000D01*
D02*
G37*
G36*
X264946Y297339D02*
X263554D01*
X262267Y296807D01*
X261283Y295822D01*
X260750Y294536D01*
Y293143D01*
X261283Y291857D01*
X262267Y290872D01*
X263554Y290340D01*
X264946D01*
X266233Y290872D01*
X267217Y291857D01*
X267750Y293143D01*
Y294536D01*
X267217Y295822D01*
X266233Y296807D01*
X264946Y297339D01*
D02*
G37*
G36*
X231666Y297556D02*
X230273D01*
X228987Y297023D01*
X228002Y296038D01*
X227469Y294752D01*
Y293360D01*
X228002Y292073D01*
X228987Y291089D01*
X230273Y290556D01*
X231666D01*
X232952Y291089D01*
X233262Y291398D01*
X234382Y291742D01*
X234888Y291366D01*
X235466Y290788D01*
X236753Y290255D01*
X238145D01*
X239431Y290788D01*
X240416Y291772D01*
X240949Y293058D01*
Y294451D01*
X240416Y295737D01*
X239431Y296722D01*
X238145Y297255D01*
X236753D01*
X235466Y296722D01*
X235156Y296412D01*
X234036Y296069D01*
X233530Y296445D01*
X232952Y297023D01*
X231666Y297556D01*
D02*
G37*
G36*
X119446Y297000D02*
X118054D01*
X116767Y296467D01*
X115783Y295483D01*
X115250Y294196D01*
Y292804D01*
X115783Y291517D01*
X116767Y290533D01*
X118054Y290000D01*
X119446D01*
X120733Y290533D01*
X121717Y291517D01*
X122250Y292804D01*
Y294196D01*
X121717Y295483D01*
X120733Y296467D01*
X119446Y297000D01*
D02*
G37*
G36*
X280196Y296539D02*
X278804D01*
X277517Y296007D01*
X276533Y295022D01*
X276000Y293736D01*
Y292343D01*
X276533Y291057D01*
X277517Y290072D01*
X278804Y289539D01*
X280196D01*
X281483Y290072D01*
X282467Y291057D01*
X283000Y292343D01*
Y293736D01*
X282467Y295022D01*
X281483Y296007D01*
X280196Y296539D01*
D02*
G37*
G36*
X206816Y300132D02*
X205424D01*
X204138Y299599D01*
X203153Y298615D01*
X202620Y297328D01*
Y295936D01*
X203153Y294650D01*
X204138Y293665D01*
X204147Y293617D01*
X203767Y292444D01*
X203250Y291196D01*
Y289804D01*
X203783Y288517D01*
X204767Y287533D01*
X206054Y287000D01*
X207446D01*
X208733Y287533D01*
X209717Y288517D01*
X210250Y289804D01*
Y291196D01*
X209717Y292483D01*
X208733Y293467D01*
X208595Y294158D01*
X209087Y294650D01*
X209620Y295936D01*
Y297328D01*
X209087Y298615D01*
X208103Y299599D01*
X206816Y300132D01*
D02*
G37*
G36*
X89446Y294000D02*
X88054D01*
X86767Y293467D01*
X85783Y292483D01*
X85250Y291196D01*
Y289804D01*
X85783Y288517D01*
X86767Y287533D01*
X88054Y287000D01*
X89446D01*
X90733Y287533D01*
X91717Y288517D01*
X92250Y289804D01*
Y291196D01*
X91717Y292483D01*
X90733Y293467D01*
X89446Y294000D01*
D02*
G37*
G36*
X155946Y293500D02*
X154554D01*
X153267Y292967D01*
X152283Y291983D01*
X151750Y290696D01*
Y289304D01*
X152283Y288017D01*
X153267Y287033D01*
X154554Y286500D01*
X155946D01*
X157233Y287033D01*
X158217Y288017D01*
X158750Y289304D01*
Y290696D01*
X158217Y291983D01*
X157233Y292967D01*
X155946Y293500D01*
D02*
G37*
G36*
X314446Y296000D02*
X313054D01*
X311767Y295467D01*
X310783Y294483D01*
X310250Y293196D01*
Y291804D01*
X310783Y290517D01*
X311767Y289533D01*
X313054Y289000D01*
X314446D01*
X314980Y289221D01*
X316175Y288829D01*
X316366Y288525D01*
X316783Y287517D01*
X317767Y286533D01*
X319054Y286000D01*
X320446D01*
X321733Y286533D01*
X322717Y287517D01*
X323250Y288804D01*
Y290196D01*
X322717Y291483D01*
X321733Y292467D01*
X320446Y293000D01*
X319054D01*
X318520Y292779D01*
X317325Y293172D01*
X317134Y293475D01*
X316717Y294483D01*
X315733Y295467D01*
X314446Y296000D01*
D02*
G37*
G36*
X144446Y292000D02*
X143054D01*
X141767Y291467D01*
X140783Y290483D01*
X140250Y289196D01*
Y287804D01*
X140783Y286517D01*
X141767Y285533D01*
X143054Y285000D01*
X144446D01*
X145733Y285533D01*
X146717Y286517D01*
X147250Y287804D01*
Y289196D01*
X146717Y290483D01*
X145733Y291467D01*
X144446Y292000D01*
D02*
G37*
G36*
X639446Y291000D02*
X638054D01*
X636767Y290467D01*
X635783Y289483D01*
X635250Y288196D01*
Y286804D01*
X635783Y285517D01*
X636767Y284533D01*
X638054Y284000D01*
X639446D01*
X640733Y284533D01*
X641717Y285517D01*
X642250Y286804D01*
Y288196D01*
X641717Y289483D01*
X640733Y290467D01*
X639446Y291000D01*
D02*
G37*
G36*
X130446D02*
X129054D01*
X127767Y290467D01*
X126783Y289483D01*
X126250Y288196D01*
Y286804D01*
X126783Y285517D01*
X127767Y284533D01*
X129054Y284000D01*
X130446D01*
X131733Y284533D01*
X132717Y285517D01*
X133250Y286804D01*
Y288196D01*
X132717Y289483D01*
X131733Y290467D01*
X130446Y291000D01*
D02*
G37*
G36*
X212881Y285000D02*
X211489D01*
X210202Y284467D01*
X209218Y283483D01*
X208685Y282196D01*
Y282174D01*
X207415Y281429D01*
X206736Y281710D01*
X205344D01*
X204057Y281177D01*
X203073Y280193D01*
X202540Y278906D01*
Y277514D01*
X203073Y276227D01*
X204057Y275243D01*
X205344Y274710D01*
X206736D01*
X208023Y275243D01*
X209007Y276227D01*
X209540Y277514D01*
Y277536D01*
X210810Y278281D01*
X211489Y278000D01*
X212881D01*
X214168Y278533D01*
X215152Y279517D01*
X215685Y280804D01*
Y282196D01*
X215152Y283483D01*
X214168Y284467D01*
X212881Y285000D01*
D02*
G37*
G36*
X674798Y287083D02*
X673406D01*
X672119Y286550D01*
X671135Y285566D01*
X670602Y284279D01*
Y282887D01*
X671135Y281601D01*
X672119Y280616D01*
X673406Y280083D01*
X674798D01*
X676084Y280616D01*
X677069Y281601D01*
X677602Y282887D01*
Y284279D01*
X677069Y285566D01*
X676084Y286550D01*
X674798Y287083D01*
D02*
G37*
G36*
X494645Y289000D02*
X492855D01*
X491201Y288315D01*
X489935Y287049D01*
X489250Y285395D01*
Y283605D01*
X489935Y281951D01*
X491201Y280685D01*
X492855Y280000D01*
X494645D01*
X496299Y280685D01*
X497565Y281951D01*
X498250Y283605D01*
Y285395D01*
X497565Y287049D01*
X496299Y288315D01*
X494645Y289000D01*
D02*
G37*
G36*
X166204Y283243D02*
X164811D01*
X163525Y282710D01*
X162540Y281725D01*
X162007Y280439D01*
Y279046D01*
X162540Y277760D01*
X163525Y276775D01*
X164811Y276243D01*
X166204D01*
X167490Y276775D01*
X168475Y277760D01*
X169007Y279046D01*
Y280439D01*
X168475Y281725D01*
X167490Y282710D01*
X166204Y283243D01*
D02*
G37*
G36*
X158446Y280000D02*
X157054D01*
X155767Y279467D01*
X154783Y278483D01*
X154250Y277196D01*
Y276609D01*
X152992Y275774D01*
X152446Y276000D01*
X151054D01*
X149767Y275467D01*
X148783Y274483D01*
X148250Y273196D01*
Y271804D01*
X148783Y270517D01*
X149767Y269533D01*
X151054Y269000D01*
X152446D01*
X153733Y269533D01*
X154717Y270517D01*
X155250Y271804D01*
Y272391D01*
X156508Y273226D01*
X157054Y273000D01*
X158446D01*
X159733Y273533D01*
X160717Y274517D01*
X161250Y275804D01*
Y277196D01*
X160717Y278483D01*
X159733Y279467D01*
X158446Y280000D01*
D02*
G37*
G36*
X367979Y282691D02*
X366587D01*
X365300Y282158D01*
X364316Y281173D01*
X363783Y279887D01*
Y278495D01*
X364316Y277208D01*
X365300Y276224D01*
X366587Y275691D01*
X367979D01*
X369266Y276224D01*
X370250Y277208D01*
X370783Y278495D01*
Y279887D01*
X370250Y281173D01*
X369266Y282158D01*
X367979Y282691D01*
D02*
G37*
G36*
X471446Y282000D02*
X470054D01*
X468767Y281467D01*
X467783Y280483D01*
X467250Y279196D01*
Y277804D01*
X467783Y276517D01*
X468767Y275533D01*
X470054Y275000D01*
X471446D01*
X472733Y275533D01*
X473717Y276517D01*
X474250Y277804D01*
Y279196D01*
X473717Y280483D01*
X472733Y281467D01*
X471446Y282000D01*
D02*
G37*
G36*
X668081Y280366D02*
X666688D01*
X665402Y279833D01*
X664417Y278848D01*
X663884Y277562D01*
Y276169D01*
X664417Y274883D01*
X665402Y273899D01*
X666688Y273366D01*
X668081D01*
X669367Y273899D01*
X670351Y274883D01*
X670884Y276169D01*
Y277562D01*
X670351Y278848D01*
X669367Y279833D01*
X668081Y280366D01*
D02*
G37*
G36*
X226155Y288117D02*
X224762D01*
X223476Y287585D01*
X222491Y286600D01*
X221958Y285314D01*
Y283921D01*
X222491Y282635D01*
X223476Y281650D01*
X224394Y281270D01*
X224141Y280000D01*
X223054Y280000D01*
X221767Y279467D01*
X220783Y278483D01*
X220250Y277196D01*
Y275804D01*
X220783Y274517D01*
X221767Y273533D01*
X223054Y273000D01*
X224446D01*
X225733Y273533D01*
X226717Y274517D01*
X227250Y275804D01*
Y277196D01*
X226717Y278483D01*
X225733Y279467D01*
X224815Y279848D01*
X225067Y281117D01*
X226155Y281117D01*
X227441Y281650D01*
X228426Y282635D01*
X228958Y283921D01*
Y285314D01*
X228426Y286600D01*
X227441Y287585D01*
X226155Y288117D01*
D02*
G37*
G36*
X513118Y279328D02*
X511725D01*
X510439Y278796D01*
X509454Y277811D01*
X508922Y276525D01*
Y275132D01*
X509454Y273846D01*
X510439Y272861D01*
X511725Y272328D01*
X513118D01*
X514404Y272861D01*
X515389Y273846D01*
X515922Y275132D01*
Y276525D01*
X515389Y277811D01*
X514404Y278796D01*
X513118Y279328D01*
D02*
G37*
G36*
X264446Y283750D02*
X263054D01*
X261767Y283217D01*
X260783Y282233D01*
X260250Y280946D01*
Y280042D01*
X259649Y279263D01*
X259105Y279000D01*
X258054D01*
X256767Y278467D01*
X255783Y277483D01*
X255250Y276196D01*
Y274804D01*
X255783Y273517D01*
X256767Y272533D01*
X258054Y272000D01*
X259446D01*
X260733Y272533D01*
X261717Y273517D01*
X262250Y274804D01*
Y275708D01*
X262851Y276487D01*
X263395Y276750D01*
X264446D01*
X265733Y277283D01*
X266717Y278267D01*
X267250Y279554D01*
Y280946D01*
X266717Y282233D01*
X265733Y283217D01*
X264446Y283750D01*
D02*
G37*
G36*
X103797Y290541D02*
X101411Y290056D01*
X99231Y288969D01*
X97407Y287355D01*
X96063Y285324D01*
X95290Y283014D01*
X95141Y280583D01*
X95627Y278197D01*
X96713Y276017D01*
X98327Y274193D01*
X100358Y272849D01*
X102668Y272076D01*
X105099Y271927D01*
X107486Y272413D01*
X109665Y273499D01*
X111489Y275113D01*
X112834Y277144D01*
X113607Y279454D01*
X113755Y281885D01*
X113270Y284272D01*
X112183Y286451D01*
X110569Y288275D01*
X108538Y289620D01*
X106228Y290393D01*
X103797Y290541D01*
D02*
G37*
G36*
X442155Y276112D02*
X440762D01*
X439476Y275579D01*
X438491Y274595D01*
X437958Y273309D01*
Y271916D01*
X438491Y270630D01*
X439476Y269645D01*
X440762Y269112D01*
X442155D01*
X443441Y269645D01*
X444426Y270630D01*
X444958Y271916D01*
Y273309D01*
X444426Y274595D01*
X443441Y275579D01*
X442155Y276112D01*
D02*
G37*
G36*
X78907Y285477D02*
X76521Y284992D01*
X74341Y283905D01*
X72517Y282291D01*
X71173Y280260D01*
X70400Y277950D01*
X70251Y275519D01*
X70737Y273133D01*
X71823Y270953D01*
X73437Y269129D01*
X73770Y268909D01*
X73171Y267782D01*
X72645Y268000D01*
X70855D01*
X69201Y267315D01*
X67935Y266049D01*
X67250Y264395D01*
Y262605D01*
X67935Y260951D01*
X69201Y259685D01*
X70855Y259000D01*
X72645D01*
X74299Y259685D01*
X75565Y260951D01*
X76250Y262605D01*
Y264395D01*
X75565Y266049D01*
X74918Y266696D01*
X75122Y267100D01*
X75704Y267706D01*
X77778Y267012D01*
X80209Y266863D01*
X82596Y267349D01*
X84775Y268435D01*
X86599Y270049D01*
X87944Y272080D01*
X88716Y274390D01*
X88865Y276821D01*
X88380Y279208D01*
X87293Y281387D01*
X85679Y283211D01*
X83648Y284556D01*
X81338Y285329D01*
X78907Y285477D01*
D02*
G37*
G36*
X678645Y275000D02*
X676855D01*
X675201Y274315D01*
X673935Y273049D01*
X673250Y271395D01*
Y269605D01*
X673935Y267951D01*
X675201Y266685D01*
X676855Y266000D01*
X678645D01*
X680299Y266685D01*
X681565Y267951D01*
X682250Y269605D01*
Y271395D01*
X681565Y273049D01*
X680299Y274315D01*
X678645Y275000D01*
D02*
G37*
G36*
X182986Y277076D02*
X181594D01*
X180307Y276543D01*
X179323Y275559D01*
X178790Y274272D01*
Y272880D01*
X179323Y271594D01*
X180307Y270609D01*
X181594Y270076D01*
X182660Y270076D01*
X182913Y268806D01*
X181881Y268379D01*
X180896Y267394D01*
X180364Y266108D01*
Y264715D01*
X180711Y263876D01*
X179778Y262888D01*
X179508Y263000D01*
X178115D01*
X176829Y262467D01*
X175844Y261483D01*
X175312Y260196D01*
Y258804D01*
X175844Y257517D01*
X176829Y256533D01*
X178115Y256000D01*
X179508D01*
X180794Y256533D01*
X181779Y257517D01*
X182312Y258804D01*
Y260196D01*
X181964Y261035D01*
X182897Y262024D01*
X183167Y261912D01*
X184560D01*
X185846Y262444D01*
X186831Y263429D01*
X187364Y264715D01*
Y266108D01*
X186831Y267394D01*
X185846Y268379D01*
X184560Y268912D01*
X183493Y268912D01*
X183241Y270182D01*
X184272Y270609D01*
X185257Y271594D01*
X185790Y272880D01*
Y274272D01*
X185257Y275559D01*
X184272Y276543D01*
X182986Y277076D01*
D02*
G37*
G36*
X280196Y288003D02*
X278804D01*
X277517Y287470D01*
X276533Y286486D01*
X276000Y285200D01*
Y283807D01*
X276533Y282521D01*
X276722Y282331D01*
X277486Y281502D01*
X276722Y280672D01*
X276533Y280483D01*
X276000Y279196D01*
Y277804D01*
X276533Y276517D01*
X277299Y275751D01*
X277427Y275000D01*
X277299Y274249D01*
X276533Y273483D01*
X276000Y272196D01*
Y270804D01*
X276533Y269517D01*
X277465Y268586D01*
X276533Y267654D01*
X276000Y266368D01*
Y264975D01*
X276533Y263689D01*
X277517Y262704D01*
X278804Y262171D01*
X280196D01*
X281483Y262704D01*
X282467Y263689D01*
X283000Y264975D01*
Y266368D01*
X282467Y267654D01*
X281535Y268586D01*
X282467Y269517D01*
X283000Y270804D01*
Y272196D01*
X282467Y273483D01*
X281701Y274249D01*
X281573Y275000D01*
X281701Y275751D01*
X282467Y276517D01*
X283000Y277804D01*
Y279196D01*
X282467Y280483D01*
X282278Y280672D01*
X281514Y281502D01*
X282278Y282331D01*
X282467Y282521D01*
X283000Y283807D01*
Y285200D01*
X282467Y286486D01*
X281483Y287470D01*
X280196Y288003D01*
D02*
G37*
G36*
X307196Y288000D02*
X305804D01*
X304517Y287467D01*
X303533Y286483D01*
X303000Y285196D01*
Y283804D01*
X303533Y282517D01*
X304517Y281533D01*
X305738Y281027D01*
X305809Y280990D01*
X306471Y279730D01*
X306250Y279196D01*
Y277804D01*
X306783Y276517D01*
X307549Y275751D01*
X307677Y275000D01*
X307549Y274249D01*
X306783Y273483D01*
X306250Y272196D01*
Y270804D01*
X306783Y269517D01*
X306971Y269330D01*
X307737Y268500D01*
X306971Y267670D01*
X306783Y267483D01*
X306250Y266196D01*
Y264804D01*
X306783Y263517D01*
X307767Y262533D01*
X309054Y262000D01*
X310446D01*
X311733Y262533D01*
X312717Y263517D01*
X313250Y264804D01*
Y266196D01*
X312717Y267483D01*
X312529Y267670D01*
X311763Y268500D01*
X312529Y269330D01*
X312717Y269517D01*
X313250Y270804D01*
Y272196D01*
X312717Y273483D01*
X311951Y274249D01*
X311823Y275000D01*
X311951Y275751D01*
X312717Y276517D01*
X313250Y277804D01*
Y279196D01*
X312717Y280483D01*
X311733Y281467D01*
X310512Y281973D01*
X310441Y282010D01*
X309779Y283270D01*
X310000Y283804D01*
Y285196D01*
X309467Y286483D01*
X308483Y287467D01*
X307196Y288000D01*
D02*
G37*
G36*
X625446Y264000D02*
X624054D01*
X622767Y263467D01*
X621783Y262483D01*
X621250Y261196D01*
Y259804D01*
X621783Y258517D01*
X622767Y257533D01*
X624054Y257000D01*
X625446D01*
X626733Y257533D01*
X627717Y258517D01*
X628250Y259804D01*
Y261196D01*
X627717Y262483D01*
X626733Y263467D01*
X625446Y264000D01*
D02*
G37*
G36*
X150446D02*
X149054D01*
X147767Y263467D01*
X146783Y262483D01*
X146250Y261196D01*
Y259804D01*
X146783Y258517D01*
X147767Y257533D01*
X149054Y257000D01*
X150446D01*
X151733Y257533D01*
X152717Y258517D01*
X153250Y259804D01*
Y261196D01*
X152717Y262483D01*
X151733Y263467D01*
X150446Y264000D01*
D02*
G37*
G36*
X259587Y257141D02*
X258195D01*
X256909Y256608D01*
X256589Y256289D01*
X255917Y255628D01*
X254930Y256289D01*
X254768Y256450D01*
X253481Y256983D01*
X252089D01*
X250803Y256450D01*
X249818Y255466D01*
X249285Y254179D01*
Y252787D01*
X249818Y251501D01*
X250803Y250516D01*
X252089Y249983D01*
X253481D01*
X254768Y250516D01*
X255088Y250836D01*
X255759Y251496D01*
X256747Y250836D01*
X256909Y250674D01*
X258195Y250141D01*
X259587D01*
X260874Y250674D01*
X261858Y251659D01*
X262391Y252945D01*
Y254337D01*
X261858Y255624D01*
X260874Y256608D01*
X259587Y257141D01*
D02*
G37*
G36*
X707446Y262000D02*
X706054D01*
X704767Y261467D01*
X703783Y260483D01*
X703250Y259196D01*
Y257804D01*
X703783Y256517D01*
X704767Y255533D01*
X706054Y255000D01*
X707446D01*
X708733Y255533D01*
X709717Y256517D01*
X710250Y257804D01*
Y259196D01*
X709717Y260483D01*
X708733Y261467D01*
X707446Y262000D01*
D02*
G37*
G36*
X242446Y260000D02*
X241054D01*
X239767Y259467D01*
X238783Y258483D01*
X238250Y257196D01*
Y255804D01*
X238783Y254517D01*
X239767Y253533D01*
X241054Y253000D01*
X242446D01*
X243733Y253533D01*
X244717Y254517D01*
X245250Y255804D01*
Y257196D01*
X244717Y258483D01*
X243733Y259467D01*
X242446Y260000D01*
D02*
G37*
G36*
X57145Y259750D02*
X55355D01*
X53701Y259065D01*
X52435Y257799D01*
X51750Y256145D01*
Y254355D01*
X52435Y252701D01*
X53701Y251435D01*
X55355Y250750D01*
X57145D01*
X58799Y251435D01*
X60065Y252701D01*
X60750Y254355D01*
Y256145D01*
X60065Y257799D01*
X58799Y259065D01*
X57145Y259750D01*
D02*
G37*
G36*
X170008Y263562D02*
X168615D01*
X167329Y263029D01*
X166344Y262044D01*
X165812Y260758D01*
Y259985D01*
X164743Y259093D01*
X164638Y259066D01*
X162921D01*
X161267Y258381D01*
X160001Y257115D01*
X159316Y255461D01*
Y253671D01*
X160001Y252017D01*
X161267Y250751D01*
X162921Y250066D01*
X164711D01*
X166365Y250751D01*
X167631Y252017D01*
X168316Y253671D01*
Y255388D01*
X168343Y255493D01*
X169235Y256562D01*
X170008D01*
X171294Y257094D01*
X172279Y258079D01*
X172812Y259365D01*
Y260758D01*
X172279Y262044D01*
X171294Y263029D01*
X170008Y263562D01*
D02*
G37*
G36*
X193012Y258152D02*
X191619D01*
X190333Y257619D01*
X189348Y256635D01*
X188815Y255348D01*
Y253956D01*
X189348Y252670D01*
X190333Y251685D01*
X191619Y251152D01*
X193012D01*
X194298Y251685D01*
X195230Y252617D01*
X195502Y252601D01*
X196500Y252290D01*
Y252105D01*
X197185Y250451D01*
X198451Y249185D01*
X200105Y248500D01*
X201895D01*
X203549Y249185D01*
X204815Y250451D01*
X205500Y252105D01*
Y253895D01*
X204815Y255549D01*
X203549Y256815D01*
X201895Y257500D01*
X200105D01*
X198451Y256815D01*
X197185Y255549D01*
X197085Y255308D01*
X196146Y255338D01*
X195771Y255455D01*
X195283Y256635D01*
X194298Y257619D01*
X193012Y258152D01*
D02*
G37*
G36*
X108861Y265651D02*
X106475Y265166D01*
X104295Y264079D01*
X102471Y262465D01*
X101127Y260434D01*
X100354Y258124D01*
X100205Y255693D01*
X100691Y253307D01*
X101777Y251127D01*
X103391Y249303D01*
X105422Y247959D01*
X107732Y247186D01*
X110163Y247037D01*
X112550Y247523D01*
X114729Y248609D01*
X116553Y250223D01*
X117898Y252254D01*
X118671Y254564D01*
X118819Y256995D01*
X118334Y259382D01*
X117247Y261561D01*
X115633Y263385D01*
X113602Y264730D01*
X111292Y265502D01*
X108861Y265651D01*
D02*
G37*
G36*
X235446Y253000D02*
X234054D01*
X232767Y252467D01*
X231783Y251483D01*
X231250Y250196D01*
Y248804D01*
X231783Y247517D01*
X232767Y246533D01*
X234054Y246000D01*
X235446D01*
X236733Y246533D01*
X237717Y247517D01*
X238250Y248804D01*
Y250196D01*
X237717Y251483D01*
X236733Y252467D01*
X235446Y253000D01*
D02*
G37*
G36*
X581645Y252000D02*
X579855D01*
X578201Y251315D01*
X576935Y250049D01*
X576250Y248395D01*
Y246605D01*
X576935Y244951D01*
X578201Y243685D01*
X579855Y243000D01*
X581645D01*
X583299Y243685D01*
X584565Y244951D01*
X585250Y246605D01*
Y248395D01*
X584565Y250049D01*
X583299Y251315D01*
X581645Y252000D01*
D02*
G37*
G36*
X676446Y250000D02*
X675054D01*
X673767Y249467D01*
X672783Y248483D01*
X672250Y247196D01*
Y245804D01*
X672783Y244517D01*
X673767Y243533D01*
X675054Y243000D01*
X676446D01*
X677733Y243533D01*
X678717Y244517D01*
X678980Y245152D01*
X680250Y244899D01*
Y244804D01*
X680783Y243517D01*
X681767Y242533D01*
X683054Y242000D01*
X684446D01*
X685733Y242533D01*
X686717Y243517D01*
X687250Y244804D01*
Y246196D01*
X686717Y247483D01*
X685733Y248467D01*
X684446Y249000D01*
X683054D01*
X681767Y248467D01*
X680783Y247483D01*
X680520Y246848D01*
X679250Y247101D01*
Y247196D01*
X678717Y248483D01*
X677733Y249467D01*
X676446Y250000D01*
D02*
G37*
G36*
X83971Y260587D02*
X81585Y260102D01*
X79405Y259015D01*
X77581Y257401D01*
X76237Y255370D01*
X75464Y253060D01*
X75315Y250629D01*
X75801Y248243D01*
X76887Y246063D01*
X78501Y244239D01*
X80532Y242895D01*
X82842Y242122D01*
X85273Y241973D01*
X87660Y242459D01*
X89839Y243545D01*
X91663Y245159D01*
X93008Y247190D01*
X93780Y249500D01*
X93929Y251931D01*
X93444Y254318D01*
X92357Y256497D01*
X90743Y258321D01*
X88712Y259666D01*
X86402Y260439D01*
X83971Y260587D01*
D02*
G37*
G36*
X648446Y247000D02*
X647054D01*
X645767Y246467D01*
X644783Y245483D01*
X644250Y244196D01*
Y242804D01*
X644783Y241517D01*
X645767Y240533D01*
X647054Y240000D01*
X648446D01*
X649733Y240533D01*
X650717Y241517D01*
X651250Y242804D01*
Y244196D01*
X650717Y245483D01*
X649733Y246467D01*
X648446Y247000D01*
D02*
G37*
G36*
X281696Y246000D02*
X280304D01*
X279017Y245467D01*
X278033Y244483D01*
X277500Y243196D01*
Y241804D01*
X278033Y240517D01*
X279017Y239533D01*
X280304Y239000D01*
X281696D01*
X282983Y239533D01*
X283967Y240517D01*
X284500Y241804D01*
Y243196D01*
X283967Y244483D01*
X282983Y245467D01*
X281696Y246000D01*
D02*
G37*
G36*
X261196D02*
X259804D01*
X258517Y245467D01*
X257533Y244483D01*
X257000Y243196D01*
Y241804D01*
X257533Y240517D01*
X258517Y239533D01*
X259804Y239000D01*
X261196D01*
X262483Y239533D01*
X263467Y240517D01*
X264000Y241804D01*
Y243196D01*
X263467Y244483D01*
X262483Y245467D01*
X261196Y246000D01*
D02*
G37*
G36*
X147168Y240029D02*
X145775D01*
X144489Y239496D01*
X143504Y238512D01*
X142972Y237225D01*
Y235833D01*
X143504Y234547D01*
X144489Y233562D01*
X145775Y233029D01*
X147168D01*
X148454Y233562D01*
X148980Y234088D01*
X149615Y233946D01*
X150321Y233633D01*
X150783Y232517D01*
X151767Y231533D01*
X153054Y231000D01*
X154446D01*
X155733Y231533D01*
X156717Y232517D01*
X157250Y233804D01*
Y235196D01*
X156717Y236483D01*
X155733Y237467D01*
X154446Y238000D01*
X153054D01*
X151767Y237467D01*
X151242Y236941D01*
X150607Y237083D01*
X149901Y237397D01*
X149439Y238512D01*
X148454Y239496D01*
X147168Y240029D01*
D02*
G37*
G36*
X641645Y234000D02*
X639855D01*
X638201Y233315D01*
X636935Y232049D01*
X636250Y230395D01*
Y228605D01*
X636935Y226951D01*
X638201Y225685D01*
X639855Y225000D01*
X641645D01*
X643299Y225685D01*
X644565Y226951D01*
X645250Y228605D01*
Y230395D01*
X644565Y232049D01*
X643299Y233315D01*
X641645Y234000D01*
D02*
G37*
G36*
X287446Y232000D02*
X286054D01*
X284767Y231467D01*
X283783Y230483D01*
X283250Y229196D01*
Y227804D01*
X283783Y226517D01*
X284767Y225533D01*
X286054Y225000D01*
X287446D01*
X288733Y225533D01*
X289717Y226517D01*
X290250Y227804D01*
Y229196D01*
X289717Y230483D01*
X288733Y231467D01*
X287446Y232000D01*
D02*
G37*
G36*
X113925Y240761D02*
X111539Y240275D01*
X109359Y239189D01*
X107535Y237575D01*
X106191Y235544D01*
X105418Y233234D01*
X105269Y230803D01*
X105755Y228417D01*
X106841Y226237D01*
X108455Y224413D01*
X110486Y223068D01*
X112796Y222296D01*
X115227Y222147D01*
X117614Y222633D01*
X119793Y223719D01*
X121617Y225333D01*
X122962Y227364D01*
X123735Y229674D01*
X123883Y232105D01*
X123398Y234492D01*
X122311Y236671D01*
X120697Y238495D01*
X118666Y239840D01*
X116356Y240612D01*
X113925Y240761D01*
D02*
G37*
G36*
X237446Y233000D02*
X236054D01*
X234767Y232467D01*
X233783Y231483D01*
X233250Y230196D01*
Y228804D01*
X233783Y227517D01*
X234767Y226533D01*
X235372Y226282D01*
X235640Y225696D01*
X235842Y224831D01*
X235840Y224819D01*
X235250Y223395D01*
Y221605D01*
X235935Y219951D01*
X237201Y218685D01*
X238855Y218000D01*
X240645D01*
X242299Y218685D01*
X243565Y219951D01*
X244250Y221605D01*
Y223395D01*
X243565Y225049D01*
X242299Y226315D01*
X240754Y226955D01*
X240636Y227019D01*
X240029Y228270D01*
X240250Y228804D01*
Y230196D01*
X239717Y231483D01*
X238733Y232467D01*
X237446Y233000D01*
D02*
G37*
G36*
X502634Y236650D02*
X500066D01*
X497587Y235986D01*
X495363Y234702D01*
X493548Y232887D01*
X492265Y230663D01*
X491600Y228184D01*
Y225616D01*
X492265Y223137D01*
X493548Y220913D01*
X495363Y219098D01*
X497587Y217815D01*
X500066Y217150D01*
X502634D01*
X505113Y217815D01*
X507337Y219098D01*
X509152Y220913D01*
X510435Y223137D01*
X511100Y225616D01*
Y228184D01*
X510435Y230663D01*
X509152Y232887D01*
X507337Y234702D01*
X505113Y235986D01*
X502634Y236650D01*
D02*
G37*
G36*
X477234D02*
X474666D01*
X472187Y235986D01*
X469963Y234702D01*
X468148Y232887D01*
X466865Y230663D01*
X466200Y228184D01*
Y225616D01*
X466865Y223137D01*
X468148Y220913D01*
X469963Y219098D01*
X472187Y217815D01*
X474666Y217150D01*
X477234D01*
X479713Y217815D01*
X481937Y219098D01*
X483752Y220913D01*
X485036Y223137D01*
X485700Y225616D01*
Y228184D01*
X485036Y230663D01*
X483752Y232887D01*
X481937Y234702D01*
X479713Y235986D01*
X477234Y236650D01*
D02*
G37*
G36*
X426434D02*
X423866D01*
X421387Y235986D01*
X419163Y234702D01*
X417348Y232887D01*
X416064Y230663D01*
X415400Y228184D01*
Y225616D01*
X416064Y223137D01*
X417348Y220913D01*
X419163Y219098D01*
X421387Y217815D01*
X423866Y217150D01*
X426434D01*
X428913Y217815D01*
X431137Y219098D01*
X432952Y220913D01*
X434235Y223137D01*
X434900Y225616D01*
Y228184D01*
X434235Y230663D01*
X432952Y232887D01*
X431137Y234702D01*
X428913Y235986D01*
X426434Y236650D01*
D02*
G37*
G36*
X401034D02*
X398466D01*
X395987Y235986D01*
X393763Y234702D01*
X391948Y232887D01*
X390664Y230663D01*
X390000Y228184D01*
Y225616D01*
X390664Y223137D01*
X391948Y220913D01*
X393763Y219098D01*
X395987Y217815D01*
X398466Y217150D01*
X401034D01*
X403513Y217815D01*
X405737Y219098D01*
X407552Y220913D01*
X408835Y223137D01*
X409500Y225616D01*
Y228184D01*
X408835Y230663D01*
X407552Y232887D01*
X405737Y234702D01*
X403513Y235986D01*
X401034Y236650D01*
D02*
G37*
G36*
X375634D02*
X373066D01*
X370587Y235986D01*
X368363Y234702D01*
X366548Y232887D01*
X365265Y230663D01*
X364600Y228184D01*
Y225616D01*
X365265Y223137D01*
X366548Y220913D01*
X368363Y219098D01*
X370587Y217815D01*
X373066Y217150D01*
X375634D01*
X378113Y217815D01*
X380337Y219098D01*
X382152Y220913D01*
X383436Y223137D01*
X384100Y225616D01*
Y228184D01*
X383436Y230663D01*
X382152Y232887D01*
X380337Y234702D01*
X378113Y235986D01*
X375634Y236650D01*
D02*
G37*
G36*
X350234D02*
X347666D01*
X345187Y235986D01*
X342963Y234702D01*
X341148Y232887D01*
X339865Y230663D01*
X339200Y228184D01*
Y225616D01*
X339865Y223137D01*
X341148Y220913D01*
X342963Y219098D01*
X345187Y217815D01*
X347666Y217150D01*
X350234D01*
X352713Y217815D01*
X354937Y219098D01*
X356752Y220913D01*
X358036Y223137D01*
X358700Y225616D01*
Y228184D01*
X358036Y230663D01*
X356752Y232887D01*
X354937Y234702D01*
X352713Y235986D01*
X350234Y236650D01*
D02*
G37*
G36*
X324834D02*
X322266D01*
X319787Y235986D01*
X317563Y234702D01*
X315748Y232887D01*
X314464Y230663D01*
X313800Y228184D01*
Y225616D01*
X314464Y223137D01*
X315748Y220913D01*
X317563Y219098D01*
X319787Y217815D01*
X322266Y217150D01*
X324834D01*
X327313Y217815D01*
X329537Y219098D01*
X331352Y220913D01*
X332635Y223137D01*
X333300Y225616D01*
Y228184D01*
X332635Y230663D01*
X331352Y232887D01*
X329537Y234702D01*
X327313Y235986D01*
X324834Y236650D01*
D02*
G37*
G36*
X148561Y224115D02*
X147169D01*
X145883Y223582D01*
X144898Y222598D01*
X144365Y221311D01*
Y219919D01*
X144898Y218633D01*
X145883Y217648D01*
X147169Y217115D01*
X148561D01*
X149848Y217648D01*
X150832Y218633D01*
X151365Y219919D01*
Y221311D01*
X150832Y222598D01*
X149848Y223582D01*
X148561Y224115D01*
D02*
G37*
G36*
X89035Y235697D02*
X86649Y235212D01*
X84469Y234125D01*
X82645Y232511D01*
X81300Y230480D01*
X80528Y228170D01*
X80379Y225739D01*
X80864Y223353D01*
X81951Y221173D01*
X83565Y219349D01*
X85596Y218004D01*
X87906Y217232D01*
X90337Y217083D01*
X92724Y217569D01*
X94903Y218655D01*
X96727Y220269D01*
X98072Y222300D01*
X98844Y224610D01*
X98993Y227041D01*
X98508Y229428D01*
X97421Y231607D01*
X95807Y233431D01*
X93776Y234776D01*
X91466Y235548D01*
X89035Y235697D01*
D02*
G37*
G36*
X307446Y223000D02*
X306054D01*
X304767Y222467D01*
X303783Y221483D01*
X303250Y220196D01*
Y218804D01*
X303783Y217517D01*
X304767Y216533D01*
X306054Y216000D01*
X307446D01*
X308733Y216533D01*
X309717Y217517D01*
X310250Y218804D01*
Y220196D01*
X309717Y221483D01*
X308733Y222467D01*
X307446Y223000D01*
D02*
G37*
G36*
X649446Y221000D02*
X648054D01*
X646767Y220467D01*
X645783Y219483D01*
X645250Y218196D01*
Y216804D01*
X645783Y215517D01*
X646767Y214533D01*
X648054Y214000D01*
X649446D01*
X650733Y214533D01*
X651717Y215517D01*
X652250Y216804D01*
Y218196D01*
X651717Y219483D01*
X650733Y220467D01*
X649446Y221000D01*
D02*
G37*
G36*
X80196Y218750D02*
X78804D01*
X77517Y218217D01*
X76533Y217233D01*
X76000Y215946D01*
Y214554D01*
X76533Y213267D01*
X77517Y212283D01*
X78804Y211750D01*
X80196D01*
X81483Y212283D01*
X82467Y213267D01*
X83000Y214554D01*
Y215946D01*
X82467Y217233D01*
X81483Y218217D01*
X80196Y218750D01*
D02*
G37*
G36*
X601645Y216000D02*
X599855D01*
X598201Y215315D01*
X596935Y214049D01*
X596250Y212395D01*
Y210605D01*
X596935Y208951D01*
X598201Y207685D01*
X599855Y207000D01*
X601645D01*
X603299Y207685D01*
X604565Y208951D01*
X605250Y210605D01*
Y212395D01*
X604565Y214049D01*
X603299Y215315D01*
X601645Y216000D01*
D02*
G37*
G36*
X705395Y212500D02*
X703605D01*
X701951Y211815D01*
X700685Y210549D01*
X700000Y208895D01*
Y207105D01*
X700685Y205451D01*
X701951Y204185D01*
X703605Y203500D01*
X705395D01*
X707049Y204185D01*
X708315Y205451D01*
X709000Y207105D01*
Y208895D01*
X708315Y210549D01*
X707049Y211815D01*
X705395Y212500D01*
D02*
G37*
G36*
X284645Y211000D02*
X282855D01*
X281201Y210315D01*
X279935Y209049D01*
X279250Y207395D01*
Y205605D01*
X279935Y203951D01*
X281201Y202685D01*
X282855Y202000D01*
X284645D01*
X286299Y202685D01*
X287565Y203951D01*
X288250Y205605D01*
Y207395D01*
X287565Y209049D01*
X286299Y210315D01*
X284645Y211000D01*
D02*
G37*
G36*
X47446Y205000D02*
X46054D01*
X44767Y204467D01*
X43783Y203483D01*
X43250Y202196D01*
Y200804D01*
X43783Y199517D01*
X44767Y198533D01*
X46054Y198000D01*
X47446D01*
X48733Y198533D01*
X49717Y199517D01*
X50250Y200804D01*
Y202196D01*
X49717Y203483D01*
X48733Y204467D01*
X47446Y205000D01*
D02*
G37*
G36*
X118989Y215871D02*
X116603Y215385D01*
X114423Y214299D01*
X112599Y212685D01*
X111255Y210654D01*
X110482Y208344D01*
X110333Y205913D01*
X110819Y203526D01*
X111905Y201347D01*
X113519Y199523D01*
X115550Y198178D01*
X117860Y197405D01*
X120291Y197257D01*
X122678Y197742D01*
X124857Y198829D01*
X126681Y200443D01*
X128026Y202474D01*
X128799Y204784D01*
X128947Y207215D01*
X128462Y209601D01*
X127375Y211781D01*
X125761Y213605D01*
X123730Y214949D01*
X121420Y215722D01*
X118989Y215871D01*
D02*
G37*
G36*
X307645Y205000D02*
X305855D01*
X304201Y204315D01*
X302935Y203049D01*
X302250Y201395D01*
Y199605D01*
X302935Y197951D01*
X304201Y196685D01*
X305855Y196000D01*
X307645D01*
X309299Y196685D01*
X310565Y197951D01*
X311250Y199605D01*
Y201395D01*
X310565Y203049D01*
X309299Y204315D01*
X307645Y205000D01*
D02*
G37*
G36*
X654446Y200000D02*
X653054D01*
X651767Y199467D01*
X650783Y198483D01*
X650250Y197196D01*
Y195804D01*
X650783Y194517D01*
X651767Y193533D01*
X653054Y193000D01*
X654446D01*
X655733Y193533D01*
X656717Y194517D01*
X657250Y195804D01*
Y197196D01*
X656717Y198483D01*
X655733Y199467D01*
X654446Y200000D01*
D02*
G37*
G36*
X94099Y210807D02*
X91713Y210322D01*
X89533Y209235D01*
X87709Y207621D01*
X86364Y205590D01*
X85592Y203280D01*
X85443Y200849D01*
X85928Y198463D01*
X87015Y196283D01*
X88629Y194459D01*
X90660Y193114D01*
X92970Y192342D01*
X95401Y192193D01*
X97788Y192679D01*
X99967Y193765D01*
X101791Y195379D01*
X103136Y197410D01*
X103908Y199720D01*
X104057Y202151D01*
X103572Y204538D01*
X102485Y206717D01*
X100871Y208541D01*
X98840Y209886D01*
X96530Y210658D01*
X94099Y210807D01*
D02*
G37*
G36*
X502634Y211250D02*
X500066D01*
X497587Y210585D01*
X495363Y209302D01*
X493548Y207487D01*
X492265Y205263D01*
X491600Y202784D01*
Y200216D01*
X492265Y197737D01*
X493548Y195513D01*
X495363Y193698D01*
X497587Y192414D01*
X500066Y191750D01*
X502634D01*
X505113Y192414D01*
X507337Y193698D01*
X509152Y195513D01*
X510435Y197737D01*
X511100Y200216D01*
Y202784D01*
X510435Y205263D01*
X509152Y207487D01*
X507337Y209302D01*
X505113Y210585D01*
X502634Y211250D01*
D02*
G37*
G36*
X477234D02*
X474666D01*
X472187Y210585D01*
X469963Y209302D01*
X468148Y207487D01*
X466865Y205263D01*
X466200Y202784D01*
Y200216D01*
X466865Y197737D01*
X468148Y195513D01*
X469963Y193698D01*
X472187Y192414D01*
X474666Y191750D01*
X477234D01*
X479713Y192414D01*
X481937Y193698D01*
X483752Y195513D01*
X485036Y197737D01*
X485700Y200216D01*
Y202784D01*
X485036Y205263D01*
X483752Y207487D01*
X481937Y209302D01*
X479713Y210585D01*
X477234Y211250D01*
D02*
G37*
G36*
X426434D02*
X423866D01*
X421387Y210585D01*
X419163Y209302D01*
X417348Y207487D01*
X416064Y205263D01*
X415400Y202784D01*
Y200216D01*
X416064Y197737D01*
X417348Y195513D01*
X419163Y193698D01*
X421387Y192414D01*
X423866Y191750D01*
X426434D01*
X428913Y192414D01*
X431137Y193698D01*
X432952Y195513D01*
X434235Y197737D01*
X434900Y200216D01*
Y202784D01*
X434235Y205263D01*
X432952Y207487D01*
X431137Y209302D01*
X428913Y210585D01*
X426434Y211250D01*
D02*
G37*
G36*
X401034D02*
X398466D01*
X395987Y210585D01*
X393763Y209302D01*
X391948Y207487D01*
X390664Y205263D01*
X390000Y202784D01*
Y200216D01*
X390664Y197737D01*
X391948Y195513D01*
X393763Y193698D01*
X395987Y192414D01*
X398466Y191750D01*
X401034D01*
X403513Y192414D01*
X405737Y193698D01*
X407552Y195513D01*
X408835Y197737D01*
X409500Y200216D01*
Y202784D01*
X408835Y205263D01*
X407552Y207487D01*
X405737Y209302D01*
X403513Y210585D01*
X401034Y211250D01*
D02*
G37*
G36*
X375634D02*
X373066D01*
X370587Y210585D01*
X368363Y209302D01*
X366548Y207487D01*
X365265Y205263D01*
X364600Y202784D01*
Y200216D01*
X365265Y197737D01*
X366548Y195513D01*
X368363Y193698D01*
X370587Y192414D01*
X373066Y191750D01*
X375634D01*
X378113Y192414D01*
X380337Y193698D01*
X382152Y195513D01*
X383436Y197737D01*
X384100Y200216D01*
Y202784D01*
X383436Y205263D01*
X382152Y207487D01*
X380337Y209302D01*
X378113Y210585D01*
X375634Y211250D01*
D02*
G37*
G36*
X350234D02*
X347666D01*
X345187Y210585D01*
X342963Y209302D01*
X341148Y207487D01*
X339865Y205263D01*
X339200Y202784D01*
Y200216D01*
X339865Y197737D01*
X341148Y195513D01*
X342963Y193698D01*
X345187Y192414D01*
X347666Y191750D01*
X350234D01*
X352713Y192414D01*
X354937Y193698D01*
X356752Y195513D01*
X358036Y197737D01*
X358700Y200216D01*
Y202784D01*
X358036Y205263D01*
X356752Y207487D01*
X354937Y209302D01*
X352713Y210585D01*
X350234Y211250D01*
D02*
G37*
G36*
X333300D02*
X313800D01*
Y191750D01*
X333300D01*
Y211250D01*
D02*
G37*
G36*
X760804Y212377D02*
X758040Y212329D01*
X755382Y211567D01*
X753012Y210143D01*
X751092Y208154D01*
X749752Y205736D01*
X749083Y203053D01*
X749131Y200289D01*
X749893Y197631D01*
X751317Y195262D01*
X753306Y193341D01*
X755724Y192001D01*
X758406Y191332D01*
X761171Y191380D01*
X763828Y192142D01*
X766198Y193566D01*
X768119Y195555D01*
X769459Y197973D01*
X770128Y200656D01*
X770079Y203420D01*
X769317Y206077D01*
X767894Y208447D01*
X765905Y210368D01*
X763487Y211708D01*
X760804Y212377D01*
D02*
G37*
G36*
X568446Y198000D02*
X567054D01*
X565767Y197467D01*
X564783Y196483D01*
X564250Y195196D01*
Y193804D01*
X564783Y192517D01*
X565767Y191533D01*
X567054Y191000D01*
X568446D01*
X569733Y191533D01*
X570717Y192517D01*
X571250Y193804D01*
Y195196D01*
X570717Y196483D01*
X569733Y197467D01*
X568446Y198000D01*
D02*
G37*
G36*
X190986Y196189D02*
X189593D01*
X188307Y195656D01*
X187322Y194671D01*
X186790Y193385D01*
Y191993D01*
X187322Y190706D01*
X188307Y189722D01*
X189593Y189189D01*
X190986D01*
X192272Y189722D01*
X193257Y190706D01*
X193790Y191993D01*
Y193385D01*
X193257Y194671D01*
X192272Y195656D01*
X190986Y196189D01*
D02*
G37*
G36*
X582645Y197000D02*
X580855D01*
X579201Y196315D01*
X577935Y195049D01*
X577250Y193395D01*
Y191605D01*
X577935Y189951D01*
X579201Y188685D01*
X580855Y188000D01*
X582645D01*
X584299Y188685D01*
X585565Y189951D01*
X586250Y191605D01*
Y193395D01*
X585565Y195049D01*
X584299Y196315D01*
X582645Y197000D01*
D02*
G37*
G36*
X178561Y194115D02*
X177169D01*
X175882Y193582D01*
X174898Y192598D01*
X174365Y191311D01*
Y189919D01*
X174898Y188633D01*
X175882Y187648D01*
X177169Y187115D01*
X178561D01*
X179848Y187648D01*
X180832Y188633D01*
X181365Y189919D01*
Y191311D01*
X180832Y192598D01*
X179848Y193582D01*
X178561Y194115D01*
D02*
G37*
G36*
X127196Y192750D02*
X125804D01*
X124517Y192217D01*
X123533Y191233D01*
X123000Y189946D01*
Y188554D01*
X123533Y187267D01*
X124517Y186283D01*
X125804Y185750D01*
X127196D01*
X128483Y186283D01*
X129467Y187267D01*
X130000Y188554D01*
Y189946D01*
X129467Y191233D01*
X128483Y192217D01*
X127196Y192750D01*
D02*
G37*
G36*
X170446Y185000D02*
X169054D01*
X167767Y184467D01*
X166783Y183483D01*
X166250Y182196D01*
Y180804D01*
X166783Y179517D01*
X167767Y178533D01*
X169054Y178000D01*
X170446D01*
X171733Y178533D01*
X172717Y179517D01*
X173250Y180804D01*
Y182196D01*
X172717Y183483D01*
X171733Y184467D01*
X170446Y185000D01*
D02*
G37*
G36*
X200446Y182955D02*
X199054D01*
X197767Y182422D01*
X196783Y181438D01*
X196250Y180152D01*
Y178759D01*
X196783Y177473D01*
X197767Y176488D01*
X199054Y175955D01*
X200446D01*
X201733Y176488D01*
X202717Y177473D01*
X203250Y178759D01*
Y180152D01*
X202717Y181438D01*
X201733Y182422D01*
X200446Y182955D01*
D02*
G37*
G36*
X266101Y178376D02*
X264708D01*
X263422Y177843D01*
X262437Y176859D01*
X261904Y175572D01*
Y174180D01*
X262437Y172894D01*
X263422Y171909D01*
X264708Y171376D01*
X266101D01*
X267387Y171909D01*
X268372Y172894D01*
X268904Y174180D01*
Y175572D01*
X268372Y176859D01*
X267387Y177843D01*
X266101Y178376D01*
D02*
G37*
G36*
X333645Y178000D02*
X331855D01*
X330201Y177315D01*
X328935Y176049D01*
X328250Y174395D01*
Y172605D01*
X328935Y170951D01*
X330201Y169685D01*
X331855Y169000D01*
X333645D01*
X335299Y169685D01*
X336565Y170951D01*
X337250Y172605D01*
Y174395D01*
X336565Y176049D01*
X335299Y177315D01*
X333645Y178000D01*
D02*
G37*
G36*
X754659Y187731D02*
X751895Y187683D01*
X749237Y186921D01*
X746868Y185497D01*
X744947Y183508D01*
X743607Y181090D01*
X742938Y178408D01*
X742986Y175644D01*
X743748Y172986D01*
X745172Y170616D01*
X747161Y168696D01*
X749579Y167355D01*
X752262Y166686D01*
X755026Y166735D01*
X757683Y167497D01*
X760053Y168921D01*
X761974Y170910D01*
X763314Y173328D01*
X763983Y176010D01*
X763935Y178774D01*
X763173Y181432D01*
X761749Y183802D01*
X759760Y185722D01*
X757342Y187063D01*
X754659Y187731D01*
D02*
G37*
G36*
X193391Y173000D02*
X191998D01*
X190712Y172467D01*
X189727Y171483D01*
X189195Y170196D01*
Y168804D01*
X189727Y167517D01*
X190712Y166533D01*
X191998Y166000D01*
X193391D01*
X194677Y166533D01*
X195662Y167517D01*
X196194Y168804D01*
Y170196D01*
X195662Y171483D01*
X194677Y172467D01*
X193391Y173000D01*
D02*
G37*
G36*
X376196Y166750D02*
X374804D01*
X373517Y166217D01*
X372533Y165233D01*
X372000Y163946D01*
Y162554D01*
X372533Y161267D01*
X373517Y160283D01*
X374804Y159750D01*
X376196D01*
X377483Y160283D01*
X378467Y161267D01*
X379000Y162554D01*
Y163946D01*
X378467Y165233D01*
X377483Y166217D01*
X376196Y166750D01*
D02*
G37*
G36*
X501153Y166293D02*
X499761D01*
X498475Y165760D01*
X497490Y164776D01*
X496957Y163489D01*
Y162097D01*
X497490Y160810D01*
X498475Y159826D01*
X499761Y159293D01*
X501153D01*
X502440Y159826D01*
X503424Y160810D01*
X503957Y162097D01*
Y163489D01*
X503424Y164776D01*
X502440Y165760D01*
X501153Y166293D01*
D02*
G37*
G36*
X321446Y162000D02*
X320054D01*
X318767Y161467D01*
X317783Y160483D01*
X317250Y159196D01*
Y157804D01*
X317783Y156517D01*
X318767Y155533D01*
X320054Y155000D01*
X321446D01*
X322733Y155533D01*
X323717Y156517D01*
X324250Y157804D01*
Y159196D01*
X323717Y160483D01*
X322733Y161467D01*
X321446Y162000D01*
D02*
G37*
G36*
X691395Y162250D02*
X689605D01*
X687951Y161565D01*
X686685Y160299D01*
X686000Y158645D01*
Y156855D01*
X686685Y155201D01*
X687951Y153935D01*
X689605Y153250D01*
X691395D01*
X693049Y153935D01*
X694315Y155201D01*
X695000Y156855D01*
Y158645D01*
X694315Y160299D01*
X693049Y161565D01*
X691395Y162250D01*
D02*
G37*
G36*
X345446Y158000D02*
X344054D01*
X342767Y157467D01*
X341783Y156483D01*
X341250Y155196D01*
Y153804D01*
X341783Y152517D01*
X342767Y151533D01*
X344054Y151000D01*
X345446D01*
X346733Y151533D01*
X347717Y152517D01*
X348250Y153804D01*
Y155196D01*
X347717Y156483D01*
X346733Y157467D01*
X345446Y158000D01*
D02*
G37*
G36*
X471645Y159000D02*
X469855D01*
X468201Y158315D01*
X466935Y157049D01*
X466250Y155395D01*
Y153605D01*
X466935Y151951D01*
X468201Y150685D01*
X469855Y150000D01*
X471645D01*
X473299Y150685D01*
X474565Y151951D01*
X475250Y153605D01*
Y155395D01*
X474565Y157049D01*
X473299Y158315D01*
X471645Y159000D01*
D02*
G37*
G36*
X457645D02*
X455855D01*
X454201Y158315D01*
X452935Y157049D01*
X452250Y155395D01*
Y153605D01*
X452935Y151951D01*
X454201Y150685D01*
X455855Y150000D01*
X457645D01*
X459299Y150685D01*
X460565Y151951D01*
X461250Y153605D01*
Y155395D01*
X460565Y157049D01*
X459299Y158315D01*
X457645Y159000D01*
D02*
G37*
G36*
X582645Y154000D02*
X580855D01*
X579201Y153315D01*
X577935Y152049D01*
X577250Y150395D01*
Y148605D01*
X577935Y146951D01*
X579201Y145685D01*
X580855Y145000D01*
X582645D01*
X584299Y145685D01*
X585565Y146951D01*
X586250Y148605D01*
Y150395D01*
X585565Y152049D01*
X584299Y153315D01*
X582645Y154000D01*
D02*
G37*
G36*
X187446Y151500D02*
X186054D01*
X184767Y150967D01*
X183783Y149983D01*
X183250Y148696D01*
Y147304D01*
X183783Y146017D01*
X184767Y145033D01*
X186054Y144500D01*
X187446D01*
X188733Y145033D01*
X189717Y146017D01*
X190250Y147304D01*
Y148696D01*
X189717Y149983D01*
X188733Y150967D01*
X187446Y151500D01*
D02*
G37*
G36*
X748514Y163086D02*
X745750Y163038D01*
X743093Y162276D01*
X740723Y160852D01*
X738802Y158863D01*
X737462Y156445D01*
X736793Y153762D01*
X736841Y150998D01*
X737603Y148341D01*
X739027Y145971D01*
X741016Y144050D01*
X743434Y142710D01*
X746117Y142041D01*
X748881Y142089D01*
X751538Y142851D01*
X753908Y144275D01*
X755829Y146264D01*
X757169Y148682D01*
X757838Y151365D01*
X757790Y154129D01*
X757028Y156786D01*
X755604Y159156D01*
X753615Y161077D01*
X751197Y162417D01*
X748514Y163086D01*
D02*
G37*
G36*
X112446Y143000D02*
X111054D01*
X109767Y142467D01*
X108783Y141483D01*
X108250Y140196D01*
Y138804D01*
X108783Y137517D01*
X109767Y136533D01*
X111054Y136000D01*
X112446D01*
X113733Y136533D01*
X114717Y137517D01*
X115250Y138804D01*
Y140196D01*
X114717Y141483D01*
X113733Y142467D01*
X112446Y143000D01*
D02*
G37*
G36*
X671446Y141000D02*
X670054D01*
X668767Y140467D01*
X667783Y139483D01*
X667250Y138196D01*
Y136804D01*
X667783Y135517D01*
X668767Y134533D01*
X670054Y134000D01*
X671446D01*
X672733Y134533D01*
X673717Y135517D01*
X674250Y136804D01*
Y138196D01*
X673717Y139483D01*
X672733Y140467D01*
X671446Y141000D01*
D02*
G37*
G36*
X557645Y142000D02*
X555855D01*
X554201Y141315D01*
X552935Y140049D01*
X552250Y138395D01*
Y136605D01*
X552935Y134951D01*
X554201Y133685D01*
X555855Y133000D01*
X557645D01*
X559299Y133685D01*
X560565Y134951D01*
X561250Y136605D01*
Y138395D01*
X560565Y140049D01*
X559299Y141315D01*
X557645Y142000D01*
D02*
G37*
G36*
X636645Y141000D02*
X634855D01*
X633201Y140315D01*
X631935Y139049D01*
X631250Y137395D01*
Y135605D01*
X631935Y133951D01*
X633201Y132685D01*
X634855Y132000D01*
X636645D01*
X638299Y132685D01*
X639565Y133951D01*
X640250Y135605D01*
Y137395D01*
X639565Y139049D01*
X638299Y140315D01*
X636645Y141000D01*
D02*
G37*
G36*
X232645Y136000D02*
X230855D01*
X229201Y135315D01*
X227935Y134049D01*
X227250Y132395D01*
Y130605D01*
X227935Y128951D01*
X229201Y127685D01*
X230855Y127000D01*
X232645D01*
X234299Y127685D01*
X235565Y128951D01*
X236250Y130605D01*
Y132395D01*
X235565Y134049D01*
X234299Y135315D01*
X232645Y136000D01*
D02*
G37*
G36*
X217645D02*
X215855D01*
X214201Y135315D01*
X212935Y134049D01*
X212250Y132395D01*
Y130605D01*
X212935Y128951D01*
X214201Y127685D01*
X215855Y127000D01*
X217645D01*
X219299Y127685D01*
X220565Y128951D01*
X221250Y130605D01*
Y132395D01*
X220565Y134049D01*
X219299Y135315D01*
X217645Y136000D01*
D02*
G37*
G36*
X614270Y132041D02*
X612877D01*
X611591Y131508D01*
X610606Y130524D01*
X610074Y129237D01*
Y127845D01*
X610606Y126559D01*
X611591Y125574D01*
X612877Y125041D01*
X614270D01*
X615556Y125574D01*
X616541Y126559D01*
X617074Y127845D01*
Y129237D01*
X616541Y130524D01*
X615556Y131508D01*
X614270Y132041D01*
D02*
G37*
G36*
X700446Y131306D02*
X699054D01*
X697767Y130774D01*
X696783Y129789D01*
X696250Y128503D01*
Y127110D01*
X696783Y125824D01*
X697767Y124839D01*
X699054Y124306D01*
X700446D01*
X701733Y124839D01*
X702717Y125824D01*
X703250Y127110D01*
Y128503D01*
X702717Y129789D01*
X701733Y130774D01*
X700446Y131306D01*
D02*
G37*
G36*
X314895Y132000D02*
X313105D01*
X311451Y131315D01*
X310185Y130049D01*
X309500Y128395D01*
Y126605D01*
X310185Y124951D01*
X311451Y123685D01*
X313105Y123000D01*
X314895D01*
X316549Y123685D01*
X317815Y124951D01*
X318500Y126605D01*
Y128395D01*
X317815Y130049D01*
X316549Y131315D01*
X314895Y132000D01*
D02*
G37*
G36*
X230446Y125000D02*
X229054D01*
X227767Y124467D01*
X226783Y123483D01*
X226250Y122196D01*
Y120804D01*
X226783Y119517D01*
X227767Y118533D01*
X229054Y118000D01*
X230446D01*
X231733Y118533D01*
X232717Y119517D01*
X233250Y120804D01*
Y122196D01*
X232717Y123483D01*
X231733Y124467D01*
X230446Y125000D01*
D02*
G37*
G36*
X657446Y119750D02*
X656054D01*
X654767Y119217D01*
X653783Y118233D01*
X653250Y116946D01*
Y115554D01*
X653783Y114267D01*
X654767Y113283D01*
X656054Y112750D01*
X657446D01*
X658733Y113283D01*
X659717Y114267D01*
X660250Y115554D01*
Y116946D01*
X659717Y118233D01*
X658733Y119217D01*
X657446Y119750D01*
D02*
G37*
G36*
X587486Y117040D02*
X586093D01*
X584807Y116507D01*
X583823Y115522D01*
X583290Y114236D01*
Y112844D01*
X583823Y111557D01*
X584807Y110573D01*
X586093Y110040D01*
X587486D01*
X588772Y110573D01*
X589757Y111557D01*
X590290Y112844D01*
Y114236D01*
X589757Y115522D01*
X588772Y116507D01*
X587486Y117040D01*
D02*
G37*
G36*
X493412Y132978D02*
X491622D01*
X489968Y132293D01*
X488702Y131027D01*
X488017Y129373D01*
Y127583D01*
X488375Y126718D01*
X488023Y126202D01*
X487444Y125646D01*
X485853D01*
X484198Y124961D01*
X482933Y123695D01*
X482248Y122042D01*
Y120251D01*
X482406Y119870D01*
X481700Y118814D01*
X481412D01*
X479758Y118129D01*
X478492Y116863D01*
X477807Y115209D01*
Y113419D01*
X478492Y111765D01*
X479758Y110499D01*
X481412Y109814D01*
X483202D01*
X484856Y110499D01*
X486122Y111765D01*
X486807Y113419D01*
Y115209D01*
X486649Y115590D01*
X487355Y116646D01*
X487643D01*
X489297Y117331D01*
X490563Y118597D01*
X491248Y120251D01*
Y122042D01*
X490889Y122907D01*
X491241Y123422D01*
X491820Y123978D01*
X493412D01*
X495066Y124663D01*
X496332Y125929D01*
X497017Y127583D01*
Y129373D01*
X496332Y131027D01*
X495066Y132293D01*
X493412Y132978D01*
D02*
G37*
G36*
X676857Y129887D02*
X674134Y129407D01*
X671628Y128238D01*
X669511Y126461D01*
X667925Y124197D01*
X666979Y121599D01*
X666738Y118844D01*
X667218Y116122D01*
X668387Y113616D01*
X670164Y111498D01*
X672429Y109913D01*
X675027Y108967D01*
X677781Y108726D01*
X680503Y109206D01*
X683009Y110374D01*
X685127Y112152D01*
X686713Y114416D01*
X687658Y117014D01*
X687899Y119768D01*
X687419Y122491D01*
X686251Y124997D01*
X684474Y127115D01*
X682209Y128701D01*
X679611Y129646D01*
X676857Y129887D01*
D02*
G37*
G36*
X468039Y107606D02*
X466249D01*
X464595Y106921D01*
X463329Y105655D01*
X462644Y104001D01*
Y103647D01*
X461588Y102941D01*
X461446Y103000D01*
X460054D01*
X458767Y102467D01*
X457783Y101483D01*
X457250Y100196D01*
Y98804D01*
X457783Y97517D01*
X458767Y96533D01*
X460054Y96000D01*
X461446D01*
X462733Y96533D01*
X463717Y97517D01*
X464008Y98219D01*
X465313Y98891D01*
X465520Y98908D01*
X466249Y98606D01*
X468039D01*
X469693Y99291D01*
X470959Y100557D01*
X471644Y102211D01*
Y104001D01*
X470959Y105655D01*
X469693Y106921D01*
X468039Y107606D01*
D02*
G37*
G36*
X229645Y110000D02*
X227855D01*
X226201Y109315D01*
X224935Y108049D01*
X224250Y106395D01*
Y104605D01*
X224935Y102951D01*
X226201Y101685D01*
X227855Y101000D01*
X229645D01*
X231299Y101685D01*
X232565Y102951D01*
X233250Y104605D01*
Y106395D01*
X232565Y108049D01*
X231299Y109315D01*
X229645Y110000D01*
D02*
G37*
G36*
X451446Y103000D02*
X450054D01*
X448767Y102467D01*
X447783Y101483D01*
X447250Y100196D01*
Y98804D01*
X447783Y97517D01*
X448767Y96533D01*
X450054Y96000D01*
X451446D01*
X452733Y96533D01*
X453717Y97517D01*
X454250Y98804D01*
Y100196D01*
X453717Y101483D01*
X452733Y102467D01*
X451446Y103000D01*
D02*
G37*
G36*
X591446Y101000D02*
X590054D01*
X588767Y100467D01*
X587783Y99483D01*
X587250Y98196D01*
Y96804D01*
X587783Y95517D01*
X588767Y94533D01*
X590054Y94000D01*
X591446D01*
X592733Y94533D01*
X593717Y95517D01*
X594250Y96804D01*
Y98196D01*
X593717Y99483D01*
X592733Y100467D01*
X591446Y101000D01*
D02*
G37*
G36*
X281645Y102772D02*
X279855D01*
X278201Y102086D01*
X276935Y100821D01*
X276250Y99167D01*
Y97376D01*
X276935Y95723D01*
X278201Y94457D01*
X279855Y93772D01*
X281645D01*
X283299Y94457D01*
X284565Y95723D01*
X285250Y97376D01*
Y99167D01*
X284565Y100821D01*
X283299Y102086D01*
X281645Y102772D01*
D02*
G37*
G36*
X478395Y100250D02*
X476605D01*
X474951Y99565D01*
X473685Y98299D01*
X473000Y96645D01*
Y94855D01*
X473685Y93201D01*
X474951Y91935D01*
X476605Y91250D01*
X478395D01*
X480049Y91935D01*
X481315Y93201D01*
X482000Y94855D01*
Y96645D01*
X481315Y98299D01*
X480049Y99565D01*
X478395Y100250D01*
D02*
G37*
G36*
X662288Y109080D02*
X659565Y108600D01*
X657060Y107432D01*
X654942Y105655D01*
X653356Y103390D01*
X652411Y100792D01*
X652169Y98038D01*
X652650Y95315D01*
X653818Y92810D01*
X655595Y90692D01*
X657860Y89106D01*
X660458Y88160D01*
X663212Y87920D01*
X665935Y88400D01*
X668440Y89568D01*
X670558Y91345D01*
X672144Y93610D01*
X673090Y96208D01*
X673331Y98962D01*
X672850Y101685D01*
X671682Y104190D01*
X669905Y106308D01*
X667640Y107894D01*
X665042Y108840D01*
X662288Y109080D01*
D02*
G37*
G36*
X573446Y99000D02*
X572054D01*
X570767Y98467D01*
X569783Y97483D01*
X569250Y96196D01*
Y94804D01*
X569783Y93517D01*
X570767Y92533D01*
X571140Y92379D01*
X571266Y91860D01*
X571266Y90952D01*
X570459Y90145D01*
X569926Y88859D01*
Y87466D01*
X570459Y86180D01*
X571444Y85195D01*
X572730Y84663D01*
X574122D01*
X575409Y85195D01*
X576393Y86180D01*
X576926Y87466D01*
Y88859D01*
X576393Y90145D01*
X575409Y91130D01*
X575036Y91284D01*
X574910Y91803D01*
X574910Y92711D01*
X575717Y93517D01*
X576250Y94804D01*
Y96196D01*
X575717Y97483D01*
X574733Y98467D01*
X573446Y99000D01*
D02*
G37*
G36*
X537446Y91000D02*
X536054D01*
X534767Y90467D01*
X533783Y89483D01*
X533250Y88196D01*
Y86804D01*
X533783Y85517D01*
X534767Y84533D01*
X536054Y84000D01*
X537446D01*
X538733Y84533D01*
X539717Y85517D01*
X540250Y86804D01*
Y88196D01*
X539717Y89483D01*
X538733Y90467D01*
X537446Y91000D01*
D02*
G37*
G36*
X257446Y87000D02*
X256054D01*
X254767Y86467D01*
X253783Y85483D01*
X253250Y84196D01*
Y82804D01*
X253783Y81517D01*
X254767Y80533D01*
X256054Y80000D01*
X257446D01*
X258733Y80533D01*
X259717Y81517D01*
X260250Y82804D01*
Y84196D01*
X259717Y85483D01*
X258733Y86467D01*
X257446Y87000D01*
D02*
G37*
G36*
X112260Y93428D02*
X110417D01*
X108637Y92951D01*
X107040Y92030D01*
X105737Y90726D01*
X104816Y89130D01*
X104339Y87350D01*
Y85507D01*
X104816Y83726D01*
X105737Y82130D01*
X107040Y80827D01*
X108637Y79905D01*
X110417Y79428D01*
X112260D01*
X114040Y79905D01*
X115637Y80827D01*
X116940Y82130D01*
X117861Y83726D01*
X118338Y85507D01*
Y87350D01*
X117861Y89130D01*
X116940Y90726D01*
X115637Y92030D01*
X114040Y92951D01*
X112260Y93428D01*
D02*
G37*
G36*
X92672Y91356D02*
X90828D01*
X89048Y90879D01*
X87452Y89958D01*
X86149Y88654D01*
X85227Y87058D01*
X84750Y85278D01*
Y83435D01*
X85227Y81655D01*
X86149Y80058D01*
X87452Y78755D01*
X89048Y77833D01*
X90828Y77356D01*
X92672D01*
X94452Y77833D01*
X96048Y78755D01*
X97351Y80058D01*
X98273Y81655D01*
X98750Y83435D01*
Y85278D01*
X98273Y87058D01*
X97351Y88654D01*
X96048Y89958D01*
X94452Y90879D01*
X92672Y91356D01*
D02*
G37*
G36*
X700446Y84000D02*
X699054D01*
X697767Y83467D01*
X696783Y82483D01*
X696250Y81196D01*
Y79804D01*
X696783Y78517D01*
X697767Y77533D01*
X699054Y77000D01*
X700446D01*
X701733Y77533D01*
X702717Y78517D01*
X703250Y79804D01*
Y81196D01*
X702717Y82483D01*
X701733Y83467D01*
X700446Y84000D01*
D02*
G37*
G36*
X603645Y81000D02*
X601855D01*
X600201Y80315D01*
X598935Y79049D01*
X598250Y77395D01*
Y75605D01*
X598935Y73951D01*
X600201Y72685D01*
X601855Y72000D01*
X603645D01*
X605299Y72685D01*
X606565Y73951D01*
X607250Y75605D01*
Y77395D01*
X606565Y79049D01*
X605299Y80315D01*
X603645Y81000D01*
D02*
G37*
G36*
X139018Y76072D02*
X137626D01*
X136339Y75539D01*
X135355Y74554D01*
X134822Y73268D01*
Y71876D01*
X135355Y70589D01*
X136339Y69605D01*
X137626Y69072D01*
X139018D01*
X140304Y69605D01*
X141289Y70589D01*
X141822Y71876D01*
Y73268D01*
X141289Y74554D01*
X140304Y75539D01*
X139018Y76072D01*
D02*
G37*
G36*
X470895Y77000D02*
X469105D01*
X467451Y76315D01*
X466185Y75049D01*
X465500Y73395D01*
Y71605D01*
X466185Y69951D01*
X467451Y68685D01*
X469105Y68000D01*
X470895D01*
X472549Y68685D01*
X473815Y69951D01*
X474500Y71605D01*
Y73395D01*
X473815Y75049D01*
X472549Y76315D01*
X470895Y77000D01*
D02*
G37*
G36*
X119721Y80030D02*
X118214Y79519D01*
X113884Y77019D01*
X112688Y75970D01*
X111984Y74542D01*
X111880Y72955D01*
X112391Y71448D01*
X114891Y67118D01*
X115941Y65921D01*
X117368Y65217D01*
X118956Y65113D01*
X120463Y65625D01*
X124793Y68125D01*
X125989Y69174D01*
X126693Y70601D01*
X126797Y72189D01*
X126285Y73696D01*
X123785Y78026D01*
X122736Y79222D01*
X121309Y79926D01*
X119721Y80030D01*
D02*
G37*
G36*
X100672Y77500D02*
X98828D01*
X97048Y77023D01*
X95452Y76101D01*
X94149Y74798D01*
X93227Y73202D01*
X92750Y71422D01*
Y69578D01*
X93227Y67798D01*
X94149Y66202D01*
X95452Y64899D01*
X97048Y63977D01*
X98828Y63500D01*
X100672D01*
X102452Y63977D01*
X104048Y64899D01*
X105351Y66202D01*
X106273Y67798D01*
X106750Y69578D01*
Y71422D01*
X106273Y73202D01*
X105351Y74798D01*
X104048Y76101D01*
X102452Y77023D01*
X100672Y77500D01*
D02*
G37*
G36*
X198542Y62904D02*
X197150D01*
X195864Y62371D01*
X194879Y61386D01*
X194346Y60100D01*
Y58708D01*
X194879Y57421D01*
X195864Y56437D01*
X197150Y55904D01*
X198542D01*
X199829Y56437D01*
X200813Y57421D01*
X201346Y58708D01*
Y60100D01*
X200813Y61386D01*
X199829Y62371D01*
X198542Y62904D01*
D02*
G37*
G36*
X474844Y66000D02*
X472656D01*
X470634Y65163D01*
X469087Y63615D01*
X468250Y61594D01*
Y59406D01*
X469087Y57385D01*
X470634Y55837D01*
X472656Y55000D01*
X474844D01*
X476866Y55837D01*
X478413Y57385D01*
X479250Y59406D01*
Y61594D01*
X478413Y63615D01*
X476866Y65163D01*
X474844Y66000D01*
D02*
G37*
G36*
X438532Y74000D02*
X435768D01*
X433097Y73284D01*
X430703Y71902D01*
X428748Y69947D01*
X427366Y67553D01*
X426650Y64882D01*
Y62118D01*
X427366Y59447D01*
X428748Y57053D01*
X430703Y55098D01*
X433097Y53716D01*
X435768Y53000D01*
X438532D01*
X441203Y53716D01*
X443597Y55098D01*
X445552Y57053D01*
X446934Y59447D01*
X447650Y62118D01*
Y64882D01*
X446934Y67553D01*
X445552Y69947D01*
X443597Y71902D01*
X441203Y73284D01*
X438532Y74000D01*
D02*
G37*
G36*
X413132D02*
X410368D01*
X407697Y73284D01*
X405303Y71902D01*
X403348Y69947D01*
X401966Y67553D01*
X401250Y64882D01*
Y62118D01*
X401966Y59447D01*
X403348Y57053D01*
X405303Y55098D01*
X407697Y53716D01*
X410368Y53000D01*
X413132D01*
X415803Y53716D01*
X418197Y55098D01*
X420152Y57053D01*
X421534Y59447D01*
X422250Y62118D01*
Y64882D01*
X421534Y67553D01*
X420152Y69947D01*
X418197Y71902D01*
X415803Y73284D01*
X413132Y74000D01*
D02*
G37*
G36*
X253645Y62000D02*
X251855D01*
X250201Y61315D01*
X248935Y60049D01*
X248250Y58395D01*
Y56605D01*
X248935Y54951D01*
X250201Y53685D01*
X251855Y53000D01*
X253645D01*
X255299Y53685D01*
X256565Y54951D01*
X257250Y56605D01*
Y58395D01*
X256565Y60049D01*
X255299Y61315D01*
X253645Y62000D01*
D02*
G37*
G36*
X155895Y59500D02*
X154105D01*
X152451Y58815D01*
X151185Y57549D01*
X150500Y55895D01*
Y54105D01*
X151185Y52451D01*
X152451Y51185D01*
X154105Y50500D01*
X155895D01*
X157549Y51185D01*
X158815Y52451D01*
X159500Y54105D01*
Y55895D01*
X158815Y57549D01*
X157549Y58815D01*
X155895Y59500D01*
D02*
G37*
G36*
X330446Y49000D02*
X329054D01*
X327767Y48467D01*
X326783Y47483D01*
X326250Y46196D01*
Y44804D01*
X326783Y43517D01*
X327767Y42533D01*
X329054Y42000D01*
X330446D01*
X331733Y42533D01*
X332717Y43517D01*
X333250Y44804D01*
Y46196D01*
X332717Y47483D01*
X331733Y48467D01*
X330446Y49000D01*
D02*
G37*
G36*
X316607Y46388D02*
X315215D01*
X313928Y45856D01*
X312944Y44871D01*
X312411Y43585D01*
Y42192D01*
X312944Y40906D01*
X313928Y39921D01*
X315215Y39388D01*
X316607D01*
X317894Y39921D01*
X318878Y40906D01*
X319411Y42192D01*
Y43585D01*
X318878Y44871D01*
X317894Y45856D01*
X316607Y46388D01*
D02*
G37*
G36*
X282645Y48000D02*
X280855D01*
X279201Y47315D01*
X277935Y46049D01*
X277250Y44395D01*
Y42605D01*
X277935Y40951D01*
X279201Y39685D01*
X280855Y39000D01*
X282645D01*
X284299Y39685D01*
X285565Y40951D01*
X286250Y42605D01*
Y44395D01*
X285565Y46049D01*
X284299Y47315D01*
X282645Y48000D01*
D02*
G37*
G36*
X200446Y52000D02*
X199054D01*
X197767Y51467D01*
X196783Y50483D01*
X196250Y49196D01*
Y47804D01*
X196471Y47270D01*
X196078Y46075D01*
X195775Y45884D01*
X194767Y45467D01*
X193783Y44483D01*
X193250Y43196D01*
Y41804D01*
X193783Y40517D01*
X194767Y39533D01*
X196054Y39000D01*
X197446D01*
X198733Y39533D01*
X199717Y40517D01*
X200250Y41804D01*
Y43196D01*
X200029Y43730D01*
X200422Y44925D01*
X200725Y45115D01*
X201733Y45533D01*
X202717Y46517D01*
X203250Y47804D01*
Y49196D01*
X202717Y50483D01*
X201733Y51467D01*
X200446Y52000D01*
D02*
G37*
G36*
X249446Y41000D02*
X248054D01*
X246767Y40467D01*
X245783Y39483D01*
X245250Y38196D01*
Y36804D01*
X245783Y35517D01*
X246767Y34533D01*
X248054Y34000D01*
X249446D01*
X250733Y34533D01*
X251717Y35517D01*
X252250Y36804D01*
Y38196D01*
X251717Y39483D01*
X250733Y40467D01*
X249446Y41000D01*
D02*
G37*
G36*
X299645Y38000D02*
X297855D01*
X296201Y37315D01*
X294935Y36049D01*
X294250Y34395D01*
Y32605D01*
X294935Y30951D01*
X296201Y29685D01*
X297855Y29000D01*
X299645D01*
X301299Y29685D01*
X302565Y30951D01*
X303250Y32605D01*
Y34395D01*
X302565Y36049D01*
X301299Y37315D01*
X299645Y38000D01*
D02*
G37*
G36*
X237446Y34000D02*
X236054D01*
X234767Y33467D01*
X233783Y32483D01*
X233250Y31196D01*
Y29804D01*
X233783Y28517D01*
X234767Y27533D01*
X236054Y27000D01*
X237446D01*
X238733Y27533D01*
X239717Y28517D01*
X240250Y29804D01*
Y31196D01*
X239717Y32483D01*
X238733Y33467D01*
X237446Y34000D01*
D02*
G37*
G36*
X352844Y35000D02*
X350656D01*
X348634Y34163D01*
X347087Y32615D01*
X346250Y30594D01*
Y28406D01*
X347087Y26384D01*
X348634Y24837D01*
X350656Y24000D01*
X352844D01*
X354865Y24837D01*
X356413Y26384D01*
X357250Y28406D01*
Y30594D01*
X356413Y32615D01*
X354865Y34163D01*
X352844Y35000D01*
D02*
G37*
G36*
X258446Y28000D02*
X257054D01*
X255767Y27467D01*
X254783Y26483D01*
X254250Y25196D01*
Y23804D01*
X254783Y22517D01*
X255767Y21533D01*
X257054Y21000D01*
X258446D01*
X259733Y21533D01*
X260717Y22517D01*
X261250Y23804D01*
Y25196D01*
X260717Y26483D01*
X259733Y27467D01*
X258446Y28000D01*
D02*
G37*
G36*
X195946Y23000D02*
X194554D01*
X193267Y22467D01*
X192283Y21483D01*
X191750Y20196D01*
Y18804D01*
X192283Y17517D01*
X193267Y16533D01*
X194554Y16000D01*
X195946D01*
X197233Y16533D01*
X198217Y17517D01*
X198750Y18804D01*
Y20196D01*
X198217Y21483D01*
X197233Y22467D01*
X195946Y23000D01*
D02*
G37*
G36*
X328509Y21563D02*
X327117D01*
X325830Y21030D01*
X324846Y20045D01*
X324313Y18759D01*
Y17367D01*
X324846Y16080D01*
X325830Y15096D01*
X327117Y14563D01*
X328509D01*
X329795Y15096D01*
X330780Y16080D01*
X331313Y17367D01*
Y18759D01*
X330780Y20045D01*
X329795Y21030D01*
X328509Y21563D01*
D02*
G37*
G36*
X272111Y22074D02*
X270321D01*
X268667Y21389D01*
X267401Y20123D01*
X266716Y18469D01*
Y16679D01*
X267401Y15025D01*
X268667Y13759D01*
X269550Y13393D01*
X270287Y12775D01*
X270185Y11860D01*
X269960Y11316D01*
Y10661D01*
X268689Y9927D01*
X268189Y10216D01*
X265264Y11000D01*
X262236D01*
X259311Y10216D01*
X256689Y8702D01*
X254548Y6561D01*
X253034Y3939D01*
X252250Y1014D01*
Y-2014D01*
X253034Y-4939D01*
X254548Y-7561D01*
X256689Y-9702D01*
X259311Y-11216D01*
X262236Y-12000D01*
X265264D01*
X268189Y-11216D01*
X270811Y-9702D01*
X272952Y-7561D01*
X274466Y-4939D01*
X275250Y-2014D01*
Y1014D01*
X274466Y3939D01*
X273363Y5850D01*
X274096Y7120D01*
X274156D01*
X275442Y7653D01*
X276427Y8637D01*
X276959Y9924D01*
Y11316D01*
X276427Y12603D01*
X275442Y13587D01*
X275404Y13603D01*
X275041Y14986D01*
X275069Y15117D01*
X275716Y16679D01*
Y18469D01*
X275031Y20123D01*
X273765Y21389D01*
X272111Y22074D01*
D02*
G37*
G36*
X169875Y37262D02*
X167413D01*
X167216Y37222D01*
X167015D01*
X164600Y36742D01*
X164414Y36665D01*
X164217Y36626D01*
X161943Y35684D01*
X161775Y35572D01*
X161590Y35495D01*
X159543Y34127D01*
X159401Y33985D01*
X159234Y33874D01*
X157493Y32133D01*
X157381Y31966D01*
X157239Y31824D01*
X155871Y29776D01*
X155794Y29591D01*
X155682Y29424D01*
X154740Y27149D01*
X154701Y26952D01*
X154624Y26766D01*
X154144Y24351D01*
Y24151D01*
X154105Y23954D01*
Y21491D01*
X154144Y21294D01*
Y21093D01*
X154624Y18678D01*
X154701Y18493D01*
X154740Y18296D01*
X155682Y16021D01*
X155794Y15854D01*
X155871Y15668D01*
X157239Y13621D01*
X157381Y13479D01*
X157493Y13312D01*
X159234Y11571D01*
X159401Y11459D01*
X159543Y11317D01*
X161590Y9950D01*
X161775Y9873D01*
X161943Y9761D01*
X164217Y8819D01*
X164414Y8780D01*
X164600Y8703D01*
X167015Y8223D01*
X167216D01*
X167413Y8183D01*
X169875D01*
X170072Y8223D01*
X170273D01*
X172688Y8703D01*
X172873Y8780D01*
X173070Y8819D01*
X175345Y9761D01*
X175512Y9873D01*
X175698Y9950D01*
X177745Y11317D01*
X177887Y11459D01*
X178054Y11571D01*
X179795Y13312D01*
X179907Y13479D01*
X180049Y13621D01*
X181417Y15668D01*
X181494Y15854D01*
X181605Y16021D01*
X182547Y18296D01*
X182587Y18493D01*
X182663Y18678D01*
X183144Y21093D01*
Y21294D01*
X183183Y21491D01*
Y23954D01*
X183144Y24151D01*
Y24351D01*
X182663Y26766D01*
X182587Y26952D01*
X182547Y27149D01*
X181605Y29424D01*
X181494Y29591D01*
X181417Y29776D01*
X180049Y31824D01*
X179907Y31966D01*
X179795Y32133D01*
X178054Y33874D01*
X177887Y33985D01*
X177745Y34127D01*
X175698Y35495D01*
X175512Y35572D01*
X175345Y35684D01*
X173070Y36626D01*
X172873Y36665D01*
X172688Y36742D01*
X170273Y37222D01*
X170072D01*
X169875Y37262D01*
D02*
G37*
G36*
X559132Y26000D02*
X556368D01*
X553697Y25284D01*
X551303Y23902D01*
X549348Y21947D01*
X547966Y19553D01*
X547250Y16882D01*
Y14118D01*
X547966Y11447D01*
X549348Y9053D01*
X551303Y7098D01*
X553697Y5716D01*
X556368Y5000D01*
X559132D01*
X561803Y5716D01*
X564197Y7098D01*
X566152Y9053D01*
X567534Y11447D01*
X568250Y14118D01*
Y16882D01*
X567534Y19553D01*
X566152Y21947D01*
X564197Y23902D01*
X561803Y25284D01*
X559132Y26000D01*
D02*
G37*
G36*
X533732D02*
X530968D01*
X528297Y25284D01*
X525903Y23902D01*
X523948Y21947D01*
X522566Y19553D01*
X521850Y16882D01*
Y14118D01*
X522566Y11447D01*
X523948Y9053D01*
X525903Y7098D01*
X528297Y5716D01*
X530968Y5000D01*
X533732D01*
X536403Y5716D01*
X538797Y7098D01*
X540752Y9053D01*
X542134Y11447D01*
X542850Y14118D01*
Y16882D01*
X542134Y19553D01*
X540752Y21947D01*
X538797Y23902D01*
X536403Y25284D01*
X533732Y26000D01*
D02*
G37*
G36*
X636875Y32762D02*
X634413D01*
X634216Y32722D01*
X634015D01*
X631600Y32242D01*
X631414Y32165D01*
X631217Y32126D01*
X628942Y31184D01*
X628775Y31072D01*
X628590Y30995D01*
X626543Y29627D01*
X626401Y29485D01*
X626234Y29374D01*
X624492Y27633D01*
X624381Y27466D01*
X624239Y27324D01*
X622871Y25276D01*
X622794Y25091D01*
X622682Y24924D01*
X621740Y22649D01*
X621701Y22452D01*
X621624Y22266D01*
X621144Y19851D01*
Y19651D01*
X621105Y19454D01*
Y16991D01*
X621144Y16794D01*
Y16594D01*
X621624Y14179D01*
X621701Y13993D01*
X621740Y13796D01*
X622682Y11521D01*
X622794Y11354D01*
X622871Y11169D01*
X624239Y9121D01*
X624381Y8979D01*
X624492Y8812D01*
X626234Y7071D01*
X626401Y6959D01*
X626543Y6817D01*
X628590Y5450D01*
X628776Y5373D01*
X628942Y5261D01*
X631217Y4319D01*
X631414Y4280D01*
X631600Y4203D01*
X634015Y3722D01*
X634216D01*
X634413Y3683D01*
X636875D01*
X637072Y3722D01*
X637273D01*
X639688Y4203D01*
X639873Y4280D01*
X640070Y4319D01*
X642345Y5261D01*
X642512Y5373D01*
X642698Y5450D01*
X644745Y6817D01*
X644887Y6959D01*
X645054Y7071D01*
X646795Y8812D01*
X646907Y8979D01*
X647049Y9121D01*
X648417Y11169D01*
X648494Y11354D01*
X648605Y11521D01*
X649547Y13796D01*
X649587Y13993D01*
X649663Y14179D01*
X650144Y16594D01*
Y16794D01*
X650183Y16991D01*
Y19454D01*
X650144Y19651D01*
Y19851D01*
X649663Y22266D01*
X649587Y22452D01*
X649547Y22649D01*
X648605Y24924D01*
X648494Y25091D01*
X648417Y25276D01*
X647049Y27324D01*
X646907Y27466D01*
X646795Y27633D01*
X645054Y29374D01*
X644887Y29485D01*
X644745Y29627D01*
X642698Y30995D01*
X642512Y31072D01*
X642345Y31184D01*
X640070Y32126D01*
X639873Y32165D01*
X639688Y32242D01*
X637273Y32722D01*
X637072D01*
X636875Y32762D01*
D02*
G37*
G36*
X241696Y9500D02*
X240304D01*
X239017Y8967D01*
X238033Y7983D01*
X237500Y6696D01*
Y5304D01*
X238033Y4017D01*
X239017Y3033D01*
X240304Y2500D01*
X241696D01*
X242983Y3033D01*
X243967Y4017D01*
X244500Y5304D01*
Y6696D01*
X243967Y7983D01*
X242983Y8967D01*
X241696Y9500D01*
D02*
G37*
G36*
X359883Y7437D02*
X358491D01*
X357205Y6904D01*
X356220Y5920D01*
X355687Y4633D01*
Y3241D01*
X356220Y1955D01*
X357205Y970D01*
X358491Y437D01*
X359883D01*
X361170Y970D01*
X362154Y1955D01*
X362687Y3241D01*
Y4633D01*
X362154Y5920D01*
X361170Y6904D01*
X359883Y7437D01*
D02*
G37*
G36*
X199645Y8000D02*
X197855D01*
X196201Y7315D01*
X194935Y6049D01*
X194250Y4395D01*
Y2605D01*
X194935Y951D01*
X196201Y-315D01*
X197855Y-1000D01*
X199645D01*
X201299Y-315D01*
X202565Y951D01*
X203250Y2605D01*
Y4395D01*
X202565Y6049D01*
X201299Y7315D01*
X199645Y8000D01*
D02*
G37*
G36*
X230284Y5705D02*
X228892D01*
X227606Y5172D01*
X226621Y4187D01*
X226088Y2901D01*
Y1509D01*
X226621Y222D01*
X227606Y-762D01*
X227155Y-1758D01*
X227144Y-1769D01*
X227144Y-1769D01*
X226611Y-3056D01*
Y-4448D01*
X227144Y-5734D01*
X228129Y-6719D01*
X229415Y-7252D01*
X230807D01*
X232094Y-6719D01*
X233078Y-5734D01*
X233611Y-4448D01*
Y-3056D01*
X233078Y-1769D01*
X232094Y-785D01*
X232545Y211D01*
X232555Y222D01*
X232555Y222D01*
X233088Y1509D01*
Y2901D01*
X232555Y4187D01*
X231571Y5172D01*
X230284Y5705D01*
D02*
G37*
G36*
X480632Y9000D02*
X477868D01*
X475197Y8284D01*
X472803Y6902D01*
X470848Y4947D01*
X469466Y2553D01*
X468750Y-118D01*
Y-2882D01*
X469466Y-5553D01*
X470848Y-7947D01*
X472803Y-9902D01*
X475197Y-11284D01*
X477868Y-12000D01*
X480632D01*
X483303Y-11284D01*
X485697Y-9902D01*
X487652Y-7947D01*
X489034Y-5553D01*
X489750Y-2882D01*
Y-118D01*
X489034Y2553D01*
X487652Y4947D01*
X485697Y6902D01*
X483303Y8284D01*
X480632Y9000D01*
D02*
G37*
G36*
X455232D02*
X452468D01*
X449797Y8284D01*
X447403Y6902D01*
X445448Y4947D01*
X444066Y2553D01*
X443350Y-118D01*
Y-2882D01*
X444066Y-5553D01*
X445448Y-7947D01*
X447403Y-9902D01*
X449797Y-11284D01*
X452468Y-12000D01*
X455232D01*
X457903Y-11284D01*
X460297Y-9902D01*
X462252Y-7947D01*
X463634Y-5553D01*
X464350Y-2882D01*
Y-118D01*
X463634Y2553D01*
X462252Y4947D01*
X460297Y6902D01*
X457903Y8284D01*
X455232Y9000D01*
D02*
G37*
G36*
X429832D02*
X427068D01*
X424397Y8284D01*
X422003Y6902D01*
X420048Y4947D01*
X418666Y2553D01*
X417950Y-118D01*
Y-2882D01*
X418666Y-5553D01*
X420048Y-7947D01*
X422003Y-9902D01*
X424397Y-11284D01*
X427068Y-12000D01*
X429832D01*
X432503Y-11284D01*
X434897Y-9902D01*
X436852Y-7947D01*
X438234Y-5553D01*
X438950Y-2882D01*
Y-118D01*
X438234Y2553D01*
X436852Y4947D01*
X434897Y6902D01*
X432503Y8284D01*
X429832Y9000D01*
D02*
G37*
G36*
X404432D02*
X401668D01*
X398997Y8284D01*
X396603Y6902D01*
X394648Y4947D01*
X393266Y2553D01*
X392550Y-118D01*
Y-2882D01*
X393266Y-5553D01*
X394648Y-7947D01*
X396603Y-9902D01*
X398997Y-11284D01*
X401668Y-12000D01*
X404432D01*
X407103Y-11284D01*
X409497Y-9902D01*
X411452Y-7947D01*
X412834Y-5553D01*
X413550Y-2882D01*
Y-118D01*
X412834Y2553D01*
X411452Y4947D01*
X409497Y6902D01*
X407103Y8284D01*
X404432Y9000D01*
D02*
G37*
G36*
X379032D02*
X376268D01*
X373597Y8284D01*
X371203Y6902D01*
X369248Y4947D01*
X367866Y2553D01*
X367150Y-118D01*
Y-2882D01*
X367866Y-5553D01*
X369248Y-7947D01*
X371203Y-9902D01*
X373597Y-11284D01*
X376268Y-12000D01*
X379032D01*
X381703Y-11284D01*
X384097Y-9902D01*
X386052Y-7947D01*
X387434Y-5553D01*
X388150Y-2882D01*
Y-118D01*
X387434Y2553D01*
X386052Y4947D01*
X384097Y6902D01*
X381703Y8284D01*
X379032Y9000D01*
D02*
G37*
G36*
X335032D02*
X332268D01*
X329597Y8284D01*
X327203Y6902D01*
X325248Y4947D01*
X323866Y2553D01*
X323150Y-118D01*
Y-2882D01*
X323866Y-5553D01*
X325248Y-7947D01*
X327203Y-9902D01*
X329597Y-11284D01*
X332268Y-12000D01*
X335032D01*
X337703Y-11284D01*
X340097Y-9902D01*
X342052Y-7947D01*
X343434Y-5553D01*
X344150Y-2882D01*
Y-118D01*
X343434Y2553D01*
X342052Y4947D01*
X340097Y6902D01*
X337703Y8284D01*
X335032Y9000D01*
D02*
G37*
G36*
X302532D02*
X299768D01*
X297097Y8284D01*
X294703Y6902D01*
X292748Y4947D01*
X291366Y2553D01*
X290650Y-118D01*
Y-2882D01*
X291366Y-5553D01*
X292748Y-7947D01*
X294703Y-9902D01*
X297097Y-11284D01*
X299768Y-12000D01*
X302532D01*
X305203Y-11284D01*
X307597Y-9902D01*
X309552Y-7947D01*
X310934Y-5553D01*
X311650Y-2882D01*
Y-118D01*
X310934Y2553D01*
X309552Y4947D01*
X307597Y6902D01*
X305203Y8284D01*
X302532Y9000D01*
D02*
G37*
%LPD*%
D94*
X501350Y226900D02*
D03*
Y201500D02*
D03*
X475950Y226900D02*
D03*
Y201500D02*
D03*
X450550Y226900D02*
D03*
Y201500D02*
D03*
X425150Y226900D02*
D03*
Y201500D02*
D03*
X399750Y226900D02*
D03*
Y201500D02*
D03*
X374350Y226900D02*
D03*
Y201500D02*
D03*
X348950Y226900D02*
D03*
Y201500D02*
D03*
X323550Y226900D02*
D03*
D95*
Y201500D02*
D03*
D96*
X119338Y72572D02*
D03*
D97*
X99750Y70500D02*
D03*
X111339Y86428D02*
D03*
X91750Y84356D02*
D03*
X103338Y100285D02*
D03*
D98*
X121794Y50318D02*
D03*
X85294Y113538D02*
D03*
D99*
X397644Y681223D02*
D03*
X427750Y681500D02*
D03*
X788750Y411500D02*
D03*
X783686Y436390D02*
D03*
X778622Y461280D02*
D03*
X773558Y486170D02*
D03*
X768494Y511060D02*
D03*
X762513Y540458D02*
D03*
X756133Y571816D02*
D03*
X34750Y407500D02*
D03*
X39901Y432372D02*
D03*
X45052Y457244D02*
D03*
X50202Y482117D02*
D03*
X55353Y506989D02*
D03*
X60986Y536455D02*
D03*
X67366Y567813D02*
D03*
X479250Y-1500D02*
D03*
X453850D02*
D03*
X428450D02*
D03*
X403050D02*
D03*
X377650D02*
D03*
X333650D02*
D03*
X301150D02*
D03*
X747316Y152563D02*
D03*
X753460Y177209D02*
D03*
X759605Y201854D02*
D03*
X765750Y226500D02*
D03*
Y369500D02*
D03*
Y344100D02*
D03*
Y318700D02*
D03*
Y293300D02*
D03*
X437150Y63500D02*
D03*
X411750D02*
D03*
X386350D02*
D03*
X583150Y15500D02*
D03*
X557750D02*
D03*
X532350D02*
D03*
X677319Y119306D02*
D03*
X662750Y98500D02*
D03*
X648181Y77694D02*
D03*
D100*
X79250Y619500D02*
D03*
X263750Y-500D02*
D03*
X707644Y640222D02*
D03*
D101*
X119640Y206564D02*
D03*
X94750Y201500D02*
D03*
X114576Y231454D02*
D03*
X89686Y226390D02*
D03*
X109512Y256344D02*
D03*
X84622Y251280D02*
D03*
X104448Y281234D02*
D03*
X79558Y276170D02*
D03*
X99384Y306124D02*
D03*
X74494Y301060D02*
D03*
D102*
X152500Y431000D02*
D03*
X216250Y403500D02*
D03*
X135382Y406259D02*
D03*
X141354Y408500D02*
D03*
X455250Y189750D02*
D03*
X576500Y275500D02*
D03*
X324500Y434750D02*
D03*
X335750Y448500D02*
D03*
X178750Y481500D02*
D03*
X314750Y412000D02*
D03*
X317250Y422250D02*
D03*
X496750Y453000D02*
D03*
X484750Y465750D02*
D03*
X547000Y502750D02*
D03*
X561000Y476500D02*
D03*
X550250Y481000D02*
D03*
X541000Y491750D02*
D03*
X569250Y158500D02*
D03*
X555250Y160750D02*
D03*
X558000Y194250D02*
D03*
X562750Y201000D02*
D03*
X619000Y207750D02*
D03*
X611250Y194250D02*
D03*
X602500Y191000D02*
D03*
X613750Y201250D02*
D03*
X617000Y221750D02*
D03*
Y234000D02*
D03*
X610750Y228750D02*
D03*
X571500Y280500D02*
D03*
X643250Y276750D02*
D03*
X557750Y296500D02*
D03*
X553250Y301250D02*
D03*
X733250Y388000D02*
D03*
X734250Y406500D02*
D03*
X700250Y551000D02*
D03*
X651750Y581500D02*
D03*
X633500D02*
D03*
X605750Y599000D02*
D03*
X528250Y608250D02*
D03*
X550500Y597000D02*
D03*
X540750Y572250D02*
D03*
X561000Y564500D02*
D03*
X465250Y523000D02*
D03*
X298500Y478000D02*
D03*
X268500Y530750D02*
D03*
X309250Y522000D02*
D03*
X305500Y529750D02*
D03*
X74000Y650500D02*
D03*
X81750Y671750D02*
D03*
X112000Y697500D02*
D03*
X146000Y699250D02*
D03*
X184500Y698000D02*
D03*
X240750Y693250D02*
D03*
X214750Y693000D02*
D03*
X412750Y692750D02*
D03*
X378000Y693000D02*
D03*
X361750Y693250D02*
D03*
X337250Y693500D02*
D03*
X313500Y693000D02*
D03*
X291250Y692250D02*
D03*
X266000D02*
D03*
X31250Y308750D02*
D03*
X29250Y323750D02*
D03*
X31750Y382750D02*
D03*
X32000Y391000D02*
D03*
X50500Y407500D02*
D03*
X89500Y458750D02*
D03*
X86250Y466000D02*
D03*
X426500Y522250D02*
D03*
X453250Y520000D02*
D03*
X489500Y520500D02*
D03*
X510500Y516000D02*
D03*
X510970Y523258D02*
D03*
X539000Y518000D02*
D03*
X706750Y667500D02*
D03*
X702250Y685500D02*
D03*
X692500Y698250D02*
D03*
X752250Y655250D02*
D03*
X704750Y700000D02*
D03*
X736761Y694357D02*
D03*
X748000Y671250D02*
D03*
X283250Y1750D02*
D03*
X281750Y-6750D02*
D03*
X490750Y-16250D02*
D03*
X510000Y-16750D02*
D03*
X530750Y-17750D02*
D03*
X550750Y-16750D02*
D03*
X565500Y-16000D02*
D03*
X579250Y-15000D02*
D03*
X620500Y-9750D02*
D03*
X632750Y-7750D02*
D03*
X646250Y-5500D02*
D03*
X657000Y2500D02*
D03*
X664000Y17500D02*
D03*
X669750Y30000D02*
D03*
X679250Y49750D02*
D03*
X691500Y64250D02*
D03*
X772500Y182750D02*
D03*
X772750Y192000D02*
D03*
X718250Y81750D02*
D03*
X726750Y86250D02*
D03*
X737250Y92750D02*
D03*
X751250Y97750D02*
D03*
X759500Y109000D02*
D03*
X763250Y126000D02*
D03*
X767000Y140000D02*
D03*
X770250Y152000D02*
D03*
X787474Y221887D02*
D03*
X774750Y164500D02*
D03*
X792000Y239250D02*
D03*
X795935Y251888D02*
D03*
X806250Y283750D02*
D03*
X805500Y305750D02*
D03*
Y333250D02*
D03*
X805250Y372500D02*
D03*
Y353750D02*
D03*
Y393500D02*
D03*
X804000Y414250D02*
D03*
X803000Y440250D02*
D03*
X803500Y464500D02*
D03*
X552750Y452000D02*
D03*
X698500Y421250D02*
D03*
X687750Y422750D02*
D03*
X714500Y450500D02*
D03*
Y472500D02*
D03*
X718250Y500250D02*
D03*
X714500Y486750D02*
D03*
Y462250D02*
D03*
X733000Y434250D02*
D03*
X751000Y449750D02*
D03*
Y471000D02*
D03*
Y495750D02*
D03*
X744500Y523500D02*
D03*
X732500Y537500D02*
D03*
X721875Y549936D02*
D03*
X744500Y552750D02*
D03*
X778750Y559250D02*
D03*
X763000Y603000D02*
D03*
X758000Y616000D02*
D03*
X751750Y638000D02*
D03*
X739250Y645250D02*
D03*
X740500Y606000D02*
D03*
X733750Y615500D02*
D03*
X725430Y623069D02*
D03*
X718250Y603500D02*
D03*
X708417Y612658D02*
D03*
X682750Y611250D02*
D03*
X676675Y603263D02*
D03*
X650520Y599454D02*
D03*
X628174Y597168D02*
D03*
X639250Y623250D02*
D03*
X618250D02*
D03*
X654250Y608750D02*
D03*
X635792Y607579D02*
D03*
X615000Y607250D02*
D03*
X590000Y687750D02*
D03*
X581750Y688000D02*
D03*
X567831Y688514D02*
D03*
X552500Y687500D02*
D03*
X541250Y688750D02*
D03*
X436000Y581000D02*
D03*
X430250Y590250D02*
D03*
X430750Y618750D02*
D03*
X407250Y646500D02*
D03*
X392000Y646000D02*
D03*
X376432Y618442D02*
D03*
X378000Y605250D02*
D03*
X411015Y606569D02*
D03*
X400692Y620334D02*
D03*
X408951Y613796D02*
D03*
X404750Y596000D02*
D03*
X398000Y586250D02*
D03*
X318500Y656500D02*
D03*
X282250Y655750D02*
D03*
X260710Y637455D02*
D03*
X261000Y645750D02*
D03*
X264000Y611750D02*
D03*
X261750Y620500D02*
D03*
Y655000D02*
D03*
X179250Y633000D02*
D03*
X179500Y642250D02*
D03*
X171326Y643262D02*
D03*
X166500Y634250D02*
D03*
X162160Y596780D02*
D03*
X64285Y551443D02*
D03*
X82750Y582000D02*
D03*
X152750Y632750D02*
D03*
X157577Y647027D02*
D03*
X177381Y658320D02*
D03*
X162000Y656250D02*
D03*
X147000Y655000D02*
D03*
X136791Y643262D02*
D03*
X119115Y625586D02*
D03*
X106250Y613750D02*
D03*
X94564Y601199D02*
D03*
X82289Y591051D02*
D03*
X108750Y593750D02*
D03*
X97182Y583359D02*
D03*
X90750Y576750D02*
D03*
X169198Y684835D02*
D03*
X171250Y696500D02*
D03*
X131000Y670750D02*
D03*
X128250Y688500D02*
D03*
X95710Y680088D02*
D03*
X87035Y656356D02*
D03*
X82289Y637207D02*
D03*
X128116Y657011D02*
D03*
X115750Y643500D02*
D03*
X98250Y627000D02*
D03*
X69000Y600250D02*
D03*
X60250Y590250D02*
D03*
X30000Y484250D02*
D03*
X40327Y523877D02*
D03*
X31535Y492921D02*
D03*
X27500Y476250D02*
D03*
X22000Y458250D02*
D03*
X16056Y432246D02*
D03*
X16250Y415000D02*
D03*
X15500Y393000D02*
D03*
X16250Y370500D02*
D03*
X16750Y347000D02*
D03*
X16000Y325250D02*
D03*
X16750Y307000D02*
D03*
X21750Y288750D02*
D03*
X24750Y275500D02*
D03*
X27750Y262500D02*
D03*
X37971Y212823D02*
D03*
X31750Y243250D02*
D03*
X34500Y228250D02*
D03*
X39582Y196230D02*
D03*
X44535Y176170D02*
D03*
X47500Y164250D02*
D03*
X49750Y148500D02*
D03*
X58000Y110250D02*
D03*
X64223Y87880D02*
D03*
X76111Y67077D02*
D03*
X82500Y57500D02*
D03*
X150500Y2000D02*
D03*
X142750Y7250D02*
D03*
X129250Y13250D02*
D03*
X138000Y15250D02*
D03*
X148750Y24750D02*
D03*
X180250Y40000D02*
D03*
X181000Y59500D02*
D03*
X192500Y73500D02*
D03*
X185500Y78750D02*
D03*
X161000Y38500D02*
D03*
X169250Y45750D02*
D03*
X171335Y62620D02*
D03*
X172250Y74500D02*
D03*
X173000Y83000D02*
D03*
X150500Y42500D02*
D03*
X141250Y39750D02*
D03*
X142000Y51500D02*
D03*
X110250Y67000D02*
D03*
X102000Y81750D02*
D03*
X92500Y95500D02*
D03*
X80694Y92586D02*
D03*
X86390Y135058D02*
D03*
X79750Y140750D02*
D03*
X61250Y134000D02*
D03*
X61750Y145750D02*
D03*
X63750Y157500D02*
D03*
X122500Y120250D02*
D03*
X112250Y130500D02*
D03*
X98750Y144000D02*
D03*
X85750Y156250D02*
D03*
X83250Y173250D02*
D03*
X77000Y178500D02*
D03*
X131000Y202500D02*
D03*
X132000Y210250D02*
D03*
X118750Y187750D02*
D03*
X113136Y194990D02*
D03*
X135500Y178750D02*
D03*
X136750Y190250D02*
D03*
X162172Y189418D02*
D03*
X150250Y179750D02*
D03*
X151152Y194247D02*
D03*
X199750Y214000D02*
D03*
X192000Y212250D02*
D03*
X217000Y199250D02*
D03*
X211250Y194250D02*
D03*
X208500Y205750D02*
D03*
X204500Y200250D02*
D03*
X222250Y192000D02*
D03*
X228500Y199250D02*
D03*
X238750Y190500D02*
D03*
X244750Y153500D02*
D03*
X230750Y154000D02*
D03*
X349000Y188750D02*
D03*
X486250Y284000D02*
D03*
X533750Y334750D02*
D03*
X585250Y374500D02*
D03*
X594500Y366000D02*
D03*
X587250Y365500D02*
D03*
X608500Y370750D02*
D03*
X604000Y375500D02*
D03*
X646750Y386250D02*
D03*
X636500Y397000D02*
D03*
X647500Y402750D02*
D03*
X656250Y403000D02*
D03*
X668250Y402750D02*
D03*
X438000Y222500D02*
D03*
X436750Y234250D02*
D03*
X361500Y237000D02*
D03*
X383153Y242641D02*
D03*
X397000Y239000D02*
D03*
X406000Y238750D02*
D03*
X282750Y233750D02*
D03*
X283000Y197750D02*
D03*
X289500Y212000D02*
D03*
X285000Y218250D02*
D03*
X337448Y210394D02*
D03*
X336000Y221500D02*
D03*
X437250Y195500D02*
D03*
X433000Y211500D02*
D03*
X412500Y200500D02*
D03*
X407500Y214500D02*
D03*
X386750Y205500D02*
D03*
X381500Y214250D02*
D03*
X372500Y213750D02*
D03*
X357250Y212500D02*
D03*
X361250Y199250D02*
D03*
X476750Y184750D02*
D03*
X483500Y190750D02*
D03*
X513500Y221500D02*
D03*
X520250Y211500D02*
D03*
X380000Y188250D02*
D03*
X398000D02*
D03*
X418500D02*
D03*
X441750Y189250D02*
D03*
X450500Y174250D02*
D03*
X428500D02*
D03*
X408000D02*
D03*
X364000Y173250D02*
D03*
X350500D02*
D03*
X316250Y174250D02*
D03*
X305250Y175500D02*
D03*
X296500Y183000D02*
D03*
X282750Y190750D02*
D03*
X283000Y177750D02*
D03*
X287750Y170000D02*
D03*
X277901Y170942D02*
D03*
X273000Y177250D02*
D03*
X271042Y131139D02*
D03*
X264000Y129500D02*
D03*
X256000Y153500D02*
D03*
X382000Y154750D02*
D03*
X353500Y153500D02*
D03*
X326500Y129500D02*
D03*
X360750Y115000D02*
D03*
X354500Y120500D02*
D03*
X344500Y129250D02*
D03*
X433000Y94000D02*
D03*
X416500Y95250D02*
D03*
X399000Y95500D02*
D03*
X382750Y96750D02*
D03*
X366250D02*
D03*
X374250Y85250D02*
D03*
X402250Y122500D02*
D03*
X413124Y123038D02*
D03*
X390250Y122500D02*
D03*
X401500Y132250D02*
D03*
X412250Y131750D02*
D03*
X389500Y132250D02*
D03*
X401000Y112500D02*
D03*
X413500Y112750D02*
D03*
X389000Y112500D02*
D03*
X402000Y87500D02*
D03*
X414000Y87250D02*
D03*
X390000Y174250D02*
D03*
X357250Y-13250D02*
D03*
X419000Y-11750D02*
D03*
X389624Y-7962D02*
D03*
X390624Y6038D02*
D03*
X391374Y17038D02*
D03*
X385124Y21288D02*
D03*
X398124Y36788D02*
D03*
X398000Y44000D02*
D03*
X407000Y35000D02*
D03*
X406124Y45788D02*
D03*
X422374Y19538D02*
D03*
X416874Y34038D02*
D03*
X417000Y45000D02*
D03*
X439624Y34788D02*
D03*
X439874Y45538D02*
D03*
X430298Y36532D02*
D03*
X429000Y45000D02*
D03*
X454124Y15038D02*
D03*
X472374Y14288D02*
D03*
X464374Y22038D02*
D03*
X494500Y43750D02*
D03*
X480500Y43500D02*
D03*
X469000D02*
D03*
X495750Y32750D02*
D03*
X482750Y31750D02*
D03*
X470500Y32500D02*
D03*
X509500Y-7000D02*
D03*
X519250Y-8750D02*
D03*
X533750D02*
D03*
X474250Y-17000D02*
D03*
X460250Y-17500D02*
D03*
X446500Y-16250D02*
D03*
X632750Y96750D02*
D03*
X627000Y90750D02*
D03*
X627500Y81500D02*
D03*
X626250Y70500D02*
D03*
X618000Y60500D02*
D03*
X611750Y54250D02*
D03*
X599000Y48500D02*
D03*
X590000Y48000D02*
D03*
X580750D02*
D03*
X517250Y48250D02*
D03*
X513500Y43750D02*
D03*
X507750Y29000D02*
D03*
Y16750D02*
D03*
X508000Y3250D02*
D03*
X546500Y-5750D02*
D03*
X535500Y1750D02*
D03*
X527000D02*
D03*
X518000Y1500D02*
D03*
X517750Y12500D02*
D03*
Y22250D02*
D03*
X518500Y31000D02*
D03*
X531250Y44750D02*
D03*
X541000Y47500D02*
D03*
X527500Y33250D02*
D03*
X560500Y35500D02*
D03*
X554750Y29500D02*
D03*
X566250Y41000D02*
D03*
X552750Y0D02*
D03*
X537250Y33250D02*
D03*
X571250Y46000D02*
D03*
X549750Y229000D02*
D03*
X546500Y217750D02*
D03*
X549000Y206500D02*
D03*
X544500Y224250D02*
D03*
X542750Y206000D02*
D03*
X558750Y148250D02*
D03*
X575000Y164750D02*
D03*
X615000Y158750D02*
D03*
X625000Y149000D02*
D03*
X632000Y143500D02*
D03*
X630500Y161750D02*
D03*
X621250Y171000D02*
D03*
X620000Y180750D02*
D03*
X645750Y144500D02*
D03*
X637500Y152750D02*
D03*
X620000Y188250D02*
D03*
X616000Y173500D02*
D03*
X659500Y178000D02*
D03*
X653750Y184000D02*
D03*
X648250Y191500D02*
D03*
X630250Y188250D02*
D03*
X630750Y177500D02*
D03*
X639250Y168500D02*
D03*
X647500Y159500D02*
D03*
X697250Y222750D02*
D03*
X693863Y233889D02*
D03*
X699750Y244750D02*
D03*
X707250Y249000D02*
D03*
X696000Y261250D02*
D03*
X684750Y262000D02*
D03*
X649500Y280500D02*
D03*
X489000Y181000D02*
D03*
X498000Y189500D02*
D03*
X508750Y191250D02*
D03*
X515500Y198750D02*
D03*
X515000Y186250D02*
D03*
X508500Y180250D02*
D03*
X503000Y173750D02*
D03*
X677250Y403500D02*
D03*
X654500Y371000D02*
D03*
X675250Y392500D02*
D03*
X668250Y385000D02*
D03*
X681000Y397500D02*
D03*
X659250Y343500D02*
D03*
X658250Y349750D02*
D03*
X653500Y344750D02*
D03*
X539250Y299000D02*
D03*
X531750Y293250D02*
D03*
X538500Y292250D02*
D03*
X545750Y293000D02*
D03*
X543500Y238750D02*
D03*
X549500Y243500D02*
D03*
X477750Y173750D02*
D03*
X527500Y245000D02*
D03*
X533750Y239500D02*
D03*
X539250Y234250D02*
D03*
X493500Y173000D02*
D03*
X534250Y250750D02*
D03*
X540250D02*
D03*
X546500D02*
D03*
X544500Y186250D02*
D03*
X603250Y257000D02*
D03*
X610750Y258250D02*
D03*
X617250Y261250D02*
D03*
X549000Y191500D02*
D03*
X578000Y211750D02*
D03*
X578250Y221000D02*
D03*
X573000Y216000D02*
D03*
X570000Y205000D02*
D03*
X543750Y179250D02*
D03*
X513500Y145750D02*
D03*
X529000D02*
D03*
X521250Y145500D02*
D03*
X560000Y166750D02*
D03*
X571250Y176500D02*
D03*
X549000Y156000D02*
D03*
X565026Y174290D02*
D03*
X572250Y183750D02*
D03*
X611250Y215250D02*
D03*
X601500Y235500D02*
D03*
X613000Y246750D02*
D03*
X606250Y246500D02*
D03*
X599750Y242250D02*
D03*
X603500Y276500D02*
D03*
X610250D02*
D03*
X629000Y278250D02*
D03*
X623000Y266750D02*
D03*
X597500Y254500D02*
D03*
X591500Y251000D02*
D03*
X595250Y280000D02*
D03*
X581750Y280500D02*
D03*
X586750Y261750D02*
D03*
X582750Y269750D02*
D03*
X502500Y270000D02*
D03*
X549250Y277750D02*
D03*
X540750D02*
D03*
X531000Y268750D02*
D03*
X541000D02*
D03*
X549750D02*
D03*
X523750Y272500D02*
D03*
X562000Y269500D02*
D03*
X557250Y275000D02*
D03*
X531250Y277750D02*
D03*
X345750Y292500D02*
D03*
X334750Y303000D02*
D03*
X359000Y475000D02*
D03*
X342500Y458250D02*
D03*
X366500Y475000D02*
D03*
X374000D02*
D03*
X503750Y321000D02*
D03*
X495500Y312000D02*
D03*
X509750Y329500D02*
D03*
X514750Y339000D02*
D03*
X517250Y351250D02*
D03*
X517750Y362750D02*
D03*
X513000Y409750D02*
D03*
Y418500D02*
D03*
X525000Y440000D02*
D03*
X518250D02*
D03*
X510750D02*
D03*
X504750Y446250D02*
D03*
X491500Y460500D02*
D03*
X479750Y473500D02*
D03*
X465750Y470250D02*
D03*
X566500Y464500D02*
D03*
X544750Y464000D02*
D03*
X517500D02*
D03*
X515250Y493500D02*
D03*
X534500Y475500D02*
D03*
X525500Y485250D02*
D03*
X566500Y508750D02*
D03*
X566250Y499500D02*
D03*
X566750Y492000D02*
D03*
X555500Y511250D02*
D03*
X289750Y375500D02*
D03*
Y360500D02*
D03*
X618550Y500500D02*
D03*
X608681Y439814D02*
D03*
X574750Y321500D02*
D03*
X274157Y315750D02*
D03*
X261750Y322500D02*
D03*
X276500Y325328D02*
D03*
X142547Y304866D02*
D03*
X129750Y304500D02*
D03*
X125463Y459250D02*
D03*
X116063D02*
D03*
X125500Y477500D02*
D03*
X314750Y497500D02*
D03*
X248000Y617750D02*
D03*
X237750Y617500D02*
D03*
X243294Y465488D02*
D03*
X264750Y629000D02*
D03*
X264750Y558500D02*
D03*
X207750Y563500D02*
D03*
X159846Y541500D02*
D03*
X159750Y528660D02*
D03*
X235750Y500500D02*
D03*
X176250Y597000D02*
D03*
X253750Y575500D02*
D03*
X235860Y466500D02*
D03*
X258750Y448500D02*
D03*
X228236Y442986D02*
D03*
X237750Y653500D02*
D03*
X607750Y387700D02*
D03*
X631562Y441738D02*
D03*
X652000Y430000D02*
D03*
X651750Y420000D02*
D03*
X643750Y543500D02*
D03*
X621750Y540500D02*
D03*
X658750Y527500D02*
D03*
X550750Y544500D02*
D03*
X667260Y561010D02*
D03*
X227750Y332383D02*
D03*
X221750Y331308D02*
D03*
X245149Y395500D02*
D03*
X336750Y514500D02*
D03*
X227259Y436469D02*
D03*
X222750Y445500D02*
D03*
X248750Y559500D02*
D03*
X235391Y552859D02*
D03*
X453000Y502554D02*
D03*
X563750Y594500D02*
D03*
X98682Y386432D02*
D03*
X132059Y400191D02*
D03*
X136250Y395196D02*
D03*
X235750Y438500D02*
D03*
X254852Y453500D02*
D03*
X213213Y449500D02*
D03*
X218357Y455485D02*
D03*
X199750Y48500D02*
D03*
X196750Y42500D02*
D03*
X197846Y59404D02*
D03*
X110750Y300500D02*
D03*
X653750Y196500D02*
D03*
X121750Y485500D02*
D03*
X131750D02*
D03*
X132511Y479504D02*
D03*
X116766Y494234D02*
D03*
X109488Y459250D02*
D03*
X128767Y581092D02*
D03*
X160750Y313500D02*
D03*
X171750Y350250D02*
D03*
X184910Y328489D02*
D03*
X118750Y293500D02*
D03*
X88750Y290500D02*
D03*
X121770Y410862D02*
D03*
X104163Y409080D02*
D03*
X98750Y424500D02*
D03*
X107446Y423250D02*
D03*
X81750Y442500D02*
D03*
X64750Y388500D02*
D03*
X73000Y380500D02*
D03*
X91750Y322500D02*
D03*
X118414Y423836D02*
D03*
X134750Y389500D02*
D03*
X142619Y430974D02*
D03*
X206040Y278210D02*
D03*
X206750Y290500D02*
D03*
X125750Y502500D02*
D03*
X115750Y501500D02*
D03*
X132598Y491630D02*
D03*
X129774Y421759D02*
D03*
X229588Y2205D02*
D03*
X230111Y-3752D02*
D03*
X135787Y580500D02*
D03*
X596750Y651500D02*
D03*
X595750Y677500D02*
D03*
X621750Y683500D02*
D03*
X191295Y445500D02*
D03*
X195884Y451459D02*
D03*
X156501Y451250D02*
D03*
X241750Y362500D02*
D03*
X249750Y382500D02*
D03*
X218750Y372500D02*
D03*
X239891Y346641D02*
D03*
X124750Y433500D02*
D03*
X186750Y148000D02*
D03*
X595750Y484500D02*
D03*
X570750Y309500D02*
D03*
X580873Y322500D02*
D03*
X581750Y328500D02*
D03*
X580750Y313500D02*
D03*
X178812Y259500D02*
D03*
X206120Y296632D02*
D03*
X237715Y328357D02*
D03*
X237750Y321312D02*
D03*
X207123Y479130D02*
D03*
X211089Y488189D02*
D03*
X135004Y501500D02*
D03*
X130750Y547500D02*
D03*
X159846Y534500D02*
D03*
X129750D02*
D03*
X135750Y552500D02*
D03*
X122609Y541641D02*
D03*
X779750Y324500D02*
D03*
X683750Y245500D02*
D03*
X675750Y246500D02*
D03*
X257750Y24500D02*
D03*
X273459Y10620D02*
D03*
X623750Y323500D02*
D03*
X638724Y360526D02*
D03*
X611750Y504500D02*
D03*
X733750Y331500D02*
D03*
X666750Y297500D02*
D03*
X320750Y158500D02*
D03*
X628750Y391500D02*
D03*
X236750Y30500D02*
D03*
X195250Y19500D02*
D03*
X584860Y513500D02*
D03*
X635750Y499802D02*
D03*
X591750Y439500D02*
D03*
X223750Y276500D02*
D03*
X230969Y294056D02*
D03*
X633750Y483802D02*
D03*
X612750Y478500D02*
D03*
X619143Y475421D02*
D03*
X195100Y477150D02*
D03*
X173750Y503500D02*
D03*
X171750Y403500D02*
D03*
X269750Y572500D02*
D03*
X238750Y592500D02*
D03*
X573426Y88162D02*
D03*
X586790Y113540D02*
D03*
X590750Y97500D02*
D03*
X329750Y45500D02*
D03*
X264250Y293839D02*
D03*
X263750Y280250D02*
D03*
X279500Y278500D02*
D03*
Y265672D02*
D03*
X258750Y275500D02*
D03*
X241750Y256500D02*
D03*
X234750Y249500D02*
D03*
X236750Y229500D02*
D03*
X670750Y137500D02*
D03*
X706750Y258500D02*
D03*
X719750Y300500D02*
D03*
X674102Y283583D02*
D03*
X670750Y504500D02*
D03*
X595260Y640010D02*
D03*
X648750Y633500D02*
D03*
X162643Y332457D02*
D03*
X613574Y128541D02*
D03*
X680750Y644500D02*
D03*
X593000Y664250D02*
D03*
X680750Y677250D02*
D03*
X135750Y345250D02*
D03*
X161660Y305292D02*
D03*
X153091Y300500D02*
D03*
X155250Y290000D02*
D03*
X128000Y602750D02*
D03*
X162050Y578125D02*
D03*
X218073Y436220D02*
D03*
X104000Y366231D02*
D03*
X165507Y279743D02*
D03*
X157750Y276500D02*
D03*
X169312Y260062D02*
D03*
X127750Y113500D02*
D03*
X229750Y121500D02*
D03*
X138322Y72572D02*
D03*
X260500Y242500D02*
D03*
X281000D02*
D03*
X192315Y254652D02*
D03*
X265404Y174876D02*
D03*
X182290Y273576D02*
D03*
X208393Y441543D02*
D03*
X203500Y436250D02*
D03*
X359187Y3937D02*
D03*
X128039Y427750D02*
D03*
X183864Y265412D02*
D03*
X192694Y169500D02*
D03*
X79500Y215250D02*
D03*
X126500Y189250D02*
D03*
X149750Y305500D02*
D03*
X241000Y6000D02*
D03*
X177865Y190615D02*
D03*
X147865Y220615D02*
D03*
X149750Y203500D02*
D03*
X146472Y236529D02*
D03*
X190290Y192689D02*
D03*
X153750Y234500D02*
D03*
X258750Y570500D02*
D03*
X157424Y613004D02*
D03*
X403061Y500750D02*
D03*
X293424Y605004D02*
D03*
X91762Y495500D02*
D03*
X170750Y472500D02*
D03*
X326175Y449075D02*
D03*
X181795Y447675D02*
D03*
X609750Y498500D02*
D03*
X566750Y451500D02*
D03*
X584860Y458500D02*
D03*
X681750Y664500D02*
D03*
X321750Y444500D02*
D03*
X274750Y374500D02*
D03*
X276500Y335500D02*
D03*
X280500Y339937D02*
D03*
X279500Y271500D02*
D03*
X252785Y253483D02*
D03*
X258891Y253641D02*
D03*
X327813Y18063D02*
D03*
X315911Y42888D02*
D03*
X197686Y499200D02*
D03*
X204750Y497500D02*
D03*
X572750Y95500D02*
D03*
X699750Y127807D02*
D03*
Y80500D02*
D03*
X656750Y116250D02*
D03*
X624750Y260500D02*
D03*
X607750Y347500D02*
D03*
X558454Y351604D02*
D03*
X548578Y305297D02*
D03*
X523750Y347500D02*
D03*
X493750Y496312D02*
D03*
X188000Y411005D02*
D03*
X199750Y365500D02*
D03*
X187359Y367109D02*
D03*
X203237Y338179D02*
D03*
X195981Y341489D02*
D03*
X613809Y469353D02*
D03*
X651750Y458500D02*
D03*
X592750Y467500D02*
D03*
X648750Y217500D02*
D03*
X599750Y360500D02*
D03*
X615750Y359500D02*
D03*
X616750Y367500D02*
D03*
X639750Y385500D02*
D03*
X142037Y458504D02*
D03*
X189750Y182000D02*
D03*
X199750Y179455D02*
D03*
X196750Y392500D02*
D03*
X135045Y336205D02*
D03*
X143750Y288500D02*
D03*
X159846Y514672D02*
D03*
X159750Y552500D02*
D03*
X248750Y37500D02*
D03*
X256750Y83500D02*
D03*
X186750Y661500D02*
D03*
X201503Y610160D02*
D03*
X131750Y356731D02*
D03*
X647750Y243500D02*
D03*
X667384Y276866D02*
D03*
X669154Y321904D02*
D03*
X720750Y370500D02*
D03*
X671750Y424500D02*
D03*
X670750Y451500D02*
D03*
X671750Y486500D02*
D03*
X587750Y502500D02*
D03*
X149750Y260500D02*
D03*
X151750Y272500D02*
D03*
X306750Y219500D02*
D03*
X286750Y228500D02*
D03*
X470750Y278500D02*
D03*
X560860Y386117D02*
D03*
X559507Y371257D02*
D03*
X595941Y657559D02*
D03*
X212185Y281500D02*
D03*
X344750Y154500D02*
D03*
X111750Y139500D02*
D03*
X500457Y162793D02*
D03*
X375500Y163250D02*
D03*
X519750Y451500D02*
D03*
X638750Y287500D02*
D03*
X701463Y370287D02*
D03*
X46750Y201500D02*
D03*
X169750Y181500D02*
D03*
X309750Y271500D02*
D03*
Y278500D02*
D03*
X117750Y324500D02*
D03*
X125750Y318500D02*
D03*
X129750Y287500D02*
D03*
X512422Y275828D02*
D03*
X367283Y279191D02*
D03*
X536750Y87500D02*
D03*
X560750Y398500D02*
D03*
X249003Y317500D02*
D03*
X166500Y364750D02*
D03*
X304750Y307500D02*
D03*
X279500Y284503D02*
D03*
Y293039D02*
D03*
X306500Y284500D02*
D03*
X301000Y329500D02*
D03*
X225458Y284617D02*
D03*
X585750Y469500D02*
D03*
X274750Y415500D02*
D03*
X280750Y330500D02*
D03*
X313750Y292500D02*
D03*
X264539Y302961D02*
D03*
X62750Y372500D02*
D03*
X63750Y379500D02*
D03*
X319750Y289500D02*
D03*
X318750Y311500D02*
D03*
X309750Y265500D02*
D03*
X237449Y293755D02*
D03*
X441459Y272612D02*
D03*
X567750Y194500D02*
D03*
X181750Y296500D02*
D03*
X149750Y324500D02*
D03*
X690750Y345375D02*
D03*
X460750Y99500D02*
D03*
X450750D02*
D03*
X133750Y373500D02*
D03*
X597156Y669500D02*
D03*
D103*
X690500Y157750D02*
D03*
X180500Y101750D02*
D03*
X594500Y346750D02*
D03*
X486250Y82000D02*
D03*
X190500Y591500D02*
D03*
X477500Y95750D02*
D03*
X470000Y72500D02*
D03*
X198417Y529000D02*
D03*
X172417D02*
D03*
X181083D02*
D03*
X189750D02*
D03*
X197417Y545500D02*
D03*
X171417D02*
D03*
X180083D02*
D03*
X188750D02*
D03*
X197417Y562500D02*
D03*
X171417D02*
D03*
X180083D02*
D03*
X188750D02*
D03*
X554500Y633000D02*
D03*
X533250Y632750D02*
D03*
X704500Y208000D02*
D03*
X364250Y34500D02*
D03*
X251500Y518000D02*
D03*
X255750Y471500D02*
D03*
X297750Y504500D02*
D03*
X317750Y527500D02*
D03*
X258750Y524500D02*
D03*
X209750Y576500D02*
D03*
X208957Y555896D02*
D03*
X181750Y672500D02*
D03*
X248569Y539681D02*
D03*
X388750Y515500D02*
D03*
X388750Y579500D02*
D03*
X681750Y632500D02*
D03*
X635750Y136500D02*
D03*
X230750Y361500D02*
D03*
X218250Y365500D02*
D03*
X247085Y333835D02*
D03*
X714750Y388500D02*
D03*
X735750Y343500D02*
D03*
X544750Y68500D02*
D03*
X236750Y511000D02*
D03*
X375750Y592500D02*
D03*
X506750Y648500D02*
D03*
X271216Y17574D02*
D03*
X201000Y253000D02*
D03*
X163816Y254566D02*
D03*
X71750Y263500D02*
D03*
X56250Y255250D02*
D03*
X492517Y128478D02*
D03*
X556750Y137500D02*
D03*
X155000Y55000D02*
D03*
X239750Y222500D02*
D03*
X281750Y43500D02*
D03*
X728750Y643500D02*
D03*
X448750Y606500D02*
D03*
X130750Y633500D02*
D03*
X448750Y683500D02*
D03*
X497750Y673500D02*
D03*
X197750Y587000D02*
D03*
X231750Y131500D02*
D03*
X53750Y337500D02*
D03*
X259050Y120200D02*
D03*
X604426Y533750D02*
D03*
X662450Y464500D02*
D03*
X628625Y308375D02*
D03*
X668600Y305650D02*
D03*
X190116Y334989D02*
D03*
X252750Y57500D02*
D03*
X570750Y568500D02*
D03*
X578750Y117500D02*
D03*
X712750Y509500D02*
D03*
X541750Y602500D02*
D03*
X109750Y349500D02*
D03*
X198750Y3500D02*
D03*
X640750Y229500D02*
D03*
X677750Y270500D02*
D03*
X283750Y206500D02*
D03*
X306750Y200500D02*
D03*
X332750Y173500D02*
D03*
X456750Y154500D02*
D03*
X470750D02*
D03*
X322750Y486500D02*
D03*
X388750Y496500D02*
D03*
X493750Y284500D02*
D03*
X581750Y149500D02*
D03*
X298750Y33500D02*
D03*
X216750Y131500D02*
D03*
X228750Y105500D02*
D03*
X602750Y76500D02*
D03*
X600750Y211500D02*
D03*
X581750Y192500D02*
D03*
X580750Y247500D02*
D03*
X467144Y103106D02*
D03*
X486748Y121146D02*
D03*
X314000Y127500D02*
D03*
X282750Y105500D02*
D03*
X691750Y603500D02*
D03*
X280750Y98272D02*
D03*
X482307Y114314D02*
D03*
D104*
X204500Y407250D02*
D03*
X351750Y29500D02*
D03*
X473750Y60500D02*
D03*
X472750Y584500D02*
D03*
X550747Y433503D02*
D03*
X246344Y405500D02*
D03*
X315750Y434000D02*
D03*
D105*
X651750Y561500D02*
D03*
X717063Y421187D02*
D03*
X593750Y622500D02*
D03*
X331750Y653500D02*
D03*
X490750Y638500D02*
D03*
X420500Y644750D02*
D03*
X421608Y561642D02*
D03*
X756750Y420500D02*
D03*
D106*
X526750Y494500D02*
D03*
X551750Y583500D02*
D03*
M02*
