G04*
G04 #@! TF.GenerationSoftware,Altium Limited,Altium Designer,23.1.1 (15)*
G04*
G04 Layer_Color=128*
%FSLAX44Y44*%
%MOMM*%
G71*
G04*
G04 #@! TF.SameCoordinates,8DBAF139-ECA8-4D34-9DCF-413724B6F768*
G04*
G04*
G04 #@! TF.FilePolarity,Positive*
G04*
G01*
G75*
%ADD18R,1.3500X2.7500*%
%ADD19R,0.4200X0.6400*%
%ADD21R,0.4000X0.5500*%
%ADD25R,0.5500X0.4000*%
%ADD27R,0.9500X1.3500*%
%ADD29R,0.5500X0.4500*%
%ADD30R,0.6200X0.6600*%
%ADD31R,1.0000X1.0000*%
%ADD32R,0.6800X0.6400*%
%ADD41R,0.6400X0.6800*%
%ADD107R,0.6600X0.6200*%
%ADD108R,0.6400X0.4200*%
%ADD109R,1.3500X0.9500*%
%ADD110R,0.4500X1.4000*%
%ADD111R,0.6500X0.7000*%
%ADD112R,2.7500X1.3500*%
%ADD113R,1.1000X1.4000*%
%ADD114R,0.9000X1.4000*%
%ADD115R,0.4200X0.5000*%
%ADD116R,1.7500X1.1000*%
%ADD117R,1.1000X1.0000*%
D18*
X314500Y64500D02*
D03*
X343000D02*
D03*
X484500Y602500D02*
D03*
X513000D02*
D03*
X485250Y569500D02*
D03*
X513750D02*
D03*
D19*
X639750Y120000D02*
D03*
Y105000D02*
D03*
D21*
X637250Y527875D02*
D03*
X626750D02*
D03*
X141424Y485004D02*
D03*
X151924D02*
D03*
X141424Y495004D02*
D03*
X151924D02*
D03*
X170500Y172500D02*
D03*
X181000D02*
D03*
X607375Y313875D02*
D03*
X617875D02*
D03*
X248000Y67500D02*
D03*
X237500D02*
D03*
X222000Y36900D02*
D03*
X211500D02*
D03*
X422500Y501500D02*
D03*
X433000D02*
D03*
X465250Y502500D02*
D03*
X475750D02*
D03*
X223500Y11500D02*
D03*
X234000D02*
D03*
X211500Y23900D02*
D03*
X222000D02*
D03*
X211500Y48900D02*
D03*
X222000D02*
D03*
X231500Y49500D02*
D03*
X242000D02*
D03*
X211500Y61900D02*
D03*
X222000D02*
D03*
X163500Y585500D02*
D03*
X174000D02*
D03*
X171674Y606004D02*
D03*
X161174D02*
D03*
X250000Y23500D02*
D03*
X239500D02*
D03*
X188000Y1500D02*
D03*
X177500D02*
D03*
X153424Y580004D02*
D03*
X142924D02*
D03*
X616875Y325875D02*
D03*
X606375D02*
D03*
Y302875D02*
D03*
X616875D02*
D03*
X615000Y440750D02*
D03*
X625500D02*
D03*
D25*
X639750Y377750D02*
D03*
Y367250D02*
D03*
X616750Y372250D02*
D03*
Y382750D02*
D03*
X592750Y461000D02*
D03*
Y450500D02*
D03*
X577750Y589250D02*
D03*
Y599750D02*
D03*
X298750Y58750D02*
D03*
Y48250D02*
D03*
X269750Y74750D02*
D03*
Y64250D02*
D03*
X329750Y28000D02*
D03*
Y38500D02*
D03*
X188750Y401750D02*
D03*
Y391250D02*
D03*
X132750Y259250D02*
D03*
Y269750D02*
D03*
X61750Y275750D02*
D03*
Y265250D02*
D03*
X224750Y324750D02*
D03*
Y314250D02*
D03*
X209750Y597250D02*
D03*
Y607750D02*
D03*
X596914Y519750D02*
D03*
Y509250D02*
D03*
X636750Y424500D02*
D03*
Y435000D02*
D03*
X592625Y307125D02*
D03*
Y296625D02*
D03*
X698750Y182750D02*
D03*
Y193250D02*
D03*
X188750Y324750D02*
D03*
Y314250D02*
D03*
X652750Y510000D02*
D03*
Y520500D02*
D03*
D27*
X274174Y518004D02*
D03*
X292674D02*
D03*
X189674Y620004D02*
D03*
X171174D02*
D03*
X699500Y587500D02*
D03*
X718000D02*
D03*
X699500Y566500D02*
D03*
X718000D02*
D03*
D29*
X605750Y154500D02*
D03*
Y144500D02*
D03*
X602750Y101500D02*
D03*
Y91500D02*
D03*
X689750Y141500D02*
D03*
Y131500D02*
D03*
X662750Y137500D02*
D03*
Y127500D02*
D03*
X682750Y82500D02*
D03*
Y72500D02*
D03*
D30*
X708750Y95100D02*
D03*
Y86500D02*
D03*
D31*
X375750Y16500D02*
D03*
Y34500D02*
D03*
D32*
X187450Y488500D02*
D03*
X196050D02*
D03*
X241450Y645500D02*
D03*
X151724Y507004D02*
D03*
X143124D02*
D03*
X608450Y491500D02*
D03*
X617050D02*
D03*
X650300Y309650D02*
D03*
X658900D02*
D03*
X667050Y59500D02*
D03*
X658450D02*
D03*
X170050Y203500D02*
D03*
X161450D02*
D03*
X109450Y376500D02*
D03*
X118050D02*
D03*
Y395500D02*
D03*
X109450D02*
D03*
X276424Y605004D02*
D03*
X285024D02*
D03*
X263450Y105500D02*
D03*
X272050D02*
D03*
X189450Y601500D02*
D03*
X198050D02*
D03*
X208450Y586500D02*
D03*
X217050D02*
D03*
X642050Y491500D02*
D03*
X633450D02*
D03*
X143424Y553004D02*
D03*
X152024D02*
D03*
X250050Y645500D02*
D03*
X162124Y481004D02*
D03*
X170724D02*
D03*
X506050Y683500D02*
D03*
X497450D02*
D03*
X527750Y88500D02*
D03*
X519150D02*
D03*
X528050Y102500D02*
D03*
X519450D02*
D03*
X667050Y247000D02*
D03*
X658450D02*
D03*
X645450Y676500D02*
D03*
X654050D02*
D03*
X633050D02*
D03*
X624450D02*
D03*
X165450Y410500D02*
D03*
X174050D02*
D03*
X535450Y76500D02*
D03*
X544050D02*
D03*
X224450Y400500D02*
D03*
X233050D02*
D03*
X197450Y346500D02*
D03*
X206050D02*
D03*
X179050Y342500D02*
D03*
X170450D02*
D03*
X201450Y376500D02*
D03*
X210050D02*
D03*
D41*
X147274Y539154D02*
D03*
Y530554D02*
D03*
X788750Y324200D02*
D03*
Y332800D02*
D03*
X700750Y386100D02*
D03*
Y377500D02*
D03*
X779397Y204253D02*
D03*
Y212853D02*
D03*
X164750Y504800D02*
D03*
Y496200D02*
D03*
X301424Y585704D02*
D03*
Y594304D02*
D03*
X212750Y315200D02*
D03*
Y323800D02*
D03*
X605750Y478500D02*
D03*
Y469900D02*
D03*
X628750Y467200D02*
D03*
Y475800D02*
D03*
X639750Y467200D02*
D03*
Y475800D02*
D03*
X650750Y467200D02*
D03*
Y475800D02*
D03*
X209424Y546304D02*
D03*
Y537704D02*
D03*
Y521304D02*
D03*
Y512704D02*
D03*
X494750Y663800D02*
D03*
Y655200D02*
D03*
X519750Y122500D02*
D03*
Y113900D02*
D03*
X560750Y105500D02*
D03*
Y114100D02*
D03*
X611750Y664900D02*
D03*
Y673500D02*
D03*
Y645900D02*
D03*
Y654500D02*
D03*
X172750Y303800D02*
D03*
Y295200D02*
D03*
X165750Y387800D02*
D03*
Y379200D02*
D03*
D107*
X227597Y477500D02*
D03*
X218997D02*
D03*
X524450Y371500D02*
D03*
X533050D02*
D03*
D108*
X295750Y12500D02*
D03*
X280750D02*
D03*
X258250Y36500D02*
D03*
X243250D02*
D03*
X280250Y24500D02*
D03*
X265250D02*
D03*
D109*
X81750Y547750D02*
D03*
Y529250D02*
D03*
X59750Y440750D02*
D03*
Y422250D02*
D03*
D110*
X719500Y355500D02*
D03*
X713000D02*
D03*
X706500D02*
D03*
X700000D02*
D03*
Y311500D02*
D03*
X706500D02*
D03*
X713000D02*
D03*
X719500D02*
D03*
X684750Y232000D02*
D03*
X678250D02*
D03*
X671750D02*
D03*
X665250D02*
D03*
Y188000D02*
D03*
X671750D02*
D03*
X678250D02*
D03*
X684750D02*
D03*
D111*
X357000Y530500D02*
D03*
X370500D02*
D03*
D112*
X349424Y597754D02*
D03*
Y626254D02*
D03*
D113*
X191250Y114500D02*
D03*
D114*
X174250D02*
D03*
Y136500D02*
D03*
X193250D02*
D03*
D115*
X154750Y63250D02*
D03*
Y73750D02*
D03*
X542750Y105750D02*
D03*
Y95250D02*
D03*
X200750Y313855D02*
D03*
Y324355D02*
D03*
D116*
X296750Y128250D02*
D03*
Y98750D02*
D03*
D117*
X626125Y287875D02*
D03*
X611625D02*
D03*
M02*
