G04*
G04 #@! TF.GenerationSoftware,Altium Limited,Altium Designer,23.1.1 (15)*
G04*
G04 Layer_Color=128*
%FSLAX44Y44*%
%MOMM*%
G71*
G04*
G04 #@! TF.SameCoordinates,6EFD8887-9970-4281-88DB-E4BF4750D848*
G04*
G04*
G04 #@! TF.FilePolarity,Positive*
G04*
G01*
G75*
%ADD131C,0.1270*%
D131*
X4241100Y2894400D02*
X4252100D01*
X4246600Y2888900D02*
Y2899900D01*
X4241100Y2869000D02*
X4252100D01*
X4246600Y2863500D02*
Y2874500D01*
X4215700Y2894400D02*
X4226700D01*
X4221200Y2888900D02*
Y2899900D01*
X4215700Y2869000D02*
X4226700D01*
X4221200Y2863500D02*
Y2874500D01*
X4190300Y2894400D02*
X4201300D01*
X4195800Y2888900D02*
Y2899900D01*
X4190300Y2869000D02*
X4201300D01*
X4195800Y2863500D02*
Y2874500D01*
X4164900Y2894400D02*
X4175900D01*
X4170400Y2888900D02*
Y2899900D01*
X4164900Y2869000D02*
X4175900D01*
X4170400Y2863500D02*
Y2874500D01*
X4139500Y2894400D02*
X4150500D01*
X4145000Y2888900D02*
Y2899900D01*
X4139500Y2869000D02*
X4150500D01*
X4145000Y2863500D02*
Y2874500D01*
X4114100Y2894400D02*
X4125100D01*
X4119600Y2888900D02*
Y2899900D01*
X4114100Y2869000D02*
X4125100D01*
X4119600Y2863500D02*
Y2874500D01*
X4088700Y2894400D02*
X4099700D01*
X4094200Y2888900D02*
Y2899900D01*
X4088700Y2869000D02*
X4099700D01*
X4094200Y2863500D02*
Y2874500D01*
X4063300Y2894400D02*
X4074300D01*
X4068800Y2888900D02*
Y2899900D01*
X4063300Y2869000D02*
X4074300D01*
X4068800Y2863500D02*
Y2874500D01*
X3861588Y2740072D02*
X3867589D01*
X3864588Y2737072D02*
Y2743072D01*
X3842000Y2738000D02*
X3848000D01*
X3845000Y2735000D02*
Y2741000D01*
X3853589Y2753928D02*
X3859588D01*
X3856588Y2750928D02*
Y2756928D01*
X3834000Y2751856D02*
X3840000D01*
X3837000Y2748857D02*
Y2754856D01*
X3845588Y2767785D02*
X3851588D01*
X3848588Y2764785D02*
Y2770785D01*
X3856594Y2717818D02*
X3877494D01*
X3867044Y2707368D02*
Y2728268D01*
X3820094Y2781038D02*
X3840994D01*
X3830544Y2770588D02*
Y2791488D01*
X4136394Y3348723D02*
X4149394D01*
X4142894Y3342223D02*
Y3355222D01*
X4166500Y3349000D02*
X4179500D01*
X4173000Y3342500D02*
Y3355500D01*
X4527500Y3079000D02*
X4540500D01*
X4534000Y3072500D02*
Y3085500D01*
X4522436Y3103890D02*
X4535436D01*
X4528936Y3097390D02*
Y3110390D01*
X4517372Y3128780D02*
X4530372D01*
X4523872Y3122280D02*
Y3135280D01*
X4512308Y3153670D02*
X4525308D01*
X4518808Y3147170D02*
Y3160170D01*
X4507244Y3178560D02*
X4520244D01*
X4513744Y3172061D02*
Y3185060D01*
X4501263Y3207958D02*
X4514263D01*
X4507763Y3201458D02*
Y3214458D01*
X4494883Y3239316D02*
X4507883D01*
X4501383Y3232816D02*
Y3245816D01*
X3773500Y3075000D02*
X3786500D01*
X3780000Y3068500D02*
Y3081500D01*
X3778651Y3099872D02*
X3791651D01*
X3785151Y3093372D02*
Y3106372D01*
X3783802Y3124745D02*
X3796801D01*
X3790302Y3118245D02*
Y3131245D01*
X3788952Y3149617D02*
X3801953D01*
X3795452Y3143117D02*
Y3156117D01*
X3794103Y3174489D02*
X3807103D01*
X3800603Y3167989D02*
Y3180989D01*
X3799736Y3203955D02*
X3812736D01*
X3806236Y3197455D02*
Y3210455D01*
X3806116Y3235313D02*
X3819116D01*
X3812616Y3228813D02*
Y3241813D01*
X3816500Y3287000D02*
X3832500D01*
X3824500Y3279000D02*
Y3295000D01*
X4218000Y2666000D02*
X4231000D01*
X4224500Y2659500D02*
Y2672500D01*
X4192600Y2666000D02*
X4205600D01*
X4199100Y2659500D02*
Y2672500D01*
X4167200Y2666000D02*
X4180200D01*
X4173700Y2659500D02*
Y2672500D01*
X4141800Y2666000D02*
X4154800D01*
X4148300Y2659500D02*
Y2672500D01*
X4116400Y2666000D02*
X4129400D01*
X4122900Y2659500D02*
Y2672500D01*
X4072400Y2666000D02*
X4085400D01*
X4078900Y2659500D02*
Y2672500D01*
X4039900Y2666000D02*
X4052900D01*
X4046400Y2659500D02*
Y2672500D01*
X4001000Y2667000D02*
X4017000D01*
X4009000Y2659000D02*
Y2675000D01*
X3859790Y2874064D02*
X3869990D01*
X3864890Y2868964D02*
Y2879164D01*
X3834900Y2869000D02*
X3845100D01*
X3840000Y2863900D02*
Y2874100D01*
X3854726Y2898954D02*
X3864926D01*
X3859826Y2893854D02*
Y2904054D01*
X3829836Y2893890D02*
X3840036D01*
X3834936Y2888790D02*
Y2898990D01*
X3849662Y2923844D02*
X3859862D01*
X3854762Y2918744D02*
Y2928944D01*
X3824772Y2918780D02*
X3834972D01*
X3829872Y2913680D02*
Y2923880D01*
X3844598Y2948734D02*
X3854798D01*
X3849698Y2943634D02*
Y2953834D01*
X3819708Y2943670D02*
X3829908D01*
X3824808Y2938570D02*
Y2948770D01*
X3839534Y2973624D02*
X3849734D01*
X3844634Y2968524D02*
Y2978724D01*
X3814644Y2968560D02*
X3824844D01*
X3819744Y2963460D02*
Y2973660D01*
X4487566Y2820063D02*
X4497566D01*
X4492566Y2815063D02*
Y2825063D01*
X4493710Y2844709D02*
X4503710D01*
X4498710Y2839709D02*
Y2849709D01*
X4499855Y2869355D02*
X4509855D01*
X4504855Y2864355D02*
Y2874355D01*
X4506000Y2894000D02*
X4516000D01*
X4511000Y2889000D02*
Y2899000D01*
X4506000Y3037000D02*
X4516000D01*
X4511000Y3032000D02*
Y3042000D01*
X4506000Y3011600D02*
X4516000D01*
X4511000Y3006600D02*
Y3016600D01*
X4506000Y2986200D02*
X4516000D01*
X4511000Y2981200D02*
Y2991200D01*
X4506000Y2960800D02*
X4516000D01*
X4511000Y2955800D02*
Y2965800D01*
X4177400Y2731000D02*
X4187400D01*
X4182400Y2726000D02*
Y2736000D01*
X4152000Y2731000D02*
X4162000D01*
X4157000Y2726000D02*
Y2736000D01*
X4126600Y2731000D02*
X4136600D01*
X4131600Y2726000D02*
Y2736000D01*
X4323400Y2683000D02*
X4333400D01*
X4328400Y2678000D02*
Y2688000D01*
X4298000Y2683000D02*
X4308000D01*
X4303000Y2678000D02*
Y2688000D01*
X4272600Y2683000D02*
X4282600D01*
X4277600Y2678000D02*
Y2688000D01*
X4444894Y3307722D02*
X4460894D01*
X4452894Y3299723D02*
Y3315722D01*
X4417569Y2786807D02*
X4427569D01*
X4422569Y2781807D02*
Y2791807D01*
X4403000Y2766000D02*
X4413000D01*
X4408000Y2761000D02*
Y2771000D01*
X4388431Y2745193D02*
X4398431D01*
X4393431Y2740193D02*
Y2750193D01*
X3896750Y3098500D02*
X3898750D01*
X3897750Y3097500D02*
Y3099500D01*
X4434250Y2825250D02*
X4437250D01*
X4435750Y2823750D02*
Y2826750D01*
X3924250Y2769250D02*
X3927250D01*
X3925750Y2767750D02*
Y2770750D01*
X3960500Y3071000D02*
X3962500D01*
X3961500Y3070000D02*
Y3072000D01*
X3947750Y3074750D02*
X3951750D01*
X3949750Y3072750D02*
Y3076750D01*
X3879632Y3073759D02*
X3881632D01*
X3880632Y3072758D02*
Y3074759D01*
X3885604Y3076000D02*
X3887604D01*
X3886604Y3075000D02*
Y3077000D01*
X4338250Y3014250D02*
X4341250D01*
X4339750Y3012750D02*
Y3015750D01*
X4230000Y2749500D02*
X4233000D01*
X4231500Y2748000D02*
Y2751000D01*
X3934250Y3259000D02*
X3937250D01*
X3935750Y3257500D02*
Y3260500D01*
X4199500Y2857250D02*
X4201500D01*
X4200500Y2856250D02*
Y2858250D01*
X4221250Y2763250D02*
X4224250D01*
X4222750Y2761750D02*
Y2764750D01*
X4213750Y2740000D02*
X4216750D01*
X4215250Y2738500D02*
Y2741500D01*
X4320750Y2943000D02*
X4322750D01*
X4321750Y2942000D02*
Y2944000D01*
X4068750Y3102250D02*
X4070750D01*
X4069750Y3101250D02*
Y3103250D01*
X4080000Y3116000D02*
X4082000D01*
X4081000Y3115000D02*
Y3117000D01*
X3923000Y3149000D02*
X3925000D01*
X3924000Y3148000D02*
Y3150000D01*
X4059000Y3079500D02*
X4061000D01*
X4060000Y3078500D02*
Y3080500D01*
X4061500Y3089750D02*
X4063500D01*
X4062500Y3088750D02*
Y3090750D01*
X4241000Y3120500D02*
X4243000D01*
X4242000Y3119500D02*
Y3121500D01*
X4229000Y3133250D02*
X4231000D01*
X4230000Y3132250D02*
Y3134250D01*
X4291250Y3170250D02*
X4293250D01*
X4292250Y3169250D02*
Y3171250D01*
X4305250Y3144000D02*
X4307250D01*
X4306250Y3143000D02*
Y3145000D01*
X4294500Y3148500D02*
X4296500D01*
X4295500Y3147500D02*
Y3149500D01*
X4285250Y3159250D02*
X4287250D01*
X4286250Y3158250D02*
Y3160250D01*
X4313500Y2826000D02*
X4315500D01*
X4314500Y2825000D02*
Y2827000D01*
X4299500Y2828250D02*
X4301500D01*
X4300500Y2827250D02*
Y2829250D01*
X4302250Y2861750D02*
X4304250D01*
X4303250Y2860750D02*
Y2862750D01*
X4307000Y2868500D02*
X4309000D01*
X4308000Y2867500D02*
Y2869500D01*
X4363250Y2875250D02*
X4365250D01*
X4364250Y2874250D02*
Y2876250D01*
X4355500Y2861750D02*
X4357500D01*
X4356500Y2860750D02*
Y2862750D01*
X4346750Y2858500D02*
X4348750D01*
X4347750Y2857500D02*
Y2859500D01*
X4358000Y2868750D02*
X4360000D01*
X4359000Y2867750D02*
Y2869750D01*
X4361250Y2889250D02*
X4363250D01*
X4362250Y2888250D02*
Y2890250D01*
X4361250Y2901500D02*
X4363250D01*
X4362250Y2900500D02*
Y2902500D01*
X4355000Y2896250D02*
X4357000D01*
X4356000Y2895250D02*
Y2897250D01*
X4315750Y2948000D02*
X4317750D01*
X4316750Y2947000D02*
Y2949000D01*
X4387500Y2944250D02*
X4389500D01*
X4388500Y2943250D02*
Y2945250D01*
X4302000Y2964000D02*
X4304000D01*
X4303000Y2963000D02*
Y2965000D01*
X4297500Y2968750D02*
X4299500D01*
X4298500Y2967750D02*
Y2969750D01*
X4477500Y3055500D02*
X4479500D01*
X4478500Y3054500D02*
Y3056500D01*
Y3074000D02*
X4480500D01*
X4479500Y3073000D02*
Y3075000D01*
X4444500Y3218500D02*
X4446500D01*
X4445500Y3217500D02*
Y3219500D01*
X4396000Y3249000D02*
X4398000D01*
X4397000Y3248000D02*
Y3250000D01*
X4377750Y3249000D02*
X4379750D01*
X4378750Y3248000D02*
Y3250000D01*
X4350000Y3266500D02*
X4352000D01*
X4351000Y3265500D02*
Y3267500D01*
X4272500Y3275750D02*
X4274500D01*
X4273500Y3274750D02*
Y3276750D01*
X4294750Y3264500D02*
X4296750D01*
X4295750Y3263500D02*
Y3265500D01*
X4285000Y3239750D02*
X4287000D01*
X4286000Y3238750D02*
Y3240750D01*
X4305250Y3232000D02*
X4307250D01*
X4306250Y3231000D02*
Y3233000D01*
X4209500Y3190500D02*
X4211500D01*
X4210500Y3189500D02*
Y3191500D01*
X4042750Y3145500D02*
X4044750D01*
X4043750Y3144500D02*
Y3146500D01*
X4012750Y3198250D02*
X4014750D01*
X4013750Y3197250D02*
Y3199250D01*
X4053500Y3189500D02*
X4055500D01*
X4054500Y3188500D02*
Y3190500D01*
X4049750Y3197250D02*
X4051750D01*
X4050750Y3196250D02*
Y3198250D01*
X3818250Y3318000D02*
X3820250D01*
X3819250Y3317000D02*
Y3319000D01*
X3826000Y3339250D02*
X3828000D01*
X3827000Y3338250D02*
Y3340250D01*
X3856250Y3365000D02*
X3858250D01*
X3857250Y3364000D02*
Y3366000D01*
X3890250Y3366750D02*
X3892250D01*
X3891250Y3365750D02*
Y3367750D01*
X3928750Y3365500D02*
X3930750D01*
X3929750Y3364500D02*
Y3366500D01*
X3985000Y3360750D02*
X3987000D01*
X3986000Y3359750D02*
Y3361750D01*
X3959000Y3360500D02*
X3961000D01*
X3960000Y3359500D02*
Y3361500D01*
X4157000Y3360250D02*
X4159000D01*
X4158000Y3359250D02*
Y3361250D01*
X4122250Y3360500D02*
X4124250D01*
X4123250Y3359500D02*
Y3361500D01*
X4106000Y3360750D02*
X4108000D01*
X4107000Y3359750D02*
Y3361750D01*
X4081500Y3361000D02*
X4083500D01*
X4082500Y3360000D02*
Y3362000D01*
X4057750Y3360500D02*
X4059750D01*
X4058750Y3359500D02*
Y3361500D01*
X4035500Y3359750D02*
X4037500D01*
X4036500Y3358750D02*
Y3360750D01*
X4010250Y3359750D02*
X4012250D01*
X4011250Y3358750D02*
Y3360750D01*
X3775500Y2976250D02*
X3777500D01*
X3776500Y2975250D02*
Y2977250D01*
X3773500Y2991250D02*
X3775500D01*
X3774500Y2990250D02*
Y2992250D01*
X3776000Y3050250D02*
X3778000D01*
X3777000Y3049250D02*
Y3051250D01*
X3776250Y3058500D02*
X3778250D01*
X3777250Y3057500D02*
Y3059500D01*
X3794750Y3075000D02*
X3796750D01*
X3795750Y3074000D02*
Y3076000D01*
X3833750Y3126250D02*
X3835750D01*
X3834750Y3125250D02*
Y3127250D01*
X3830500Y3133500D02*
X3832500D01*
X3831500Y3132500D02*
Y3134500D01*
X4170750Y3189750D02*
X4172750D01*
X4171750Y3188750D02*
Y3190750D01*
X4197500Y3187500D02*
X4199500D01*
X4198500Y3186500D02*
Y3188500D01*
X4233750Y3188000D02*
X4235750D01*
X4234750Y3187000D02*
Y3189000D01*
X4254750Y3183500D02*
X4256750D01*
X4255750Y3182500D02*
Y3184500D01*
X4255219Y3190758D02*
X4257220D01*
X4256219Y3189758D02*
Y3191758D01*
X4283250Y3185500D02*
X4285250D01*
X4284250Y3184500D02*
Y3186500D01*
X4451000Y3335000D02*
X4453000D01*
X4452000Y3334000D02*
Y3336000D01*
X4446500Y3353000D02*
X4448500D01*
X4447500Y3352000D02*
Y3354000D01*
X4436750Y3365750D02*
X4438750D01*
X4437750Y3364750D02*
Y3366750D01*
X4496500Y3322750D02*
X4498500D01*
X4497500Y3321750D02*
Y3323750D01*
X4449000Y3367500D02*
X4451000D01*
X4450000Y3366500D02*
Y3368500D01*
X4481011Y3361857D02*
X4483011D01*
X4482011Y3360857D02*
Y3362857D01*
X4492250Y3338750D02*
X4494250D01*
X4493250Y3337750D02*
Y3339750D01*
X4027500Y2669250D02*
X4029500D01*
X4028500Y2668250D02*
Y2670250D01*
X4026000Y2660750D02*
X4028000D01*
X4027000Y2659750D02*
Y2661750D01*
X4235000Y2651250D02*
X4237000D01*
X4236000Y2650250D02*
Y2652250D01*
X4254250Y2650750D02*
X4256250D01*
X4255250Y2649750D02*
Y2651750D01*
X4275000Y2649750D02*
X4277000D01*
X4276000Y2648750D02*
Y2650750D01*
X4295000D02*
X4297000D01*
X4296000Y2649750D02*
Y2651750D01*
X4309750Y2651500D02*
X4311750D01*
X4310750Y2650500D02*
Y2652500D01*
X4323500D02*
X4325500D01*
X4324500Y2651500D02*
Y2653500D01*
X4364750Y2657750D02*
X4366750D01*
X4365750Y2656750D02*
Y2658750D01*
X4377000Y2659750D02*
X4379000D01*
X4378000Y2658750D02*
Y2660750D01*
X4390500Y2662000D02*
X4392500D01*
X4391500Y2661000D02*
Y2663000D01*
X4401250Y2670000D02*
X4403250D01*
X4402250Y2669000D02*
Y2671000D01*
X4408250Y2685000D02*
X4410250D01*
X4409250Y2684000D02*
Y2686000D01*
X4414000Y2697500D02*
X4416000D01*
X4415000Y2696500D02*
Y2698500D01*
X4423500Y2717250D02*
X4425500D01*
X4424500Y2716250D02*
Y2718250D01*
X4435750Y2731750D02*
X4437750D01*
X4436750Y2730750D02*
Y2732750D01*
X4516750Y2850250D02*
X4518750D01*
X4517750Y2849250D02*
Y2851250D01*
X4517000Y2859500D02*
X4519000D01*
X4518000Y2858500D02*
Y2860500D01*
X4462500Y2749250D02*
X4464500D01*
X4463500Y2748250D02*
Y2750250D01*
X4471000Y2753750D02*
X4473000D01*
X4472000Y2752750D02*
Y2754750D01*
X4481500Y2760250D02*
X4483500D01*
X4482500Y2759250D02*
Y2761250D01*
X4495500Y2765250D02*
X4497500D01*
X4496500Y2764250D02*
Y2766250D01*
X4503750Y2776500D02*
X4505750D01*
X4504750Y2775500D02*
Y2777500D01*
X4507500Y2793500D02*
X4509500D01*
X4508500Y2792500D02*
Y2794500D01*
X4511250Y2807500D02*
X4513250D01*
X4512250Y2806500D02*
Y2808500D01*
X4514500Y2819500D02*
X4516500D01*
X4515500Y2818500D02*
Y2820500D01*
X4531724Y2889387D02*
X4533723D01*
X4532723Y2888387D02*
Y2890387D01*
X4519000Y2832000D02*
X4521000D01*
X4520000Y2831000D02*
Y2833000D01*
X4536250Y2906750D02*
X4538250D01*
X4537250Y2905750D02*
Y2907750D01*
X4540185Y2919388D02*
X4542185D01*
X4541185Y2918388D02*
Y2920388D01*
X4550500Y2951250D02*
X4552500D01*
X4551500Y2950250D02*
Y2952250D01*
X4549750Y2973250D02*
X4551750D01*
X4550750Y2972250D02*
Y2974250D01*
X4549750Y3000750D02*
X4551750D01*
X4550750Y2999750D02*
Y3001750D01*
X4549500Y3040000D02*
X4551500D01*
X4550500Y3039000D02*
Y3041000D01*
X4549500Y3021250D02*
X4551500D01*
X4550500Y3020250D02*
Y3022250D01*
X4549500Y3061000D02*
X4551500D01*
X4550500Y3060000D02*
Y3062000D01*
X4548250Y3081750D02*
X4550250D01*
X4549250Y3080750D02*
Y3082750D01*
X4547250Y3107750D02*
X4549250D01*
X4548250Y3106750D02*
Y3108750D01*
X4547750Y3132000D02*
X4549750D01*
X4548750Y3131000D02*
Y3133000D01*
X4297000Y3119500D02*
X4299000D01*
X4298000Y3118500D02*
Y3120500D01*
X4442750Y3088750D02*
X4444750D01*
X4443750Y3087750D02*
Y3089750D01*
X4432000Y3090250D02*
X4434000D01*
X4433000Y3089250D02*
Y3091250D01*
X4458750Y3118000D02*
X4460750D01*
X4459750Y3117000D02*
Y3119000D01*
X4458750Y3140000D02*
X4460750D01*
X4459750Y3139000D02*
Y3141000D01*
X4462500Y3167750D02*
X4464500D01*
X4463500Y3166750D02*
Y3168750D01*
X4458750Y3154250D02*
X4460750D01*
X4459750Y3153250D02*
Y3155250D01*
X4458750Y3129750D02*
X4460750D01*
X4459750Y3128750D02*
Y3130750D01*
X4477250Y3101750D02*
X4479250D01*
X4478250Y3100750D02*
Y3102750D01*
X4495250Y3117250D02*
X4497250D01*
X4496250Y3116250D02*
Y3118250D01*
X4495250Y3138500D02*
X4497250D01*
X4496250Y3137500D02*
Y3139500D01*
X4495250Y3163250D02*
X4497250D01*
X4496250Y3162250D02*
Y3164250D01*
X4488750Y3191000D02*
X4490750D01*
X4489750Y3190000D02*
Y3192000D01*
X4476750Y3205000D02*
X4478750D01*
X4477750Y3204000D02*
Y3206000D01*
X4466125Y3217436D02*
X4468125D01*
X4467125Y3216436D02*
Y3218436D01*
X4488750Y3220250D02*
X4490750D01*
X4489750Y3219250D02*
Y3221250D01*
X4523000Y3226750D02*
X4525000D01*
X4524000Y3225750D02*
Y3227750D01*
X4507250Y3270500D02*
X4509250D01*
X4508250Y3269500D02*
Y3271500D01*
X4502250Y3283500D02*
X4504250D01*
X4503250Y3282500D02*
Y3284500D01*
X4496000Y3305500D02*
X4498000D01*
X4497000Y3304500D02*
Y3306500D01*
X4483500Y3312750D02*
X4485500D01*
X4484500Y3311750D02*
Y3313750D01*
X4484750Y3273500D02*
X4486750D01*
X4485750Y3272500D02*
Y3274500D01*
X4478000Y3283000D02*
X4480000D01*
X4479000Y3282000D02*
Y3284000D01*
X4469680Y3290569D02*
X4471680D01*
X4470680Y3289569D02*
Y3291570D01*
X4462500Y3271000D02*
X4464500D01*
X4463500Y3270000D02*
Y3272000D01*
X4452667Y3280158D02*
X4454666D01*
X4453666Y3279158D02*
Y3281158D01*
X4427000Y3278750D02*
X4429000D01*
X4428000Y3277750D02*
Y3279750D01*
X4420925Y3270763D02*
X4422925D01*
X4421925Y3269763D02*
Y3271763D01*
X4394770Y3266954D02*
X4396770D01*
X4395770Y3265954D02*
Y3267954D01*
X4372424Y3264668D02*
X4374424D01*
X4373423Y3263668D02*
Y3265668D01*
X4383500Y3290750D02*
X4385500D01*
X4384500Y3289750D02*
Y3291750D01*
X4362500Y3290750D02*
X4364500D01*
X4363500Y3289750D02*
Y3291750D01*
X4398500Y3276250D02*
X4400500D01*
X4399500Y3275250D02*
Y3277250D01*
X4380042Y3275080D02*
X4382042D01*
X4381042Y3274080D02*
Y3276079D01*
X4359250Y3274750D02*
X4361250D01*
X4360250Y3273750D02*
Y3275750D01*
X4334250Y3355250D02*
X4336250D01*
X4335250Y3354250D02*
Y3356250D01*
X4326000Y3355500D02*
X4328000D01*
X4327000Y3354500D02*
Y3356500D01*
X4312081Y3356013D02*
X4314081D01*
X4313081Y3355014D02*
Y3357014D01*
X4296750Y3355000D02*
X4298750D01*
X4297750Y3354000D02*
Y3356000D01*
X4285500Y3356250D02*
X4287500D01*
X4286500Y3355250D02*
Y3357250D01*
X4180250Y3248500D02*
X4182250D01*
X4181250Y3247500D02*
Y3249500D01*
X4174500Y3257750D02*
X4176500D01*
X4175500Y3256750D02*
Y3258750D01*
X4175000Y3286250D02*
X4177000D01*
X4176000Y3285250D02*
Y3287250D01*
X4151500Y3314000D02*
X4153500D01*
X4152500Y3313000D02*
Y3315000D01*
X4136250Y3313500D02*
X4138250D01*
X4137250Y3312500D02*
Y3314500D01*
X4120682Y3285941D02*
X4122682D01*
X4121682Y3284941D02*
Y3286942D01*
X4122250Y3272750D02*
X4124250D01*
X4123250Y3271750D02*
Y3273750D01*
X4155266Y3274069D02*
X4157265D01*
X4156265Y3273069D02*
Y3275069D01*
X4144942Y3287834D02*
X4146942D01*
X4145942Y3286834D02*
Y3288834D01*
X4153201Y3281296D02*
X4155201D01*
X4154201Y3280296D02*
Y3282296D01*
X4149000Y3263500D02*
X4151000D01*
X4150000Y3262500D02*
Y3264500D01*
X4142250Y3253750D02*
X4144250D01*
X4143250Y3252750D02*
Y3254750D01*
X4062750Y3324000D02*
X4064750D01*
X4063750Y3323000D02*
Y3325000D01*
X4026500Y3323250D02*
X4028500D01*
X4027500Y3322250D02*
Y3324250D01*
X4004960Y3304955D02*
X4006960D01*
X4005960Y3303955D02*
Y3305955D01*
X4005250Y3313250D02*
X4007250D01*
X4006250Y3312250D02*
Y3314250D01*
X3942167Y3196500D02*
X3945167D01*
X3943667Y3195000D02*
Y3198000D01*
X3916167Y3196500D02*
X3919167D01*
X3917667Y3195000D02*
Y3198000D01*
X3924833Y3196500D02*
X3927833D01*
X3926333Y3195000D02*
Y3198000D01*
X3933500Y3196500D02*
X3936500D01*
X3935000Y3195000D02*
Y3198000D01*
X3941167Y3213000D02*
X3944167D01*
X3942667Y3211500D02*
Y3214500D01*
X3915167Y3213000D02*
X3918167D01*
X3916667Y3211500D02*
Y3214500D01*
X3923833Y3213000D02*
X3926833D01*
X3925333Y3211500D02*
Y3214500D01*
X3932500Y3213000D02*
X3935500D01*
X3934000Y3211500D02*
Y3214500D01*
X3941167Y3230000D02*
X3944167D01*
X3942667Y3228500D02*
Y3231500D01*
X3915167Y3230000D02*
X3918167D01*
X3916667Y3228500D02*
Y3231500D01*
X3923833Y3230000D02*
X3926833D01*
X3925333Y3228500D02*
Y3231500D01*
X3932500Y3230000D02*
X3935500D01*
X3934000Y3228500D02*
Y3231500D01*
X4008250Y3279250D02*
X4010250D01*
X4009250Y3278250D02*
Y3280250D01*
X4006000Y3288000D02*
X4008000D01*
X4007000Y3287000D02*
Y3289000D01*
X4006000Y3322500D02*
X4008000D01*
X4007000Y3321500D02*
Y3323500D01*
X3923500Y3300500D02*
X3925500D01*
X3924500Y3299500D02*
Y3301500D01*
X3923750Y3309750D02*
X3925750D01*
X3924750Y3308750D02*
Y3310750D01*
X3915576Y3310762D02*
X3917576D01*
X3916576Y3309762D02*
Y3311762D01*
X3910750Y3301750D02*
X3912750D01*
X3911750Y3300750D02*
Y3302750D01*
X3906410Y3264280D02*
X3908410D01*
X3907410Y3263280D02*
Y3265280D01*
X3808535Y3218943D02*
X3810535D01*
X3809535Y3217943D02*
Y3219943D01*
X3827000Y3249500D02*
X3829000D01*
X3828000Y3248500D02*
Y3250500D01*
X3897000Y3300250D02*
X3899000D01*
X3898000Y3299250D02*
Y3301250D01*
X3901827Y3314527D02*
X3903827D01*
X3902827Y3313527D02*
Y3315527D01*
X3921631Y3325820D02*
X3923631D01*
X3922631Y3324820D02*
Y3326820D01*
X3906250Y3323750D02*
X3908250D01*
X3907250Y3322750D02*
Y3324750D01*
X3891250Y3322500D02*
X3893250D01*
X3892250Y3321500D02*
Y3323500D01*
X3881041Y3310762D02*
X3883041D01*
X3882041Y3309762D02*
Y3311762D01*
X3863365Y3293086D02*
X3865364D01*
X3864365Y3292086D02*
Y3294086D01*
X3850500Y3281250D02*
X3852500D01*
X3851500Y3280250D02*
Y3282250D01*
X3838814Y3268699D02*
X3840814D01*
X3839814Y3267699D02*
Y3269699D01*
X3826539Y3258551D02*
X3828539D01*
X3827538Y3257551D02*
Y3259551D01*
X3853000Y3261250D02*
X3855000D01*
X3854000Y3260250D02*
Y3262250D01*
X3841432Y3250859D02*
X3843432D01*
X3842432Y3249859D02*
Y3251859D01*
X3835000Y3244250D02*
X3837000D01*
X3836000Y3243250D02*
Y3245250D01*
X3913448Y3352335D02*
X3915448D01*
X3914448Y3351335D02*
Y3353335D01*
X3915500Y3364000D02*
X3917500D01*
X3916500Y3363000D02*
Y3365000D01*
X3875250Y3338250D02*
X3877250D01*
X3876250Y3337250D02*
Y3339250D01*
X3872500Y3356000D02*
X3874500D01*
X3873500Y3355000D02*
Y3357000D01*
X3839960Y3347588D02*
X3841960D01*
X3840959Y3346588D02*
Y3348588D01*
X3831285Y3323856D02*
X3833285D01*
X3832285Y3322856D02*
Y3324856D01*
X3826539Y3304707D02*
X3828539D01*
X3827538Y3303707D02*
Y3305706D01*
X3872366Y3324511D02*
X3874366D01*
X3873366Y3323511D02*
Y3325511D01*
X3860000Y3311000D02*
X3862000D01*
X3861000Y3310000D02*
Y3312000D01*
X3842500Y3294500D02*
X3844500D01*
X3843500Y3293500D02*
Y3295500D01*
X3813250Y3267750D02*
X3815250D01*
X3814250Y3266750D02*
Y3268750D01*
X3804500Y3257750D02*
X3806500D01*
X3805500Y3256750D02*
Y3258750D01*
X3774250Y3151750D02*
X3776250D01*
X3775250Y3150750D02*
Y3152750D01*
X3784577Y3191377D02*
X3786577D01*
X3785577Y3190377D02*
Y3192377D01*
X3775785Y3160421D02*
X3777785D01*
X3776785Y3159421D02*
Y3161421D01*
X3771750Y3143750D02*
X3773750D01*
X3772750Y3142750D02*
Y3144750D01*
X3766250Y3125750D02*
X3768250D01*
X3767250Y3124750D02*
Y3126750D01*
X3760306Y3099746D02*
X3762307D01*
X3761306Y3098746D02*
Y3100746D01*
X3760500Y3082500D02*
X3762500D01*
X3761500Y3081500D02*
Y3083500D01*
X3759750Y3060500D02*
X3761750D01*
X3760750Y3059500D02*
Y3061500D01*
X3760500Y3038000D02*
X3762500D01*
X3761500Y3037000D02*
Y3039000D01*
X3761000Y3014500D02*
X3763000D01*
X3762000Y3013500D02*
Y3015500D01*
X3760250Y2992750D02*
X3762250D01*
X3761250Y2991750D02*
Y2993750D01*
X3761000Y2974500D02*
X3763000D01*
X3762000Y2973500D02*
Y2975500D01*
X3766000Y2956250D02*
X3768000D01*
X3767000Y2955250D02*
Y2957250D01*
X3769000Y2943000D02*
X3771000D01*
X3770000Y2942000D02*
Y2944000D01*
X3772000Y2930000D02*
X3774000D01*
X3773000Y2929000D02*
Y2931000D01*
X3782221Y2880323D02*
X3784221D01*
X3783221Y2879323D02*
Y2881323D01*
X3776000Y2910750D02*
X3778000D01*
X3777000Y2909750D02*
Y2911750D01*
X3778750Y2895750D02*
X3780750D01*
X3779750Y2894750D02*
Y2896750D01*
X3783831Y2863730D02*
X3785832D01*
X3784832Y2862730D02*
Y2864730D01*
X3788784Y2843670D02*
X3790784D01*
X3789785Y2842670D02*
Y2844670D01*
X3791750Y2831750D02*
X3793750D01*
X3792750Y2830750D02*
Y2832750D01*
X3794000Y2816000D02*
X3796000D01*
X3795000Y2815000D02*
Y2817000D01*
X3802250Y2777750D02*
X3804250D01*
X3803250Y2776750D02*
Y2778750D01*
X3808473Y2755380D02*
X3810473D01*
X3809473Y2754380D02*
Y2756380D01*
X3820360Y2734577D02*
X3822361D01*
X3821360Y2733577D02*
Y2735577D01*
X3826750Y2725000D02*
X3828750D01*
X3827750Y2724000D02*
Y2726000D01*
X3894750Y2669500D02*
X3896750D01*
X3895750Y2668500D02*
Y2670500D01*
X3887000Y2674750D02*
X3889000D01*
X3888000Y2673750D02*
Y2675750D01*
X3873500Y2680750D02*
X3875500D01*
X3874500Y2679750D02*
Y2681750D01*
X3882250Y2682750D02*
X3884250D01*
X3883250Y2681750D02*
Y2683750D01*
X3893000Y2692250D02*
X3895000D01*
X3894000Y2691250D02*
Y2693250D01*
X3924500Y2707500D02*
X3926500D01*
X3925500Y2706500D02*
Y2708500D01*
X3925250Y2727000D02*
X3927250D01*
X3926250Y2726000D02*
Y2728000D01*
X3936750Y2741000D02*
X3938750D01*
X3937750Y2740000D02*
Y2742000D01*
X3929750Y2746250D02*
X3931750D01*
X3930750Y2745250D02*
Y2747250D01*
X3905250Y2706000D02*
X3907250D01*
X3906250Y2705000D02*
Y2707000D01*
X3913500Y2713250D02*
X3915500D01*
X3914500Y2712250D02*
Y2714250D01*
X3915585Y2730120D02*
X3917585D01*
X3916585Y2729120D02*
Y2731120D01*
X3916500Y2742000D02*
X3918500D01*
X3917500Y2741000D02*
Y2743000D01*
X3917250Y2750500D02*
X3919250D01*
X3918250Y2749500D02*
Y2751500D01*
X3894750Y2710000D02*
X3896750D01*
X3895750Y2709000D02*
Y2711000D01*
X3885500Y2707250D02*
X3887500D01*
X3886500Y2706250D02*
Y2708250D01*
X3886250Y2719000D02*
X3888250D01*
X3887250Y2718000D02*
Y2720000D01*
X3854500Y2734500D02*
X3856500D01*
X3855500Y2733500D02*
Y2735500D01*
X3846250Y2749250D02*
X3848250D01*
X3847250Y2748250D02*
Y2750250D01*
X3836750Y2763000D02*
X3838750D01*
X3837750Y2762000D02*
Y2764000D01*
X3824944Y2760086D02*
X3826943D01*
X3825944Y2759086D02*
Y2761086D01*
X3830640Y2802558D02*
X3832639D01*
X3831640Y2801558D02*
Y2803558D01*
X3824000Y2808250D02*
X3826000D01*
X3825000Y2807250D02*
Y2809250D01*
X3805500Y2801500D02*
X3807500D01*
X3806500Y2800500D02*
Y2802500D01*
X3806000Y2813250D02*
X3808000D01*
X3807000Y2812250D02*
Y2814250D01*
X3808000Y2825000D02*
X3810000D01*
X3809000Y2824000D02*
Y2826000D01*
X3866750Y2787750D02*
X3868750D01*
X3867750Y2786750D02*
Y2788750D01*
X3856500Y2798000D02*
X3858500D01*
X3857500Y2797000D02*
Y2799000D01*
X3843000Y2811500D02*
X3845000D01*
X3844000Y2810500D02*
Y2812500D01*
X3830000Y2823750D02*
X3832000D01*
X3831000Y2822750D02*
Y2824750D01*
X3827500Y2840750D02*
X3829500D01*
X3828500Y2839750D02*
Y2841750D01*
X3821250Y2846000D02*
X3823250D01*
X3822250Y2845000D02*
Y2847000D01*
X3875250Y2870000D02*
X3877250D01*
X3876250Y2869000D02*
Y2871000D01*
Y2877750D02*
X3878250D01*
X3877250Y2876750D02*
Y2878750D01*
X3863000Y2855250D02*
X3865000D01*
X3864000Y2854250D02*
Y2856250D01*
X3857386Y2862490D02*
X3859386D01*
X3858387Y2861490D02*
Y2863490D01*
X3879750Y2846250D02*
X3881750D01*
X3880750Y2845250D02*
Y2847250D01*
X3881000Y2857750D02*
X3883000D01*
X3882000Y2856750D02*
Y2858750D01*
X3906422Y2856918D02*
X3908422D01*
X3907422Y2855918D02*
Y2857917D01*
X3894500Y2847250D02*
X3896500D01*
X3895500Y2846250D02*
Y2848250D01*
X3895402Y2861747D02*
X3897401D01*
X3896401Y2860747D02*
Y2862747D01*
X3944000Y2881500D02*
X3946000D01*
X3945000Y2880500D02*
Y2882500D01*
X3936250Y2879750D02*
X3938250D01*
X3937250Y2878750D02*
Y2880750D01*
X3961250Y2866750D02*
X3963250D01*
X3962250Y2865750D02*
Y2867750D01*
X3955500Y2861750D02*
X3957500D01*
X3956500Y2860750D02*
Y2862750D01*
X3952750Y2873250D02*
X3954750D01*
X3953750Y2872250D02*
Y2874250D01*
X3948750Y2867750D02*
X3950750D01*
X3949750Y2866750D02*
Y2868750D01*
X3966500Y2859500D02*
X3968500D01*
X3967500Y2858500D02*
Y2860500D01*
X3972750Y2866750D02*
X3974750D01*
X3973750Y2865750D02*
Y2867750D01*
X3983000Y2858000D02*
X3985000D01*
X3984000Y2857000D02*
Y2859000D01*
X3989000Y2821000D02*
X3991000D01*
X3990000Y2820000D02*
Y2822000D01*
X3975000Y2821500D02*
X3977000D01*
X3976000Y2820500D02*
Y2822500D01*
X4093250Y2856250D02*
X4095250D01*
X4094250Y2855250D02*
Y2857250D01*
X4230500Y2951500D02*
X4232500D01*
X4231500Y2950500D02*
Y2952500D01*
X4278000Y3002250D02*
X4280000D01*
X4279000Y3001250D02*
Y3003250D01*
X4329500Y3042000D02*
X4331500D01*
X4330500Y3041000D02*
Y3043000D01*
X4338750Y3033500D02*
X4340750D01*
X4339750Y3032500D02*
Y3034500D01*
X4331500Y3033000D02*
X4333500D01*
X4332500Y3032000D02*
Y3034000D01*
X4352750Y3038250D02*
X4354750D01*
X4353750Y3037250D02*
Y3039250D01*
X4348250Y3043000D02*
X4350250D01*
X4349250Y3042000D02*
Y3044000D01*
X4391000Y3053750D02*
X4393000D01*
X4392000Y3052750D02*
Y3054750D01*
X4380750Y3064500D02*
X4382750D01*
X4381750Y3063500D02*
Y3065500D01*
X4391750Y3070250D02*
X4393750D01*
X4392750Y3069250D02*
Y3071250D01*
X4400500Y3070500D02*
X4402500D01*
X4401500Y3069500D02*
Y3071500D01*
X4412500Y3070250D02*
X4414500D01*
X4413500Y3069250D02*
Y3071250D01*
X4182250Y2890000D02*
X4184250D01*
X4183250Y2889000D02*
Y2891000D01*
X4181000Y2901750D02*
X4183000D01*
X4182000Y2900750D02*
Y2902750D01*
X4105750Y2904500D02*
X4107750D01*
X4106750Y2903500D02*
Y2905500D01*
X4127403Y2910141D02*
X4129403D01*
X4128403Y2909141D02*
Y2911141D01*
X4141250Y2906500D02*
X4143250D01*
X4142250Y2905500D02*
Y2907500D01*
X4150250Y2906250D02*
X4152250D01*
X4151250Y2905250D02*
Y2907250D01*
X4027000Y2901250D02*
X4029000D01*
X4028000Y2900250D02*
Y2902250D01*
X4027250Y2865250D02*
X4029250D01*
X4028250Y2864250D02*
Y2866250D01*
X4033750Y2879500D02*
X4035750D01*
X4034750Y2878500D02*
Y2880500D01*
X4029250Y2885750D02*
X4031250D01*
X4030250Y2884750D02*
Y2886750D01*
X4081698Y2877894D02*
X4083698D01*
X4082698Y2876895D02*
Y2878894D01*
X4080250Y2889000D02*
X4082250D01*
X4081250Y2888000D02*
Y2890000D01*
X4181500Y2863000D02*
X4183500D01*
X4182500Y2862000D02*
Y2864000D01*
X4177250Y2879000D02*
X4179250D01*
X4178250Y2878000D02*
Y2880000D01*
X4156750Y2868000D02*
X4158750D01*
X4157750Y2867000D02*
Y2869000D01*
X4151750Y2882000D02*
X4153750D01*
X4152750Y2881000D02*
Y2883000D01*
X4131000Y2873000D02*
X4133000D01*
X4132000Y2872000D02*
Y2874000D01*
X4125750Y2881750D02*
X4127750D01*
X4126750Y2880750D02*
Y2882750D01*
X4116750Y2881250D02*
X4118750D01*
X4117750Y2880250D02*
Y2882250D01*
X4101500Y2880000D02*
X4103500D01*
X4102500Y2879000D02*
Y2881000D01*
X4105500Y2866750D02*
X4107500D01*
X4106500Y2865750D02*
Y2867750D01*
X4221000Y2852250D02*
X4223000D01*
X4222000Y2851250D02*
Y2853250D01*
X4227750Y2858250D02*
X4229750D01*
X4228750Y2857250D02*
Y2859250D01*
X4257750Y2889000D02*
X4259750D01*
X4258750Y2888000D02*
Y2890000D01*
X4264500Y2879000D02*
X4266500D01*
X4265500Y2878000D02*
Y2880000D01*
X4124250Y2855750D02*
X4126250D01*
X4125250Y2854750D02*
Y2856750D01*
X4142250Y2855750D02*
X4144250D01*
X4143250Y2854750D02*
Y2856750D01*
X4162750Y2855750D02*
X4164750D01*
X4163750Y2854750D02*
Y2856750D01*
X4186000D02*
X4188000D01*
X4187000Y2855750D02*
Y2857750D01*
X4194750Y2841750D02*
X4196750D01*
X4195750Y2840750D02*
Y2842750D01*
X4172750Y2841750D02*
X4174750D01*
X4173750Y2840750D02*
Y2842750D01*
X4152250Y2841750D02*
X4154250D01*
X4153250Y2840750D02*
Y2842750D01*
X4108250Y2840750D02*
X4110250D01*
X4109250Y2839750D02*
Y2841750D01*
X4094750Y2840750D02*
X4096750D01*
X4095750Y2839750D02*
Y2841750D01*
X4060500D02*
X4062500D01*
X4061500Y2840750D02*
Y2842750D01*
X4049500Y2843000D02*
X4051500D01*
X4050500Y2842000D02*
Y2844000D01*
X4040750Y2850500D02*
X4042750D01*
X4041750Y2849500D02*
Y2851500D01*
X4027000Y2858250D02*
X4029000D01*
X4028000Y2857250D02*
Y2859250D01*
X4027250Y2845250D02*
X4029250D01*
X4028250Y2844250D02*
Y2846250D01*
X4032000Y2837500D02*
X4034000D01*
X4033000Y2836500D02*
Y2838500D01*
X4022151Y2838442D02*
X4024151D01*
X4023151Y2837443D02*
Y2839442D01*
X4017250Y2844750D02*
X4019250D01*
X4018250Y2843750D02*
Y2845750D01*
X4015292Y2798640D02*
X4017292D01*
X4016292Y2797639D02*
Y2799640D01*
X4008250Y2797000D02*
X4010250D01*
X4009250Y2796000D02*
Y2798000D01*
X4000250Y2821000D02*
X4002250D01*
X4001250Y2820000D02*
Y2822000D01*
X4126250Y2822250D02*
X4128250D01*
X4127250Y2821250D02*
Y2823250D01*
X4097750Y2821000D02*
X4099750D01*
X4098750Y2820000D02*
Y2822000D01*
X4070750Y2797000D02*
X4072750D01*
X4071750Y2796000D02*
Y2798000D01*
X4105000Y2782500D02*
X4107000D01*
X4106000Y2781500D02*
Y2783500D01*
X4098750Y2788000D02*
X4100750D01*
X4099750Y2787000D02*
Y2789000D01*
X4088750Y2796750D02*
X4090750D01*
X4089750Y2795750D02*
Y2797750D01*
X4177250Y2761500D02*
X4179250D01*
X4178250Y2760500D02*
Y2762500D01*
X4160750Y2762750D02*
X4162750D01*
X4161750Y2761750D02*
Y2763750D01*
X4143250Y2763000D02*
X4145250D01*
X4144250Y2762000D02*
Y2764000D01*
X4127000Y2764250D02*
X4129000D01*
X4128000Y2763250D02*
Y2765250D01*
X4110500Y2764250D02*
X4112500D01*
X4111500Y2763250D02*
Y2765250D01*
X4118500Y2752750D02*
X4120500D01*
X4119500Y2751750D02*
Y2753750D01*
X4146500Y2790000D02*
X4148500D01*
X4147500Y2789000D02*
Y2791000D01*
X4157374Y2790538D02*
X4159374D01*
X4158374Y2789538D02*
Y2791538D01*
X4134500Y2790000D02*
X4136500D01*
X4135500Y2789000D02*
Y2791000D01*
X4145750Y2799750D02*
X4147750D01*
X4146750Y2798750D02*
Y2800750D01*
X4156500Y2799250D02*
X4158500D01*
X4157500Y2798250D02*
Y2800250D01*
X4133750Y2799750D02*
X4135750D01*
X4134750Y2798750D02*
Y2800750D01*
X4145250Y2780000D02*
X4147250D01*
X4146250Y2779000D02*
Y2781000D01*
X4157750Y2780250D02*
X4159750D01*
X4158750Y2779250D02*
Y2781250D01*
X4133250Y2780000D02*
X4135250D01*
X4134250Y2779000D02*
Y2781000D01*
X4146250Y2755000D02*
X4148250D01*
X4147250Y2754000D02*
Y2756000D01*
X4158250Y2754750D02*
X4160250D01*
X4159250Y2753750D02*
Y2755750D01*
X4134250Y2841750D02*
X4136250D01*
X4135250Y2840750D02*
Y2842750D01*
X4101500Y2654250D02*
X4103500D01*
X4102500Y2653250D02*
Y2655250D01*
X4163250Y2655750D02*
X4165250D01*
X4164250Y2654750D02*
Y2656750D01*
X4133874Y2659538D02*
X4135874D01*
X4134874Y2658538D02*
Y2660538D01*
Y2673538D02*
X4136874D01*
X4135874Y2672538D02*
Y2674538D01*
X4135624Y2684538D02*
X4137624D01*
X4136624Y2683538D02*
Y2685538D01*
X4129374Y2688788D02*
X4131374D01*
X4130374Y2687788D02*
Y2689788D01*
X4142374Y2704288D02*
X4144374D01*
X4143374Y2703288D02*
Y2705288D01*
X4142250Y2711500D02*
X4144250D01*
X4143250Y2710500D02*
Y2712500D01*
X4151250Y2702500D02*
X4153250D01*
X4152250Y2701500D02*
Y2703500D01*
X4150374Y2713288D02*
X4152374D01*
X4151374Y2712288D02*
Y2714288D01*
X4166624Y2687038D02*
X4168624D01*
X4167624Y2686038D02*
Y2688038D01*
X4161124Y2701538D02*
X4163124D01*
X4162124Y2700538D02*
Y2702538D01*
X4161250Y2712500D02*
X4163250D01*
X4162250Y2711500D02*
Y2713500D01*
X4183874Y2702288D02*
X4185874D01*
X4184874Y2701288D02*
Y2703288D01*
X4184124Y2713038D02*
X4186124D01*
X4185124Y2712038D02*
Y2714038D01*
X4174548Y2704032D02*
X4176548D01*
X4175548Y2703032D02*
Y2705032D01*
X4173250Y2712500D02*
X4175250D01*
X4174250Y2711500D02*
Y2713500D01*
X4198374Y2682538D02*
X4200374D01*
X4199374Y2681538D02*
Y2683538D01*
X4216624Y2681788D02*
X4218624D01*
X4217624Y2680788D02*
Y2682788D01*
X4208624Y2689538D02*
X4210624D01*
X4209624Y2688538D02*
Y2690538D01*
X4238750Y2711250D02*
X4240750D01*
X4239750Y2710250D02*
Y2712250D01*
X4224750Y2711000D02*
X4226750D01*
X4225750Y2710000D02*
Y2712000D01*
X4213250Y2711000D02*
X4215250D01*
X4214250Y2710000D02*
Y2712000D01*
X4240000Y2700250D02*
X4242000D01*
X4241000Y2699250D02*
Y2701250D01*
X4227000Y2699250D02*
X4229000D01*
X4228000Y2698250D02*
Y2700250D01*
X4214750Y2700000D02*
X4216750D01*
X4215750Y2699000D02*
Y2701000D01*
X4253750Y2660500D02*
X4255750D01*
X4254750Y2659500D02*
Y2661500D01*
X4263500Y2658750D02*
X4265500D01*
X4264500Y2657750D02*
Y2659750D01*
X4278000Y2658750D02*
X4280000D01*
X4279000Y2657750D02*
Y2659750D01*
X4218500Y2650500D02*
X4220500D01*
X4219500Y2649500D02*
Y2651500D01*
X4204500Y2650000D02*
X4206500D01*
X4205500Y2649000D02*
Y2651000D01*
X4190750Y2651250D02*
X4192750D01*
X4191750Y2650250D02*
Y2652250D01*
X4377000Y2764250D02*
X4379000D01*
X4378000Y2763250D02*
Y2765250D01*
X4371250Y2758250D02*
X4373250D01*
X4372250Y2757250D02*
Y2759250D01*
X4371750Y2749000D02*
X4373750D01*
X4372750Y2748000D02*
Y2750000D01*
X4370500Y2738000D02*
X4372500D01*
X4371500Y2737000D02*
Y2739000D01*
X4362250Y2728000D02*
X4364250D01*
X4363250Y2727000D02*
Y2729000D01*
X4356000Y2721750D02*
X4358000D01*
X4357000Y2720750D02*
Y2722750D01*
X4343250Y2716000D02*
X4345250D01*
X4344250Y2715000D02*
Y2717000D01*
X4334250Y2715500D02*
X4336250D01*
X4335250Y2714500D02*
Y2716500D01*
X4325000Y2715500D02*
X4327000D01*
X4326000Y2714500D02*
Y2716500D01*
X4261500Y2715750D02*
X4263500D01*
X4262500Y2714750D02*
Y2716750D01*
X4257750Y2711250D02*
X4259750D01*
X4258750Y2710250D02*
Y2712250D01*
X4252000Y2696500D02*
X4254000D01*
X4253000Y2695500D02*
Y2697500D01*
X4252000Y2684250D02*
X4254000D01*
X4253000Y2683250D02*
Y2685250D01*
X4252250Y2670750D02*
X4254250D01*
X4253250Y2669750D02*
Y2671750D01*
X4290750Y2661750D02*
X4292750D01*
X4291750Y2660750D02*
Y2662750D01*
X4279750Y2669250D02*
X4281750D01*
X4280750Y2668250D02*
Y2670250D01*
X4271250Y2669250D02*
X4273250D01*
X4272250Y2668250D02*
Y2670250D01*
X4262250Y2669000D02*
X4264250D01*
X4263250Y2668000D02*
Y2670000D01*
X4262000Y2680000D02*
X4264000D01*
X4263000Y2679000D02*
Y2681000D01*
X4262000Y2689750D02*
X4264000D01*
X4263000Y2688750D02*
Y2690750D01*
X4262750Y2698500D02*
X4264750D01*
X4263750Y2697500D02*
Y2699500D01*
X4275500Y2712250D02*
X4277500D01*
X4276500Y2711250D02*
Y2713250D01*
X4285250Y2715000D02*
X4287250D01*
X4286250Y2714000D02*
Y2716000D01*
X4271750Y2700750D02*
X4273750D01*
X4272750Y2699750D02*
Y2701750D01*
X4304750Y2703000D02*
X4306750D01*
X4305750Y2702000D02*
Y2704000D01*
X4299000Y2697000D02*
X4301000D01*
X4300000Y2696000D02*
Y2698000D01*
X4310500Y2708500D02*
X4312500D01*
X4311500Y2707500D02*
Y2709500D01*
X4297000Y2667500D02*
X4299000D01*
X4298000Y2666500D02*
Y2668500D01*
X4281500Y2700750D02*
X4283500D01*
X4282500Y2699750D02*
Y2701750D01*
X4315500Y2713500D02*
X4317500D01*
X4316500Y2712500D02*
Y2714500D01*
X4294000Y2896500D02*
X4296000D01*
X4295000Y2895500D02*
Y2897500D01*
X4290750Y2885250D02*
X4292750D01*
X4291750Y2884250D02*
Y2886250D01*
X4293250Y2874000D02*
X4295250D01*
X4294250Y2873000D02*
Y2875000D01*
X4288750Y2891750D02*
X4290750D01*
X4289750Y2890750D02*
Y2892750D01*
X4287000Y2873500D02*
X4289000D01*
X4288000Y2872500D02*
Y2874500D01*
X4303000Y2815750D02*
X4305000D01*
X4304000Y2814750D02*
Y2816750D01*
X4319250Y2832250D02*
X4321250D01*
X4320250Y2831250D02*
Y2833250D01*
X4359250Y2826250D02*
X4361250D01*
X4360250Y2825250D02*
Y2827250D01*
X4369250Y2816500D02*
X4371250D01*
X4370250Y2815500D02*
Y2817500D01*
X4376250Y2811000D02*
X4378250D01*
X4377250Y2810000D02*
Y2812000D01*
X4374750Y2829250D02*
X4376750D01*
X4375750Y2828250D02*
Y2830250D01*
X4365500Y2838500D02*
X4367500D01*
X4366500Y2837500D02*
Y2839500D01*
X4364250Y2848250D02*
X4366250D01*
X4365250Y2847250D02*
Y2849250D01*
X4390000Y2812000D02*
X4392000D01*
X4391000Y2811000D02*
Y2813000D01*
X4381750Y2820250D02*
X4383750D01*
X4382750Y2819250D02*
Y2821250D01*
X4364250Y2855750D02*
X4366250D01*
X4365250Y2854750D02*
Y2856750D01*
X4360250Y2841000D02*
X4362250D01*
X4361250Y2840000D02*
Y2842000D01*
X4403750Y2845500D02*
X4405750D01*
X4404750Y2844500D02*
Y2846500D01*
X4398000Y2851500D02*
X4400000D01*
X4399000Y2850500D02*
Y2852500D01*
X4392500Y2859000D02*
X4394500D01*
X4393500Y2858000D02*
Y2860000D01*
X4374500Y2855750D02*
X4376500D01*
X4375500Y2854750D02*
Y2856750D01*
X4375000Y2845000D02*
X4377000D01*
X4376000Y2844000D02*
Y2846000D01*
X4383500Y2836000D02*
X4385500D01*
X4384500Y2835000D02*
Y2837000D01*
X4391750Y2827000D02*
X4393750D01*
X4392750Y2826000D02*
Y2828000D01*
X4441500Y2890250D02*
X4443500D01*
X4442500Y2889250D02*
Y2891250D01*
X4438113Y2901389D02*
X4440113D01*
X4439113Y2900388D02*
Y2902389D01*
X4444000Y2912250D02*
X4446000D01*
X4445000Y2911250D02*
Y2913250D01*
X4451500Y2916500D02*
X4453500D01*
X4452500Y2915500D02*
Y2917500D01*
X4440250Y2928750D02*
X4442250D01*
X4441250Y2927750D02*
Y2929750D01*
X4429000Y2929500D02*
X4431000D01*
X4430000Y2928500D02*
Y2930500D01*
X4393750Y2948000D02*
X4395750D01*
X4394750Y2947000D02*
Y2949000D01*
X4233250Y2848500D02*
X4235250D01*
X4234250Y2847500D02*
Y2849500D01*
X4242250Y2857000D02*
X4244250D01*
X4243250Y2856000D02*
Y2858000D01*
X4253000Y2858750D02*
X4255000D01*
X4254000Y2857750D02*
Y2859750D01*
X4259750Y2866250D02*
X4261750D01*
X4260750Y2865250D02*
Y2867250D01*
X4259250Y2853750D02*
X4261250D01*
X4260250Y2852750D02*
Y2854750D01*
X4252750Y2847750D02*
X4254750D01*
X4253750Y2846750D02*
Y2848750D01*
X4247250Y2841250D02*
X4249250D01*
X4248250Y2840250D02*
Y2842250D01*
X4421500Y3071000D02*
X4423500D01*
X4422500Y3070000D02*
Y3072000D01*
X4398750Y3038500D02*
X4400750D01*
X4399750Y3037500D02*
Y3039500D01*
X4419500Y3060000D02*
X4421500D01*
X4420500Y3059000D02*
Y3061000D01*
X4412500Y3052500D02*
X4414500D01*
X4413500Y3051500D02*
Y3053500D01*
X4425250Y3065000D02*
X4427250D01*
X4426250Y3064000D02*
Y3066000D01*
X4403500Y3011000D02*
X4405500D01*
X4404500Y3010000D02*
Y3012000D01*
X4402500Y3017250D02*
X4404500D01*
X4403500Y3016250D02*
Y3018250D01*
X4397750Y3012250D02*
X4399750D01*
X4398750Y3011250D02*
Y3013250D01*
X4283500Y2966500D02*
X4285500D01*
X4284500Y2965500D02*
Y2967500D01*
X4276000Y2960750D02*
X4278000D01*
X4277000Y2959750D02*
Y2961750D01*
X4282750Y2959750D02*
X4284750D01*
X4283750Y2958750D02*
Y2960750D01*
X4290000Y2960500D02*
X4292000D01*
X4291000Y2959500D02*
Y2961500D01*
X4287750Y2906250D02*
X4289750D01*
X4288750Y2905250D02*
Y2907250D01*
X4293750Y2911000D02*
X4295750D01*
X4294750Y2910000D02*
Y2912000D01*
X4222000Y2841250D02*
X4224000D01*
X4223000Y2840250D02*
Y2842250D01*
X4271750Y2912500D02*
X4273750D01*
X4272750Y2911500D02*
Y2913500D01*
X4278000Y2907000D02*
X4280000D01*
X4279000Y2906000D02*
Y2908000D01*
X4283500Y2901750D02*
X4285500D01*
X4284500Y2900750D02*
Y2902750D01*
X4237750Y2840500D02*
X4239750D01*
X4238750Y2839500D02*
Y2841500D01*
X4278500Y2918250D02*
X4280500D01*
X4279500Y2917250D02*
Y2919250D01*
X4284500Y2918250D02*
X4286500D01*
X4285500Y2917250D02*
Y2919250D01*
X4290750Y2918250D02*
X4292750D01*
X4291750Y2917250D02*
Y2919250D01*
X4288750Y2853750D02*
X4290750D01*
X4289750Y2852750D02*
Y2854750D01*
X4347500Y2924500D02*
X4349500D01*
X4348500Y2923500D02*
Y2925500D01*
X4355000Y2925750D02*
X4357000D01*
X4356000Y2924750D02*
Y2926750D01*
X4361500Y2928750D02*
X4363500D01*
X4362500Y2927750D02*
Y2929750D01*
X4293250Y2859000D02*
X4295250D01*
X4294250Y2858000D02*
Y2860000D01*
X4322250Y2879250D02*
X4324250D01*
X4323250Y2878250D02*
Y2880250D01*
X4322500Y2888500D02*
X4324500D01*
X4323500Y2887500D02*
Y2889500D01*
X4317250Y2883500D02*
X4319250D01*
X4318250Y2882500D02*
Y2884500D01*
X4314250Y2872500D02*
X4316250D01*
X4315250Y2871500D02*
Y2873500D01*
X4288000Y2846750D02*
X4290000D01*
X4289000Y2845750D02*
Y2847750D01*
X4257750Y2813250D02*
X4259750D01*
X4258750Y2812250D02*
Y2814250D01*
X4273250Y2813250D02*
X4275250D01*
X4274250Y2812250D02*
Y2814250D01*
X4265500Y2813000D02*
X4267500D01*
X4266500Y2812000D02*
Y2814000D01*
X4304250Y2834250D02*
X4306250D01*
X4305250Y2833250D02*
Y2835250D01*
X4315500Y2844000D02*
X4317500D01*
X4316500Y2843000D02*
Y2845000D01*
X4293250Y2823500D02*
X4295250D01*
X4294250Y2822500D02*
Y2824500D01*
X4309276Y2841790D02*
X4311276D01*
X4310276Y2840790D02*
Y2842790D01*
X4316500Y2851250D02*
X4318500D01*
X4317500Y2850250D02*
Y2852250D01*
X4355500Y2882750D02*
X4357500D01*
X4356500Y2881750D02*
Y2883750D01*
X4345750Y2903000D02*
X4347750D01*
X4346750Y2902000D02*
Y2904000D01*
X4357250Y2914250D02*
X4359250D01*
X4358250Y2913250D02*
Y2915250D01*
X4350500Y2914000D02*
X4352500D01*
X4351500Y2913000D02*
Y2915000D01*
X4344000Y2909750D02*
X4346000D01*
X4345000Y2908750D02*
Y2910750D01*
X4347750Y2944000D02*
X4349750D01*
X4348750Y2943000D02*
Y2945000D01*
X4354500Y2944000D02*
X4356500D01*
X4355500Y2943000D02*
Y2945000D01*
X4373250Y2945750D02*
X4375250D01*
X4374250Y2944750D02*
Y2946750D01*
X4367250Y2934250D02*
X4369250D01*
X4368250Y2933250D02*
Y2935250D01*
X4341750Y2922000D02*
X4343750D01*
X4342750Y2921000D02*
Y2923000D01*
X4335750Y2918500D02*
X4337750D01*
X4336750Y2917500D02*
Y2919500D01*
X4339500Y2947500D02*
X4341500D01*
X4340500Y2946500D02*
Y2948500D01*
X4326000Y2948000D02*
X4328000D01*
X4327000Y2947000D02*
Y2949000D01*
X4331000Y2929250D02*
X4333000D01*
X4332000Y2928250D02*
Y2930250D01*
X4327000Y2937250D02*
X4329000D01*
X4328000Y2936250D02*
Y2938250D01*
X4246750Y2937500D02*
X4248750D01*
X4247750Y2936500D02*
Y2938500D01*
X4293500Y2945250D02*
X4295500D01*
X4294500Y2944250D02*
Y2946250D01*
X4285000Y2945250D02*
X4287000D01*
X4286000Y2944250D02*
Y2946250D01*
X4275250Y2936250D02*
X4277250D01*
X4276250Y2935250D02*
Y2937250D01*
X4285250Y2936250D02*
X4287250D01*
X4286250Y2935250D02*
Y2937250D01*
X4294000Y2936250D02*
X4296000D01*
X4295000Y2935250D02*
Y2937250D01*
X4268000Y2940000D02*
X4270000D01*
X4269000Y2939000D02*
Y2941000D01*
X4306250Y2937000D02*
X4308250D01*
X4307250Y2936000D02*
Y2938000D01*
X4301500Y2942500D02*
X4303500D01*
X4302500Y2941500D02*
Y2943500D01*
X4275500Y2945250D02*
X4277500D01*
X4276500Y2944250D02*
Y2946250D01*
X4090000Y2960000D02*
X4092000D01*
X4091000Y2959000D02*
Y2961000D01*
X4079000Y2970500D02*
X4081000D01*
X4080000Y2969500D02*
Y2971500D01*
X4103250Y3142500D02*
X4105250D01*
X4104250Y3141500D02*
Y3143500D01*
X4086750Y3125750D02*
X4088750D01*
X4087750Y3124750D02*
Y3126750D01*
X4110750Y3142500D02*
X4112750D01*
X4111750Y3141500D02*
Y3143500D01*
X4118250Y3142500D02*
X4120250D01*
X4119250Y3141500D02*
Y3143500D01*
X4248000Y2988500D02*
X4250000D01*
X4249000Y2987500D02*
Y2989500D01*
X4239750Y2979500D02*
X4241750D01*
X4240750Y2978500D02*
Y2980500D01*
X4254000Y2997000D02*
X4256000D01*
X4255000Y2996000D02*
Y2998000D01*
X4259000Y3006500D02*
X4261000D01*
X4260000Y3005500D02*
Y3007500D01*
X4261500Y3018750D02*
X4263500D01*
X4262500Y3017750D02*
Y3019750D01*
X4262000Y3030250D02*
X4264000D01*
X4263000Y3029250D02*
Y3031250D01*
X4257250Y3077250D02*
X4259250D01*
X4258250Y3076250D02*
Y3078250D01*
X4257250Y3086000D02*
X4259250D01*
X4258250Y3085000D02*
Y3087000D01*
X4269250Y3107500D02*
X4271250D01*
X4270250Y3106500D02*
Y3108500D01*
X4262500Y3107500D02*
X4264500D01*
X4263500Y3106500D02*
Y3108500D01*
X4255000Y3107500D02*
X4257000D01*
X4256000Y3106500D02*
Y3108500D01*
X4249000Y3113750D02*
X4251000D01*
X4250000Y3112750D02*
Y3114750D01*
X4235750Y3128000D02*
X4237750D01*
X4236750Y3127000D02*
Y3129000D01*
X4224000Y3141000D02*
X4226000D01*
X4225000Y3140000D02*
Y3142000D01*
X4210000Y3137750D02*
X4212000D01*
X4211000Y3136750D02*
Y3138750D01*
X4310750Y3132000D02*
X4312750D01*
X4311750Y3131000D02*
Y3133000D01*
X4289000Y3131500D02*
X4291000D01*
X4290000Y3130500D02*
Y3132500D01*
X4261750Y3131500D02*
X4263750D01*
X4262750Y3130500D02*
Y3132500D01*
X4259500Y3161000D02*
X4261500D01*
X4260500Y3160000D02*
Y3162000D01*
X4278750Y3143000D02*
X4280750D01*
X4279750Y3142000D02*
Y3144000D01*
X4269750Y3152750D02*
X4271750D01*
X4270750Y3151750D02*
Y3153750D01*
X4310750Y3176250D02*
X4312750D01*
X4311750Y3175250D02*
Y3177250D01*
X4310500Y3167000D02*
X4312500D01*
X4311500Y3166000D02*
Y3168000D01*
X4311000Y3159500D02*
X4313000D01*
X4312000Y3158500D02*
Y3160500D01*
X4299750Y3178750D02*
X4301750D01*
X4300750Y3177750D02*
Y3179750D01*
X4298250Y3300500D02*
X4301250D01*
X4299750Y3299000D02*
Y3302000D01*
X4277000Y3300250D02*
X4280000D01*
X4278500Y3298750D02*
Y3301750D01*
X4034000Y3043000D02*
X4036000D01*
X4035000Y3042000D02*
Y3044000D01*
X4034000Y3028000D02*
X4036000D01*
X4035000Y3027000D02*
Y3029000D01*
X4362800Y3168000D02*
X4364800D01*
X4363800Y3167000D02*
Y3169000D01*
X4352931Y3107314D02*
X4354931D01*
X4353931Y3106314D02*
Y3108314D01*
X4319000Y2989000D02*
X4321000D01*
X4320000Y2988000D02*
Y2990000D01*
X4448250Y2875500D02*
X4451250D01*
X4449750Y2874000D02*
Y2877000D01*
X4018407Y2983250D02*
X4020407D01*
X4019407Y2982250D02*
Y2984250D01*
X4006000Y2990000D02*
X4008000D01*
X4007000Y2989000D02*
Y2991000D01*
X4020750Y2992828D02*
X4022750D01*
X4021750Y2991828D02*
Y2993828D01*
X4095000Y2697000D02*
X4099000D01*
X4097000Y2695000D02*
Y2699000D01*
X4108000Y2702000D02*
X4111000D01*
X4109500Y2700500D02*
Y2703500D01*
X3886797Y2972366D02*
X3888797D01*
X3887797Y2971366D02*
Y2973366D01*
X3874000Y2972000D02*
X3876000D01*
X3875000Y2971000D02*
Y2973000D01*
X3869713Y3126750D02*
X3871713D01*
X3870713Y3125750D02*
Y3127750D01*
X3860313Y3126750D02*
X3862314D01*
X3861313Y3125750D02*
Y3127750D01*
X3869750Y3145000D02*
X3871750D01*
X3870750Y3144000D02*
Y3146000D01*
X3995250Y3185500D02*
X3998250D01*
X3996750Y3184000D02*
Y3187000D01*
X4059000Y3165000D02*
X4061000D01*
X4060000Y3164000D02*
Y3166000D01*
X3999500Y3139000D02*
X4002500D01*
X4001000Y3137500D02*
Y3140500D01*
X4041400Y3172000D02*
X4044600D01*
X4043000Y3170400D02*
Y3173600D01*
X4061500Y3195000D02*
X4064500D01*
X4063000Y3193500D02*
Y3196500D01*
X3992250Y3285250D02*
X3994250D01*
X3993250Y3284250D02*
Y3286250D01*
X3982000Y3285000D02*
X3984000D01*
X3983000Y3284000D02*
Y3286000D01*
X3987544Y3132988D02*
X3989544D01*
X3988544Y3131988D02*
Y3133988D01*
X4009000Y3296500D02*
X4011000D01*
X4010000Y3295500D02*
Y3297500D01*
X4009000Y3226000D02*
X4011000D01*
X4010000Y3225000D02*
Y3227000D01*
X4002500Y3192000D02*
X4005500D01*
X4004000Y3190500D02*
Y3193500D01*
X3953500Y3244000D02*
X3956500D01*
X3955000Y3242500D02*
Y3245500D01*
X3952707Y3223396D02*
X3955707D01*
X3954207Y3221896D02*
Y3224896D01*
X3952000Y3231000D02*
X3954000D01*
X3953000Y3230000D02*
Y3232000D01*
X3904096Y3209000D02*
X3906096D01*
X3905096Y3208000D02*
Y3210000D01*
X3904000Y3196160D02*
X3906000D01*
X3905000Y3195160D02*
Y3197160D01*
X3980000Y3168000D02*
X3982000D01*
X3981000Y3167000D02*
Y3169000D01*
X3925500Y3340000D02*
X3928500D01*
X3927000Y3338500D02*
Y3341500D01*
X3920500Y3264500D02*
X3922500D01*
X3921500Y3263500D02*
Y3265500D01*
X3998000Y3243000D02*
X4000000D01*
X3999000Y3242000D02*
Y3244000D01*
X3980110Y3134000D02*
X3982110D01*
X3981110Y3133000D02*
Y3135000D01*
X3992319Y3207181D02*
X3995319D01*
X3993819Y3205681D02*
Y3208681D01*
X4003000Y3116000D02*
X4005000D01*
X4004000Y3115000D02*
Y3117000D01*
X3972486Y3110486D02*
X3974486D01*
X3973486Y3109486D02*
Y3111486D01*
X3982000Y3321000D02*
X3984000D01*
X3983000Y3320000D02*
Y3322000D01*
X4352000Y3055201D02*
X4354000D01*
X4353000Y3054200D02*
Y3056200D01*
X4375812Y3109238D02*
X4377812D01*
X4376812Y3108239D02*
Y3110238D01*
X4396250Y3097500D02*
X4398250D01*
X4397250Y3096500D02*
Y3098500D01*
X4396000Y3087500D02*
X4398000D01*
X4397000Y3086500D02*
Y3088500D01*
X4388000Y3211000D02*
X4390000D01*
X4389000Y3210000D02*
Y3212000D01*
X4366000Y3208000D02*
X4368000D01*
X4367000Y3207000D02*
Y3209000D01*
X4403000Y3195000D02*
X4405000D01*
X4404000Y3194000D02*
Y3196000D01*
X4295000Y3212000D02*
X4297000D01*
X4296000Y3211000D02*
Y3213000D01*
X4394000Y3229000D02*
X4400000D01*
X4397000Y3226000D02*
Y3232000D01*
X4411510Y3228510D02*
X4413510D01*
X4412510Y3227510D02*
Y3229510D01*
X3972000Y2999883D02*
X3974000D01*
X3973000Y2998883D02*
Y3000883D01*
X3966000Y2998808D02*
X3968000D01*
X3967000Y2997808D02*
Y2999808D01*
X3989398Y3063000D02*
X3991399D01*
X3990399Y3062000D02*
Y3064000D01*
X4132500Y3183000D02*
X4135500D01*
X4134000Y3181500D02*
Y3184500D01*
X4081000Y3182000D02*
X4083000D01*
X4082000Y3181000D02*
Y3183000D01*
X4132500Y3247000D02*
X4135500D01*
X4134000Y3245500D02*
Y3248500D01*
X3971508Y3103969D02*
X3973509D01*
X3972509Y3102969D02*
Y3104969D01*
X3967000Y3113000D02*
X3969000D01*
X3968000Y3112000D02*
Y3114000D01*
X3993000Y3227000D02*
X3995000D01*
X3994000Y3226000D02*
Y3228000D01*
X3979641Y3220359D02*
X3981641D01*
X3980641Y3219359D02*
Y3221359D01*
X4197250Y3170054D02*
X4199250D01*
X4198250Y3169054D02*
Y3171054D01*
X4308000Y3262000D02*
X4310000D01*
X4309000Y3261000D02*
Y3263000D01*
X3842932Y3053932D02*
X3844932D01*
X3843932Y3052932D02*
Y3054932D01*
X3876309Y3067691D02*
X3878309D01*
X3877309Y3066691D02*
Y3068691D01*
X3880500Y3062696D02*
X3882500D01*
X3881500Y3061696D02*
Y3063696D01*
X3980000Y3106000D02*
X3982000D01*
X3981000Y3105000D02*
Y3107000D01*
X3999102Y3121000D02*
X4001102D01*
X4000102Y3120000D02*
Y3122000D01*
X3957463Y3117000D02*
X3959463D01*
X3958463Y3116000D02*
Y3118000D01*
X3962607Y3122985D02*
X3964607D01*
X3963607Y3121985D02*
Y3123984D01*
X3944000Y2716000D02*
X3946000D01*
X3945000Y2715000D02*
Y2717000D01*
X3941000Y2710000D02*
X3943000D01*
X3942000Y2709000D02*
Y2711000D01*
X3942096Y2726904D02*
X3944096D01*
X3943096Y2725904D02*
Y2727904D01*
X3855000Y2968000D02*
X3857000D01*
X3856000Y2967000D02*
Y2969000D01*
X4398000Y2864000D02*
X4400000D01*
X4399000Y2863000D02*
Y2865000D01*
X3866000Y3153000D02*
X3868000D01*
X3867000Y3152000D02*
Y3154000D01*
X3876000Y3153000D02*
X3878000D01*
X3877000Y3152000D02*
Y3154000D01*
X3876761Y3147004D02*
X3878761D01*
X3877761Y3146004D02*
Y3148004D01*
X3861016Y3161734D02*
X3863016D01*
X3862016Y3160734D02*
Y3162734D01*
X3853738Y3126750D02*
X3855738D01*
X3854738Y3125750D02*
Y3127750D01*
X3873017Y3248592D02*
X3875017D01*
X3874017Y3247592D02*
Y3249592D01*
X3905000Y2981000D02*
X3907000D01*
X3906000Y2980000D02*
Y2982000D01*
X3916000Y3017750D02*
X3918000D01*
X3917000Y3016750D02*
Y3018750D01*
X3929160Y2995989D02*
X3931160D01*
X3930160Y2994989D02*
Y2996989D01*
X3863000Y2961000D02*
X3865000D01*
X3864000Y2960000D02*
Y2962000D01*
X3833000Y2958000D02*
X3835000D01*
X3834000Y2957000D02*
Y2959000D01*
X3866020Y3078362D02*
X3868020D01*
X3867020Y3077362D02*
Y3079362D01*
X3848413Y3076580D02*
X3850413D01*
X3849413Y3075580D02*
Y3077580D01*
X3843000Y3092000D02*
X3845000D01*
X3844000Y3091000D02*
Y3093000D01*
X3851696Y3090750D02*
X3853696D01*
X3852696Y3089750D02*
Y3091750D01*
X3826000Y3110000D02*
X3828000D01*
X3827000Y3109000D02*
Y3111000D01*
X3809000Y3056000D02*
X3811000D01*
X3810000Y3055000D02*
Y3057000D01*
X3817250Y3048000D02*
X3819250D01*
X3818250Y3047000D02*
Y3049000D01*
X3836000Y2990000D02*
X3838000D01*
X3837000Y2989000D02*
Y2991000D01*
X3862664Y3091335D02*
X3864664D01*
X3863665Y3090336D02*
Y3092336D01*
X3879000Y3057000D02*
X3881000D01*
X3880000Y3056000D02*
Y3058000D01*
X3886869Y3098474D02*
X3888868D01*
X3887869Y3097474D02*
Y3099474D01*
X3950290Y2945710D02*
X3952290D01*
X3951290Y2944710D02*
Y2946710D01*
X3951000Y2958000D02*
X3953000D01*
X3952000Y2957000D02*
Y2959000D01*
X3870000Y3170000D02*
X3872000D01*
X3871000Y3169000D02*
Y3171000D01*
X3860000Y3169000D02*
X3862000D01*
X3861000Y3168000D02*
Y3170000D01*
X3876848Y3159130D02*
X3878848D01*
X3877848Y3158130D02*
Y3160130D01*
X3874024Y3089259D02*
X3876024D01*
X3875023Y3088259D02*
Y3090259D01*
X3973838Y2669705D02*
X3975838D01*
X3974838Y2668705D02*
Y2670705D01*
X3974361Y2663748D02*
X3976361D01*
X3975361Y2662748D02*
Y2664748D01*
X3880037Y3248000D02*
X3882037D01*
X3881037Y3247000D02*
Y3249000D01*
X4425500Y3300000D02*
X4428500D01*
X4427000Y3298500D02*
Y3301500D01*
X4341000Y3319000D02*
X4343000D01*
X4342000Y3318000D02*
Y3320000D01*
X4340000Y3345000D02*
X4342000D01*
X4341000Y3344000D02*
Y3346000D01*
X4366000Y3351000D02*
X4368000D01*
X4367000Y3350000D02*
Y3352000D01*
X3935545Y3113000D02*
X3937545D01*
X3936545Y3112000D02*
Y3114000D01*
X3940134Y3118959D02*
X3942134D01*
X3941134Y3117959D02*
Y3119958D01*
X3900751Y3118750D02*
X3902751D01*
X3901750Y3117750D02*
Y3119750D01*
X4379500Y2804000D02*
X4382500D01*
X4381000Y2802500D02*
Y2805500D01*
X3986000Y3030000D02*
X3988000D01*
X3987000Y3029000D02*
Y3031000D01*
X3994000Y3050000D02*
X3996000D01*
X3995000Y3049000D02*
Y3051000D01*
X3974500Y3029000D02*
X3977500D01*
X3976000Y3027500D02*
Y3030500D01*
X3962000Y3033000D02*
X3965000D01*
X3963500Y3031500D02*
Y3034500D01*
X3963000Y3040000D02*
X3965000D01*
X3964000Y3039000D02*
Y3041000D01*
X3984141Y3014141D02*
X3986141D01*
X3985141Y3013141D02*
Y3015141D01*
X3990835Y3001335D02*
X3993835D01*
X3992335Y2999835D02*
Y3002835D01*
X3869000Y3101000D02*
X3871000D01*
X3870000Y3100000D02*
Y3102000D01*
X3931000Y2815500D02*
X3933000D01*
X3932000Y2814500D02*
Y2816500D01*
X4340000Y3152000D02*
X4342000D01*
X4341000Y3151000D02*
Y3153000D01*
X4315000Y2977000D02*
X4317000D01*
X4316000Y2976000D02*
Y2978000D01*
X4325124Y2990000D02*
X4327123D01*
X4326123Y2989000D02*
Y2991000D01*
X4326000Y2996000D02*
X4328000D01*
X4327000Y2995000D02*
Y2997000D01*
X4325000Y2981000D02*
X4327000D01*
X4326000Y2980000D02*
Y2982000D01*
X3923062Y2927000D02*
X3925062D01*
X3924062Y2926000D02*
Y2928000D01*
X3950370Y2964132D02*
X3952370D01*
X3951370Y2963132D02*
Y2965132D01*
X3981965Y2995857D02*
X3983965D01*
X3982964Y2994857D02*
Y2996857D01*
X3982000Y2988812D02*
X3984000D01*
X3983000Y2987812D02*
Y2989812D01*
X3951373Y3146630D02*
X3953373D01*
X3952373Y3145630D02*
Y3147630D01*
X3955339Y3155689D02*
X3957339D01*
X3956339Y3154689D02*
Y3156689D01*
X3879254Y3169000D02*
X3881254D01*
X3880254Y3168000D02*
Y3170000D01*
X3875000Y3215000D02*
X3877000D01*
X3876000Y3214000D02*
Y3216000D01*
X3904096Y3202000D02*
X3906096D01*
X3905096Y3201000D02*
Y3203000D01*
X3874000Y3202000D02*
X3876000D01*
X3875000Y3201000D02*
Y3203000D01*
X3880000Y3220000D02*
X3882000D01*
X3881000Y3219000D02*
Y3221000D01*
X3866859Y3209141D02*
X3868859D01*
X3867859Y3208141D02*
Y3210141D01*
X4524000Y2992000D02*
X4526000D01*
X4525000Y2991000D02*
Y2993000D01*
X4428000Y2913000D02*
X4430000D01*
X4429000Y2912000D02*
Y2914000D01*
X4420000D02*
X4422000D01*
X4421000Y2913000D02*
Y2915000D01*
X4002000Y2692000D02*
X4004000D01*
X4003000Y2691000D02*
Y2693000D01*
X4017709Y2678120D02*
X4019709D01*
X4018709Y2677120D02*
Y2679120D01*
X4368000Y2991000D02*
X4370000D01*
X4369000Y2990000D02*
Y2992000D01*
X4458500Y3056000D02*
X4461500D01*
X4460000Y3054500D02*
Y3057500D01*
X4382974Y3028026D02*
X4384974D01*
X4383974Y3027026D02*
Y3029026D01*
X4459313Y3088687D02*
X4465313D01*
X4462313Y3085687D02*
Y3091687D01*
X4356000Y3172000D02*
X4358000D01*
X4357000Y3171000D02*
Y3173000D01*
X4479500Y3011000D02*
X4482500D01*
X4481000Y3009500D02*
Y3012500D01*
X4478000Y2999000D02*
X4480000D01*
X4479000Y2998000D02*
Y3000000D01*
X4411000Y2965000D02*
X4413000D01*
X4412000Y2964000D02*
Y2966000D01*
X4065000Y2826000D02*
X4067000D01*
X4066000Y2825000D02*
Y2827000D01*
X4373000Y3059000D02*
X4375000D01*
X4374000Y3058000D02*
Y3060000D01*
X4288500Y2736000D02*
X4291500D01*
X4290000Y2734500D02*
Y2737500D01*
X3981000Y2698000D02*
X3983000D01*
X3982000Y2697000D02*
Y2699000D01*
X3980500Y3178500D02*
X3983500D01*
X3982000Y3177000D02*
Y3180000D01*
X3939500Y2687000D02*
X3941500D01*
X3940500Y2686000D02*
Y2688000D01*
X4329110Y3181000D02*
X4331111D01*
X4330110Y3180000D02*
Y3182000D01*
X4380000Y3167302D02*
X4382000D01*
X4381000Y3166302D02*
Y3168302D01*
X4336000Y3107000D02*
X4338000D01*
X4337000Y3106000D02*
Y3108000D01*
X3968000Y2944000D02*
X3970000D01*
X3969000Y2943000D02*
Y2945000D01*
X3975219Y2961556D02*
X3977220D01*
X3976219Y2960556D02*
Y2962556D01*
X4378000Y3151302D02*
X4380000D01*
X4379000Y3150302D02*
Y3152302D01*
X4357000Y3146000D02*
X4359000D01*
X4358000Y3145000D02*
Y3147000D01*
X4363393Y3142921D02*
X4365393D01*
X4364393Y3141921D02*
Y3143921D01*
X3939350Y3144650D02*
X3941350D01*
X3940350Y3143650D02*
Y3145650D01*
X3918000Y3171000D02*
X3920000D01*
X3919000Y3170000D02*
Y3172000D01*
X3916000Y3071000D02*
X3918000D01*
X3917000Y3070000D02*
Y3072000D01*
X4014000Y3240000D02*
X4016000D01*
X4015000Y3239000D02*
Y3241000D01*
X3983000Y3260000D02*
X3985000D01*
X3984000Y3259000D02*
Y3261000D01*
X4317676Y2755663D02*
X4319676D01*
X4318676Y2754662D02*
Y2756663D01*
X4331040Y2781040D02*
X4333040D01*
X4332040Y2780040D02*
Y2782040D01*
X4335000Y2765000D02*
X4337000D01*
X4336000Y2764000D02*
Y2766000D01*
X4074000Y2713000D02*
X4076000D01*
X4075000Y2712000D02*
Y2714000D01*
X4008500Y2961339D02*
X4010500D01*
X4009500Y2960339D02*
Y2962339D01*
X4008000Y2947750D02*
X4010000D01*
X4009000Y2946750D02*
Y2948750D01*
X4023750Y2946000D02*
X4025750D01*
X4024750Y2945000D02*
Y2947000D01*
X4023750Y2933171D02*
X4025750D01*
X4024750Y2932172D02*
Y2934171D01*
X4003000Y2943000D02*
X4005000D01*
X4004000Y2942000D02*
Y2944000D01*
X3986000Y2924000D02*
X3988000D01*
X3987000Y2923000D02*
Y2925000D01*
X3979000Y2917000D02*
X3981000D01*
X3980000Y2916000D02*
Y2918000D01*
X3981000Y2897000D02*
X3983000D01*
X3982000Y2896000D02*
Y2898000D01*
X4217000Y2728000D02*
X4221000D01*
X4219000Y2726000D02*
Y2730000D01*
X4415000Y2805000D02*
X4417000D01*
X4416000Y2804000D02*
Y2806000D01*
X4451000Y2926000D02*
X4453000D01*
X4452000Y2925000D02*
Y2927000D01*
X4464000Y2968000D02*
X4466000D01*
X4465000Y2967000D02*
Y2969000D01*
X4418352Y2951083D02*
X4420352D01*
X4419352Y2950083D02*
Y2952083D01*
X4415000Y3172000D02*
X4417000D01*
X4416000Y3171000D02*
Y3173000D01*
X4339510Y3307510D02*
X4341510D01*
X4340510Y3306510D02*
Y3308510D01*
X4336000Y3290000D02*
X4342000D01*
X4339000Y3287000D02*
Y3293000D01*
X4393000Y3301000D02*
X4395000D01*
X4394000Y3300000D02*
Y3302000D01*
X4074000Y3321000D02*
X4080000D01*
X4077000Y3318000D02*
Y3324000D01*
X4119500Y3260000D02*
X4122500D01*
X4121000Y3258500D02*
Y3261500D01*
X4233000Y3306000D02*
X4239000D01*
X4236000Y3303000D02*
Y3309000D01*
X4250500Y3316000D02*
X4253500D01*
X4252000Y3314500D02*
Y3317500D01*
X3906893Y2999957D02*
X3908893D01*
X3907893Y2998957D02*
Y3000957D01*
X4357823Y2796041D02*
X4359824D01*
X4358824Y2795041D02*
Y2797041D01*
X4425000Y3312000D02*
X4427000D01*
X4426000Y3311000D02*
Y3313000D01*
X4162750Y3312250D02*
X4168750D01*
X4165750Y3309250D02*
Y3315250D01*
X4014966Y2685074D02*
X4017966D01*
X4016466Y2683574D02*
Y2686574D01*
X4163858Y3229142D02*
X4169858D01*
X4166858Y3226142D02*
Y3232142D01*
X4337250Y3331750D02*
X4339250D01*
X4338250Y3330750D02*
Y3332750D01*
X4425000Y3344750D02*
X4427000D01*
X4426000Y3343750D02*
Y3345750D01*
X3880000Y3012750D02*
X3882000D01*
X3881000Y3011750D02*
Y3013750D01*
X3905910Y2972792D02*
X3907910D01*
X3906910Y2971792D02*
Y2973792D01*
X3897341Y2968000D02*
X3899341D01*
X3898341Y2967000D02*
Y2969000D01*
X3899500Y2957500D02*
X3901500D01*
X3900500Y2956500D02*
Y2958500D01*
X3872250Y3270250D02*
X3874250D01*
X3873250Y3269250D02*
Y3271250D01*
X3906300Y3245625D02*
X3908300D01*
X3907300Y3244625D02*
Y3246625D01*
X3962323Y3103720D02*
X3964323D01*
X3963323Y3102720D02*
Y3104720D01*
X3848250Y3033731D02*
X3850250D01*
X3849250Y3032731D02*
Y3034731D01*
X3909757Y2947243D02*
X3911758D01*
X3910757Y2946243D02*
Y2948242D01*
X3902000Y2944000D02*
X3904000D01*
X3903000Y2943000D02*
Y2945000D01*
X3944750Y2920500D02*
X3947750D01*
X3946250Y2919000D02*
Y2922000D01*
X3913562Y2927562D02*
X3915562D01*
X3914561Y2926562D02*
Y2928562D01*
X3907566Y2922066D02*
X3910566D01*
X3909066Y2920566D02*
Y2923566D01*
X3815500Y2931000D02*
X3818500D01*
X3817000Y2929500D02*
Y2932500D01*
X3800000Y2922750D02*
X3803000D01*
X3801500Y2921250D02*
Y2924250D01*
X3872000Y2781000D02*
X3874000D01*
X3873000Y2780000D02*
Y2782000D01*
X3974000Y2789000D02*
X3976000D01*
X3975000Y2788000D02*
Y2790000D01*
X4236267Y2795978D02*
X4239267D01*
X4237767Y2794478D02*
Y2797478D01*
X4300500Y2805000D02*
X4303500D01*
X4302000Y2803500D02*
Y2806500D01*
X3898750Y2722500D02*
X3901750D01*
X3900250Y2721000D02*
Y2724000D01*
X3882572Y2740072D02*
X3884572D01*
X3883572Y2739072D02*
Y2741072D01*
X4004750Y2910000D02*
X4006750D01*
X4005750Y2909000D02*
Y2911000D01*
X4025250Y2910000D02*
X4027250D01*
X4026250Y2909000D02*
Y2911000D01*
X3936566Y2922152D02*
X3938565D01*
X3937565Y2921152D02*
Y2923152D01*
X3983500Y2890000D02*
X3986500D01*
X3985000Y2888500D02*
Y2891500D01*
X4009655Y2842376D02*
X4011654D01*
X4010654Y2841376D02*
Y2843376D01*
X3926540Y2941076D02*
X3928540D01*
X3927540Y2940076D02*
Y2942076D01*
X3952643Y3109043D02*
X3954643D01*
X3953643Y3108043D02*
Y3110043D01*
X3947750Y3103750D02*
X3949750D01*
X3948750Y3102750D02*
Y3104750D01*
X4103437Y2671437D02*
X4105437D01*
X4104437Y2670437D02*
Y2672437D01*
X3872289Y3095250D02*
X3874289D01*
X3873289Y3094250D02*
Y3096250D01*
X3928114Y2932912D02*
X3930114D01*
X3929113Y2931912D02*
Y2933912D01*
X3936945Y2837000D02*
X3938944D01*
X3937945Y2836000D02*
Y2838000D01*
X3823750Y2882750D02*
X3825750D01*
X3824750Y2881750D02*
Y2883750D01*
X3870750Y2856750D02*
X3872750D01*
X3871750Y2855750D02*
Y2857750D01*
X3894000Y2973000D02*
X3896000D01*
X3895000Y2972000D02*
Y2974000D01*
X4025500Y2711000D02*
X4028500D01*
X4027000Y2709500D02*
Y2712500D01*
X3985250Y2673500D02*
X3987250D01*
X3986250Y2672500D02*
Y2674500D01*
X4472500Y3311000D02*
X4475500D01*
X4474000Y3309500D02*
Y3312500D01*
X3922115Y2858115D02*
X3924115D01*
X3923115Y2857115D02*
Y2859115D01*
X3892115Y2888115D02*
X3894115D01*
X3893115Y2887115D02*
Y2889115D01*
X3894000Y2871000D02*
X3896000D01*
X3895000Y2870000D02*
Y2872000D01*
X3890722Y2904029D02*
X3892722D01*
X3891721Y2903029D02*
Y2905029D01*
X3934539Y2860189D02*
X3936540D01*
X3935540Y2859189D02*
Y2861189D01*
X3898000Y2902000D02*
X3900000D01*
X3899000Y2901000D02*
Y2903000D01*
X4003000Y3238000D02*
X4005000D01*
X4004000Y3237000D02*
Y3239000D01*
X4216000Y3252000D02*
X4220000D01*
X4218000Y3250000D02*
Y3254000D01*
X4192500Y3274000D02*
X4195500D01*
X4194000Y3272500D02*
Y3275500D01*
X3901674Y3280504D02*
X3903674D01*
X3902674Y3279504D02*
Y3281504D01*
X4147311Y3168250D02*
X4149311D01*
X4148311Y3167250D02*
Y3169250D01*
X4037674Y3272504D02*
X4039674D01*
X4038674Y3271504D02*
Y3273504D01*
X3874500Y3301000D02*
X3877500D01*
X3876000Y3299500D02*
Y3302500D01*
X3836012Y3163000D02*
X3838012D01*
X3837012Y3162000D02*
Y3164000D01*
X3915000Y3140000D02*
X3917000D01*
X3916000Y3139000D02*
Y3141000D01*
X4070424Y3116575D02*
X4072425D01*
X4071425Y3115575D02*
Y3117575D01*
X3926045Y3115175D02*
X3928045D01*
X3927045Y3114175D02*
Y3116175D01*
X4354000Y3166000D02*
X4356000D01*
X4355000Y3165000D02*
Y3167000D01*
X4311000Y3119000D02*
X4313000D01*
X4312000Y3118000D02*
Y3120000D01*
X4329110Y3126000D02*
X4331111D01*
X4330110Y3125000D02*
Y3127000D01*
X4192500Y3351000D02*
X4195500D01*
X4194000Y3349500D02*
Y3352500D01*
X4426000Y3332000D02*
X4428000D01*
X4427000Y3331000D02*
Y3333000D01*
X4241500Y3341000D02*
X4244500D01*
X4243000Y3339500D02*
Y3342500D01*
X3941500Y3254500D02*
X3944500D01*
X3943000Y3253000D02*
Y3256000D01*
X4066000Y3112000D02*
X4068000D01*
X4067000Y3111000D02*
Y3113000D01*
X4019000Y3042000D02*
X4021000D01*
X4020000Y3041000D02*
Y3043000D01*
X4020750Y3003000D02*
X4022750D01*
X4021750Y3002000D02*
Y3004000D01*
X4024750Y3007437D02*
X4026750D01*
X4025750Y3006437D02*
Y3008437D01*
X4023750Y2939000D02*
X4025750D01*
X4024750Y2938000D02*
Y2940000D01*
X3997035Y2920983D02*
X3999035D01*
X3998035Y2919983D02*
Y2921983D01*
X4003141Y2921141D02*
X4005141D01*
X4004141Y2920141D02*
Y2922141D01*
X3975500Y2799000D02*
X3978500D01*
X3977000Y2797500D02*
Y2800500D01*
X4072063Y2685563D02*
X4074063D01*
X4073063Y2684563D02*
Y2686563D01*
X4060161Y2710388D02*
X4062161D01*
X4061161Y2709388D02*
Y2711389D01*
X3941936Y3166700D02*
X3943936D01*
X3942936Y3165700D02*
Y3167700D01*
X3949000Y3165000D02*
X3951000D01*
X3950000Y3164000D02*
Y3166000D01*
X3797500Y3005000D02*
X3800500D01*
X3799000Y3003500D02*
Y3006500D01*
X4002800Y2787700D02*
X4005800D01*
X4004300Y2786200D02*
Y2789200D01*
X4317000Y2763000D02*
X4319000D01*
X4318000Y2762000D02*
Y2764000D01*
X4444000Y2795306D02*
X4446000D01*
X4445000Y2794307D02*
Y2796306D01*
X4444000Y2748000D02*
X4446000D01*
X4445000Y2747000D02*
Y2749000D01*
X4401000Y2783750D02*
X4403000D01*
X4402000Y2782750D02*
Y2784750D01*
X4369000Y2928000D02*
X4371000D01*
X4370000Y2927000D02*
Y2929000D01*
X4352000Y3015000D02*
X4354000D01*
X4353000Y3014000D02*
Y3016000D01*
X4302704Y3019104D02*
X4304704D01*
X4303704Y3018104D02*
Y3020104D01*
X4292828Y2972797D02*
X4294828D01*
X4293828Y2971797D02*
Y2973797D01*
X4293997Y3101003D02*
X4297997D01*
X4295997Y3099003D02*
Y3103003D01*
X4268000Y3015000D02*
X4270000D01*
X4269000Y3014000D02*
Y3016000D01*
X4238000Y3163813D02*
X4240000D01*
X4239000Y3162812D02*
Y3164813D01*
X3932250Y3078505D02*
X3934250D01*
X3933250Y3077505D02*
Y3079505D01*
X3944000Y3033000D02*
X3946000D01*
X3945000Y3032000D02*
Y3034000D01*
X3931609Y3034609D02*
X3933609D01*
X3932609Y3033609D02*
Y3035609D01*
X3947487Y3005679D02*
X3949487D01*
X3948487Y3004679D02*
Y3006679D01*
X3940231Y3008989D02*
X3942231D01*
X3941231Y3007989D02*
Y3009989D01*
X4348175Y3201250D02*
X4351176D01*
X4349676Y3199750D02*
Y3202750D01*
X4358059Y3136853D02*
X4360060D01*
X4359059Y3135853D02*
Y3137853D01*
X4396000Y3126000D02*
X4398000D01*
X4397000Y3125000D02*
Y3127000D01*
X4406200Y3132000D02*
X4409200D01*
X4407700Y3130500D02*
Y3133500D01*
X4337000Y3135000D02*
X4339000D01*
X4338000Y3134000D02*
Y3136000D01*
X4393000Y2885000D02*
X4395000D01*
X4394000Y2884000D02*
Y2886000D01*
X4344000Y3028000D02*
X4346000D01*
X4345000Y3027000D02*
Y3029000D01*
X4360000Y3027000D02*
X4362000D01*
X4361000Y3026000D02*
Y3028000D01*
Y3035000D02*
X4363000D01*
X4362000Y3034000D02*
Y3036000D01*
X4384000Y3053000D02*
X4386000D01*
X4385000Y3052000D02*
Y3054000D01*
X4372375Y2975875D02*
X4375375D01*
X4373875Y2974375D02*
Y2977375D01*
X4412350Y2973150D02*
X4415350D01*
X4413850Y2971650D02*
Y2974650D01*
X3886287Y3126004D02*
X3888287D01*
X3887287Y3125004D02*
Y3127004D01*
X3934000Y2849500D02*
X3936000D01*
X3935000Y2848500D02*
Y2850500D01*
X3944000Y2846955D02*
X3946000D01*
X3945000Y2845955D02*
Y2847955D01*
X3933866Y3002489D02*
X3936866D01*
X3935366Y3000989D02*
Y3003989D01*
X3941000Y3060000D02*
X3943000D01*
X3942000Y3059000D02*
Y3061000D01*
X3879295Y3003705D02*
X3881295D01*
X3880295Y3002705D02*
Y3004705D01*
X3888000Y2956000D02*
X3890000D01*
X3889000Y2955000D02*
Y2957000D01*
X3904096Y3182172D02*
X3906096D01*
X3905096Y3181172D02*
Y3183172D01*
X3904000Y3220000D02*
X3906000D01*
X3905000Y3219000D02*
Y3221000D01*
X3993000Y2705000D02*
X3995000D01*
X3994000Y2704000D02*
Y2706000D01*
X3996500Y2725000D02*
X3999500D01*
X3998000Y2723500D02*
Y2726500D01*
X4001000Y2751000D02*
X4003000D01*
X4002000Y2750000D02*
Y2752000D01*
X3931000Y3329000D02*
X3933000D01*
X3932000Y3328000D02*
Y3330000D01*
X3945753Y3277660D02*
X3947753D01*
X3946753Y3276660D02*
Y3278660D01*
X4314500Y3236000D02*
X4317500D01*
X4316000Y3234500D02*
Y3237500D01*
X4322500Y2785000D02*
X4325500D01*
X4324000Y2783500D02*
Y2786500D01*
X4456500Y3177000D02*
X4459500D01*
X4458000Y3175500D02*
Y3178500D01*
X4285500Y3270000D02*
X4288500D01*
X4287000Y3268500D02*
Y3271500D01*
X3876000Y3024231D02*
X3878000D01*
X3877000Y3023231D02*
Y3025231D01*
X3853500Y3017000D02*
X3856500D01*
X3855000Y3015500D02*
Y3018500D01*
X3942500Y2671000D02*
X3945500D01*
X3944000Y2669500D02*
Y2672500D01*
X4384500Y2897000D02*
X4387500D01*
X4386000Y2895500D02*
Y2898500D01*
X4392000Y2911000D02*
X4394000D01*
X4393000Y2910000D02*
Y2912000D01*
X4411634Y2944366D02*
X4413634D01*
X4412634Y2943366D02*
Y2945366D01*
X4421500Y2938000D02*
X4424500D01*
X4423000Y2936500D02*
Y2939500D01*
X4413404Y2989404D02*
X4415404D01*
X4414404Y2988404D02*
Y2990404D01*
X4465000Y3038000D02*
X4467000D01*
X4466000Y3037000D02*
Y3039000D01*
X4416000Y3092000D02*
X4418000D01*
X4417000Y3091000D02*
Y3093000D01*
X4415000Y3119000D02*
X4417000D01*
X4416000Y3118000D02*
Y3120000D01*
Y3154000D02*
X4418000D01*
X4417000Y3153000D02*
Y3155000D01*
X4332000Y3170000D02*
X4334000D01*
X4333000Y3169000D02*
Y3171000D01*
X3894000Y2928000D02*
X3896000D01*
X3895000Y2927000D02*
Y2929000D01*
X3896000Y2940000D02*
X3898000D01*
X3897000Y2939000D02*
Y2941000D01*
X4027500Y2874000D02*
X4030500D01*
X4029000Y2872500D02*
Y2875500D01*
X4050500Y2868000D02*
X4053500D01*
X4052000Y2866500D02*
Y2869500D01*
X4051000Y2887000D02*
X4053000D01*
X4052000Y2886000D02*
Y2888000D01*
X4031000Y2896000D02*
X4033000D01*
X4032000Y2895000D02*
Y2897000D01*
X4215000Y2946000D02*
X4217000D01*
X4216000Y2945000D02*
Y2947000D01*
X4305110Y3053617D02*
X4307111D01*
X4306111Y3052617D02*
Y3054616D01*
X4303757Y3038757D02*
X4305757D01*
X4304757Y3037757D02*
Y3039757D01*
X4499000Y3088000D02*
X4505000D01*
X4502000Y3085000D02*
Y3091000D01*
X4340191Y3325059D02*
X4342191D01*
X4341191Y3324059D02*
Y3326059D01*
X3956435Y2949000D02*
X3958435D01*
X3957435Y2948000D02*
Y2950000D01*
X4076500Y2841000D02*
X4079500D01*
X4078000Y2839500D02*
Y2842500D01*
X4089000Y2822000D02*
X4091000D01*
X4090000Y2821000D02*
Y2823000D01*
X3856000Y2807000D02*
X3858000D01*
X3857000Y2806000D02*
Y2808000D01*
X4200500Y2822000D02*
X4203500D01*
X4202000Y2820500D02*
Y2823500D01*
X4214500Y2822000D02*
X4217500D01*
X4216000Y2820500D02*
Y2823500D01*
X4244707Y2830293D02*
X4246707D01*
X4245707Y2829293D02*
Y2831293D01*
X4119750Y2830750D02*
X4121750D01*
X4120750Y2829750D02*
Y2831750D01*
X4066500Y3154000D02*
X4069500D01*
X4068000Y3152500D02*
Y3155500D01*
X4132500Y3164000D02*
X4135500D01*
X4134000Y3162500D02*
Y3165500D01*
X4264000Y3119000D02*
X4266000D01*
X4265000Y3118000D02*
Y3120000D01*
X4383000Y2955000D02*
X4385000D01*
X4384000Y2954000D02*
Y2956000D01*
X4445713Y3037787D02*
X4447713D01*
X4446713Y3036787D02*
Y3038787D01*
X3791000Y2869000D02*
X3793000D01*
X3792000Y2868000D02*
Y2870000D01*
X3914000Y2849000D02*
X3916000D01*
X3915000Y2848000D02*
Y2850000D01*
X4054000Y2939000D02*
X4056000D01*
X4055000Y2938000D02*
Y2940000D01*
X4054000Y2946000D02*
X4056000D01*
X4055000Y2945000D02*
Y2947000D01*
X3862000Y2992000D02*
X3864000D01*
X3863000Y2991000D02*
Y2993000D01*
X3870000Y2986000D02*
X3872000D01*
X3871000Y2985000D02*
Y2987000D01*
X3874000Y2955000D02*
X3876000D01*
X3875000Y2954000D02*
Y2956000D01*
X4256671Y2943329D02*
X4258672D01*
X4257672Y2942328D02*
Y2944328D01*
X4237500Y2952000D02*
X4240500D01*
X4239000Y2950500D02*
Y2953500D01*
X4325500Y2817000D02*
X4328500D01*
X4327000Y2815500D02*
Y2818500D01*
X4111533Y2946691D02*
X4113533D01*
X4112533Y2945691D02*
Y2947691D01*
X4281000Y2755000D02*
X4283000D01*
X4282000Y2754000D02*
Y2756000D01*
X4042500Y2701000D02*
X4045500D01*
X4044000Y2699500D02*
Y2702500D01*
X3960500Y2799000D02*
X3963500D01*
X3962000Y2797500D02*
Y2800500D01*
X3972500Y2773000D02*
X3975500D01*
X3974000Y2771500D02*
Y2774500D01*
X4346500Y2744000D02*
X4349500D01*
X4348000Y2742500D02*
Y2745500D01*
X4344500Y2879000D02*
X4347500D01*
X4346000Y2877500D02*
Y2880500D01*
X4325500Y2860000D02*
X4328500D01*
X4327000Y2858500D02*
Y2861500D01*
X4324500Y2915000D02*
X4327500D01*
X4326000Y2913500D02*
Y2916500D01*
X4305000Y3066000D02*
X4307000D01*
X4306000Y3065000D02*
Y3067000D01*
X4269500Y3162000D02*
X4274500D01*
X4272000Y3159500D02*
Y3164500D01*
X3989594Y3073000D02*
X3993594D01*
X3991594Y3071000D02*
Y3075000D01*
X4294500Y3251000D02*
X4299500D01*
X4297000Y3248500D02*
Y3253500D01*
X3993253Y2985000D02*
X3995253D01*
X3994253Y2984000D02*
Y2986000D01*
X3910750Y3032250D02*
X3912750D01*
X3911750Y3031250D02*
Y3033250D01*
X4059000Y3101500D02*
X4063000D01*
X4061000Y3099500D02*
Y3103500D01*
X4049000Y2975000D02*
X4051000D01*
X4050000Y2974000D02*
Y2976000D01*
X4023750Y2952003D02*
X4025750D01*
X4024750Y2951003D02*
Y2953004D01*
X4023750Y2960539D02*
X4025750D01*
X4024750Y2959539D02*
Y2961539D01*
X4050750Y2952000D02*
X4052750D01*
X4051750Y2951000D02*
Y2953000D01*
X4045250Y2997000D02*
X4047250D01*
X4046250Y2996000D02*
Y2998000D01*
X3969708Y2952117D02*
X3971708D01*
X3970708Y2951117D02*
Y2953117D01*
X4330000Y3137000D02*
X4332000D01*
X4331000Y3136000D02*
Y3138000D01*
X4019000Y3083000D02*
X4021000D01*
X4020000Y3082000D02*
Y3084000D01*
X4025000Y2998000D02*
X4027000D01*
X4026000Y2997000D02*
Y2999000D01*
X4058000Y2960000D02*
X4060000D01*
X4059000Y2959000D02*
Y2961000D01*
X4008789Y2970461D02*
X4010789D01*
X4009789Y2969461D02*
Y2971461D01*
X3807000Y3040000D02*
X3809000D01*
X3808000Y3039000D02*
Y3041000D01*
Y3047000D02*
X3810000D01*
X3809000Y3046000D02*
Y3048000D01*
X4064000Y2957000D02*
X4066000D01*
X4065000Y2956000D02*
Y2958000D01*
X4063000Y2979000D02*
X4065000D01*
X4064000Y2978000D02*
Y2980000D01*
X4054000Y2933000D02*
X4056000D01*
X4055000Y2932000D02*
Y2934000D01*
X3981699Y2961255D02*
X3983699D01*
X3982699Y2960255D02*
Y2962255D01*
X4185709Y2940112D02*
X4187708D01*
X4186708Y2939112D02*
Y2941112D01*
X4312000Y2862000D02*
X4314000D01*
X4313000Y2861000D02*
Y2863000D01*
X3926000Y2964000D02*
X3928000D01*
X3927000Y2963000D02*
Y2965000D01*
X3894000Y2992000D02*
X3896000D01*
X3895000Y2991000D02*
Y2993000D01*
X4435000Y3012875D02*
X4437000D01*
X4436000Y3011875D02*
Y3013875D01*
X4205000Y2767000D02*
X4207000D01*
X4206000Y2766000D02*
Y2768000D01*
X4195000Y2767000D02*
X4197000D01*
X4196000Y2766000D02*
Y2768000D01*
X4210894Y2770606D02*
X4213894D01*
X4212394Y2769106D02*
Y2772106D01*
X4230498Y2788647D02*
X4233498D01*
X4231998Y2787146D02*
Y2790146D01*
X3878000Y3041000D02*
X3880000D01*
X3879000Y3040000D02*
Y3042000D01*
X4057750Y2795000D02*
X4060750D01*
X4059250Y2793500D02*
Y2796500D01*
X4026500Y2773000D02*
X4029500D01*
X4028000Y2771500D02*
Y2774500D01*
X4435500Y3271000D02*
X4438500D01*
X4437000Y3269500D02*
Y3272500D01*
X4024500Y2765771D02*
X4027500D01*
X4026000Y2764272D02*
Y2767272D01*
X4341406Y3337000D02*
X4343406D01*
X4342406Y3336000D02*
Y3338000D01*
X4226057Y2781814D02*
X4229057D01*
X4227557Y2780314D02*
Y2783314D01*
M02*
