M48
;Layer_Color=9474304
;FILE_FORMAT=4:4
METRIC,LZ
;TYPE=PLATED
T1F00S00C0.2000
T2F00S00C0.3000
T3F00S00C0.3200
T4F00S00C0.4000
T5F00S00C0.5000
T6F00S00C0.6000
T7F00S00C1.0000
T8F00S00C1.0200
T9F00S00C1.1000
T10F00S00C1.3000
T11F00S00C1.6000
T12F00S00C2.0900
%
T01
X000825Y000575
X00076111Y00067077
X00080694Y00092586
X000925Y000955
X00102Y0008175
X0011025Y00067
X00138322Y00072572
X00142Y000515
X0014125Y0003975
X001505Y000425
X00161Y000385
X0016925Y0004575
X0018025Y0004
X0019675Y000425
X0019975Y000485
X00197846Y00059404
X00181Y000595
X00171335Y0006262
X0017225Y000745
X00173Y00083
X001855Y0007875
X001925Y000735
X0019525Y000195
X0014875Y0002475
X00138Y0001525
X0012925Y0001325
X0014275Y0000725
X001505Y00002
X00064223Y0008788
X00058Y0011025
X0025675Y000835
X0024875Y000375
X0023675Y000305
X0025775Y000245
X00273459Y0001062
X0028325Y0000175
X0028175Y-0000675
X00241Y00006
X00229588Y00002205
X00230111Y-00003752
X00327282Y00017533
X0032975Y000455
X00315911Y00042888
X00397Y000425
X00398124Y00036788
X00407Y00035
X00406Y0004225
X004175Y000415
X00416874Y00034038
X00430298Y00036532
X0042975Y0004275
X0043975Y0004375
X00439624Y00034788
X00422374Y00019538
X00391374Y00017038
X00385124Y00021288
X00390624Y00006038
X00389624Y-00007962
X00419Y-0001175
X004465Y-0001625
X0046025Y-000175
X0047425Y-00017
X0049075Y-0001625
X0051Y-0001675
X005095Y-00007
X0051925Y-0000875
X00518Y000015
X00527Y0000175
X005355
X0053375Y-0000875
X0053075Y-0001775
X0055075Y-0001675
X005465Y-0000575
X0055275Y0
X005655Y-00016
X0057925Y-00015
X0058075Y00048
X0059
X00599Y000485
X0061175Y0005425
X00618Y000605
X0057125Y00046
X0056625Y00041
X005605Y000355
X0055475Y000295
X0053725Y0003325
X005275
X005185Y00031
X0051775Y0002225
Y000125
X0050775Y0001675
Y00029
X0049575Y0003275
X004945Y0004375
X004805Y000435
X00469
X004705Y000325
X0048275Y0003175
X00472374Y00014288
X00464374Y00022038
X00454124Y00015038
X00508Y0000325
X005135Y0004375
X0051725Y0004825
X0053125Y0004475
X00541Y000475
X0053675Y00088561
X00573426Y00088162
X0057275Y000955
X0059075Y000975
X0046075Y000995
X0045075
X00433Y00094
X004165Y0009525
X00414Y0008725
X00402Y000875
X00399Y000955
X0038275Y0009675
X0036625
X0037425Y0008525
X00359187Y00003937
X0035725Y-0001325
X006205Y-0000975
X0063275Y-0000775
X0064625Y-000055
X00657Y000025
X00664Y000175
X0066975Y0003
X0067925Y0004975
X006915Y0006425
X0069975Y000805
X0071825Y0008175
X0072675Y0008625
X0073725Y0009275
X0075125Y0009775
X007595Y00109
X0063275Y0009675
X00627Y0009075
X006275Y000815
X0062625Y000705
X0065675Y0011625
X0067075Y001375
X0064575Y001445
X00632Y001435
X00625Y00149
X006375Y0015275
X006305Y0016175
X0063925Y001685
X006475Y001595
X006595Y00178
X0065375Y00184
Y001965
X0064825Y001915
X0063025Y0018825
X0063075Y001775
X0062125Y00171
X0064875Y002175
X0064775Y002435
X0067575Y002465
X0068375Y002455
X0068475Y00262
X00696Y0026125
X0070675Y002585
X0070725Y00249
X0070125Y00244
X00693863Y00233889
X0069725Y0022275
X00674102Y00283583
X00667384Y00276866
X0066675Y002975
X00669154Y00321904
X0065925Y003435
X006535Y0034475
X0065825Y0034975
X006545Y00371
X0064675Y0038625
X0063975Y003855
X006365Y00397
X0062875Y003915
X006475Y0040275
X0065625Y00403
X0066825Y0040275
X0067725Y004035
X00681Y003975
X0067525Y003925
X0066825Y00385
X0067175Y004245
X0068775Y0042275
X006985Y0042125
X007145Y004505
Y0046225
Y004725
Y0048675
X0071825Y0050025
X00751Y0049575
Y00471
Y0044975
X00733Y0043425
X0073425Y004065
X0073325Y00388
X0072075Y003705
X00701463Y00370287
X0069075Y00345375
X0073375Y003315
X0071975Y003005
X0077975Y003245
X008055Y0033325
X0080525Y0035375
Y003725
Y003935
X00804Y0041425
X00803Y0044025
X008035Y004645
X0067075Y004515
X0065175Y004585
X00652Y0043
X0065175Y0042
X00631562Y00441738
X0063375Y00483802
X0063575Y00499802
X0067075Y005045
X0067175Y004865
X00638724Y00360526
X0062375Y003235
X00629Y0027825
X0064325Y0027675
X006495Y002805
X0063875Y002875
X00623Y0026675
X0062475Y002605
X00795935Y00251888
X00792Y0023925
X00787474Y00221887
X0077275Y00192
X007725Y0018275
X0077475Y001645
X0077025Y00152
X00767Y0014
X0076325Y00126
X0069975Y00127807
X0080625Y0028375
X008055Y0030575
X0061025Y002765
X006035
X0059525Y0028
X0058175Y002805
X005765Y002755
X005715Y002805
X0055725Y00275
X00562Y002695
X0054975Y0026875
X00541
X0054075Y0027775
X0054925
X0053125
X00531Y0026875
X0052375Y002725
X00512422Y00275828
X005025Y0027
X0048625Y00284
X0047075Y002785
X00441459Y00272612
X0043675Y0023425
X00438Y002225
X00433Y002115
X0043725Y001955
X0044175Y0018925
X0045525Y0018975
X004505Y0017425
X004285
X00408
X0039
X00398Y0018825
X0038
X0038675Y002055
X003815Y0021425
X003725Y0021375
X0035725Y002125
X0036125Y0019925
X00349Y0018875
X003505Y0017325
X00364
X003755Y0016325
X00382Y0015475
X003535Y001535
X0034475Y001545
X003445Y0012925
X003265Y001295
X0032075Y001585
X0031625Y0017425
X0030525Y001755
X002965Y00183
X00283Y0017775
X00273Y0017725
X00265404Y00174876
X00277901Y00170942
X0028775Y0017
X0028275Y0019075
X00283Y0019775
X002895Y00212
X00285Y0021825
X0028675Y002285
X0028275Y0023375
X00281Y002425
X002605
X00258891Y00253641
X00252785Y00253483
X0024175Y002565
X0023475Y002495
X0023675Y002295
X002285Y0019925
X0023875Y001905
X0024475Y001535
X00256
X0023075Y00154
X0022975Y001215
X00264Y001295
X00271042Y00131139
X003545Y001205
X0036075Y00115
X00389Y001125
X0039025Y001225
X003895Y0013225
X004015
X0040225Y001225
X00401Y001125
X004135Y0011275
X00413124Y00123038
X0041225Y0013175
X004185Y0018825
X004125Y002005
X004075Y002145
X00406Y0023875
X00397Y00239
X00383153Y00242641
X003615Y00237
X00336Y002215
X00337448Y00210394
X0030675Y002195
X0030975Y002655
Y002715
Y002785
X003065Y002845
X0031375Y002925
X0031975Y002895
X0031875Y003115
X0030475Y003075
X00301Y003295
X0028075Y003305
X002765Y003355
X002805Y00339937
X002765Y00325328
X00274157Y0031575
X0026175Y003225
X00249003Y003175
X0023775Y00321312
X00237715Y00328357
X0022775Y00332383
X00239891Y00346641
X0024175Y003625
X0024975Y003825
X00245149Y003955
X0027475Y004155
Y003745
X0028975Y003755
Y003605
X0031475Y00412
X0031725Y0042225
X003245Y0043475
X0032175Y004445
X00326175Y00449075
X0033575Y004485
X003425Y0045825
X00359Y00475
X003665
X00374
X00403061Y0050075
X00453Y00502554
X0046575Y0047025
X0047975Y004735
X0048475Y0046575
X004915Y004605
X0049675Y00453
X0050475Y0044625
X0051075Y0044
X0051825
X00525
X0051975Y004515
X005175Y00464
X0054475
X0055275Y00452
X0056675Y004515
X005665Y004645
X00561Y004765
X0055025Y00481
X00541Y0049175
X00547Y0050275
X0056625Y004995
X0056675Y00492
X0058775Y005025
X0061175Y005045
X0060975Y004985
X0061855Y005005
X00619143Y00475421
X0061275Y004785
X00613809Y00469353
X0059275Y004675
X0058575Y004695
X0058486Y004585
X0059175Y004395
X00608681Y00439814
X0060775Y003877
X00604Y003755
X006085Y0037075
X0061675Y003675
X0061725Y003595
X0059975Y003605
X005945Y00366
X0058725Y003655
X0058525Y003745
X00559507Y00371257
X0056086Y00386117
X0056075Y003985
X00558454Y00351604
X0052375Y003475
X0051725Y0035125
X0051775Y0036275
X0051475Y00339
X0050975Y003295
X0050375Y00321
X004955Y00312
X0053175Y0029325
X005385Y0029225
X0053925Y00299
X0054575Y00293
X00548578Y00305297
X0055325Y0030125
X0055775Y002965
X0057075Y003095
X0058075Y003135
X00580873Y003225
X0058175Y003285
X0057475Y003215
X0053375Y0033475
X0053425Y0025075
X0054025
X005465
X005495Y002435
X005435Y0023875
X0053925Y0023425
X0053375Y002395
X005275Y00245
X005135Y002215
X0052025Y002115
X005155Y0019875
X00515Y0018625
X0050875Y0019125
X005085Y0018025
X00503Y0017375
X004935Y00173
X00489Y00181
X004835Y0019075
X0047675Y0018475
X0047775Y0017375
X00500457Y00162793
X00498Y001895
X005445Y0018625
X0054375Y0017925
X00549Y001915
X00558Y0019425
X0056775Y001945
X0056275Y00201
X0057Y00205
X00573Y00216
X00578Y0021175
X0057825Y00221
X005465Y0021775
X005445Y0022425
X0054975Y00229
X00549Y002065
X0054275Y00206
X0057225Y0018375
X0057125Y001765
X00565026Y0017429
X0056Y0016675
X0055525Y0016075
X00549Y00156
X0055875Y0014825
X0056925Y001585
X00575Y0016475
X00615Y0015875
X00616Y001735
X0062Y0018075
Y00187
X0060975Y001955
X0061375Y0020125
X00619Y0020775
X0061125Y0021525
X00617Y0022175
Y00234
X0061075Y0022875
X006015Y002355
X0059975Y0024225
X0060625Y002465
X00613Y0024675
X0061075Y0025825
X0060325Y00257
X005975Y002545
X005915Y00251
X0058675Y0026175
X0058275Y0026975
X0061725Y0026125
X006025Y00191
X00613574Y00128541
X0058679Y0011354
X00529Y0014575
X0052125Y001455
X005135Y0014575
X00513Y0040975
Y004185
X0051525Y004935
X005255Y0048525
X005345Y004755
X0049375Y00496312
X0059575Y004845
X0060775Y003475
X00367283Y00279191
X0034575Y002925
X0033475Y00303
X002795Y00293039
Y00284503
Y002785
Y002715
Y00265672
X0026375Y0028025
X0025875Y002755
X0026425Y00293839
X00264539Y00302961
X00237449Y00293755
X00230969Y00294056
X00225458Y00284617
X0022375Y002765
X00227259Y00436469
X00228236Y00442986
X0023575Y004385
X0023586Y004665
X00243294Y00465488
X00254852Y004535
X0025875Y004485
X002985Y004755
X0031475Y004975
X0023575Y005005
X0020475Y004975
X00197686Y004992
X00211089Y00488189
X00207123Y0047913
X001951Y0047715
X0017875Y004815
X0017075Y004725
X0017375Y005035
X00135004Y005015
X0012575Y005025
X0011575Y005015
X00116766Y00494234
X0012175Y004855
X0013175
X00132511Y00479504
X001255Y004775
X00125463Y0045925
X00116063
X00109488
X000895Y0045875
X0008625Y00466
X0008175Y004425
X0009875Y004245
X00107446Y0042325
X00118414Y00423836
X00129774Y00421759
X00128039Y0042775
X0012475Y004335
X00142619Y00430974
X001525Y00431
X00156501Y0045125
X00142037Y00458504
X00132598Y0049163
X00091762Y004955
X00031535Y00492921
X0003Y0048425
X000275Y0047625
X00022Y0045825
X00016056Y00432246
X0001625Y00415
X000155Y00393
X00032Y00391
X0003175Y0038275
X0001625Y003705
X0001675Y00347
X00016Y0032525
X0002925Y0032375
X0003125Y0030875
X0001675Y00307
X0002175Y0028875
X0002475Y002755
X0002775Y002625
X0003175Y0024325
X000345Y0022825
X00037971Y00212823
X00039582Y0019623
X0004675Y002015
X00044535Y0017617
X000475Y0016425
X0004975Y001485
X0006175Y0014575
X0006125Y00134
X0007975Y0014075
X0008639Y00135058
X0009875Y00144
X0011175Y001395
X0011225Y001305
X001225Y0012025
X0012775Y001135
X001355Y0017875
X0013675Y0019025
X001265Y0018925
X0011875Y0018775
X00113136Y0019499
X00131Y002025
X00132Y0021025
X0014975Y002035
X00151152Y00194247
X0015025Y0017975
X0016975Y001815
X00162172Y00189418
X00177865Y00190615
X0019029Y00192689
X0018975Y00182
X0019975Y00179455
X00192694Y001695
X0018675Y00148
X00192Y0021225
X0019975Y00214
X002085Y0020575
X002045Y0020025
X0021125Y0019425
X00217Y0019925
X0022225Y00192
X00192315Y00254652
X00178812Y002595
X00169312Y00260062
X00183864Y00265412
X0018229Y00273576
X00165507Y00279743
X0015775Y002765
X0015175Y002725
X0014975Y002605
X00146472Y00236529
X0015375Y002345
X00147865Y00220615
X0014375Y002885
X0015525Y0029
X00153091Y003005
X0014975Y003055
X00142547Y00304866
X0012975Y003045
Y002875
X0011875Y002935
X0011075Y003005
X0011775Y003245
X0012575Y003185
X00135045Y00336205
X0013575Y0034525
X0013175Y00356731
X0013375Y003735
X0013475Y003895
X0013625Y00395196
X00132059Y00400191
X00135382Y00406259
X00141354Y004085
X0012177Y00410862
X00104163Y0040908
X00098682Y00386432
X00104Y00366231
X00073Y003805
X0006375Y003795
X0006275Y003725
X0006475Y003885
X000505Y004075
X0017175Y004035
X00188Y00411005
X0019675Y003925
X0019975Y003655
X00187359Y00367109
X001665Y0036475
X0017175Y0035025
X00162643Y00332457
X0016075Y003135
X0016166Y00305292
X0018175Y002965
X0020612Y00296632
X0020675Y002905
X0020604Y0027821
X00212185Y002815
X0022175Y00331308
X00203237Y00338179
X00195981Y00341489
X0018491Y00328489
X0014975Y003245
X0009175Y003225
X0008875Y002905
X000795Y0021525
X00077Y001785
X0008325Y0017325
X0008575Y0015625
X0006375Y001575
X0021875Y003725
X0021625Y004035
X00218073Y0043622
X0022275Y004455
X00213213Y004495
X00218357Y00455485
X00208393Y00441543
X002035Y0043625
X00191295Y004455
X00195884Y00451459
X00181795Y00447675
X00159846Y00514672
X0015975Y0052866
X00159846Y005345
Y005415
X0015975Y005525
X0013575
X0013075Y005475
X0012975Y005345
X00122609Y00541641
X00128767Y00581092
X00135787Y005805
X0016205Y00578125
X0016216Y0059678
X0017625Y00597
X00157424Y00613004
X0015275Y0063275
X001665Y0063425
X00171326Y00643262
X001795Y0064225
X0017925Y00633
X00177381Y0065832
X0018675Y006615
X00162Y0065625
X00157577Y00647027
X00147Y00655
X00128116Y00657011
X00131Y0067075
X0012825Y006885
X00112Y006975
X0009571Y00680088
X0008175Y0067175
X00087035Y00656356
X00074Y006505
X00082289Y00637207
X0009825Y00627
X0010625Y0061375
X0010875Y0059375
X00094564Y00601199
X00097182Y00583359
X0009075Y0057675
X0008275Y00582
X00082289Y00591051
X00069Y0060025
X0006025Y0059025
X00064285Y00551443
X00040327Y00523877
X00128Y0060275
X00119115Y00625586
X0011575Y006435
X00136791Y00643262
X00146Y0069925
X0017125Y006965
X00169198Y00684835
X001845Y00698
X0021475Y00693
X00201503Y0061016
X0020775Y005635
X00235391Y00552859
X0024875Y005595
X0026475Y005585
X0025875Y005705
X0025375Y005755
X0026975Y005725
X002685Y0053075
X003055Y0052975
X0033675Y005145
X004265Y0052225
X0045325Y0052
X0046525Y00523
X004895Y005205
X0051097Y00523258
X005105Y00516
X00539Y00518
X005555Y0051125
X005665Y0050875
X0058486Y005135
X0055075Y005445
X00561Y005645
X0054075Y0057225
X005505Y00597
X0056375Y005945
X0060575Y00599
X00615Y0060725
X0061825Y0062325
X0059526Y0064001
X0059675Y006515
X00595941Y00657559
X00593Y0066425
X00597156Y006695
X0059575Y006775
X0059Y0068775
X0058175Y00688
X00567831Y00688514
X005525Y006875
X0054125Y0068875
X0052825Y0060825
X0043075Y0061875
X00408951Y00613796
X00411015Y00606569
X0040475Y00596
X00398Y0058625
X0043025Y0059025
X00436Y00581
X00400692Y00620334
X00376432Y00618442
X00378Y0060525
X00392Y00646
X0040725Y006465
X0041275Y0069275
X00378Y00693
X0036175Y0069325
X0033725Y006935
X003135Y00693
X0029125Y0069225
X00266
X0024075Y0069325
X0023775Y006535
X0026175Y00655
X00261Y0064575
X0026071Y00637455
X0026475Y00629
X0026175Y006205
X00264Y0061175
X00248Y0061775
X0023775Y006175
X0023875Y005925
X00293424Y00605004
X0028225Y0065575
X003185Y006565
X0062175Y006835
X0068075Y0067725
X0068175Y006645
X0068075Y006445
X0068275Y0061125
X00676675Y00603263
X0065425Y0060875
X0065052Y00599454
X0065175Y005815
X006335
X00628174Y00597168
X00635792Y00607579
X0063925Y0062325
X0064875Y006335
X00708417Y00612658
X0071825Y006035
X007405Y00606
X0073375Y006155
X0072543Y00623069
X0073925Y0064525
X0075175Y00638
X0075225Y0065525
X00748Y0067125
X00736761Y00694357
X0070475Y007
X006925Y0069825
X0070225Y006855
X0070675Y006675
X00758Y00616
X00763Y00603
X0077875Y0055925
X007445Y0055275
X00721875Y00549936
X0070025Y00551
X0066726Y0056101
X0064375Y005435
X0062175Y005405
X0065875Y005275
X007325Y005375
X007445Y005235
T02
X0019875Y000035
X00155Y00055
X001805Y0010175
X0022875Y001055
X0028275
X0028075Y00098272
X0028175Y000435
X0029875Y000335
X00271216Y00017574
X0025275Y000575
X0036425Y000345
X0047Y000725
X0048625Y00082
X004775Y0009575
X00467144Y00103106
X0054475Y000685
X0060275Y000765
X0063575Y001365
X006905Y0015775
X007045Y00208
X0064075Y002295
X0067775Y002705
X006686Y0030565
X00628625Y00308375
X0073575Y003435
X0071475Y003885
X0066245Y004645
X005945Y0034675
X0058075Y002475
X0058175Y001925
X0060075Y002115
X0058228Y0014897
X0057875Y001175
X0055675Y001375
X00492517Y00128478
X00486748Y00121146
X00482307Y00114314
X0047075Y001545
X0045675
X0033275Y001735
X0030675Y002005
X0028375Y002065
X0023975Y002225
X0023175Y001315
X0025905Y001202
X00314Y001275
X00247085Y00333835
X0023075Y003615
X0025575Y004715
X0032275Y004865
X0038875Y004965
X0049375Y002845
X00201Y00253
X00163816Y00254566
X0007175Y002635
X0005625Y0025525
X0005375Y003375
X0010975Y003495
X00190116Y00334989
X0021825Y003655
X0021675Y001315
X00198417Y00529
X0018975
X00181083
X00172417
X00171417Y005455
X00180083
X0018875
X00197417
Y005625
X0018875
X00180083
X00171417
X00208957Y00555896
X0020975Y005765
X0019775Y00587
X001905Y005915
X0018175Y006725
X0013075Y006335
X00248569Y00539681
X002515Y00518
X0025875Y005245
X0023675Y00511
X0031775Y005275
X0038875Y005155
X0038875Y005795
X0037575Y005925
X0044875Y006065
Y006835
X0049775Y006735
X0050675Y006485
X0053325Y0063275
X005545Y00633
X0054175Y006025
X0057075Y005685
X00604426Y0053375
X0071275Y005095
X0069175Y006035
X0068175Y006325
X0072875Y006435
T03
X00304Y0051225
T04
X0035175Y000295
X0047375Y000605
X00550747Y00433503
X0031575Y00434
X00246344Y004055
X002045Y0040725
X0047275Y005845
T05
X0052675Y004945
X0055175Y005835
T06
X0009975Y000705
X00119338Y00072572
X00111339Y00086428
X0009175Y00084356
X00103338Y00100285
X00717063Y00421187
X0075675Y004205
X0059375Y006225
X0049075Y006385
X004205Y0064475
X00421608Y00561642
X0033175Y0065275
X0065175Y005615
T07
X0038635Y000635
X0041175
X0043715
X0053235Y000155
X0055775
X0058315
X00648181Y00077694
X0066275Y000985
X00677319Y00119306
X00747316Y00152563
X0075346Y00177209
X00759605Y00201854
X0076575Y002265
Y002933
Y003187
Y003441
Y003695
T08
X0009475Y002015
X0011964Y00206564
X00114576Y00231454
X00089686Y0022639
X00084622Y0025128
X00079558Y0027617
X00074494Y0030106
X00099384Y00306124
X00104448Y00281234
X00109512Y00256344
T09
X0032355Y002015
X0034895
X0037435
X0039975
X0042515
X0045055
X0047595
X0050135
Y002269
X0047595
X0045055
X0042515
X0039975
X0037435
X0034895
X0032355
T10
X0030115Y-000015
X0033365
X0037765
X0040305
X0042845
X0045385
X0047925
X0078875Y004115
X00783686Y0043639
X00778622Y0046128
X00773558Y0048617
X00050202Y00482117
X00045052Y00457244
X00039901Y00432372
X0003475Y004075
X00055353Y00506989
X00060986Y00536455
X00067366Y00567813
X00397644Y00681223
X0042775Y006815
X00756133Y00571816
X00762513Y00540458
X00768494Y0051106
T11
X0026375Y-000005
X0007925Y006195
X00707644Y00640222
T12
X00121794Y00050318
X00085294Y00113538
M30
