G04*
G04 #@! TF.GenerationSoftware,Altium Limited,Altium Designer,23.1.1 (15)*
G04*
G04 Layer_Color=32896*
%FSLAX44Y44*%
%MOMM*%
G71*
G04*
G04 #@! TF.SameCoordinates,A3D6BB7E-6F48-477B-AAC3-77161F155CF7*
G04*
G04*
G04 #@! TF.FilePolarity,Positive*
G04*
G01*
G75*
%ADD10C,0.1000*%
%ADD11C,0.2000*%
D10*
X3939000Y2770000D02*
G03*
X3939000Y2769000I0J-500D01*
G01*
D02*
G03*
X3939000Y2770000I0J500D01*
G01*
X3927500Y3151000D02*
X3946500D01*
X3927500Y3161000D02*
X3946500D01*
X3927500Y3151000D02*
Y3161000D01*
X3946500Y3151000D02*
Y3161000D01*
X4012924Y3177004D02*
X4044424D01*
X4012924Y3194004D02*
X4044424D01*
X4012924Y3177004D02*
Y3194004D01*
X4044424Y3177004D02*
Y3194004D01*
X3835500Y3190250D02*
Y3221750D01*
X3818500D02*
X3835500D01*
X3818500Y3190250D02*
X3835500D01*
X3818500D02*
Y3221750D01*
X4386250Y3190875D02*
Y3199875D01*
X4368250D02*
X4386250D01*
X4368250Y3190875D02*
X4386250D01*
X4368250D02*
Y3199875D01*
X4079174Y3256754D02*
Y3302254D01*
X4110174Y3256754D02*
Y3302254D01*
X4079174D02*
X4110174D01*
X4079174Y3256754D02*
X4110174D01*
X3959047Y3140000D02*
Y3150000D01*
X3978047Y3140000D02*
Y3150000D01*
X3959047D02*
X3978047D01*
X3959047Y3140000D02*
X3978047D01*
X3882924Y3148004D02*
Y3157004D01*
X3900924Y3148004D02*
Y3157004D01*
X3882924Y3148004D02*
X3900924D01*
X3882924Y3157004D02*
X3900924D01*
X3882924Y3158004D02*
Y3167004D01*
X3900924Y3158004D02*
Y3167004D01*
X3882924Y3158004D02*
X3900924D01*
X3882924Y3167004D02*
X3900924D01*
X3902174Y3169504D02*
Y3179504D01*
X3883174Y3169504D02*
Y3179504D01*
X3902174D01*
X3883174Y3169504D02*
X3902174D01*
X3887524Y3211854D02*
X3897524D01*
X3887524Y3192854D02*
X3897524D01*
X3887524D02*
Y3211854D01*
X3897524Y3192854D02*
Y3211854D01*
X3909924Y3296004D02*
X3941424D01*
X3909924Y3279004D02*
X3941424D01*
Y3296004D01*
X3909924Y3279004D02*
Y3296004D01*
X3912000Y2835500D02*
Y2844500D01*
X3930000Y2835500D02*
Y2844500D01*
X3912000Y2835500D02*
X3930000D01*
X3912000Y2844500D02*
X3930000D01*
X4529000Y2986500D02*
X4539000D01*
X4529000Y3005500D02*
X4539000D01*
Y2986500D02*
Y3005500D01*
X4529000Y2986500D02*
Y3005500D01*
X4380500Y3049000D02*
X4389500D01*
X4380500Y3031000D02*
X4389500D01*
X4380500D02*
Y3049000D01*
X4389500Y3031000D02*
Y3049000D01*
X4357500Y3036000D02*
X4366500D01*
X4357500Y3054000D02*
X4366500D01*
Y3036000D02*
Y3054000D01*
X4357500Y3036000D02*
Y3054000D01*
X4348500Y3154000D02*
Y3164000D01*
X4367500Y3154000D02*
Y3164000D01*
X4348500Y3154000D02*
X4367500D01*
X4348500Y3164000D02*
X4367500D01*
X4264500Y3034000D02*
Y3044000D01*
X4283500Y3034000D02*
Y3044000D01*
X4264500D02*
X4283500D01*
X4264500Y3034000D02*
X4283500D01*
X4333500Y3132250D02*
X4342500D01*
X4333500Y3114250D02*
X4342500D01*
X4333500D02*
Y3132250D01*
X4342500Y3114250D02*
Y3132250D01*
X4348875Y2976875D02*
X4366875D01*
X4348875Y2985875D02*
X4366875D01*
X4348875Y2976875D02*
Y2985875D01*
X4366875Y2976875D02*
Y2985875D01*
X4390350Y2972150D02*
X4409350D01*
X4390350Y2982150D02*
X4409350D01*
X4390350Y2972150D02*
Y2982150D01*
X4409350Y2972150D02*
Y2982150D01*
X4441000Y3039800D02*
Y3058800D01*
X4451000Y3039800D02*
Y3058800D01*
X4441000D02*
X4451000D01*
X4441000Y3039800D02*
X4451000D01*
X4096750Y2716500D02*
Y2747500D01*
X4051250Y2716500D02*
Y2747500D01*
X4096750D01*
X4051250Y2716500D02*
X4096750D01*
X4529648Y2866553D02*
Y2885553D01*
X4519648Y2866553D02*
Y2885553D01*
Y2866553D02*
X4529648D01*
X4519648Y2885553D02*
X4529648D01*
X4398500Y2732000D02*
X4417500D01*
X4398500Y2722000D02*
X4417500D01*
Y2732000D01*
X4398500Y2722000D02*
Y2732000D01*
X4346500Y2808000D02*
X4355500D01*
X4346500Y2826000D02*
X4355500D01*
X4346500Y2808000D02*
Y2826000D01*
X4355500Y2808000D02*
Y2826000D01*
X4327500Y3253000D02*
Y3271000D01*
X4318500Y3253000D02*
Y3271000D01*
Y3253000D02*
X4327500D01*
X4318500Y3271000D02*
X4327500D01*
X3979000Y2739500D02*
X3997000D01*
X3979000Y2730500D02*
X3997000D01*
Y2739500D01*
X3979000Y2730500D02*
Y2739500D01*
X3971000Y2699900D02*
Y2708900D01*
X3953000Y2699900D02*
Y2708900D01*
X3971000D01*
X3953000Y2699900D02*
X3971000D01*
X4039500Y2712000D02*
Y2730000D01*
X4048500Y2712000D02*
Y2730000D01*
X4039500D02*
X4048500D01*
X4039500Y2712000D02*
X4048500D01*
X4010500Y2728000D02*
Y2746000D01*
X4019500Y2728000D02*
Y2746000D01*
X4010500D02*
X4019500D01*
X4010500Y2728000D02*
X4019500D01*
X4079500Y2691750D02*
Y2709750D01*
X4070500Y2691750D02*
Y2709750D01*
Y2691750D02*
X4079500D01*
X4070500Y2709750D02*
X4079500D01*
X4343500Y2755000D02*
X4352500D01*
X4343500Y2773000D02*
X4352500D01*
X4343500Y2755000D02*
Y2773000D01*
X4352500Y2755000D02*
Y2773000D01*
X3901500Y2876000D02*
X3920500D01*
X3901500Y2866000D02*
X3920500D01*
Y2876000D01*
X3901500Y2866000D02*
Y2876000D01*
X3929500Y3055000D02*
Y3073000D01*
X3938500Y3055000D02*
Y3073000D01*
X3929500D02*
X3938500D01*
X3929500Y3055000D02*
X3938500D01*
X4164000Y3164500D02*
X4182000D01*
X4164000Y3173500D02*
X4182000D01*
X4164000Y3164500D02*
Y3173500D01*
X4182000Y3164500D02*
Y3173500D01*
X4206750Y3165500D02*
X4224750D01*
X4206750Y3174500D02*
X4224750D01*
X4206750Y3165500D02*
Y3174500D01*
X4224750Y3165500D02*
Y3174500D01*
X4430500Y2795000D02*
X4439500D01*
X4430500Y2813000D02*
X4439500D01*
X4430500Y2795000D02*
Y2813000D01*
X4439500Y2795000D02*
Y2813000D01*
X4403500Y2791000D02*
X4412500D01*
X4403500Y2809000D02*
X4412500D01*
X4403500Y2791000D02*
Y2809000D01*
X4412500Y2791000D02*
Y2809000D01*
X4459000Y2748800D02*
Y2767800D01*
X4449000Y2748800D02*
Y2767800D01*
X4459000D01*
X4449000Y2748800D02*
X4459000D01*
X3873500Y2923000D02*
X3882500D01*
X3873500Y2941000D02*
X3882500D01*
Y2923000D02*
Y2941000D01*
X3873500Y2923000D02*
Y2941000D01*
X4423500Y2736000D02*
X4432500D01*
X4423500Y2754000D02*
X4432500D01*
X4423500Y2736000D02*
Y2754000D01*
X4432500Y2736000D02*
Y2754000D01*
X3849500Y3039000D02*
Y3049000D01*
X3868500Y3039000D02*
Y3049000D01*
X3849500Y3039000D02*
X3868500D01*
X3849500Y3049000D02*
X3868500D01*
X3849500Y3068000D02*
X3868500D01*
X3849500Y3058000D02*
X3868500D01*
Y3068000D01*
X3849500Y3058000D02*
Y3068000D01*
X3802500Y2929000D02*
Y2947000D01*
X3811500Y2929000D02*
Y2947000D01*
X3802500D02*
X3811500D01*
X3802500Y2929000D02*
X3811500D01*
X3905000Y3177500D02*
X3915000D01*
X3905000Y3158500D02*
X3915000D01*
X3905000D02*
Y3177500D01*
X3915000Y3158500D02*
Y3177500D01*
X4016474Y3267504D02*
X4035474D01*
X4016474Y3277504D02*
X4035474D01*
X4016474Y3267504D02*
Y3277504D01*
X4035474Y3267504D02*
Y3277504D01*
X4041674Y3248004D02*
X4051674D01*
X4041674Y3267004D02*
X4051674D01*
Y3248004D02*
Y3267004D01*
X4041674Y3248004D02*
Y3267004D01*
X4031250Y2758750D02*
X4052750D01*
X4031250Y2803250D02*
X4052750D01*
Y2758750D02*
Y2803250D01*
X4031250Y2758750D02*
Y2803250D01*
X4003500Y2768000D02*
X4022500D01*
X4003500Y2778000D02*
X4022500D01*
X4003500Y2768000D02*
Y2778000D01*
X4022500Y2768000D02*
Y2778000D01*
X3965000Y2674500D02*
Y2683500D01*
X3983000Y2674500D02*
Y2683500D01*
X3965000Y2674500D02*
X3983000D01*
X3965000Y2683500D02*
X3983000D01*
X3953000Y2686900D02*
X3971000D01*
X3953000Y2695900D02*
X3971000D01*
X3953000Y2686900D02*
Y2695900D01*
X3971000Y2686900D02*
Y2695900D01*
X3953000Y2711900D02*
X3971000D01*
X3953000Y2720900D02*
X3971000D01*
X3953000Y2711900D02*
Y2720900D01*
X3971000Y2711900D02*
Y2720900D01*
X3973000Y2712500D02*
Y2721500D01*
X3991000Y2712500D02*
Y2721500D01*
X3973000Y2712500D02*
X3991000D01*
X3973000Y2721500D02*
X3991000D01*
X3953000Y2724900D02*
X3971000D01*
X3953000Y2733900D02*
X3971000D01*
X3953000Y2724900D02*
Y2733900D01*
X3971000Y2724900D02*
Y2733900D01*
X3965500Y2996000D02*
X3974500D01*
X3965500Y2978000D02*
X3974500D01*
X3965500D02*
Y2996000D01*
X3974500Y2978000D02*
Y2996000D01*
X3963000Y2977500D02*
Y2996500D01*
X3953000Y2977500D02*
Y2996500D01*
Y2977500D02*
X3963000D01*
X3953000Y2996500D02*
X3963000D01*
X3905000Y3248500D02*
Y3257500D01*
X3923000Y3248500D02*
Y3257500D01*
X3905000Y3248500D02*
X3923000D01*
X3905000Y3257500D02*
X3923000D01*
X3920674Y3269004D02*
Y3278004D01*
X3902674Y3269004D02*
Y3278004D01*
X3920674D01*
X3902674Y3269004D02*
X3920674D01*
X3929500Y3264000D02*
Y3274000D01*
X3948500Y3264000D02*
Y3274000D01*
X3929500Y3264000D02*
X3948500D01*
X3929500Y3274000D02*
X3948500D01*
X3950500Y3261000D02*
X3959500D01*
X3950500Y3279000D02*
X3959500D01*
Y3261000D02*
Y3279000D01*
X3950500Y3261000D02*
Y3279000D01*
X3948500Y3249000D02*
Y3259000D01*
X3967500Y3249000D02*
Y3259000D01*
X3948500Y3249000D02*
X3967500D01*
X3948500Y3259000D02*
X3967500D01*
X3796500Y3083250D02*
Y3114750D01*
X3813500Y3083250D02*
Y3114750D01*
X3796500D02*
X3813500D01*
X3796500Y3083250D02*
X3813500D01*
X4438250Y3246500D02*
X4469750D01*
X4438250Y3263500D02*
X4469750D01*
X4438250Y3246500D02*
Y3263500D01*
X4469750Y3246500D02*
Y3263500D01*
X4438250Y3225500D02*
X4469750D01*
X4438250Y3242500D02*
X4469750D01*
X4438250Y3225500D02*
Y3242500D01*
X4469750Y3225500D02*
Y3242500D01*
X3981000Y2695500D02*
X3999000D01*
X3981000Y2686500D02*
X3999000D01*
Y2695500D01*
X3981000Y2686500D02*
Y2695500D01*
X3919000Y2673500D02*
X3937000D01*
X3919000Y2664500D02*
X3937000D01*
Y2673500D01*
X3919000Y2664500D02*
Y2673500D01*
X4337664Y3173000D02*
Y3191000D01*
X4346664Y3173000D02*
Y3191000D01*
X4337664D02*
X4346664D01*
X4337664Y3173000D02*
X4346664D01*
X4346000Y3132200D02*
Y3151200D01*
X4356000Y3132200D02*
Y3151200D01*
X4346000D02*
X4356000D01*
X4346000Y3132200D02*
X4356000D01*
X4373500Y3164000D02*
X4392500D01*
X4373500Y3154000D02*
X4392500D01*
Y3164000D01*
X4373500Y3154000D02*
Y3164000D01*
X4379000Y3129500D02*
Y3148500D01*
X4369000Y3129500D02*
Y3148500D01*
Y3129500D02*
X4379000D01*
X4369000Y3148500D02*
X4379000D01*
X4390000Y3129500D02*
Y3148500D01*
X4380000Y3129500D02*
Y3148500D01*
Y3129500D02*
X4390000D01*
X4380000Y3148500D02*
X4390000D01*
X4401000Y3129500D02*
Y3148500D01*
X4391000Y3129500D02*
Y3148500D01*
Y3129500D02*
X4401000D01*
X4391000Y3148500D02*
X4401000D01*
X4386500Y3088250D02*
Y3106250D01*
X4377500Y3088250D02*
Y3106250D01*
Y3088250D02*
X4386500D01*
X4377500Y3106250D02*
X4386500D01*
X3883474Y3215504D02*
X3902474D01*
X3883474Y3225504D02*
X3902474D01*
X3883474Y3215504D02*
Y3225504D01*
X3902474Y3215504D02*
Y3225504D01*
X3949674Y3200004D02*
Y3219004D01*
X3959674Y3200004D02*
Y3219004D01*
X3949674D02*
X3959674D01*
X3949674Y3200004D02*
X3959674D01*
X3981500Y3318000D02*
X4000500D01*
X3981500Y3308000D02*
X4000500D01*
Y3318000D01*
X3981500Y3308000D02*
Y3318000D01*
X3884424Y3252004D02*
X3902424D01*
X3884424Y3243004D02*
X3902424D01*
Y3252004D01*
X3884424Y3243004D02*
Y3252004D01*
X3949674Y3175004D02*
Y3194004D01*
X3959674Y3175004D02*
Y3194004D01*
X3949674D02*
X3959674D01*
X3949674Y3175004D02*
X3959674D01*
X3902174Y3143504D02*
X3921174D01*
X3902174Y3153504D02*
X3921174D01*
X3902174Y3143504D02*
Y3153504D01*
X3921174Y3143504D02*
Y3153504D01*
X4256500Y3346000D02*
Y3356000D01*
X4237500Y3346000D02*
Y3356000D01*
X4256500D01*
X4237500Y3346000D02*
X4256500D01*
X4235000Y3336500D02*
X4245000D01*
X4235000Y3317500D02*
X4245000D01*
X4235000D02*
Y3336500D01*
X4245000Y3317500D02*
Y3336500D01*
X4278200Y2751000D02*
Y2761000D01*
X4259200Y2751000D02*
Y2761000D01*
X4278200D01*
X4259200Y2751000D02*
X4278200D01*
X4278500Y2765000D02*
Y2775000D01*
X4259500Y2765000D02*
Y2775000D01*
X4278500D01*
X4259500Y2765000D02*
X4278500D01*
X4260000Y2795200D02*
X4270000D01*
X4260000Y2776200D02*
X4270000D01*
X4260000D02*
Y2795200D01*
X4270000Y2776200D02*
Y2795200D01*
X4301000Y2767800D02*
X4311000D01*
X4301000Y2786800D02*
X4311000D01*
Y2767800D02*
Y2786800D01*
X4301000Y2767800D02*
Y2786800D01*
X4365875Y2988875D02*
Y2997875D01*
X4347875Y2988875D02*
Y2997875D01*
X4365875D01*
X4347875Y2988875D02*
X4365875D01*
X4378625Y2948625D02*
Y2962125D01*
X4349625Y2948625D02*
Y2962125D01*
X4378625D01*
X4349625Y2948625D02*
X4378625D01*
X4333375Y2978375D02*
X4342375D01*
X4333375Y2960375D02*
X4342375D01*
X4333375D02*
Y2978375D01*
X4342375Y2960375D02*
Y2978375D01*
X4266750Y3254500D02*
Y3285500D01*
X4221250Y3254500D02*
Y3285500D01*
X4266750D01*
X4221250Y3254500D02*
X4266750D01*
X4267500Y3221500D02*
Y3252500D01*
X4222000Y3221500D02*
Y3252500D01*
X4267500D01*
X4222000Y3221500D02*
X4267500D01*
X4398500Y2919500D02*
X4417500D01*
X4398500Y2909500D02*
X4417500D01*
Y2919500D01*
X4398500Y2909500D02*
Y2919500D01*
X4448500Y2846500D02*
Y2864500D01*
X4439500Y2846500D02*
Y2864500D01*
Y2846500D02*
X4448500D01*
X4439500Y2864500D02*
X4448500D01*
X4347875Y2965875D02*
X4365875D01*
X4347875Y2974875D02*
X4365875D01*
X4347875Y2965875D02*
Y2974875D01*
X4365875Y2965875D02*
Y2974875D01*
X3929500Y2978000D02*
Y2996000D01*
X3938500Y2978000D02*
Y2996000D01*
X3929500D02*
X3938500D01*
X3929500Y2978000D02*
X3938500D01*
X4385500Y3339000D02*
X4404500D01*
X4385500Y3349000D02*
X4404500D01*
X4385500Y3339000D02*
Y3349000D01*
X4404500Y3339000D02*
Y3349000D01*
X4364500Y3349000D02*
X4383500D01*
X4364500Y3339000D02*
X4383500D01*
Y3349000D01*
X4364500Y3339000D02*
Y3349000D01*
X4362000Y3327200D02*
Y3346200D01*
X4352000Y3327200D02*
Y3346200D01*
Y3327200D02*
X4362000D01*
X4352000Y3346200D02*
X4362000D01*
Y3308200D02*
Y3327200D01*
X4352000Y3308200D02*
Y3327200D01*
Y3308200D02*
X4362000D01*
X4352000Y3327200D02*
X4362000D01*
X3905500Y3073000D02*
X3924500D01*
X3905500Y3083000D02*
X3924500D01*
X3905500Y3073000D02*
Y3083000D01*
X3924500Y3073000D02*
Y3083000D01*
X4275500Y2739000D02*
X4294500D01*
X4275500Y2749000D02*
X4294500D01*
X4275500Y2739000D02*
Y2749000D01*
X4294500Y2739000D02*
Y2749000D01*
X3913000Y2976500D02*
X3923000D01*
X3913000Y2957500D02*
X3923000D01*
X3913000D02*
Y2976500D01*
X3923000Y2957500D02*
Y2976500D01*
X3964500Y3063000D02*
Y3073000D01*
X3983500Y3063000D02*
Y3073000D01*
X3964500Y3063000D02*
X3983500D01*
X3964500Y3073000D02*
X3983500D01*
X3937500Y3009000D02*
Y3019000D01*
X3956500Y3009000D02*
Y3019000D01*
X3937500Y3009000D02*
X3956500D01*
X3937500Y3019000D02*
X3956500D01*
X3929500Y3005000D02*
Y3015000D01*
X3910500Y3005000D02*
Y3015000D01*
X3929500D01*
X3910500Y3005000D02*
X3929500D01*
X3906000Y3060500D02*
X3916000D01*
X3906000Y3041500D02*
X3916000D01*
X3906000D02*
Y3060500D01*
X3916000Y3041500D02*
Y3060500D01*
X3941500Y3039000D02*
Y3049000D01*
X3960500Y3039000D02*
Y3049000D01*
X3941500Y3039000D02*
X3960500D01*
X3941500Y3049000D02*
X3960500D01*
X4356500Y3103750D02*
Y3112750D01*
X4374500Y3103750D02*
Y3112750D01*
X4356500Y3103750D02*
X4374500D01*
X4356500Y3112750D02*
X4374500D01*
X4393500Y3173750D02*
X4402500D01*
X4393500Y3191750D02*
X4402500D01*
Y3173750D02*
Y3191750D01*
X4393500Y3173750D02*
Y3191750D01*
X3908997Y2752749D02*
Y2747751D01*
X3906498D01*
X3905665Y2748584D01*
Y2751916D01*
X3906498Y2752749D01*
X3908997D01*
X3903999Y2747751D02*
X3902333D01*
X3903166D01*
Y2752749D01*
X3903999Y2751916D01*
X3899833D02*
X3899001Y2752749D01*
X3897334D01*
X3896501Y2751916D01*
Y2748584D01*
X3897334Y2747751D01*
X3899001D01*
X3899833Y2748584D01*
Y2751916D01*
X3894835Y2748584D02*
X3894002Y2747751D01*
X3892336D01*
X3891503Y2748584D01*
Y2751916D01*
X3892336Y2752749D01*
X3894002D01*
X3894835Y2751916D01*
Y2751083D01*
X3894002Y2750250D01*
X3891503D01*
X4393581Y2799499D02*
Y2794501D01*
X4391082D01*
X4390248Y2795334D01*
Y2798666D01*
X4391082Y2799499D01*
X4393581D01*
X4388582Y2798666D02*
X4387749Y2799499D01*
X4386083D01*
X4385250Y2798666D01*
Y2797833D01*
X4386083Y2797000D01*
X4386916D01*
X4386083D01*
X4385250Y2796167D01*
Y2795334D01*
X4386083Y2794501D01*
X4387749D01*
X4388582Y2795334D01*
X4383584Y2798666D02*
X4382751Y2799499D01*
X4381085D01*
X4380251Y2798666D01*
Y2795334D01*
X4381085Y2794501D01*
X4382751D01*
X4383584Y2795334D01*
Y2798666D01*
X4378586Y2794501D02*
X4376919D01*
X4377752D01*
Y2799499D01*
X4378586Y2798666D01*
X4060747Y2691499D02*
Y2686501D01*
X4058248D01*
X4057415Y2687334D01*
Y2690666D01*
X4058248Y2691499D01*
X4060747D01*
X4055749Y2686501D02*
X4054083D01*
X4054916D01*
Y2691499D01*
X4055749Y2690666D01*
X4051584D02*
X4050750Y2691499D01*
X4049084D01*
X4048251Y2690666D01*
Y2687334D01*
X4049084Y2686501D01*
X4050750D01*
X4051584Y2687334D01*
Y2690666D01*
X4043253Y2691499D02*
X4046585D01*
Y2689000D01*
X4044919Y2689833D01*
X4044086D01*
X4043253Y2689000D01*
Y2687334D01*
X4044086Y2686501D01*
X4045752D01*
X4046585Y2687334D01*
X4022997Y2713999D02*
Y2709001D01*
X4020498D01*
X4019665Y2709834D01*
Y2713166D01*
X4020498Y2713999D01*
X4022997D01*
X4017999Y2709001D02*
X4016333D01*
X4017166D01*
Y2713999D01*
X4017999Y2713166D01*
X4013834D02*
X4013000Y2713999D01*
X4011334D01*
X4010501Y2713166D01*
Y2709834D01*
X4011334Y2709001D01*
X4013000D01*
X4013834Y2709834D01*
Y2713166D01*
X4005503Y2709001D02*
X4008835D01*
X4005503Y2712333D01*
Y2713166D01*
X4006336Y2713999D01*
X4008002D01*
X4008835Y2713166D01*
X4032914Y2704999D02*
Y2700001D01*
X4030415D01*
X4029582Y2700834D01*
Y2704166D01*
X4030415Y2704999D01*
X4032914D01*
X4027916Y2700001D02*
X4026250D01*
X4027083D01*
Y2704999D01*
X4027916Y2704166D01*
X4023750D02*
X4022917Y2704999D01*
X4021251D01*
X4020418Y2704166D01*
Y2700834D01*
X4021251Y2700001D01*
X4022917D01*
X4023750Y2700834D01*
Y2704166D01*
X4018752Y2700001D02*
X4017086D01*
X4017919D01*
Y2704999D01*
X4018752Y2704166D01*
X3927497Y2819999D02*
Y2815001D01*
X3924998D01*
X3924165Y2815834D01*
Y2819166D01*
X3924998Y2819999D01*
X3927497D01*
X3922499Y2815001D02*
X3920833D01*
X3921666D01*
Y2819999D01*
X3922499Y2819166D01*
X3918333D02*
X3917500Y2819999D01*
X3915834D01*
X3915001Y2819166D01*
Y2815834D01*
X3915834Y2815001D01*
X3917500D01*
X3918333Y2815834D01*
Y2819166D01*
X3913335Y2819999D02*
X3910003D01*
Y2819166D01*
X3913335Y2815834D01*
Y2815001D01*
X4416497Y2813501D02*
Y2818499D01*
X4413998D01*
X4413165Y2817666D01*
Y2816000D01*
X4413998Y2815167D01*
X4416497D01*
X4414831D02*
X4413165Y2813501D01*
X4411499Y2817666D02*
X4410666Y2818499D01*
X4409000D01*
X4408167Y2817666D01*
Y2816833D01*
X4409000Y2816000D01*
X4409833D01*
X4409000D01*
X4408167Y2815167D01*
Y2814334D01*
X4409000Y2813501D01*
X4410666D01*
X4411499Y2814334D01*
X4406501Y2813501D02*
X4404834D01*
X4405667D01*
Y2818499D01*
X4406501Y2817666D01*
X4402335Y2818499D02*
X4399003D01*
Y2817666D01*
X4402335Y2814334D01*
Y2813501D01*
X4435997Y2757751D02*
Y2762749D01*
X4433498D01*
X4432665Y2761916D01*
Y2760250D01*
X4433498Y2759417D01*
X4435997D01*
X4434331D02*
X4432665Y2757751D01*
X4430999Y2761916D02*
X4430166Y2762749D01*
X4428499D01*
X4427667Y2761916D01*
Y2761083D01*
X4428499Y2760250D01*
X4429333D01*
X4428499D01*
X4427667Y2759417D01*
Y2758584D01*
X4428499Y2757751D01*
X4430166D01*
X4430999Y2758584D01*
X4426000Y2757751D02*
X4424334D01*
X4425167D01*
Y2762749D01*
X4426000Y2761916D01*
X4418503Y2762749D02*
X4420169Y2761916D01*
X4421835Y2760250D01*
Y2758584D01*
X4421002Y2757751D01*
X4419336D01*
X4418503Y2758584D01*
Y2759417D01*
X4419336Y2760250D01*
X4421835D01*
X4450497Y2817251D02*
Y2822249D01*
X4447998D01*
X4447165Y2821416D01*
Y2819750D01*
X4447998Y2818917D01*
X4450497D01*
X4448831D02*
X4447165Y2817251D01*
X4445499Y2821416D02*
X4444666Y2822249D01*
X4443000D01*
X4442166Y2821416D01*
Y2820583D01*
X4443000Y2819750D01*
X4443833D01*
X4443000D01*
X4442166Y2818917D01*
Y2818084D01*
X4443000Y2817251D01*
X4444666D01*
X4445499Y2818084D01*
X4440500Y2817251D02*
X4438834D01*
X4439667D01*
Y2822249D01*
X4440500Y2821416D01*
X4433003Y2822249D02*
X4436335D01*
Y2819750D01*
X4434669Y2820583D01*
X4433836D01*
X4433003Y2819750D01*
Y2818084D01*
X4433836Y2817251D01*
X4435502D01*
X4436335Y2818084D01*
X4361408Y2779528D02*
Y2784526D01*
X4358909D01*
X4358076Y2783693D01*
Y2782027D01*
X4358909Y2781194D01*
X4361408D01*
X4359742D02*
X4358076Y2779528D01*
X4356410D02*
X4354744D01*
X4355576D01*
Y2784526D01*
X4356410Y2783693D01*
X4348912Y2779528D02*
X4352244D01*
X4348912Y2782860D01*
Y2783693D01*
X4349745Y2784526D01*
X4351411D01*
X4352244Y2783693D01*
X4347246D02*
X4346413Y2784526D01*
X4344747D01*
X4343914Y2783693D01*
Y2782860D01*
X4344747Y2782027D01*
X4343914Y2781194D01*
Y2780361D01*
X4344747Y2779528D01*
X4346413D01*
X4347246Y2780361D01*
Y2781194D01*
X4346413Y2782027D01*
X4347246Y2782860D01*
Y2783693D01*
X4346413Y2782027D02*
X4344747D01*
X4364458Y2832530D02*
Y2837528D01*
X4361959D01*
X4361126Y2836695D01*
Y2835029D01*
X4361959Y2834196D01*
X4364458D01*
X4362792D02*
X4361126Y2832530D01*
X4359460D02*
X4357794D01*
X4358627D01*
Y2837528D01*
X4359460Y2836695D01*
X4351962Y2832530D02*
X4355294D01*
X4351962Y2835862D01*
Y2836695D01*
X4352795Y2837528D01*
X4354461D01*
X4355294Y2836695D01*
X4350296Y2837528D02*
X4346964D01*
Y2836695D01*
X4350296Y2833363D01*
Y2832530D01*
X4463662Y2778465D02*
X4464495Y2779298D01*
X4466161D01*
X4466994Y2778465D01*
Y2775133D01*
X4466161Y2774300D01*
X4464495D01*
X4463662Y2775133D01*
X4461996Y2778465D02*
X4461163Y2779298D01*
X4459496D01*
X4458663Y2778465D01*
Y2777632D01*
X4459496Y2776799D01*
X4460330D01*
X4459496D01*
X4458663Y2775966D01*
Y2775133D01*
X4459496Y2774300D01*
X4461163D01*
X4461996Y2775133D01*
X4456997Y2774300D02*
X4455331D01*
X4456164D01*
Y2779298D01*
X4456997Y2778465D01*
X4452832D02*
X4451999Y2779298D01*
X4450333D01*
X4449500Y2778465D01*
Y2775133D01*
X4450333Y2774300D01*
X4451999D01*
X4452832Y2775133D01*
Y2778465D01*
X4280331Y3051166D02*
X4281165Y3051999D01*
X4282831D01*
X4283664Y3051166D01*
Y3047834D01*
X4282831Y3047001D01*
X4281165D01*
X4280331Y3047834D01*
X4278665Y3051166D02*
X4277832Y3051999D01*
X4276166D01*
X4275333Y3051166D01*
Y3050333D01*
X4276166Y3049500D01*
X4276999D01*
X4276166D01*
X4275333Y3048667D01*
Y3047834D01*
X4276166Y3047001D01*
X4277832D01*
X4278665Y3047834D01*
X4273667Y3051166D02*
X4272834Y3051999D01*
X4271168D01*
X4270335Y3051166D01*
Y3047834D01*
X4271168Y3047001D01*
X4272834D01*
X4273667Y3047834D01*
Y3051166D01*
X4268669D02*
X4267835Y3051999D01*
X4266169D01*
X4265336Y3051166D01*
Y3050333D01*
X4266169Y3049500D01*
X4265336Y3048667D01*
Y3047834D01*
X4266169Y3047001D01*
X4267835D01*
X4268669Y3047834D01*
Y3048667D01*
X4267835Y3049500D01*
X4268669Y3050333D01*
Y3051166D01*
X4267835Y3049500D02*
X4266169D01*
X3975081Y3158416D02*
X3975915Y3159249D01*
X3977581D01*
X3978414Y3158416D01*
Y3155084D01*
X3977581Y3154251D01*
X3975915D01*
X3975081Y3155084D01*
X3970083Y3154251D02*
X3973415D01*
X3970083Y3157583D01*
Y3158416D01*
X3970916Y3159249D01*
X3972582D01*
X3973415Y3158416D01*
X3965085Y3154251D02*
X3968417D01*
X3965085Y3157583D01*
Y3158416D01*
X3965918Y3159249D01*
X3967584D01*
X3968417Y3158416D01*
X3963419Y3159249D02*
X3960086D01*
Y3158416D01*
X3963419Y3155084D01*
Y3154251D01*
X4435413Y3000499D02*
X4433747D01*
X4434580D01*
Y2995501D01*
X4435413D01*
X4433747D01*
X4427916Y2999666D02*
X4428749Y3000499D01*
X4430415D01*
X4431248Y2999666D01*
Y2996334D01*
X4430415Y2995501D01*
X4428749D01*
X4427916Y2996334D01*
X4426250Y2999666D02*
X4425417Y3000499D01*
X4423750D01*
X4422917Y2999666D01*
Y2998833D01*
X4423750Y2998000D01*
X4424583D01*
X4423750D01*
X4422917Y2997167D01*
Y2996334D01*
X4423750Y2995501D01*
X4425417D01*
X4426250Y2996334D01*
X4421251Y2999666D02*
X4420418Y3000499D01*
X4418752D01*
X4417919Y2999666D01*
Y2996334D01*
X4418752Y2995501D01*
X4420418D01*
X4421251Y2996334D01*
Y2999666D01*
X4416253Y2995501D02*
X4414587D01*
X4415420D01*
Y3000499D01*
X4416253Y2999666D01*
X4394914Y3057501D02*
Y3062499D01*
X4392415D01*
X4391582Y3061666D01*
Y3060000D01*
X4392415Y3059167D01*
X4394914D01*
X4393248D02*
X4391582Y3057501D01*
X4389916Y3061666D02*
X4389083Y3062499D01*
X4387416D01*
X4386584Y3061666D01*
Y3060833D01*
X4387416Y3060000D01*
X4388250D01*
X4387416D01*
X4386584Y3059167D01*
Y3058334D01*
X4387416Y3057501D01*
X4389083D01*
X4389916Y3058334D01*
X4384917Y3057501D02*
X4383251D01*
X4384084D01*
Y3062499D01*
X4384917Y3061666D01*
X4380752Y3057501D02*
X4379086D01*
X4379919D01*
Y3062499D01*
X4380752Y3061666D01*
X4454164Y2838001D02*
Y2842999D01*
X4451664D01*
X4450831Y2842166D01*
Y2840500D01*
X4451664Y2839667D01*
X4454164D01*
X4452498D02*
X4450831Y2838001D01*
X4449165Y2842166D02*
X4448332Y2842999D01*
X4446666D01*
X4445833Y2842166D01*
Y2841333D01*
X4446666Y2840500D01*
X4447499D01*
X4446666D01*
X4445833Y2839667D01*
Y2838834D01*
X4446666Y2838001D01*
X4448332D01*
X4449165Y2838834D01*
X4444167Y2842166D02*
X4443334Y2842999D01*
X4441668D01*
X4440835Y2842166D01*
Y2838834D01*
X4441668Y2838001D01*
X4443334D01*
X4444167Y2838834D01*
Y2842166D01*
X4439169Y2838834D02*
X4438336Y2838001D01*
X4436669D01*
X4435836Y2838834D01*
Y2842166D01*
X4436669Y2842999D01*
X4438336D01*
X4439169Y2842166D01*
Y2841333D01*
X4438336Y2840500D01*
X4435836D01*
X4361164Y3060501D02*
Y3065499D01*
X4358665D01*
X4357831Y3064666D01*
Y3063000D01*
X4358665Y3062167D01*
X4361164D01*
X4359498D02*
X4357831Y3060501D01*
X4356165Y3064666D02*
X4355332Y3065499D01*
X4353666D01*
X4352833Y3064666D01*
Y3063833D01*
X4353666Y3063000D01*
X4354499D01*
X4353666D01*
X4352833Y3062167D01*
Y3061334D01*
X4353666Y3060501D01*
X4355332D01*
X4356165Y3061334D01*
X4351167Y3064666D02*
X4350334Y3065499D01*
X4348668D01*
X4347835Y3064666D01*
Y3061334D01*
X4348668Y3060501D01*
X4350334D01*
X4351167Y3061334D01*
Y3064666D01*
X4346169D02*
X4345335Y3065499D01*
X4343669D01*
X4342836Y3064666D01*
Y3063833D01*
X4343669Y3063000D01*
X4342836Y3062167D01*
Y3061334D01*
X4343669Y3060501D01*
X4345335D01*
X4346169Y3061334D01*
Y3062167D01*
X4345335Y3063000D01*
X4346169Y3063833D01*
Y3064666D01*
X4345335Y3063000D02*
X4343669D01*
X4388164Y2991501D02*
Y2996499D01*
X4385664D01*
X4384832Y2995666D01*
Y2994000D01*
X4385664Y2993167D01*
X4388164D01*
X4386497D02*
X4384832Y2991501D01*
X4383165Y2995666D02*
X4382332Y2996499D01*
X4380666D01*
X4379833Y2995666D01*
Y2994833D01*
X4380666Y2994000D01*
X4381499D01*
X4380666D01*
X4379833Y2993167D01*
Y2992334D01*
X4380666Y2991501D01*
X4382332D01*
X4383165Y2992334D01*
X4378167Y2995666D02*
X4377334Y2996499D01*
X4375668D01*
X4374835Y2995666D01*
Y2992334D01*
X4375668Y2991501D01*
X4377334D01*
X4378167Y2992334D01*
Y2995666D01*
X4369836Y2996499D02*
X4371502Y2995666D01*
X4373169Y2994000D01*
Y2992334D01*
X4372336Y2991501D01*
X4370669D01*
X4369836Y2992334D01*
Y2993167D01*
X4370669Y2994000D01*
X4373169D01*
X4399164Y2963501D02*
Y2968499D01*
X4396664D01*
X4395831Y2967666D01*
Y2966000D01*
X4396664Y2965167D01*
X4399164D01*
X4397498D02*
X4395831Y2963501D01*
X4394165Y2967666D02*
X4393332Y2968499D01*
X4391666D01*
X4390833Y2967666D01*
Y2966833D01*
X4391666Y2966000D01*
X4392499D01*
X4391666D01*
X4390833Y2965167D01*
Y2964334D01*
X4391666Y2963501D01*
X4393332D01*
X4394165Y2964334D01*
X4389167Y2967666D02*
X4388334Y2968499D01*
X4386668D01*
X4385835Y2967666D01*
Y2964334D01*
X4386668Y2963501D01*
X4388334D01*
X4389167Y2964334D01*
Y2967666D01*
X4381669Y2963501D02*
Y2968499D01*
X4384169Y2966000D01*
X4380836D01*
X4342164Y2951501D02*
Y2956499D01*
X4339665D01*
X4338831Y2955666D01*
Y2954000D01*
X4339665Y2953167D01*
X4342164D01*
X4340497D02*
X4338831Y2951501D01*
X4337165Y2955666D02*
X4336332Y2956499D01*
X4334666D01*
X4333833Y2955666D01*
Y2954833D01*
X4334666Y2954000D01*
X4335499D01*
X4334666D01*
X4333833Y2953167D01*
Y2952334D01*
X4334666Y2951501D01*
X4336332D01*
X4337165Y2952334D01*
X4332167Y2955666D02*
X4331334Y2956499D01*
X4329668D01*
X4328835Y2955666D01*
Y2952334D01*
X4329668Y2951501D01*
X4331334D01*
X4332167Y2952334D01*
Y2955666D01*
X4323836Y2951501D02*
X4327169D01*
X4323836Y2954833D01*
Y2955666D01*
X4324669Y2956499D01*
X4326335D01*
X4327169Y2955666D01*
X4387331Y2979501D02*
Y2984499D01*
X4384832D01*
X4383998Y2983666D01*
Y2982000D01*
X4384832Y2981167D01*
X4387331D01*
X4385664D02*
X4383998Y2979501D01*
X4382332Y2983666D02*
X4381499Y2984499D01*
X4379833D01*
X4379000Y2983666D01*
Y2982833D01*
X4379833Y2982000D01*
X4380666D01*
X4379833D01*
X4379000Y2981167D01*
Y2980334D01*
X4379833Y2979501D01*
X4381499D01*
X4382332Y2980334D01*
X4377334Y2983666D02*
X4376501Y2984499D01*
X4374835D01*
X4374001Y2983666D01*
Y2980334D01*
X4374835Y2979501D01*
X4376501D01*
X4377334Y2980334D01*
Y2983666D01*
X4372336Y2979501D02*
X4370669D01*
X4371502D01*
Y2984499D01*
X4372336Y2983666D01*
X3899747Y3136501D02*
Y3141499D01*
X3897248D01*
X3896415Y3140666D01*
Y3139000D01*
X3897248Y3138167D01*
X3899747D01*
X3898081D02*
X3896415Y3136501D01*
X3891417D02*
X3894749D01*
X3891417Y3139833D01*
Y3140666D01*
X3892249Y3141499D01*
X3893916D01*
X3894749Y3140666D01*
X3889750Y3136501D02*
X3888084D01*
X3888917D01*
Y3141499D01*
X3889750Y3140666D01*
X3885585D02*
X3884752Y3141499D01*
X3883086D01*
X3882253Y3140666D01*
Y3139833D01*
X3883086Y3139000D01*
X3883919D01*
X3883086D01*
X3882253Y3138167D01*
Y3137334D01*
X3883086Y3136501D01*
X3884752D01*
X3885585Y3137334D01*
X3860497Y3155001D02*
Y3159999D01*
X3857998D01*
X3857165Y3159166D01*
Y3157500D01*
X3857998Y3156667D01*
X3860497D01*
X3858831D02*
X3857165Y3155001D01*
X3852166D02*
X3855499D01*
X3852166Y3158333D01*
Y3159166D01*
X3853000Y3159999D01*
X3854666D01*
X3855499Y3159166D01*
X3850500Y3155001D02*
X3848834D01*
X3849667D01*
Y3159999D01*
X3850500Y3159166D01*
X3843003Y3155001D02*
X3846335D01*
X3843003Y3158333D01*
Y3159166D01*
X3843836Y3159999D01*
X3845502D01*
X3846335Y3159166D01*
X4037747Y3197501D02*
Y3202499D01*
X4035248D01*
X4034415Y3201666D01*
Y3200000D01*
X4035248Y3199167D01*
X4037747D01*
X4036081D02*
X4034415Y3197501D01*
X4029417D02*
X4032749D01*
X4029417Y3200833D01*
Y3201666D01*
X4030250Y3202499D01*
X4031916D01*
X4032749Y3201666D01*
X4027751Y3197501D02*
X4026084D01*
X4026917D01*
Y3202499D01*
X4027751Y3201666D01*
X4023585D02*
X4022752Y3202499D01*
X4021086D01*
X4020253Y3201666D01*
Y3198334D01*
X4021086Y3197501D01*
X4022752D01*
X4023585Y3198334D01*
Y3201666D01*
X4433164Y3231501D02*
Y3236499D01*
X4430664D01*
X4429832Y3235666D01*
Y3234000D01*
X4430664Y3233167D01*
X4433164D01*
X4431497D02*
X4429832Y3231501D01*
X4424833D02*
X4428165D01*
X4424833Y3234833D01*
Y3235666D01*
X4425666Y3236499D01*
X4427332D01*
X4428165Y3235666D01*
X4423167D02*
X4422334Y3236499D01*
X4420668D01*
X4419835Y3235666D01*
Y3232334D01*
X4420668Y3231501D01*
X4422334D01*
X4423167Y3232334D01*
Y3235666D01*
X4418169Y3232334D02*
X4417336Y3231501D01*
X4415669D01*
X4414836Y3232334D01*
Y3235666D01*
X4415669Y3236499D01*
X4417336D01*
X4418169Y3235666D01*
Y3234833D01*
X4417336Y3234000D01*
X4414836D01*
X4435164Y3251501D02*
Y3256499D01*
X4432664D01*
X4431831Y3255666D01*
Y3254000D01*
X4432664Y3253167D01*
X4435164D01*
X4433498D02*
X4431831Y3251501D01*
X4426833D02*
X4430165D01*
X4426833Y3254833D01*
Y3255666D01*
X4427666Y3256499D01*
X4429332D01*
X4430165Y3255666D01*
X4425167D02*
X4424334Y3256499D01*
X4422668D01*
X4421835Y3255666D01*
Y3252334D01*
X4422668Y3251501D01*
X4424334D01*
X4425167Y3252334D01*
Y3255666D01*
X4420168D02*
X4419336Y3256499D01*
X4417669D01*
X4416836Y3255666D01*
Y3254833D01*
X4417669Y3254000D01*
X4416836Y3253167D01*
Y3252334D01*
X4417669Y3251501D01*
X4419336D01*
X4420168Y3252334D01*
Y3253167D01*
X4419336Y3254000D01*
X4420168Y3254833D01*
Y3255666D01*
X4419336Y3254000D02*
X4417669D01*
X3837164Y3104251D02*
Y3109249D01*
X3834665D01*
X3833831Y3108416D01*
Y3106750D01*
X3834665Y3105917D01*
X3837164D01*
X3835498D02*
X3833831Y3104251D01*
X3828833D02*
X3832165D01*
X3828833Y3107583D01*
Y3108416D01*
X3829666Y3109249D01*
X3831332D01*
X3832165Y3108416D01*
X3827167D02*
X3826334Y3109249D01*
X3824668D01*
X3823835Y3108416D01*
Y3105084D01*
X3824668Y3104251D01*
X3826334D01*
X3827167Y3105084D01*
Y3108416D01*
X3822169Y3109249D02*
X3818836D01*
Y3108416D01*
X3822169Y3105084D01*
Y3104251D01*
X3842164Y3224751D02*
Y3229749D01*
X3839665D01*
X3838831Y3228916D01*
Y3227250D01*
X3839665Y3226417D01*
X3842164D01*
X3840498D02*
X3838831Y3224751D01*
X3833833D02*
X3837165D01*
X3833833Y3228083D01*
Y3228916D01*
X3834666Y3229749D01*
X3836332D01*
X3837165Y3228916D01*
X3832167D02*
X3831334Y3229749D01*
X3829668D01*
X3828835Y3228916D01*
Y3225584D01*
X3829668Y3224751D01*
X3831334D01*
X3832167Y3225584D01*
Y3228916D01*
X3823836Y3229749D02*
X3825503Y3228916D01*
X3827169Y3227250D01*
Y3225584D01*
X3826335Y3224751D01*
X3824669D01*
X3823836Y3225584D01*
Y3226417D01*
X3824669Y3227250D01*
X3827169D01*
X3891164Y3256501D02*
Y3261499D01*
X3888665D01*
X3887831Y3260666D01*
Y3259000D01*
X3888665Y3258167D01*
X3891164D01*
X3889498D02*
X3887831Y3256501D01*
X3882833D02*
X3886165D01*
X3882833Y3259833D01*
Y3260666D01*
X3883666Y3261499D01*
X3885332D01*
X3886165Y3260666D01*
X3881167D02*
X3880334Y3261499D01*
X3878668D01*
X3877835Y3260666D01*
Y3257334D01*
X3878668Y3256501D01*
X3880334D01*
X3881167Y3257334D01*
Y3260666D01*
X3872836Y3261499D02*
X3876169D01*
Y3259000D01*
X3874503Y3259833D01*
X3873669D01*
X3872836Y3259000D01*
Y3257334D01*
X3873669Y3256501D01*
X3875335D01*
X3876169Y3257334D01*
X3899664Y3274751D02*
Y3279749D01*
X3897165D01*
X3896331Y3278916D01*
Y3277250D01*
X3897165Y3276417D01*
X3899664D01*
X3897997D02*
X3896331Y3274751D01*
X3891333D02*
X3894665D01*
X3891333Y3278083D01*
Y3278916D01*
X3892166Y3279749D01*
X3893832D01*
X3894665Y3278916D01*
X3889667D02*
X3888834Y3279749D01*
X3887168D01*
X3886335Y3278916D01*
Y3275584D01*
X3887168Y3274751D01*
X3888834D01*
X3889667Y3275584D01*
Y3278916D01*
X3882169Y3274751D02*
Y3279749D01*
X3884669Y3277250D01*
X3881336D01*
X3905914Y3288751D02*
Y3293749D01*
X3903415D01*
X3902581Y3292916D01*
Y3291250D01*
X3903415Y3290417D01*
X3905914D01*
X3904247D02*
X3902581Y3288751D01*
X3897583D02*
X3900915D01*
X3897583Y3292083D01*
Y3292916D01*
X3898416Y3293749D01*
X3900082D01*
X3900915Y3292916D01*
X3895917D02*
X3895084Y3293749D01*
X3893418D01*
X3892585Y3292916D01*
Y3289584D01*
X3893418Y3288751D01*
X3895084D01*
X3895917Y3289584D01*
Y3292916D01*
X3890919D02*
X3890085Y3293749D01*
X3888419D01*
X3887586Y3292916D01*
Y3292083D01*
X3888419Y3291250D01*
X3889252D01*
X3888419D01*
X3887586Y3290417D01*
Y3289584D01*
X3888419Y3288751D01*
X3890085D01*
X3890919Y3289584D01*
X3936164Y3240251D02*
Y3245249D01*
X3933665D01*
X3932831Y3244416D01*
Y3242750D01*
X3933665Y3241917D01*
X3936164D01*
X3934497D02*
X3932831Y3240251D01*
X3927833D02*
X3931165D01*
X3927833Y3243583D01*
Y3244416D01*
X3928666Y3245249D01*
X3930332D01*
X3931165Y3244416D01*
X3926167D02*
X3925334Y3245249D01*
X3923668D01*
X3922835Y3244416D01*
Y3241084D01*
X3923668Y3240251D01*
X3925334D01*
X3926167Y3241084D01*
Y3244416D01*
X3917836Y3240251D02*
X3921169D01*
X3917836Y3243583D01*
Y3244416D01*
X3918669Y3245249D01*
X3920335D01*
X3921169Y3244416D01*
X3972331Y3282501D02*
Y3287499D01*
X3969832D01*
X3968998Y3286666D01*
Y3285000D01*
X3969832Y3284167D01*
X3972331D01*
X3970664D02*
X3968998Y3282501D01*
X3964000D02*
X3967332D01*
X3964000Y3285833D01*
Y3286666D01*
X3964833Y3287499D01*
X3966499D01*
X3967332Y3286666D01*
X3962334D02*
X3961501Y3287499D01*
X3959835D01*
X3959001Y3286666D01*
Y3283334D01*
X3959835Y3282501D01*
X3961501D01*
X3962334Y3283334D01*
Y3286666D01*
X3957336Y3282501D02*
X3955669D01*
X3956502D01*
Y3287499D01*
X3957336Y3286666D01*
X3946747Y2969251D02*
Y2974249D01*
X3944248D01*
X3943415Y2973416D01*
Y2971750D01*
X3944248Y2970917D01*
X3946747D01*
X3945081D02*
X3943415Y2969251D01*
X3941749D02*
X3940083D01*
X3940916D01*
Y2974249D01*
X3941749Y2973416D01*
X3937584D02*
X3936750Y2974249D01*
X3935084D01*
X3934251Y2973416D01*
Y2972583D01*
X3935084Y2971750D01*
X3935917D01*
X3935084D01*
X3934251Y2970917D01*
Y2970084D01*
X3935084Y2969251D01*
X3936750D01*
X3937584Y2970084D01*
X3932585Y2973416D02*
X3931752Y2974249D01*
X3930086D01*
X3929253Y2973416D01*
Y2970084D01*
X3930086Y2969251D01*
X3931752D01*
X3932585Y2970084D01*
Y2973416D01*
X3995997Y2976001D02*
Y2980999D01*
X3993498D01*
X3992665Y2980166D01*
Y2978500D01*
X3993498Y2977667D01*
X3995997D01*
X3994331D02*
X3992665Y2976001D01*
X3990999D02*
X3989333D01*
X3990166D01*
Y2980999D01*
X3990999Y2980166D01*
X3983501Y2976001D02*
X3986833D01*
X3983501Y2979333D01*
Y2980166D01*
X3984334Y2980999D01*
X3986000D01*
X3986833Y2980166D01*
X3978503Y2980999D02*
X3980169Y2980166D01*
X3981835Y2978500D01*
Y2976834D01*
X3981002Y2976001D01*
X3979336D01*
X3978503Y2976834D01*
Y2977667D01*
X3979336Y2978500D01*
X3981835D01*
X4053747Y2806501D02*
Y2811499D01*
X4051248D01*
X4050415Y2810666D01*
Y2809000D01*
X4051248Y2808167D01*
X4053747D01*
X4052081D02*
X4050415Y2806501D01*
X4048749D02*
X4047083D01*
X4047916D01*
Y2811499D01*
X4048749Y2810666D01*
X4041251Y2806501D02*
X4044583D01*
X4041251Y2809833D01*
Y2810666D01*
X4042084Y2811499D01*
X4043750D01*
X4044583Y2810666D01*
X4037086Y2806501D02*
Y2811499D01*
X4039585Y2809000D01*
X4036253D01*
X4028747Y2751501D02*
Y2756499D01*
X4026248D01*
X4025415Y2755666D01*
Y2754000D01*
X4026248Y2753167D01*
X4028747D01*
X4027081D02*
X4025415Y2751501D01*
X4023749D02*
X4022083D01*
X4022916D01*
Y2756499D01*
X4023749Y2755666D01*
X4016251Y2751501D02*
X4019583D01*
X4016251Y2754833D01*
Y2755666D01*
X4017084Y2756499D01*
X4018750D01*
X4019583Y2755666D01*
X4014585D02*
X4013752Y2756499D01*
X4012086D01*
X4011253Y2755666D01*
Y2754833D01*
X4012086Y2754000D01*
X4012919D01*
X4012086D01*
X4011253Y2753167D01*
Y2752334D01*
X4012086Y2751501D01*
X4013752D01*
X4014585Y2752334D01*
X4047497Y2733251D02*
Y2738249D01*
X4044998D01*
X4044165Y2737416D01*
Y2735750D01*
X4044998Y2734917D01*
X4047497D01*
X4045831D02*
X4044165Y2733251D01*
X4042499D02*
X4040833D01*
X4041666D01*
Y2738249D01*
X4042499Y2737416D01*
X4035001Y2733251D02*
X4038333D01*
X4035001Y2736583D01*
Y2737416D01*
X4035834Y2738249D01*
X4037500D01*
X4038333Y2737416D01*
X4030003Y2733251D02*
X4033335D01*
X4030003Y2736583D01*
Y2737416D01*
X4030836Y2738249D01*
X4032502D01*
X4033335Y2737416D01*
X3944227Y2677501D02*
Y2682499D01*
X3941728D01*
X3940894Y2681666D01*
Y2680000D01*
X3941728Y2679167D01*
X3944227D01*
X3942561D02*
X3940894Y2677501D01*
X3939229D02*
X3937562D01*
X3938395D01*
Y2682499D01*
X3939229Y2681666D01*
X3931731Y2677501D02*
X3935063D01*
X3931731Y2680833D01*
Y2681666D01*
X3932564Y2682499D01*
X3934230D01*
X3935063Y2681666D01*
X3930065Y2677501D02*
X3928399D01*
X3929232D01*
Y2682499D01*
X3930065Y2681666D01*
X3995331Y2742501D02*
Y2747499D01*
X3992831D01*
X3991998Y2746666D01*
Y2745000D01*
X3992831Y2744167D01*
X3995331D01*
X3993665D02*
X3991998Y2742501D01*
X3990332D02*
X3988666D01*
X3989499D01*
Y2747499D01*
X3990332Y2746666D01*
X3986167Y2742501D02*
X3984501D01*
X3985334D01*
Y2747499D01*
X3986167Y2746666D01*
X3982002Y2743334D02*
X3981169Y2742501D01*
X3979502D01*
X3978669Y2743334D01*
Y2746666D01*
X3979502Y2747499D01*
X3981169D01*
X3982002Y2746666D01*
Y2745833D01*
X3981169Y2745000D01*
X3978669D01*
X4013831Y2717001D02*
Y2721999D01*
X4011331D01*
X4010498Y2721166D01*
Y2719500D01*
X4011331Y2718667D01*
X4013831D01*
X4012165D02*
X4010498Y2717001D01*
X4008832D02*
X4007166D01*
X4007999D01*
Y2721999D01*
X4008832Y2721166D01*
X4004667Y2717001D02*
X4003001D01*
X4003834D01*
Y2721999D01*
X4004667Y2721166D01*
X4000502D02*
X3999669Y2721999D01*
X3998002D01*
X3997169Y2721166D01*
Y2720333D01*
X3998002Y2719500D01*
X3997169Y2718667D01*
Y2717834D01*
X3998002Y2717001D01*
X3999669D01*
X4000502Y2717834D01*
Y2718667D01*
X3999669Y2719500D01*
X4000502Y2720333D01*
Y2721166D01*
X3999669Y2719500D02*
X3998002D01*
X4004331Y2678001D02*
Y2682999D01*
X4001831D01*
X4000999Y2682166D01*
Y2680500D01*
X4001831Y2679667D01*
X4004331D01*
X4002664D02*
X4000999Y2678001D01*
X3999332D02*
X3997666D01*
X3998499D01*
Y2682999D01*
X3999332Y2682166D01*
X3995167Y2678001D02*
X3993501D01*
X3994334D01*
Y2682999D01*
X3995167Y2682166D01*
X3991002Y2682999D02*
X3987669D01*
Y2682166D01*
X3991002Y2678834D01*
Y2678001D01*
X3953081Y3081501D02*
Y3086499D01*
X3950581D01*
X3949749Y3085666D01*
Y3084000D01*
X3950581Y3083167D01*
X3953081D01*
X3951414D02*
X3949749Y3081501D01*
X3948082D02*
X3946416D01*
X3947249D01*
Y3086499D01*
X3948082Y3085666D01*
X3943917Y3081501D02*
X3942251D01*
X3943084D01*
Y3086499D01*
X3943917Y3085666D01*
X3936419Y3086499D02*
X3938086Y3085666D01*
X3939752Y3084000D01*
Y3082334D01*
X3938918Y3081501D01*
X3937253D01*
X3936419Y3082334D01*
Y3083167D01*
X3937253Y3084000D01*
X3939752D01*
X3949331Y2731501D02*
Y2736499D01*
X3946831D01*
X3945999Y2735666D01*
Y2734000D01*
X3946831Y2733167D01*
X3949331D01*
X3947664D02*
X3945999Y2731501D01*
X3944332D02*
X3942666D01*
X3943499D01*
Y2736499D01*
X3944332Y2735666D01*
X3940167Y2731501D02*
X3938501D01*
X3939334D01*
Y2736499D01*
X3940167Y2735666D01*
X3932669Y2736499D02*
X3936002D01*
Y2734000D01*
X3934336Y2734833D01*
X3933503D01*
X3932669Y2734000D01*
Y2732334D01*
X3933503Y2731501D01*
X3935168D01*
X3936002Y2732334D01*
X3941331Y2714501D02*
Y2719499D01*
X3938831D01*
X3937998Y2718666D01*
Y2717000D01*
X3938831Y2716167D01*
X3941331D01*
X3939665D02*
X3937998Y2714501D01*
X3936332D02*
X3934666D01*
X3935499D01*
Y2719499D01*
X3936332Y2718666D01*
X3932167Y2714501D02*
X3930501D01*
X3931334D01*
Y2719499D01*
X3932167Y2718666D01*
X3925502Y2714501D02*
Y2719499D01*
X3928002Y2717000D01*
X3924669D01*
X3949331Y2701901D02*
Y2706899D01*
X3946831D01*
X3945999Y2706066D01*
Y2704400D01*
X3946831Y2703567D01*
X3949331D01*
X3947664D02*
X3945999Y2701901D01*
X3944332D02*
X3942666D01*
X3943499D01*
Y2706899D01*
X3944332Y2706066D01*
X3940167Y2701901D02*
X3938501D01*
X3939334D01*
Y2706899D01*
X3940167Y2706066D01*
X3936002D02*
X3935168Y2706899D01*
X3933503D01*
X3932669Y2706066D01*
Y2705233D01*
X3933503Y2704400D01*
X3934336D01*
X3933503D01*
X3932669Y2703567D01*
Y2702734D01*
X3933503Y2701901D01*
X3935168D01*
X3936002Y2702734D01*
X3949331Y2688901D02*
Y2693899D01*
X3946831D01*
X3945999Y2693066D01*
Y2691400D01*
X3946831Y2690567D01*
X3949331D01*
X3947664D02*
X3945999Y2688901D01*
X3944332D02*
X3942666D01*
X3943499D01*
Y2693899D01*
X3944332Y2693066D01*
X3940167Y2688901D02*
X3938501D01*
X3939334D01*
Y2693899D01*
X3940167Y2693066D01*
X3932669Y2688901D02*
X3936002D01*
X3932669Y2692233D01*
Y2693066D01*
X3933503Y2693899D01*
X3935168D01*
X3936002Y2693066D01*
X3961497Y2671251D02*
Y2676249D01*
X3958998D01*
X3958165Y2675416D01*
Y2673750D01*
X3958998Y2672917D01*
X3961497D01*
X3959832D02*
X3958165Y2671251D01*
X3956499D02*
X3954833D01*
X3955666D01*
Y2676249D01*
X3956499Y2675416D01*
X3952334Y2671251D02*
X3950668D01*
X3951501D01*
Y2676249D01*
X3952334Y2675416D01*
X3948169Y2671251D02*
X3946502D01*
X3947336D01*
Y2676249D01*
X3948169Y2675416D01*
X3928331Y2848001D02*
Y2852999D01*
X3925831D01*
X3924998Y2852166D01*
Y2850500D01*
X3925831Y2849667D01*
X3928331D01*
X3926664D02*
X3924998Y2848001D01*
X3923332D02*
X3921666D01*
X3922499D01*
Y2852999D01*
X3923332Y2852166D01*
X3919167Y2848001D02*
X3917501D01*
X3918334D01*
Y2852999D01*
X3919167Y2852166D01*
X3915002D02*
X3914168Y2852999D01*
X3912502D01*
X3911669Y2852166D01*
Y2848834D01*
X3912502Y2848001D01*
X3914168D01*
X3915002Y2848834D01*
Y2852166D01*
X3820528Y2953606D02*
Y2958604D01*
X3818029D01*
X3817196Y2957771D01*
Y2956105D01*
X3818029Y2955272D01*
X3820528D01*
X3818862D02*
X3817196Y2953606D01*
X3815529D02*
X3813864D01*
X3814696D01*
Y2958604D01*
X3815529Y2957771D01*
X3811364D02*
X3810531Y2958604D01*
X3808865D01*
X3808032Y2957771D01*
Y2954439D01*
X3808865Y2953606D01*
X3810531D01*
X3811364Y2954439D01*
Y2957771D01*
X3806366Y2954439D02*
X3805533Y2953606D01*
X3803867D01*
X3803034Y2954439D01*
Y2957771D01*
X3803867Y2958604D01*
X3805533D01*
X3806366Y2957771D01*
Y2956938D01*
X3805533Y2956105D01*
X3803034D01*
X3890247Y2945251D02*
Y2950249D01*
X3887748D01*
X3886915Y2949416D01*
Y2947750D01*
X3887748Y2946917D01*
X3890247D01*
X3888581D02*
X3886915Y2945251D01*
X3885249D02*
X3883583D01*
X3884416D01*
Y2950249D01*
X3885249Y2949416D01*
X3881083D02*
X3880251Y2950249D01*
X3878584D01*
X3877751Y2949416D01*
Y2946084D01*
X3878584Y2945251D01*
X3880251D01*
X3881083Y2946084D01*
Y2949416D01*
X3876085D02*
X3875252Y2950249D01*
X3873586D01*
X3872753Y2949416D01*
Y2948583D01*
X3873586Y2947750D01*
X3872753Y2946917D01*
Y2946084D01*
X3873586Y2945251D01*
X3875252D01*
X3876085Y2946084D01*
Y2946917D01*
X3875252Y2947750D01*
X3876085Y2948583D01*
Y2949416D01*
X3875252Y2947750D02*
X3873586D01*
X4330997Y3243251D02*
Y3248249D01*
X4328498D01*
X4327665Y3247416D01*
Y3245750D01*
X4328498Y3244917D01*
X4330997D01*
X4329331D02*
X4327665Y3243251D01*
X4325999D02*
X4324333D01*
X4325166D01*
Y3248249D01*
X4325999Y3247416D01*
X4321833D02*
X4321000Y3248249D01*
X4319334D01*
X4318501Y3247416D01*
Y3244084D01*
X4319334Y3243251D01*
X4321000D01*
X4321833Y3244084D01*
Y3247416D01*
X4316835Y3248249D02*
X4313503D01*
Y3247416D01*
X4316835Y3244084D01*
Y3243251D01*
X4101497Y2703251D02*
Y2708249D01*
X4098998D01*
X4098165Y2707416D01*
Y2705750D01*
X4098998Y2704917D01*
X4101497D01*
X4099831D02*
X4098165Y2703251D01*
X4096499D02*
X4094833D01*
X4095666D01*
Y2708249D01*
X4096499Y2707416D01*
X4092333D02*
X4091501Y2708249D01*
X4089834D01*
X4089001Y2707416D01*
Y2704084D01*
X4089834Y2703251D01*
X4091501D01*
X4092333Y2704084D01*
Y2707416D01*
X4084003Y2708249D02*
X4085669Y2707416D01*
X4087335Y2705750D01*
Y2704084D01*
X4086502Y2703251D01*
X4084836D01*
X4084003Y2704084D01*
Y2704917D01*
X4084836Y2705750D01*
X4087335D01*
X4182747Y3177501D02*
Y3182499D01*
X4180248D01*
X4179415Y3181666D01*
Y3180000D01*
X4180248Y3179167D01*
X4182747D01*
X4181081D02*
X4179415Y3177501D01*
X4177749D02*
X4176083D01*
X4176916D01*
Y3182499D01*
X4177749Y3181666D01*
X4173583D02*
X4172751Y3182499D01*
X4171084D01*
X4170251Y3181666D01*
Y3178334D01*
X4171084Y3177501D01*
X4172751D01*
X4173583Y3178334D01*
Y3181666D01*
X4165253Y3177501D02*
X4168585D01*
X4165253Y3180833D01*
Y3181666D01*
X4166086Y3182499D01*
X4167752D01*
X4168585Y3181666D01*
X4222994Y3181130D02*
Y3186129D01*
X4220495D01*
X4219662Y3185295D01*
Y3183629D01*
X4220495Y3182796D01*
X4222994D01*
X4221328D02*
X4219662Y3181130D01*
X4217996D02*
X4216330D01*
X4217162D01*
Y3186129D01*
X4217996Y3185295D01*
X4213830D02*
X4212997Y3186129D01*
X4211331D01*
X4210498Y3185295D01*
Y3181963D01*
X4211331Y3181130D01*
X4212997D01*
X4213830Y3181963D01*
Y3185295D01*
X4208832Y3181130D02*
X4207166D01*
X4207999D01*
Y3186129D01*
X4208832Y3185295D01*
X4130580Y2710501D02*
Y2715499D01*
X4127248Y2710501D01*
Y2715499D01*
X4125581D02*
X4122249D01*
X4123915D01*
Y2710501D01*
X4117251Y2715499D02*
X4120583D01*
Y2713000D01*
X4118917Y2713833D01*
X4118084D01*
X4117251Y2713000D01*
Y2711334D01*
X4118084Y2710501D01*
X4119750D01*
X4120583Y2711334D01*
X4115585Y2714666D02*
X4114752Y2715499D01*
X4113086D01*
X4112253Y2714666D01*
Y2711334D01*
X4113086Y2710501D01*
X4114752D01*
X4115585Y2711334D01*
Y2714666D01*
X4110586Y2710501D02*
X4108920D01*
X4109753D01*
Y2715499D01*
X4110586Y2714666D01*
X4461246Y2897499D02*
X4459580D01*
X4460413D01*
Y2892501D01*
X4461246D01*
X4459580D01*
X4453749Y2896666D02*
X4454582Y2897499D01*
X4456248D01*
X4457081Y2896666D01*
Y2893334D01*
X4456248Y2892501D01*
X4454582D01*
X4453749Y2893334D01*
X4452083Y2896666D02*
X4451250Y2897499D01*
X4449583D01*
X4448750Y2896666D01*
Y2895833D01*
X4449583Y2895000D01*
X4450417D01*
X4449583D01*
X4448750Y2894167D01*
Y2893334D01*
X4449583Y2892501D01*
X4451250D01*
X4452083Y2893334D01*
X4447084Y2896666D02*
X4446251Y2897499D01*
X4444585D01*
X4443752Y2896666D01*
Y2893334D01*
X4444585Y2892501D01*
X4446251D01*
X4447084Y2893334D01*
Y2896666D01*
X4442086D02*
X4441253Y2897499D01*
X4439587D01*
X4438754Y2896666D01*
Y2895833D01*
X4439587Y2895000D01*
X4440420D01*
X4439587D01*
X4438754Y2894167D01*
Y2893334D01*
X4439587Y2892501D01*
X4441253D01*
X4442086Y2893334D01*
X4117081Y3211499D02*
X4120413D01*
Y3209000D01*
X4118747D01*
X4120413D01*
Y3206501D01*
X4115415Y3211499D02*
Y3206501D01*
X4112916D01*
X4112083Y3207334D01*
Y3208167D01*
X4112916Y3209000D01*
X4115415D01*
X4112916D01*
X4112083Y3209833D01*
Y3210666D01*
X4112916Y3211499D01*
X4115415D01*
X4110417Y3206501D02*
X4108750D01*
X4109583D01*
Y3211499D01*
X4110417Y3210666D01*
X4106251D02*
X4105418Y3211499D01*
X4103752D01*
X4102919Y3210666D01*
Y3207334D01*
X4103752Y3206501D01*
X4105418D01*
X4106251Y3207334D01*
Y3210666D01*
X4101253Y3206501D02*
X4099587D01*
X4100420D01*
Y3211499D01*
X4101253Y3210666D01*
X4296747Y2783499D02*
Y2778501D01*
X4294248D01*
X4293415Y2779334D01*
Y2782666D01*
X4294248Y2783499D01*
X4296747D01*
X4291749Y2778501D02*
X4290083D01*
X4290916D01*
Y2783499D01*
X4291749Y2782666D01*
X4287583D02*
X4286750Y2783499D01*
X4285084D01*
X4284251Y2782666D01*
Y2779334D01*
X4285084Y2778501D01*
X4286750D01*
X4287583Y2779334D01*
Y2782666D01*
X4282585D02*
X4281752Y2783499D01*
X4280086D01*
X4279253Y2782666D01*
Y2781833D01*
X4280086Y2781000D01*
X4279253Y2780167D01*
Y2779334D01*
X4280086Y2778501D01*
X4281752D01*
X4282585Y2779334D01*
Y2780167D01*
X4281752Y2781000D01*
X4282585Y2781833D01*
Y2782666D01*
X4281752Y2781000D02*
X4280086D01*
X3956247Y3004749D02*
Y2999751D01*
X3953748D01*
X3952915Y3000584D01*
Y3003916D01*
X3953748Y3004749D01*
X3956247D01*
X3951249Y2999751D02*
X3949583D01*
X3950416D01*
Y3004749D01*
X3951249Y3003916D01*
X3947083D02*
X3946250Y3004749D01*
X3944584D01*
X3943751Y3003916D01*
Y3000584D01*
X3944584Y2999751D01*
X3946250D01*
X3947083Y3000584D01*
Y3003916D01*
X3938753Y3004749D02*
X3940419Y3003916D01*
X3942085Y3002250D01*
Y3000584D01*
X3941252Y2999751D01*
X3939586D01*
X3938753Y3000584D01*
Y3001417D01*
X3939586Y3002250D01*
X3942085D01*
X4413081Y2927416D02*
X4413914Y2928249D01*
X4415581D01*
X4416414Y2927416D01*
Y2924084D01*
X4415581Y2923251D01*
X4413914D01*
X4413081Y2924084D01*
X4411415Y2927416D02*
X4410582Y2928249D01*
X4408916D01*
X4408083Y2927416D01*
Y2926583D01*
X4408916Y2925750D01*
X4409749D01*
X4408916D01*
X4408083Y2924917D01*
Y2924084D01*
X4408916Y2923251D01*
X4410582D01*
X4411415Y2924084D01*
X4406417Y2927416D02*
X4405584Y2928249D01*
X4403918D01*
X4403085Y2927416D01*
Y2924084D01*
X4403918Y2923251D01*
X4405584D01*
X4406417Y2924084D01*
Y2927416D01*
X4401418Y2928249D02*
X4398086D01*
Y2927416D01*
X4401418Y2924084D01*
Y2923251D01*
X4404832Y3005666D02*
X4405664Y3006499D01*
X4407331D01*
X4408163Y3005666D01*
Y3002334D01*
X4407331Y3001501D01*
X4405664D01*
X4404832Y3002334D01*
X4403165Y3005666D02*
X4402332Y3006499D01*
X4400666D01*
X4399833Y3005666D01*
Y3004833D01*
X4400666Y3004000D01*
X4401499D01*
X4400666D01*
X4399833Y3003167D01*
Y3002334D01*
X4400666Y3001501D01*
X4402332D01*
X4403165Y3002334D01*
X4398167Y3005666D02*
X4397334Y3006499D01*
X4395668D01*
X4394835Y3005666D01*
Y3002334D01*
X4395668Y3001501D01*
X4397334D01*
X4398167Y3002334D01*
Y3005666D01*
X4390669Y3001501D02*
Y3006499D01*
X4393169Y3004000D01*
X4389836D01*
X4438831Y3035666D02*
X4439665Y3036499D01*
X4441331D01*
X4442164Y3035666D01*
Y3032334D01*
X4441331Y3031501D01*
X4439665D01*
X4438831Y3032334D01*
X4437165Y3035666D02*
X4436332Y3036499D01*
X4434666D01*
X4433833Y3035666D01*
Y3034833D01*
X4434666Y3034000D01*
X4435499D01*
X4434666D01*
X4433833Y3033167D01*
Y3032334D01*
X4434666Y3031501D01*
X4436332D01*
X4437165Y3032334D01*
X4432167Y3035666D02*
X4431334Y3036499D01*
X4429668D01*
X4428835Y3035666D01*
Y3032334D01*
X4429668Y3031501D01*
X4431334D01*
X4432167Y3032334D01*
Y3035666D01*
X4427169D02*
X4426335Y3036499D01*
X4424669D01*
X4423836Y3035666D01*
Y3034833D01*
X4424669Y3034000D01*
X4425503D01*
X4424669D01*
X4423836Y3033167D01*
Y3032334D01*
X4424669Y3031501D01*
X4426335D01*
X4427169Y3032334D01*
X4368831Y2944666D02*
X4369665Y2945499D01*
X4371331D01*
X4372164Y2944666D01*
Y2941334D01*
X4371331Y2940501D01*
X4369665D01*
X4368831Y2941334D01*
X4367165Y2944666D02*
X4366332Y2945499D01*
X4364666D01*
X4363833Y2944666D01*
Y2943833D01*
X4364666Y2943000D01*
X4365499D01*
X4364666D01*
X4363833Y2942167D01*
Y2941334D01*
X4364666Y2940501D01*
X4366332D01*
X4367165Y2941334D01*
X4362167Y2944666D02*
X4361334Y2945499D01*
X4359668D01*
X4358835Y2944666D01*
Y2941334D01*
X4359668Y2940501D01*
X4361334D01*
X4362167Y2941334D01*
Y2944666D01*
X4353836Y2940501D02*
X4357169D01*
X4353836Y2943833D01*
Y2944666D01*
X4354669Y2945499D01*
X4356335D01*
X4357169Y2944666D01*
X3917581Y3135416D02*
X3918415Y3136249D01*
X3920081D01*
X3920914Y3135416D01*
Y3132084D01*
X3920081Y3131251D01*
X3918415D01*
X3917581Y3132084D01*
X3912583Y3131251D02*
X3915915D01*
X3912583Y3134583D01*
Y3135416D01*
X3913416Y3136249D01*
X3915082D01*
X3915915Y3135416D01*
X3907585Y3131251D02*
X3910917D01*
X3907585Y3134583D01*
Y3135416D01*
X3908418Y3136249D01*
X3910084D01*
X3910917Y3135416D01*
X3903419Y3131251D02*
Y3136249D01*
X3905919Y3133750D01*
X3902586D01*
X3870081Y3177916D02*
X3870915Y3178749D01*
X3872581D01*
X3873414Y3177916D01*
Y3174584D01*
X3872581Y3173751D01*
X3870915D01*
X3870081Y3174584D01*
X3865083Y3173751D02*
X3868415D01*
X3865083Y3177083D01*
Y3177916D01*
X3865916Y3178749D01*
X3867582D01*
X3868415Y3177916D01*
X3860085Y3173751D02*
X3863417D01*
X3860085Y3177083D01*
Y3177916D01*
X3860918Y3178749D01*
X3862584D01*
X3863417Y3177916D01*
X3858419D02*
X3857585Y3178749D01*
X3855919D01*
X3855086Y3177916D01*
Y3177083D01*
X3855919Y3176250D01*
X3856753D01*
X3855919D01*
X3855086Y3175417D01*
Y3174584D01*
X3855919Y3173751D01*
X3857585D01*
X3858419Y3174584D01*
X3933331Y3182166D02*
X3934164Y3182999D01*
X3935831D01*
X3936664Y3182166D01*
Y3178834D01*
X3935831Y3178001D01*
X3934164D01*
X3933331Y3178834D01*
X3928333Y3178001D02*
X3931665D01*
X3928333Y3181333D01*
Y3182166D01*
X3929166Y3182999D01*
X3930832D01*
X3931665Y3182166D01*
X3923335Y3178001D02*
X3926667D01*
X3923335Y3181333D01*
Y3182166D01*
X3924168Y3182999D01*
X3925834D01*
X3926667Y3182166D01*
X3918336Y3178001D02*
X3921669D01*
X3918336Y3181333D01*
Y3182166D01*
X3919169Y3182999D01*
X3920836D01*
X3921669Y3182166D01*
X3935748Y3168166D02*
X3936581Y3168999D01*
X3938247D01*
X3939081Y3168166D01*
Y3164834D01*
X3938247Y3164001D01*
X3936581D01*
X3935748Y3164834D01*
X3930750Y3164001D02*
X3934082D01*
X3930750Y3167333D01*
Y3168166D01*
X3931583Y3168999D01*
X3933249D01*
X3934082Y3168166D01*
X3925752Y3164001D02*
X3929084D01*
X3925752Y3167333D01*
Y3168166D01*
X3926585Y3168999D01*
X3928251D01*
X3929084Y3168166D01*
X3924085Y3164001D02*
X3922419D01*
X3923252D01*
Y3168999D01*
X3924085Y3168166D01*
X4253331Y3363916D02*
X4254164Y3364749D01*
X4255831D01*
X4256664Y3363916D01*
Y3360584D01*
X4255831Y3359751D01*
X4254164D01*
X4253331Y3360584D01*
X4248333Y3359751D02*
X4251665D01*
X4248333Y3363083D01*
Y3363916D01*
X4249166Y3364749D01*
X4250832D01*
X4251665Y3363916D01*
X4243335Y3359751D02*
X4246667D01*
X4243335Y3363083D01*
Y3363916D01*
X4244168Y3364749D01*
X4245834D01*
X4246667Y3363916D01*
X4241669D02*
X4240836Y3364749D01*
X4239169D01*
X4238336Y3363916D01*
Y3360584D01*
X4239169Y3359751D01*
X4240836D01*
X4241669Y3360584D01*
Y3363916D01*
X4244915Y3312916D02*
X4245748Y3313749D01*
X4247414D01*
X4248247Y3312916D01*
Y3309584D01*
X4247414Y3308751D01*
X4245748D01*
X4244915Y3309584D01*
X4239916Y3308751D02*
X4243249D01*
X4239916Y3312083D01*
Y3312916D01*
X4240750Y3313749D01*
X4242416D01*
X4243249Y3312916D01*
X4238250Y3308751D02*
X4236584D01*
X4237417D01*
Y3313749D01*
X4238250Y3312916D01*
X4234085Y3309584D02*
X4233252Y3308751D01*
X4231586D01*
X4230753Y3309584D01*
Y3312916D01*
X4231586Y3313749D01*
X4233252D01*
X4234085Y3312916D01*
Y3312083D01*
X4233252Y3311250D01*
X4230753D01*
X3942415Y3191916D02*
X3943248Y3192749D01*
X3944914D01*
X3945747Y3191916D01*
Y3188584D01*
X3944914Y3187751D01*
X3943248D01*
X3942415Y3188584D01*
X3937416Y3187751D02*
X3940749D01*
X3937416Y3191083D01*
Y3191916D01*
X3938250Y3192749D01*
X3939916D01*
X3940749Y3191916D01*
X3935750Y3187751D02*
X3934084D01*
X3934917D01*
Y3192749D01*
X3935750Y3191916D01*
X3931585D02*
X3930752Y3192749D01*
X3929086D01*
X3928253Y3191916D01*
Y3191083D01*
X3929086Y3190250D01*
X3928253Y3189417D01*
Y3188584D01*
X3929086Y3187751D01*
X3930752D01*
X3931585Y3188584D01*
Y3189417D01*
X3930752Y3190250D01*
X3931585Y3191083D01*
Y3191916D01*
X3930752Y3190250D02*
X3929086D01*
X3873165Y3223166D02*
X3873998Y3223999D01*
X3875664D01*
X3876497Y3223166D01*
Y3219834D01*
X3875664Y3219001D01*
X3873998D01*
X3873165Y3219834D01*
X3868167Y3219001D02*
X3871499D01*
X3868167Y3222333D01*
Y3223166D01*
X3869000Y3223999D01*
X3870666D01*
X3871499Y3223166D01*
X3866501Y3219001D02*
X3864834D01*
X3865667D01*
Y3223999D01*
X3866501Y3223166D01*
X3862335Y3223999D02*
X3859003D01*
Y3223166D01*
X3862335Y3219834D01*
Y3219001D01*
X3942665Y3208416D02*
X3943498Y3209249D01*
X3945164D01*
X3945997Y3208416D01*
Y3205084D01*
X3945164Y3204251D01*
X3943498D01*
X3942665Y3205084D01*
X3937667Y3204251D02*
X3940999D01*
X3937667Y3207583D01*
Y3208416D01*
X3938499Y3209249D01*
X3940166D01*
X3940999Y3208416D01*
X3936000Y3204251D02*
X3934334D01*
X3935168D01*
Y3209249D01*
X3936000Y3208416D01*
X3928503Y3209249D02*
X3930169Y3208416D01*
X3931835Y3206750D01*
Y3205084D01*
X3931002Y3204251D01*
X3929336D01*
X3928503Y3205084D01*
Y3205917D01*
X3929336Y3206750D01*
X3931835D01*
X3897415Y3233666D02*
X3898248Y3234499D01*
X3899914D01*
X3900747Y3233666D01*
Y3230334D01*
X3899914Y3229501D01*
X3898248D01*
X3897415Y3230334D01*
X3892416Y3229501D02*
X3895749D01*
X3892416Y3232833D01*
Y3233666D01*
X3893250Y3234499D01*
X3894916D01*
X3895749Y3233666D01*
X3890750Y3229501D02*
X3889084D01*
X3889917D01*
Y3234499D01*
X3890750Y3233666D01*
X3883253Y3234499D02*
X3886585D01*
Y3232000D01*
X3884919Y3232833D01*
X3884086D01*
X3883253Y3232000D01*
Y3230334D01*
X3884086Y3229501D01*
X3885752D01*
X3886585Y3230334D01*
X4100415Y3310666D02*
X4101248Y3311499D01*
X4102914D01*
X4103747Y3310666D01*
Y3307334D01*
X4102914Y3306501D01*
X4101248D01*
X4100415Y3307334D01*
X4095417Y3306501D02*
X4098749D01*
X4095417Y3309833D01*
Y3310666D01*
X4096250Y3311499D01*
X4097916D01*
X4098749Y3310666D01*
X4093750Y3306501D02*
X4092084D01*
X4092917D01*
Y3311499D01*
X4093750Y3310666D01*
X4089585D02*
X4088752Y3311499D01*
X4087086D01*
X4086253Y3310666D01*
Y3309833D01*
X4087086Y3309000D01*
X4087919D01*
X4087086D01*
X4086253Y3308167D01*
Y3307334D01*
X4087086Y3306501D01*
X4088752D01*
X4089585Y3307334D01*
X4055582Y3275666D02*
X4056415Y3276499D01*
X4058081D01*
X4058914Y3275666D01*
Y3272334D01*
X4058081Y3271501D01*
X4056415D01*
X4055582Y3272334D01*
X4050583Y3271501D02*
X4053916D01*
X4050583Y3274833D01*
Y3275666D01*
X4051417Y3276499D01*
X4053083D01*
X4053916Y3275666D01*
X4048918Y3271501D02*
X4047251D01*
X4048084D01*
Y3276499D01*
X4048918Y3275666D01*
X4044752Y3271501D02*
X4043086D01*
X4043919D01*
Y3276499D01*
X4044752Y3275666D01*
X4031415Y3285666D02*
X4032248Y3286499D01*
X4033914D01*
X4034747Y3285666D01*
Y3282334D01*
X4033914Y3281501D01*
X4032248D01*
X4031415Y3282334D01*
X4026417Y3281501D02*
X4029749D01*
X4026417Y3284833D01*
Y3285666D01*
X4027249Y3286499D01*
X4028916D01*
X4029749Y3285666D01*
X4024750Y3281501D02*
X4023084D01*
X4023918D01*
Y3286499D01*
X4024750Y3285666D01*
X4020585D02*
X4019752Y3286499D01*
X4018086D01*
X4017253Y3285666D01*
Y3282334D01*
X4018086Y3281501D01*
X4019752D01*
X4020585Y3282334D01*
Y3285666D01*
X4335581Y3317916D02*
X4336414Y3318749D01*
X4338081D01*
X4338914Y3317916D01*
Y3314584D01*
X4338081Y3313751D01*
X4336414D01*
X4335581Y3314584D01*
X4330583Y3313751D02*
X4333915D01*
X4330583Y3317083D01*
Y3317916D01*
X4331416Y3318749D01*
X4333082D01*
X4333915Y3317916D01*
X4328917D02*
X4328084Y3318749D01*
X4326418D01*
X4325585Y3317916D01*
Y3314584D01*
X4326418Y3313751D01*
X4328084D01*
X4328917Y3314584D01*
Y3317916D01*
X4323918Y3314584D02*
X4323086Y3313751D01*
X4321419D01*
X4320586Y3314584D01*
Y3317916D01*
X4321419Y3318749D01*
X4323086D01*
X4323918Y3317916D01*
Y3317083D01*
X4323086Y3316250D01*
X4320586D01*
X4379081Y3356916D02*
X4379915Y3357749D01*
X4381581D01*
X4382414Y3356916D01*
Y3353584D01*
X4381581Y3352751D01*
X4379915D01*
X4379081Y3353584D01*
X4374083Y3352751D02*
X4377415D01*
X4374083Y3356083D01*
Y3356916D01*
X4374916Y3357749D01*
X4376582D01*
X4377415Y3356916D01*
X4372417D02*
X4371584Y3357749D01*
X4369918D01*
X4369085Y3356916D01*
Y3353584D01*
X4369918Y3352751D01*
X4371584D01*
X4372417Y3353584D01*
Y3356916D01*
X4367419D02*
X4366585Y3357749D01*
X4364919D01*
X4364086Y3356916D01*
Y3356083D01*
X4364919Y3355250D01*
X4364086Y3354417D01*
Y3353584D01*
X4364919Y3352751D01*
X4366585D01*
X4367419Y3353584D01*
Y3354417D01*
X4366585Y3355250D01*
X4367419Y3356083D01*
Y3356916D01*
X4366585Y3355250D02*
X4364919D01*
X3997607Y3326912D02*
X3998441Y3327745D01*
X4000107D01*
X4000940Y3326912D01*
Y3323580D01*
X4000107Y3322747D01*
X3998441D01*
X3997607Y3323580D01*
X3992609Y3322747D02*
X3995941D01*
X3992609Y3326079D01*
Y3326912D01*
X3993442Y3327745D01*
X3995108D01*
X3995941Y3326912D01*
X3990943D02*
X3990110Y3327745D01*
X3988444D01*
X3987610Y3326912D01*
Y3323580D01*
X3988444Y3322747D01*
X3990110D01*
X3990943Y3323580D01*
Y3326912D01*
X3985945Y3327745D02*
X3982612D01*
Y3326912D01*
X3985945Y3323580D01*
Y3322747D01*
X3979581Y3243916D02*
X3980414Y3244749D01*
X3982081D01*
X3982914Y3243916D01*
Y3240584D01*
X3982081Y3239751D01*
X3980414D01*
X3979581Y3240584D01*
X3974583Y3239751D02*
X3977915D01*
X3974583Y3243083D01*
Y3243916D01*
X3975416Y3244749D01*
X3977082D01*
X3977915Y3243916D01*
X3972917D02*
X3972084Y3244749D01*
X3970418D01*
X3969585Y3243916D01*
Y3240584D01*
X3970418Y3239751D01*
X3972084D01*
X3972917Y3240584D01*
Y3243916D01*
X3965419Y3239751D02*
Y3244749D01*
X3967919Y3242250D01*
X3964586D01*
X3941581Y3255916D02*
X3942415Y3256749D01*
X3944081D01*
X3944914Y3255916D01*
Y3252584D01*
X3944081Y3251751D01*
X3942415D01*
X3941581Y3252584D01*
X3936583Y3251751D02*
X3939915D01*
X3936583Y3255083D01*
Y3255916D01*
X3937416Y3256749D01*
X3939082D01*
X3939915Y3255916D01*
X3934917D02*
X3934084Y3256749D01*
X3932418D01*
X3931585Y3255916D01*
Y3252584D01*
X3932418Y3251751D01*
X3934084D01*
X3934917Y3252584D01*
Y3255916D01*
X3929919D02*
X3929085Y3256749D01*
X3927419D01*
X3926586Y3255916D01*
Y3255083D01*
X3927419Y3254250D01*
X3928252D01*
X3927419D01*
X3926586Y3253417D01*
Y3252584D01*
X3927419Y3251751D01*
X3929085D01*
X3929919Y3252584D01*
X4335081Y3339916D02*
X4335915Y3340749D01*
X4337581D01*
X4338414Y3339916D01*
Y3336584D01*
X4337581Y3335751D01*
X4335915D01*
X4335081Y3336584D01*
X4330083Y3335751D02*
X4333415D01*
X4330083Y3339083D01*
Y3339916D01*
X4330916Y3340749D01*
X4332582D01*
X4333415Y3339916D01*
X4328417D02*
X4327584Y3340749D01*
X4325918D01*
X4325085Y3339916D01*
Y3336584D01*
X4325918Y3335751D01*
X4327584D01*
X4328417Y3336584D01*
Y3339916D01*
X4320086Y3335751D02*
X4323419D01*
X4320086Y3339083D01*
Y3339916D01*
X4320919Y3340749D01*
X4322585D01*
X4323419Y3339916D01*
X4403498Y3357166D02*
X4404331Y3357999D01*
X4405998D01*
X4406831Y3357166D01*
Y3353834D01*
X4405998Y3353001D01*
X4404331D01*
X4403498Y3353834D01*
X4398500Y3353001D02*
X4401832D01*
X4398500Y3356333D01*
Y3357166D01*
X4399333Y3357999D01*
X4400999D01*
X4401832Y3357166D01*
X4396834D02*
X4396001Y3357999D01*
X4394335D01*
X4393502Y3357166D01*
Y3353834D01*
X4394335Y3353001D01*
X4396001D01*
X4396834Y3353834D01*
Y3357166D01*
X4391836Y3353001D02*
X4390169D01*
X4391003D01*
Y3357999D01*
X4391836Y3357166D01*
X4391165Y2729166D02*
X4391998Y2729999D01*
X4393664D01*
X4394497Y2729166D01*
Y2725834D01*
X4393664Y2725001D01*
X4391998D01*
X4391165Y2725834D01*
X4389499Y2725001D02*
X4387833D01*
X4388666D01*
Y2729999D01*
X4389499Y2729166D01*
X4382001Y2725001D02*
X4385334D01*
X4382001Y2728333D01*
Y2729166D01*
X4382834Y2729999D01*
X4384500D01*
X4385334Y2729166D01*
X4377003Y2729999D02*
X4380335D01*
Y2727500D01*
X4378669Y2728333D01*
X4377836D01*
X4377003Y2727500D01*
Y2725834D01*
X4377836Y2725001D01*
X4379502D01*
X4380335Y2725834D01*
X4534812Y2899969D02*
X4535645Y2900802D01*
X4537311D01*
X4538145Y2899969D01*
Y2896636D01*
X4537311Y2895804D01*
X4535645D01*
X4534812Y2896636D01*
X4533146Y2895804D02*
X4531480D01*
X4532313D01*
Y2900802D01*
X4533146Y2899969D01*
X4525648Y2895804D02*
X4528981D01*
X4525648Y2899136D01*
Y2899969D01*
X4526482Y2900802D01*
X4528148D01*
X4528981Y2899969D01*
X4521483Y2895804D02*
Y2900802D01*
X4523983Y2898303D01*
X4520650D01*
X4540165Y2981916D02*
X4540998Y2982749D01*
X4542664D01*
X4543497Y2981916D01*
Y2978584D01*
X4542664Y2977751D01*
X4540998D01*
X4540165Y2978584D01*
X4538499Y2977751D02*
X4536833D01*
X4537666D01*
Y2982749D01*
X4538499Y2981916D01*
X4531001Y2977751D02*
X4534333D01*
X4531001Y2981083D01*
Y2981916D01*
X4531834Y2982749D01*
X4533500D01*
X4534333Y2981916D01*
X4529335D02*
X4528502Y2982749D01*
X4526836D01*
X4526003Y2981916D01*
Y2981083D01*
X4526836Y2980250D01*
X4527669D01*
X4526836D01*
X4526003Y2979417D01*
Y2978584D01*
X4526836Y2977751D01*
X4528502D01*
X4529335Y2978584D01*
X3968915Y2972166D02*
X3969748Y2972999D01*
X3971414D01*
X3972247Y2972166D01*
Y2968834D01*
X3971414Y2968001D01*
X3969748D01*
X3968915Y2968834D01*
X3967249Y2968001D02*
X3965583D01*
X3966416D01*
Y2972999D01*
X3967249Y2972166D01*
X3959751Y2968001D02*
X3963083D01*
X3959751Y2971333D01*
Y2972166D01*
X3960584Y2972999D01*
X3962250D01*
X3963083Y2972166D01*
X3954753Y2968001D02*
X3958085D01*
X3954753Y2971333D01*
Y2972166D01*
X3955586Y2972999D01*
X3957252D01*
X3958085Y2972166D01*
X4268882Y2744666D02*
X4269715Y2745499D01*
X4271381D01*
X4272214Y2744666D01*
Y2741334D01*
X4271381Y2740501D01*
X4269715D01*
X4268882Y2741334D01*
X4267216Y2740501D02*
X4265550D01*
X4266383D01*
Y2745499D01*
X4267216Y2744666D01*
X4259718Y2740501D02*
X4263051D01*
X4259718Y2743833D01*
Y2744666D01*
X4260551Y2745499D01*
X4262217D01*
X4263051Y2744666D01*
X4258052Y2740501D02*
X4256386D01*
X4257219D01*
Y2745499D01*
X4258052Y2744666D01*
X4250165Y2759166D02*
X4250998Y2759999D01*
X4252664D01*
X4253497Y2759166D01*
Y2755834D01*
X4252664Y2755001D01*
X4250998D01*
X4250165Y2755834D01*
X4248499Y2755001D02*
X4246833D01*
X4247666D01*
Y2759999D01*
X4248499Y2759166D01*
X4241001Y2755001D02*
X4244333D01*
X4241001Y2758333D01*
Y2759166D01*
X4241834Y2759999D01*
X4243500D01*
X4244333Y2759166D01*
X4239335D02*
X4238502Y2759999D01*
X4236836D01*
X4236003Y2759166D01*
Y2755834D01*
X4236836Y2755001D01*
X4238502D01*
X4239335Y2755834D01*
Y2759166D01*
X4252998Y2771666D02*
X4253831Y2772499D01*
X4255497D01*
X4256331Y2771666D01*
Y2768334D01*
X4255497Y2767501D01*
X4253831D01*
X4252998Y2768334D01*
X4251332Y2767501D02*
X4249666D01*
X4250499D01*
Y2772499D01*
X4251332Y2771666D01*
X4247167Y2767501D02*
X4245501D01*
X4246334D01*
Y2772499D01*
X4247167Y2771666D01*
X4243002Y2768334D02*
X4242169Y2767501D01*
X4240502D01*
X4239669Y2768334D01*
Y2771666D01*
X4240502Y2772499D01*
X4242169D01*
X4243002Y2771666D01*
Y2770833D01*
X4242169Y2770000D01*
X4239669D01*
X4312998Y2794666D02*
X4313831Y2795499D01*
X4315497D01*
X4316331Y2794666D01*
Y2791334D01*
X4315497Y2790501D01*
X4313831D01*
X4312998Y2791334D01*
X4311332Y2790501D02*
X4309666D01*
X4310499D01*
Y2795499D01*
X4311332Y2794666D01*
X4307167Y2790501D02*
X4305501D01*
X4306334D01*
Y2795499D01*
X4307167Y2794666D01*
X4303002D02*
X4302169Y2795499D01*
X4300502D01*
X4299669Y2794666D01*
Y2793833D01*
X4300502Y2793000D01*
X4299669Y2792167D01*
Y2791334D01*
X4300502Y2790501D01*
X4302169D01*
X4303002Y2791334D01*
Y2792167D01*
X4302169Y2793000D01*
X4303002Y2793833D01*
Y2794666D01*
X4302169Y2793000D02*
X4300502D01*
X4260998Y2803666D02*
X4261831Y2804499D01*
X4263498D01*
X4264331Y2803666D01*
Y2800334D01*
X4263498Y2799501D01*
X4261831D01*
X4260998Y2800334D01*
X4259332Y2799501D02*
X4257666D01*
X4258499D01*
Y2804499D01*
X4259332Y2803666D01*
X4255167Y2799501D02*
X4253501D01*
X4254334D01*
Y2804499D01*
X4255167Y2803666D01*
X4251002Y2804499D02*
X4247669D01*
Y2803666D01*
X4251002Y2800334D01*
Y2799501D01*
X4078499Y2754916D02*
X4079331Y2755749D01*
X4080998D01*
X4081831Y2754916D01*
Y2751584D01*
X4080998Y2750751D01*
X4079331D01*
X4078499Y2751584D01*
X4076832Y2750751D02*
X4075166D01*
X4075999D01*
Y2755749D01*
X4076832Y2754916D01*
X4072667Y2750751D02*
X4071001D01*
X4071834D01*
Y2755749D01*
X4072667Y2754916D01*
X4065169Y2755749D02*
X4066836Y2754916D01*
X4068502Y2753250D01*
Y2751584D01*
X4067668Y2750751D01*
X4066003D01*
X4065169Y2751584D01*
Y2752417D01*
X4066003Y2753250D01*
X4068502D01*
X3923248Y3091166D02*
X3924081Y3091999D01*
X3925747D01*
X3926581Y3091166D01*
Y3087834D01*
X3925747Y3087001D01*
X3924081D01*
X3923248Y3087834D01*
X3921582Y3087001D02*
X3919916D01*
X3920749D01*
Y3091999D01*
X3921582Y3091166D01*
X3917417Y3087001D02*
X3915751D01*
X3916584D01*
Y3091999D01*
X3917417Y3091166D01*
X3909919Y3091999D02*
X3913252D01*
Y3089500D01*
X3911585Y3090333D01*
X3910752D01*
X3909919Y3089500D01*
Y3087834D01*
X3910752Y3087001D01*
X3912419D01*
X3913252Y3087834D01*
X4214498Y3233666D02*
X4215331Y3234499D01*
X4216997D01*
X4217831Y3233666D01*
Y3230334D01*
X4216997Y3229501D01*
X4215331D01*
X4214498Y3230334D01*
X4212832Y3229501D02*
X4211166D01*
X4211999D01*
Y3234499D01*
X4212832Y3233666D01*
X4208667Y3229501D02*
X4207001D01*
X4207834D01*
Y3234499D01*
X4208667Y3233666D01*
X4202002Y3229501D02*
Y3234499D01*
X4204502Y3232000D01*
X4201169D01*
X4214749Y3271666D02*
X4215581Y3272499D01*
X4217248D01*
X4218081Y3271666D01*
Y3268334D01*
X4217248Y3267501D01*
X4215581D01*
X4214749Y3268334D01*
X4213082Y3267501D02*
X4211416D01*
X4212249D01*
Y3272499D01*
X4213082Y3271666D01*
X4208917Y3267501D02*
X4207251D01*
X4208084D01*
Y3272499D01*
X4208917Y3271666D01*
X4204752D02*
X4203918Y3272499D01*
X4202253D01*
X4201419Y3271666D01*
Y3270833D01*
X4202253Y3270000D01*
X4203086D01*
X4202253D01*
X4201419Y3269167D01*
Y3268334D01*
X4202253Y3267501D01*
X4203918D01*
X4204752Y3268334D01*
X4002998Y2763666D02*
X4003831Y2764499D01*
X4005498D01*
X4006331Y2763666D01*
Y2760334D01*
X4005498Y2759501D01*
X4003831D01*
X4002998Y2760334D01*
X4001332Y2759501D02*
X3999666D01*
X4000499D01*
Y2764499D01*
X4001332Y2763666D01*
X3997167Y2759501D02*
X3995501D01*
X3996334D01*
Y2764499D01*
X3997167Y2763666D01*
X3989669Y2759501D02*
X3993002D01*
X3989669Y2762833D01*
Y2763666D01*
X3990502Y2764499D01*
X3992169D01*
X3993002Y2763666D01*
X3984165Y3059166D02*
X3984998Y3059999D01*
X3986664D01*
X3987497Y3059166D01*
Y3055834D01*
X3986664Y3055001D01*
X3984998D01*
X3984165Y3055834D01*
X3982499Y3055001D02*
X3980833D01*
X3981666D01*
Y3059999D01*
X3982499Y3059166D01*
X3978333D02*
X3977500Y3059999D01*
X3975834D01*
X3975001Y3059166D01*
Y3055834D01*
X3975834Y3055001D01*
X3977500D01*
X3978333Y3055834D01*
Y3059166D01*
X3973335Y3055834D02*
X3972502Y3055001D01*
X3970836D01*
X3970003Y3055834D01*
Y3059166D01*
X3970836Y3059999D01*
X3972502D01*
X3973335Y3059166D01*
Y3058333D01*
X3972502Y3057500D01*
X3970003D01*
X3919665Y2884416D02*
X3920498Y2885249D01*
X3922164D01*
X3922997Y2884416D01*
Y2881084D01*
X3922164Y2880251D01*
X3920498D01*
X3919665Y2881084D01*
X3917999Y2880251D02*
X3916333D01*
X3917166D01*
Y2885249D01*
X3917999Y2884416D01*
X3913834D02*
X3913000Y2885249D01*
X3911334D01*
X3910501Y2884416D01*
Y2881084D01*
X3911334Y2880251D01*
X3913000D01*
X3913834Y2881084D01*
Y2884416D01*
X3908835D02*
X3908002Y2885249D01*
X3906336D01*
X3905503Y2884416D01*
Y2883583D01*
X3906336Y2882750D01*
X3905503Y2881917D01*
Y2881084D01*
X3906336Y2880251D01*
X3908002D01*
X3908835Y2881084D01*
Y2881917D01*
X3908002Y2882750D01*
X3908835Y2883583D01*
Y2884416D01*
X3908002Y2882750D02*
X3906336D01*
X3950665Y3026916D02*
X3951498Y3027749D01*
X3953164D01*
X3953997Y3026916D01*
Y3023584D01*
X3953164Y3022751D01*
X3951498D01*
X3950665Y3023584D01*
X3948999Y3022751D02*
X3947333D01*
X3948166D01*
Y3027749D01*
X3948999Y3026916D01*
X3944833D02*
X3944001Y3027749D01*
X3942334D01*
X3941501Y3026916D01*
Y3023584D01*
X3942334Y3022751D01*
X3944001D01*
X3944833Y3023584D01*
Y3026916D01*
X3939835Y3027749D02*
X3936503D01*
Y3026916D01*
X3939835Y3023584D01*
Y3022751D01*
X3923915Y3022916D02*
X3924748Y3023749D01*
X3926414D01*
X3927247Y3022916D01*
Y3019584D01*
X3926414Y3018751D01*
X3924748D01*
X3923915Y3019584D01*
X3922249Y3018751D02*
X3920583D01*
X3921416D01*
Y3023749D01*
X3922249Y3022916D01*
X3918083D02*
X3917250Y3023749D01*
X3915584D01*
X3914751Y3022916D01*
Y3019584D01*
X3915584Y3018751D01*
X3917250D01*
X3918083Y3019584D01*
Y3022916D01*
X3909753Y3023749D02*
X3911419Y3022916D01*
X3913085Y3021250D01*
Y3019584D01*
X3912252Y3018751D01*
X3910586D01*
X3909753Y3019584D01*
Y3020417D01*
X3910586Y3021250D01*
X3913085D01*
X3933415Y3047916D02*
X3934248Y3048749D01*
X3935914D01*
X3936747Y3047916D01*
Y3044584D01*
X3935914Y3043751D01*
X3934248D01*
X3933415Y3044584D01*
X3931749Y3043751D02*
X3930083D01*
X3930916D01*
Y3048749D01*
X3931749Y3047916D01*
X3927584D02*
X3926750Y3048749D01*
X3925084D01*
X3924251Y3047916D01*
Y3044584D01*
X3925084Y3043751D01*
X3926750D01*
X3927584Y3044584D01*
Y3047916D01*
X3919253Y3048749D02*
X3922585D01*
Y3046250D01*
X3920919Y3047083D01*
X3920086D01*
X3919253Y3046250D01*
Y3044584D01*
X3920086Y3043751D01*
X3921752D01*
X3922585Y3044584D01*
X3958165Y3056916D02*
X3958998Y3057749D01*
X3960664D01*
X3961497Y3056916D01*
Y3053584D01*
X3960664Y3052751D01*
X3958998D01*
X3958165Y3053584D01*
X3956499Y3052751D02*
X3954833D01*
X3955666D01*
Y3057749D01*
X3956499Y3056916D01*
X3952333D02*
X3951501Y3057749D01*
X3949834D01*
X3949001Y3056916D01*
Y3053584D01*
X3949834Y3052751D01*
X3951501D01*
X3952333Y3053584D01*
Y3056916D01*
X3944836Y3052751D02*
Y3057749D01*
X3947335Y3055250D01*
X3944003D01*
X3919915Y2986916D02*
X3920748Y2987749D01*
X3922414D01*
X3923247Y2986916D01*
Y2983584D01*
X3922414Y2982751D01*
X3920748D01*
X3919915Y2983584D01*
X3918249Y2982751D02*
X3916583D01*
X3917416D01*
Y2987749D01*
X3918249Y2986916D01*
X3914084D02*
X3913250Y2987749D01*
X3911584D01*
X3910751Y2986916D01*
Y2983584D01*
X3911584Y2982751D01*
X3913250D01*
X3914084Y2983584D01*
Y2986916D01*
X3905753Y2982751D02*
X3909085D01*
X3905753Y2986083D01*
Y2986916D01*
X3906586Y2987749D01*
X3908252D01*
X3909085Y2986916D01*
X4394081Y3120416D02*
X4394915Y3121249D01*
X4396581D01*
X4397414Y3120416D01*
Y3117084D01*
X4396581Y3116251D01*
X4394915D01*
X4394081Y3117084D01*
X4389916Y3116251D02*
Y3121249D01*
X4392415Y3118750D01*
X4389083D01*
X4387417Y3120416D02*
X4386584Y3121249D01*
X4384918D01*
X4384085Y3120416D01*
Y3117084D01*
X4384918Y3116251D01*
X4386584D01*
X4387417Y3117084D01*
Y3120416D01*
X4379086Y3121249D02*
X4380753Y3120416D01*
X4382419Y3118750D01*
Y3117084D01*
X4381585Y3116251D01*
X4379919D01*
X4379086Y3117084D01*
Y3117917D01*
X4379919Y3118750D01*
X4382419D01*
X4345164Y3103501D02*
Y3108499D01*
X4342664D01*
X4341831Y3107666D01*
Y3106000D01*
X4342664Y3105167D01*
X4345164D01*
X4343498D02*
X4341831Y3103501D01*
X4337666D02*
Y3108499D01*
X4340165Y3106000D01*
X4336833D01*
X4335167Y3107666D02*
X4334334Y3108499D01*
X4332668D01*
X4331835Y3107666D01*
Y3104334D01*
X4332668Y3103501D01*
X4334334D01*
X4335167Y3104334D01*
Y3107666D01*
X4326836Y3108499D02*
X4328503Y3107666D01*
X4330168Y3106000D01*
Y3104334D01*
X4329336Y3103501D01*
X4327669D01*
X4326836Y3104334D01*
Y3105167D01*
X4327669Y3106000D01*
X4330168D01*
X4370644Y3089213D02*
Y3094211D01*
X4368145D01*
X4367311Y3093378D01*
Y3091712D01*
X4368145Y3090879D01*
X4370644D01*
X4368978D02*
X4367311Y3089213D01*
X4363146D02*
Y3094211D01*
X4365645Y3091712D01*
X4362313D01*
X4360647Y3093378D02*
X4359814Y3094211D01*
X4358148D01*
X4357315Y3093378D01*
Y3090046D01*
X4358148Y3089213D01*
X4359814D01*
X4360647Y3090046D01*
Y3093378D01*
X4352316Y3094211D02*
X4355648D01*
Y3091712D01*
X4353983Y3092545D01*
X4353149D01*
X4352316Y3091712D01*
Y3090046D01*
X4353149Y3089213D01*
X4354815D01*
X4355648Y3090046D01*
X4408163Y3087501D02*
Y3092499D01*
X4405664D01*
X4404832Y3091666D01*
Y3090000D01*
X4405664Y3089167D01*
X4408163D01*
X4406497D02*
X4404832Y3087501D01*
X4400666D02*
Y3092499D01*
X4403165Y3090000D01*
X4399833D01*
X4398167Y3091666D02*
X4397334Y3092499D01*
X4395668D01*
X4394835Y3091666D01*
Y3088334D01*
X4395668Y3087501D01*
X4397334D01*
X4398167Y3088334D01*
Y3091666D01*
X4390669Y3087501D02*
Y3092499D01*
X4393169Y3090000D01*
X4389836D01*
X4411164Y3199501D02*
Y3204499D01*
X4408665D01*
X4407831Y3203666D01*
Y3202000D01*
X4408665Y3201167D01*
X4411164D01*
X4409498D02*
X4407831Y3199501D01*
X4403666D02*
Y3204499D01*
X4406165Y3202000D01*
X4402833D01*
X4401167Y3203666D02*
X4400334Y3204499D01*
X4398668D01*
X4397835Y3203666D01*
Y3200334D01*
X4398668Y3199501D01*
X4400334D01*
X4401167Y3200334D01*
Y3203666D01*
X4396169D02*
X4395335Y3204499D01*
X4393669D01*
X4392836Y3203666D01*
Y3202833D01*
X4393669Y3202000D01*
X4394503D01*
X4393669D01*
X4392836Y3201167D01*
Y3200334D01*
X4393669Y3199501D01*
X4395335D01*
X4396169Y3200334D01*
X4380164Y3202876D02*
Y3207874D01*
X4377664D01*
X4376831Y3207041D01*
Y3205375D01*
X4377664Y3204542D01*
X4380164D01*
X4378498D02*
X4376831Y3202876D01*
X4372666D02*
Y3207874D01*
X4375165Y3205375D01*
X4371833D01*
X4370167Y3207041D02*
X4369334Y3207874D01*
X4367668D01*
X4366835Y3207041D01*
Y3203709D01*
X4367668Y3202876D01*
X4369334D01*
X4370167Y3203709D01*
Y3207041D01*
X4361837Y3202876D02*
X4365168D01*
X4361837Y3206208D01*
Y3207041D01*
X4362669Y3207874D01*
X4364336D01*
X4365168Y3207041D01*
X4345331Y3194751D02*
Y3199749D01*
X4342831D01*
X4341998Y3198916D01*
Y3197250D01*
X4342831Y3196417D01*
X4345331D01*
X4343665D02*
X4341998Y3194751D01*
X4337833D02*
Y3199749D01*
X4340332Y3197250D01*
X4337000D01*
X4335334Y3198916D02*
X4334501Y3199749D01*
X4332835D01*
X4332002Y3198916D01*
Y3195584D01*
X4332835Y3194751D01*
X4334501D01*
X4335334Y3195584D01*
Y3198916D01*
X4330335Y3194751D02*
X4328669D01*
X4329502D01*
Y3199749D01*
X4330335Y3198916D01*
X4372581Y3125666D02*
X4373415Y3126499D01*
X4375081D01*
X4375914Y3125666D01*
Y3122334D01*
X4375081Y3121501D01*
X4373415D01*
X4372581Y3122334D01*
X4368416Y3121501D02*
Y3126499D01*
X4370915Y3124000D01*
X4367583D01*
X4365917Y3125666D02*
X4365084Y3126499D01*
X4363418D01*
X4362585Y3125666D01*
Y3122334D01*
X4363418Y3121501D01*
X4365084D01*
X4365917Y3122334D01*
Y3125666D01*
X4360919Y3126499D02*
X4357586D01*
Y3125666D01*
X4360919Y3122334D01*
Y3121501D01*
X4416581Y3125416D02*
X4417415Y3126249D01*
X4419081D01*
X4419914Y3125416D01*
Y3122084D01*
X4419081Y3121251D01*
X4417415D01*
X4416581Y3122084D01*
X4412416Y3121251D02*
Y3126249D01*
X4414915Y3123750D01*
X4411583D01*
X4409917Y3125416D02*
X4409084Y3126249D01*
X4407418D01*
X4406585Y3125416D01*
Y3122084D01*
X4407418Y3121251D01*
X4409084D01*
X4409917Y3122084D01*
Y3125416D01*
X4401586Y3126249D02*
X4404919D01*
Y3123750D01*
X4403253Y3124583D01*
X4402419D01*
X4401586Y3123750D01*
Y3122084D01*
X4402419Y3121251D01*
X4404085D01*
X4404919Y3122084D01*
X4411331Y3160916D02*
X4412165Y3161749D01*
X4413831D01*
X4414664Y3160916D01*
Y3157584D01*
X4413831Y3156751D01*
X4412165D01*
X4411331Y3157584D01*
X4407166Y3156751D02*
Y3161749D01*
X4409665Y3159250D01*
X4406333D01*
X4404667Y3160916D02*
X4403834Y3161749D01*
X4402168D01*
X4401335Y3160916D01*
Y3157584D01*
X4402168Y3156751D01*
X4403834D01*
X4404667Y3157584D01*
Y3160916D01*
X4397169Y3156751D02*
Y3161749D01*
X4399669Y3159250D01*
X4396336D01*
X4341831Y3165666D02*
X4342664Y3166499D01*
X4344331D01*
X4345164Y3165666D01*
Y3162334D01*
X4344331Y3161501D01*
X4342664D01*
X4341831Y3162334D01*
X4337666Y3161501D02*
Y3166499D01*
X4340165Y3164000D01*
X4336833D01*
X4335167Y3165666D02*
X4334334Y3166499D01*
X4332668D01*
X4331835Y3165666D01*
Y3162334D01*
X4332668Y3161501D01*
X4334334D01*
X4335167Y3162334D01*
Y3165666D01*
X4330168D02*
X4329336Y3166499D01*
X4327669D01*
X4326836Y3165666D01*
Y3164833D01*
X4327669Y3164000D01*
X4328503D01*
X4327669D01*
X4326836Y3163167D01*
Y3162334D01*
X4327669Y3161501D01*
X4329336D01*
X4330168Y3162334D01*
X4338831Y3143916D02*
X4339665Y3144749D01*
X4341331D01*
X4342164Y3143916D01*
Y3140584D01*
X4341331Y3139751D01*
X4339665D01*
X4338831Y3140584D01*
X4334666Y3139751D02*
Y3144749D01*
X4337165Y3142250D01*
X4333833D01*
X4332167Y3143916D02*
X4331334Y3144749D01*
X4329668D01*
X4328835Y3143916D01*
Y3140584D01*
X4329668Y3139751D01*
X4331334D01*
X4332167Y3140584D01*
Y3143916D01*
X4323836Y3139751D02*
X4327169D01*
X4323836Y3143083D01*
Y3143916D01*
X4324669Y3144749D01*
X4326335D01*
X4327169Y3143916D01*
X3862915Y3034666D02*
X3863748Y3035499D01*
X3865414D01*
X3866248Y3034666D01*
Y3031334D01*
X3865414Y3030501D01*
X3863748D01*
X3862915Y3031334D01*
X3861249Y3030501D02*
X3859583D01*
X3860416D01*
Y3035499D01*
X3861249Y3034666D01*
X3857084Y3030501D02*
X3855418D01*
X3856251D01*
Y3035499D01*
X3857084Y3034666D01*
X3852918Y3030501D02*
X3851252D01*
X3852086D01*
Y3035499D01*
X3852918Y3034666D01*
X3863998Y3075666D02*
X3864832Y3076499D01*
X3866497D01*
X3867331Y3075666D01*
Y3072334D01*
X3866497Y3071501D01*
X3864832D01*
X3863998Y3072334D01*
X3862332Y3071501D02*
X3860666D01*
X3861499D01*
Y3076499D01*
X3862332Y3075666D01*
X3858167Y3071501D02*
X3856501D01*
X3857334D01*
Y3076499D01*
X3858167Y3075666D01*
X3854001D02*
X3853169Y3076499D01*
X3851502D01*
X3850669Y3075666D01*
Y3072334D01*
X3851502Y3071501D01*
X3853169D01*
X3854001Y3072334D01*
Y3075666D01*
D11*
X4028174Y3179754D02*
X4029174D01*
X4028174Y3191254D02*
X4029174D01*
X4389000Y2769300D02*
Y2786000D01*
X4381000Y2774000D02*
Y2786000D01*
X4022800Y2676000D02*
X4039500D01*
X4027500Y2684000D02*
X4039500D01*
X3985300Y2700000D02*
X4002000D01*
X3990000Y2708000D02*
X4002000D01*
X4007300Y2688000D02*
X4024000D01*
X4012000Y2696000D02*
X4024000D01*
X3832750Y3205500D02*
Y3206500D01*
X3821250Y3205500D02*
Y3206500D01*
X4470500Y2972000D02*
Y2986000D01*
X4440000Y2989500D02*
X4470000D01*
X4440000D02*
Y3012500D01*
X4470000D01*
Y2989500D02*
Y3012500D01*
X4109000Y3195000D02*
Y3201000D01*
X4107424Y3276004D02*
Y3283004D01*
X4081924Y3276004D02*
Y3283004D01*
X3925174Y3293254D02*
X3926174D01*
X3925174Y3281754D02*
X3926174D01*
X3905080Y2728060D02*
Y2739810D01*
X3894920Y2732190D02*
Y2740190D01*
X4070500Y2719250D02*
X4077500D01*
X4070500Y2744750D02*
X4077500D01*
X4282920Y2764190D02*
Y2772190D01*
X4293080Y2760060D02*
Y2771810D01*
X4034250Y2775500D02*
Y2786500D01*
X4049750Y2775500D02*
Y2786500D01*
X3951080Y2982415D02*
Y2990415D01*
X3940920Y2982795D02*
Y2994545D01*
X3799250Y3098500D02*
Y3099500D01*
X3810750Y3098500D02*
Y3099500D01*
X4453500Y3249250D02*
X4454500D01*
X4453500Y3260750D02*
X4454500D01*
X4453500Y3228250D02*
X4454500D01*
X4453500Y3239750D02*
X4454500D01*
X4435750Y2848500D02*
Y2862500D01*
X4405250Y2866000D02*
X4435250D01*
X4405250D02*
Y2889000D01*
X4435250D01*
Y2866000D02*
Y2889000D01*
X4240500Y3257250D02*
X4247500D01*
X4240500Y3282750D02*
X4247500D01*
X4241250Y3224250D02*
X4248250D01*
X4241250Y3249750D02*
X4248250D01*
M02*
