G04*
G04 #@! TF.GenerationSoftware,Altium Limited,Altium Designer,23.1.1 (15)*
G04*
G04 Layer_Color=255*
%FSLAX44Y44*%
%MOMM*%
G71*
G04*
G04 #@! TF.SameCoordinates,6EFD8887-9970-4281-88DB-E4BF4750D848*
G04*
G04*
G04 #@! TF.FilePolarity,Positive*
G04*
G01*
G75*
%ADD18R,1.3500X2.7500*%
%ADD19R,0.4200X0.6400*%
%ADD21R,0.4000X0.5500*%
%ADD25R,0.5500X0.4000*%
%ADD27R,0.9500X1.3500*%
%ADD29R,0.5500X0.4500*%
%ADD30R,0.6200X0.6600*%
%ADD31R,1.0000X1.0000*%
%ADD32R,0.6800X0.6400*%
%ADD41R,0.6400X0.6800*%
%ADD94C,1.6500*%
%ADD95R,1.6500X1.6500*%
G04:AMPARAMS|DCode=96|XSize=1mm|YSize=1mm|CornerRadius=0.25mm|HoleSize=0mm|Usage=FLASHONLY|Rotation=120.000|XOffset=0mm|YOffset=0mm|HoleType=Round|Shape=RoundedRectangle|*
%AMROUNDEDRECTD96*
21,1,1.0000,0.5000,0,0,120.0*
21,1,0.5000,1.0000,0,0,120.0*
1,1,0.5000,0.0915,0.3415*
1,1,0.5000,0.3415,-0.0915*
1,1,0.5000,-0.0915,-0.3415*
1,1,0.5000,-0.3415,0.0915*
%
%ADD96ROUNDEDRECTD96*%
%ADD97C,1.1000*%
%ADD98C,3.0000*%
%ADD99C,1.8000*%
%ADD100C,2.0000*%
%ADD101C,1.5500*%
%ADD107R,0.6600X0.6200*%
%ADD108R,0.6400X0.4200*%
%ADD109R,1.3500X0.9500*%
%ADD110R,0.4500X1.4000*%
%ADD111R,0.6500X0.7000*%
%ADD112R,2.7500X1.3500*%
%ADD113R,1.1000X1.4000*%
%ADD114R,0.9000X1.4000*%
%ADD115R,0.4200X0.5000*%
%ADD116R,1.7500X1.1000*%
%ADD117R,1.1000X1.0000*%
D18*
X4059750Y2732000D02*
D03*
X4088250D02*
D03*
X4229750Y3270000D02*
D03*
X4258250D02*
D03*
X4230500Y3237000D02*
D03*
X4259000D02*
D03*
D19*
X4385000Y2787500D02*
D03*
Y2772500D02*
D03*
D21*
X4382500Y3195375D02*
D03*
X4372000D02*
D03*
X3886674Y3152504D02*
D03*
X3897174D02*
D03*
X3886674Y3162504D02*
D03*
X3897174D02*
D03*
X3915750Y2840000D02*
D03*
X3926250D02*
D03*
X4352625Y2981375D02*
D03*
X4363125D02*
D03*
X3993250Y2735000D02*
D03*
X3982750D02*
D03*
X3967250Y2704400D02*
D03*
X3956750D02*
D03*
X4167750Y3169000D02*
D03*
X4178250D02*
D03*
X4210500Y3170000D02*
D03*
X4221000D02*
D03*
X3968750Y2679000D02*
D03*
X3979250D02*
D03*
X3956750Y2691400D02*
D03*
X3967250D02*
D03*
X3956750Y2716400D02*
D03*
X3967250D02*
D03*
X3976750Y2717000D02*
D03*
X3987250D02*
D03*
X3956750Y2729400D02*
D03*
X3967250D02*
D03*
X3908750Y3253000D02*
D03*
X3919250D02*
D03*
X3916924Y3273504D02*
D03*
X3906424D02*
D03*
X3995250Y2691000D02*
D03*
X3984750D02*
D03*
X3933250Y2669000D02*
D03*
X3922750D02*
D03*
X3898674Y3247504D02*
D03*
X3888174D02*
D03*
X4362125Y2993375D02*
D03*
X4351625D02*
D03*
Y2970375D02*
D03*
X4362125D02*
D03*
X4360250Y3108250D02*
D03*
X4370750D02*
D03*
D25*
X4385000Y3045250D02*
D03*
Y3034750D02*
D03*
X4362000Y3039750D02*
D03*
Y3050250D02*
D03*
X4338000Y3128500D02*
D03*
Y3118000D02*
D03*
X4323000Y3256750D02*
D03*
Y3267250D02*
D03*
X4044000Y2726250D02*
D03*
Y2715750D02*
D03*
X4015000Y2742250D02*
D03*
Y2731750D02*
D03*
X4075000Y2695500D02*
D03*
Y2706000D02*
D03*
X3934000Y3069250D02*
D03*
Y3058750D02*
D03*
X3878000Y2926750D02*
D03*
Y2937250D02*
D03*
X3807000Y2943250D02*
D03*
Y2932750D02*
D03*
X3970000Y2992250D02*
D03*
Y2981750D02*
D03*
X3955000Y3264750D02*
D03*
Y3275250D02*
D03*
X4342164Y3187250D02*
D03*
Y3176750D02*
D03*
X4382000Y3092000D02*
D03*
Y3102500D02*
D03*
X4337875Y2974625D02*
D03*
Y2964125D02*
D03*
X4444000Y2850250D02*
D03*
Y2860750D02*
D03*
X3934000Y2992250D02*
D03*
Y2981750D02*
D03*
X4398000Y3177500D02*
D03*
Y3188000D02*
D03*
D27*
X4019424Y3185504D02*
D03*
X4037924D02*
D03*
X3934924Y3287504D02*
D03*
X3916424D02*
D03*
X4444750Y3255000D02*
D03*
X4463250D02*
D03*
X4444750Y3234000D02*
D03*
X4463250D02*
D03*
D29*
X4351000Y2822000D02*
D03*
Y2812000D02*
D03*
X4348000Y2769000D02*
D03*
Y2759000D02*
D03*
X4435000Y2809000D02*
D03*
Y2799000D02*
D03*
X4408000Y2805000D02*
D03*
Y2795000D02*
D03*
X4428000Y2750000D02*
D03*
Y2740000D02*
D03*
D30*
X4454000Y2762600D02*
D03*
Y2754000D02*
D03*
D31*
X4121000Y2684000D02*
D03*
Y2702000D02*
D03*
D32*
X3932700Y3156000D02*
D03*
X3941300D02*
D03*
X3986700Y3313000D02*
D03*
X3896974Y3174504D02*
D03*
X3888374D02*
D03*
X4353700Y3159000D02*
D03*
X4362300D02*
D03*
X4395550Y2977150D02*
D03*
X4404150D02*
D03*
X4412300Y2727000D02*
D03*
X4403700D02*
D03*
X3915300Y2871000D02*
D03*
X3906700D02*
D03*
X3854700Y3044000D02*
D03*
X3863300D02*
D03*
Y3063000D02*
D03*
X3854700D02*
D03*
X4021674Y3272504D02*
D03*
X4030274D02*
D03*
X4008700Y2773000D02*
D03*
X4017300D02*
D03*
X3934700Y3269000D02*
D03*
X3943300D02*
D03*
X3953700Y3254000D02*
D03*
X3962300D02*
D03*
X4387300Y3159000D02*
D03*
X4378700D02*
D03*
X3888674Y3220504D02*
D03*
X3897274D02*
D03*
X3995300Y3313000D02*
D03*
X3907374Y3148504D02*
D03*
X3915974D02*
D03*
X4251300Y3351000D02*
D03*
X4242700D02*
D03*
X4273000Y2756000D02*
D03*
X4264400D02*
D03*
X4273300Y2770000D02*
D03*
X4264700D02*
D03*
X4412300Y2914500D02*
D03*
X4403700D02*
D03*
X4390700Y3344000D02*
D03*
X4399300D02*
D03*
X4378300D02*
D03*
X4369700D02*
D03*
X3910700Y3078000D02*
D03*
X3919300D02*
D03*
X4280700Y2744000D02*
D03*
X4289300D02*
D03*
X3969700Y3068000D02*
D03*
X3978300D02*
D03*
X3942700Y3014000D02*
D03*
X3951300D02*
D03*
X3924300Y3010000D02*
D03*
X3915700D02*
D03*
X3946700Y3044000D02*
D03*
X3955300D02*
D03*
D41*
X3892524Y3206654D02*
D03*
Y3198054D02*
D03*
X4534000Y2991700D02*
D03*
Y3000300D02*
D03*
X4446000Y3053600D02*
D03*
Y3045000D02*
D03*
X4524648Y2871753D02*
D03*
Y2880352D02*
D03*
X3910000Y3172300D02*
D03*
Y3163700D02*
D03*
X4046674Y3253204D02*
D03*
Y3261804D02*
D03*
X3958000Y2982700D02*
D03*
Y2991300D02*
D03*
X4351000Y3146000D02*
D03*
Y3137400D02*
D03*
X4374000Y3134700D02*
D03*
Y3143300D02*
D03*
X4385000Y3134700D02*
D03*
Y3143300D02*
D03*
X4396000Y3134700D02*
D03*
Y3143300D02*
D03*
X3954674Y3213804D02*
D03*
Y3205204D02*
D03*
Y3188804D02*
D03*
Y3180204D02*
D03*
X4240000Y3331300D02*
D03*
Y3322700D02*
D03*
X4265000Y2790000D02*
D03*
Y2781400D02*
D03*
X4306000Y2773000D02*
D03*
Y2781600D02*
D03*
X4357000Y3332400D02*
D03*
Y3341000D02*
D03*
Y3313400D02*
D03*
Y3322000D02*
D03*
X3918000Y2971300D02*
D03*
Y2962700D02*
D03*
X3911000Y3055300D02*
D03*
Y3046700D02*
D03*
D94*
X4246600Y2894400D02*
D03*
Y2869000D02*
D03*
X4221200Y2894400D02*
D03*
Y2869000D02*
D03*
X4195800Y2894400D02*
D03*
Y2869000D02*
D03*
X4170400Y2894400D02*
D03*
Y2869000D02*
D03*
X4145000Y2894400D02*
D03*
Y2869000D02*
D03*
X4119600Y2894400D02*
D03*
Y2869000D02*
D03*
X4094200Y2894400D02*
D03*
Y2869000D02*
D03*
X4068800Y2894400D02*
D03*
D95*
Y2869000D02*
D03*
D96*
X3864588Y2740072D02*
D03*
D97*
X3845000Y2738000D02*
D03*
X3856588Y2753928D02*
D03*
X3837000Y2751856D02*
D03*
X3848588Y2767785D02*
D03*
D98*
X3867044Y2717818D02*
D03*
X3830544Y2781038D02*
D03*
D99*
X4142894Y3348723D02*
D03*
X4173000Y3349000D02*
D03*
X4534000Y3079000D02*
D03*
X4528936Y3103890D02*
D03*
X4523872Y3128780D02*
D03*
X4518808Y3153670D02*
D03*
X4513744Y3178560D02*
D03*
X4507763Y3207958D02*
D03*
X4501383Y3239316D02*
D03*
X3780000Y3075000D02*
D03*
X3785151Y3099872D02*
D03*
X3790302Y3124745D02*
D03*
X3795452Y3149617D02*
D03*
X3800603Y3174489D02*
D03*
X3806236Y3203955D02*
D03*
X3812616Y3235313D02*
D03*
X4224500Y2666000D02*
D03*
X4199100D02*
D03*
X4173700D02*
D03*
X4148300D02*
D03*
X4122900D02*
D03*
X4078900D02*
D03*
X4046400D02*
D03*
X4492566Y2820063D02*
D03*
X4498710Y2844709D02*
D03*
X4504855Y2869355D02*
D03*
X4511000Y2894000D02*
D03*
Y3037000D02*
D03*
Y3011600D02*
D03*
Y2986200D02*
D03*
Y2960800D02*
D03*
X4182400Y2731000D02*
D03*
X4157000D02*
D03*
X4131600D02*
D03*
X4328400Y2683000D02*
D03*
X4303000D02*
D03*
X4277600D02*
D03*
X4422569Y2786807D02*
D03*
X4408000Y2766000D02*
D03*
X4393431Y2745193D02*
D03*
D100*
X3824500Y3287000D02*
D03*
X4009000Y2667000D02*
D03*
X4452894Y3307722D02*
D03*
D101*
X3864890Y2874064D02*
D03*
X3840000Y2869000D02*
D03*
X3859826Y2898954D02*
D03*
X3834936Y2893890D02*
D03*
X3854762Y2923844D02*
D03*
X3829872Y2918780D02*
D03*
X3849698Y2948734D02*
D03*
X3824808Y2943670D02*
D03*
X3844634Y2973624D02*
D03*
X3819744Y2968560D02*
D03*
D107*
X3972847Y3145000D02*
D03*
X3964247D02*
D03*
X4269700Y3039000D02*
D03*
X4278300D02*
D03*
D108*
X4041000Y2680000D02*
D03*
X4026000D02*
D03*
X4003500Y2704000D02*
D03*
X3988500D02*
D03*
X4025500Y2692000D02*
D03*
X4010500D02*
D03*
D109*
X3827000Y3215250D02*
D03*
Y3196750D02*
D03*
X3805000Y3108250D02*
D03*
Y3089750D02*
D03*
D110*
X4464750Y3023000D02*
D03*
X4458250D02*
D03*
X4451750D02*
D03*
X4445250D02*
D03*
Y2979000D02*
D03*
X4451750D02*
D03*
X4458250D02*
D03*
X4464750D02*
D03*
X4430000Y2899500D02*
D03*
X4423500D02*
D03*
X4417000D02*
D03*
X4410500D02*
D03*
Y2855500D02*
D03*
X4417000D02*
D03*
X4423500D02*
D03*
X4430000D02*
D03*
D111*
X4102250Y3198000D02*
D03*
X4115750D02*
D03*
D112*
X4094674Y3265254D02*
D03*
Y3293754D02*
D03*
D113*
X3936500Y2782000D02*
D03*
D114*
X3919500D02*
D03*
Y2804000D02*
D03*
X3938500D02*
D03*
D115*
X3900000Y2730750D02*
D03*
Y2741250D02*
D03*
X4288000Y2773250D02*
D03*
Y2762750D02*
D03*
X3946000Y2981355D02*
D03*
Y2991855D02*
D03*
D116*
X4042000Y2795750D02*
D03*
Y2766250D02*
D03*
D117*
X4371375Y2955375D02*
D03*
X4356875D02*
D03*
M02*
