G04*
G04 #@! TF.GenerationSoftware,Altium Limited,Altium Designer,23.1.1 (15)*
G04*
G04 Layer_Color=255*
%FSLAX44Y44*%
%MOMM*%
G71*
G04*
G04 #@! TF.SameCoordinates,6EFD8887-9970-4281-88DB-E4BF4750D848*
G04*
G04*
G04 #@! TF.FilePolarity,Positive*
G04*
G01*
G75*
%ADD15R,1.4750X0.4500*%
%ADD16R,1.4750X0.3000*%
%ADD17R,3.6100X7.1100*%
%ADD18R,1.3500X2.7500*%
%ADD19R,0.4200X0.6400*%
%ADD20R,0.4500X1.4750*%
%ADD21R,0.4000X0.5500*%
%ADD22R,1.1500X1.4000*%
%ADD23R,0.3000X1.4750*%
%ADD24R,1.7000X1.0000*%
%ADD25R,0.5500X0.4000*%
%ADD26R,1.0000X1.1000*%
%ADD27R,0.9500X1.3500*%
%ADD28R,0.9500X0.9500*%
%ADD29R,0.5500X0.4500*%
%ADD30R,0.6200X0.6600*%
%ADD31R,1.0000X1.0000*%
%ADD32R,0.6800X0.6400*%
%ADD33R,0.4500X0.5500*%
%ADD34R,1.3000X3.2500*%
%ADD35R,1.3000X0.9500*%
%ADD36R,0.9500X0.9500*%
%ADD37R,5.1000X2.9500*%
%ADD38R,1.6000X2.8000*%
%ADD39R,1.2400X1.1200*%
%ADD40R,1.5250X0.6500*%
%ADD41R,0.6400X0.6800*%
%ADD42R,3.0000X3.0000*%
%ADD43R,1.2000X0.6000*%
G04:AMPARAMS|DCode=83|XSize=0.8mm|YSize=2.5mm|CornerRadius=0.2mm|HoleSize=0mm|Usage=FLASHONLY|Rotation=90.000|XOffset=0mm|YOffset=0mm|HoleType=Round|Shape=RoundedRectangle|*
%AMROUNDEDRECTD83*
21,1,0.8000,2.1000,0,0,90.0*
21,1,0.4000,2.5000,0,0,90.0*
1,1,0.4000,1.0500,0.2000*
1,1,0.4000,1.0500,-0.2000*
1,1,0.4000,-1.0500,-0.2000*
1,1,0.4000,-1.0500,0.2000*
%
%ADD83ROUNDEDRECTD83*%
%ADD84R,1.5000X1.0000*%
%ADD85R,1.0000X1.5000*%
%ADD94C,1.6500*%
%ADD95R,1.6500X1.6500*%
G04:AMPARAMS|DCode=96|XSize=1mm|YSize=1mm|CornerRadius=0.25mm|HoleSize=0mm|Usage=FLASHONLY|Rotation=120.000|XOffset=0mm|YOffset=0mm|HoleType=Round|Shape=RoundedRectangle|*
%AMROUNDEDRECTD96*
21,1,1.0000,0.5000,0,0,120.0*
21,1,0.5000,1.0000,0,0,120.0*
1,1,0.5000,0.0915,0.3415*
1,1,0.5000,0.3415,-0.0915*
1,1,0.5000,-0.0915,-0.3415*
1,1,0.5000,-0.3415,0.0915*
%
%ADD96ROUNDEDRECTD96*%
%ADD97C,1.1000*%
%ADD98C,3.0000*%
%ADD99C,1.8000*%
%ADD100C,2.0000*%
%ADD101C,1.5500*%
D15*
X4306380Y2790750D02*
D03*
Y2784250D02*
D03*
Y2777750D02*
D03*
Y2771250D02*
D03*
Y2764750D02*
D03*
Y2758250D02*
D03*
Y2751750D02*
D03*
Y2745250D02*
D03*
X4247620D02*
D03*
Y2751750D02*
D03*
Y2758250D02*
D03*
Y2764750D02*
D03*
Y2771250D02*
D03*
Y2777750D02*
D03*
Y2784250D02*
D03*
Y2790750D02*
D03*
X4397255Y2993875D02*
D03*
Y2987375D02*
D03*
Y2980875D02*
D03*
Y2974375D02*
D03*
Y2967875D02*
D03*
Y2961375D02*
D03*
Y2954875D02*
D03*
X4338495D02*
D03*
Y2961375D02*
D03*
Y2967875D02*
D03*
Y2974375D02*
D03*
Y2980875D02*
D03*
Y2987375D02*
D03*
Y2993875D02*
D03*
X4413380Y3344750D02*
D03*
Y3338250D02*
D03*
Y3331750D02*
D03*
Y3325250D02*
D03*
Y3318750D02*
D03*
Y3312250D02*
D03*
Y3305750D02*
D03*
Y3299250D02*
D03*
X4354620D02*
D03*
Y3305750D02*
D03*
Y3312250D02*
D03*
Y3318750D02*
D03*
Y3325250D02*
D03*
Y3331750D02*
D03*
Y3338250D02*
D03*
Y3344750D02*
D03*
D16*
X3892787Y3280000D02*
D03*
Y3275000D02*
D03*
Y3270000D02*
D03*
Y3265000D02*
D03*
Y3260000D02*
D03*
Y3255000D02*
D03*
Y3250000D02*
D03*
Y3245000D02*
D03*
Y3240000D02*
D03*
Y3235000D02*
D03*
Y3230000D02*
D03*
Y3225000D02*
D03*
Y3220000D02*
D03*
Y3215000D02*
D03*
Y3210000D02*
D03*
Y3205000D02*
D03*
Y3200000D02*
D03*
Y3195000D02*
D03*
Y3190000D02*
D03*
Y3185000D02*
D03*
Y3180000D02*
D03*
Y3175000D02*
D03*
Y3170000D02*
D03*
Y3165000D02*
D03*
Y3160000D02*
D03*
Y3155000D02*
D03*
Y3150000D02*
D03*
Y3145000D02*
D03*
X3968547Y3150000D02*
D03*
Y3155000D02*
D03*
Y3160000D02*
D03*
Y3165000D02*
D03*
Y3170000D02*
D03*
Y3175000D02*
D03*
Y3180000D02*
D03*
Y3185000D02*
D03*
Y3190000D02*
D03*
Y3195000D02*
D03*
Y3200000D02*
D03*
Y3205000D02*
D03*
Y3210000D02*
D03*
Y3215000D02*
D03*
Y3220000D02*
D03*
Y3225000D02*
D03*
Y3230000D02*
D03*
Y3235000D02*
D03*
Y3240000D02*
D03*
Y3245000D02*
D03*
Y3250000D02*
D03*
Y3255000D02*
D03*
Y3260000D02*
D03*
Y3275000D02*
D03*
Y3280000D02*
D03*
Y3145000D02*
D03*
Y3265000D02*
D03*
Y3270000D02*
D03*
X4008380Y3072500D02*
D03*
Y3067500D02*
D03*
Y3062500D02*
D03*
Y3057500D02*
D03*
Y3052500D02*
D03*
Y3047500D02*
D03*
Y3042500D02*
D03*
Y3037500D02*
D03*
Y3032500D02*
D03*
Y3027500D02*
D03*
Y3022500D02*
D03*
Y3017500D02*
D03*
Y3012500D02*
D03*
Y3007500D02*
D03*
Y3002500D02*
D03*
Y2997500D02*
D03*
X3893620D02*
D03*
Y3002500D02*
D03*
Y3007500D02*
D03*
Y3012500D02*
D03*
Y3017500D02*
D03*
Y3022500D02*
D03*
Y3027500D02*
D03*
Y3032500D02*
D03*
Y3037500D02*
D03*
Y3042500D02*
D03*
Y3047500D02*
D03*
Y3052500D02*
D03*
Y3057500D02*
D03*
Y3062500D02*
D03*
Y3067500D02*
D03*
Y3072500D02*
D03*
D17*
X3930667Y3212500D02*
D03*
D18*
X3967924Y3304504D02*
D03*
X3939424D02*
D03*
X3940000Y3339000D02*
D03*
X3968500D02*
D03*
D19*
X3986000Y2681500D02*
D03*
Y2666500D02*
D03*
X3989000Y2743500D02*
D03*
Y2728500D02*
D03*
D20*
X4389662Y3181880D02*
D03*
X4383162D02*
D03*
X4389662Y3123120D02*
D03*
X4383162D02*
D03*
X4363662Y3181880D02*
D03*
X4376662D02*
D03*
X4370162D02*
D03*
X4357162D02*
D03*
X4350662D02*
D03*
X4363662Y3123120D02*
D03*
X4357162D02*
D03*
X4376662D02*
D03*
X4370162D02*
D03*
X4350662D02*
D03*
D21*
X4382250Y3195938D02*
D03*
X4371750D02*
D03*
X4028750Y3058000D02*
D03*
X4039250D02*
D03*
X3953750Y2665000D02*
D03*
X3964250D02*
D03*
X4360250Y3108250D02*
D03*
X4370750D02*
D03*
X4402750Y2914500D02*
D03*
X4413250D02*
D03*
D22*
X3867000Y3065000D02*
D03*
Y3043000D02*
D03*
X3851000D02*
D03*
Y3065000D02*
D03*
D23*
X3913500Y3092380D02*
D03*
X3918500D02*
D03*
X3923500D02*
D03*
X3928500D02*
D03*
X3933500D02*
D03*
X3938500D02*
D03*
X3943500D02*
D03*
X3948500D02*
D03*
X3953500D02*
D03*
X3958500D02*
D03*
X3963500D02*
D03*
X3968500D02*
D03*
X3973500D02*
D03*
X3978500D02*
D03*
X3983500D02*
D03*
X3988500D02*
D03*
Y2977620D02*
D03*
X3983500D02*
D03*
X3978500D02*
D03*
X3973500D02*
D03*
X3968500D02*
D03*
X3963500D02*
D03*
X3958500D02*
D03*
X3953500D02*
D03*
X3948500D02*
D03*
X3943500D02*
D03*
X3938500D02*
D03*
X3933500D02*
D03*
X3928500D02*
D03*
X3923500D02*
D03*
X3918500D02*
D03*
X3913500D02*
D03*
D24*
X4180500Y2774000D02*
D03*
X4117500D02*
D03*
X4180500Y2812000D02*
D03*
X4117500D02*
D03*
X3877500Y2805000D02*
D03*
X3940500D02*
D03*
X3877500Y2767000D02*
D03*
X3940500D02*
D03*
D25*
X4362000Y3050250D02*
D03*
Y3039750D02*
D03*
X4385000Y3045250D02*
D03*
Y3034750D02*
D03*
X4307000Y2923250D02*
D03*
Y2912750D02*
D03*
X4308000Y2902250D02*
D03*
Y2891750D02*
D03*
X4368000Y2809250D02*
D03*
Y2798750D02*
D03*
X4382000Y3102500D02*
D03*
Y3092000D02*
D03*
X4447000Y3023250D02*
D03*
Y3012750D02*
D03*
Y3002250D02*
D03*
Y2991750D02*
D03*
X4342164Y3177000D02*
D03*
Y3187500D02*
D03*
X4398000Y3177500D02*
D03*
Y3188000D02*
D03*
X4338000Y3128500D02*
D03*
Y3118000D02*
D03*
D26*
X4374000Y3048000D02*
D03*
Y3033500D02*
D03*
D27*
X4019424Y3185504D02*
D03*
X4037924D02*
D03*
D28*
X4323000Y3269500D02*
D03*
Y3254500D02*
D03*
X4015000Y2744500D02*
D03*
Y2729500D02*
D03*
X4043000Y2713500D02*
D03*
Y2728500D02*
D03*
X4351000Y2822500D02*
D03*
Y2807500D02*
D03*
X4348000Y2756500D02*
D03*
Y2771500D02*
D03*
D29*
X4444000Y2937000D02*
D03*
Y2947000D02*
D03*
X4455000Y2937000D02*
D03*
Y2947000D02*
D03*
D30*
X4433000Y2946300D02*
D03*
Y2937700D02*
D03*
D31*
X4062000Y2702000D02*
D03*
Y2684000D02*
D03*
X4077000Y3154000D02*
D03*
Y3172000D02*
D03*
D32*
X3916700Y2840000D02*
D03*
X3925300D02*
D03*
X4412700Y2895500D02*
D03*
X4421300D02*
D03*
D33*
X4029500Y3078500D02*
D03*
X4039500D02*
D03*
D34*
X4274500Y3328000D02*
D03*
X4274000Y3251000D02*
D03*
D35*
X4207500Y3305100D02*
D03*
Y3328000D02*
D03*
Y3350900D02*
D03*
X4207000Y3273900D02*
D03*
Y3251000D02*
D03*
Y3228100D02*
D03*
D36*
X4180500Y3169000D02*
D03*
X4165500D02*
D03*
X4208500Y3170000D02*
D03*
X4223500D02*
D03*
D37*
X4045674Y3298254D02*
D03*
Y3252754D02*
D03*
D38*
X4107674Y3271004D02*
D03*
Y3314004D02*
D03*
D39*
X4120000Y3242000D02*
D03*
X4090000D02*
D03*
D40*
X4045120Y2799050D02*
D03*
Y2786350D02*
D03*
Y2773650D02*
D03*
Y2760950D02*
D03*
X3990880D02*
D03*
Y2773650D02*
D03*
Y2786350D02*
D03*
Y2799050D02*
D03*
D41*
X3985000Y3227700D02*
D03*
Y3236300D02*
D03*
X3992674Y3158204D02*
D03*
Y3166804D02*
D03*
X4459000Y3035300D02*
D03*
Y3026700D02*
D03*
X4028750Y3160200D02*
D03*
Y3168800D02*
D03*
X4075000Y2696200D02*
D03*
Y2704800D02*
D03*
X4407164Y3146700D02*
D03*
Y3155300D02*
D03*
D42*
X4384000Y3322000D02*
D03*
D43*
X4096500Y3182500D02*
D03*
Y3173000D02*
D03*
Y3163500D02*
D03*
X4121500D02*
D03*
Y3182500D02*
D03*
D83*
X4435000Y3179400D02*
D03*
Y3103200D02*
D03*
Y3115900D02*
D03*
Y3128600D02*
D03*
Y3141300D02*
D03*
Y3154000D02*
D03*
Y3166700D02*
D03*
Y3192100D02*
D03*
X3963000Y2678600D02*
D03*
Y2691300D02*
D03*
Y2704000D02*
D03*
Y2716700D02*
D03*
Y2729400D02*
D03*
Y2742100D02*
D03*
X4287000Y3014900D02*
D03*
Y3027600D02*
D03*
Y3040300D02*
D03*
Y3053000D02*
D03*
Y3065700D02*
D03*
Y3078400D02*
D03*
D84*
X4068000Y2763500D02*
D03*
Y2776000D02*
D03*
X4463000Y2988500D02*
D03*
X4463000Y3013500D02*
D03*
Y3001000D02*
D03*
D85*
X4408000Y2879500D02*
D03*
X4433000Y2879500D02*
D03*
X4420500D02*
D03*
D94*
X4246600Y2894400D02*
D03*
Y2869000D02*
D03*
X4221200Y2894400D02*
D03*
Y2869000D02*
D03*
X4195800Y2894400D02*
D03*
Y2869000D02*
D03*
X4170400Y2894400D02*
D03*
Y2869000D02*
D03*
X4145000Y2894400D02*
D03*
Y2869000D02*
D03*
X4119600Y2894400D02*
D03*
Y2869000D02*
D03*
X4094200Y2894400D02*
D03*
Y2869000D02*
D03*
X4068800Y2894400D02*
D03*
D95*
Y2869000D02*
D03*
D96*
X3864588Y2740072D02*
D03*
D97*
X3845000Y2738000D02*
D03*
X3856588Y2753928D02*
D03*
X3837000Y2751856D02*
D03*
X3848588Y2767785D02*
D03*
D98*
X3867044Y2717818D02*
D03*
X3830544Y2781038D02*
D03*
D99*
X4142894Y3348723D02*
D03*
X4173000Y3349000D02*
D03*
X4534000Y3079000D02*
D03*
X4528936Y3103890D02*
D03*
X4523872Y3128780D02*
D03*
X4518808Y3153670D02*
D03*
X4513744Y3178560D02*
D03*
X4507763Y3207958D02*
D03*
X4501383Y3239316D02*
D03*
X3780000Y3075000D02*
D03*
X3785151Y3099872D02*
D03*
X3790302Y3124745D02*
D03*
X3795452Y3149617D02*
D03*
X3800603Y3174489D02*
D03*
X3806236Y3203955D02*
D03*
X3812616Y3235313D02*
D03*
X4224500Y2666000D02*
D03*
X4199100D02*
D03*
X4173700D02*
D03*
X4148300D02*
D03*
X4122900D02*
D03*
X4078900D02*
D03*
X4046400D02*
D03*
X4492566Y2820063D02*
D03*
X4498710Y2844709D02*
D03*
X4504855Y2869355D02*
D03*
X4511000Y2894000D02*
D03*
Y3037000D02*
D03*
Y3011600D02*
D03*
Y2986200D02*
D03*
Y2960800D02*
D03*
X4182400Y2731000D02*
D03*
X4157000D02*
D03*
X4131600D02*
D03*
X4328400Y2683000D02*
D03*
X4303000D02*
D03*
X4277600D02*
D03*
X4422569Y2786807D02*
D03*
X4408000Y2766000D02*
D03*
X4393431Y2745193D02*
D03*
D100*
X3824500Y3287000D02*
D03*
X4009000Y2667000D02*
D03*
X4452894Y3307722D02*
D03*
D101*
X3864890Y2874064D02*
D03*
X3840000Y2869000D02*
D03*
X3859826Y2898954D02*
D03*
X3834936Y2893890D02*
D03*
X3854762Y2923844D02*
D03*
X3829872Y2918780D02*
D03*
X3849698Y2948734D02*
D03*
X3824808Y2943670D02*
D03*
X3844634Y2973624D02*
D03*
X3819744Y2968560D02*
D03*
M02*
