G04*
G04 #@! TF.GenerationSoftware,Altium Limited,Altium Designer,23.1.1 (15)*
G04*
G04 Layer_Color=32768*
%FSLAX44Y44*%
%MOMM*%
G71*
G04*
G04 #@! TF.SameCoordinates,6EFD8887-9970-4281-88DB-E4BF4750D848*
G04*
G04*
G04 #@! TF.FilePolarity,Positive*
G04*
G01*
G75*
%ADD10C,0.1000*%
%ADD13C,0.0500*%
%ADD14C,0.1500*%
D10*
X3937000Y3153000D02*
Y3159000D01*
X3934000Y3156000D02*
X3940000D01*
X4028674Y3180504D02*
Y3190504D01*
X4023674Y3185504D02*
X4033674D01*
X3792497Y2787939D02*
X3853997Y2681418D01*
X3792497Y2787939D02*
X3843592Y2817439D01*
X3905092Y2710918D01*
X3853997Y2681418D02*
X3905092Y2710918D01*
X3953674Y3299504D02*
Y3309504D01*
X3948674Y3304504D02*
X3958674D01*
X3822000Y3206000D02*
X3832000D01*
X3827000Y3201000D02*
Y3211000D01*
X4374500Y3195375D02*
X4380000D01*
X4377250Y3192625D02*
Y3198125D01*
X4374250Y3195938D02*
X4379750D01*
X4377000Y3193188D02*
Y3198688D01*
X4094674Y3274504D02*
Y3284504D01*
X4089674Y3279504D02*
X4099674D01*
X3843000Y3074000D02*
X3875000D01*
X3843000Y3034000D02*
Y3074000D01*
Y3034000D02*
X3875000D01*
Y3074000D01*
X4031250Y3058000D02*
X4036750D01*
X4034000Y3055250D02*
Y3060750D01*
X4107250Y2765250D02*
Y2820750D01*
Y2765250D02*
X4191000D01*
Y2820750D01*
X4107250D02*
X4191000D01*
X4359250Y3045000D02*
X4364750D01*
X4362000Y3042250D02*
Y3047750D01*
X4385000Y3042750D02*
X4385000Y3037250D01*
X4382250Y3040000D02*
X4387750Y3040000D01*
X4369250Y3040750D02*
X4378750D01*
X4374000Y3036000D02*
Y3045500D01*
X4028674Y3180504D02*
Y3190504D01*
X4023674Y3185504D02*
X4033674D01*
X4444000Y2939250D02*
Y2944750D01*
X4441250Y2942000D02*
X4446750D01*
X4430250D02*
X4435750D01*
X4433000Y2939250D02*
Y2944750D01*
X4452250Y2942000D02*
X4457750D01*
X4455000Y2939250D02*
Y2944750D01*
X4304250Y2918000D02*
X4309750D01*
X4307000Y2915250D02*
Y2920750D01*
X4305250Y2897000D02*
X4310750D01*
X4308000Y2894250D02*
Y2899750D01*
X3921000Y2837000D02*
Y2843000D01*
X3918000Y2840000D02*
X3924000D01*
X4034500Y3075750D02*
Y3081250D01*
X4031750Y3078500D02*
X4037250D01*
X3965797Y3145000D02*
X3971297D01*
X3968547Y3142250D02*
Y3147750D01*
X3889174Y3152504D02*
X3894674D01*
X3891924Y3149754D02*
Y3155254D01*
X3889174Y3162504D02*
X3894674D01*
X3891924Y3159754D02*
Y3165254D01*
X3889674Y3174504D02*
X3895674D01*
X3892674Y3171504D02*
Y3177504D01*
X3892524Y3199354D02*
Y3205354D01*
X3889524Y3202354D02*
X3895524D01*
X3925674Y3282504D02*
Y3292504D01*
X3920674Y3287504D02*
X3930674D01*
X3918250Y2840000D02*
X3923750D01*
X3921000Y2837250D02*
Y2842750D01*
X3904400Y2821000D02*
X3953600D01*
X3904400Y2759000D02*
Y2821000D01*
Y2759000D02*
X3953600D01*
Y2821000D01*
X4534000Y2993000D02*
Y2999000D01*
X4531000Y2996000D02*
X4537000D01*
X4385000Y3037250D02*
Y3042750D01*
X4382250Y3040000D02*
X4387750D01*
X4362000Y3042250D02*
Y3047750D01*
X4359250Y3045000D02*
X4364750D01*
X4355000Y3159000D02*
X4361000D01*
X4358000Y3156000D02*
Y3162000D01*
X4271250Y3039000D02*
X4276750D01*
X4274000Y3036250D02*
Y3041750D01*
X4338000Y3120500D02*
Y3126000D01*
X4335250Y3123250D02*
X4340750D01*
X4357875Y2978625D02*
Y2984125D01*
X4355125Y2981375D02*
X4360625D01*
X3867250Y2813750D02*
X3951000D01*
Y2758250D02*
Y2813750D01*
X3867250Y2758250D02*
X3951000D01*
X3867250D02*
Y2813750D01*
X4399850Y2974150D02*
Y2980150D01*
X4396850Y2977150D02*
X4402850D01*
X4443000Y3049300D02*
X4449000D01*
X4446000Y3046300D02*
Y3052300D01*
X4074000Y2727000D02*
Y2737000D01*
X4069000Y2732000D02*
X4079000D01*
X4521647Y2876053D02*
X4527647D01*
X4524648Y2873053D02*
Y2879053D01*
X4408000Y2724000D02*
Y2730000D01*
X4405000Y2727000D02*
X4411000D01*
X4348250Y2817000D02*
X4353750D01*
X4351000Y2814250D02*
Y2819750D01*
X4365250Y2804000D02*
X4370750D01*
X4368000Y2801250D02*
Y2806750D01*
X4320250Y3262000D02*
X4325750D01*
X4323000Y3259250D02*
Y3264750D01*
X3959000Y2662250D02*
Y2667750D01*
X3956250Y2665000D02*
X3961750D01*
X3988000Y2732250D02*
Y2737750D01*
X3985250Y2735000D02*
X3990750D01*
X3959250Y2704400D02*
X3964750D01*
X3962000Y2701650D02*
Y2707150D01*
X4041250Y2721000D02*
X4046750D01*
X4044000Y2718250D02*
Y2723750D01*
X4012250Y2737000D02*
X4017750D01*
X4015000Y2734250D02*
Y2739750D01*
X4072250Y2700750D02*
X4077750D01*
X4075000Y2698000D02*
Y2703500D01*
X4345250Y2764000D02*
X4350750D01*
X4348000Y2761250D02*
Y2766750D01*
X3911000Y2868000D02*
Y2874000D01*
X3908000Y2871000D02*
X3914000D01*
X3931250Y3064000D02*
X3936750D01*
X3934000Y3061250D02*
Y3066750D01*
X4173000Y3166250D02*
Y3171750D01*
X4170250Y3169000D02*
X4175750D01*
X4215750Y3167250D02*
Y3172750D01*
X4213000Y3170000D02*
X4218500D01*
X4382000Y3094500D02*
Y3100000D01*
X4379250Y3097250D02*
X4384750D01*
X4432250Y2804000D02*
X4437750D01*
X4435000Y2801250D02*
Y2806750D01*
X4405250Y2800000D02*
X4410750D01*
X4408000Y2797250D02*
Y2802750D01*
X4451250Y2758300D02*
X4456750D01*
X4454000Y2755550D02*
Y2761050D01*
X3878000Y2929250D02*
Y2934750D01*
X3875250Y2932000D02*
X3880750D01*
X4425250Y2745000D02*
X4430750D01*
X4428000Y2742250D02*
Y2747750D01*
X3856000Y3044000D02*
X3862000D01*
X3859000Y3041000D02*
Y3047000D01*
Y3060000D02*
Y3066000D01*
X3856000Y3063000D02*
X3862000D01*
X3804250Y2938000D02*
X3809750D01*
X3807000Y2935250D02*
Y2940750D01*
X3910000Y3165000D02*
Y3171000D01*
X3907000Y3168000D02*
X3913000D01*
X4025974Y3269504D02*
Y3275504D01*
X4022974Y3272504D02*
X4028974D01*
X4046674Y3254504D02*
Y3260504D01*
X4043674Y3257504D02*
X4049674D01*
X4040674Y3275504D02*
X4050674D01*
X4045674Y3270504D02*
Y3280504D01*
X4037000Y2781000D02*
X4047000D01*
X4042000Y2776000D02*
Y2786000D01*
X4013000Y2770000D02*
Y2776000D01*
X4010000Y2773000D02*
X4016000D01*
X3971250Y2679000D02*
X3976750D01*
X3974000Y2676250D02*
Y2681750D01*
X3962000Y2688650D02*
Y2694150D01*
X3959250Y2691400D02*
X3964750D01*
X3962000Y2713650D02*
Y2719150D01*
X3959250Y2716400D02*
X3964750D01*
X3979250Y2717000D02*
X3984750D01*
X3982000Y2714250D02*
Y2719750D01*
X3962000Y2726650D02*
Y2732150D01*
X3959250Y2729400D02*
X3964750D01*
X3970000Y2984250D02*
Y2989750D01*
X3967250Y2987000D02*
X3972750D01*
X3955000Y2987000D02*
X3961000D01*
X3958000Y2984000D02*
Y2990000D01*
X3911250Y3253000D02*
X3916750D01*
X3914000Y3250250D02*
Y3255750D01*
X3908924Y3273504D02*
X3914424D01*
X3911674Y3270754D02*
Y3276254D01*
X3936000Y3269000D02*
X3942000D01*
X3939000Y3266000D02*
Y3272000D01*
X3955000Y3267250D02*
Y3272750D01*
X3952250Y3270000D02*
X3957750D01*
X3955000Y3254000D02*
X3961000D01*
X3958000Y3251000D02*
Y3257000D01*
X3985000Y3229000D02*
Y3235000D01*
X3982000Y3232000D02*
X3988000D01*
X3800000Y3099000D02*
X3810000D01*
X3805000Y3094000D02*
Y3104000D01*
X4454000Y3250000D02*
Y3260000D01*
X4449000Y3255000D02*
X4459000D01*
X4454000Y3229000D02*
Y3239000D01*
X4449000Y3234000D02*
X4459000D01*
X4447000Y3015250D02*
Y3020750D01*
X4444250Y3018000D02*
X4449750D01*
X4459000Y3028000D02*
Y3034000D01*
X4456000Y3031000D02*
X4462000D01*
X4447000Y2994250D02*
Y2999750D01*
X4444250Y2997000D02*
X4449750Y2997000D01*
X3990000Y2688250D02*
Y2693750D01*
X3987250Y2691000D02*
X3992750D01*
X4362750Y3108250D02*
X4368250D01*
X4365500Y3105500D02*
Y3111000D01*
X3928000Y2666250D02*
Y2671750D01*
X3925250Y2669000D02*
X3930750D01*
X4028750Y3161500D02*
Y3167500D01*
X4025750Y3164500D02*
X4031750D01*
X4339413Y3182000D02*
X4344914D01*
X4342164Y3179250D02*
Y3184750D01*
X4348000Y3141700D02*
X4354000D01*
X4351000Y3138700D02*
Y3144700D01*
X4339413Y3182250D02*
X4344914D01*
X4342164Y3179500D02*
Y3185000D01*
X4383000Y3156000D02*
Y3162000D01*
X4380000Y3159000D02*
X4386000D01*
X4371000Y3139000D02*
X4377000D01*
X4374000Y3136000D02*
Y3142000D01*
X4382000Y3139000D02*
X4388000D01*
X4385000Y3136000D02*
Y3142000D01*
X4393000Y3139000D02*
X4399000D01*
X4396000Y3136000D02*
Y3142000D01*
X4379250Y3097250D02*
X4384750D01*
X4382000Y3094500D02*
Y3100000D01*
X3892974Y3217504D02*
Y3223504D01*
X3889974Y3220504D02*
X3895974D01*
X3951674Y3209504D02*
X3957674D01*
X3954674Y3206504D02*
Y3212504D01*
X3991000Y3310000D02*
Y3316000D01*
X3988000Y3313000D02*
X3994000D01*
X3893424Y3244754D02*
Y3250254D01*
X3890674Y3247504D02*
X3896174D01*
X3951674Y3184504D02*
X3957674D01*
X3954674Y3181504D02*
Y3187504D01*
X3911674Y3145504D02*
Y3151504D01*
X3908674Y3148504D02*
X3914674D01*
X3949250Y3339000D02*
X3959250D01*
X3954250Y3334000D02*
Y3344000D01*
X3989674Y3162504D02*
X3995674D01*
X3992674Y3159504D02*
Y3165504D01*
X4244000Y3351000D02*
X4250000D01*
X4247000Y3348000D02*
Y3354000D01*
X4240000Y3324000D02*
Y3330000D01*
X4237000Y3327000D02*
X4243000D01*
X4072000Y2700500D02*
X4078000D01*
X4075000Y2697500D02*
Y2703500D01*
X4265700Y2756000D02*
X4271700D01*
X4268700Y2753000D02*
Y2759000D01*
X4266000Y2770000D02*
X4272000D01*
X4269000Y2767000D02*
Y2773000D01*
X4265000Y2782700D02*
Y2788700D01*
X4262000Y2785700D02*
X4268000D01*
X4306000Y2774300D02*
Y2780300D01*
X4303000Y2777300D02*
X4309000D01*
X4354125Y2993375D02*
X4359625D01*
X4356875Y2990625D02*
Y2996125D01*
X4359375Y2955375D02*
X4368875D01*
X4364125Y2950625D02*
Y2960125D01*
X4337875Y2966625D02*
Y2972125D01*
X4335125Y2969375D02*
X4340625D01*
X4244000Y3265000D02*
Y3275000D01*
X4239000Y3270000D02*
X4249000D01*
X4244750Y3232000D02*
Y3242000D01*
X4239750Y3237000D02*
X4249750D01*
X4405250Y2914500D02*
X4410750D01*
X4408000Y2911750D02*
Y2917250D01*
X4414000Y2895500D02*
X4420000D01*
X4417000Y2892500D02*
Y2898500D01*
X4408000Y2911500D02*
Y2917500D01*
X4405000Y2914500D02*
X4411000D01*
X4441250Y2855500D02*
X4446750D01*
X4444000Y2852750D02*
Y2858250D01*
X4356875Y2967625D02*
Y2973125D01*
X4354125Y2970375D02*
X4359625D01*
X3931250Y2987000D02*
X3936750D01*
X3934000Y2984250D02*
Y2989750D01*
X4395000Y3341000D02*
Y3347000D01*
X4392000Y3344000D02*
X4398000D01*
X4374000Y3341000D02*
Y3347000D01*
X4371000Y3344000D02*
X4377000D01*
X4354000Y3336700D02*
X4360000D01*
X4357000Y3333700D02*
Y3339700D01*
X4354000Y3317700D02*
X4360000D01*
X4357000Y3314700D02*
Y3320700D01*
X3915000Y3075000D02*
Y3081000D01*
X3912000Y3078000D02*
X3918000D01*
X4285000Y2741000D02*
Y2747000D01*
X4282000Y2744000D02*
X4288000D01*
X3918000Y2964000D02*
Y2970000D01*
X3915000Y2967000D02*
X3921000D01*
X3971000Y3068000D02*
X3977000D01*
X3974000Y3065000D02*
Y3071000D01*
X3944000Y3014000D02*
X3950000D01*
X3947000Y3011000D02*
Y3017000D01*
X3917000Y3010000D02*
X3923000D01*
X3920000Y3007000D02*
Y3013000D01*
X3911000Y3048000D02*
Y3054000D01*
X3908000Y3051000D02*
X3914000D01*
X3948000Y3044000D02*
X3954000D01*
X3951000Y3041000D02*
Y3047000D01*
X4398000Y3180000D02*
Y3185500D01*
X4395250Y3182750D02*
X4400750D01*
X4338000Y3120500D02*
Y3126000D01*
X4335250Y3123250D02*
X4340750D01*
X4362750Y3108250D02*
X4368250D01*
X4365500Y3105500D02*
Y3111000D01*
X4398000Y3180000D02*
Y3185500D01*
X4395250Y3182750D02*
X4400750D01*
X4407164Y3148000D02*
Y3154000D01*
X4404164Y3151000D02*
X4410164D01*
D13*
X4237750Y2740000D02*
Y2796000D01*
Y2740000D02*
X4316250D01*
Y2796000D01*
X4237750D02*
X4316250D01*
X3927500Y3151000D02*
X3946500D01*
X3927500Y3161000D02*
X3946500D01*
X3927500Y3151000D02*
Y3161000D01*
X3946500Y3151000D02*
Y3161000D01*
X3882917Y3285500D02*
X3978417D01*
Y3139500D02*
Y3285500D01*
X3882917Y3139500D02*
X3978417D01*
X3882917D02*
Y3285500D01*
X4015500Y2832850D02*
X4301200D01*
Y2931850D01*
X4015500D02*
X4301200D01*
X4015500Y2832850D02*
Y2931850D01*
X4012174Y3176004D02*
X4045174D01*
X4012174Y3195004D02*
X4045174D01*
X4012174Y3176004D02*
Y3195004D01*
X4045174Y3176004D02*
Y3195004D01*
X4379000Y2767800D02*
X4391000D01*
X4379000D02*
Y2792200D01*
X4391000D01*
Y2767800D02*
Y2792200D01*
X4021300Y2674000D02*
Y2686000D01*
X4045700D01*
Y2674000D02*
Y2686000D01*
X4021300Y2674000D02*
X4045700D01*
X3980000Y2661800D02*
X3992000D01*
Y2686200D01*
X3980000D02*
X3992000D01*
X3980000Y2661800D02*
Y2686200D01*
X3983000Y2723800D02*
X3995000D01*
Y2748200D01*
X3983000D02*
X3995000D01*
X3983000Y2723800D02*
Y2748200D01*
X3983800Y2698000D02*
Y2710000D01*
X4008200D01*
Y2698000D02*
Y2710000D01*
X3983800Y2698000D02*
X4008200D01*
X4005800Y2686000D02*
Y2698000D01*
X4030200D01*
Y2686000D02*
Y2698000D01*
X4005800Y2686000D02*
X4030200D01*
X3930174Y3288004D02*
X3977174D01*
X3930174Y3321004D02*
X3977174D01*
Y3288004D02*
Y3321004D01*
X3930174Y3288004D02*
Y3321004D01*
X3836500Y3189500D02*
Y3222500D01*
X3817500D02*
X3836500D01*
X3817500Y3189500D02*
X3836500D01*
X3817500D02*
Y3222500D01*
X4398162Y3113250D02*
Y3191750D01*
X4342162D02*
X4398162D01*
X4342162Y3113250D02*
X4398162D01*
X4342162D02*
Y3191750D01*
X4386250Y3190875D02*
Y3199875D01*
X4368250D02*
X4386250D01*
X4368250Y3190875D02*
X4386250D01*
X4368250D02*
Y3199875D01*
X4386000Y3191438D02*
Y3200438D01*
X4368000D02*
X4386000D01*
X4368000Y3191438D02*
X4386000D01*
X4368000D02*
Y3200438D01*
X4437000Y2969500D02*
X4473000D01*
X4437000D02*
Y3032500D01*
X4473000D01*
Y2969500D02*
Y3032500D01*
X4123750Y3190500D02*
Y3205500D01*
X4094250Y3190500D02*
X4123750D01*
X4094250D02*
Y3205500D01*
X4123750D01*
X4078174Y3256004D02*
X4111174D01*
X4078174Y3303004D02*
X4111174D01*
Y3256004D02*
Y3303004D01*
X4078174Y3256004D02*
Y3303004D01*
X3883750Y2967750D02*
Y3102250D01*
Y2967750D02*
X4018250D01*
Y3102250D01*
X3883750D02*
X4018250D01*
X4025000Y3053500D02*
Y3062500D01*
X4043000Y3053500D02*
Y3062500D01*
X4025000D02*
X4043000D01*
X4025000Y3053500D02*
X4043000D01*
X4328625Y2946375D02*
Y3002375D01*
Y2946375D02*
X4407125D01*
Y3002375D01*
X4328625D02*
X4407125D01*
X4366500Y3036000D02*
Y3054000D01*
X4357500Y3036000D02*
Y3054000D01*
X4366500D01*
X4357500Y3036000D02*
X4366500D01*
X4380500Y3049000D02*
X4389500D01*
X4380500Y3031000D02*
X4389500D01*
Y3049000D01*
X4380500Y3031000D02*
Y3049000D01*
X4381500Y3025750D02*
Y3055750D01*
X4366500Y3025750D02*
Y3055750D01*
X4381500D01*
X4366500Y3025750D02*
X4381500D01*
X3771273Y3013193D02*
X3812741Y2809368D01*
X3771273Y3013193D02*
X3869265Y3033130D01*
X3910734Y2829305D01*
X3812741Y2809368D02*
X3910734Y2829305D01*
X4012174Y3195004D02*
X4045174D01*
X4012174Y3176004D02*
X4045174D01*
X4012174D02*
Y3195004D01*
X4045174Y3176004D02*
Y3195004D01*
X4313750Y3245250D02*
X4332250D01*
Y3278750D01*
X4313750D02*
X4332250D01*
X4313750Y3245250D02*
Y3278750D01*
X4439500Y2933000D02*
X4448500D01*
X4439500Y2951000D02*
X4448500D01*
X4439500Y2933000D02*
Y2951000D01*
X4448500Y2933000D02*
Y2951000D01*
X4438000Y2932500D02*
Y2951500D01*
X4428000Y2932500D02*
Y2951500D01*
X4438000D01*
X4428000Y2932500D02*
X4438000D01*
X4450500Y2933000D02*
Y2951000D01*
X4459500Y2933000D02*
Y2951000D01*
X4450500Y2933000D02*
X4459500D01*
X4450500Y2951000D02*
X4459500D01*
X4311500Y2909000D02*
Y2927000D01*
X4302500Y2909000D02*
Y2927000D01*
X4311500D01*
X4302500Y2909000D02*
X4311500D01*
X4312500Y2888000D02*
Y2906000D01*
X4303500Y2888000D02*
Y2906000D01*
X4312500D01*
X4303500Y2888000D02*
X4312500D01*
X4005750Y2720250D02*
X4024250D01*
Y2753750D01*
X4005750D02*
X4024250D01*
X4005750Y2720250D02*
Y2753750D01*
X4033750Y2704250D02*
Y2737750D01*
X4052250D01*
Y2704250D02*
Y2737750D01*
X4033750Y2704250D02*
X4052250D01*
X3911500Y2845000D02*
X3930500D01*
X3911500Y2835000D02*
X3930500D01*
X3911500D02*
Y2845000D01*
X3930500Y2835000D02*
Y2845000D01*
X4025500Y3083000D02*
X4043500D01*
X4025500Y3074000D02*
X4043500D01*
X4025500D02*
Y3083000D01*
X4043500Y3074000D02*
Y3083000D01*
X4198500Y3291950D02*
Y3364050D01*
Y3291950D02*
X4283500D01*
Y3364050D01*
X4198500D02*
X4283500D01*
X3959047Y3140000D02*
Y3150000D01*
X3978047Y3140000D02*
Y3150000D01*
X3959047Y3140000D02*
X3978047D01*
X3959047Y3150000D02*
X3978047D01*
X3882924Y3148004D02*
Y3157004D01*
X3900924Y3148004D02*
Y3157004D01*
X3882924Y3148004D02*
X3900924D01*
X3882924Y3157004D02*
X3900924D01*
X3882924Y3158004D02*
Y3167004D01*
X3900924Y3158004D02*
Y3167004D01*
X3882924Y3158004D02*
X3900924D01*
X3882924Y3167004D02*
X3900924D01*
X3902174Y3169504D02*
Y3179504D01*
X3883174Y3169504D02*
Y3179504D01*
X3902174D01*
X3883174Y3169504D02*
X3902174D01*
X3887524Y3211854D02*
X3897524D01*
X3887524Y3192854D02*
X3897524D01*
X3887524D02*
Y3211854D01*
X3897524Y3192854D02*
Y3211854D01*
X3909174Y3297004D02*
X3942174D01*
X3909174Y3278004D02*
X3942174D01*
Y3297004D01*
X3909174Y3278004D02*
Y3297004D01*
X3912000Y2835500D02*
Y2844500D01*
X3930000Y2835500D02*
Y2844500D01*
X3912000Y2835500D02*
X3930000D01*
X3912000Y2844500D02*
X3930000D01*
X3904750Y2726750D02*
Y2745250D01*
X3895250D02*
X3904750D01*
X3895250Y2726750D02*
Y2745250D01*
Y2726750D02*
X3904750D01*
X4529000Y2986500D02*
X4539000D01*
X4529000Y3005500D02*
X4539000D01*
Y2986500D02*
Y3005500D01*
X4529000Y2986500D02*
Y3005500D01*
X4380500Y3049000D02*
X4389500D01*
X4380500Y3031000D02*
X4389500D01*
X4380500D02*
Y3049000D01*
X4389500Y3031000D02*
Y3049000D01*
X4357500Y3036000D02*
X4366500D01*
X4357500Y3054000D02*
X4366500D01*
Y3036000D02*
Y3054000D01*
X4357500Y3036000D02*
Y3054000D01*
X4156250Y3159750D02*
Y3178250D01*
Y3159750D02*
X4189750D01*
Y3178250D01*
X4156250D02*
X4189750D01*
X4348500Y3154000D02*
Y3164000D01*
X4367500Y3154000D02*
Y3164000D01*
X4348500Y3154000D02*
X4367500D01*
X4348500Y3164000D02*
X4367500D01*
X4264500Y3034000D02*
Y3044000D01*
X4283500Y3034000D02*
Y3044000D01*
X4264500Y3034000D02*
X4283500D01*
X4264500Y3044000D02*
X4283500D01*
X4333500Y3132250D02*
X4342500D01*
X4333500Y3114250D02*
X4342500D01*
X4333500D02*
Y3132250D01*
X4342500Y3114250D02*
Y3132250D01*
X4348875Y2976875D02*
X4366875D01*
X4348875Y2985875D02*
X4366875D01*
X4348875Y2976875D02*
Y2985875D01*
X4366875Y2976875D02*
Y2985875D01*
X4390350Y2972150D02*
X4409350D01*
X4390350Y2982150D02*
X4409350D01*
X4390350Y2972150D02*
Y2982150D01*
X4409350Y2972150D02*
Y2982150D01*
X4441000Y3039800D02*
Y3058800D01*
X4451000Y3039800D02*
Y3058800D01*
X4441000D02*
X4451000D01*
X4441000Y3039800D02*
X4451000D01*
X4050500Y2715500D02*
X4097500D01*
X4050500Y2748500D02*
X4097500D01*
X4050500Y2715500D02*
Y2748500D01*
X4097500Y2715500D02*
Y2748500D01*
X4529648Y2866553D02*
Y2885553D01*
X4519648Y2866553D02*
Y2885553D01*
Y2866553D02*
X4529648D01*
X4519648Y2885553D02*
X4529648D01*
X4398500Y2732000D02*
X4417500D01*
X4398500Y2722000D02*
X4417500D01*
Y2732000D01*
X4398500Y2722000D02*
Y2732000D01*
X4346500Y2808000D02*
Y2826000D01*
X4355500Y2808000D02*
Y2826000D01*
X4346500D02*
X4355500D01*
X4346500Y2808000D02*
X4355500D01*
X4341750Y2798250D02*
X4360250D01*
Y2831750D01*
X4341750D02*
X4360250D01*
X4341750Y2798250D02*
Y2831750D01*
X4372500Y2795000D02*
Y2813000D01*
X4363500Y2795000D02*
Y2813000D01*
X4372500D01*
X4363500Y2795000D02*
X4372500D01*
X4283250Y2758750D02*
X4292750D01*
X4283250D02*
Y2777250D01*
X4292750D01*
Y2758750D02*
Y2777250D01*
X4327500Y3253000D02*
Y3271000D01*
X4318500Y3253000D02*
Y3271000D01*
Y3253000D02*
X4327500D01*
X4318500Y3271000D02*
X4327500D01*
X3950000Y2669500D02*
X3968000D01*
X3950000Y2660500D02*
X3968000D01*
X3950000D02*
Y2669500D01*
X3968000Y2660500D02*
Y2669500D01*
X3979000Y2739500D02*
X3997000D01*
X3979000Y2730500D02*
X3997000D01*
Y2739500D01*
X3979000Y2730500D02*
Y2739500D01*
X3971000Y2699900D02*
Y2708900D01*
X3953000Y2699900D02*
Y2708900D01*
X3971000D01*
X3953000Y2699900D02*
X3971000D01*
X4039500Y2712000D02*
Y2730000D01*
X4048500Y2712000D02*
Y2730000D01*
X4039500D02*
X4048500D01*
X4039500Y2712000D02*
X4048500D01*
X4010500Y2728000D02*
Y2746000D01*
X4019500Y2728000D02*
Y2746000D01*
X4010500D02*
X4019500D01*
X4010500Y2728000D02*
X4019500D01*
X4079500Y2691750D02*
Y2709750D01*
X4070500Y2691750D02*
Y2709750D01*
Y2691750D02*
X4079500D01*
X4070500Y2709750D02*
X4079500D01*
X4343500Y2755000D02*
Y2773000D01*
X4352500Y2755000D02*
Y2773000D01*
X4343500D02*
X4352500D01*
X4343500Y2755000D02*
X4352500D01*
X3901500Y2876000D02*
X3920500D01*
X3901500Y2866000D02*
X3920500D01*
Y2876000D01*
X3901500Y2866000D02*
Y2876000D01*
X3929500Y3055000D02*
Y3073000D01*
X3938500Y3055000D02*
Y3073000D01*
X3929500D02*
X3938500D01*
X3929500Y3055000D02*
X3938500D01*
X4164000Y3164500D02*
X4182000D01*
X4164000Y3173500D02*
X4182000D01*
X4164000Y3164500D02*
Y3173500D01*
X4182000Y3164500D02*
Y3173500D01*
X4206750Y3165500D02*
X4224750D01*
X4206750Y3174500D02*
X4224750D01*
X4206750Y3165500D02*
Y3174500D01*
X4224750Y3165500D02*
Y3174500D01*
X4377500Y3106250D02*
X4386500D01*
X4377500Y3088250D02*
X4386500D01*
Y3106250D01*
X4377500Y3088250D02*
Y3106250D01*
X4430500Y2795000D02*
Y2813000D01*
X4439500Y2795000D02*
Y2813000D01*
X4430500D02*
X4439500D01*
X4430500Y2795000D02*
X4439500D01*
X4403500Y2791000D02*
Y2809000D01*
X4412500Y2791000D02*
Y2809000D01*
X4403500D02*
X4412500D01*
X4403500Y2791000D02*
X4412500D01*
X4449000Y2748800D02*
Y2767800D01*
X4459000Y2748800D02*
Y2767800D01*
X4449000D02*
X4459000D01*
X4449000Y2748800D02*
X4459000D01*
X3873500Y2923000D02*
X3882500D01*
X3873500Y2941000D02*
X3882500D01*
Y2923000D02*
Y2941000D01*
X3873500Y2923000D02*
Y2941000D01*
X4423500Y2736000D02*
Y2754000D01*
X4432500Y2736000D02*
Y2754000D01*
X4423500D02*
X4432500D01*
X4423500Y2736000D02*
X4432500D01*
X3849500Y3039000D02*
Y3049000D01*
X3868500Y3039000D02*
Y3049000D01*
X3849500Y3039000D02*
X3868500D01*
X3849500Y3049000D02*
X3868500D01*
X3849500Y3068000D02*
X3868500D01*
X3849500Y3058000D02*
X3868500D01*
Y3068000D01*
X3849500Y3058000D02*
Y3068000D01*
X3802500Y2929000D02*
Y2947000D01*
X3811500Y2929000D02*
Y2947000D01*
X3802500D02*
X3811500D01*
X3802500Y2929000D02*
X3811500D01*
X4198000Y3287050D02*
X4283000D01*
Y3214950D02*
Y3287050D01*
X4198000Y3214950D02*
X4283000D01*
X4198000D02*
Y3287050D01*
X3905000Y3177500D02*
X3915000D01*
X3905000Y3158500D02*
X3915000D01*
X3905000D02*
Y3177500D01*
X3915000Y3158500D02*
Y3177500D01*
X4016474Y3267504D02*
X4035474D01*
X4016474Y3277504D02*
X4035474D01*
X4016474Y3267504D02*
Y3277504D01*
X4035474Y3267504D02*
Y3277504D01*
X4041674Y3248004D02*
X4051674D01*
X4041674Y3267004D02*
X4051674D01*
Y3248004D02*
Y3267004D01*
X4041674Y3248004D02*
Y3267004D01*
X4079674Y3235754D02*
Y3315254D01*
X4011674Y3235754D02*
Y3315254D01*
X4079674D01*
X4011674Y3235754D02*
X4079674D01*
X4071174Y3341504D02*
X4144174D01*
X4071174Y3249004D02*
Y3341504D01*
Y3249004D02*
X4144174D01*
Y3341504D01*
X4082300Y3231500D02*
Y3252500D01*
Y3231500D02*
X4127700D01*
Y3252500D01*
X4082300D02*
X4127700D01*
X4030500Y2758000D02*
Y2804000D01*
X4053500Y2758000D02*
Y2804000D01*
X4030500D02*
X4053500D01*
X4030500Y2758000D02*
X4053500D01*
X4003500Y2768000D02*
X4022500D01*
X4003500Y2778000D02*
X4022500D01*
X4003500Y2768000D02*
Y2778000D01*
X4022500Y2768000D02*
Y2778000D01*
X3980750Y2752500D02*
Y2807500D01*
Y2752500D02*
X4055250D01*
Y2807500D01*
X3980750D02*
X4055250D01*
X3965000Y2683500D02*
X3965000Y2674500D01*
X3983000D02*
Y2683500D01*
X3965000Y2674500D02*
X3983000D01*
X3965000Y2683500D02*
X3983000D01*
X3953000Y2686900D02*
X3971000D01*
X3953000Y2695900D02*
X3971000D01*
X3953000Y2686900D02*
Y2695900D01*
X3971000Y2686900D02*
Y2695900D01*
X3953000Y2711900D02*
X3971000D01*
X3953000Y2720900D02*
X3971000D01*
X3953000Y2711900D02*
Y2720900D01*
X3971000Y2711900D02*
Y2720900D01*
X3973000Y2712500D02*
Y2721500D01*
X3991000Y2712500D02*
Y2721500D01*
X3973000Y2712500D02*
X3991000D01*
X3973000Y2721500D02*
X3991000D01*
X3953000Y2724900D02*
X3971000D01*
X3953000Y2733900D02*
X3971000D01*
X3953000Y2724900D02*
Y2733900D01*
X3971000Y2724900D02*
Y2733900D01*
X3965500Y2996000D02*
X3974500D01*
X3965500Y2978000D02*
X3974500D01*
X3965500D02*
Y2996000D01*
X3974500Y2978000D02*
Y2996000D01*
X3941250Y2995855D02*
X3950750D01*
Y2977355D02*
Y2995855D01*
X3941250Y2977355D02*
X3950750D01*
X3941250D02*
Y2995855D01*
X3963000Y2977500D02*
Y2996500D01*
X3953000Y2977500D02*
Y2996500D01*
Y2977500D02*
X3963000D01*
X3953000Y2996500D02*
X3963000D01*
X3905000Y3248500D02*
Y3257500D01*
X3923000Y3248500D02*
Y3257500D01*
X3905000Y3248500D02*
X3923000D01*
X3905000Y3257500D02*
X3923000D01*
X3920674Y3269004D02*
Y3278004D01*
X3902674Y3269004D02*
Y3278004D01*
X3920674D01*
X3902674Y3269004D02*
X3920674D01*
X3929500Y3264000D02*
Y3274000D01*
X3948500Y3264000D02*
Y3274000D01*
X3929500Y3264000D02*
X3948500D01*
X3929500Y3274000D02*
X3948500D01*
X3950500Y3261000D02*
X3959500D01*
X3950500Y3279000D02*
X3959500D01*
Y3261000D02*
Y3279000D01*
X3950500Y3261000D02*
Y3279000D01*
X3948500Y3249000D02*
Y3259000D01*
X3967500Y3249000D02*
Y3259000D01*
X3948500Y3249000D02*
X3967500D01*
X3948500Y3259000D02*
X3967500D01*
X3980000Y3222500D02*
X3990000D01*
X3980000Y3241500D02*
X3990000D01*
X3980000Y3222500D02*
Y3241500D01*
X3990000Y3222500D02*
Y3241500D01*
X3795500Y3082500D02*
Y3115500D01*
X3814500Y3082500D02*
Y3115500D01*
X3795500D02*
X3814500D01*
X3795500Y3082500D02*
X3814500D01*
X4437500Y3245500D02*
X4470500D01*
X4437500Y3264500D02*
X4470500D01*
X4437500Y3245500D02*
Y3264500D01*
X4470500Y3245500D02*
Y3264500D01*
X4437500Y3224500D02*
X4470500D01*
X4437500Y3243500D02*
X4470500D01*
X4437500Y3224500D02*
Y3243500D01*
X4470500Y3224500D02*
Y3243500D01*
X4442500Y3027000D02*
X4451500D01*
X4442500Y3009000D02*
X4451500D01*
Y3027000D01*
X4442500Y3009000D02*
Y3027000D01*
X4454000Y3040500D02*
X4464000D01*
X4454000Y3021500D02*
X4464000D01*
Y3040500D01*
X4454000Y3021500D02*
Y3040500D01*
X4442500Y3006000D02*
X4451500D01*
X4442500Y2988000D02*
X4451500D01*
Y3006000D01*
X4442500Y2988000D02*
Y3006000D01*
X3981000Y2695500D02*
X3999000D01*
X3981000Y2686500D02*
X3999000D01*
Y2695500D01*
X3981000Y2686500D02*
Y2695500D01*
X4356500Y3103750D02*
Y3112750D01*
X4374500Y3103750D02*
Y3112750D01*
X4356500D02*
X4374500D01*
X4356500Y3103750D02*
X4374500D01*
X3919000Y2673500D02*
X3937000D01*
X3919000Y2664500D02*
X3937000D01*
Y2673500D01*
X3919000Y2664500D02*
Y2673500D01*
X4023750Y3155000D02*
X4033750D01*
X4023750Y3174000D02*
X4033750D01*
X4023750Y3155000D02*
Y3174000D01*
X4033750Y3155000D02*
Y3174000D01*
X4337664Y3173000D02*
Y3191000D01*
X4346664Y3173000D02*
Y3191000D01*
X4337664D02*
X4346664D01*
X4337664Y3173000D02*
X4346664D01*
X4346000Y3132200D02*
Y3151200D01*
X4356000Y3132200D02*
Y3151200D01*
X4346000D02*
X4356000D01*
X4346000Y3132200D02*
X4356000D01*
X4337664Y3173250D02*
Y3191250D01*
X4346664Y3173250D02*
Y3191250D01*
X4337664Y3173250D02*
X4346664D01*
X4337664Y3191250D02*
X4346664D01*
X4373500Y3164000D02*
X4392500D01*
X4373500Y3154000D02*
X4392500D01*
Y3164000D01*
X4373500Y3154000D02*
Y3164000D01*
X4379000Y3129500D02*
Y3148500D01*
X4369000Y3129500D02*
Y3148500D01*
Y3129500D02*
X4379000D01*
X4369000Y3148500D02*
X4379000D01*
X4390000Y3129500D02*
Y3148500D01*
X4380000Y3129500D02*
Y3148500D01*
Y3129500D02*
X4390000D01*
X4380000Y3148500D02*
X4390000D01*
X4401000Y3129500D02*
Y3148500D01*
X4391000Y3129500D02*
Y3148500D01*
Y3129500D02*
X4401000D01*
X4391000Y3148500D02*
X4401000D01*
X4386500Y3088250D02*
Y3106250D01*
X4377500Y3088250D02*
Y3106250D01*
Y3088250D02*
X4386500D01*
X4377500Y3106250D02*
X4386500D01*
X3883474Y3215504D02*
X3902474D01*
X3883474Y3225504D02*
X3902474D01*
X3883474Y3215504D02*
Y3225504D01*
X3902474Y3215504D02*
Y3225504D01*
X3949674Y3200004D02*
Y3219004D01*
X3959674Y3200004D02*
Y3219004D01*
X3949674D02*
X3959674D01*
X3949674Y3200004D02*
X3959674D01*
X3981500Y3318000D02*
X4000500D01*
X3981500Y3308000D02*
X4000500D01*
Y3318000D01*
X3981500Y3308000D02*
Y3318000D01*
X3884424Y3252004D02*
X3902424D01*
X3884424Y3243004D02*
X3902424D01*
Y3252004D01*
X3884424Y3243004D02*
Y3252004D01*
X3949674Y3175004D02*
Y3194004D01*
X3959674Y3175004D02*
Y3194004D01*
X3949674D02*
X3959674D01*
X3949674Y3175004D02*
X3959674D01*
X3902174Y3143504D02*
X3921174D01*
X3902174Y3153504D02*
X3921174D01*
X3902174Y3143504D02*
Y3153504D01*
X3921174Y3143504D02*
Y3153504D01*
X3930750Y3322500D02*
Y3355500D01*
X3977750Y3322500D02*
Y3355500D01*
X3930750D02*
X3977750D01*
X3930750Y3322500D02*
X3977750D01*
X3997674Y3153004D02*
Y3172004D01*
X3987674Y3153004D02*
Y3172004D01*
X3997674D01*
X3987674Y3153004D02*
X3997674D01*
X4338750Y2747250D02*
Y2780750D01*
X4357250D01*
Y2747250D02*
Y2780750D01*
X4338750Y2747250D02*
X4357250D01*
X4256500Y3346000D02*
Y3356000D01*
X4237500Y3346000D02*
Y3356000D01*
X4256500D01*
X4237500Y3346000D02*
X4256500D01*
X4235000Y3336500D02*
X4245000D01*
X4235000Y3317500D02*
X4245000D01*
X4235000D02*
Y3336500D01*
X4245000Y3317500D02*
Y3336500D01*
X4344750Y3294000D02*
Y3350000D01*
Y3294000D02*
X4423250D01*
Y3350000D01*
X4344750D02*
X4423250D01*
X4070000Y2691000D02*
Y2710000D01*
X4080000Y2691000D02*
Y2710000D01*
X4070000Y2691000D02*
X4080000D01*
X4070000Y2710000D02*
X4080000D01*
X4278200Y2751000D02*
Y2761000D01*
X4259200Y2751000D02*
Y2761000D01*
X4278200D01*
X4259200Y2751000D02*
X4278200D01*
X4278500Y2765000D02*
Y2775000D01*
X4259500Y2765000D02*
Y2775000D01*
X4278500D01*
X4259500Y2765000D02*
X4278500D01*
X4260000Y2795200D02*
X4270000D01*
X4260000Y2776200D02*
X4270000D01*
X4260000D02*
Y2795200D01*
X4270000Y2776200D02*
Y2795200D01*
X4301000Y2767800D02*
X4311000D01*
X4301000Y2786800D02*
X4311000D01*
Y2767800D02*
Y2786800D01*
X4301000Y2767800D02*
Y2786800D01*
X4402250Y2846000D02*
X4438250D01*
X4402250D02*
Y2909000D01*
X4438250D01*
Y2846000D02*
Y2909000D01*
X4365875Y2988875D02*
Y2997875D01*
X4347875Y2988875D02*
Y2997875D01*
X4365875D01*
X4347875Y2988875D02*
X4365875D01*
X4379125Y2947875D02*
Y2962875D01*
X4349125Y2947875D02*
Y2962875D01*
X4379125D01*
X4349125Y2947875D02*
X4379125D01*
X4333375Y2978375D02*
X4342375D01*
X4333375Y2960375D02*
X4342375D01*
X4333375D02*
Y2978375D01*
X4342375Y2960375D02*
Y2978375D01*
X4220500Y3253500D02*
X4267500D01*
X4220500Y3286500D02*
X4267500D01*
X4220500Y3253500D02*
Y3286500D01*
X4267500Y3253500D02*
Y3286500D01*
X4221250Y3220500D02*
X4268250D01*
X4221250Y3253500D02*
X4268250D01*
X4221250Y3220500D02*
Y3253500D01*
X4268250Y3220500D02*
Y3253500D01*
X4399000Y2910000D02*
Y2919000D01*
X4417000Y2910000D02*
Y2919000D01*
X4399000D02*
X4417000D01*
X4399000Y2910000D02*
X4417000D01*
X4407500Y2890500D02*
Y2900500D01*
X4426500Y2890500D02*
Y2900500D01*
X4407500D02*
X4426500D01*
X4407500Y2890500D02*
X4426500D01*
X4398500Y2919500D02*
X4417500D01*
X4398500Y2909500D02*
X4417500D01*
Y2919500D01*
X4398500Y2909500D02*
Y2919500D01*
X4448500Y2846500D02*
Y2864500D01*
X4439500Y2846500D02*
Y2864500D01*
Y2846500D02*
X4448500D01*
X4439500Y2864500D02*
X4448500D01*
X4347875Y2965875D02*
X4365875D01*
X4347875Y2974875D02*
X4365875D01*
X4347875Y2965875D02*
Y2974875D01*
X4365875Y2965875D02*
Y2974875D01*
X3929500Y2978000D02*
Y2996000D01*
X3938500Y2978000D02*
Y2996000D01*
X3929500D02*
X3938500D01*
X3929500Y2978000D02*
X3938500D01*
X4385500Y3339000D02*
X4404500D01*
X4385500Y3349000D02*
X4404500D01*
X4385500Y3339000D02*
Y3349000D01*
X4404500Y3339000D02*
Y3349000D01*
X4364500Y3349000D02*
X4383500D01*
X4364500Y3339000D02*
X4383500D01*
Y3349000D01*
X4364500Y3339000D02*
Y3349000D01*
X4362000Y3327200D02*
Y3346200D01*
X4352000Y3327200D02*
Y3346200D01*
Y3327200D02*
X4362000D01*
X4352000Y3346200D02*
X4362000D01*
Y3308200D02*
Y3327200D01*
X4352000Y3308200D02*
Y3327200D01*
Y3308200D02*
X4362000D01*
X4352000Y3327200D02*
X4362000D01*
X4088000Y3190750D02*
X4130000D01*
Y3155250D02*
Y3190750D01*
X4088000Y3155250D02*
X4130000D01*
X4088000D02*
Y3190750D01*
X3905500Y3073000D02*
X3924500D01*
X3905500Y3083000D02*
X3924500D01*
X3905500Y3073000D02*
Y3083000D01*
X3924500Y3073000D02*
Y3083000D01*
X4275500Y2739000D02*
X4294500D01*
X4275500Y2749000D02*
X4294500D01*
X4275500Y2739000D02*
Y2749000D01*
X4294500Y2739000D02*
Y2749000D01*
X3913000Y2976500D02*
X3923000D01*
X3913000Y2957500D02*
X3923000D01*
X3913000D02*
Y2976500D01*
X3923000Y2957500D02*
Y2976500D01*
X3964500Y3063000D02*
Y3073000D01*
X3983500Y3063000D02*
Y3073000D01*
X3964500Y3063000D02*
X3983500D01*
X3964500Y3073000D02*
X3983500D01*
X3937500Y3009000D02*
Y3019000D01*
X3956500Y3009000D02*
Y3019000D01*
X3937500Y3009000D02*
X3956500D01*
X3937500Y3019000D02*
X3956500D01*
X3929500Y3005000D02*
Y3015000D01*
X3910500Y3005000D02*
Y3015000D01*
X3929500D01*
X3910500Y3005000D02*
X3929500D01*
X3906000Y3060500D02*
X3916000D01*
X3906000Y3041500D02*
X3916000D01*
X3906000D02*
Y3060500D01*
X3916000Y3041500D02*
Y3060500D01*
X3941500Y3039000D02*
Y3049000D01*
X3960500Y3039000D02*
Y3049000D01*
X3941500Y3039000D02*
X3960500D01*
X3941500Y3049000D02*
X3960500D01*
X4393500Y3173750D02*
X4402500D01*
X4393500Y3191750D02*
X4402500D01*
X4393500Y3173750D02*
Y3191750D01*
X4402500Y3173750D02*
Y3191750D01*
X4333500Y3132250D02*
X4342500D01*
X4333500Y3114250D02*
X4342500D01*
Y3132250D01*
X4333500Y3114250D02*
Y3132250D01*
X4356500Y3103750D02*
Y3112750D01*
X4374500Y3103750D02*
Y3112750D01*
X4356500Y3103750D02*
X4374500D01*
X4356500Y3112750D02*
X4374500D01*
X4393500Y3173750D02*
X4402500D01*
X4393500Y3191750D02*
X4402500D01*
Y3173750D02*
Y3191750D01*
X4393500Y3173750D02*
Y3191750D01*
X4402164Y3141500D02*
X4412164D01*
X4402164Y3160500D02*
X4412164D01*
X4402164Y3141500D02*
Y3160500D01*
X4412164Y3141500D02*
Y3160500D01*
X4199250Y3179250D02*
X4232750D01*
Y3160750D02*
Y3179250D01*
X4199250Y3160750D02*
X4232750D01*
X4199250D02*
Y3179250D01*
D14*
X4451609Y2802788D02*
X4511991Y2787733D01*
X4483255Y2929713D02*
X4543637Y2914659D01*
X4451609Y2802788D02*
X4483255Y2929713D01*
X4511991Y2787733D02*
X4543637Y2914659D01*
X4484330Y3063670D02*
X4546560D01*
X4484330Y2932859D02*
X4546560D01*
Y3063670D01*
X4484330Y2932859D02*
Y3063670D01*
X4209070Y2694170D02*
Y2757670D01*
X4104930Y2694170D02*
Y2757670D01*
Y2694170D02*
X4209070D01*
X4104930Y2757670D02*
X4209070D01*
X4250930Y2656330D02*
X4355070Y2656330D01*
X4250930Y2719830D02*
X4355070Y2719830D01*
Y2656330D02*
Y2719830D01*
X4250930Y2656330D02*
Y2719830D01*
X4416019Y2823951D02*
X4468036Y2787528D01*
X4356287Y2738644D02*
X4408303Y2702222D01*
X4468036Y2787528D01*
X4356287Y2738644D02*
X4416019Y2823951D01*
M02*
