G04*
G04 #@! TF.GenerationSoftware,Altium Limited,Altium Designer,23.1.1 (15)*
G04*
G04 Layer_Color=128*
%FSLAX44Y44*%
%MOMM*%
G71*
G04*
G04 #@! TF.SameCoordinates,8DBAF139-ECA8-4D34-9DCF-413724B6F768*
G04*
G04*
G04 #@! TF.FilePolarity,Positive*
G04*
G01*
G75*
%ADD131C,0.1270*%
D131*
X495850Y226900D02*
X506850D01*
X501350Y221400D02*
Y232400D01*
X495850Y201500D02*
X506850D01*
X501350Y196000D02*
Y207000D01*
X470450Y226900D02*
X481450D01*
X475950Y221400D02*
Y232400D01*
X470450Y201500D02*
X481450D01*
X475950Y196000D02*
Y207000D01*
X445050Y226900D02*
X456050D01*
X450550Y221400D02*
Y232400D01*
X445050Y201500D02*
X456050D01*
X450550Y196000D02*
Y207000D01*
X419650Y226900D02*
X430650D01*
X425150Y221400D02*
Y232400D01*
X419650Y201500D02*
X430650D01*
X425150Y196000D02*
Y207000D01*
X394250Y226900D02*
X405250D01*
X399750Y221400D02*
Y232400D01*
X394250Y201500D02*
X405250D01*
X399750Y196000D02*
Y207000D01*
X368850Y226900D02*
X379850D01*
X374350Y221400D02*
Y232400D01*
X368850Y201500D02*
X379850D01*
X374350Y196000D02*
Y207000D01*
X343450Y226900D02*
X354450D01*
X348950Y221400D02*
Y232400D01*
X343450Y201500D02*
X354450D01*
X348950Y196000D02*
Y207000D01*
X318050Y226900D02*
X329050D01*
X323550Y221400D02*
Y232400D01*
X318050Y201500D02*
X329050D01*
X323550Y196000D02*
Y207000D01*
X116339Y72572D02*
X122338D01*
X119338Y69572D02*
Y75572D01*
X96750Y70500D02*
X102750D01*
X99750Y67500D02*
Y73500D01*
X108338Y86428D02*
X114339D01*
X111339Y83428D02*
Y89428D01*
X88750Y84356D02*
X94750D01*
X91750Y81356D02*
Y87356D01*
X100338Y100285D02*
X106338D01*
X103338Y97285D02*
Y103285D01*
X111344Y50318D02*
X132244D01*
X121794Y39868D02*
Y60768D01*
X74844Y113538D02*
X95744D01*
X85294Y103088D02*
Y123988D01*
X391144Y681223D02*
X404144D01*
X397644Y674723D02*
Y687722D01*
X421250Y681500D02*
X434250D01*
X427750Y675000D02*
Y688000D01*
X782250Y411500D02*
X795250D01*
X788750Y405000D02*
Y418000D01*
X777186Y436390D02*
X790186D01*
X783686Y429890D02*
Y442890D01*
X772122Y461280D02*
X785122D01*
X778622Y454780D02*
Y467780D01*
X767058Y486170D02*
X780058D01*
X773558Y479670D02*
Y492670D01*
X761994Y511060D02*
X774994D01*
X768494Y504560D02*
Y517560D01*
X756013Y540458D02*
X769013D01*
X762513Y533958D02*
Y546958D01*
X749633Y571816D02*
X762633D01*
X756133Y565316D02*
Y578316D01*
X28250Y407500D02*
X41250D01*
X34750Y401000D02*
Y414000D01*
X33401Y432372D02*
X46401D01*
X39901Y425872D02*
Y438872D01*
X38552Y457244D02*
X51552D01*
X45052Y450745D02*
Y463745D01*
X43702Y482117D02*
X56702D01*
X50202Y475617D02*
Y488617D01*
X48853Y506989D02*
X61853D01*
X55353Y500489D02*
Y513489D01*
X54486Y536455D02*
X67486D01*
X60986Y529955D02*
Y542955D01*
X60866Y567813D02*
X73866D01*
X67366Y561313D02*
Y574313D01*
X71250Y619500D02*
X87250D01*
X79250Y611500D02*
Y627500D01*
X472750Y-1500D02*
X485750D01*
X479250Y-8000D02*
Y5000D01*
X447350Y-1500D02*
X460350D01*
X453850Y-8000D02*
Y5000D01*
X421950Y-1500D02*
X434950D01*
X428450Y-8000D02*
Y5000D01*
X396550Y-1500D02*
X409550D01*
X403050Y-8000D02*
Y5000D01*
X371150Y-1500D02*
X384150D01*
X377650Y-8000D02*
Y5000D01*
X327150Y-1500D02*
X340150D01*
X333650Y-8000D02*
Y5000D01*
X294650Y-1500D02*
X307650D01*
X301150Y-8000D02*
Y5000D01*
X255750Y-500D02*
X271750D01*
X263750Y-8500D02*
Y7500D01*
X114540Y206564D02*
X124740D01*
X119640Y201464D02*
Y211664D01*
X89650Y201500D02*
X99850D01*
X94750Y196400D02*
Y206600D01*
X109476Y231454D02*
X119676D01*
X114576Y226354D02*
Y236554D01*
X84586Y226390D02*
X94786D01*
X89686Y221290D02*
Y231490D01*
X104412Y256344D02*
X114612D01*
X109512Y251244D02*
Y261444D01*
X79522Y251280D02*
X89722D01*
X84622Y246180D02*
Y256380D01*
X99348Y281234D02*
X109548D01*
X104448Y276134D02*
Y286334D01*
X74458Y276170D02*
X84658D01*
X79558Y271070D02*
Y281270D01*
X94284Y306124D02*
X104484D01*
X99384Y301024D02*
Y311224D01*
X69394Y301060D02*
X79594D01*
X74494Y295960D02*
Y306160D01*
X742316Y152563D02*
X752316D01*
X747316Y147563D02*
Y157563D01*
X748460Y177209D02*
X758460D01*
X753460Y172209D02*
Y182209D01*
X754605Y201854D02*
X764605D01*
X759605Y196854D02*
Y206854D01*
X760750Y226500D02*
X770750D01*
X765750Y221500D02*
Y231500D01*
X760750Y369500D02*
X770750D01*
X765750Y364500D02*
Y374500D01*
X760750Y344100D02*
X770750D01*
X765750Y339100D02*
Y349100D01*
X760750Y318700D02*
X770750D01*
X765750Y313700D02*
Y323700D01*
X760750Y293300D02*
X770750D01*
X765750Y288300D02*
Y298300D01*
X432150Y63500D02*
X442150D01*
X437150Y58500D02*
Y68500D01*
X406750Y63500D02*
X416750D01*
X411750Y58500D02*
Y68500D01*
X381350Y63500D02*
X391350D01*
X386350Y58500D02*
Y68500D01*
X578150Y15500D02*
X588150D01*
X583150Y10500D02*
Y20500D01*
X552750Y15500D02*
X562750D01*
X557750Y10500D02*
Y20500D01*
X527350Y15500D02*
X537350D01*
X532350Y10500D02*
Y20500D01*
X699644Y640222D02*
X715644D01*
X707644Y632223D02*
Y648223D01*
X672319Y119306D02*
X682319D01*
X677319Y114306D02*
Y124306D01*
X657750Y98500D02*
X667750D01*
X662750Y93500D02*
Y103500D01*
X643181Y77694D02*
X653181D01*
X648181Y72694D02*
Y82694D01*
X151500Y431000D02*
X153500D01*
X152500Y430000D02*
Y432000D01*
X689000Y157750D02*
X692000D01*
X690500Y156250D02*
Y159250D01*
X179000Y101750D02*
X182000D01*
X180500Y100250D02*
Y103250D01*
X215250Y403500D02*
X217250D01*
X216250Y402500D02*
Y404500D01*
X202500Y407250D02*
X206500D01*
X204500Y405250D02*
Y409250D01*
X134382Y406259D02*
X136382D01*
X135382Y405258D02*
Y407258D01*
X140354Y408500D02*
X142354D01*
X141354Y407500D02*
Y409500D01*
X593000Y346750D02*
X596000D01*
X594500Y345250D02*
Y348250D01*
X484750Y82000D02*
X487750D01*
X486250Y80500D02*
Y83500D01*
X189000Y591500D02*
X192000D01*
X190500Y590000D02*
Y593000D01*
X454250Y189750D02*
X456250D01*
X455250Y188750D02*
Y190750D01*
X476000Y95750D02*
X479000D01*
X477500Y94250D02*
Y97250D01*
X468500Y72500D02*
X471500D01*
X470000Y71000D02*
Y74000D01*
X575500Y275500D02*
X577500D01*
X576500Y274500D02*
Y276500D01*
X323500Y434750D02*
X325500D01*
X324500Y433750D02*
Y435750D01*
X334750Y448500D02*
X336750D01*
X335750Y447500D02*
Y449500D01*
X177750Y481500D02*
X179750D01*
X178750Y480500D02*
Y482500D01*
X313750Y412000D02*
X315750D01*
X314750Y411000D02*
Y413000D01*
X316250Y422250D02*
X318250D01*
X317250Y421250D02*
Y423250D01*
X495750Y453000D02*
X497750D01*
X496750Y452000D02*
Y454000D01*
X483750Y465750D02*
X485750D01*
X484750Y464750D02*
Y466750D01*
X546000Y502750D02*
X548000D01*
X547000Y501750D02*
Y503750D01*
X560000Y476500D02*
X562000D01*
X561000Y475500D02*
Y477500D01*
X549250Y481000D02*
X551250D01*
X550250Y480000D02*
Y482000D01*
X540000Y491750D02*
X542000D01*
X541000Y490750D02*
Y492750D01*
X568250Y158500D02*
X570250D01*
X569250Y157500D02*
Y159500D01*
X554250Y160750D02*
X556250D01*
X555250Y159750D02*
Y161750D01*
X557000Y194250D02*
X559000D01*
X558000Y193250D02*
Y195250D01*
X561750Y201000D02*
X563750D01*
X562750Y200000D02*
Y202000D01*
X618000Y207750D02*
X620000D01*
X619000Y206750D02*
Y208750D01*
X610250Y194250D02*
X612250D01*
X611250Y193250D02*
Y195250D01*
X601500Y191000D02*
X603500D01*
X602500Y190000D02*
Y192000D01*
X612750Y201250D02*
X614750D01*
X613750Y200250D02*
Y202250D01*
X616000Y221750D02*
X618000D01*
X617000Y220750D02*
Y222750D01*
X616000Y234000D02*
X618000D01*
X617000Y233000D02*
Y235000D01*
X609750Y228750D02*
X611750D01*
X610750Y227750D02*
Y229750D01*
X570500Y280500D02*
X572500D01*
X571500Y279500D02*
Y281500D01*
X642250Y276750D02*
X644250D01*
X643250Y275750D02*
Y277750D01*
X556750Y296500D02*
X558750D01*
X557750Y295500D02*
Y297500D01*
X552250Y301250D02*
X554250D01*
X553250Y300250D02*
Y302250D01*
X732250Y388000D02*
X734250D01*
X733250Y387000D02*
Y389000D01*
Y406500D02*
X735250D01*
X734250Y405500D02*
Y407500D01*
X699250Y551000D02*
X701250D01*
X700250Y550000D02*
Y552000D01*
X650750Y581500D02*
X652750D01*
X651750Y580500D02*
Y582500D01*
X632500Y581500D02*
X634500D01*
X633500Y580500D02*
Y582500D01*
X604750Y599000D02*
X606750D01*
X605750Y598000D02*
Y600000D01*
X527250Y608250D02*
X529250D01*
X528250Y607250D02*
Y609250D01*
X549500Y597000D02*
X551500D01*
X550500Y596000D02*
Y598000D01*
X539750Y572250D02*
X541750D01*
X540750Y571250D02*
Y573250D01*
X560000Y564500D02*
X562000D01*
X561000Y563500D02*
Y565500D01*
X464250Y523000D02*
X466250D01*
X465250Y522000D02*
Y524000D01*
X297500Y478000D02*
X299500D01*
X298500Y477000D02*
Y479000D01*
X267500Y530750D02*
X269500D01*
X268500Y529750D02*
Y531750D01*
X308250Y522000D02*
X310250D01*
X309250Y521000D02*
Y523000D01*
X304500Y529750D02*
X306500D01*
X305500Y528750D02*
Y530750D01*
X73000Y650500D02*
X75000D01*
X74000Y649500D02*
Y651500D01*
X80750Y671750D02*
X82750D01*
X81750Y670750D02*
Y672750D01*
X111000Y697500D02*
X113000D01*
X112000Y696500D02*
Y698500D01*
X145000Y699250D02*
X147000D01*
X146000Y698250D02*
Y700250D01*
X183500Y698000D02*
X185500D01*
X184500Y697000D02*
Y699000D01*
X239750Y693250D02*
X241750D01*
X240750Y692250D02*
Y694250D01*
X213750Y693000D02*
X215750D01*
X214750Y692000D02*
Y694000D01*
X411750Y692750D02*
X413750D01*
X412750Y691750D02*
Y693750D01*
X377000Y693000D02*
X379000D01*
X378000Y692000D02*
Y694000D01*
X360750Y693250D02*
X362750D01*
X361750Y692250D02*
Y694250D01*
X336250Y693500D02*
X338250D01*
X337250Y692500D02*
Y694500D01*
X312500Y693000D02*
X314500D01*
X313500Y692000D02*
Y694000D01*
X290250Y692250D02*
X292250D01*
X291250Y691250D02*
Y693250D01*
X265000Y692250D02*
X267000D01*
X266000Y691250D02*
Y693250D01*
X30250Y308750D02*
X32250D01*
X31250Y307750D02*
Y309750D01*
X28250Y323750D02*
X30250D01*
X29250Y322750D02*
Y324750D01*
X30750Y382750D02*
X32750D01*
X31750Y381750D02*
Y383750D01*
X31000Y391000D02*
X33000D01*
X32000Y390000D02*
Y392000D01*
X49500Y407500D02*
X51500D01*
X50500Y406500D02*
Y408500D01*
X88500Y458750D02*
X90500D01*
X89500Y457750D02*
Y459750D01*
X85250Y466000D02*
X87250D01*
X86250Y465000D02*
Y467000D01*
X425500Y522250D02*
X427500D01*
X426500Y521250D02*
Y523250D01*
X452250Y520000D02*
X454250D01*
X453250Y519000D02*
Y521000D01*
X488500Y520500D02*
X490500D01*
X489500Y519500D02*
Y521500D01*
X509500Y516000D02*
X511500D01*
X510500Y515000D02*
Y517000D01*
X509969Y523258D02*
X511969D01*
X510970Y522258D02*
Y524258D01*
X538000Y518000D02*
X540000D01*
X539000Y517000D02*
Y519000D01*
X705750Y667500D02*
X707750D01*
X706750Y666500D02*
Y668500D01*
X701250Y685500D02*
X703250D01*
X702250Y684500D02*
Y686500D01*
X691500Y698250D02*
X693500D01*
X692500Y697250D02*
Y699250D01*
X751250Y655250D02*
X753250D01*
X752250Y654250D02*
Y656250D01*
X703750Y700000D02*
X705750D01*
X704750Y699000D02*
Y701000D01*
X735761Y694357D02*
X737761D01*
X736761Y693357D02*
Y695357D01*
X747000Y671250D02*
X749000D01*
X748000Y670250D02*
Y672250D01*
X282250Y1750D02*
X284250D01*
X283250Y750D02*
Y2750D01*
X280750Y-6750D02*
X282750D01*
X281750Y-7750D02*
Y-5750D01*
X489750Y-16250D02*
X491750D01*
X490750Y-17250D02*
Y-15250D01*
X509000Y-16750D02*
X511000D01*
X510000Y-17750D02*
Y-15750D01*
X529750Y-17750D02*
X531750D01*
X530750Y-18750D02*
Y-16750D01*
X549750D02*
X551750D01*
X550750Y-17750D02*
Y-15750D01*
X564500Y-16000D02*
X566500D01*
X565500Y-17000D02*
Y-15000D01*
X578250D02*
X580250D01*
X579250Y-16000D02*
Y-14000D01*
X619500Y-9750D02*
X621500D01*
X620500Y-10750D02*
Y-8750D01*
X631750Y-7750D02*
X633750D01*
X632750Y-8750D02*
Y-6750D01*
X645250Y-5500D02*
X647250D01*
X646250Y-6500D02*
Y-4500D01*
X656000Y2500D02*
X658000D01*
X657000Y1500D02*
Y3500D01*
X663000Y17500D02*
X665000D01*
X664000Y16500D02*
Y18500D01*
X668750Y30000D02*
X670750D01*
X669750Y29000D02*
Y31000D01*
X678250Y49750D02*
X680250D01*
X679250Y48750D02*
Y50750D01*
X690500Y64250D02*
X692500D01*
X691500Y63250D02*
Y65250D01*
X771500Y182750D02*
X773500D01*
X772500Y181750D02*
Y183750D01*
X771750Y192000D02*
X773750D01*
X772750Y191000D02*
Y193000D01*
X717250Y81750D02*
X719250D01*
X718250Y80750D02*
Y82750D01*
X725750Y86250D02*
X727750D01*
X726750Y85250D02*
Y87250D01*
X736250Y92750D02*
X738250D01*
X737250Y91750D02*
Y93750D01*
X750250Y97750D02*
X752250D01*
X751250Y96750D02*
Y98750D01*
X758500Y109000D02*
X760500D01*
X759500Y108000D02*
Y110000D01*
X762250Y126000D02*
X764250D01*
X763250Y125000D02*
Y127000D01*
X766000Y140000D02*
X768000D01*
X767000Y139000D02*
Y141000D01*
X769250Y152000D02*
X771250D01*
X770250Y151000D02*
Y153000D01*
X786473Y221887D02*
X788474D01*
X787474Y220887D02*
Y222887D01*
X773750Y164500D02*
X775750D01*
X774750Y163500D02*
Y165500D01*
X791000Y239250D02*
X793000D01*
X792000Y238250D02*
Y240250D01*
X794935Y251888D02*
X796935D01*
X795935Y250888D02*
Y252888D01*
X805250Y283750D02*
X807250D01*
X806250Y282750D02*
Y284750D01*
X804500Y305750D02*
X806500D01*
X805500Y304750D02*
Y306750D01*
X804500Y333250D02*
X806500D01*
X805500Y332250D02*
Y334250D01*
X804250Y372500D02*
X806250D01*
X805250Y371500D02*
Y373500D01*
X804250Y353750D02*
X806250D01*
X805250Y352750D02*
Y354750D01*
X804250Y393500D02*
X806250D01*
X805250Y392500D02*
Y394500D01*
X803000Y414250D02*
X805000D01*
X804000Y413250D02*
Y415250D01*
X802000Y440250D02*
X804000D01*
X803000Y439250D02*
Y441250D01*
X802500Y464500D02*
X804500D01*
X803500Y463500D02*
Y465500D01*
X551750Y452000D02*
X553750D01*
X552750Y451000D02*
Y453000D01*
X697500Y421250D02*
X699500D01*
X698500Y420250D02*
Y422250D01*
X686750Y422750D02*
X688750D01*
X687750Y421750D02*
Y423750D01*
X713500Y450500D02*
X715500D01*
X714500Y449500D02*
Y451500D01*
X713500Y472500D02*
X715500D01*
X714500Y471500D02*
Y473500D01*
X717250Y500250D02*
X719250D01*
X718250Y499250D02*
Y501250D01*
X713500Y486750D02*
X715500D01*
X714500Y485750D02*
Y487750D01*
X713500Y462250D02*
X715500D01*
X714500Y461250D02*
Y463250D01*
X732000Y434250D02*
X734000D01*
X733000Y433250D02*
Y435250D01*
X750000Y449750D02*
X752000D01*
X751000Y448750D02*
Y450750D01*
X750000Y471000D02*
X752000D01*
X751000Y470000D02*
Y472000D01*
X750000Y495750D02*
X752000D01*
X751000Y494750D02*
Y496750D01*
X743500Y523500D02*
X745500D01*
X744500Y522500D02*
Y524500D01*
X731500Y537500D02*
X733500D01*
X732500Y536500D02*
Y538500D01*
X720875Y549936D02*
X722875D01*
X721875Y548936D02*
Y550936D01*
X743500Y552750D02*
X745500D01*
X744500Y551750D02*
Y553750D01*
X777750Y559250D02*
X779750D01*
X778750Y558250D02*
Y560250D01*
X762000Y603000D02*
X764000D01*
X763000Y602000D02*
Y604000D01*
X757000Y616000D02*
X759000D01*
X758000Y615000D02*
Y617000D01*
X750750Y638000D02*
X752750D01*
X751750Y637000D02*
Y639000D01*
X738250Y645250D02*
X740250D01*
X739250Y644250D02*
Y646250D01*
X739500Y606000D02*
X741500D01*
X740500Y605000D02*
Y607000D01*
X732750Y615500D02*
X734750D01*
X733750Y614500D02*
Y616500D01*
X724430Y623069D02*
X726430D01*
X725430Y622069D02*
Y624069D01*
X717250Y603500D02*
X719250D01*
X718250Y602500D02*
Y604500D01*
X707417Y612658D02*
X709417D01*
X708417Y611658D02*
Y613658D01*
X681750Y611250D02*
X683750D01*
X682750Y610250D02*
Y612250D01*
X675675Y603263D02*
X677675D01*
X676675Y602263D02*
Y604263D01*
X649520Y599454D02*
X651520D01*
X650520Y598454D02*
Y600454D01*
X627174Y597168D02*
X629174D01*
X628174Y596168D02*
Y598168D01*
X638250Y623250D02*
X640250D01*
X639250Y622250D02*
Y624250D01*
X617250Y623250D02*
X619250D01*
X618250Y622250D02*
Y624250D01*
X653250Y608750D02*
X655250D01*
X654250Y607750D02*
Y609750D01*
X634792Y607579D02*
X636792D01*
X635792Y606580D02*
Y608579D01*
X614000Y607250D02*
X616000D01*
X615000Y606250D02*
Y608250D01*
X589000Y687750D02*
X591000D01*
X590000Y686750D02*
Y688750D01*
X580750Y688000D02*
X582750D01*
X581750Y687000D02*
Y689000D01*
X566831Y688514D02*
X568831D01*
X567831Y687514D02*
Y689514D01*
X551500Y687500D02*
X553500D01*
X552500Y686500D02*
Y688500D01*
X540250Y688750D02*
X542250D01*
X541250Y687750D02*
Y689750D01*
X435000Y581000D02*
X437000D01*
X436000Y580000D02*
Y582000D01*
X429250Y590250D02*
X431250D01*
X430250Y589250D02*
Y591250D01*
X429750Y618750D02*
X431750D01*
X430750Y617750D02*
Y619750D01*
X406250Y646500D02*
X408250D01*
X407250Y645500D02*
Y647500D01*
X391000Y646000D02*
X393000D01*
X392000Y645000D02*
Y647000D01*
X375432Y618442D02*
X377432D01*
X376432Y617441D02*
Y619441D01*
X377000Y605250D02*
X379000D01*
X378000Y604250D02*
Y606250D01*
X410015Y606569D02*
X412015D01*
X411015Y605569D02*
Y607569D01*
X399692Y620334D02*
X401692D01*
X400692Y619334D02*
Y621334D01*
X407951Y613796D02*
X409951D01*
X408951Y612796D02*
Y614796D01*
X403750Y596000D02*
X405750D01*
X404750Y595000D02*
Y597000D01*
X397000Y586250D02*
X399000D01*
X398000Y585250D02*
Y587250D01*
X317500Y656500D02*
X319500D01*
X318500Y655500D02*
Y657500D01*
X281250Y655750D02*
X283250D01*
X282250Y654750D02*
Y656750D01*
X259710Y637455D02*
X261710D01*
X260710Y636455D02*
Y638455D01*
X260000Y645750D02*
X262000D01*
X261000Y644750D02*
Y646750D01*
X196917Y529000D02*
X199917D01*
X198417Y527500D02*
Y530500D01*
X170917Y529000D02*
X173917D01*
X172417Y527500D02*
Y530500D01*
X179583Y529000D02*
X182583D01*
X181083Y527500D02*
Y530500D01*
X188250Y529000D02*
X191250D01*
X189750Y527500D02*
Y530500D01*
X195917Y545500D02*
X198917D01*
X197417Y544000D02*
Y547000D01*
X169917Y545500D02*
X172917D01*
X171417Y544000D02*
Y547000D01*
X178583Y545500D02*
X181583D01*
X180083Y544000D02*
Y547000D01*
X187250Y545500D02*
X190250D01*
X188750Y544000D02*
Y547000D01*
X195917Y562500D02*
X198917D01*
X197417Y561000D02*
Y564000D01*
X169917Y562500D02*
X172917D01*
X171417Y561000D02*
Y564000D01*
X178583Y562500D02*
X181583D01*
X180083Y561000D02*
Y564000D01*
X187250Y562500D02*
X190250D01*
X188750Y561000D02*
Y564000D01*
X263000Y611750D02*
X265000D01*
X264000Y610750D02*
Y612750D01*
X260750Y620500D02*
X262750D01*
X261750Y619500D02*
Y621500D01*
X260750Y655000D02*
X262750D01*
X261750Y654000D02*
Y656000D01*
X178250Y633000D02*
X180250D01*
X179250Y632000D02*
Y634000D01*
X178500Y642250D02*
X180500D01*
X179500Y641250D02*
Y643250D01*
X170326Y643262D02*
X172326D01*
X171326Y642262D02*
Y644262D01*
X165500Y634250D02*
X167500D01*
X166500Y633250D02*
Y635250D01*
X161160Y596780D02*
X163160D01*
X162160Y595780D02*
Y597780D01*
X63285Y551443D02*
X65285D01*
X64285Y550443D02*
Y552443D01*
X81750Y582000D02*
X83750D01*
X82750Y581000D02*
Y583000D01*
X151750Y632750D02*
X153750D01*
X152750Y631750D02*
Y633750D01*
X156577Y647027D02*
X158577D01*
X157577Y646027D02*
Y648027D01*
X176381Y658320D02*
X178381D01*
X177381Y657320D02*
Y659320D01*
X161000Y656250D02*
X163000D01*
X162000Y655250D02*
Y657250D01*
X146000Y655000D02*
X148000D01*
X147000Y654000D02*
Y656000D01*
X135791Y643262D02*
X137791D01*
X136791Y642262D02*
Y644262D01*
X118115Y625586D02*
X120114D01*
X119115Y624586D02*
Y626586D01*
X105250Y613750D02*
X107250D01*
X106250Y612750D02*
Y614750D01*
X93564Y601199D02*
X95564D01*
X94564Y600199D02*
Y602199D01*
X81289Y591051D02*
X83289D01*
X82289Y590051D02*
Y592051D01*
X107750Y593750D02*
X109750D01*
X108750Y592750D02*
Y594750D01*
X96182Y583359D02*
X98182D01*
X97182Y582359D02*
Y584359D01*
X89750Y576750D02*
X91750D01*
X90750Y575750D02*
Y577750D01*
X168198Y684835D02*
X170198D01*
X169198Y683835D02*
Y685835D01*
X170250Y696500D02*
X172250D01*
X171250Y695500D02*
Y697500D01*
X130000Y670750D02*
X132000D01*
X131000Y669750D02*
Y671750D01*
X127250Y688500D02*
X129250D01*
X128250Y687500D02*
Y689500D01*
X94710Y680088D02*
X96710D01*
X95710Y679088D02*
Y681088D01*
X86035Y656356D02*
X88035D01*
X87035Y655356D02*
Y657356D01*
X81289Y637207D02*
X83289D01*
X82289Y636207D02*
Y638207D01*
X127116Y657011D02*
X129116D01*
X128116Y656011D02*
Y658011D01*
X114750Y643500D02*
X116750D01*
X115750Y642500D02*
Y644500D01*
X97250Y627000D02*
X99250D01*
X98250Y626000D02*
Y628000D01*
X68000Y600250D02*
X70000D01*
X69000Y599250D02*
Y601250D01*
X59250Y590250D02*
X61250D01*
X60250Y589250D02*
Y591250D01*
X29000Y484250D02*
X31000D01*
X30000Y483250D02*
Y485250D01*
X39327Y523877D02*
X41327D01*
X40327Y522877D02*
Y524877D01*
X30535Y492921D02*
X32535D01*
X31535Y491921D02*
Y493921D01*
X26500Y476250D02*
X28500D01*
X27500Y475250D02*
Y477250D01*
X21000Y458250D02*
X23000D01*
X22000Y457250D02*
Y459250D01*
X15056Y432246D02*
X17056D01*
X16056Y431246D02*
Y433246D01*
X15250Y415000D02*
X17250D01*
X16250Y414000D02*
Y416000D01*
X14500Y393000D02*
X16500D01*
X15500Y392000D02*
Y394000D01*
X15250Y370500D02*
X17250D01*
X16250Y369500D02*
Y371500D01*
X15750Y347000D02*
X17750D01*
X16750Y346000D02*
Y348000D01*
X15000Y325250D02*
X17000D01*
X16000Y324250D02*
Y326250D01*
X15750Y307000D02*
X17750D01*
X16750Y306000D02*
Y308000D01*
X20750Y288750D02*
X22750D01*
X21750Y287750D02*
Y289750D01*
X23750Y275500D02*
X25750D01*
X24750Y274500D02*
Y276500D01*
X26750Y262500D02*
X28750D01*
X27750Y261500D02*
Y263500D01*
X36971Y212823D02*
X38971D01*
X37971Y211823D02*
Y213823D01*
X30750Y243250D02*
X32750D01*
X31750Y242250D02*
Y244250D01*
X33500Y228250D02*
X35500D01*
X34500Y227250D02*
Y229250D01*
X38582Y196230D02*
X40582D01*
X39582Y195230D02*
Y197230D01*
X43534Y176170D02*
X45535D01*
X44535Y175170D02*
Y177170D01*
X46500Y164250D02*
X48500D01*
X47500Y163250D02*
Y165250D01*
X48750Y148500D02*
X50750D01*
X49750Y147500D02*
Y149500D01*
X57000Y110250D02*
X59000D01*
X58000Y109250D02*
Y111250D01*
X63223Y87880D02*
X65223D01*
X64223Y86880D02*
Y88880D01*
X75111Y67077D02*
X77111D01*
X76111Y66077D02*
Y68077D01*
X81500Y57500D02*
X83500D01*
X82500Y56500D02*
Y58500D01*
X149500Y2000D02*
X151500D01*
X150500Y1000D02*
Y3000D01*
X141750Y7250D02*
X143750D01*
X142750Y6250D02*
Y8250D01*
X128250Y13250D02*
X130250D01*
X129250Y12250D02*
Y14250D01*
X137000Y15250D02*
X139000D01*
X138000Y14250D02*
Y16250D01*
X147750Y24750D02*
X149750D01*
X148750Y23750D02*
Y25750D01*
X179250Y40000D02*
X181250D01*
X180250Y39000D02*
Y41000D01*
X180000Y59500D02*
X182000D01*
X181000Y58500D02*
Y60500D01*
X191500Y73500D02*
X193500D01*
X192500Y72500D02*
Y74500D01*
X184500Y78750D02*
X186500D01*
X185500Y77750D02*
Y79750D01*
X160000Y38500D02*
X162000D01*
X161000Y37500D02*
Y39500D01*
X168250Y45750D02*
X170250D01*
X169250Y44750D02*
Y46750D01*
X170335Y62620D02*
X172335D01*
X171335Y61620D02*
Y63620D01*
X171250Y74500D02*
X173250D01*
X172250Y73500D02*
Y75500D01*
X172000Y83000D02*
X174000D01*
X173000Y82000D02*
Y84000D01*
X149500Y42500D02*
X151500D01*
X150500Y41500D02*
Y43500D01*
X140250Y39750D02*
X142250D01*
X141250Y38750D02*
Y40750D01*
X141000Y51500D02*
X143000D01*
X142000Y50500D02*
Y52500D01*
X109250Y67000D02*
X111250D01*
X110250Y66000D02*
Y68000D01*
X101000Y81750D02*
X103000D01*
X102000Y80750D02*
Y82750D01*
X91500Y95500D02*
X93500D01*
X92500Y94500D02*
Y96500D01*
X79693Y92586D02*
X81693D01*
X80694Y91586D02*
Y93586D01*
X85390Y135058D02*
X87390D01*
X86390Y134058D02*
Y136058D01*
X78750Y140750D02*
X80750D01*
X79750Y139750D02*
Y141750D01*
X60250Y134000D02*
X62250D01*
X61250Y133000D02*
Y135000D01*
X60750Y145750D02*
X62750D01*
X61750Y144750D02*
Y146750D01*
X62750Y157500D02*
X64750D01*
X63750Y156500D02*
Y158500D01*
X121500Y120250D02*
X123500D01*
X122500Y119250D02*
Y121250D01*
X111250Y130500D02*
X113250D01*
X112250Y129500D02*
Y131500D01*
X97750Y144000D02*
X99750D01*
X98750Y143000D02*
Y145000D01*
X84750Y156250D02*
X86750D01*
X85750Y155250D02*
Y157250D01*
X82250Y173250D02*
X84250D01*
X83250Y172250D02*
Y174250D01*
X76000Y178500D02*
X78000D01*
X77000Y177500D02*
Y179500D01*
X130000Y202500D02*
X132000D01*
X131000Y201500D02*
Y203500D01*
Y210250D02*
X133000D01*
X132000Y209250D02*
Y211250D01*
X117750Y187750D02*
X119750D01*
X118750Y186750D02*
Y188750D01*
X112136Y194990D02*
X114136D01*
X113136Y193990D02*
Y195990D01*
X134500Y178750D02*
X136500D01*
X135500Y177750D02*
Y179750D01*
X135750Y190250D02*
X137750D01*
X136750Y189250D02*
Y191250D01*
X161172Y189418D02*
X163172D01*
X162172Y188418D02*
Y190418D01*
X149250Y179750D02*
X151250D01*
X150250Y178750D02*
Y180750D01*
X150152Y194247D02*
X152151D01*
X151152Y193247D02*
Y195247D01*
X198750Y214000D02*
X200750D01*
X199750Y213000D02*
Y215000D01*
X191000Y212250D02*
X193000D01*
X192000Y211250D02*
Y213250D01*
X216000Y199250D02*
X218000D01*
X217000Y198250D02*
Y200250D01*
X210250Y194250D02*
X212250D01*
X211250Y193250D02*
Y195250D01*
X207500Y205750D02*
X209500D01*
X208500Y204750D02*
Y206750D01*
X203500Y200250D02*
X205500D01*
X204500Y199250D02*
Y201250D01*
X221250Y192000D02*
X223250D01*
X222250Y191000D02*
Y193000D01*
X227500Y199250D02*
X229500D01*
X228500Y198250D02*
Y200250D01*
X237750Y190500D02*
X239750D01*
X238750Y189500D02*
Y191500D01*
X243750Y153500D02*
X245750D01*
X244750Y152500D02*
Y154500D01*
X229750Y154000D02*
X231750D01*
X230750Y153000D02*
Y155000D01*
X348000Y188750D02*
X350000D01*
X349000Y187750D02*
Y189750D01*
X485250Y284000D02*
X487250D01*
X486250Y283000D02*
Y285000D01*
X532750Y334750D02*
X534750D01*
X533750Y333750D02*
Y335750D01*
X584250Y374500D02*
X586250D01*
X585250Y373500D02*
Y375500D01*
X593500Y366000D02*
X595500D01*
X594500Y365000D02*
Y367000D01*
X586250Y365500D02*
X588250D01*
X587250Y364500D02*
Y366500D01*
X607500Y370750D02*
X609500D01*
X608500Y369750D02*
Y371750D01*
X603000Y375500D02*
X605000D01*
X604000Y374500D02*
Y376500D01*
X645750Y386250D02*
X647750D01*
X646750Y385250D02*
Y387250D01*
X635500Y397000D02*
X637500D01*
X636500Y396000D02*
Y398000D01*
X646500Y402750D02*
X648500D01*
X647500Y401750D02*
Y403750D01*
X655250Y403000D02*
X657250D01*
X656250Y402000D02*
Y404000D01*
X667250Y402750D02*
X669250D01*
X668250Y401750D02*
Y403750D01*
X437000Y222500D02*
X439000D01*
X438000Y221500D02*
Y223500D01*
X435750Y234250D02*
X437750D01*
X436750Y233250D02*
Y235250D01*
X360500Y237000D02*
X362500D01*
X361500Y236000D02*
Y238000D01*
X382153Y242641D02*
X384153D01*
X383153Y241641D02*
Y243641D01*
X396000Y239000D02*
X398000D01*
X397000Y238000D02*
Y240000D01*
X405000Y238750D02*
X407000D01*
X406000Y237750D02*
Y239750D01*
X281750Y233750D02*
X283750D01*
X282750Y232750D02*
Y234750D01*
X282000Y197750D02*
X284000D01*
X283000Y196750D02*
Y198750D01*
X288500Y212000D02*
X290500D01*
X289500Y211000D02*
Y213000D01*
X284000Y218250D02*
X286000D01*
X285000Y217250D02*
Y219250D01*
X336448Y210394D02*
X338448D01*
X337448Y209394D02*
Y211394D01*
X335000Y221500D02*
X337000D01*
X336000Y220500D02*
Y222500D01*
X436250Y195500D02*
X438250D01*
X437250Y194500D02*
Y196500D01*
X432000Y211500D02*
X434000D01*
X433000Y210500D02*
Y212500D01*
X411500Y200500D02*
X413500D01*
X412500Y199500D02*
Y201500D01*
X406500Y214500D02*
X408500D01*
X407500Y213500D02*
Y215500D01*
X385750Y205500D02*
X387750D01*
X386750Y204500D02*
Y206500D01*
X380500Y214250D02*
X382500D01*
X381500Y213250D02*
Y215250D01*
X371500Y213750D02*
X373500D01*
X372500Y212750D02*
Y214750D01*
X356250Y212500D02*
X358250D01*
X357250Y211500D02*
Y213500D01*
X360250Y199250D02*
X362250D01*
X361250Y198250D02*
Y200250D01*
X475750Y184750D02*
X477750D01*
X476750Y183750D02*
Y185750D01*
X482500Y190750D02*
X484500D01*
X483500Y189750D02*
Y191750D01*
X512500Y221500D02*
X514500D01*
X513500Y220500D02*
Y222500D01*
X519250Y211500D02*
X521250D01*
X520250Y210500D02*
Y212500D01*
X379000Y188250D02*
X381000D01*
X380000Y187250D02*
Y189250D01*
X397000Y188250D02*
X399000D01*
X398000Y187250D02*
Y189250D01*
X417500Y188250D02*
X419500D01*
X418500Y187250D02*
Y189250D01*
X440750D02*
X442750D01*
X441750Y188250D02*
Y190250D01*
X449500Y174250D02*
X451500D01*
X450500Y173250D02*
Y175250D01*
X427500Y174250D02*
X429500D01*
X428500Y173250D02*
Y175250D01*
X407000Y174250D02*
X409000D01*
X408000Y173250D02*
Y175250D01*
X363000Y173250D02*
X365000D01*
X364000Y172250D02*
Y174250D01*
X349500Y173250D02*
X351500D01*
X350500Y172250D02*
Y174250D01*
X315250D02*
X317250D01*
X316250Y173250D02*
Y175250D01*
X304250Y175500D02*
X306250D01*
X305250Y174500D02*
Y176500D01*
X295500Y183000D02*
X297500D01*
X296500Y182000D02*
Y184000D01*
X281750Y190750D02*
X283750D01*
X282750Y189750D02*
Y191750D01*
X282000Y177750D02*
X284000D01*
X283000Y176750D02*
Y178750D01*
X286750Y170000D02*
X288750D01*
X287750Y169000D02*
Y171000D01*
X276901Y170942D02*
X278901D01*
X277901Y169942D02*
Y171943D01*
X272000Y177250D02*
X274000D01*
X273000Y176250D02*
Y178250D01*
X270042Y131139D02*
X272042D01*
X271042Y130140D02*
Y132140D01*
X263000Y129500D02*
X265000D01*
X264000Y128500D02*
Y130500D01*
X255000Y153500D02*
X257000D01*
X256000Y152500D02*
Y154500D01*
X381000Y154750D02*
X383000D01*
X382000Y153750D02*
Y155750D01*
X352500Y153500D02*
X354500D01*
X353500Y152500D02*
Y154500D01*
X325500Y129500D02*
X327500D01*
X326500Y128500D02*
Y130500D01*
X359750Y115000D02*
X361750D01*
X360750Y114000D02*
Y116000D01*
X353500Y120500D02*
X355500D01*
X354500Y119500D02*
Y121500D01*
X343500Y129250D02*
X345500D01*
X344500Y128250D02*
Y130250D01*
X432000Y94000D02*
X434000D01*
X433000Y93000D02*
Y95000D01*
X415500Y95250D02*
X417500D01*
X416500Y94250D02*
Y96250D01*
X398000Y95500D02*
X400000D01*
X399000Y94500D02*
Y96500D01*
X381750Y96750D02*
X383750D01*
X382750Y95750D02*
Y97750D01*
X365250Y96750D02*
X367250D01*
X366250Y95750D02*
Y97750D01*
X373250Y85250D02*
X375250D01*
X374250Y84250D02*
Y86250D01*
X401250Y122500D02*
X403250D01*
X402250Y121500D02*
Y123500D01*
X412124Y123038D02*
X414124D01*
X413124Y122038D02*
Y124038D01*
X389250Y122500D02*
X391250D01*
X390250Y121500D02*
Y123500D01*
X400500Y132250D02*
X402500D01*
X401500Y131250D02*
Y133250D01*
X411250Y131750D02*
X413250D01*
X412250Y130750D02*
Y132750D01*
X388500Y132250D02*
X390500D01*
X389500Y131250D02*
Y133250D01*
X400000Y112500D02*
X402000D01*
X401000Y111500D02*
Y113500D01*
X412500Y112750D02*
X414500D01*
X413500Y111750D02*
Y113750D01*
X388000Y112500D02*
X390000D01*
X389000Y111500D02*
Y113500D01*
X401000Y87500D02*
X403000D01*
X402000Y86500D02*
Y88500D01*
X413000Y87250D02*
X415000D01*
X414000Y86250D02*
Y88250D01*
X389000Y174250D02*
X391000D01*
X390000Y173250D02*
Y175250D01*
X356250Y-13250D02*
X358250D01*
X357250Y-14250D02*
Y-12250D01*
X418000Y-11750D02*
X420000D01*
X419000Y-12750D02*
Y-10750D01*
X388624Y-7962D02*
X390624D01*
X389624Y-8962D02*
Y-6962D01*
Y6038D02*
X391624D01*
X390624Y5038D02*
Y7038D01*
X390374Y17038D02*
X392374D01*
X391374Y16038D02*
Y18038D01*
X384124Y21288D02*
X386124D01*
X385124Y20288D02*
Y22288D01*
X397124Y36788D02*
X399124D01*
X398124Y35788D02*
Y37788D01*
X397000Y44000D02*
X399000D01*
X398000Y43000D02*
Y45000D01*
X406000Y35000D02*
X408000D01*
X407000Y34000D02*
Y36000D01*
X405124Y45788D02*
X407124D01*
X406124Y44788D02*
Y46788D01*
X421374Y19538D02*
X423374D01*
X422374Y18538D02*
Y20538D01*
X415874Y34038D02*
X417874D01*
X416874Y33038D02*
Y35038D01*
X416000Y45000D02*
X418000D01*
X417000Y44000D02*
Y46000D01*
X438624Y34788D02*
X440624D01*
X439624Y33788D02*
Y35788D01*
X438874Y45538D02*
X440874D01*
X439874Y44538D02*
Y46538D01*
X429298Y36532D02*
X431298D01*
X430298Y35532D02*
Y37532D01*
X428000Y45000D02*
X430000D01*
X429000Y44000D02*
Y46000D01*
X453124Y15038D02*
X455124D01*
X454124Y14038D02*
Y16038D01*
X471374Y14288D02*
X473374D01*
X472374Y13288D02*
Y15288D01*
X463374Y22038D02*
X465374D01*
X464374Y21038D02*
Y23038D01*
X493500Y43750D02*
X495500D01*
X494500Y42750D02*
Y44750D01*
X479500Y43500D02*
X481500D01*
X480500Y42500D02*
Y44500D01*
X468000Y43500D02*
X470000D01*
X469000Y42500D02*
Y44500D01*
X494750Y32750D02*
X496750D01*
X495750Y31750D02*
Y33750D01*
X481750Y31750D02*
X483750D01*
X482750Y30750D02*
Y32750D01*
X469500Y32500D02*
X471500D01*
X470500Y31500D02*
Y33500D01*
X508500Y-7000D02*
X510500D01*
X509500Y-8000D02*
Y-6000D01*
X518250Y-8750D02*
X520250D01*
X519250Y-9750D02*
Y-7750D01*
X532750Y-8750D02*
X534750D01*
X533750Y-9750D02*
Y-7750D01*
X473250Y-17000D02*
X475250D01*
X474250Y-18000D02*
Y-16000D01*
X459250Y-17500D02*
X461250D01*
X460250Y-18500D02*
Y-16500D01*
X445500Y-16250D02*
X447500D01*
X446500Y-17250D02*
Y-15250D01*
X631750Y96750D02*
X633750D01*
X632750Y95750D02*
Y97750D01*
X626000Y90750D02*
X628000D01*
X627000Y89750D02*
Y91750D01*
X626500Y81500D02*
X628500D01*
X627500Y80500D02*
Y82500D01*
X625250Y70500D02*
X627250D01*
X626250Y69500D02*
Y71500D01*
X617000Y60500D02*
X619000D01*
X618000Y59500D02*
Y61500D01*
X610750Y54250D02*
X612750D01*
X611750Y53250D02*
Y55250D01*
X598000Y48500D02*
X600000D01*
X599000Y47500D02*
Y49500D01*
X589000Y48000D02*
X591000D01*
X590000Y47000D02*
Y49000D01*
X579750Y48000D02*
X581750D01*
X580750Y47000D02*
Y49000D01*
X516250Y48250D02*
X518250D01*
X517250Y47250D02*
Y49250D01*
X512500Y43750D02*
X514500D01*
X513500Y42750D02*
Y44750D01*
X506750Y29000D02*
X508750D01*
X507750Y28000D02*
Y30000D01*
X506750Y16750D02*
X508750D01*
X507750Y15750D02*
Y17750D01*
X507000Y3250D02*
X509000D01*
X508000Y2250D02*
Y4250D01*
X545500Y-5750D02*
X547500D01*
X546500Y-6750D02*
Y-4750D01*
X534500Y1750D02*
X536500D01*
X535500Y750D02*
Y2750D01*
X526000Y1750D02*
X528000D01*
X527000Y750D02*
Y2750D01*
X517000Y1500D02*
X519000D01*
X518000Y500D02*
Y2500D01*
X516750Y12500D02*
X518750D01*
X517750Y11500D02*
Y13500D01*
X516750Y22250D02*
X518750D01*
X517750Y21250D02*
Y23250D01*
X517500Y31000D02*
X519500D01*
X518500Y30000D02*
Y32000D01*
X530250Y44750D02*
X532250D01*
X531250Y43750D02*
Y45750D01*
X540000Y47500D02*
X542000D01*
X541000Y46500D02*
Y48500D01*
X526500Y33250D02*
X528500D01*
X527500Y32250D02*
Y34250D01*
X559500Y35500D02*
X561500D01*
X560500Y34500D02*
Y36500D01*
X553750Y29500D02*
X555750D01*
X554750Y28500D02*
Y30500D01*
X565250Y41000D02*
X567250D01*
X566250Y40000D02*
Y42000D01*
X551750Y0D02*
X553750D01*
X552750Y-1000D02*
Y1000D01*
X536250Y33250D02*
X538250D01*
X537250Y32250D02*
Y34250D01*
X570250Y46000D02*
X572250D01*
X571250Y45000D02*
Y47000D01*
X548750Y229000D02*
X550750D01*
X549750Y228000D02*
Y230000D01*
X545500Y217750D02*
X547500D01*
X546500Y216750D02*
Y218750D01*
X548000Y206500D02*
X550000D01*
X549000Y205500D02*
Y207500D01*
X543500Y224250D02*
X545500D01*
X544500Y223250D02*
Y225250D01*
X541750Y206000D02*
X543750D01*
X542750Y205000D02*
Y207000D01*
X557750Y148250D02*
X559750D01*
X558750Y147250D02*
Y149250D01*
X574000Y164750D02*
X576000D01*
X575000Y163750D02*
Y165750D01*
X614000Y158750D02*
X616000D01*
X615000Y157750D02*
Y159750D01*
X624000Y149000D02*
X626000D01*
X625000Y148000D02*
Y150000D01*
X631000Y143500D02*
X633000D01*
X632000Y142500D02*
Y144500D01*
X629500Y161750D02*
X631500D01*
X630500Y160750D02*
Y162750D01*
X620250Y171000D02*
X622250D01*
X621250Y170000D02*
Y172000D01*
X619000Y180750D02*
X621000D01*
X620000Y179750D02*
Y181750D01*
X644750Y144500D02*
X646750D01*
X645750Y143500D02*
Y145500D01*
X636500Y152750D02*
X638500D01*
X637500Y151750D02*
Y153750D01*
X619000Y188250D02*
X621000D01*
X620000Y187250D02*
Y189250D01*
X615000Y173500D02*
X617000D01*
X616000Y172500D02*
Y174500D01*
X658500Y178000D02*
X660500D01*
X659500Y177000D02*
Y179000D01*
X652750Y184000D02*
X654750D01*
X653750Y183000D02*
Y185000D01*
X647250Y191500D02*
X649250D01*
X648250Y190500D02*
Y192500D01*
X629250Y188250D02*
X631250D01*
X630250Y187250D02*
Y189250D01*
X629750Y177500D02*
X631750D01*
X630750Y176500D02*
Y178500D01*
X638250Y168500D02*
X640250D01*
X639250Y167500D02*
Y169500D01*
X646500Y159500D02*
X648500D01*
X647500Y158500D02*
Y160500D01*
X696250Y222750D02*
X698250D01*
X697250Y221750D02*
Y223750D01*
X692863Y233889D02*
X694863D01*
X693863Y232889D02*
Y234889D01*
X698750Y244750D02*
X700750D01*
X699750Y243750D02*
Y245750D01*
X706250Y249000D02*
X708250D01*
X707250Y248000D02*
Y250000D01*
X695000Y261250D02*
X697000D01*
X696000Y260250D02*
Y262250D01*
X683750Y262000D02*
X685750D01*
X684750Y261000D02*
Y263000D01*
X648500Y280500D02*
X650500D01*
X649500Y279500D02*
Y281500D01*
X488000Y181000D02*
X490000D01*
X489000Y180000D02*
Y182000D01*
X497000Y189500D02*
X499000D01*
X498000Y188500D02*
Y190500D01*
X507750Y191250D02*
X509750D01*
X508750Y190250D02*
Y192250D01*
X514500Y198750D02*
X516500D01*
X515500Y197750D02*
Y199750D01*
X514000Y186250D02*
X516000D01*
X515000Y185250D02*
Y187250D01*
X507500Y180250D02*
X509500D01*
X508500Y179250D02*
Y181250D01*
X502000Y173750D02*
X504000D01*
X503000Y172750D02*
Y174750D01*
X676250Y403500D02*
X678250D01*
X677250Y402500D02*
Y404500D01*
X653500Y371000D02*
X655500D01*
X654500Y370000D02*
Y372000D01*
X674250Y392500D02*
X676250D01*
X675250Y391500D02*
Y393500D01*
X667250Y385000D02*
X669250D01*
X668250Y384000D02*
Y386000D01*
X680000Y397500D02*
X682000D01*
X681000Y396500D02*
Y398500D01*
X658250Y343500D02*
X660250D01*
X659250Y342500D02*
Y344500D01*
X657250Y349750D02*
X659250D01*
X658250Y348750D02*
Y350750D01*
X652500Y344750D02*
X654500D01*
X653500Y343750D02*
Y345750D01*
X538250Y299000D02*
X540250D01*
X539250Y298000D02*
Y300000D01*
X530750Y293250D02*
X532750D01*
X531750Y292250D02*
Y294250D01*
X537500Y292250D02*
X539500D01*
X538500Y291250D02*
Y293250D01*
X544750Y293000D02*
X546750D01*
X545750Y292000D02*
Y294000D01*
X542500Y238750D02*
X544500D01*
X543500Y237750D02*
Y239750D01*
X548500Y243500D02*
X550500D01*
X549500Y242500D02*
Y244500D01*
X476750Y173750D02*
X478750D01*
X477750Y172750D02*
Y174750D01*
X526500Y245000D02*
X528500D01*
X527500Y244000D02*
Y246000D01*
X532750Y239500D02*
X534750D01*
X533750Y238500D02*
Y240500D01*
X538250Y234250D02*
X540250D01*
X539250Y233250D02*
Y235250D01*
X492500Y173000D02*
X494500D01*
X493500Y172000D02*
Y174000D01*
X533250Y250750D02*
X535250D01*
X534250Y249750D02*
Y251750D01*
X539250Y250750D02*
X541250D01*
X540250Y249750D02*
Y251750D01*
X545500Y250750D02*
X547500D01*
X546500Y249750D02*
Y251750D01*
X543500Y186250D02*
X545500D01*
X544500Y185250D02*
Y187250D01*
X602250Y257000D02*
X604250D01*
X603250Y256000D02*
Y258000D01*
X609750Y258250D02*
X611750D01*
X610750Y257250D02*
Y259250D01*
X616250Y261250D02*
X618250D01*
X617250Y260250D02*
Y262250D01*
X548000Y191500D02*
X550000D01*
X549000Y190500D02*
Y192500D01*
X577000Y211750D02*
X579000D01*
X578000Y210750D02*
Y212750D01*
X577250Y221000D02*
X579250D01*
X578250Y220000D02*
Y222000D01*
X572000Y216000D02*
X574000D01*
X573000Y215000D02*
Y217000D01*
X569000Y205000D02*
X571000D01*
X570000Y204000D02*
Y206000D01*
X542750Y179250D02*
X544750D01*
X543750Y178250D02*
Y180250D01*
X512500Y145750D02*
X514500D01*
X513500Y144750D02*
Y146750D01*
X528000Y145750D02*
X530000D01*
X529000Y144750D02*
Y146750D01*
X520250Y145500D02*
X522250D01*
X521250Y144500D02*
Y146500D01*
X559000Y166750D02*
X561000D01*
X560000Y165750D02*
Y167750D01*
X570250Y176500D02*
X572250D01*
X571250Y175500D02*
Y177500D01*
X548000Y156000D02*
X550000D01*
X549000Y155000D02*
Y157000D01*
X564026Y174290D02*
X566026D01*
X565026Y173290D02*
Y175290D01*
X571250Y183750D02*
X573250D01*
X572250Y182750D02*
Y184750D01*
X610250Y215250D02*
X612250D01*
X611250Y214250D02*
Y216250D01*
X600500Y235500D02*
X602500D01*
X601500Y234500D02*
Y236500D01*
X612000Y246750D02*
X614000D01*
X613000Y245750D02*
Y247750D01*
X605250Y246500D02*
X607250D01*
X606250Y245500D02*
Y247500D01*
X598750Y242250D02*
X600750D01*
X599750Y241250D02*
Y243250D01*
X602500Y276500D02*
X604500D01*
X603500Y275500D02*
Y277500D01*
X609250Y276500D02*
X611250D01*
X610250Y275500D02*
Y277500D01*
X628000Y278250D02*
X630000D01*
X629000Y277250D02*
Y279250D01*
X622000Y266750D02*
X624000D01*
X623000Y265750D02*
Y267750D01*
X596500Y254500D02*
X598500D01*
X597500Y253500D02*
Y255500D01*
X590500Y251000D02*
X592500D01*
X591500Y250000D02*
Y252000D01*
X594250Y280000D02*
X596250D01*
X595250Y279000D02*
Y281000D01*
X580750Y280500D02*
X582750D01*
X581750Y279500D02*
Y281500D01*
X585750Y261750D02*
X587750D01*
X586750Y260750D02*
Y262750D01*
X581750Y269750D02*
X583750D01*
X582750Y268750D02*
Y270750D01*
X501500Y270000D02*
X503500D01*
X502500Y269000D02*
Y271000D01*
X548250Y277750D02*
X550250D01*
X549250Y276750D02*
Y278750D01*
X539750Y277750D02*
X541750D01*
X540750Y276750D02*
Y278750D01*
X530000Y268750D02*
X532000D01*
X531000Y267750D02*
Y269750D01*
X540000Y268750D02*
X542000D01*
X541000Y267750D02*
Y269750D01*
X548750Y268750D02*
X550750D01*
X549750Y267750D02*
Y269750D01*
X522750Y272500D02*
X524750D01*
X523750Y271500D02*
Y273500D01*
X561000Y269500D02*
X563000D01*
X562000Y268500D02*
Y270500D01*
X556250Y275000D02*
X558250D01*
X557250Y274000D02*
Y276000D01*
X530250Y277750D02*
X532250D01*
X531250Y276750D02*
Y278750D01*
X344750Y292500D02*
X346750D01*
X345750Y291500D02*
Y293500D01*
X333750Y303000D02*
X335750D01*
X334750Y302000D02*
Y304000D01*
X358000Y475000D02*
X360000D01*
X359000Y474000D02*
Y476000D01*
X341500Y458250D02*
X343500D01*
X342500Y457250D02*
Y459250D01*
X365500Y475000D02*
X367500D01*
X366500Y474000D02*
Y476000D01*
X373000Y475000D02*
X375000D01*
X374000Y474000D02*
Y476000D01*
X502750Y321000D02*
X504750D01*
X503750Y320000D02*
Y322000D01*
X494500Y312000D02*
X496500D01*
X495500Y311000D02*
Y313000D01*
X508750Y329500D02*
X510750D01*
X509750Y328500D02*
Y330500D01*
X513750Y339000D02*
X515750D01*
X514750Y338000D02*
Y340000D01*
X516250Y351250D02*
X518250D01*
X517250Y350250D02*
Y352250D01*
X516750Y362750D02*
X518750D01*
X517750Y361750D02*
Y363750D01*
X512000Y409750D02*
X514000D01*
X513000Y408750D02*
Y410750D01*
X512000Y418500D02*
X514000D01*
X513000Y417500D02*
Y419500D01*
X524000Y440000D02*
X526000D01*
X525000Y439000D02*
Y441000D01*
X517250Y440000D02*
X519250D01*
X518250Y439000D02*
Y441000D01*
X509750Y440000D02*
X511750D01*
X510750Y439000D02*
Y441000D01*
X503750Y446250D02*
X505750D01*
X504750Y445250D02*
Y447250D01*
X490500Y460500D02*
X492500D01*
X491500Y459500D02*
Y461500D01*
X478750Y473500D02*
X480750D01*
X479750Y472500D02*
Y474500D01*
X464750Y470250D02*
X466750D01*
X465750Y469250D02*
Y471250D01*
X565500Y464500D02*
X567500D01*
X566500Y463500D02*
Y465500D01*
X543750Y464000D02*
X545750D01*
X544750Y463000D02*
Y465000D01*
X516500Y464000D02*
X518500D01*
X517500Y463000D02*
Y465000D01*
X514250Y493500D02*
X516250D01*
X515250Y492500D02*
Y494500D01*
X533500Y475500D02*
X535500D01*
X534500Y474500D02*
Y476500D01*
X524500Y485250D02*
X526500D01*
X525500Y484250D02*
Y486250D01*
X565500Y508750D02*
X567500D01*
X566500Y507750D02*
Y509750D01*
X565250Y499500D02*
X567250D01*
X566250Y498500D02*
Y500500D01*
X565750Y492000D02*
X567750D01*
X566750Y491000D02*
Y493000D01*
X554500Y511250D02*
X556500D01*
X555500Y510250D02*
Y512250D01*
X553000Y633000D02*
X556000D01*
X554500Y631500D02*
Y634500D01*
X531750Y632750D02*
X534750D01*
X533250Y631250D02*
Y634250D01*
X288750Y375500D02*
X290750D01*
X289750Y374500D02*
Y376500D01*
X288750Y360500D02*
X290750D01*
X289750Y359500D02*
Y361500D01*
X617550Y500500D02*
X619550D01*
X618550Y499500D02*
Y501500D01*
X607681Y439814D02*
X609681D01*
X608681Y438814D02*
Y440814D01*
X573750Y321500D02*
X575750D01*
X574750Y320500D02*
Y322500D01*
X703000Y208000D02*
X706000D01*
X704500Y206500D02*
Y209500D01*
X273157Y315750D02*
X275157D01*
X274157Y314750D02*
Y316750D01*
X260750Y322500D02*
X262750D01*
X261750Y321500D02*
Y323500D01*
X275500Y325328D02*
X277500D01*
X276500Y324328D02*
Y326328D01*
X349750Y29500D02*
X353750D01*
X351750Y27500D02*
Y31500D01*
X362750Y34500D02*
X365750D01*
X364250Y33000D02*
Y36000D01*
X141547Y304866D02*
X143547D01*
X142547Y303866D02*
Y305866D01*
X128750Y304500D02*
X130750D01*
X129750Y303500D02*
Y305500D01*
X124463Y459250D02*
X126463D01*
X125463Y458250D02*
Y460250D01*
X115063Y459250D02*
X117064D01*
X116063Y458250D02*
Y460250D01*
X124500Y477500D02*
X126500D01*
X125500Y476500D02*
Y478500D01*
X250000Y518000D02*
X253000D01*
X251500Y516500D02*
Y519500D01*
X313750Y497500D02*
X315750D01*
X314750Y496500D02*
Y498500D01*
X254250Y471500D02*
X257250D01*
X255750Y470000D02*
Y473000D01*
X296150Y504500D02*
X299350D01*
X297750Y502900D02*
Y506100D01*
X316250Y527500D02*
X319250D01*
X317750Y526000D02*
Y529000D01*
X247000Y617750D02*
X249000D01*
X248000Y616750D02*
Y618750D01*
X236750Y617500D02*
X238750D01*
X237750Y616500D02*
Y618500D01*
X242294Y465488D02*
X244294D01*
X243294Y464488D02*
Y466488D01*
X263750Y629000D02*
X265750D01*
X264750Y628000D02*
Y630000D01*
X263750Y558500D02*
X265750D01*
X264750Y557500D02*
Y559500D01*
X257250Y524500D02*
X260250D01*
X258750Y523000D02*
Y526000D01*
X208250Y576500D02*
X211250D01*
X209750Y575000D02*
Y578000D01*
X207457Y555896D02*
X210457D01*
X208957Y554396D02*
Y557396D01*
X206750Y563500D02*
X208750D01*
X207750Y562500D02*
Y564500D01*
X158846Y541500D02*
X160846D01*
X159846Y540500D02*
Y542500D01*
X158750Y528660D02*
X160750D01*
X159750Y527660D02*
Y529660D01*
X234750Y500500D02*
X236750D01*
X235750Y499500D02*
Y501500D01*
X180250Y672500D02*
X183250D01*
X181750Y671000D02*
Y674000D01*
X175250Y597000D02*
X177250D01*
X176250Y596000D02*
Y598000D01*
X252750Y575500D02*
X254750D01*
X253750Y574500D02*
Y576500D01*
X234860Y466500D02*
X236860D01*
X235860Y465500D02*
Y467500D01*
X247069Y539681D02*
X250069D01*
X248569Y538181D02*
Y541181D01*
X257750Y448500D02*
X259750D01*
X258750Y447500D02*
Y449500D01*
X227236Y442986D02*
X229236D01*
X228236Y441986D02*
Y443986D01*
X236750Y653500D02*
X238750D01*
X237750Y652500D02*
Y654500D01*
X606750Y387700D02*
X608750D01*
X607750Y386700D02*
Y388700D01*
X630562Y441738D02*
X632562D01*
X631562Y440738D02*
Y442738D01*
X651000Y430000D02*
X653000D01*
X652000Y429000D02*
Y431000D01*
X650750Y420000D02*
X652750D01*
X651750Y419000D02*
Y421000D01*
X642750Y543500D02*
X644750D01*
X643750Y542500D02*
Y544500D01*
X620750Y540500D02*
X622750D01*
X621750Y539500D02*
Y541500D01*
X657750Y527500D02*
X659750D01*
X658750Y526500D02*
Y528500D01*
X549750Y544500D02*
X551750D01*
X550750Y543500D02*
Y545500D01*
X648750Y561500D02*
X654750D01*
X651750Y558500D02*
Y564500D01*
X666260Y561010D02*
X668260D01*
X667260Y560010D02*
Y562010D01*
X226750Y332383D02*
X228750D01*
X227750Y331383D02*
Y333383D01*
X220750Y331308D02*
X222750D01*
X221750Y330308D02*
Y332308D01*
X244149Y395500D02*
X246149D01*
X245149Y394500D02*
Y396500D01*
X387250Y515500D02*
X390250D01*
X388750Y514000D02*
Y517000D01*
X335750Y514500D02*
X337750D01*
X336750Y513500D02*
Y515500D01*
X387250Y579500D02*
X390250D01*
X388750Y578000D02*
Y581000D01*
X226259Y436469D02*
X228259D01*
X227259Y435469D02*
Y437469D01*
X221750Y445500D02*
X223750D01*
X222750Y444500D02*
Y446500D01*
X247750Y559500D02*
X249750D01*
X248750Y558500D02*
Y560500D01*
X234391Y552859D02*
X236391D01*
X235391Y551859D02*
Y553859D01*
X452000Y502554D02*
X454000D01*
X453000Y501554D02*
Y503554D01*
X562750Y594500D02*
X564750D01*
X563750Y593500D02*
Y595500D01*
X97682Y386432D02*
X99682D01*
X98682Y385432D02*
Y387432D01*
X131059Y400191D02*
X133059D01*
X132059Y399191D02*
Y401191D01*
X135250Y395196D02*
X137250D01*
X136250Y394196D02*
Y396196D01*
X234750Y438500D02*
X236750D01*
X235750Y437500D02*
Y439500D01*
X253852Y453500D02*
X255852D01*
X254852Y452500D02*
Y454500D01*
X212213Y449500D02*
X214213D01*
X213213Y448500D02*
Y450500D01*
X217357Y455485D02*
X219357D01*
X218357Y454484D02*
Y456484D01*
X198750Y48500D02*
X200750D01*
X199750Y47500D02*
Y49500D01*
X195750Y42500D02*
X197750D01*
X196750Y41500D02*
Y43500D01*
X196846Y59404D02*
X198846D01*
X197846Y58404D02*
Y60404D01*
X109750Y300500D02*
X111750D01*
X110750Y299500D02*
Y301500D01*
X652750Y196500D02*
X654750D01*
X653750Y195500D02*
Y197500D01*
X120750Y485500D02*
X122750D01*
X121750Y484500D02*
Y486500D01*
X130750Y485500D02*
X132750D01*
X131750Y484500D02*
Y486500D01*
X131511Y479504D02*
X133511D01*
X132511Y478504D02*
Y480504D01*
X115766Y494234D02*
X117766D01*
X116766Y493234D02*
Y495234D01*
X108488Y459250D02*
X110488D01*
X109488Y458250D02*
Y460250D01*
X127767Y581092D02*
X129767D01*
X128767Y580092D02*
Y582092D01*
X159750Y313500D02*
X161750D01*
X160750Y312500D02*
Y314500D01*
X170750Y350250D02*
X172750D01*
X171750Y349250D02*
Y351250D01*
X183910Y328489D02*
X185910D01*
X184910Y327489D02*
Y329489D01*
X117750Y293500D02*
X119750D01*
X118750Y292500D02*
Y294500D01*
X87750Y290500D02*
X89750D01*
X88750Y289500D02*
Y291500D01*
X120770Y410862D02*
X122770D01*
X121770Y409862D02*
Y411862D01*
X103163Y409080D02*
X105163D01*
X104163Y408080D02*
Y410080D01*
X97750Y424500D02*
X99750D01*
X98750Y423500D02*
Y425500D01*
X106446Y423250D02*
X108446D01*
X107446Y422250D02*
Y424250D01*
X80750Y442500D02*
X82750D01*
X81750Y441500D02*
Y443500D01*
X63750Y388500D02*
X65750D01*
X64750Y387500D02*
Y389500D01*
X72000Y380500D02*
X74000D01*
X73000Y379500D02*
Y381500D01*
X90750Y322500D02*
X92750D01*
X91750Y321500D02*
Y323500D01*
X117414Y423836D02*
X119414D01*
X118414Y422836D02*
Y424836D01*
X133750Y389500D02*
X135750D01*
X134750Y388500D02*
Y390500D01*
X141619Y430974D02*
X143619D01*
X142619Y429974D02*
Y431974D01*
X205040Y278210D02*
X207040D01*
X206040Y277210D02*
Y279210D01*
X205750Y290500D02*
X207750D01*
X206750Y289500D02*
Y291500D01*
X124750Y502500D02*
X126750D01*
X125750Y501500D02*
Y503500D01*
X114750Y501500D02*
X116750D01*
X115750Y500500D02*
Y502500D01*
X131598Y491630D02*
X133598D01*
X132598Y490630D02*
Y492630D01*
X128774Y421759D02*
X130774D01*
X129774Y420759D02*
Y422759D01*
X228588Y2205D02*
X230588D01*
X229588Y1205D02*
Y3205D01*
X229111Y-3752D02*
X231111D01*
X230111Y-4752D02*
Y-2752D01*
X134787Y580500D02*
X136787D01*
X135787Y579500D02*
Y581500D01*
X680250Y632500D02*
X683250D01*
X681750Y631000D02*
Y634000D01*
X595750Y651500D02*
X597750D01*
X596750Y650500D02*
Y652500D01*
X594750Y677500D02*
X596750D01*
X595750Y676500D02*
Y678500D01*
X620750Y683500D02*
X622750D01*
X621750Y682500D02*
Y684500D01*
X190295Y445500D02*
X192295D01*
X191295Y444500D02*
Y446500D01*
X194884Y451459D02*
X196884D01*
X195884Y450459D02*
Y452459D01*
X155501Y451250D02*
X157501D01*
X156501Y450250D02*
Y452250D01*
X634250Y136500D02*
X637250D01*
X635750Y135000D02*
Y138000D01*
X240750Y362500D02*
X242750D01*
X241750Y361500D02*
Y363500D01*
X248750Y382500D02*
X250750D01*
X249750Y381500D02*
Y383500D01*
X229250Y361500D02*
X232250D01*
X230750Y360000D02*
Y363000D01*
X216750Y365500D02*
X219750D01*
X218250Y364000D02*
Y367000D01*
X217750Y372500D02*
X219750D01*
X218750Y371500D02*
Y373500D01*
X238891Y346641D02*
X240891D01*
X239891Y345641D02*
Y347641D01*
X245585Y333835D02*
X248585D01*
X247085Y332335D02*
Y335335D01*
X123750Y433500D02*
X125750D01*
X124750Y432500D02*
Y434500D01*
X185750Y148000D02*
X187750D01*
X186750Y147000D02*
Y149000D01*
X594750Y484500D02*
X596750D01*
X595750Y483500D02*
Y485500D01*
X569750Y309500D02*
X571750D01*
X570750Y308500D02*
Y310500D01*
X579874Y322500D02*
X581874D01*
X580873Y321500D02*
Y323500D01*
X580750Y328500D02*
X582750D01*
X581750Y327500D02*
Y329500D01*
X579750Y313500D02*
X581750D01*
X580750Y312500D02*
Y314500D01*
X177812Y259500D02*
X179812D01*
X178812Y258500D02*
Y260500D01*
X205120Y296632D02*
X207120D01*
X206120Y295632D02*
Y297632D01*
X236715Y328357D02*
X238715D01*
X237715Y327357D02*
Y329357D01*
X236750Y321312D02*
X238750D01*
X237750Y320312D02*
Y322312D01*
X206123Y479130D02*
X208123D01*
X207123Y478130D02*
Y480130D01*
X210089Y488189D02*
X212089D01*
X211089Y487189D02*
Y489189D01*
X134004Y501500D02*
X136004D01*
X135004Y500500D02*
Y502500D01*
X129750Y547500D02*
X131750D01*
X130750Y546500D02*
Y548500D01*
X158846Y534500D02*
X160846D01*
X159846Y533500D02*
Y535500D01*
X128750Y534500D02*
X130750D01*
X129750Y533500D02*
Y535500D01*
X134750Y552500D02*
X136750D01*
X135750Y551500D02*
Y553500D01*
X121609Y541641D02*
X123609D01*
X122609Y540641D02*
Y542641D01*
X778750Y324500D02*
X780750D01*
X779750Y323500D02*
Y325500D01*
X682750Y245500D02*
X684750D01*
X683750Y244500D02*
Y246500D01*
X674750D02*
X676750D01*
X675750Y245500D02*
Y247500D01*
X256750Y24500D02*
X258750D01*
X257750Y23500D02*
Y25500D01*
X272460Y10620D02*
X274459D01*
X273459Y9620D02*
Y11620D01*
X622750Y323500D02*
X624750D01*
X623750Y322500D02*
Y324500D01*
X713250Y388500D02*
X716250D01*
X714750Y387000D02*
Y390000D01*
X637724Y360526D02*
X639724D01*
X638724Y359526D02*
Y361526D01*
X714063Y421187D02*
X720063D01*
X717063Y418187D02*
Y424187D01*
X610750Y504500D02*
X612750D01*
X611750Y503500D02*
Y505500D01*
X734250Y343500D02*
X737250D01*
X735750Y342000D02*
Y345000D01*
X732750Y331500D02*
X734750D01*
X733750Y330500D02*
Y332500D01*
X665750Y297500D02*
X667750D01*
X666750Y296500D02*
Y298500D01*
X319750Y158500D02*
X321750D01*
X320750Y157500D02*
Y159500D01*
X627750Y391500D02*
X629750D01*
X628750Y390500D02*
Y392500D01*
X543250Y68500D02*
X546250D01*
X544750Y67000D02*
Y70000D01*
X235750Y30500D02*
X237750D01*
X236750Y29500D02*
Y31500D01*
X235250Y511000D02*
X238250D01*
X236750Y509500D02*
Y512500D01*
X194250Y19500D02*
X196250D01*
X195250Y18500D02*
Y20500D01*
X583860Y513500D02*
X585860D01*
X584860Y512500D02*
Y514500D01*
X634750Y499802D02*
X636750D01*
X635750Y498802D02*
Y500802D01*
X590750Y439500D02*
X592750D01*
X591750Y438500D02*
Y440500D01*
X222750Y276500D02*
X224750D01*
X223750Y275500D02*
Y277500D01*
X229969Y294056D02*
X231969D01*
X230969Y293056D02*
Y295056D01*
X632750Y483802D02*
X634750D01*
X633750Y482802D02*
Y484802D01*
X611750Y478500D02*
X613750D01*
X612750Y477500D02*
Y479500D01*
X618143Y475421D02*
X620143D01*
X619143Y474421D02*
Y476421D01*
X194100Y477150D02*
X196100D01*
X195100Y476150D02*
Y478150D01*
X172750Y503500D02*
X174750D01*
X173750Y502500D02*
Y504500D01*
X170750Y403500D02*
X172750D01*
X171750Y402500D02*
Y404500D01*
X268750Y572500D02*
X270750D01*
X269750Y571500D02*
Y573500D01*
X237750Y592500D02*
X239750D01*
X238750Y591500D02*
Y593500D01*
X572426Y88162D02*
X574426D01*
X573426Y87163D02*
Y89163D01*
X585790Y113540D02*
X587790D01*
X586790Y112540D02*
Y114540D01*
X589750Y97500D02*
X591750D01*
X590750Y96500D02*
Y98500D01*
X328750Y45500D02*
X330750D01*
X329750Y44500D02*
Y46500D01*
X263250Y293839D02*
X265250D01*
X264250Y292840D02*
Y294839D01*
X262750Y280250D02*
X264750D01*
X263750Y279250D02*
Y281250D01*
X278500Y278500D02*
X280500D01*
X279500Y277500D02*
Y279500D01*
X278500Y265672D02*
X280500D01*
X279500Y264671D02*
Y266672D01*
X257750Y275500D02*
X259750D01*
X258750Y274500D02*
Y276500D01*
X240750Y256500D02*
X242750D01*
X241750Y255500D02*
Y257500D01*
X233750Y249500D02*
X235750D01*
X234750Y248500D02*
Y250500D01*
X235750Y229500D02*
X237750D01*
X236750Y228500D02*
Y230500D01*
X471750Y60500D02*
X475750D01*
X473750Y58500D02*
Y62500D01*
X669750Y137500D02*
X671750D01*
X670750Y136500D02*
Y138500D01*
X705750Y258500D02*
X707750D01*
X706750Y257500D02*
Y259500D01*
X718750Y300500D02*
X720750D01*
X719750Y299500D02*
Y301500D01*
X673102Y283583D02*
X675102D01*
X674102Y282583D02*
Y284583D01*
X669750Y504500D02*
X671750D01*
X670750Y503500D02*
Y505500D01*
X594260Y640010D02*
X596260D01*
X595260Y639010D02*
Y641010D01*
X590750Y622500D02*
X596750D01*
X593750Y619500D02*
Y625500D01*
X647750Y633500D02*
X649750D01*
X648750Y632500D02*
Y634500D01*
X328750Y653500D02*
X334750D01*
X331750Y650500D02*
Y656500D01*
X374250Y592500D02*
X377250D01*
X375750Y591000D02*
Y594000D01*
X487750Y638500D02*
X493750D01*
X490750Y635500D02*
Y641500D01*
X505250Y648500D02*
X508250D01*
X506750Y647000D02*
Y650000D01*
X161643Y332457D02*
X163643D01*
X162643Y331457D02*
Y333457D01*
X612574Y128541D02*
X614574D01*
X613574Y127541D02*
Y129541D01*
X679750Y644500D02*
X681750D01*
X680750Y643500D02*
Y645500D01*
X417500Y644750D02*
X423500D01*
X420500Y641750D02*
Y647750D01*
X269716Y17574D02*
X272716D01*
X271216Y16074D02*
Y19074D01*
X418608Y561642D02*
X424608D01*
X421608Y558642D02*
Y564642D01*
X592000Y664250D02*
X594000D01*
X593000Y663250D02*
Y665250D01*
X679750Y677250D02*
X681750D01*
X680750Y676250D02*
Y678250D01*
X134750Y345250D02*
X136750D01*
X135750Y344250D02*
Y346250D01*
X160660Y305292D02*
X162660D01*
X161660Y304292D02*
Y306292D01*
X152091Y300500D02*
X154091D01*
X153091Y299500D02*
Y301500D01*
X154250Y290000D02*
X156250D01*
X155250Y289000D02*
Y291000D01*
X127000Y602750D02*
X129000D01*
X128000Y601750D02*
Y603750D01*
X161050Y578125D02*
X163050D01*
X162050Y577125D02*
Y579125D01*
X217073Y436220D02*
X219073D01*
X218073Y435220D02*
Y437220D01*
X103000Y366231D02*
X105000D01*
X104000Y365231D02*
Y367231D01*
X164507Y279743D02*
X166507D01*
X165507Y278743D02*
Y280743D01*
X156750Y276500D02*
X158750D01*
X157750Y275500D02*
Y277500D01*
X199500Y253000D02*
X202500D01*
X201000Y251500D02*
Y254500D01*
X168312Y260062D02*
X170312D01*
X169312Y259062D02*
Y261062D01*
X162316Y254566D02*
X165316D01*
X163816Y253066D02*
Y256066D01*
X70250Y263500D02*
X73250D01*
X71750Y262000D02*
Y265000D01*
X54750Y255250D02*
X57750D01*
X56250Y253750D02*
Y256750D01*
X126750Y113500D02*
X128750D01*
X127750Y112500D02*
Y114500D01*
X228750Y121500D02*
X230750D01*
X229750Y120500D02*
Y122500D01*
X491017Y128478D02*
X494017D01*
X492517Y126978D02*
Y129978D01*
X555250Y137500D02*
X558250D01*
X556750Y136000D02*
Y139000D01*
X153500Y55000D02*
X156500D01*
X155000Y53500D02*
Y56500D01*
X137322Y72572D02*
X139322D01*
X138322Y71572D02*
Y73572D01*
X259500Y242500D02*
X261500D01*
X260500Y241500D02*
Y243500D01*
X280000Y242500D02*
X282000D01*
X281000Y241500D02*
Y243500D01*
X191315Y254652D02*
X193315D01*
X192315Y253652D02*
Y255652D01*
X238250Y222500D02*
X241250D01*
X239750Y221000D02*
Y224000D01*
X264404Y174876D02*
X266404D01*
X265404Y173876D02*
Y175876D01*
X181290Y273576D02*
X183290D01*
X182290Y272576D02*
Y274576D01*
X207393Y441543D02*
X209393D01*
X208393Y440543D02*
Y442543D01*
X202500Y436250D02*
X204500D01*
X203500Y435250D02*
Y437250D01*
X358187Y3937D02*
X360187D01*
X359187Y2937D02*
Y4937D01*
X127039Y427750D02*
X129039D01*
X128039Y426750D02*
Y428750D01*
X182864Y265412D02*
X184864D01*
X183864Y264412D02*
Y266412D01*
X191695Y169500D02*
X193694D01*
X192694Y168500D02*
Y170500D01*
X78500Y215250D02*
X80500D01*
X79500Y214250D02*
Y216250D01*
X125500Y189250D02*
X127500D01*
X126500Y188250D02*
Y190250D01*
X148750Y305500D02*
X150750D01*
X149750Y304500D02*
Y306500D01*
X280250Y43500D02*
X283250D01*
X281750Y42000D02*
Y45000D01*
X240000Y6000D02*
X242000D01*
X241000Y5000D02*
Y7000D01*
X727250Y643500D02*
X730250D01*
X728750Y642000D02*
Y645000D01*
X176865Y190615D02*
X178865D01*
X177865Y189615D02*
Y191615D01*
X146865Y220615D02*
X148865D01*
X147865Y219615D02*
Y221615D01*
X148750Y203500D02*
X150750D01*
X149750Y202500D02*
Y204500D01*
X145472Y236529D02*
X147472D01*
X146472Y235529D02*
Y237529D01*
X189290Y192689D02*
X191290D01*
X190290Y191689D02*
Y193689D01*
X152750Y234500D02*
X154750D01*
X153750Y233500D02*
Y235500D01*
X257750Y570500D02*
X259750D01*
X258750Y569500D02*
Y571500D01*
X470750Y584500D02*
X474750D01*
X472750Y582500D02*
Y586500D01*
X447250Y606500D02*
X450250D01*
X448750Y605000D02*
Y608000D01*
X156424Y613004D02*
X158424D01*
X157424Y612004D02*
Y614004D01*
X402061Y500750D02*
X404061D01*
X403061Y499750D02*
Y501750D01*
X292424Y605004D02*
X294424D01*
X293424Y604004D02*
Y606004D01*
X129250Y633500D02*
X132250D01*
X130750Y632000D02*
Y635000D01*
X90762Y495500D02*
X92762D01*
X91762Y494500D02*
Y496500D01*
X169750Y472500D02*
X171750D01*
X170750Y471500D02*
Y473500D01*
X325175Y449075D02*
X327175D01*
X326175Y448075D02*
Y450075D01*
X180795Y447675D02*
X182795D01*
X181795Y446675D02*
Y448675D01*
X608750Y498500D02*
X610750D01*
X609750Y497500D02*
Y499500D01*
X565750Y451500D02*
X567750D01*
X566750Y450500D02*
Y452500D01*
X583860Y458500D02*
X585860D01*
X584860Y457500D02*
Y459500D01*
X447250Y683500D02*
X450250D01*
X448750Y682000D02*
Y685000D01*
X680750Y664500D02*
X682750D01*
X681750Y663500D02*
Y665500D01*
X496250Y673500D02*
X499250D01*
X497750Y672000D02*
Y675000D01*
X196250Y587000D02*
X199250D01*
X197750Y585500D02*
Y588500D01*
X320750Y444500D02*
X322750D01*
X321750Y443500D02*
Y445500D01*
X273750Y374500D02*
X275750D01*
X274750Y373500D02*
Y375500D01*
X275500Y335500D02*
X277500D01*
X276500Y334500D02*
Y336500D01*
X279500Y339937D02*
X281500D01*
X280500Y338937D02*
Y340937D01*
X278500Y271500D02*
X280500D01*
X279500Y270500D02*
Y272500D01*
X251785Y253483D02*
X253785D01*
X252785Y252483D02*
Y254483D01*
X257891Y253641D02*
X259891D01*
X258891Y252641D02*
Y254641D01*
X230250Y131500D02*
X233250D01*
X231750Y130000D02*
Y133000D01*
X326813Y18063D02*
X328813D01*
X327813Y17063D02*
Y19063D01*
X314911Y42888D02*
X316911D01*
X315911Y41888D02*
Y43888D01*
X196686Y499200D02*
X198686D01*
X197686Y498200D02*
Y500200D01*
X203750Y497500D02*
X205750D01*
X204750Y496500D02*
Y498500D01*
X52250Y337500D02*
X55250D01*
X53750Y336000D02*
Y339000D01*
X257550Y120200D02*
X260550D01*
X259050Y118700D02*
Y121700D01*
X571750Y95500D02*
X573750D01*
X572750Y94500D02*
Y96500D01*
X698750Y127807D02*
X700750D01*
X699750Y126806D02*
Y128806D01*
X698750Y80500D02*
X700750D01*
X699750Y79500D02*
Y81500D01*
X655750Y116250D02*
X657750D01*
X656750Y115250D02*
Y117250D01*
X623750Y260500D02*
X625750D01*
X624750Y259500D02*
Y261500D01*
X606750Y347500D02*
X608750D01*
X607750Y346500D02*
Y348500D01*
X557454Y351604D02*
X559454D01*
X558454Y350604D02*
Y352604D01*
X547578Y305297D02*
X549578D01*
X548578Y304297D02*
Y306297D01*
X548747Y433503D02*
X552747D01*
X550747Y431503D02*
Y435503D01*
X522750Y347500D02*
X524750D01*
X523750Y346500D02*
Y348500D01*
X492750Y496312D02*
X494750D01*
X493750Y495312D02*
Y497313D01*
X187000Y411005D02*
X189000D01*
X188000Y410005D02*
Y412005D01*
X198750Y365500D02*
X200750D01*
X199750Y364500D02*
Y366500D01*
X186359Y367109D02*
X188359D01*
X187359Y366109D02*
Y368109D01*
X202237Y338179D02*
X204237D01*
X203237Y337179D02*
Y339179D01*
X194981Y341489D02*
X196981D01*
X195981Y340489D02*
Y342489D01*
X602925Y533750D02*
X605925D01*
X604426Y532250D02*
Y535250D01*
X612809Y469353D02*
X614809D01*
X613809Y468353D02*
Y470353D01*
X650750Y458500D02*
X652750D01*
X651750Y457500D02*
Y459500D01*
X660950Y464500D02*
X663950D01*
X662450Y463000D02*
Y466000D01*
X591750Y467500D02*
X593750D01*
X592750Y466500D02*
Y468500D01*
X647750Y217500D02*
X649750D01*
X648750Y216500D02*
Y218500D01*
X598750Y360500D02*
X600750D01*
X599750Y359500D02*
Y361500D01*
X614750Y359500D02*
X616750D01*
X615750Y358500D02*
Y360500D01*
Y367500D02*
X617750D01*
X616750Y366500D02*
Y368500D01*
X638750Y385500D02*
X640750D01*
X639750Y384500D02*
Y386500D01*
X627125Y308375D02*
X630125D01*
X628625Y306875D02*
Y309875D01*
X667100Y305650D02*
X670100D01*
X668600Y304150D02*
Y307150D01*
X141037Y458504D02*
X143037D01*
X142037Y457504D02*
Y459504D01*
X188750Y182000D02*
X190750D01*
X189750Y181000D02*
Y183000D01*
X198750Y179455D02*
X200750D01*
X199750Y178455D02*
Y180455D01*
X188616Y334989D02*
X191616D01*
X190116Y333489D02*
Y336489D01*
X195750Y392500D02*
X197750D01*
X196750Y391500D02*
Y393500D01*
X134045Y336205D02*
X136045D01*
X135045Y335205D02*
Y337205D01*
X142750Y288500D02*
X144750D01*
X143750Y287500D02*
Y289500D01*
X158846Y514672D02*
X160846D01*
X159846Y513672D02*
Y515672D01*
X158750Y552500D02*
X160750D01*
X159750Y551500D02*
Y553500D01*
X247750Y37500D02*
X249750D01*
X248750Y36500D02*
Y38500D01*
X251250Y57500D02*
X254250D01*
X252750Y56000D02*
Y59000D01*
X255750Y83500D02*
X257750D01*
X256750Y82500D02*
Y84500D01*
X185750Y661500D02*
X187750D01*
X186750Y660500D02*
Y662500D01*
X200503Y610160D02*
X202503D01*
X201503Y609160D02*
Y611160D01*
X569250Y568500D02*
X572250D01*
X570750Y567000D02*
Y570000D01*
X577250Y117500D02*
X580250D01*
X578750Y116000D02*
Y119000D01*
X711250Y509500D02*
X714250D01*
X712750Y508000D02*
Y511000D01*
X540250Y602500D02*
X543250D01*
X541750Y601000D02*
Y604000D01*
X130750Y356731D02*
X132750D01*
X131750Y355731D02*
Y357731D01*
X108250Y349500D02*
X111250D01*
X109750Y348000D02*
Y351000D01*
X197250Y3500D02*
X200250D01*
X198750Y2000D02*
Y5000D01*
X639250Y229500D02*
X642250D01*
X640750Y228000D02*
Y231000D01*
X646750Y243500D02*
X648750D01*
X647750Y242500D02*
Y244500D01*
X666384Y276866D02*
X668384D01*
X667384Y275866D02*
Y277866D01*
X676250Y270500D02*
X679250D01*
X677750Y269000D02*
Y272000D01*
X668154Y321904D02*
X670154D01*
X669154Y320904D02*
Y322904D01*
X719750Y370500D02*
X721750D01*
X720750Y369500D02*
Y371500D01*
X670750Y424500D02*
X672750D01*
X671750Y423500D02*
Y425500D01*
X669750Y451500D02*
X671750D01*
X670750Y450500D02*
Y452500D01*
Y486500D02*
X672750D01*
X671750Y485500D02*
Y487500D01*
X586750Y502500D02*
X588750D01*
X587750Y501500D02*
Y503500D01*
X148750Y260500D02*
X150750D01*
X149750Y259500D02*
Y261500D01*
X150750Y272500D02*
X152750D01*
X151750Y271500D02*
Y273500D01*
X282250Y206500D02*
X285250D01*
X283750Y205000D02*
Y208000D01*
X305250Y200500D02*
X308250D01*
X306750Y199000D02*
Y202000D01*
X305750Y219500D02*
X307750D01*
X306750Y218500D02*
Y220500D01*
X285750Y228500D02*
X287750D01*
X286750Y227500D02*
Y229500D01*
X469750Y278500D02*
X471750D01*
X470750Y277500D02*
Y279500D01*
X559860Y386117D02*
X561861D01*
X560860Y385117D02*
Y387117D01*
X558507Y371257D02*
X560507D01*
X559507Y370257D02*
Y372257D01*
X753750Y420500D02*
X759750D01*
X756750Y417500D02*
Y423500D01*
X594941Y657559D02*
X596941D01*
X595941Y656559D02*
Y658559D01*
X211185Y281500D02*
X213185D01*
X212185Y280500D02*
Y282500D01*
X331250Y173500D02*
X334250D01*
X332750Y172000D02*
Y175000D01*
X343750Y154500D02*
X345750D01*
X344750Y153500D02*
Y155500D01*
X110750Y139500D02*
X112750D01*
X111750Y138500D02*
Y140500D01*
X455250Y154500D02*
X458250D01*
X456750Y153000D02*
Y156000D01*
X469250Y154500D02*
X472250D01*
X470750Y153000D02*
Y156000D01*
X499457Y162793D02*
X501457D01*
X500457Y161793D02*
Y163793D01*
X374500Y163250D02*
X376500D01*
X375500Y162250D02*
Y164250D01*
X321250Y486500D02*
X324250D01*
X322750Y485000D02*
Y488000D01*
X387250Y496500D02*
X390250D01*
X388750Y495000D02*
Y498000D01*
X518750Y451500D02*
X520750D01*
X519750Y450500D02*
Y452500D01*
X637750Y287500D02*
X639750D01*
X638750Y286500D02*
Y288500D01*
X700463Y370287D02*
X702463D01*
X701463Y369287D02*
Y371287D01*
X45750Y201500D02*
X47750D01*
X46750Y200500D02*
Y202500D01*
X168750Y181500D02*
X170750D01*
X169750Y180500D02*
Y182500D01*
X308750Y271500D02*
X310750D01*
X309750Y270500D02*
Y272500D01*
X308750Y278500D02*
X310750D01*
X309750Y277500D02*
Y279500D01*
X116750Y324500D02*
X118750D01*
X117750Y323500D02*
Y325500D01*
X124750Y318500D02*
X126750D01*
X125750Y317500D02*
Y319500D01*
X128750Y287500D02*
X130750D01*
X129750Y286500D02*
Y288500D01*
X511422Y275828D02*
X513422D01*
X512422Y274828D02*
Y276828D01*
X492250Y284500D02*
X495250D01*
X493750Y283000D02*
Y286000D01*
X580250Y149500D02*
X583250D01*
X581750Y148000D02*
Y151000D01*
X366283Y279191D02*
X368283D01*
X367283Y278191D02*
Y280191D01*
X535750Y87500D02*
X537750D01*
X536750Y86500D02*
Y88500D01*
X297250Y33500D02*
X300250D01*
X298750Y32000D02*
Y35000D01*
X215250Y131500D02*
X218250D01*
X216750Y130000D02*
Y133000D01*
X227250Y105500D02*
X230250D01*
X228750Y104000D02*
Y107000D01*
X601250Y76500D02*
X604250D01*
X602750Y75000D02*
Y78000D01*
X599250Y211500D02*
X602250D01*
X600750Y210000D02*
Y213000D01*
X580250Y192500D02*
X583250D01*
X581750Y191000D02*
Y194000D01*
X579250Y247500D02*
X582250D01*
X580750Y246000D02*
Y249000D01*
X559750Y398500D02*
X561750D01*
X560750Y397500D02*
Y399500D01*
X524250Y494500D02*
X529250D01*
X526750Y492000D02*
Y497000D01*
X244344Y405500D02*
X248344D01*
X246344Y403500D02*
Y407500D01*
X549250Y583500D02*
X554250D01*
X551750Y581000D02*
Y586000D01*
X248003Y317500D02*
X250003D01*
X249003Y316500D02*
Y318500D01*
X165500Y364750D02*
X167500D01*
X166500Y363750D02*
Y365750D01*
X313750Y434000D02*
X317750D01*
X315750Y432000D02*
Y436000D01*
X303750Y307500D02*
X305750D01*
X304750Y306500D02*
Y308500D01*
X278500Y284503D02*
X280500D01*
X279500Y283503D02*
Y285503D01*
X278500Y293039D02*
X280500D01*
X279500Y292039D02*
Y294039D01*
X305500Y284500D02*
X307500D01*
X306500Y283500D02*
Y285500D01*
X300000Y329500D02*
X302000D01*
X301000Y328500D02*
Y330500D01*
X224458Y284617D02*
X226458D01*
X225458Y283617D02*
Y285617D01*
X584750Y469500D02*
X586750D01*
X585750Y468500D02*
Y470500D01*
X273750Y415500D02*
X275750D01*
X274750Y414500D02*
Y416500D01*
X279750Y330500D02*
X281750D01*
X280750Y329500D02*
Y331500D01*
X312750Y292500D02*
X314750D01*
X313750Y291500D02*
Y293500D01*
X263539Y302961D02*
X265539D01*
X264539Y301961D02*
Y303961D01*
X61750Y372500D02*
X63750D01*
X62750Y371500D02*
Y373500D01*
Y379500D02*
X64750D01*
X63750Y378500D02*
Y380500D01*
X318750Y289500D02*
X320750D01*
X319750Y288500D02*
Y290500D01*
X317750Y311500D02*
X319750D01*
X318750Y310500D02*
Y312500D01*
X308750Y265500D02*
X310750D01*
X309750Y264500D02*
Y266500D01*
X236449Y293755D02*
X238449D01*
X237449Y292755D02*
Y294755D01*
X440458Y272612D02*
X442458D01*
X441459Y271612D02*
Y273612D01*
X566750Y194500D02*
X568750D01*
X567750Y193500D02*
Y195500D01*
X180750Y296500D02*
X182750D01*
X181750Y295500D02*
Y297500D01*
X148750Y324500D02*
X150750D01*
X149750Y323500D02*
Y325500D01*
X689750Y345375D02*
X691750D01*
X690750Y344375D02*
Y346375D01*
X459750Y99500D02*
X461750D01*
X460750Y98500D02*
Y100500D01*
X449750Y99500D02*
X451750D01*
X450750Y98500D02*
Y100500D01*
X465644Y103106D02*
X468644D01*
X467144Y101606D02*
Y104606D01*
X485248Y121146D02*
X488248D01*
X486748Y119646D02*
Y122646D01*
X132750Y373500D02*
X134750D01*
X133750Y372500D02*
Y374500D01*
X312500Y127500D02*
X315500D01*
X314000Y126000D02*
Y129000D01*
X281250Y105500D02*
X284250D01*
X282750Y104000D02*
Y107000D01*
X690250Y603500D02*
X693250D01*
X691750Y602000D02*
Y605000D01*
X279250Y98272D02*
X282250D01*
X280750Y96772D02*
Y99772D01*
X596156Y669500D02*
X598156D01*
X597156Y668500D02*
Y670500D01*
X480807Y114314D02*
X483807D01*
X482307Y112814D02*
Y115814D01*
M02*
